<?xml version="1.0" encoding="iso-8859-1"?><svg version="1.1" xmlns="http://www.w3.org/2000/svg" xmlns:xlink="http://www.w3.org/1999/xlink" x="0px" y="0px" viewBox="0 0 146.819 271.392" style="enable-background:new 0 0 146.819 271.392;" xml:space="preserve"><g id="book-isometric"><g><line style="fill-rule:evenodd;clip-rule:evenodd;fill:none;stroke:#009DDB;stroke-width:1.163;stroke-linecap:round;stroke-miterlimit:10;" x1="135.043" y1="210.119" x2="135.043" y2="25.397"/><line style="fill-rule:evenodd;clip-rule:evenodd;fill:none;stroke:#009DDB;stroke-width:1.163;stroke-linecap:round;stroke-miterlimit:10;" x1="128.983" y1="206.433" x2="120.852" y2="211.098"/><line style="fill-rule:evenodd;clip-rule:evenodd;fill:none;stroke:#009DDB;stroke-width:1.163;stroke-linecap:round;stroke-miterlimit:10;" x1="128.983" y1="193.39" x2="120.852" y2="198.077"/><line style="fill-rule:evenodd;clip-rule:evenodd;fill:none;stroke:#009DDB;stroke-width:1.163;stroke-linecap:round;stroke-miterlimit:10;" x1="128.983" y1="180.368" x2="120.852" y2="185.059"/><line style="fill-rule:evenodd;clip-rule:evenodd;fill:none;stroke:#009DDB;stroke-width:1.163;stroke-linecap:round;stroke-miterlimit:10;" x1="128.983" y1="167.324" x2="120.852" y2="172.013"/><line style="fill-rule:evenodd;clip-rule:evenodd;fill:none;stroke:#009DDB;stroke-width:1.163;stroke-linecap:round;stroke-miterlimit:10;" x1="128.983" y1="154.278" x2="120.852" y2="158.969"/><line style="fill-rule:evenodd;clip-rule:evenodd;fill:none;stroke:#009DDB;stroke-width:1.163;stroke-linecap:round;stroke-miterlimit:10;" x1="128.983" y1="141.261" x2="120.852" y2="145.926"/><line style="fill-rule:evenodd;clip-rule:evenodd;fill:none;stroke:#009DDB;stroke-width:1.163;stroke-linecap:round;stroke-miterlimit:10;" x1="128.983" y1="128.213" x2="120.852" y2="132.904"/><line style="fill-rule:evenodd;clip-rule:evenodd;fill:none;stroke:#009DDB;stroke-width:1.163;stroke-linecap:round;stroke-miterlimit:10;" x1="128.983" y1="115.169" x2="120.852" y2="119.862"/><line style="fill-rule:evenodd;clip-rule:evenodd;fill:none;stroke:#009DDB;stroke-width:1.163;stroke-linecap:round;stroke-miterlimit:10;" x1="128.983" y1="102.149" x2="120.852" y2="106.84"/><line style="fill-rule:evenodd;clip-rule:evenodd;fill:none;stroke:#009DDB;stroke-width:1.163;stroke-linecap:round;stroke-miterlimit:10;" x1="128.983" y1="89.106" x2="120.852" y2="93.797"/><line style="fill-rule:evenodd;clip-rule:evenodd;fill:none;stroke:#009DDB;stroke-width:1.163;stroke-linecap:round;stroke-miterlimit:10;" x1="128.983" y1="76.084" x2="120.852" y2="80.749"/><line style="fill-rule:evenodd;clip-rule:evenodd;fill:none;stroke:#009DDB;stroke-width:1.163;stroke-linecap:round;stroke-miterlimit:10;" x1="128.983" y1="63.04" x2="120.852" y2="67.731"/><line style="fill-rule:evenodd;clip-rule:evenodd;fill:none;stroke:#009DDB;stroke-width:1.163;stroke-linecap:round;stroke-miterlimit:10;" x1="128.983" y1="50.019" x2="120.852" y2="54.685"/><line style="fill-rule:evenodd;clip-rule:evenodd;fill:none;stroke:#009DDB;stroke-width:1.163;stroke-linecap:round;stroke-miterlimit:10;" x1="128.983" y1="36.975" x2="120.852" y2="41.668"/><line style="fill-rule:evenodd;clip-rule:evenodd;fill:none;stroke:#009DDB;stroke-width:1.163;stroke-linecap:round;stroke-miterlimit:10;" x1="45.076" y1="262.08" x2="45.076" y2="77.354"/><line style="fill-rule:evenodd;clip-rule:evenodd;fill:none;stroke:#009DDB;stroke-width:1.163;stroke-linecap:round;stroke-miterlimit:10;" x1="67.67" y1="249.01" x2="67.67" y2="64.31"/><line style="fill-rule:evenodd;clip-rule:evenodd;fill:none;stroke:#009DDB;stroke-width:1.163;stroke-linecap:round;stroke-miterlimit:10;" x1="90.265" y1="235.992" x2="90.265" y2="51.266"/><line style="fill-rule:evenodd;clip-rule:evenodd;fill:none;stroke:#009DDB;stroke-width:1.163;stroke-linecap:round;stroke-miterlimit:10;" x1="112.864" y1="222.972" x2="112.864" y2="38.198"/><line style="fill-rule:evenodd;clip-rule:evenodd;fill:none;stroke:#009DDB;stroke-width:1.163;stroke-linecap:round;stroke-miterlimit:10;" x1="13.024" y1="267.867" x2="13.024" y2="82.754"/><line style="fill-rule:evenodd;clip-rule:evenodd;fill:none;stroke:#009DDB;stroke-width:1.163;stroke-linecap:round;stroke-miterlimit:10;" x1="24.287" y1="269.63" x2="24.287" y2="84.267"/><line style="fill-rule:evenodd;clip-rule:evenodd;fill:none;stroke:#009DDB;stroke-width:1.163;stroke-linecap:round;stroke-miterlimit:10;" x1="29.684" y1="82.166" x2="27.02" y2="77.5"/><line style="fill-rule:evenodd;clip-rule:evenodd;fill:none;stroke:#009DDB;stroke-width:1.163;stroke-linecap:round;stroke-miterlimit:10;" x1="20.575" y1="66.315" x2="17.204" y2="60.55"/><line style="fill-rule:evenodd;clip-rule:evenodd;fill:none;stroke:#009DDB;stroke-width:1.163;stroke-linecap:round;stroke-miterlimit:10;" x1="50.083" y1="72.276" x2="46.712" y2="66.484"/><line style="fill-rule:evenodd;clip-rule:evenodd;fill:none;stroke:#009DDB;stroke-width:1.163;stroke-linecap:round;stroke-miterlimit:10;" x1="40.094" y1="54.979" x2="36.767" y2="49.239"/><line style="fill-rule:evenodd;clip-rule:evenodd;fill:none;stroke:#009DDB;stroke-width:1.163;stroke-linecap:round;stroke-miterlimit:10;" x1="69.649" y1="60.987" x2="66.28" y2="55.199"/><line style="fill-rule:evenodd;clip-rule:evenodd;fill:none;stroke:#009DDB;stroke-width:1.163;stroke-linecap:round;stroke-miterlimit:10;" x1="59.656" y1="43.695" x2="56.338" y2="37.929"/><line style="fill-rule:evenodd;clip-rule:evenodd;fill:none;stroke:#009DDB;stroke-width:1.163;stroke-linecap:round;stroke-miterlimit:10;" x1="89.169" y1="49.704" x2="85.843" y2="43.912"/><line style="fill-rule:evenodd;clip-rule:evenodd;fill:none;stroke:#009DDB;stroke-width:1.163;stroke-linecap:round;stroke-miterlimit:10;" x1="79.175" y1="32.406" x2="75.854" y2="26.619"/><line style="fill-rule:evenodd;clip-rule:evenodd;fill:none;stroke:#009DDB;stroke-width:1.163;stroke-linecap:round;stroke-miterlimit:10;" x1="108.732" y1="38.393" x2="105.413" y2="32.627"/><line style="fill-rule:evenodd;clip-rule:evenodd;fill:none;stroke:#009DDB;stroke-width:1.163;stroke-linecap:round;stroke-miterlimit:10;" x1="122.486" y1="25.544" x2="114.35" y2="30.21"/><line style="fill-rule:evenodd;clip-rule:evenodd;fill:none;stroke:#009DDB;stroke-width:1.163;stroke-linecap:round;stroke-miterlimit:10;" x1="111.175" y1="18.995" x2="103.044" y2="23.686"/><line style="fill-rule:evenodd;clip-rule:evenodd;fill:none;stroke:#009DDB;stroke-width:1.163;stroke-linecap:round;stroke-miterlimit:10;" x1="99.842" y1="12.498" x2="91.759" y2="17.163"/><path style="fill-rule:evenodd;clip-rule:evenodd;fill:none;stroke:#005A9D;stroke-width:4.1134;stroke-linecap:round;stroke-linejoin:round;stroke-miterlimit:22.9256;" d=" M118.603,34.949c-11.402-6.554-22.801-13.147-34.2-19.74L96.35,8.226c11.455,6.564,22.842,13.19,34.27,19.758"/><polyline style="fill-rule:evenodd;clip-rule:evenodd;fill:none;stroke:#005A9D;stroke-width:4.1134;stroke-linecap:round;stroke-linejoin:round;stroke-miterlimit:22.9256;" points=" 121.341,21.074 128.35,16.994 123.707,14.329 "/><line style="fill-rule:evenodd;clip-rule:evenodd;fill:none;stroke:#005A9D;stroke-width:4.1134;stroke-linecap:round;stroke-linejoin:round;stroke-miterlimit:22.9256;" x1="133.53" y1="14.038" x2="128.35" y2="16.994"/><path style="fill-rule:evenodd;clip-rule:evenodd;fill:none;stroke:#005A9D;stroke-width:4.1173;stroke-linecap:round;stroke-linejoin:round;stroke-miterlimit:22.9256;" d=" M42.875,78.675l20.203-11.679l55.525-32.046l12.017-6.965l12.484-7.205c2.543-1.468,1.847-4.242,0-5.397l-2.369-1.394 c-2.216-1.292-4.915-1.289-7.123,0"/><path style="fill-rule:evenodd;clip-rule:evenodd;fill:none;stroke:#005A9D;stroke-width:4.1134;stroke-linecap:round;stroke-linejoin:round;stroke-miterlimit:22.9256;" d=" M98.695,23.444C76.564,36.219,51.403,50.682,29.393,63.456l-8.646,5.041c-6.744,3.929-2.369,8.227,3.046,7.693 c1.847-0.181,3.676-0.868,5.258-1.765"/><polyline style="fill-rule:evenodd;clip-rule:evenodd;fill:none;stroke:#005A9D;stroke-width:4.1134;stroke-linecap:round;stroke-linejoin:round;stroke-miterlimit:22.9256;" points=" 107.978,28.841 49.789,62.404 34.792,71.124 32.371,72.518 29.052,74.425 "/><line style="fill-rule:evenodd;clip-rule:evenodd;fill:none;stroke:#005A9D;stroke-width:4.1134;stroke-linecap:round;stroke-linejoin:round;stroke-miterlimit:22.9256;" x1="123.707" y1="14.281" x2="123.707" y2="7.589"/><path style="fill-rule:evenodd;clip-rule:evenodd;fill:none;stroke:#005A9D;stroke-width:4.1134;stroke-linecap:round;stroke-linejoin:round;stroke-miterlimit:22.9256;" d=" M32.371,268.21c-2.687,0.758-5.471,1.125-8.305,1.125c-1.001,0-1.931-0.074-2.856-0.122c-0.758-0.051-1.442-0.125-2.2-0.245"/><line style="fill-rule:evenodd;clip-rule:evenodd;fill:none;stroke:#005A9D;stroke-width:4.1134;stroke-linecap:round;stroke-linejoin:round;stroke-miterlimit:22.9256;" x1="32.371" y1="83.609" x2="32.371" y2="268.21"/><polyline style="fill-rule:evenodd;clip-rule:evenodd;fill:none;stroke:#005A9D;stroke-width:4.1134;stroke-linecap:round;stroke-linejoin:round;stroke-miterlimit:22.9256;" points=" 118.898,35.118 118.898,223.604 130.915,216.691 130.915,28.157 "/><path style="fill-rule:evenodd;clip-rule:evenodd;fill:none;stroke:#005A9D;stroke-width:4.1173;stroke-linecap:round;stroke-linejoin:round;stroke-miterlimit:22.9256;" d=" M87.995,17.283C66.669,29.673,45.491,41.91,24.187,54.221c-5.746,3.361-22.712,11.73-22.113,19.461 c0.501,6.45,10.99,9.938,16.583,10.711c10.089,1.398,15.81-0.846,24.218-5.718"/><line style="fill-rule:evenodd;clip-rule:evenodd;fill:none;stroke:#005A9D;stroke-width:4.1134;stroke-linecap:round;stroke-linejoin:round;stroke-miterlimit:22.9256;" x1="2.108" y1="256.314" x2="2.108" y2="74.027"/><path style="fill-rule:evenodd;clip-rule:evenodd;fill:none;stroke:#005A9D;stroke-width:4.1134;stroke-linecap:round;stroke-linejoin:round;stroke-miterlimit:22.9256;" d=" M18.959,268.968c-0.534-0.048-1.001-0.17-1.464-0.218c-0.979-0.173-2.028-0.415-3.028-0.71c-0.684-0.173-1.39-0.341-2.078-0.632 c-0.07,0-0.07-0.052-0.122-0.052c-0.048,0-0.121,0-0.169-0.074c-0.243,0-0.417-0.095-0.637-0.169 c-0.121-0.048-0.293-0.125-0.415-0.221c-1.023-0.463-2.076-1.001-3.002-1.564c-0.415-0.243-0.832-0.537-1.173-0.828 c-0.221-0.099-0.417-0.293-0.633-0.393c-0.419-0.365-0.758-0.658-1.099-1.049c-0.417-0.367-0.758-0.758-1.053-1.221 c-0.122-0.173-0.221-0.367-0.343-0.537c-0.243-0.273-0.411-0.563-0.537-0.905c-0.095-0.243-0.221-0.489-0.341-0.71 c0-0.048-0.048-0.122-0.048-0.17c-0.173-0.341-0.295-0.758-0.343-1.173c-0.195-0.632-0.364-1.318-0.364-2.027"/><line style="fill-rule:evenodd;clip-rule:evenodd;fill:none;stroke:#005A9D;stroke-width:4.1134;stroke-linecap:round;stroke-linejoin:round;stroke-miterlimit:22.9256;" x1="19.01" y1="268.968" x2="18.959" y2="268.968"/><path style="fill-rule:evenodd;clip-rule:evenodd;fill:none;stroke:#005A9D;stroke-width:4.1134;stroke-linecap:round;stroke-linejoin:round;stroke-miterlimit:22.9256;" d=" M46.933,260.906c-4.348,2.543-8.355,5.228-13.12,6.913c-0.463,0.126-0.975,0.295-1.442,0.343"/><line style="fill-rule:evenodd;clip-rule:evenodd;fill:none;stroke:#005A9D;stroke-width:4.1134;stroke-linecap:round;stroke-linejoin:round;stroke-miterlimit:22.9256;" x1="118.898" y1="219.381" x2="46.933" y2="260.906"/><line style="fill-rule:evenodd;clip-rule:evenodd;fill:none;stroke:#005A9D;stroke-width:4.1134;stroke-linecap:round;stroke-linejoin:round;stroke-miterlimit:22.9256;" x1="143.104" y1="205.38" x2="130.915" y2="212.416"/><path style="fill-rule:evenodd;clip-rule:evenodd;fill:none;stroke:#005A9D;stroke-width:4.1134;stroke-linecap:round;stroke-linejoin:round;stroke-miterlimit:22.9256;" d=" M144.669,202.647c-0.122,1.295-0.463,1.98-1.564,2.734"/><line style="fill-rule:evenodd;clip-rule:evenodd;fill:none;stroke:#005A9D;stroke-width:4.1134;stroke-linecap:round;stroke-linejoin:round;stroke-miterlimit:22.9256;" x1="144.669" y1="19.156" x2="144.669" y2="202.647"/><path style="fill-rule:evenodd;clip-rule:evenodd;fill:none;stroke:#005A9D;stroke-width:4.1134;stroke-linecap:round;stroke-linejoin:round;stroke-miterlimit:22.9256;" d=" M100.016,10.322c4.176-2.365,8.425-4.809,12.601-7.252c3.632-2.122,6.285-0.548,9.578,1.391c1.935,1.118,2.134,4.326,0,5.397 c-3.838,2.2-7.671,4.422-11.506,6.624"/></g></g><g id="Layer_1"></g></svg> 
