<?xml version="1.0" encoding="iso-8859-1"?><svg version="1.1" xmlns="http://www.w3.org/2000/svg" xmlns:xlink="http://www.w3.org/1999/xlink" x="0px" y="0px" viewBox="0 0 254.115 272.625" style="enable-background:new 0 0 254.115 272.625;" xml:space="preserve"><g id="callouts-isometric"><g><line style="fill-rule:evenodd;clip-rule:evenodd;fill:none;stroke:#009DDB;stroke-width:1.163;stroke-linecap:round;stroke-miterlimit:10;" x1="102.53" y1="219.515" x2="90.684" y2="226.332"/><line style="fill-rule:evenodd;clip-rule:evenodd;fill:none;stroke:#009DDB;stroke-width:1.163;stroke-linecap:round;stroke-miterlimit:10;" x1="102.703" y1="206.349" x2="85.333" y2="216.386"/><line style="fill-rule:evenodd;clip-rule:evenodd;fill:none;stroke:#009DDB;stroke-width:1.163;stroke-linecap:round;stroke-miterlimit:10;" x1="22.677" y1="219.246" x2="17.327" y2="222.325"/><line style="fill-rule:evenodd;clip-rule:evenodd;fill:none;stroke:#009DDB;stroke-width:1.163;stroke-linecap:round;stroke-miterlimit:10;" x1="22.972" y1="206.03" x2="5.675" y2="216.045"/><line style="fill-rule:evenodd;clip-rule:evenodd;fill:none;stroke:#009DDB;stroke-width:1.163;stroke-linecap:round;stroke-miterlimit:10;" x1="22.972" y1="193.012" x2="4.159" y2="203.855"/><line style="fill-rule:evenodd;clip-rule:evenodd;fill:none;stroke:#009DDB;stroke-width:1.163;stroke-linecap:round;stroke-miterlimit:10;" x1="22.894" y1="179.99" x2="4.085" y2="190.863"/><line style="fill-rule:evenodd;clip-rule:evenodd;fill:none;stroke:#009DDB;stroke-width:1.163;stroke-linecap:round;stroke-miterlimit:10;" x1="22.846" y1="166.995" x2="4.038" y2="177.867"/><line style="fill-rule:evenodd;clip-rule:evenodd;fill:none;stroke:#009DDB;stroke-width:1.163;stroke-linecap:round;stroke-miterlimit:10;" x1="22.846" y1="153.951" x2="3.964" y2="164.893"/><line style="fill-rule:evenodd;clip-rule:evenodd;fill:none;stroke:#009DDB;stroke-width:1.163;stroke-linecap:round;stroke-miterlimit:10;" x1="22.894" y1="140.905" x2="3.864" y2="151.898"/><line style="fill-rule:evenodd;clip-rule:evenodd;fill:none;stroke:#009DDB;stroke-width:1.163;stroke-linecap:round;stroke-miterlimit:10;" x1="23.016" y1="127.787" x2="3.792" y2="138.904"/><line style="fill-rule:evenodd;clip-rule:evenodd;fill:none;stroke:#009DDB;stroke-width:1.163;stroke-linecap:round;stroke-miterlimit:10;" x1="23.215" y1="114.671" x2="3.744" y2="125.908"/><line style="fill-rule:evenodd;clip-rule:evenodd;fill:none;stroke:#009DDB;stroke-width:1.163;stroke-linecap:round;stroke-miterlimit:10;" x1="24.29" y1="100.964" x2="3.621" y2="112.937"/><line style="fill-rule:evenodd;clip-rule:evenodd;fill:none;stroke:#009DDB;stroke-width:1.163;stroke-linecap:round;stroke-miterlimit:10;" x1="12.636" y1="94.688" x2="4.281" y2="99.5"/><line style="fill-rule:evenodd;clip-rule:evenodd;fill:none;stroke:#009DDB;stroke-width:1.163;stroke-linecap:round;stroke-miterlimit:10;" x1="31.666" y1="255.182" x2="20.941" y2="261.385"/><line style="fill-rule:evenodd;clip-rule:evenodd;fill:none;stroke:#009DDB;stroke-width:1.163;stroke-linecap:round;stroke-miterlimit:10;" x1="32.719" y1="241.549" x2="12.341" y2="253.324"/><line style="fill-rule:evenodd;clip-rule:evenodd;fill:none;stroke:#009DDB;stroke-width:1.163;stroke-linecap:round;stroke-miterlimit:10;" x1="26.901" y1="231.877" x2="12.636" y2="240.107"/><line style="fill-rule:evenodd;clip-rule:evenodd;fill:none;stroke:#009DDB;stroke-width:1.163;stroke-linecap:round;stroke-miterlimit:10;" x1="15.179" y1="225.622" x2="14.028" y2="226.259"/><line style="fill-rule:evenodd;clip-rule:evenodd;fill:none;stroke:#009DDB;stroke-width:1.163;stroke-linecap:round;stroke-miterlimit:10;" x1="168.682" y1="12.586" x2="166.533" y2="16.324"/><line style="fill-rule:evenodd;clip-rule:evenodd;fill:none;stroke:#009DDB;stroke-width:1.163;stroke-linecap:round;stroke-miterlimit:10;" x1="159.256" y1="6.357" x2="146.649" y2="28.195"/><line style="fill-rule:evenodd;clip-rule:evenodd;fill:none;stroke:#009DDB;stroke-width:1.163;stroke-linecap:round;stroke-miterlimit:10;" x1="146.429" y1="5.968" x2="126.863" y2="39.873"/><line style="fill-rule:evenodd;clip-rule:evenodd;fill:none;stroke:#009DDB;stroke-width:1.163;stroke-linecap:round;stroke-miterlimit:10;" x1="126.863" y1="17.252" x2="107.295" y2="51.183"/><line style="fill-rule:evenodd;clip-rule:evenodd;fill:none;stroke:#009DDB;stroke-width:1.163;stroke-linecap:round;stroke-miterlimit:10;" x1="107.343" y1="28.511" x2="87.776" y2="62.468"/><line style="fill-rule:evenodd;clip-rule:evenodd;fill:none;stroke:#009DDB;stroke-width:1.163;stroke-linecap:round;stroke-miterlimit:10;" x1="87.776" y1="39.799" x2="68.21" y2="73.752"/><line style="fill-rule:evenodd;clip-rule:evenodd;fill:none;stroke:#009DDB;stroke-width:1.163;stroke-linecap:round;stroke-miterlimit:10;" x1="68.261" y1="51.035" x2="48.691" y2="85.015"/><line style="fill-rule:evenodd;clip-rule:evenodd;fill:none;stroke:#009DDB;stroke-width:1.163;stroke-linecap:round;stroke-miterlimit:10;" x1="48.815" y1="62.174" x2="26.975" y2="99.964"/><line style="fill-rule:evenodd;clip-rule:evenodd;fill:none;stroke:#009DDB;stroke-width:1.163;stroke-linecap:round;stroke-miterlimit:10;" x1="28.955" y1="74.02" x2="17.449" y2="93.908"/><line style="fill-rule:evenodd;clip-rule:evenodd;fill:none;stroke:#009DDB;stroke-width:1.163;stroke-linecap:round;stroke-miterlimit:10;" x1="237.376" y1="30.1" x2="232.49" y2="38.599"/><line style="fill-rule:evenodd;clip-rule:evenodd;fill:none;stroke:#009DDB;stroke-width:1.163;stroke-linecap:round;stroke-miterlimit:10;" x1="227.972" y1="23.871" x2="212.58" y2="50.473"/><line style="fill-rule:evenodd;clip-rule:evenodd;fill:none;stroke:#009DDB;stroke-width:1.163;stroke-linecap:round;stroke-miterlimit:10;" x1="210.311" y1="31.859" x2="193.014" y2="61.857"/><line style="fill-rule:evenodd;clip-rule:evenodd;fill:none;stroke:#009DDB;stroke-width:1.163;stroke-linecap:round;stroke-miterlimit:10;" x1="190.397" y1="43.707" x2="182.899" y2="56.703"/><path style="fill-rule:evenodd;clip-rule:evenodd;fill:none;stroke:#005A9D;stroke-width:4.1134;stroke-linecap:round;stroke-linejoin:round;stroke-miterlimit:22.9256;" d=" M247.954,34.203l-20.351-11.726c-0.853-0.343-2.539-0.217-3.542,0.074c-0.928,0.221-1.734,0.636-2.539,1.099l-40.429,23.328"/><path style="fill-rule:evenodd;clip-rule:evenodd;fill:none;stroke:#005A9D;stroke-width:4.1173;stroke-linecap:round;stroke-linejoin:round;stroke-miterlimit:22.9256;" d=" M241.795,163.477c5.618-3.249,10.261-11.189,10.261-17.761c0-25.38,0-78.974,0-104.406c0-1.695-0.36-3.793-1.759-5.555 c-2.87-2.425-5.676-2.098-8.451-0.379c-20.276,11.674-40.528,23.4-60.801,35.08"/><path style="fill-rule:evenodd;clip-rule:evenodd;fill:none;stroke:#005A9D;stroke-width:4.1173;stroke-linecap:round;stroke-linejoin:round;stroke-miterlimit:22.9256;" d=" M27.27,230.288l-16.627-9.53c-2.782-1.524-6.461-2.888-7.874-6.263c-0.467-1.232-0.637-2.627-0.71-3.921L2.131,100.06"/><path style="fill-rule:evenodd;clip-rule:evenodd;fill:none;stroke:#005A9D;stroke-width:4.1173;stroke-linecap:round;stroke-linejoin:round;stroke-miterlimit:22.9256;" d=" M180.993,134.359c0.052-27.239,0.052-84.375,0.052-111.588c0-6.889-4.887-9.722-10.799-6.277 c-44.947,25.917-89.894,51.86-134.841,77.778c-9.585,5.515-10.593,14.618-10.799,24.501l-0.073,104.185"/><line style="fill-rule:evenodd;clip-rule:evenodd;fill:none;stroke:#005A9D;stroke-width:4.1134;stroke-linecap:round;stroke-linejoin:round;stroke-miterlimit:22.9256;" x1="50.722" y1="179.064" x2="117.726" y2="140.416"/><line style="fill-rule:evenodd;clip-rule:evenodd;fill:none;stroke:#005A9D;stroke-width:4.1134;stroke-linecap:round;stroke-linejoin:round;stroke-miterlimit:22.9256;" x1="50.722" y1="149.724" x2="154.855" y2="89.681"/><line style="fill-rule:evenodd;clip-rule:evenodd;fill:none;stroke:#005A9D;stroke-width:4.1134;stroke-linecap:round;stroke-linejoin:round;stroke-miterlimit:22.9256;" x1="50.722" y1="122.096" x2="141.838" y2="69.576"/><path style="fill-rule:evenodd;clip-rule:evenodd;fill:none;stroke:#005A9D;stroke-width:4.1134;stroke-linecap:round;stroke-linejoin:round;stroke-miterlimit:22.9256;" d=" M33.373,270.547c4.35-7.451,8.65-14.879,12.948-22.352c27.338-47.759,81.054-71.748,123.51-94.906 c3.079-1.634,5.692-4.372,7.892-8.058c2.148-3.716,3.271-7.355,3.271-10.872"/><path style="fill-rule:evenodd;clip-rule:evenodd;fill:none;stroke:#005A9D;stroke-width:4.1134;stroke-linecap:round;stroke-linejoin:round;stroke-miterlimit:22.9256;" d=" M24.532,223.57c0,6.891,4.812,9.699,10.798,6.254"/><line style="fill-rule:evenodd;clip-rule:evenodd;fill:none;stroke:#005A9D;stroke-width:4.1134;stroke-linecap:round;stroke-linejoin:round;stroke-miterlimit:22.9256;" x1="128.89" y1="189.005" x2="227.262" y2="132.258"/><line style="fill-rule:evenodd;clip-rule:evenodd;fill:none;stroke:#005A9D;stroke-width:4.1134;stroke-linecap:round;stroke-linejoin:round;stroke-miterlimit:22.9256;" x1="219.836" y1="108.832" x2="181.46" y2="130.988"/><line style="fill-rule:evenodd;clip-rule:evenodd;fill:none;stroke:#005A9D;stroke-width:4.1134;stroke-linecap:round;stroke-linejoin:round;stroke-miterlimit:22.9256;" x1="227.262" y1="78.444" x2="181.508" y2="104.876"/><line style="fill-rule:evenodd;clip-rule:evenodd;fill:none;stroke:#005A9D;stroke-width:4.1134;stroke-linecap:round;stroke-linejoin:round;stroke-miterlimit:22.9256;" x1="5.958" y1="88.815" x2="27.637" y2="101.329"/><line style="fill-rule:evenodd;clip-rule:evenodd;fill:none;stroke:#005A9D;stroke-width:4.1134;stroke-linecap:round;stroke-linejoin:round;stroke-miterlimit:22.9256;" x1="35.625" y1="230.924" x2="35.868" y2="229.508"/><path style="fill-rule:evenodd;clip-rule:evenodd;fill:none;stroke:#005A9D;stroke-width:4.1134;stroke-linecap:round;stroke-linejoin:round;stroke-miterlimit:22.9256;" d=" M143.597,5.99c3.053-1.807,6.961-4.765,10.673-3.712c1.321,0.389,20.372,11.604,23.232,13.311"/><line style="fill-rule:evenodd;clip-rule:evenodd;fill:none;stroke:#005A9D;stroke-width:4.1134;stroke-linecap:round;stroke-linejoin:round;stroke-miterlimit:22.9256;" x1="17.154" y1="78.881" x2="143.597" y2="5.99"/><path style="fill-rule:evenodd;clip-rule:evenodd;fill:none;stroke:#005A9D;stroke-width:4.1134;stroke-linecap:round;stroke-linejoin:round;stroke-miterlimit:22.9256;" d=" M5.775,88.68c3.027-5.156,6.103-6.718,11.38-9.799"/><path style="fill-rule:evenodd;clip-rule:evenodd;fill:none;stroke:#005A9D;stroke-width:4.1134;stroke-linecap:round;stroke-linejoin:round;stroke-miterlimit:22.9256;" d=" M2.131,100.06c0.06-4.146,1.476-7.745,3.544-11.259"/><path style="fill-rule:evenodd;clip-rule:evenodd;fill:none;stroke:#005A9D;stroke-width:4.1134;stroke-linecap:round;stroke-linejoin:round;stroke-miterlimit:22.9256;" d=" M10.951,257.625c-0.295-11.038-0.475-25.241,1.564-35.837"/><line style="fill-rule:evenodd;clip-rule:evenodd;fill:none;stroke:#005A9D;stroke-width:4.1134;stroke-linecap:round;stroke-linejoin:round;stroke-miterlimit:22.9256;" x1="33.373" y1="270.569" x2="10.951" y2="257.625"/><path style="fill-rule:evenodd;clip-rule:evenodd;fill:none;stroke:#005A9D;stroke-width:4.1134;stroke-linecap:round;stroke-linejoin:round;stroke-miterlimit:22.9256;" d=" M35.916,229.508c-2.882,12.336-2.73,28.444-2.543,41.061"/><path style="fill-rule:evenodd;clip-rule:evenodd;fill:none;stroke:#005A9D;stroke-width:4.1173;stroke-linecap:round;stroke-linejoin:round;stroke-miterlimit:22.9256;" d=" M104.142,190.373v41.82c0,5.409,5.883,8.87,10.577,6.155l79.1-45.653c24.622-12.731,34.2-1.637,49.807,7.131 c0.198-12.949,0.463-25.012-2.321-36.055"/><line style="fill-rule:evenodd;clip-rule:evenodd;fill:none;stroke:#005A9D;stroke-width:4.1134;stroke-linecap:round;stroke-linejoin:round;stroke-miterlimit:22.9256;" x1="85.848" y1="225.453" x2="106.174" y2="237.179"/><path style="fill-rule:evenodd;clip-rule:evenodd;fill:none;stroke:#005A9D;stroke-width:4.1134;stroke-linecap:round;stroke-linejoin:round;stroke-miterlimit:22.9256;" d=" M83.817,220.441c0,1.931,0.71,3.664,2.031,5.012"/><line style="fill-rule:evenodd;clip-rule:evenodd;fill:none;stroke:#005A9D;stroke-width:4.1134;stroke-linecap:round;stroke-linejoin:round;stroke-miterlimit:22.9256;" x1="83.817" y1="205.298" x2="83.817" y2="220.441"/><line style="fill-rule:evenodd;clip-rule:evenodd;fill:none;stroke:#005A9D;stroke-width:4.1134;stroke-linecap:round;stroke-linejoin:round;stroke-miterlimit:22.9256;" x1="96.081" y1="96.009" x2="93.469" y2="97.521"/><path style="fill-rule:evenodd;clip-rule:evenodd;fill:none;stroke:#005A9D;stroke-width:4.1134;stroke-linecap:round;stroke-linejoin:round;stroke-miterlimit:22.9256;" d=" M98.112,94.835c-0.515,0.343-1.273,0.758-2.031,1.173"/><line style="fill-rule:evenodd;clip-rule:evenodd;fill:none;stroke:#005A9D;stroke-width:4.1134;stroke-linecap:round;stroke-linejoin:round;stroke-miterlimit:22.9256;" x1="141.908" y1="69.576" x2="98.112" y2="94.835"/></g></g><g id="Layer_1"></g></svg> 
