<?xml version="1.0" encoding="iso-8859-1"?><svg version="1.1" xmlns="http://www.w3.org/2000/svg" xmlns:xlink="http://www.w3.org/1999/xlink" x="0px" y="0px" viewBox="0 0 241.216 274.172" style="enable-background:new 0 0 241.216 274.172;" xml:space="preserve"><g id="suitcase-isometric"><g><line style="fill-rule:evenodd;clip-rule:evenodd;fill:none;stroke:#009DDB;stroke-width:1.163;stroke-linecap:round;stroke-miterlimit:10;" x1="39.042" y1="259.161" x2="33.302" y2="262.483"/><line style="fill-rule:evenodd;clip-rule:evenodd;fill:none;stroke:#009DDB;stroke-width:1.163;stroke-linecap:round;stroke-miterlimit:10;" x1="39.459" y1="245.872" x2="21.628" y2="256.18"/><line style="fill-rule:evenodd;clip-rule:evenodd;fill:none;stroke:#009DDB;stroke-width:1.163;stroke-linecap:round;stroke-miterlimit:10;" x1="39.874" y1="232.607" x2="9.902" y2="249.901"/><line style="fill-rule:evenodd;clip-rule:evenodd;fill:none;stroke:#009DDB;stroke-width:1.163;stroke-linecap:round;stroke-miterlimit:10;" x1="40.095" y1="219.464" x2="3.231" y2="240.764"/><line style="fill-rule:evenodd;clip-rule:evenodd;fill:none;stroke:#009DDB;stroke-width:1.163;stroke-linecap:round;stroke-miterlimit:10;" x1="43.343" y1="204.563" x2="3.035" y2="227.816"/><line style="fill-rule:evenodd;clip-rule:evenodd;fill:none;stroke:#009DDB;stroke-width:1.163;stroke-linecap:round;stroke-miterlimit:10;" x1="43.343" y1="191.519" x2="3.035" y2="214.773"/><line style="fill-rule:evenodd;clip-rule:evenodd;fill:none;stroke:#009DDB;stroke-width:1.163;stroke-linecap:round;stroke-miterlimit:10;" x1="43.343" y1="178.473" x2="2.989" y2="201.751"/><line style="fill-rule:evenodd;clip-rule:evenodd;fill:none;stroke:#009DDB;stroke-width:1.163;stroke-linecap:round;stroke-miterlimit:10;" x1="43.343" y1="165.429" x2="2.989" y2="188.76"/><line style="fill-rule:evenodd;clip-rule:evenodd;fill:none;stroke:#009DDB;stroke-width:1.163;stroke-linecap:round;stroke-miterlimit:10;" x1="43.343" y1="152.408" x2="2.915" y2="175.739"/><line style="fill-rule:evenodd;clip-rule:evenodd;fill:none;stroke:#009DDB;stroke-width:1.163;stroke-linecap:round;stroke-miterlimit:10;" x1="45.198" y1="138.291" x2="2.867" y2="162.744"/><line style="fill-rule:evenodd;clip-rule:evenodd;fill:none;stroke:#009DDB;stroke-width:1.163;stroke-linecap:round;stroke-miterlimit:10;" x1="36.43" y1="130.328" x2="3.109" y2="149.552"/><line style="fill-rule:evenodd;clip-rule:evenodd;fill:none;stroke:#009DDB;stroke-width:1.163;stroke-linecap:round;stroke-miterlimit:10;" x1="24.777" y1="124.022" x2="3.452" y2="136.31"/><line style="fill-rule:evenodd;clip-rule:evenodd;fill:none;stroke:#009DDB;stroke-width:1.163;stroke-linecap:round;stroke-miterlimit:10;" x1="13.077" y1="117.723" x2="3.915" y2="123.047"/><line style="fill-rule:evenodd;clip-rule:evenodd;fill:none;stroke:#009DDB;stroke-width:1.163;stroke-linecap:round;stroke-miterlimit:10;" x1="225.749" y1="23.77" x2="223.769" y2="27.213"/><line style="fill-rule:evenodd;clip-rule:evenodd;fill:none;stroke:#009DDB;stroke-width:1.163;stroke-linecap:round;stroke-miterlimit:10;" x1="216.271" y1="17.54" x2="203.859" y2="39.087"/><line style="fill-rule:evenodd;clip-rule:evenodd;fill:none;stroke:#009DDB;stroke-width:1.163;stroke-linecap:round;stroke-miterlimit:10;" x1="206.888" y1="11.311" x2="183.951" y2="50.982"/><line style="fill-rule:evenodd;clip-rule:evenodd;fill:none;stroke:#009DDB;stroke-width:1.163;stroke-linecap:round;stroke-miterlimit:10;" x1="197.41" y1="5.108" x2="164.068" y2="62.856"/><line style="fill-rule:evenodd;clip-rule:evenodd;fill:none;stroke:#009DDB;stroke-width:1.163;stroke-linecap:round;stroke-miterlimit:10;" x1="184.855" y1="4.302" x2="144.28" y2="74.534"/><line style="fill-rule:evenodd;clip-rule:evenodd;fill:none;stroke:#009DDB;stroke-width:1.163;stroke-linecap:round;stroke-miterlimit:10;" x1="164.189" y1="17.492" x2="157.911" y2="28.34"/><line style="fill-rule:evenodd;clip-rule:evenodd;fill:none;stroke:#009DDB;stroke-width:1.163;stroke-linecap:round;stroke-miterlimit:10;" x1="144.449" y1="51.666" x2="125.445" y2="84.598"/><line style="fill-rule:evenodd;clip-rule:evenodd;fill:none;stroke:#009DDB;stroke-width:1.163;stroke-linecap:round;stroke-miterlimit:10;" x1="138.588" y1="39.308" x2="105.44" y2="96.691"/><line style="fill-rule:evenodd;clip-rule:evenodd;fill:none;stroke:#009DDB;stroke-width:1.163;stroke-linecap:round;stroke-miterlimit:10;" x1="119.021" y1="50.593" x2="85.922" y2="107.976"/><line style="fill-rule:evenodd;clip-rule:evenodd;fill:none;stroke:#009DDB;stroke-width:1.163;stroke-linecap:round;stroke-miterlimit:10;" x1="98.501" y1="63.466" x2="93.641" y2="71.918"/><line style="fill-rule:evenodd;clip-rule:evenodd;fill:none;stroke:#009DDB;stroke-width:1.163;stroke-linecap:round;stroke-miterlimit:10;" x1="82.551" y1="91.12" x2="66.866" y2="118.282"/><line style="fill-rule:evenodd;clip-rule:evenodd;fill:none;stroke:#009DDB;stroke-width:1.163;stroke-linecap:round;stroke-miterlimit:10;" x1="74.589" y1="82.422" x2="44.782" y2="133.915"/><line style="fill-rule:evenodd;clip-rule:evenodd;fill:none;stroke:#009DDB;stroke-width:1.163;stroke-linecap:round;stroke-miterlimit:10;" x1="67.259" y1="72.529" x2="34.988" y2="128.418"/><line style="fill-rule:evenodd;clip-rule:evenodd;fill:none;stroke:#009DDB;stroke-width:1.163;stroke-linecap:round;stroke-miterlimit:10;" x1="47.35" y1="84.402" x2="25.583" y2="122.167"/><line style="fill-rule:evenodd;clip-rule:evenodd;fill:none;stroke:#009DDB;stroke-width:1.163;stroke-linecap:round;stroke-miterlimit:10;" x1="27.442" y1="96.298" x2="16.105" y2="115.912"/><line style="fill-rule:evenodd;clip-rule:evenodd;fill:none;stroke:#009DDB;stroke-width:1.163;stroke-linecap:round;stroke-miterlimit:10;" x1="65.181" y1="219.66" x2="45.492" y2="208.301"/><line style="fill-rule:evenodd;clip-rule:evenodd;fill:none;stroke:#009DDB;stroke-width:1.163;stroke-linecap:round;stroke-miterlimit:10;" x1="88.533" y1="207.054" x2="44.734" y2="181.773"/><line style="fill-rule:evenodd;clip-rule:evenodd;fill:none;stroke:#009DDB;stroke-width:1.163;stroke-linecap:round;stroke-miterlimit:10;" x1="111.938" y1="194.475" x2="43.977" y2="155.241"/><line style="fill-rule:evenodd;clip-rule:evenodd;fill:none;stroke:#009DDB;stroke-width:1.163;stroke-linecap:round;stroke-miterlimit:10;" x1="124.933" y1="175.908" x2="49.035" y2="132.108"/><line style="fill-rule:evenodd;clip-rule:evenodd;fill:none;stroke:#009DDB;stroke-width:1.163;stroke-linecap:round;stroke-miterlimit:10;" x1="145.329" y1="161.643" x2="69.651" y2="117.939"/><line style="fill-rule:evenodd;clip-rule:evenodd;fill:none;stroke:#009DDB;stroke-width:1.163;stroke-linecap:round;stroke-miterlimit:10;" x1="180.337" y1="155.757" x2="91.83" y2="104.675"/><line style="fill-rule:evenodd;clip-rule:evenodd;fill:none;stroke:#009DDB;stroke-width:1.163;stroke-linecap:round;stroke-miterlimit:10;" x1="202.933" y1="142.735" x2="114.428" y2="91.632"/><line style="fill-rule:evenodd;clip-rule:evenodd;fill:none;stroke:#009DDB;stroke-width:1.163;stroke-linecap:round;stroke-miterlimit:10;" x1="225.454" y1="129.692" x2="136.998" y2="78.611"/><line style="fill-rule:evenodd;clip-rule:evenodd;fill:none;stroke:#009DDB;stroke-width:1.163;stroke-linecap:round;stroke-miterlimit:10;" x1="239.745" y1="111.883" x2="159.84" y2="65.74"/><line style="fill-rule:evenodd;clip-rule:evenodd;fill:none;stroke:#009DDB;stroke-width:1.163;stroke-linecap:round;stroke-miterlimit:10;" x1="238.987" y1="85.354" x2="183.244" y2="53.156"/><line style="fill-rule:evenodd;clip-rule:evenodd;fill:none;stroke:#009DDB;stroke-width:1.163;stroke-linecap:round;stroke-miterlimit:10;" x1="238.181" y1="58.801" x2="206.593" y2="40.577"/><line style="fill-rule:evenodd;clip-rule:evenodd;fill:none;stroke:#009DDB;stroke-width:1.163;stroke-linecap:round;stroke-miterlimit:10;" x1="236.79" y1="31.952" x2="230.634" y2="28.366"/><line style="fill-rule:evenodd;clip-rule:evenodd;fill:none;stroke:#009DDB;stroke-width:1.163;stroke-linecap:round;stroke-miterlimit:10;" x1="60.025" y1="265.07" x2="42.487" y2="254.933"/><line style="fill-rule:evenodd;clip-rule:evenodd;fill:none;stroke:#009DDB;stroke-width:1.163;stroke-linecap:round;stroke-miterlimit:10;" x1="83.184" y1="252.369" x2="48.156" y2="232.166"/><line style="fill-rule:evenodd;clip-rule:evenodd;fill:none;stroke:#009DDB;stroke-width:1.163;stroke-linecap:round;stroke-miterlimit:10;" x1="105.782" y1="239.348" x2="70.751" y2="219.122"/><line style="fill-rule:evenodd;clip-rule:evenodd;fill:none;stroke:#009DDB;stroke-width:1.163;stroke-linecap:round;stroke-miterlimit:10;" x1="128.377" y1="226.33" x2="93.298" y2="206.101"/><line style="fill-rule:evenodd;clip-rule:evenodd;fill:none;stroke:#009DDB;stroke-width:1.163;stroke-linecap:round;stroke-miterlimit:10;" x1="150.361" y1="212.941" x2="132.311" y2="202.535"/><line style="fill-rule:evenodd;clip-rule:evenodd;fill:none;stroke:#009DDB;stroke-width:1.163;stroke-linecap:round;stroke-miterlimit:10;" x1="118.385" y1="194.499" x2="116.993" y2="193.669"/><line style="fill-rule:evenodd;clip-rule:evenodd;fill:none;stroke:#009DDB;stroke-width:1.163;stroke-linecap:round;stroke-miterlimit:10;" x1="172.956" y1="199.92" x2="154.905" y2="189.492"/><line style="fill-rule:evenodd;clip-rule:evenodd;fill:none;stroke:#009DDB;stroke-width:1.163;stroke-linecap:round;stroke-miterlimit:10;" x1="196.066" y1="187.197" x2="161.062" y2="166.968"/><line style="fill-rule:evenodd;clip-rule:evenodd;fill:none;stroke:#009DDB;stroke-width:1.163;stroke-linecap:round;stroke-miterlimit:10;" x1="218.662" y1="174.175" x2="183.634" y2="153.95"/><line style="fill-rule:evenodd;clip-rule:evenodd;fill:none;stroke:#009DDB;stroke-width:1.163;stroke-linecap:round;stroke-miterlimit:10;" x1="233.879" y1="156.878" x2="206.472" y2="141.049"/><line style="fill-rule:evenodd;clip-rule:evenodd;fill:none;stroke:#009DDB;stroke-width:1.163;stroke-linecap:round;stroke-miterlimit:10;" x1="234.174" y1="130.987" x2="229.754" y2="128.444"/><path style="fill-rule:evenodd;clip-rule:evenodd;fill:none;stroke:#005A9D;stroke-width:4.1134;stroke-linecap:round;stroke-linejoin:round;stroke-miterlimit:22.9256;" d=" M236.08,122.582v27.651 M236.08,150.234c0,8.235-5.814,18.224-12.87,22.355 M223.21,172.589L53.796,270.373 c-2.593,1.475-6.46,2.66-9.183,0.758c-0.975-0.515-1.785-1.395-2.37-2.495c-0.883-2.083-1.342-3.503-1.342-5.689v-33.566 M40.901,218.88v10.501c0.231,1.089,0.552,1.247,1.464,1.809l2.852,1.604l75.074-43.353 M40.901,218.88 c0-1.221,0.927-2.785,2.028-3.444c0.367-0.222,0.78-0.395,1.122-0.637 M159.034,167.066l75.066-43.309l1.98-1.175l1.101-0.636 M237.18,121.946c1.122-0.633,1.979-2.148,1.979-3.418 M239.16,118.529V35.496 M239.16,35.496c0-4.37-1.137-6.788-3.764-8.377 M226.26,28.045L56.924,125.785c-3.732,2.343-6.991,5.762-9.111,9.647c-0.048,0.1-0.121,0.169-0.173,0.295 M47.641,135.726 c-2.068,3.771-3.591,8.058-3.591,12.406v75.557 M132.137,174.101l21.962-12.727c2.785-1.589,4.935-0.269,4.935,2.882v10.994v4.422 c0,3.149-2.222,7.009-5.008,8.598l-21.936,12.68c-2.738,1.559-4.935,0.289-4.935-2.86v-15.39 C127.329,179.256,127.719,176.592,132.137,174.101L132.137,174.101z M128.425,201.178c-2.178-1.232-4.562-2.425-6.498-4.017 c-0.927-0.828-1.637-1.979-1.637-3.955v-3.764l2.274-1.292v-5.571c0-1.442,0.169-2.738,0.463-3.885 c0.927-4.029,3.297-6.45,5.571-7.915l20.91-12.019c1.221-0.633,2.2-0.976,3.466-0.339l4.508,2.543 M44.05,232.106v-17.308 M226.26,28.045c4.113-2.226,5.85-2.814,9.135-0.927L192.528,2.495 M192.528,2.495c-2.786-1.051-5.744-0.051-8.234,1.291 M184.293,3.787l-33.174,19.104 M76.27,66.152l-61.312,35.422c-3.665,2.2-6.914,5.74-9.257,9.871 c-2.027,3.576-3.644,8.323-3.644,12.48 M44.613,271.131L5.847,248.826c-3.241-2.282-3.614-4.765-3.79-8.353V123.926 M82.599,90.043l-6.961-4.029 M75.638,86.014c0-3.764-0.343-14.706,0.217-18.346c1.173-7.329,6.229-15.365,12.679-19.177 M88.533,48.491l49.421-28.482c2.539-1.173,5.273-1.564,7.815-0.221l6.975,4.019 M143.642,24.722L95.494,52.524 M95.494,52.524 c-7.204,4.272-12.775,13.948-12.896,22.327 M82.599,74.851v15.192 M147.529,52.572l-6.961-4.033V36.986 M91.661,70.939v13.876 l-9.063,5.228V74.851 M143.642,24.722c7.135-4.102,12.949-0.754,12.949,7.451V47.37l-9.063,5.202V38.671 c0-3.123-2.2-4.422-4.934-2.858L96.669,62.345 M96.669,62.345c-2.735,1.585-5.008,5.419-5.008,8.594 M5.7,111.446l41.941,24.28"/></g></g><g id="Layer_1"></g></svg> 
