<?xml version="1.0" encoding="iso-8859-1"?><svg version="1.1" xmlns="http://www.w3.org/2000/svg" xmlns:xlink="http://www.w3.org/1999/xlink" x="0px" y="0px" viewBox="0 0 269.381 271.926" style="enable-background:new 0 0 269.381 271.926;" xml:space="preserve"><g id="target-isometric"><g><line style="fill-rule:evenodd;clip-rule:evenodd;fill:none;stroke:#009DDB;stroke-width:1.163;stroke-linecap:round;stroke-miterlimit:10;" x1="166.889" y1="10.322" x2="140.788" y2="25.363"/><path style="fill-rule:evenodd;clip-rule:evenodd;fill:none;stroke:#005A9D;stroke-width:4.1173;stroke-linecap:round;stroke-linejoin:round;stroke-miterlimit:22.9256;" d=" M48.778,253.701c-5.519-6.255-9.695-14.342-12.19-22.257c-7.278-22.616-4.54-50.101,1.494-72.697 c12.091-45.042,42.625-92.995,81.196-119.744c13.754-9.552,30.756-17.809,47.611-19.299c6.62-0.588,13.948-0.074,20.273,1.733"/><polyline style="fill-rule:evenodd;clip-rule:evenodd;fill:none;stroke:#005A9D;stroke-width:4.1173;stroke-linecap:round;stroke-linejoin:round;stroke-miterlimit:22.9256;" points=" 190.879,22.658 160.686,5.24 157.022,4.019 "/><path style="fill-rule:evenodd;clip-rule:evenodd;fill:none;stroke:#005A9D;stroke-width:4.1173;stroke-linecap:round;stroke-linejoin:round;stroke-miterlimit:22.9256;" d=" M258.811,211.413c1.295,0.758,1.737,2.396,0.979,3.738"/><polyline style="fill-rule:evenodd;clip-rule:evenodd;fill:none;stroke:#005A9D;stroke-width:4.1173;stroke-linecap:round;stroke-linejoin:round;stroke-miterlimit:22.9256;" points=" 131.931,138.084 145.416,145.873 159.928,154.276 172.923,161.775 186.677,169.741 201.163,178.093 205.338,180.536 257.251,210.486 258.811,211.413 "/><path style="fill-rule:evenodd;clip-rule:evenodd;fill:none;stroke:#005A9D;stroke-width:4.1173;stroke-linecap:round;stroke-linejoin:round;stroke-miterlimit:22.9256;" d=" M128.219,139.085c0.758-1.295,2.443-1.759,3.712-1.001"/><line style="fill-rule:evenodd;clip-rule:evenodd;fill:none;stroke:#005A9D;stroke-width:4.1173;stroke-linecap:round;stroke-linejoin:round;stroke-miterlimit:22.9256;" x1="127.34" y1="140.649" x2="128.219" y2="139.085"/><path style="fill-rule:evenodd;clip-rule:evenodd;fill:none;stroke:#005A9D;stroke-width:4.1173;stroke-linecap:round;stroke-linejoin:round;stroke-miterlimit:22.9256;" d=" M128.319,144.361c-1.269-0.758-1.737-2.443-0.979-3.712"/><polyline style="fill-rule:evenodd;clip-rule:evenodd;fill:none;stroke:#005A9D;stroke-width:4.1173;stroke-linecap:round;stroke-linejoin:round;stroke-miterlimit:22.9256;" points=" 255.221,217.643 253.709,216.767 201.847,186.791 197.671,184.348 183.16,175.992 169.38,168.104 156.605,160.679 141.973,152.249 128.319,144.361 "/><path style="fill-rule:evenodd;clip-rule:evenodd;fill:none;stroke:#005A9D;stroke-width:4.1173;stroke-linecap:round;stroke-linejoin:round;stroke-miterlimit:22.9256;" d=" M258.937,216.643c-0.758,1.294-2.444,1.757-3.716,1.001"/><line style="fill-rule:evenodd;clip-rule:evenodd;fill:none;stroke:#005A9D;stroke-width:4.1173;stroke-linecap:round;stroke-linejoin:round;stroke-miterlimit:22.9256;" x1="259.79" y1="215.151" x2="258.937" y2="216.643"/><line style="fill-rule:evenodd;clip-rule:evenodd;fill:none;stroke:#005A9D;stroke-width:4.1173;stroke-linecap:round;stroke-linejoin:round;stroke-miterlimit:22.9256;" x1="203.58" y1="201.546" x2="201.847" y2="186.791"/><path style="fill-rule:evenodd;clip-rule:evenodd;fill:none;stroke:#005A9D;stroke-width:4.1173;stroke-linecap:round;stroke-linejoin:round;stroke-miterlimit:22.9256;" d=" M204.997,202.889c-0.585-0.291-1.295-0.511-1.417-1.344"/><line style="fill-rule:evenodd;clip-rule:evenodd;fill:none;stroke:#005A9D;stroke-width:4.1173;stroke-linecap:round;stroke-linejoin:round;stroke-miterlimit:22.9256;" x1="249.238" y1="228.611" x2="204.997" y2="202.889"/><path style="fill-rule:evenodd;clip-rule:evenodd;fill:none;stroke:#005A9D;stroke-width:4.1173;stroke-linecap:round;stroke-linejoin:round;stroke-miterlimit:22.9256;" d=" M253.829,220.307c0.048,2.027,0.637,7.035-0.463,8.014c-1.053,1.001-2.738,1.099-4.128,0.291"/><line style="fill-rule:evenodd;clip-rule:evenodd;fill:none;stroke:#005A9D;stroke-width:4.1173;stroke-linecap:round;stroke-linejoin:round;stroke-miterlimit:22.9256;" x1="253.709" y1="216.767" x2="253.829" y2="220.307"/><path style="fill-rule:evenodd;clip-rule:evenodd;fill:none;stroke:#005A9D;stroke-width:4.1173;stroke-linecap:round;stroke-linejoin:round;stroke-miterlimit:22.9256;" d=" M265.435,200.571c1.39,0.806,2.148,2.318,1.805,3.712"/><line style="fill-rule:evenodd;clip-rule:evenodd;fill:none;stroke:#005A9D;stroke-width:4.1173;stroke-linecap:round;stroke-linejoin:round;stroke-miterlimit:22.9256;" x1="221.072" y1="175.065" x2="265.435" y2="200.571"/><path style="fill-rule:evenodd;clip-rule:evenodd;fill:none;stroke:#005A9D;stroke-width:4.1173;stroke-linecap:round;stroke-linejoin:round;stroke-miterlimit:22.9256;" d=" M219.214,174.554c0.758-0.367,1.273,0.173,1.858,0.511"/><line style="fill-rule:evenodd;clip-rule:evenodd;fill:none;stroke:#005A9D;stroke-width:4.1173;stroke-linecap:round;stroke-linejoin:round;stroke-miterlimit:22.9256;" x1="205.338" y1="180.536" x2="219.214" y2="174.554"/><line style="fill-rule:evenodd;clip-rule:evenodd;fill:none;stroke:#005A9D;stroke-width:4.1173;stroke-linecap:round;stroke-linejoin:round;stroke-miterlimit:22.9256;" x1="260.106" y1="208.996" x2="257.251" y2="210.486"/><path style="fill-rule:evenodd;clip-rule:evenodd;fill:none;stroke:#005A9D;stroke-width:4.1173;stroke-linecap:round;stroke-linejoin:round;stroke-miterlimit:22.9256;" d=" M267.24,204.283c-0.293,1.438-5.349,3.712-7.134,4.713"/><path style="fill-rule:evenodd;clip-rule:evenodd;fill:none;stroke:#005A9D;stroke-width:4.1173;stroke-linecap:round;stroke-linejoin:round;stroke-miterlimit:22.9256;" d=" M145.416,145.873c2.079-4.835,3.301-9.821,3.301-14.46c0-12.432-8.772-17.492-19.519-11.215 c-10.798,6.207-19.493,21.303-19.493,33.736c0,12.436,8.695,17.466,19.493,11.263c4.887-2.833,9.353-7.546,12.775-12.949"/><path style="fill-rule:evenodd;clip-rule:evenodd;fill:none;stroke:#005A9D;stroke-width:4.1173;stroke-linecap:round;stroke-linejoin:round;stroke-miterlimit:22.9256;" d=" M159.928,154.276c5.107-10.501,8.136-21.716,8.136-32.046c0-24.796-17.444-34.837-38.866-22.401 c-21.473,12.36-38.913,42.478-38.913,67.296c0,24.796,17.44,34.836,38.913,22.477c10.627-6.229,20.398-16.808,27.407-28.923"/><path style="fill-rule:evenodd;clip-rule:evenodd;fill:none;stroke:#005A9D;stroke-width:4.1173;stroke-linecap:round;stroke-linejoin:round;stroke-miterlimit:22.9256;" d=" M172.923,161.775c9.063-17.024,14.538-35.712,14.538-52.74c0-37.102-26.091-52.129-58.263-33.61 C97.026,94.013,70.96,139.18,70.96,176.286c0,37.154,26.065,52.229,58.237,33.64c15.635-9.015,29.803-24.283,40.182-41.823"/><path style="fill-rule:evenodd;clip-rule:evenodd;fill:none;stroke:#005A9D;stroke-width:4.1173;stroke-linecap:round;stroke-linejoin:round;stroke-miterlimit:22.9256;" d=" M186.677,169.741c12.432-23.184,20.105-48.685,20.105-71.843c0-49.539-34.712-69.569-77.584-44.825 c-42.846,24.72-77.583,84.887-77.583,134.429c0,49.465,34.737,69.522,77.583,44.774c20.958-12.091,39.965-32.684,53.962-56.284"/><path style="fill-rule:evenodd;clip-rule:evenodd;fill:none;stroke:#005A9D;stroke-width:4.1173;stroke-linecap:round;stroke-linejoin:round;stroke-miterlimit:22.9256;" d=" M197.671,184.348c-17.54,30.314-41.75,56.794-68.473,72.258c-30.071,17.419-57.014,17.077-74.797,2.491 c-2.153-1.733-4.129-3.664-5.986-5.812 M190.879,22.632c21.547,8.136,35.249,31.293,35.249,66.083 c0,28.823-9.478,60.58-24.965,89.379"/><line style="fill-rule:evenodd;clip-rule:evenodd;fill:none;stroke:#005A9D;stroke-width:4.1173;stroke-linecap:round;stroke-linejoin:round;stroke-miterlimit:22.9256;" x1="187.163" y1="21.436" x2="190.879" y2="22.658"/><polyline style="fill-rule:evenodd;clip-rule:evenodd;fill:none;stroke:#005A9D;stroke-width:4.1173;stroke-linecap:round;stroke-linejoin:round;stroke-miterlimit:22.9256;" points=" 21.3,239.094 24.156,241.658 54.349,259.073 "/><path style="fill-rule:evenodd;clip-rule:evenodd;fill:none;stroke:#005A9D;stroke-width:4.1173;stroke-linecap:round;stroke-linejoin:round;stroke-miterlimit:22.9256;" d=" M157.022,4.019c-7.841-2.244-16.66-2.443-24.696-1.196c-22.938,3.544-45.511,18.543-62.124,34.126 C34.781,70.074,6.542,122.936,2.561,171.499c-1.416,16.708-0.073,35.543,7.061,50.908c2.786,6.008,6.913,12.091,11.678,16.687"/><polygon style="fill-rule:evenodd;clip-rule:evenodd;fill:#0086C9;stroke:#005A9D;stroke-width:3.2891;stroke-linecap:round;stroke-miterlimit:10;" points=" 265.383,203.499 265.383,203.499 265.383,203.499 "/><line style="fill-rule:evenodd;clip-rule:evenodd;fill:none;stroke:#005A9D;stroke-width:1.1591;stroke-linecap:round;stroke-miterlimit:10;" x1="38.421" y1="240.9" x2="32.511" y2="244.318"/><line style="fill-rule:evenodd;clip-rule:evenodd;fill:none;stroke:#005A9D;stroke-width:1.1591;stroke-linecap:round;stroke-miterlimit:10;" x1="34.539" y1="230.126" x2="21.934" y2="237.404"/><line style="fill-rule:evenodd;clip-rule:evenodd;fill:none;stroke:#005A9D;stroke-width:1.1591;stroke-linecap:round;stroke-miterlimit:10;" x1="32.17" y1="218.474" x2="14.678" y2="228.563"/><line style="fill-rule:evenodd;clip-rule:evenodd;fill:none;stroke:#005A9D;stroke-width:1.1591;stroke-linecap:round;stroke-miterlimit:10;" x1="31.069" y1="206.064" x2="9.401" y2="218.548"/><line style="fill-rule:evenodd;clip-rule:evenodd;fill:none;stroke:#005A9D;stroke-width:1.1591;stroke-linecap:round;stroke-miterlimit:10;" x1="31.239" y1="192.946" x2="5.858" y2="207.58"/><line style="fill-rule:evenodd;clip-rule:evenodd;fill:none;stroke:#005A9D;stroke-width:1.1591;stroke-linecap:round;stroke-miterlimit:10;" x1="32.754" y1="179.046" x2="3.76" y2="195.732"/><line style="fill-rule:evenodd;clip-rule:evenodd;fill:none;stroke:#005A9D;stroke-width:1.1591;stroke-linecap:round;stroke-miterlimit:10;" x1="35.539" y1="164.392" x2="3.072" y2="183.105"/><line style="fill-rule:evenodd;clip-rule:evenodd;fill:none;stroke:#005A9D;stroke-width:1.1591;stroke-linecap:round;stroke-miterlimit:10;" x1="39.889" y1="148.831" x2="3.71" y2="169.715"/><line style="fill-rule:evenodd;clip-rule:evenodd;fill:none;stroke:#005A9D;stroke-width:1.1591;stroke-linecap:round;stroke-miterlimit:10;" x1="45.996" y1="132.266" x2="5.689" y2="155.572"/><line style="fill-rule:evenodd;clip-rule:evenodd;fill:none;stroke:#005A9D;stroke-width:1.1591;stroke-linecap:round;stroke-miterlimit:10;" x1="54.301" y1="114.437" x2="9.059" y2="140.549"/><line style="fill-rule:evenodd;clip-rule:evenodd;fill:none;stroke:#005A9D;stroke-width:1.1591;stroke-linecap:round;stroke-miterlimit:10;" x1="65.611" y1="94.869" x2="14.041" y2="124.647"/><line style="fill-rule:evenodd;clip-rule:evenodd;fill:none;stroke:#005A9D;stroke-width:1.1591;stroke-linecap:round;stroke-miterlimit:10;" x1="177.468" y1="17.235" x2="176.832" y2="17.603"/><line style="fill-rule:evenodd;clip-rule:evenodd;fill:none;stroke:#005A9D;stroke-width:1.1591;stroke-linecap:round;stroke-miterlimit:10;" x1="81.686" y1="72.543" x2="20.959" y2="107.622"/><line style="fill-rule:evenodd;clip-rule:evenodd;fill:none;stroke:#005A9D;stroke-width:1.1591;stroke-linecap:round;stroke-miterlimit:10;" x1="114.05" y1="40.834" x2="29.947" y2="89.372"/><line style="fill-rule:evenodd;clip-rule:evenodd;fill:none;stroke:#005A9D;stroke-width:1.1591;stroke-linecap:round;stroke-miterlimit:10;" x1="156.974" y1="3.018" x2="42.843" y2="68.9"/><line style="fill-rule:evenodd;clip-rule:evenodd;fill:none;stroke:#005A9D;stroke-width:1.1591;stroke-linecap:round;stroke-miterlimit:10;" x1="132.741" y1="3.971" x2="67.418" y2="41.688"/><line style="fill-rule:evenodd;clip-rule:evenodd;fill:none;stroke:#005A9D;stroke-width:1.1591;stroke-linecap:round;stroke-miterlimit:10;" x1="222.514" y1="114.238" x2="189.485" y2="171.451"/><line style="fill-rule:evenodd;clip-rule:evenodd;fill:none;stroke:#005A9D;stroke-width:1.1591;stroke-linecap:round;stroke-miterlimit:10;" x1="186.114" y1="177.291" x2="149.351" y2="240.922"/><line style="fill-rule:evenodd;clip-rule:evenodd;fill:none;stroke:#005A9D;stroke-width:1.1591;stroke-linecap:round;stroke-miterlimit:10;" x1="222.93" y1="68.337" x2="208.297" y2="93.696"/><line style="fill-rule:evenodd;clip-rule:evenodd;fill:none;stroke:#005A9D;stroke-width:1.1591;stroke-linecap:round;stroke-miterlimit:10;" x1="126.412" y1="235.503" x2="109.921" y2="264.131"/><line style="fill-rule:evenodd;clip-rule:evenodd;fill:none;stroke:#005A9D;stroke-width:1.1591;stroke-linecap:round;stroke-miterlimit:10;" x1="212.426" y1="41.393" x2="200.21" y2="62.477"/><line style="fill-rule:evenodd;clip-rule:evenodd;fill:none;stroke:#005A9D;stroke-width:1.1591;stroke-linecap:round;stroke-miterlimit:10;" x1="95.341" y1="244.148" x2="81.292" y2="268.455"/><line style="fill-rule:evenodd;clip-rule:evenodd;fill:none;stroke:#005A9D;stroke-width:1.1591;stroke-linecap:round;stroke-miterlimit:10;" x1="195.228" y1="25.981" x2="183.719" y2="45.915"/><line style="fill-rule:evenodd;clip-rule:evenodd;fill:none;stroke:#005A9D;stroke-width:1.1591;stroke-linecap:round;stroke-miterlimit:10;" x1="72.745" y1="238.137" x2="59.408" y2="261.247"/><line style="fill-rule:evenodd;clip-rule:evenodd;fill:none;stroke:#005A9D;stroke-width:1.1591;stroke-linecap:round;stroke-miterlimit:10;" x1="172.117" y1="20.877" x2="160.439" y2="41.102"/><line style="fill-rule:evenodd;clip-rule:evenodd;fill:none;stroke:#005A9D;stroke-width:1.1591;stroke-linecap:round;stroke-miterlimit:10;" x1="56.964" y1="220.355" x2="43.429" y2="243.781"/><line style="fill-rule:evenodd;clip-rule:evenodd;fill:none;stroke:#005A9D;stroke-width:1.1591;stroke-linecap:round;stroke-miterlimit:10;" x1="141.925" y1="27.982" x2="128.219" y2="51.828"/><line style="fill-rule:evenodd;clip-rule:evenodd;fill:none;stroke:#005A9D;stroke-width:1.1591;stroke-linecap:round;stroke-miterlimit:10;" x1="50.099" y1="187.038" x2="34.49" y2="214.104"/><line style="fill-rule:evenodd;clip-rule:evenodd;fill:none;stroke:#005A9D;stroke-width:1.1591;stroke-linecap:round;stroke-miterlimit:10;" x1="99.005" y1="57.178" x2="38.204" y2="162.511"/><line style="fill-rule:evenodd;clip-rule:evenodd;fill:none;stroke:#005A9D;stroke-width:1.1591;stroke-linecap:round;stroke-miterlimit:10;" x1="184.772" y1="95.796" x2="169.627" y2="122.03"/><line style="fill-rule:evenodd;clip-rule:evenodd;fill:none;stroke:#005A9D;stroke-width:1.1591;stroke-linecap:round;stroke-miterlimit:10;" x1="129.783" y1="191.115" x2="116.493" y2="214.104"/><line style="fill-rule:evenodd;clip-rule:evenodd;fill:none;stroke:#005A9D;stroke-width:1.1591;stroke-linecap:round;stroke-miterlimit:10;" x1="171.606" y1="73.497" x2="158.243" y2="96.628"/><line style="fill-rule:evenodd;clip-rule:evenodd;fill:none;stroke:#005A9D;stroke-width:1.1591;stroke-linecap:round;stroke-miterlimit:10;" x1="102.081" y1="193.925" x2="90.576" y2="213.857"/><line style="fill-rule:evenodd;clip-rule:evenodd;fill:none;stroke:#005A9D;stroke-width:1.1591;stroke-linecap:round;stroke-miterlimit:10;" x1="147.838" y1="69.512" x2="132.226" y2="96.602"/><line style="fill-rule:evenodd;clip-rule:evenodd;fill:none;stroke:#005A9D;stroke-width:1.1591;stroke-linecap:round;stroke-miterlimit:10;" x1="88.964" y1="171.451" x2="75.185" y2="195.268"/><line style="fill-rule:evenodd;clip-rule:evenodd;fill:none;stroke:#005A9D;stroke-width:1.1591;stroke-linecap:round;stroke-miterlimit:10;" x1="105.794" y1="97.118" x2="78.044" y2="145.189"/><line style="fill-rule:evenodd;clip-rule:evenodd;fill:none;stroke:#005A9D;stroke-width:1.1591;stroke-linecap:round;stroke-miterlimit:10;" x1="146.517" y1="126.552" x2="138.603" y2="140.159"/><line style="fill-rule:evenodd;clip-rule:evenodd;fill:none;stroke:#005A9D;stroke-width:1.1591;stroke-linecap:round;stroke-miterlimit:10;" x1="133.543" y1="148.975" x2="123.873" y2="165.76"/><line style="fill-rule:evenodd;clip-rule:evenodd;fill:none;stroke:#005A9D;stroke-width:1.1591;stroke-linecap:round;stroke-miterlimit:10;" x1="263.455" y1="201.424" x2="254.293" y2="206.726"/><line style="fill-rule:evenodd;clip-rule:evenodd;fill:none;stroke:#005A9D;stroke-width:1.1591;stroke-linecap:round;stroke-miterlimit:10;" x1="252.144" y1="194.901" x2="242.957" y2="200.202"/><line style="fill-rule:evenodd;clip-rule:evenodd;fill:none;stroke:#005A9D;stroke-width:1.1591;stroke-linecap:round;stroke-miterlimit:10;" x1="240.811" y1="188.403" x2="231.698" y2="193.678"/><line style="fill-rule:evenodd;clip-rule:evenodd;fill:none;stroke:#005A9D;stroke-width:1.1591;stroke-linecap:round;stroke-miterlimit:10;" x1="229.501" y1="181.906" x2="220.435" y2="187.16"/><polygon style="fill-rule:evenodd;clip-rule:evenodd;fill:none;stroke:#005A9D;stroke-width:1.1591;stroke-linecap:round;stroke-miterlimit:22.9256;" points=" 265.383,203.499 265.383,203.499 265.383,203.499 "/><line style="fill-rule:evenodd;clip-rule:evenodd;fill:none;stroke:#005A9D;stroke-width:1.1591;stroke-linecap:round;stroke-miterlimit:10;" x1="251.386" y1="217.421" x2="242.446" y2="222.603"/><line style="fill-rule:evenodd;clip-rule:evenodd;fill:none;stroke:#005A9D;stroke-width:1.1591;stroke-linecap:round;stroke-miterlimit:10;" x1="240.124" y1="210.928" x2="231.187" y2="216.057"/><line style="fill-rule:evenodd;clip-rule:evenodd;fill:none;stroke:#005A9D;stroke-width:1.1591;stroke-linecap:round;stroke-miterlimit:10;" x1="228.791" y1="204.404" x2="219.972" y2="209.508"/><line style="fill-rule:evenodd;clip-rule:evenodd;fill:none;stroke:#005A9D;stroke-width:1.1591;stroke-linecap:round;stroke-miterlimit:10;" x1="217.529" y1="197.881" x2="208.709" y2="202.988"/><line style="fill-rule:evenodd;clip-rule:evenodd;fill:none;stroke:#005A9D;stroke-width:1.1591;stroke-linecap:round;stroke-miterlimit:10;" x1="206.024" y1="191.504" x2="204.58" y2="192.336"/></g></g><g id="Layer_1"></g></svg> 
