<?xml version="1.0" encoding="iso-8859-1"?><svg version="1.1" xmlns="http://www.w3.org/2000/svg" xmlns:xlink="http://www.w3.org/1999/xlink" x="0px" y="0px" viewBox="0 0 16 16" style="enable-background:new 0 0 16 16;" xml:space="preserve"><g id="_x5F__x5F_configure"><g><path style="fill:#686969;" d="M9.604,6.098l0.007-1.195L8.584,4.608C8.506,4.305,8.388,4.015,8.232,3.744l0.528-0.93l-0.84-0.85 L6.983,2.483c-0.27-0.159-0.557-0.28-0.859-0.362L5.84,1.089L4.645,1.082L4.349,2.113c-0.302,0.078-0.591,0.195-0.861,0.35 L2.556,1.934l-0.85,0.84l0.519,0.937c-0.16,0.271-0.282,0.559-0.363,0.862l-1.03,0.284L0.825,6.052l1.028,0.296 C1.932,6.652,2.05,6.941,2.206,7.213L1.68,8.14l0.84,0.85l0.934-0.517c0.269,0.159,0.556,0.28,0.856,0.361l0.283,1.027 l1.195,0.007l0.294-1.023c0.305-0.078,0.596-0.196,0.869-0.353l0.927,0.526l0.85-0.84L8.211,7.246 c0.161-0.271,0.283-0.561,0.365-0.865L9.604,6.098z M6.465,5.588c-0.062,0.688-0.671,1.199-1.36,1.134 C4.417,6.66,3.909,6.05,3.971,5.362C4.03,4.713,4.577,4.223,5.217,4.223c0.038,0,0.076,0.002,0.114,0.005 C6.019,4.29,6.528,4.901,6.465,5.588z"/><path style="fill:#686969;" d="M15.17,9.748l0.005-0.926l-0.796-0.229c-0.061-0.235-0.152-0.46-0.273-0.669l0.409-0.72 l-0.651-0.658l-0.726,0.402c-0.209-0.123-0.432-0.217-0.665-0.28l-0.22-0.8l-0.926-0.005l-0.23,0.798 c-0.234,0.06-0.458,0.151-0.667,0.271l-0.722-0.41L9.051,7.173l0.402,0.726c-0.124,0.21-0.218,0.433-0.282,0.668l-0.798,0.22 L8.368,9.713l0.797,0.229c0.061,0.235,0.152,0.46,0.273,0.67L9.03,11.33l0.651,0.658l0.724-0.4 c0.208,0.123,0.431,0.217,0.663,0.28l0.219,0.796l0.926,0.005l0.228-0.792c0.237-0.06,0.462-0.152,0.673-0.273l0.718,0.408 l0.658-0.651l-0.4-0.722c0.125-0.21,0.219-0.435,0.283-0.67L15.17,9.748z M12.738,9.353c-0.048,0.533-0.52,0.929-1.054,0.879 c-0.533-0.048-0.927-0.521-0.879-1.054c0.046-0.503,0.47-0.883,0.965-0.883c0.029,0,0.059,0.001,0.088,0.004 C12.392,8.348,12.786,8.82,12.738,9.353z"/><path style="fill:#0088B6;" d="M9.295,12.68l0.004-0.709L8.69,11.796c-0.046-0.18-0.116-0.352-0.209-0.513l0.313-0.552 l-0.499-0.504L7.74,10.535c-0.16-0.095-0.331-0.166-0.51-0.215L7.061,9.707L6.352,9.703l-0.176,0.612 c-0.179,0.046-0.351,0.116-0.511,0.208l-0.553-0.314l-0.504,0.499l0.308,0.556c-0.095,0.161-0.167,0.332-0.216,0.512l-0.611,0.168 l-0.004,0.709l0.61,0.176c0.046,0.18,0.116,0.352,0.209,0.513l-0.312,0.55l0.499,0.504l0.554-0.307 c0.16,0.094,0.33,0.166,0.508,0.214l0.168,0.61l0.709,0.004l0.175-0.607c0.181-0.046,0.354-0.116,0.516-0.209l0.55,0.312 l0.504-0.499l-0.306-0.553c0.095-0.161,0.168-0.333,0.216-0.513L9.295,12.68z M7.432,12.378c-0.037,0.408-0.398,0.712-0.807,0.673 c-0.408-0.037-0.71-0.399-0.673-0.807c0.035-0.385,0.36-0.676,0.74-0.676c0.022,0,0.045,0.001,0.068,0.003 C7.167,11.607,7.469,11.97,7.432,12.378z"/></g></g></svg> 
