<?xml version="1.0" encoding="iso-8859-1"?><svg version="1.1" xmlns="http://www.w3.org/2000/svg" xmlns:xlink="http://www.w3.org/1999/xlink" x="0px" y="0px" viewBox="0 0 16 16" style="enable-background:new 0 0 16 16;" xml:space="preserve"><g id="_x5F__x5F_entity-relationship"><g><path style="fill:#686969;" d="M7.925,7.326H1.499C1.127,7.326,0.825,7.628,0.825,8c0,0.372,0.302,0.674,0.674,0.674h6.426 c0.372,0,0.674-0.302,0.674-0.674C8.599,7.628,8.297,7.326,7.925,7.326z"/><path style="fill:#686969;" d="M8.576,7.789C8.53,7.615,8.418,7.47,8.262,7.38L2.697,4.167c-0.321-0.186-0.734-0.074-0.92,0.247 c-0.185,0.321-0.075,0.734,0.247,0.92l5.565,3.214c0.102,0.059,0.218,0.09,0.336,0.09c0.241,0,0.464-0.129,0.583-0.337 C8.599,8.145,8.622,7.963,8.576,7.789z"/><path style="fill:#686969;" d="M8.509,7.682c-0.182-0.318-0.593-0.43-0.92-0.247l-5.565,3.212 c-0.322,0.186-0.433,0.599-0.246,0.921c0.12,0.208,0.344,0.337,0.584,0.337c0.115,0,0.23-0.03,0.336-0.089l5.565-3.213 C8.583,8.416,8.694,8.004,8.509,7.682z"/><path style="fill:#0088B6;" d="M11.251,4.074C9.086,4.074,7.325,5.835,7.325,8s1.762,3.926,3.926,3.926 c2.163,0,3.924-1.762,3.924-3.926S13.414,4.074,11.251,4.074z M13.841,8c0,1.429-1.162,2.592-2.59,2.592 c-1.429,0-2.592-1.163-2.592-2.592s1.163-2.591,2.592-2.591C12.679,5.408,13.841,6.571,13.841,8z"/></g></g></svg> 
