<?xml version="1.0" encoding="iso-8859-1"?><svg version="1.1" xmlns="http://www.w3.org/2000/svg" xmlns:xlink="http://www.w3.org/1999/xlink" x="0px" y="0px" viewBox="0 0 16 16" style="enable-background:new 0 0 16 16;" xml:space="preserve"><g id="_x5F__x5F_event"><g><path id="Works_3_" style="fill:#686969;" d="M3.397,9.185h3.134c0.184,0,0.291,0.055,0.238,0.212l-1.498,5.674 c-0.054,0.157-0.005,0.143,0.108,0.012l6.695-8.046c0.111-0.13,0.053-0.236-0.131-0.236H8.812c-0.184,0-0.282-0.115-0.214-0.269 l1.466-5.54c0.066-0.153,0.022-0.157-0.095-0.031L3.278,8.883C3.16,9.008,3.215,9.185,3.397,9.185z"/><path id="Works_1_" style="fill:#0088B6;" d="M2.178,4.101h1.239c0.073,0,0.115,0.022,0.094,0.084L2.919,6.429 C2.898,6.491,2.917,6.485,2.962,6.433l2.647-3.181C5.653,3.201,5.63,3.159,5.557,3.159H4.319c-0.073,0-0.112-0.045-0.085-0.106 l0.58-2.191C4.84,0.802,4.823,0.8,4.776,0.85L2.131,3.982C2.084,4.031,2.106,4.101,2.178,4.101z"/><path id="Works_9_" style="fill:#0088B6;" d="M10.441,12.037h1.239c0.073,0,0.115,0.022,0.094,0.084l-0.592,2.244 c-0.021,0.062-0.002,0.057,0.043,0.005l2.647-3.181c0.044-0.051,0.021-0.093-0.052-0.093h-1.238c-0.073,0-0.112-0.045-0.085-0.106 l0.58-2.191c0.026-0.061,0.009-0.062-0.038-0.012l-2.645,3.132C10.347,11.967,10.368,12.037,10.441,12.037z"/></g></g></svg> 
