<?xml version="1.0" encoding="iso-8859-1"?><svg version="1.1" xmlns="http://www.w3.org/2000/svg" xmlns:xlink="http://www.w3.org/1999/xlink" x="0px" y="0px" viewBox="0 0 16 16" style="enable-background:new 0 0 16 16;" xml:space="preserve"><g id="_x5F__x5F_subjects"><g><path id="XMLID_3248_" style="fill:#0088B6;" d="M14.027,8.84h-1.118v2.463h1.118c0.278,0,0.504-0.229,0.504-0.505V9.344 C14.532,9.065,14.306,8.84,14.027,8.84z"/><path id="XMLID_3249_" style="fill:#0088B6;" d="M14.027,5.567h-1.118v2.46h1.118c0.278,0,0.504-0.224,0.504-0.501V6.07 C14.532,5.793,14.306,5.567,14.027,5.567z"/><path id="XMLID_3250_" style="fill:#0088B6;" d="M14.027,2.296h-1.118v2.46h1.118c0.278,0,0.504-0.225,0.504-0.504V2.8 C14.532,2.521,14.306,2.296,14.027,2.296z"/><path id="XMLID_3251_" style="fill:#686969;" d="M12.879,13.916c0,0.232-0.188,0.42-0.42,0.42H2.728 c-0.231,0-0.42-0.188-0.42-0.42v-0.172h9.059c0.464,0,0.839-0.376,0.839-0.839V1.663c0-0.464-0.375-0.838-0.839-0.838H2.308 c-0.464,0-0.84,0.374-0.84,0.838v9.754v1.488c0,0.001,0.001,0.003,0.001,0.003v1.007c0,0.694,0.564,1.259,1.258,1.259h9.731 c0.695,0,1.259-0.565,1.259-1.259v-1.742h-0.839V13.916z"/></g></g></svg> 
