<?xml version="1.0" encoding="iso-8859-1"?><svg version="1.1" xmlns="http://www.w3.org/2000/svg" xmlns:xlink="http://www.w3.org/1999/xlink" x="0px" y="0px" viewBox="0 0 16 16" style="enable-background:new 0 0 16 16;" xml:space="preserve"><g id="_x5F__x5F_task"><g><rect x="7.614" y="11.341" style="fill:#0088B6;" width="3.28" height="0.65"/><polygon style="fill:#0088B6;" points="5.941,11.378 5.399,10.818 4.889,11.312 5.774,12.225 5.778,12.221 5.916,12.364 7.243,11.077 6.763,10.581 "/><path style="fill:#686969;" d="M11.846,3.222H3.938c-0.714,0-1.298,0.545-1.298,1.211v9.532c0,0.666,0.584,1.211,1.298,1.211 h7.908c0.714,0,1.298-0.545,1.298-1.211V4.432C13.144,3.766,12.56,3.222,11.846,3.222z M11.85,13.523 c0,0.118-0.103,0.214-0.23,0.214H4.162c-0.126,0-0.23-0.096-0.23-0.214v-8.65c0-0.118,0.103-0.214,0.23-0.214h7.459 c0.126,0,0.23,0.096,0.23,0.214V13.523z"/><rect x="7.586" y="6.533" style="fill:#0088B6;" width="3.28" height="0.65"/><polygon style="fill:#0088B6;" points="5.749,7.413 5.887,7.555 7.214,6.269 6.734,5.773 5.912,6.569 5.37,6.01 4.86,6.504 5.745,7.417 "/><rect x="7.614" y="8.883" style="fill:#686969;" width="3.28" height="0.65"/><polygon style="fill:#0088B6;" points="5.941,8.92 5.399,8.36 4.889,8.854 5.774,9.768 5.778,9.763 5.916,9.906 7.243,8.619 6.763,8.123 "/><path style="fill:#0088B6;" d="M11.506,2.24H9.767c-0.129-0.8-0.819-1.415-1.655-1.415c-0.836,0-1.526,0.614-1.655,1.415H4.544 v0.536h6.962V2.24z M8.112,1.462c0.483,0,0.887,0.331,1.007,0.778H7.105C7.224,1.793,7.628,1.462,8.112,1.462z"/></g></g></svg> 
