<?xml version="1.0" encoding="iso-8859-1"?><svg version="1.1" xmlns="http://www.w3.org/2000/svg" xmlns:xlink="http://www.w3.org/1999/xlink" x="0px" y="0px" viewBox="0 0 16 16" style="enable-background:new 0 0 16 16;" xml:space="preserve"><g id="adf-foreach"><g><rect x="9.377" y="10.471" transform="matrix(-1.836970e-16 1 -1 -1.836970e-16 23.5127 3.5956)" style="fill:#999999;" width="1.163" height="6.167"/><g><rect x="9.395" y="0.866" transform="matrix(-1.836970e-16 1 -1 -1.836970e-16 12.927 -7.0263)" style="fill:#999999;" width="1.163" height="4.169"/><polygon style="fill:#999999;" points="6.875,2.95 8.91,4.985 8.91,0.916 "/></g><rect x="11.901" y="2.369" style="fill:#999999;" width="1.163" height="11.767"/><path style="fill:#0078D4;" d="M5.658,4.481H3.275c-0.187,0-0.339-0.152-0.339-0.339V1.759c0-0.187,0.152-0.339,0.339-0.339h2.383 c0.187,0,0.339,0.152,0.339,0.339v2.383C5.997,4.329,5.845,4.481,5.658,4.481z"/><path style="fill:#0078D4;" d="M5.716,9.769H3.333c-0.187,0-0.339-0.152-0.339-0.339V7.047c0-0.187,0.152-0.339,0.339-0.339h2.383 c0.187,0,0.339,0.152,0.339,0.339V9.43C6.055,9.617,5.903,9.769,5.716,9.769z"/><path style="fill:#0078D4;" d="M5.716,15.084H3.333c-0.187,0-0.339-0.152-0.339-0.339v-2.383c0-0.187,0.152-0.339,0.339-0.339 h2.383c0.187,0,0.339,0.152,0.339,0.339v2.383C6.055,14.933,5.903,15.084,5.716,15.084z"/></g></g></svg> 
