<?xml version="1.0" encoding="iso-8859-1"?><svg version="1.1" xmlns="http://www.w3.org/2000/svg" xmlns:xlink="http://www.w3.org/1999/xlink" x="0px" y="0px" viewBox="0 0 16 16" style="enable-background:new 0 0 16 16;" xml:space="preserve"><g id="adf-u-sql"><g><path style="fill:#005BA1;" d="M8,2.787c0,0-0.072,0-0.074,0c-0.145,0-5.337,0-5.337,0v10.426c0,1.073,2.384,1.943,5.337,1.958 v0.002h0.066c0.003,0,0.006,0,0.008,0v0c2.989,0,5.412-0.877,5.412-1.96V2.787H8z"/><path style="fill:#FFFFFF;" d="M13.412,2.787c0,1.082-2.423,1.96-5.412,1.96s-5.412-0.877-5.412-1.96S5.011,0.827,8,0.827 S13.412,1.704,13.412,2.787"/><path style="fill:#198AB3;" d="M12.305,2.674c0,0.715-1.928,1.293-4.305,1.293S3.694,3.388,3.694,2.674 C3.694,1.96,5.622,1.381,8,1.381S12.305,1.96,12.305,2.674"/><path style="fill:#50E6FF;" d="M11.403,3.464c0.564-0.219,0.902-0.492,0.902-0.79c0-0.715-1.928-1.293-4.306-1.293 c-2.378,0-4.305,0.579-4.305,1.293c0,0.297,0.339,0.571,0.902,0.79C5.384,3.159,6.614,2.961,8,2.961 C9.386,2.961,10.616,3.159,11.403,3.464"/></g><g><g><path style="fill:#198AB3;" d="M5.557,9.016c0,0.637-0.297,0.955-0.89,0.955c-0.576,0-0.864-0.31-0.864-0.933V7.815h0.479v1.23 c0,0.343,0.133,0.515,0.402,0.515c0.263,0,0.395-0.166,0.395-0.497V7.815h0.478V9.016z"/><path style="fill:#198AB3;" d="M6.72,9.29H5.911V8.963H6.72V9.29z"/><path style="fill:#198AB3;" d="M6.992,9.853V9.38c0.086,0.072,0.179,0.126,0.28,0.162c0.101,0.036,0.202,0.054,0.305,0.054 c0.06,0,0.112-0.005,0.157-0.016C7.78,9.569,7.816,9.554,7.847,9.535C7.876,9.516,7.9,9.493,7.914,9.467 C7.929,9.44,7.936,9.412,7.936,9.381c0-0.041-0.012-0.078-0.036-0.111c-0.023-0.033-0.056-0.062-0.097-0.09 c-0.041-0.027-0.09-0.055-0.145-0.08C7.602,9.075,7.542,9.049,7.477,9.022C7.311,8.953,7.188,8.869,7.106,8.77 c-0.081-0.1-0.122-0.221-0.122-0.361c0-0.111,0.022-0.205,0.066-0.285C7.095,8.045,7.155,7.98,7.231,7.928 c0.076-0.051,0.165-0.088,0.265-0.113c0.101-0.023,0.208-0.036,0.319-0.036c0.111,0,0.209,0.006,0.294,0.019 c0.084,0.013,0.164,0.034,0.235,0.062v0.441C8.311,8.278,8.272,8.256,8.229,8.237C8.188,8.219,8.145,8.204,8.1,8.19 C8.056,8.178,8.012,8.169,7.968,8.164C7.924,8.158,7.883,8.155,7.843,8.155c-0.054,0-0.103,0.005-0.147,0.015 S7.613,8.195,7.582,8.214c-0.031,0.018-0.054,0.041-0.07,0.067C7.495,8.307,7.487,8.337,7.487,8.369 c0,0.036,0.009,0.067,0.028,0.095c0.018,0.028,0.045,0.055,0.079,0.08s0.076,0.05,0.126,0.074 C7.77,8.642,7.826,8.667,7.888,8.693c0.084,0.036,0.161,0.073,0.228,0.113c0.068,0.04,0.126,0.085,0.174,0.135 C8.338,8.992,8.375,9.049,8.4,9.114c0.025,0.064,0.039,0.139,0.039,0.225c0,0.118-0.022,0.218-0.067,0.298 S8.266,9.782,8.189,9.832c-0.076,0.05-0.166,0.085-0.268,0.107C7.818,9.961,7.711,9.971,7.598,9.971 c-0.116,0-0.227-0.009-0.332-0.03C7.16,9.923,7.07,9.893,6.992,9.853z"/><path style="fill:#198AB3;" d="M9.609,9.971c-0.303,0-0.55-0.099-0.742-0.295C8.676,9.477,8.58,9.219,8.58,8.902 c0-0.334,0.097-0.605,0.291-0.813c0.193-0.208,0.451-0.31,0.772-0.31c0.302,0,0.547,0.099,0.733,0.297 c0.187,0.197,0.281,0.458,0.281,0.783c0,0.333-0.098,0.601-0.291,0.806c-0.007,0.007-0.014,0.014-0.019,0.02 c-0.006,0.006-0.013,0.012-0.019,0.018l0.536,0.517h-0.668L9.915,9.935C9.822,9.959,9.721,9.971,9.609,9.971z M9.63,8.19 c-0.167,0-0.3,0.063-0.4,0.189C9.132,8.505,9.083,8.67,9.083,8.878c0,0.21,0.049,0.375,0.147,0.498 c0.099,0.122,0.228,0.183,0.388,0.183c0.165,0,0.295-0.059,0.392-0.178c0.097-0.12,0.145-0.285,0.145-0.495 c0-0.219-0.047-0.39-0.14-0.513C9.921,8.251,9.793,8.19,9.63,8.19z"/><path style="fill:#198AB3;" d="M12.197,9.935h-1.263v-2.12h0.478v1.732h0.785V9.935z"/></g></g></g></svg> 
