<?xml version="1.0" encoding="iso-8859-1"?><svg version="1.1" xmlns="http://www.w3.org/2000/svg" xmlns:xlink="http://www.w3.org/1999/xlink" x="0px" y="0px" viewBox="0 0 16 16" style="enable-background:new 0 0 16 16;" xml:space="preserve"><g id="alert"><g><path style="fill:#555555;" d="M7.997,13.394c0.694,0,1.257-0.563,1.257-1.257H6.74C6.74,12.831,7.303,13.394,7.997,13.394z"/><path style="fill:#555555;" d="M12.547,9.508l-0.152-0.149V6.482c0-2.212-1.644-4.043-3.773-4.349V1.442 c0-0.34-0.275-0.615-0.615-0.615c-0.34,0-0.616,0.275-0.616,0.615V2.13C5.252,2.426,3.598,4.262,3.598,6.482v2.883L3.453,9.507 c-0.595,0.579-0.518,1.076-0.419,1.32c0.079,0.195,0.352,0.647,1.199,0.651h7.534c0.844,0,1.119-0.454,1.198-0.649 C13.065,10.584,13.143,10.087,12.547,9.508z M10.015,7.963L9.127,8.851L8,7.725L6.873,8.851L5.985,7.963l1.127-1.127L5.985,5.709 l0.888-0.888L8,5.947l1.127-1.127l0.888,0.888L8.889,6.836L10.015,7.963z"/></g></g></svg> 
