<?xml version="1.0" encoding="iso-8859-1"?><svg version="1.1" xmlns="http://www.w3.org/2000/svg" xmlns:xlink="http://www.w3.org/1999/xlink" x="0px" y="0px" viewBox="0 0 16 16" style="enable-background:new 0 0 16 16;" xml:space="preserve"><g id="append-link-satellite"><polygon style="fill:#555555;" points="13.381,10.392 12.185,10.392 12.185,12.185 10.392,12.185 10.392,13.381 12.185,13.381 12.185,15.175 13.381,15.175 13.381,13.381 15.175,13.381 15.175,12.185 13.381,12.185 "/><g><path style="fill:#555555;" d="M5.875,10.097h-5.05v-9.12h1.514V8.82h3.536V10.097z"/><path style="fill:#555555;" d="M6.772,9.735V8.177c0.14,0.127,0.306,0.242,0.499,0.343c0.193,0.102,0.397,0.188,0.614,0.258 S8.317,8.902,8.533,8.94C8.75,8.979,8.949,8.998,9.131,8.998c0.636,0,1.11-0.106,1.421-0.318c0.312-0.212,0.467-0.519,0.467-0.922 c0-0.216-0.052-0.404-0.156-0.563s-0.249-0.304-0.436-0.436c-0.187-0.131-0.406-0.258-0.658-0.378 C9.518,6.26,9.248,6.134,8.959,6.002C8.65,5.837,8.362,5.669,8.095,5.5C7.827,5.33,7.595,5.142,7.398,4.937 S7.046,4.499,6.934,4.24C6.821,3.982,6.765,3.679,6.765,3.331c0-0.428,0.096-0.8,0.289-1.116c0.193-0.316,0.447-0.577,0.763-0.782 c0.316-0.206,0.675-0.358,1.078-0.458S9.71,0.825,10.13,0.825c0.954,0,1.649,0.108,2.086,0.324v1.495 c-0.517-0.373-1.183-0.56-1.997-0.56c-0.225,0-0.448,0.021-0.671,0.064S9.126,2.26,8.95,2.358 C8.774,2.455,8.631,2.581,8.521,2.733S8.355,3.07,8.355,3.286c0,0.204,0.042,0.379,0.127,0.528 c0.085,0.148,0.209,0.284,0.372,0.407c0.163,0.123,0.363,0.243,0.598,0.359S9.96,4.823,10.27,4.959 c0.318,0.165,0.618,0.339,0.9,0.522s0.53,0.384,0.744,0.604s0.384,0.465,0.509,0.735s0.188,0.576,0.188,0.919 c0,0.462-0.093,0.852-0.28,1.17c-0.187,0.318-0.438,0.577-0.754,0.776c-0.316,0.199-0.679,0.343-1.091,0.432 S9.64,10.25,9.182,10.25c-0.153,0-0.34-0.012-0.563-0.035c-0.223-0.023-0.45-0.057-0.684-0.102 c-0.233-0.045-0.454-0.099-0.661-0.162S6.899,9.815,6.772,9.735z"/></g></g></svg> 
