<?xml version="1.0" encoding="iso-8859-1"?><svg version="1.1" xmlns="http://www.w3.org/2000/svg" xmlns:xlink="http://www.w3.org/1999/xlink" x="0px" y="0px" viewBox="0 0 16 16" style="enable-background:new 0 0 16 16;" xml:space="preserve"><g id="archive-delete"><g><path style="fill:#555555;" d="M11.74,13.29c0,0.344-0.279,0.623-0.623,0.623H4.884c-0.344,0-0.623-0.28-0.623-0.623V4.564H3.014 v8.726c0,1.031,0.839,1.87,1.87,1.87h6.233c1.031,0,1.87-0.839,1.87-1.87V4.564H11.74V13.29z"/><path style="fill:#555555;" d="M11.116,2.071c0-0.687-0.559-1.247-1.247-1.247H6.13c-0.687,0-1.247,0.559-1.247,1.247v0.623H1.767 v1.247h12.465V2.694h-3.116V2.071z M6.13,2.071h3.74v0.623H6.13V2.071z"/><polygon style="fill:#555555;" points="6.571,11.237 8,9.808 9.429,11.237 10.31,10.356 8.881,8.927 10.31,7.497 9.429,6.616 8,8.046 6.571,6.616 5.69,7.497 7.119,8.927 5.69,10.356 "/></g></g></svg> 
