<?xml version="1.0" encoding="iso-8859-1"?><svg version="1.1" xmlns="http://www.w3.org/2000/svg" xmlns:xlink="http://www.w3.org/1999/xlink" x="0px" y="0px" viewBox="0 0 16 16" style="enable-background:new 0 0 16 16;" xml:space="preserve"><g id="bdv-sql-database-grey"><path style="fill:#686969;" d="M8,0.825c-2.986,0-5.407,0.877-5.407,1.958v10.418c0,1.073,2.382,1.943,5.333,1.957v0.001v0h0.059 c0.005,0,0.01,0,0.015,0v0h0c1.866,0,3.512-0.342,4.484-0.863c0.583-0.313,0.924-0.689,0.924-1.095V2.783 C13.407,1.701,10.986,0.825,8,0.825z"/><path style="fill:#E27730;" d="M12.302,2.67c0,0.714-1.926,1.292-4.302,1.292S3.698,3.384,3.698,2.67 c0-0.714,1.926-1.292,4.302-1.292S12.302,1.956,12.302,2.67"/><path style="fill:#FFFFFF;" d="M11.401,3.46c0.563-0.218,0.902-0.492,0.902-0.789c0-0.714-1.926-1.292-4.302-1.292 c-2.376,0-4.302,0.578-4.302,1.292c0,0.297,0.338,0.571,0.902,0.789C5.386,3.154,6.615,2.957,8,2.957 C9.385,2.957,10.614,3.154,11.401,3.46"/><g><path style="fill:#FFFFFF;" d="M8,12.758c-1.354,0-2.456-1.102-2.456-2.456c0-1.354,1.102-2.456,2.456-2.456 c1.354,0,2.456,1.102,2.456,2.456C10.456,11.657,9.354,12.758,8,12.758z M8,8.165c-1.178,0-2.137,0.959-2.137,2.137 S6.821,12.44,8,12.44s2.137-0.959,2.137-2.137S9.178,8.165,8,8.165z"/><rect x="7.841" y="8.006" style="fill:#FFFFFF;" width="0.319" height="0.637"/><rect x="7.841" y="11.962" style="fill:#FFFFFF;" width="0.319" height="0.637"/><rect x="9.659" y="10.143" style="fill:#FFFFFF;" width="0.637" height="0.319"/><rect x="5.704" y="10.143" style="fill:#FFFFFF;" width="0.637" height="0.319"/><rect x="9.08" y="8.745" transform="matrix(0.7071 -0.7071 0.7071 0.7071 -3.5432 9.2537)" style="fill:#FFFFFF;" width="0.637" height="0.319"/><rect x="6.283" y="11.542" transform="matrix(0.7071 -0.7071 0.7071 0.7071 -6.3404 8.0951)" style="fill:#FFFFFF;" width="0.637" height="0.319"/><rect x="9.239" y="11.383" transform="matrix(0.7072 -0.707 0.707 0.7072 -5.5209 10.0704)" style="fill:#FFFFFF;" width="0.319" height="0.637"/><rect x="6.442" y="8.585" transform="matrix(0.7071 -0.7071 0.7071 0.7071 -4.3625 7.2758)" style="fill:#FFFFFF;" width="0.319" height="0.637"/><path style="fill:#FFFFFF;" d="M8,11.278c-0.538,0-0.976-0.438-0.976-0.976S7.462,9.327,8,9.327s0.976,0.438,0.976,0.975 S8.538,11.278,8,11.278z M8,9.646c-0.362,0-0.657,0.295-0.657,0.657S7.637,10.96,8,10.96s0.657-0.295,0.657-0.657 S8.362,9.646,8,9.646z"/><path style="fill:#FFFFFF;" d="M8.05,7.397L7.118,5.998H8.98L8.05,7.397z M7.713,6.316L8.05,6.822l0.336-0.506H7.713z"/><path style="fill:#FFFFFF;" d="M8,12.758c-1.354,0-2.456-1.102-2.456-2.456c0-1.354,1.102-2.456,2.456-2.456 c1.354,0,2.456,1.102,2.456,2.456C10.456,11.657,9.354,12.758,8,12.758z M8,8.165c-1.178,0-2.137,0.959-2.137,2.137 S6.821,12.44,8,12.44s2.137-0.959,2.137-2.137S9.178,8.165,8,8.165z"/></g></g></svg> 
