<?xml version="1.0" encoding="iso-8859-1"?><svg version="1.1" xmlns="http://www.w3.org/2000/svg" xmlns:xlink="http://www.w3.org/1999/xlink" x="0px" y="0px" viewBox="0 0 16 16" style="enable-background:new 0 0 16 16;" xml:space="preserve"><g id="bfx-ext-point"><g id="File_x2C__general_1_"></g><g id="Message_1_"></g><g id="Monitor_1_"></g><g id="Monitor_running_apps_1_"></g><g id="Mouse_1_"></g><g id="Network_card_1_"></g><g id="Not_allowed_1_"></g><g id="Performance_1_"></g><g id="Phone_1_"></g><g id="Plug_and_play_1_"></g><g id="Powershell_script_file_1_"></g><g id="Protocol_stack_1_"></g><g id="Queue_x2C__general_1_"></g><g id="RMS_connector_1_"></g><g id="Router_1_"></g><g id="slices_1_"></g><path style="fill:#C40D3C;" d="M12.53,1.002L4.869,8.664v2.467h2.467l7.662-7.662L12.53,1.002z M5.817,10.184V8.807l1.376,1.377 H5.817z M7.739,9.388L6.612,8.261l5.918-5.919l1.127,1.127l-0.088,0.088L7.739,9.388z"/><polygon style="fill:#00416B;" points="12.652,6.699 12.652,10.906 13.485,10.906 13.485,5.866 "/><path style="fill:#00416B;" d="M5.695,1.584H7.31h0.342H9.52v0.239v0.205v1.101l1.419-1.419l-0.871-0.884H9.52H7.652H7.31H5.695 H5.468H3.723H3.229H3.063c-0.302,0-0.548,0.245-0.548,0.544v9.537h0.833V1.584h0.375h1.745H5.695z"/><path style="fill:#555555;" d="M13.981,10.476H8.875L7.741,11.61l-0.146,0.146H7.552l0.317,0.609l0.53-1.054h0.669l-0.811,1.476 l0.906,1.552H8.439l-0.584-1.114l-0.574,1.114H6.593l0.873-1.552l-0.57-1.031H6.215v0.037H4.972v0.753h1.186v0.471H4.972v0.841 h1.244v0.481H4.393v-2.583H4.244v-0.5v-0.78H2.018c-0.25,0-0.453,0.201-0.453,0.449v3.799c0,0.248,0.203,0.449,0.453,0.449h11.963 c0.25,0,0.454-0.201,0.454-0.449v-3.799C14.435,10.678,14.232,10.476,13.981,10.476z M11.607,11.787h-0.829v2.553h-0.583v-2.553 H9.366v-0.475h2.241V11.787z"/></g></svg> 
