<?xml version="1.0" encoding="iso-8859-1"?><svg version="1.1" xmlns="http://www.w3.org/2000/svg" xmlns:xlink="http://www.w3.org/1999/xlink" x="0px" y="0px" viewBox="0 0 16 16" style="enable-background:new 0 0 16 16;" xml:space="preserve"><g id="bfx-ssis-exec"><g><rect x="4.974" y="4.628" style="fill:#FFFFFF;" width="6.151" height="8.163"/><g><path style="fill:#005BA1;" d="M14.026,14.569h-2.649c-0.139,0-0.252-0.113-0.252-0.252v-2.649c0-0.139,0.113-0.252,0.252-0.252 h2.649c0.139,0,0.252,0.113,0.252,0.252v2.649C14.277,14.456,14.165,14.569,14.026,14.569z"/><path style="fill:#FFFFFF;" d="M13.973,11.416c0.168,0,0.305,0.137,0.305,0.305v2.543c0,0.168-0.137,0.305-0.305,0.305H11.43 c-0.168,0-0.305-0.137-0.305-0.305v-2.543c0-0.168,0.137-0.305,0.305-0.305H13.973 M13.973,10.81H11.43 c-0.502,0-0.911,0.409-0.911,0.911v2.543c0,0.502,0.409,0.911,0.911,0.911h2.543c0.502,0,0.911-0.409,0.911-0.911v-2.543 C14.884,11.219,14.475,10.81,13.973,10.81L13.973,10.81z"/></g><path style="fill:#555555;" d="M7.518,8.946H6.445c-0.139,0-0.252-0.113-0.252-0.252V7.622c0-0.139,0.113-0.252,0.252-0.252h1.073 c0.139,0,0.252,0.113,0.252,0.252v1.073C7.77,8.834,7.657,8.946,7.518,8.946z"/><path style="fill:#555555;" d="M10.302,8.988H9.228c-0.139,0-0.252-0.113-0.252-0.252V7.663c0-0.139,0.113-0.252,0.252-0.252 h1.073c0.139,0,0.252,0.113,0.252,0.252v1.073C10.553,8.875,10.441,8.988,10.302,8.988z"/><path style="fill:#555555;" d="M7.518,11.605H6.445c-0.139,0-0.252-0.113-0.252-0.252V10.28c0-0.139,0.113-0.252,0.252-0.252 h1.073c0.139,0,0.252,0.113,0.252,0.252v1.073C7.77,11.493,7.657,11.605,7.518,11.605z"/><g><path style="fill:#555555;" d="M9.871,3.218L9.83,3.176H9.526H4.621H4.298c-0.315,0-0.571,0.255-0.571,0.568v0.142v0.848v7.286 v0.97v0.019c0,0.313,0.256,0.568,0.571,0.568h0.323h4.215h1.563V12.48H4.823V4.272h4.375v2.31l2.287,0.013v4.088h0.158h0.938V6.4 V5.969L9.871,3.218z"/><path style="fill:#FFFFFF;" d="M9.83,3.176l0.041,0.042l2.71,2.751V6.4v4.282h-0.938h-0.158V6.594L9.198,6.581v-2.31H4.823v8.208 h5.576v1.096H8.836H4.621H4.298c-0.315,0-0.571-0.255-0.571-0.568v-0.019v-0.971V4.733V3.885V3.744 c0-0.313,0.256-0.568,0.571-0.568h0.323h4.905H9.83 M9.83,2.57H9.526H4.621H4.298c-0.649,0-1.177,0.527-1.177,1.174v0.142v0.848 v7.286v0.971c0,0.666,0.528,1.193,1.177,1.193h0.323h4.215h1.563h0.606v-0.606V12.48v-0.606h-0.606h-4.97V4.878h3.163v1.704 v0.603l0.603,0.003l1.685,0.009v3.485v0.606h0.606h0.158h0.938h0.606v-0.606V6.4V5.969V5.721l-0.174-0.177l-2.71-2.751 l-0.178-0.181L9.83,2.57L9.83,2.57z"/></g><g><polygon style="fill:#4B781D;" points="5.951,4.316 1.722,1.875 1.722,6.758 "/><path style="fill:#FFFFFF;" d="M1.722,1.875l4.229,2.441L1.722,6.758V1.875 M1.116,0.825v1.05v4.883v1.05l0.909-0.525 l4.229-2.441l0.909-0.525L6.254,3.791L2.026,1.35L1.116,0.825L1.116,0.825z"/></g></g></g></svg> 
