<?xml version="1.0" encoding="iso-8859-1"?><svg version="1.1" xmlns="http://www.w3.org/2000/svg" xmlns:xlink="http://www.w3.org/1999/xlink" x="0px" y="0px" viewBox="0 0 16 16" style="enable-background:new 0 0 16 16;" xml:space="preserve"><g id="bfx-database"><g><path style="fill:#00416B;" d="M8,2.787c0,0-0.072,0-0.074,0c-0.144,0-5.337,0-5.337,0v10.425c0,1.073,2.384,1.943,5.337,1.957 v0.002h0.066c0.003,0,0.006,0,0.008,0v0c2.988,0,5.411-0.877,5.411-1.96V2.787H8z"/><path style="fill:#FFFFFF;" d="M13.411,2.787c0,1.082-2.423,1.96-5.411,1.96S2.589,3.87,2.589,2.787S5.012,0.828,8,0.828 S13.411,1.705,13.411,2.787"/><path style="fill:#00416B;" d="M12.305,2.674c0,0.715-1.927,1.293-4.305,1.293S3.695,3.389,3.695,2.674 C3.695,1.96,5.623,1.381,8,1.381S12.305,1.96,12.305,2.674"/><path style="fill:#C40D3C;" d="M11.403,3.465c0.564-0.219,0.902-0.492,0.902-0.79c0-0.715-1.927-1.293-4.305-1.293 c-2.377,0-4.305,0.579-4.305,1.293c0,0.297,0.339,0.571,0.902,0.79C5.384,3.159,6.614,2.962,8,2.962 C9.386,2.962,10.615,3.159,11.403,3.465"/><g><path style="fill:#C40D3C;" d="M10.095,8.63c-0.519-0.519-1.36-0.519-1.879,0l-2.311,2.311l0,0c0.519,0.519,1.36,0.519,1.879,0 L10.095,8.63L10.095,8.63z"/><path style="fill:#FFFFFF;" d="M10.637,9.172l-0.242-0.242l-2.99,2.99l-0.247-0.247c-0.047-0.047-0.128-0.014-0.128,0.053v1.36 c0,0.076,0.061,0.137,0.137,0.137h1.36c0.067,0,0.1-0.081,0.053-0.128L8.346,12.86l2.292-2.292 C11.023,10.183,11.023,9.558,10.637,9.172z"/><path style="fill:#FFFFFF;" d="M8.84,6.329l-1.36,0c-0.067,0-0.1,0.081-0.053,0.128l0.241,0.241L5.363,9.004 c-0.385,0.385-0.385,1.01,0,1.396l0.242,0.242l3.003-3.003l0.241,0.241c0.047,0.047,0.128,0.014,0.128-0.053l0-1.36 C8.977,6.39,8.916,6.329,8.84,6.329z"/></g></g></g></svg> 
