<?xml version="1.0" encoding="iso-8859-1"?><svg version="1.1" xmlns="http://www.w3.org/2000/svg" xmlns:xlink="http://www.w3.org/1999/xlink" x="0px" y="0px" viewBox="0 0 16 16" style="enable-background:new 0 0 16 16;" xml:space="preserve"><g id="bfx-intg-gears"><g id="File_x2C__general_3_"></g><g id="Message_3_"></g><g id="Monitor_3_"></g><g id="Monitor_running_apps_3_"></g><g id="Mouse_3_"></g><g id="Network_card_3_"></g><g id="Not_allowed_3_"></g><g id="Performance_3_"></g><g id="Phone_3_"></g><g id="Plug_and_play_3_"></g><g id="Powershell_script_file_3_"></g><g id="Protocol_stack_3_"></g><g id="Queue_x2C__general_3_"></g><g id="RMS_connector_3_"></g><g id="Router_3_"></g><g id="slices_3_"></g><path style="fill:#00416B;" d="M15.057,4.342l-0.718-0.24c-0.077-0.284-0.186-0.553-0.328-0.804l0.335-0.672 c0.033-0.066,0.02-0.146-0.032-0.198l-0.742-0.742C13.52,1.633,13.44,1.62,13.373,1.653l-0.665,0.332 c-0.254-0.146-0.527-0.261-0.816-0.34l-0.235-0.702c-0.023-0.07-0.089-0.117-0.163-0.117h-1.05c-0.074,0-0.14,0.047-0.163,0.117 l-0.235,0.702c-0.288,0.079-0.562,0.194-0.816,0.34L8.566,1.653C8.5,1.62,8.42,1.633,8.367,1.686L7.625,2.428 C7.573,2.48,7.56,2.56,7.593,2.627l0.335,0.672C7.786,3.549,7.677,3.818,7.6,4.102l-0.718,0.24 c-0.07,0.023-0.117,0.089-0.117,0.163v1.05c0,0.074,0.047,0.14,0.117,0.163l0.729,0.244c0.078,0.275,0.188,0.536,0.327,0.779 L7.593,7.434C7.56,7.5,7.573,7.58,7.625,7.633l0.742,0.742C8.42,8.427,8.5,8.44,8.566,8.407l0.7-0.349 c0.24,0.135,0.497,0.24,0.767,0.315l0.249,0.744c0.023,0.07,0.089,0.117,0.163,0.117h1.05c0.074,0,0.14-0.047,0.163-0.117 l0.249-0.744c0.27-0.075,0.527-0.181,0.767-0.315l0.7,0.349c0.066,0.033,0.146,0.02,0.198-0.032l0.742-0.742 C14.367,7.58,14.38,7.5,14.347,7.434l-0.346-0.693c0.139-0.243,0.249-0.504,0.327-0.779l0.729-0.244 c0.07-0.023,0.117-0.089,0.117-0.163v-1.05C15.175,4.431,15.128,4.366,15.057,4.342z M12.547,5.011 c0,0.871-0.706,1.577-1.577,1.577c-0.871,0-1.577-0.706-1.577-1.577c0-0.871,0.706-1.577,1.577-1.577 C11.841,3.434,12.547,4.14,12.547,5.011z"/><path style="fill:#C40D3C;" d="M9.223,11.271L8.65,11.079c-0.061-0.226-0.149-0.441-0.262-0.641l0.267-0.536 C8.682,9.849,8.672,9.785,8.63,9.744L8.038,9.151C7.996,9.11,7.932,9.099,7.879,9.126L7.349,9.39 C7.146,9.273,6.928,9.182,6.698,9.119L6.51,8.559C6.492,8.503,6.439,8.465,6.38,8.465H5.543c-0.059,0-0.111,0.038-0.13,0.094 l-0.187,0.56C4.995,9.182,4.777,9.273,4.574,9.39L4.044,9.126C3.991,9.099,3.927,9.11,3.885,9.151L3.293,9.744 C3.251,9.785,3.241,9.849,3.267,9.902l0.267,0.536c-0.113,0.2-0.2,0.415-0.262,0.641L2.7,11.271 c-0.056,0.019-0.094,0.071-0.094,0.13v0.838c0,0.059,0.038,0.111,0.094,0.13l0.581,0.194c0.062,0.219,0.15,0.428,0.261,0.621 l-0.276,0.553c-0.026,0.053-0.016,0.117,0.026,0.158l0.592,0.592c0.042,0.042,0.105,0.052,0.158,0.026l0.558-0.278 c0.191,0.107,0.396,0.191,0.612,0.252l0.199,0.594c0.019,0.056,0.071,0.094,0.13,0.094H6.38c0.059,0,0.111-0.038,0.13-0.094 l0.199-0.594c0.215-0.06,0.421-0.144,0.612-0.252l0.558,0.278c0.053,0.026,0.117,0.016,0.158-0.026l0.592-0.592 c0.042-0.042,0.052-0.105,0.026-0.158L8.38,13.185c0.111-0.194,0.199-0.402,0.261-0.621l0.581-0.194 c0.056-0.019,0.094-0.071,0.094-0.13v-0.838C9.316,11.342,9.279,11.29,9.223,11.271z M7.22,11.805c0,0.695-0.563,1.258-1.258,1.258 S4.703,12.5,4.703,11.805c0-0.695,0.563-1.258,1.258-1.258S7.22,11.11,7.22,11.805z"/><path style="fill:#555555;" d="M5.4,4.547L5.004,4.415C4.961,4.258,4.901,4.11,4.823,3.971l0.185-0.371 C5.026,3.564,5.019,3.52,4.99,3.491l-0.41-0.41C4.551,3.052,4.507,3.045,4.471,3.063L4.103,3.247 c-0.14-0.081-0.291-0.144-0.45-0.188l-0.13-0.388c-0.013-0.039-0.049-0.065-0.09-0.065h-0.58c-0.041,0-0.077,0.026-0.09,0.065 l-0.13,0.388c-0.159,0.044-0.31,0.107-0.45,0.188L1.817,3.063C1.781,3.045,1.737,3.052,1.708,3.081l-0.41,0.41 C1.269,3.52,1.262,3.564,1.28,3.601l0.185,0.371C1.387,4.11,1.326,4.258,1.284,4.415L0.888,4.547 C0.849,4.56,0.823,4.597,0.823,4.637v0.58c0,0.041,0.026,0.077,0.065,0.09L1.29,5.442c0.043,0.152,0.104,0.296,0.181,0.43 L1.28,6.254C1.262,6.29,1.269,6.335,1.298,6.363l0.41,0.41c0.029,0.029,0.073,0.036,0.109,0.018l0.386-0.193 c0.132,0.074,0.274,0.132,0.423,0.174l0.137,0.411c0.013,0.039,0.049,0.065,0.09,0.065h0.58c0.041,0,0.077-0.026,0.09-0.065 l0.137-0.411c0.149-0.042,0.291-0.1,0.423-0.174l0.386,0.193C4.507,6.809,4.551,6.802,4.58,6.773l0.41-0.41 C5.019,6.335,5.026,6.29,5.008,6.254L4.817,5.871c0.077-0.134,0.138-0.278,0.181-0.43L5.4,5.307 c0.039-0.013,0.065-0.049,0.065-0.09v-0.58C5.465,4.597,5.439,4.56,5.4,4.547z M4.014,4.917c0,0.481-0.39,0.87-0.87,0.87 s-0.87-0.39-0.87-0.87c0-0.481,0.39-0.87,0.87-0.87S4.014,4.436,4.014,4.917z"/></g></svg> 
