<?xml version="1.0" encoding="iso-8859-1"?><svg version="1.1" xmlns="http://www.w3.org/2000/svg" xmlns:xlink="http://www.w3.org/1999/xlink" x="0px" y="0px" viewBox="0 0 16 16" style="enable-background:new 0 0 16 16;" xml:space="preserve"><g id="bfx-src-tmpl_copy"><path style="fill:#555555;" d="M3.348,10.906V1.584h0.375h1.745h0.227H7.31h0.342H9.52v0.239v0.205v1.146V4.82l2.841,0.016h0.29 v6.069h0.833V4.837V4.833V4.294l-3.416-3.468H9.52H7.652H7.31H5.695H5.468H3.723H3.229H3.063c-0.302,0-0.548,0.245-0.548,0.544 v9.537H3.348z"/><g id="File_x2C__general_2_"></g><g id="Message_2_"></g><g id="Monitor_2_"></g><g id="Monitor_running_apps_2_"></g><g id="Mouse_2_"></g><g id="Network_card_2_"></g><g id="Not_allowed_2_"></g><g id="Performance_2_"></g><g id="Phone_2_"></g><g id="Plug_and_play_2_"></g><g id="Powershell_script_file_2_"></g><g id="Protocol_stack_2_"></g><g id="Queue_x2C__general_2_"></g><g id="RMS_connector_2_"></g><g id="Router_2_"></g><g><polygon style="fill:#0088B6;" points="4.423,8.001 6.452,9.318 6.452,8.57 5.028,7.752 5.028,7.752 6.452,6.862 6.452,6.114 4.423,7.502 "/><polygon style="fill:#0088B6;" points="6.914,10.243 7.52,10.243 9.05,5.082 8.409,5.082 "/><polygon style="fill:#0088B6;" points="9.548,6.826 11.007,7.716 11.007,7.716 9.548,8.535 9.548,9.282 11.577,7.965 11.577,7.467 9.548,6.079 "/></g><g id="slices_2_"></g><g><path style="fill:#E27730;" d="M8.01,11.851H7.714v0.809h0.284c0.14,0,0.253-0.04,0.338-0.121c0.087-0.083,0.13-0.185,0.13-0.306 C8.466,11.978,8.314,11.851,8.01,11.851z"/><path style="fill:#E27730;" d="M13.981,10.476H2.018c-0.25,0-0.453,0.201-0.453,0.449v3.799c0,0.248,0.203,0.449,0.453,0.449 h11.963c0.25,0,0.454-0.201,0.454-0.449v-3.799C14.435,10.678,14.232,10.476,13.981,10.476z M6.488,13.859 c-0.061,0.11-0.144,0.199-0.25,0.267c-0.105,0.068-0.228,0.117-0.368,0.146c-0.14,0.03-0.287,0.045-0.443,0.045 c-0.16,0-0.311-0.014-0.455-0.041c-0.144-0.027-0.268-0.068-0.374-0.122v-0.649c0.117,0.099,0.245,0.173,0.383,0.222 c0.137,0.05,0.277,0.075,0.417,0.075c0.082,0,0.154-0.008,0.216-0.023c0.061-0.015,0.113-0.036,0.154-0.061 c0.041-0.026,0.072-0.058,0.092-0.094s0.031-0.075,0.031-0.117c0-0.057-0.017-0.107-0.049-0.151 c-0.033-0.045-0.077-0.086-0.133-0.124c-0.056-0.038-0.122-0.075-0.199-0.11c-0.077-0.035-0.16-0.071-0.249-0.108 c-0.227-0.094-0.396-0.21-0.508-0.347c-0.111-0.136-0.167-0.301-0.167-0.494c0-0.152,0.03-0.281,0.091-0.39 c0.061-0.11,0.144-0.198,0.248-0.269c0.104-0.07,0.226-0.122,0.364-0.155c0.138-0.033,0.284-0.049,0.438-0.049 c0.151,0,0.285,0.008,0.402,0.026c0.117,0.019,0.224,0.046,0.323,0.085v0.605c-0.049-0.034-0.102-0.063-0.159-0.089 c-0.057-0.025-0.116-0.047-0.177-0.064c-0.061-0.017-0.121-0.029-0.181-0.038c-0.06-0.008-0.117-0.011-0.171-0.011 c-0.074,0-0.142,0.007-0.203,0.021c-0.061,0.014-0.112,0.034-0.154,0.06C5.365,11.934,5.333,11.964,5.31,12 c-0.023,0.036-0.034,0.076-0.034,0.121c0,0.048,0.013,0.092,0.038,0.13c0.026,0.039,0.062,0.075,0.11,0.11 c0.047,0.034,0.105,0.068,0.172,0.101c0.068,0.033,0.144,0.067,0.229,0.103c0.116,0.048,0.221,0.1,0.313,0.155 c0.093,0.055,0.172,0.116,0.238,0.185c0.066,0.069,0.117,0.147,0.152,0.236c0.035,0.089,0.053,0.192,0.053,0.309 C6.581,13.612,6.55,13.748,6.488,13.859z M8.745,14.267l-0.452-0.748c-0.034-0.057-0.066-0.108-0.097-0.152 c-0.031-0.044-0.062-0.082-0.094-0.114c-0.032-0.032-0.065-0.056-0.1-0.073c-0.034-0.017-0.072-0.025-0.112-0.025H7.714v1.113 H7.059V11.36h1.038c0.705,0,1.058,0.264,1.058,0.791c0,0.101-0.016,0.195-0.047,0.281c-0.031,0.086-0.075,0.163-0.131,0.232 c-0.057,0.069-0.126,0.128-0.206,0.179c-0.08,0.049-0.17,0.089-0.269,0.117v0.009c0.043,0.013,0.086,0.035,0.126,0.065 c0.041,0.031,0.08,0.066,0.118,0.107c0.038,0.041,0.074,0.084,0.109,0.13c0.034,0.047,0.066,0.093,0.094,0.137l0.549,0.86H8.745z M11.812,12.05c-0.195-0.116-0.417-0.175-0.665-0.175c-0.273,0-0.493,0.086-0.661,0.258c-0.167,0.171-0.251,0.403-0.251,0.697 c0,0.281,0.079,0.504,0.237,0.672c0.159,0.167,0.371,0.25,0.639,0.25c0.256,0,0.489-0.062,0.702-0.186v0.598 c-0.213,0.102-0.489,0.154-0.831,0.154c-0.446,0-0.796-0.131-1.052-0.394c-0.255-0.262-0.383-0.611-0.383-1.048 c0-0.465,0.144-0.842,0.431-1.131c0.287-0.289,0.659-0.434,1.117-0.434c0.284,0,0.523,0.035,0.718,0.107V12.05z"/></g></g></svg> 
