<?xml version="1.0" encoding="iso-8859-1"?><svg version="1.1" xmlns="http://www.w3.org/2000/svg" xmlns:xlink="http://www.w3.org/1999/xlink" x="0px" y="0px" viewBox="0 0 16 16" style="enable-background:new 0 0 16 16;" xml:space="preserve"><g id="bfx-ssis-package"><path style="fill:#5EA0EF;" d="M10.068,0.825H9.52H7.652H7.31H5.695H5.468H3.723H3.229H3.063c-0.302,0-0.548,0.245-0.548,0.544 V11.78h0.833V1.584h0.375h1.745h0.227H7.31h0.342H9.52v0.239v0.205v1.146V4.82l2.841,0.016h0.29v6.944h0.833V4.837V4.833V4.294 L10.068,0.825L10.068,0.825L10.068,0.825z"/><path style="fill:#555555;" d="M13.981,10.476H2.018c-0.25,0-0.453,0.201-0.453,0.449v3.799c0,0.248,0.203,0.449,0.453,0.449 h11.963c0.25,0,0.454-0.201,0.454-0.449v-3.799C14.435,10.678,14.232,10.476,13.981,10.476z M5.84,13.91 c-0.064,0.114-0.15,0.207-0.26,0.277c-0.11,0.071-0.237,0.122-0.382,0.152c-0.145,0.031-0.298,0.047-0.46,0.047 c-0.166,0-0.323-0.014-0.473-0.042s-0.279-0.07-0.388-0.127v-0.673c0.122,0.102,0.254,0.179,0.397,0.23 c0.144,0.051,0.288,0.076,0.434,0.076c0.085,0,0.16-0.008,0.224-0.022c0.064-0.016,0.117-0.037,0.16-0.064 c0.042-0.027,0.075-0.06,0.096-0.097s0.031-0.078,0.031-0.121c0-0.06-0.017-0.112-0.05-0.158S5.09,13.3,5.031,13.261 c-0.058-0.04-0.127-0.077-0.207-0.114c-0.08-0.036-0.167-0.073-0.259-0.111c-0.235-0.099-0.411-0.219-0.527-0.36 c-0.116-0.142-0.173-0.312-0.173-0.514c0-0.157,0.031-0.292,0.095-0.405c0.063-0.112,0.149-0.206,0.258-0.278 c0.109-0.073,0.235-0.127,0.378-0.161c0.143-0.035,0.294-0.052,0.455-0.052c0.157,0,0.296,0.009,0.418,0.028 c0.122,0.019,0.233,0.048,0.336,0.087v0.63c-0.051-0.035-0.106-0.066-0.166-0.093s-0.121-0.049-0.184-0.066 s-0.126-0.03-0.188-0.039c-0.062-0.008-0.122-0.013-0.178-0.013c-0.077,0-0.147,0.008-0.21,0.022 c-0.063,0.015-0.117,0.035-0.16,0.062c-0.043,0.026-0.077,0.059-0.101,0.096S4.58,12.059,4.58,12.104 c0,0.051,0.013,0.096,0.04,0.136c0.026,0.04,0.064,0.078,0.113,0.113c0.049,0.036,0.109,0.071,0.179,0.105s0.149,0.07,0.238,0.106 c0.121,0.051,0.229,0.104,0.325,0.161s0.179,0.121,0.248,0.192c0.069,0.072,0.121,0.153,0.158,0.245 c0.037,0.093,0.055,0.199,0.055,0.321C5.935,13.654,5.904,13.795,5.84,13.91z M8.257,13.91c-0.064,0.114-0.15,0.207-0.26,0.277 c-0.11,0.071-0.237,0.122-0.382,0.152c-0.145,0.031-0.298,0.047-0.46,0.047c-0.166,0-0.323-0.014-0.473-0.042 s-0.279-0.07-0.388-0.127v-0.673c0.122,0.102,0.254,0.179,0.397,0.23c0.144,0.051,0.288,0.076,0.434,0.076 c0.085,0,0.16-0.008,0.224-0.022c0.064-0.016,0.117-0.037,0.16-0.064c0.042-0.027,0.075-0.06,0.096-0.097s0.031-0.078,0.031-0.121 c0-0.06-0.017-0.112-0.05-0.158s-0.08-0.089-0.138-0.128c-0.058-0.04-0.127-0.077-0.207-0.114c-0.08-0.036-0.167-0.073-0.259-0.111 c-0.235-0.099-0.411-0.219-0.527-0.36c-0.116-0.142-0.173-0.312-0.173-0.514c0-0.157,0.031-0.292,0.095-0.405 c0.063-0.112,0.149-0.206,0.258-0.278c0.109-0.073,0.235-0.127,0.378-0.161c0.143-0.035,0.294-0.052,0.455-0.052 c0.157,0,0.296,0.009,0.418,0.028c0.122,0.019,0.233,0.048,0.336,0.087v0.63c-0.051-0.035-0.106-0.066-0.166-0.093 s-0.121-0.049-0.184-0.066s-0.126-0.03-0.188-0.039c-0.062-0.008-0.122-0.013-0.178-0.013c-0.077,0-0.147,0.008-0.21,0.022 c-0.063,0.015-0.117,0.035-0.16,0.062c-0.043,0.026-0.077,0.059-0.101,0.096s-0.036,0.079-0.036,0.125 c0,0.051,0.013,0.096,0.04,0.136c0.026,0.04,0.064,0.078,0.113,0.113c0.049,0.036,0.109,0.071,0.179,0.105s0.149,0.07,0.238,0.106 c0.121,0.051,0.229,0.104,0.325,0.161s0.179,0.121,0.248,0.192c0.069,0.072,0.121,0.153,0.158,0.245 c0.037,0.093,0.055,0.199,0.055,0.321C8.352,13.654,8.321,13.795,8.257,13.91z M9.531,14.334H8.849v-3.019h0.681V14.334z M12.04,13.91c-0.064,0.114-0.151,0.207-0.261,0.277c-0.109,0.071-0.236,0.122-0.382,0.152c-0.146,0.031-0.299,0.047-0.46,0.047 c-0.166,0-0.323-0.014-0.473-0.042s-0.279-0.07-0.389-0.127v-0.673c0.122,0.102,0.255,0.179,0.398,0.23 c0.143,0.051,0.287,0.076,0.434,0.076c0.085,0,0.16-0.008,0.224-0.022c0.064-0.016,0.117-0.037,0.16-0.064s0.075-0.06,0.096-0.097 c0.021-0.037,0.032-0.078,0.032-0.121c0-0.06-0.018-0.112-0.051-0.158c-0.034-0.046-0.08-0.089-0.138-0.128 c-0.059-0.04-0.128-0.077-0.208-0.114c-0.08-0.036-0.166-0.073-0.259-0.111c-0.235-0.099-0.411-0.219-0.527-0.36 c-0.115-0.142-0.174-0.312-0.174-0.514c0-0.157,0.032-0.292,0.095-0.405c0.063-0.112,0.149-0.206,0.258-0.278 c0.109-0.073,0.235-0.127,0.378-0.161c0.144-0.035,0.295-0.052,0.455-0.052c0.157,0,0.297,0.009,0.418,0.028 c0.121,0.019,0.233,0.048,0.336,0.087v0.63c-0.051-0.035-0.105-0.066-0.165-0.093s-0.121-0.049-0.185-0.066 s-0.126-0.03-0.188-0.039c-0.062-0.008-0.122-0.013-0.178-0.013c-0.077,0-0.147,0.008-0.211,0.022 c-0.062,0.015-0.116,0.035-0.16,0.062c-0.043,0.026-0.077,0.059-0.101,0.096s-0.036,0.079-0.036,0.125 c0,0.051,0.014,0.096,0.04,0.136c0.027,0.04,0.064,0.078,0.114,0.113c0.049,0.036,0.108,0.071,0.179,0.105s0.149,0.07,0.238,0.106 c0.12,0.051,0.229,0.104,0.325,0.161c0.096,0.057,0.179,0.121,0.247,0.192c0.068,0.072,0.121,0.153,0.158,0.245 c0.036,0.093,0.055,0.199,0.055,0.321C12.136,13.654,12.104,13.795,12.04,13.91z"/><polygon style="fill:#005BA1;" points="10.256,7.999 10.256,7.094 10.256,6.694 10.256,6.587 8.253,6.587 8.253,5.636 8.949,5.636 8.949,3.738 7.051,3.738 7.051,5.636 7.747,5.636 7.747,6.587 5.743,6.587 5.743,6.617 5.743,7.094 5.743,8.009 5.047,8.009 5.047,9.904 6.946,9.904 6.946,8.009 6.249,8.009 6.249,7.094 9.75,7.094 9.75,7.999 9.054,7.999 9.054,9.893 10.953,9.893 10.953,7.999 "/></g></svg> 
