<?xml version="1.0" encoding="iso-8859-1"?><svg version="1.1" xmlns="http://www.w3.org/2000/svg" xmlns:xlink="http://www.w3.org/1999/xlink" x="0px" y="0px" viewBox="0 0 16 16" style="enable-background:new 0 0 16 16;" xml:space="preserve"><g id="bfx-files-parquet"><g><rect x="1.692" y="1.099" style="fill:#5EA0EF;" width="8.051" height="9.306"/><path style="fill:#0078D4;" d="M9.743,10.67H1.692c-0.147,0-0.266-0.119-0.266-0.266V1.099c0-0.146,0.118-0.266,0.264-0.266 c0.001,0,0.001,0,0.002,0h8.051c0.146,0,0.265,0.119,0.265,0.265c0,0,0,0.001,0,0.001v9.306C10.008,10.551,9.89,10.67,9.743,10.67 z M1.957,10.138h7.52V1.365h-7.52L1.957,10.138z"/><rect x="3.23" y="2.36" style="fill:#83B9F9;" width="8.051" height="9.306"/><path style="fill:#0078D4;" d="M11.282,11.932H3.23c-0.147,0-0.266-0.119-0.266-0.266V2.36c0-0.147,0.119-0.266,0.266-0.266h8.051 c0.147,0,0.266,0.119,0.266,0.266v9.303c0.001,0.147-0.117,0.267-0.264,0.268C11.284,11.932,11.283,11.932,11.282,11.932z M3.496,11.4h7.52V2.626h-7.52V11.4z"/><g><path style="fill:#FFFFFF;" d="M10.455,3.532H5.467C5.248,3.534,5.072,3.712,5.072,3.93V14.69c0,0.218,0.176,0.396,0.394,0.398 h8.646c0.218-0.003,0.393-0.18,0.393-0.398V7.565c0-0.218-0.175-0.396-0.393-0.398h-2.867c-0.217-0.002-0.392-0.177-0.394-0.394 V3.927C10.849,3.71,10.673,3.534,10.455,3.532z"/><linearGradient id="SVGID_1_" gradientUnits="userSpaceOnUse" x1="9.7891" y1="2.8325" x2="9.7891" y2="14.5545" gradientTransform="matrix(1 0 0 -1 0 18)"><stop offset="0" style="stop-color:#0078D4"/><stop offset="0.817" style="stop-color:#5EA0EF"/></linearGradient><path style="fill:url(#SVGID_1_);" d="M10.273,4.036v2.702c0,0.548,0.445,0.992,0.993,0.992h0h2.722v6.849H5.593V4.036H10.273 M10.464,3.445H5.402c-0.22,0-0.398,0.178-0.398,0.398v10.926c0,0.22,0.178,0.398,0.398,0.398h8.774 c0.22,0,0.398-0.178,0.398-0.398v-7.23c0-0.22-0.178-0.398-0.398-0.398h-2.91c-0.22,0-0.398-0.178-0.398-0.398V3.845 c0-0.22-0.178-0.398-0.398-0.398L10.464,3.445z"/><path style="fill:#0078D4;" d="M14.423,7.219l-3.697-3.686v3.004c-0.002,0.374,0.299,0.68,0.674,0.683H14.423z"/></g><g id="E-Icons_x2F_Dataset-Icons_x2F_i-20x20-Parquet_00000142160245146486769050000007473341049881016219_"><path id="Combined-Shape_00000006693462375848528250000014561366050276387767_" style="fill:#4FABF3;" d="M8.995,8.972 l1.233-0.725l0.338,0.181L9.314,9.224L8.995,8.972z M8.813,9.079l0.34,0.247L7.386,10.45l-0.327-0.339L8.813,9.079z M10.195,8.839l0.513-0.336l0.381,0.204L10.59,9.058L10.195,8.839z M10.06,8.928l0.365,0.247l-2.542,1.79l-0.36-0.373 L10.06,8.928z M10.537,10.096l1.261-1.011l0.462,0.247l-1.237,1.103L10.537,10.096z M10.397,10.208l0.468,0.368l-1.804,1.609 l-0.493-0.511L10.397,10.208z M9.108,10.323l2.14-1.531l0.373,0.199l-2.136,1.664L9.108,10.323z M8.935,10.446l0.379,0.343 l-0.913,0.712l-0.384-0.398L8.935,10.446z M12.456,9.437L12.93,9.69l-3.145,3.244l-0.548-0.567L12.456,9.437z M10.069,8.162 L6.917,9.964L6.652,9.69l3.139-1.676L10.069,8.162z"/></g></g></g></svg> 
