<?xml version="1.0" encoding="utf-8"?>
<!-- Generator: Adobe Illustrator 19.1.0, SVG Export Plug-In . SVG Version: 6.00 Build 0)  -->
<svg version="1.1" id="Layer_1" xmlns="http://www.w3.org/2000/svg" xmlns:xlink="http://www.w3.org/1999/xlink" x="0px" y="0px"
	 viewBox="0 0 247.6 64.8" style="enable-background:new 0 0 247.6 64.8;" xml:space="preserve">
<style type="text/css">
	.st0{fill:#00416A;}
	.st1{fill:#C6093B;}
</style>
<g>
	<g>
		<g>
			<path class="st0" d="M85.2,41.6c0,1.3-0.2,2.5-0.5,3.6c-0.4,1.1-0.9,2-1.5,2.9c-0.6,0.8-1.4,1.5-2.3,2.1c-0.9,0.6-1.9,1.1-3,1.5
				c-1.1,0.4-2.2,0.7-3.5,0.9c-1.2,0.2-2.6,0.3-4.1,0.3h-10c-0.6,0-1.2-0.2-1.6-0.6c-0.4-0.4-0.7-1-0.7-1.8V17.8
				c0-0.8,0.2-1.5,0.7-1.8c0.4-0.4,1-0.6,1.6-0.6h9.4c2.3,0,4.2,0.2,5.8,0.6c1.6,0.4,2.9,1,4,1.8c1.1,0.8,1.9,1.8,2.5,3
				c0.6,1.2,0.9,2.6,0.9,4.2c0,0.9-0.1,1.8-0.3,2.6c-0.2,0.8-0.6,1.5-1,2.2c-0.4,0.7-1,1.2-1.6,1.7c-0.6,0.5-1.4,0.9-2.2,1.2
				c1.1,0.2,2,0.5,2.9,1c0.9,0.5,1.7,1.1,2.3,1.9c0.7,0.8,1.2,1.7,1.6,2.7C85,39.2,85.2,40.3,85.2,41.6z M75.4,25.8
				c0-0.8-0.1-1.4-0.3-2c-0.2-0.6-0.6-1.1-1-1.5c-0.5-0.4-1-0.7-1.8-0.9c-0.7-0.2-1.6-0.3-2.8-0.3h-3.8v9.7h4.3c1.1,0,2-0.1,2.6-0.4
				c0.7-0.3,1.2-0.6,1.6-1.1c0.4-0.5,0.8-1,1-1.6C75.3,27.2,75.4,26.5,75.4,25.8z M77.3,41.9c0-0.9-0.1-1.6-0.4-2.3
				c-0.3-0.7-0.7-1.3-1.3-1.7c-0.6-0.5-1.3-0.8-2.1-1.1c-0.9-0.2-2-0.4-3.4-0.4h-4.5V47h5.5c1.1,0,2-0.1,2.7-0.3
				c0.7-0.2,1.4-0.6,1.9-1c0.5-0.4,0.9-1,1.2-1.6C77.2,43.4,77.3,42.7,77.3,41.9z"/>
			<path class="st0" d="M96.4,17.3c0,1.5-0.3,2.5-0.9,3c-0.6,0.6-1.7,0.8-3.3,0.8c-1.6,0-2.7-0.3-3.3-0.8c-0.6-0.5-0.9-1.5-0.9-2.9
				c0-1.5,0.3-2.5,0.9-3.1c0.6-0.6,1.7-0.9,3.3-0.9c1.6,0,2.7,0.3,3.3,0.8C96.1,14.9,96.4,15.9,96.4,17.3z M95.8,51.9
				c0,0.2-0.1,0.4-0.2,0.5c-0.1,0.1-0.3,0.3-0.6,0.4c-0.3,0.1-0.7,0.2-1.1,0.2c-0.5,0-1.1,0.1-1.8,0.1c-0.7,0-1.3,0-1.8-0.1
				c-0.5,0-0.8-0.1-1.1-0.2c-0.3-0.1-0.5-0.2-0.6-0.4c-0.1-0.1-0.2-0.3-0.2-0.5V26.1c0-0.2,0.1-0.4,0.2-0.5c0.1-0.1,0.3-0.3,0.6-0.4
				c0.3-0.1,0.7-0.2,1.1-0.2c0.5-0.1,1.1-0.1,1.8-0.1c0.7,0,1.3,0,1.8,0.1c0.5,0.1,0.8,0.1,1.1,0.2c0.3,0.1,0.5,0.2,0.6,0.4
				c0.1,0.1,0.2,0.3,0.2,0.5V51.9z"/>
			<path class="st0" d="M141.8,51.9c0,0.2-0.1,0.4-0.2,0.5c-0.1,0.1-0.3,0.3-0.6,0.4c-0.3,0.1-0.6,0.2-1.1,0.2
				c-0.5,0-1.1,0.1-1.8,0.1c-0.7,0-1.3,0-1.8-0.1c-0.5,0-0.8-0.1-1.1-0.2c-0.3-0.1-0.5-0.2-0.6-0.4c-0.1-0.1-0.2-0.3-0.2-0.5V36.5
				c0-0.9-0.1-1.7-0.2-2.4c-0.2-0.7-0.4-1.3-0.8-1.8c-0.3-0.5-0.8-0.9-1.3-1.2c-0.5-0.3-1.1-0.4-1.8-0.4c-0.9,0-1.7,0.3-2.6,1
				c-0.9,0.7-1.9,1.7-2.9,3v17.2c0,0.2-0.1,0.4-0.2,0.5c-0.1,0.1-0.3,0.3-0.6,0.4c-0.3,0.1-0.7,0.2-1.1,0.2c-0.5,0-1,0.1-1.7,0.1
				c-0.7,0-1.3,0-1.8-0.1c-0.5,0-0.8-0.1-1.1-0.2c-0.3-0.1-0.5-0.2-0.6-0.4c-0.1-0.1-0.2-0.3-0.2-0.5V36.5c0-0.9-0.1-1.7-0.2-2.4
				c-0.2-0.7-0.4-1.3-0.7-1.8s-0.8-0.9-1.3-1.2c-0.5-0.3-1.1-0.4-1.8-0.4c-0.9,0-1.8,0.3-2.7,1c-0.9,0.7-1.8,1.7-2.9,3v17.2
				c0,0.2-0.1,0.4-0.2,0.5c-0.1,0.1-0.3,0.3-0.6,0.4c-0.3,0.1-0.7,0.2-1.1,0.2c-0.5,0-1.1,0.1-1.8,0.1c-0.7,0-1.3,0-1.8-0.1
				c-0.5,0-0.8-0.1-1.1-0.2c-0.3-0.1-0.5-0.2-0.6-0.4c-0.1-0.1-0.2-0.3-0.2-0.5V26c0-0.2,0-0.4,0.1-0.5c0.1-0.1,0.3-0.3,0.5-0.4
				c0.3-0.1,0.6-0.2,1-0.2c0.4,0,0.9-0.1,1.5-0.1c0.6,0,1.1,0,1.5,0.1c0.4,0,0.7,0.1,0.9,0.2c0.2,0.1,0.4,0.2,0.5,0.4
				c0.1,0.1,0.1,0.3,0.1,0.5v3c1.4-1.5,2.9-2.7,4.3-3.5c1.4-0.8,2.9-1.2,4.4-1.2c1.1,0,2,0.1,2.9,0.3c0.8,0.2,1.6,0.5,2.3,1
				c0.7,0.4,1.2,0.9,1.7,1.5c0.5,0.6,0.9,1.2,1.2,1.9c0.8-0.8,1.5-1.5,2.3-2.1c0.7-0.6,1.5-1.1,2.2-1.5c0.7-0.4,1.4-0.7,2.2-0.8
				c0.7-0.2,1.5-0.3,2.2-0.3c1.7,0,3.2,0.3,4.3,0.9c1.2,0.6,2.1,1.4,2.9,2.4c0.7,1,1.2,2.2,1.5,3.5c0.3,1.3,0.5,2.7,0.5,4.2V51.9z"
				/>
			<path class="st0" d="M153.9,51.9c0,0.2-0.1,0.4-0.2,0.5c-0.1,0.1-0.3,0.3-0.6,0.4c-0.3,0.1-0.7,0.2-1.1,0.2
				c-0.5,0-1.1,0.1-1.8,0.1c-0.7,0-1.3,0-1.8-0.1c-0.5,0-0.8-0.1-1.1-0.2c-0.3-0.1-0.5-0.2-0.6-0.4c-0.1-0.1-0.2-0.3-0.2-0.5V13.8
				c0-0.2,0.1-0.4,0.2-0.5c0.1-0.2,0.3-0.3,0.6-0.4c0.3-0.1,0.7-0.2,1.1-0.2c0.5-0.1,1.1-0.1,1.8-0.1c0.7,0,1.3,0,1.8,0.1
				c0.5,0.1,0.8,0.1,1.1,0.2c0.3,0.1,0.5,0.2,0.6,0.4c0.1,0.2,0.2,0.3,0.2,0.5V51.9z"/>
		</g>
	</g>
	<g>
		<path class="st0" d="M180,16.7c0,0.3,0,0.5-0.1,0.7c0,0.2-0.1,0.4-0.2,0.5c-0.1,0.1-0.2,0.2-0.3,0.3c-0.1,0.1-0.2,0.1-0.4,0.1
			h-14.7v14.4h13.9c0.1,0,0.3,0,0.4,0.1s0.2,0.1,0.3,0.2s0.2,0.3,0.2,0.5c0,0.2,0.1,0.4,0.1,0.7c0,0.3,0,0.5-0.1,0.7
			c0,0.2-0.1,0.4-0.2,0.5s-0.2,0.2-0.3,0.3s-0.2,0.1-0.4,0.1h-13.9v16.7c0,0.1,0,0.2-0.1,0.3s-0.2,0.2-0.3,0.2s-0.3,0.1-0.5,0.1
			c-0.2,0-0.5,0.1-0.9,0.1c-0.3,0-0.6,0-0.9-0.1c-0.2,0-0.4-0.1-0.6-0.1s-0.2-0.1-0.3-0.2s-0.1-0.2-0.1-0.3V16.9
			c0-0.7,0.2-1.2,0.6-1.5c0.4-0.3,0.7-0.4,1.1-0.4H179c0.1,0,0.3,0,0.4,0.1c0.1,0.1,0.2,0.2,0.3,0.3c0.1,0.1,0.2,0.3,0.2,0.5
			C179.9,16.2,180,16.4,180,16.7z"/>
		<path class="st0" d="M189.2,52.4c0,0.1,0,0.2-0.1,0.3s-0.2,0.2-0.3,0.2c-0.1,0.1-0.3,0.1-0.5,0.1c-0.2,0-0.5,0.1-0.9,0.1
			c-0.3,0-0.6,0-0.8-0.1c-0.2,0-0.4-0.1-0.5-0.1c-0.1-0.1-0.2-0.1-0.3-0.2s-0.1-0.2-0.1-0.3V12.9c0-0.1,0-0.2,0.1-0.3
			c0-0.1,0.1-0.2,0.3-0.2c0.1-0.1,0.3-0.1,0.5-0.1c0.2,0,0.5,0,0.8,0c0.4,0,0.6,0,0.9,0c0.2,0,0.4,0.1,0.5,0.1
			c0.1,0.1,0.2,0.2,0.3,0.2c0.1,0.1,0.1,0.2,0.1,0.3V52.4z"/>
		<path class="st0" d="M217.5,37.8c0,0.7-0.2,1.2-0.6,1.5c-0.4,0.3-0.7,0.4-1.1,0.4h-18.1c0,1.6,0.2,3.1,0.5,4.5
			c0.3,1.3,0.9,2.5,1.6,3.4c0.7,0.9,1.7,1.7,2.9,2.2c1.2,0.5,2.7,0.8,4.4,0.8c1.2,0,2.3-0.1,3.3-0.3c1-0.2,1.8-0.5,2.5-0.7
			c0.7-0.3,1.3-0.5,1.8-0.7c0.5-0.2,0.8-0.3,1-0.3c0.1,0,0.2,0,0.3,0.1c0.1,0.1,0.2,0.2,0.2,0.3c0.1,0.1,0.1,0.3,0.1,0.5
			s0,0.4,0,0.7c0,0.1,0,0.3,0,0.4c0,0.1,0,0.2-0.1,0.4c0,0.1-0.1,0.2-0.1,0.3c-0.1,0.1-0.1,0.2-0.2,0.3c-0.1,0.1-0.4,0.3-0.9,0.5
			c-0.5,0.2-1.2,0.5-2,0.7s-1.8,0.5-2.9,0.7s-2.3,0.3-3.5,0.3c-2.1,0-3.9-0.3-5.5-0.9c-1.6-0.6-2.9-1.5-4-2.7
			c-1.1-1.2-1.9-2.7-2.4-4.5c-0.6-1.8-0.8-3.8-0.8-6.2c0-2.2,0.3-4.3,0.9-6c0.6-1.8,1.4-3.3,2.5-4.5c1.1-1.2,2.4-2.2,3.9-2.8
			c1.5-0.7,3.2-1,5.1-1c2,0,3.7,0.3,5.1,1c1.4,0.7,2.6,1.6,3.5,2.7c0.9,1.1,1.6,2.4,2,3.9c0.4,1.5,0.6,3.1,0.6,4.7V37.8z
			 M213.9,36.8c0.1-2.8-0.6-5-1.9-6.6c-1.3-1.6-3.3-2.4-5.9-2.4c-1.3,0-2.5,0.2-3.5,0.7c-1,0.5-1.9,1.2-2.6,2
			c-0.7,0.8-1.2,1.8-1.6,2.9c-0.4,1.1-0.6,2.2-0.6,3.4H213.9z"/>
		<path class="st0" d="M242.4,51.9c0.2,0.2,0.2,0.4,0.2,0.6c0,0.2-0.1,0.3-0.2,0.4c-0.1,0.1-0.3,0.2-0.6,0.2c-0.3,0-0.6,0.1-1.1,0.1
			c-0.4,0-0.7,0-1,0c-0.2,0-0.4-0.1-0.6-0.1c-0.1-0.1-0.3-0.1-0.4-0.2c-0.1-0.1-0.2-0.2-0.2-0.3l-7.2-11.1l-7.1,11.1
			c-0.1,0.1-0.2,0.2-0.2,0.3c-0.1,0.1-0.2,0.2-0.4,0.2s-0.4,0.1-0.6,0.1c-0.2,0-0.6,0-1,0c-0.4,0-0.8,0-1-0.1s-0.5-0.1-0.6-0.2
			c-0.1-0.1-0.2-0.2-0.2-0.4s0.1-0.4,0.3-0.6l8.7-12.9L221,26.4c-0.2-0.2-0.2-0.4-0.2-0.6c0-0.2,0.1-0.3,0.2-0.4s0.4-0.2,0.7-0.2
			c0.3,0,0.7-0.1,1.1-0.1c0.4,0,0.7,0,1,0c0.2,0,0.4,0.1,0.6,0.1c0.1,0.1,0.2,0.1,0.3,0.2c0.1,0.1,0.2,0.2,0.2,0.3l6.7,10.4
			l6.9-10.4c0.1-0.1,0.2-0.2,0.2-0.3s0.2-0.2,0.3-0.2c0.1-0.1,0.3-0.1,0.5-0.1c0.2,0,0.5,0,0.9,0c0.4,0,0.8,0,1,0.1
			c0.3,0,0.5,0.1,0.6,0.2c0.1,0.1,0.2,0.2,0.2,0.4c0,0.2-0.1,0.4-0.3,0.6l-8.4,12.5L242.4,51.9z"/>
	</g>
	<g>
		<path class="st1" d="M40.7,24.6L23.6,41.7c-3.8,3.8-9.9,3.8-13.7,0l-0.1-0.1l17.1-17.1C30.7,20.7,36.8,20.7,40.7,24.6L40.7,24.6z"
			/>
		<path class="st0" d="M20.8,48.9L19,47c-0.3-0.3-0.9-0.1-0.9,0.4l0,10c0,0.6,0.5,1,1,1h10c0.5,0,0.7-0.6,0.4-0.9l-1.7-1.7
			l16.9-16.9c2.8-2.8,2.8-7.5,0-10.3l-1.8-1.8L20.8,48.9z"/>
		<path class="st0" d="M31.4,7.6l-10,0c-0.5,0-0.7,0.6-0.4,0.9l1.8,1.8l-17,17c-2.8,2.8-2.8,7.5,0,10.3l1.8,1.8l22.2-22.2l1.8,1.8
			c0.3,0.3,0.9,0.1,0.9-0.4l0-10C32.4,8.1,32,7.6,31.4,7.6z"/>
	</g>
</g>
</svg>
