<?xml version="1.0" encoding="iso-8859-1"?><svg version="1.1" xmlns="http://www.w3.org/2000/svg" xmlns:xlink="http://www.w3.org/1999/xlink" x="0px" y="0px" viewBox="0 0 13.194 14.349" style="enable-background:new 0 0 13.194 14.349;" xml:space="preserve"><g id="business-entities"><g><path style="fill:#FFFFFF;" d="M11.949,1.245v9.822H3.271V1.245H11.949 M12.196,0H3.025C2.473,0,2.026,0.447,2.026,0.998v10.315 c0,0.551,0.447,0.998,0.998,0.998h9.171c0.551,0,0.998-0.447,0.998-0.998V0.998C13.194,0.447,12.747,0,12.196,0L12.196,0z"/><path style="fill:#FFFFFF;" d="M9.923,13.104H2.242H1.245v-0.998V3.283V2.038H0.998C0.447,2.038,0,2.485,0,3.036v10.315 c0,0.551,0.447,0.998,0.998,0.998h9.171c0.551,0,0.998-0.447,0.998-0.998v-0.247H9.923z"/></g><rect x="2.753" y="1.072" style="fill:#FFFFFF;" width="9.536" height="2.136"/></g></svg> 
