<?xml version="1.0" encoding="iso-8859-1"?><svg version="1.1" xmlns="http://www.w3.org/2000/svg" xmlns:xlink="http://www.w3.org/1999/xlink" x="0px" y="0px" viewBox="0 0 16 16" style="enable-background:new 0 0 16 16;" xml:space="preserve"><g id="capture-snapshot"><g><g><polygon style="fill:#555555;" points="2.13,2.122 4.739,2.122 4.739,0.817 2.13,0.817 0.825,0.817 0.825,2.122 0.825,4.731 2.13,4.731 "/><polygon style="fill:#555555;" points="15.175,2.122 15.175,0.817 13.87,0.817 11.261,0.817 11.261,2.122 13.87,2.122 13.87,4.731 15.175,4.731 "/><polygon style="fill:#555555;" points="0.825,13.862 0.825,15.167 2.13,15.167 4.739,15.167 4.739,13.862 2.13,13.862 2.13,11.253 0.825,11.253 "/><polygon style="fill:#555555;" points="15.175,13.862 15.175,11.253 13.87,11.253 13.87,13.862 11.261,13.862 11.261,15.167 13.87,15.167 15.175,15.167 "/></g></g><g><path style="fill:#555555;" d="M8.449,3.973V2.598H7.551v1.375C5.679,4.181,4.189,5.671,3.981,7.543H2.606v0.899h1.375 c0.208,1.872,1.698,3.361,3.569,3.569v1.375h0.899v-1.375c1.872-0.208,3.361-1.698,3.569-3.569h1.375V7.543h-1.375 C11.811,5.671,10.321,4.181,8.449,3.973z M8,11.138c-1.735,0-3.146-1.411-3.146-3.146c0-1.735,1.411-3.146,3.146-3.146 s3.146,1.411,3.146,3.146C11.146,9.727,9.735,11.138,8,11.138z"/><circle style="fill:#555555;" cx="8" cy="7.992" r="1.798"/></g></g></svg> 
