<?xml version="1.0" encoding="iso-8859-1"?><svg version="1.1" xmlns="http://www.w3.org/2000/svg" xmlns:xlink="http://www.w3.org/1999/xlink" x="0px" y="0px" viewBox="0 0 16 16" style="enable-background:new 0 0 16 16;" xml:space="preserve"><g id="composite-key"><g><g><path style="fill:#555555;" d="M6.567,6.567H2.983c-1.186,0-2.15,0.965-2.15,2.15v4.3c0,1.186,0.965,2.15,2.15,2.15h3.584 c1.186,0,2.15-0.965,2.15-2.15v-1.433h2.15v1.433H12.3v-1.433h0.717v1.433h1.433v-1.433h0.717V10.15H8.717V8.717 C8.717,7.531,7.752,6.567,6.567,6.567z M7.283,13.017c0,0.396-0.322,0.717-0.717,0.717H2.983c-0.395,0-0.717-0.321-0.717-0.717 v-4.3C2.266,8.322,2.588,8,2.983,8h3.584c0.395,0,0.717,0.322,0.717,0.717V13.017z"/><rect x="3.7" y="10.15" style="fill:#555555;" width="1.433" height="1.433"/><polygon style="fill:#555555;" points="11.584,0.833 11.584,2.983 9.433,2.983 9.433,4.416 11.584,4.416 11.584,6.567 13.017,6.567 13.017,4.416 15.167,4.416 15.167,2.983 13.017,2.983 13.017,0.833 "/></g></g></g></svg> 
