<?xml version="1.0" encoding="iso-8859-1"?><svg version="1.1" xmlns="http://www.w3.org/2000/svg" xmlns:xlink="http://www.w3.org/1999/xlink" x="0px" y="0px" viewBox="0 0 16 16" style="enable-background:new 0 0 16 16;" xml:space="preserve"><g id="customers"><g><path style="fill:#FFFFFF;" d="M15.175,13.381c0-2.472-2.012-4.484-4.484-4.484H5.309c-2.472,0-4.484,2.012-4.484,4.484v1.794 h14.35V13.381z M2.619,13.381c0-1.483,1.207-2.691,2.691-2.691h5.381c1.484,0,2.691,1.207,2.691,2.691H2.619z"/><path style="fill:#FFFFFF;" d="M8.001,0.825c-1.979,0-3.587,1.609-3.587,3.587S6.022,8,8.001,8c1.978,0,3.587-1.609,3.587-3.587 S9.979,0.825,8.001,0.825z M8.001,6.206c-0.989,0-1.794-0.804-1.794-1.794c0-0.989,0.805-1.794,1.794-1.794 c0.989,0,1.794,0.805,1.794,1.794C9.795,5.402,8.99,6.206,8.001,6.206z"/></g></g></svg> 
