<?xml version="1.0" encoding="iso-8859-1"?><svg version="1.1" xmlns="http://www.w3.org/2000/svg" xmlns:xlink="http://www.w3.org/1999/xlink" x="0px" y="0px" viewBox="0 0 16 16" style="enable-background:new 0 0 16 16;" xml:space="preserve"><g id="delete"><g><path style="fill:#555555;" d="M11.74,13.305c0,0.344-0.279,0.623-0.623,0.623H4.883c-0.344,0-0.623-0.28-0.623-0.623V4.577H3.013 v8.727c0,1.031,0.839,1.87,1.87,1.87h6.234c1.031,0,1.87-0.839,1.87-1.87V4.577H11.74V13.305z"/><path style="fill:#555555;" d="M11.117,2.084c0-0.688-0.559-1.247-1.247-1.247H6.13c-0.687,0-1.247,0.559-1.247,1.247v0.623H1.766 v1.247h12.467V2.707h-3.117V2.084z M6.13,2.084h3.74v0.623H6.13V2.084z"/><rect x="7.377" y="5.201" style="fill:#555555;" width="1.247" height="7.48"/><rect x="5.507" y="5.201" style="fill:#555555;" width="1.247" height="7.48"/><rect x="9.247" y="5.201" style="fill:#555555;" width="1.247" height="7.48"/></g></g></svg> 
