<?xml version="1.0" encoding="iso-8859-1"?><svg version="1.1" xmlns="http://www.w3.org/2000/svg" xmlns:xlink="http://www.w3.org/1999/xlink" x="0px" y="0px" viewBox="0 0 16 16" style="enable-background:new 0 0 16 16;" xml:space="preserve"><g id="dfl-flatten"><path style="fill:#42E8CA;" d="M14.425,15.175H1.575c-0.414,0-0.75-0.336-0.75-0.75V1.575c0-0.414,0.336-0.75,0.75-0.75h12.85 c0.414,0,0.75,0.336,0.75,0.75v12.85C15.175,14.839,14.839,15.175,14.425,15.175z"/><path style="fill:#258277;" d="M14.425,15.175H1.575c-0.414,0-0.75-0.336-0.75-0.75V10.08c0-0.414,0.336-0.75,0.75-0.75h12.85 c0.414,0,0.75,0.336,0.75,0.75v4.345C15.175,14.839,14.839,15.175,14.425,15.175z"/><g><g><polygon style="fill:#258277;" points="8,8.074 10.152,5.922 5.848,5.922 "/><rect x="7.385" y="0.825" style="fill:#258277;" width="1.23" height="6.173"/></g></g></g></svg> 
