<?xml version="1.0" encoding="iso-8859-1"?><svg version="1.1" xmlns="http://www.w3.org/2000/svg" xmlns:xlink="http://www.w3.org/1999/xlink" x="0px" y="0px" viewBox="0 0 16 16" style="enable-background:new 0 0 16 16;" xml:space="preserve"><g id="dfl-lookup"><g><path style="fill:#6841AE;" d="M15.174,1.364v13.271c0,0.259-0.21,0.469-0.469,0.469H1.295c-0.259,0-0.469-0.21-0.469-0.469V1.364 c0-0.259,0.21-0.469,0.469-0.469h13.41C14.964,0.895,15.174,1.105,15.174,1.364z"/><path style="fill:#B796F9;" d="M5.318,3.433v9.437c0,0.259-0.21,0.469-0.469,0.469H2.914c-0.259,0-0.469-0.21-0.469-0.469V3.433 c0-0.259,0.21-0.469,0.469-0.469h1.935C5.108,2.964,5.318,3.174,5.318,3.433z"/><path style="fill:#B796F9;" d="M9.413,3.433v9.437c0,0.259-0.21,0.469-0.469,0.469H7.009c-0.259,0-0.469-0.21-0.469-0.469V3.433 c0-0.259,0.21-0.469,0.469-0.469h1.935C9.203,2.964,9.413,3.174,9.413,3.433z"/><path style="fill:#B796F9;" d="M13.508,3.433v9.437c0,0.259-0.21,0.469-0.469,0.469h-1.935c-0.259,0-0.469-0.21-0.469-0.469V3.433 c0-0.259,0.21-0.469,0.469-0.469h1.935C13.298,2.964,13.508,3.174,13.508,3.433z"/><path style="fill:#FFFFFF;" d="M7.85,2.686c-1.928,0-3.496,1.568-3.496,3.496c0,0.907,0.356,1.727,0.924,2.349L2.93,10.879 c-0.244,0.244-0.244,0.64,0,0.884s0.64,0.244,0.884,0l2.399-2.399c0.024-0.024,0.035-0.055,0.055-0.082 c0.477,0.245,1.01,0.396,1.583,0.396c1.928,0,3.496-1.568,3.496-3.496C11.346,4.254,9.778,2.686,7.85,2.686z M7.85,8.923 c-1.512,0-2.742-1.23-2.742-2.741c0-1.512,1.23-2.742,2.742-2.742s2.742,1.23,2.742,2.742C10.592,7.693,9.362,8.923,7.85,8.923z" /></g></g></svg> 
