<?xml version="1.0" encoding="iso-8859-1"?><svg version="1.1" xmlns="http://www.w3.org/2000/svg" xmlns:xlink="http://www.w3.org/1999/xlink" x="0px" y="0px" viewBox="0 0 64 32" style="enable-background:new 0 0 64 32;" xml:space="preserve"><g id="dfl-task-source"><g><polygon style="fill:#FFFFFF;" points="0.34,31.75 5.252,16 0.34,0.25 58.807,0.25 63.738,16 58.807,31.75 "/><path style="fill:#BDBDBD;" d="M58.623,0.5L63.476,16l-4.853,15.5H15.009H0.68l4.788-15.351L5.514,16l-0.046-0.149L0.68,0.5 H58.623 M58.991,0H0l4.991,16L0,32h15.009h43.981L64,16L58.991,0L58.991,0z"/></g><g><rect x="0.25" y="0.25" style="fill:#F4F4F4;" width="14.509" height="31.5"/><g><path style="fill:#BDBDBD;" d="M14.509,0.5v31H0.5V15.792V0.5H14.509 M15.009,0H0v15.792V32h15.009V0L15.009,0z"/></g></g><g><polygon style="fill:#0078D4;" points="0,32 0,15.792 0,0 1.509,0 1.509,32 "/></g><g><polygon style="fill:#0078D4;" points="2.132,32 2.132,15.792 2.132,0 2.811,0 2.811,32 "/></g></g></svg> 
