<?xml version="1.0" encoding="iso-8859-1"?><svg version="1.1" xmlns="http://www.w3.org/2000/svg" xmlns:xlink="http://www.w3.org/1999/xlink" x="0px" y="0px" viewBox="0 0 64 32" style="enable-background:new 0 0 64 32;" xml:space="preserve"><g id="dfl-task-transform"><g><polygon style="fill:#FFFFFF;" points="0.34,31.75 5.252,16 0.34,0.25 58.807,0.25 63.738,16 58.807,31.75 "/><path style="fill:#BDBDBD;" d="M58.623,0.5L63.476,16l-4.853,15.5H15.009H0.68l4.788-15.351L5.514,16l-0.046-0.149L0.68,0.5 H58.623 M58.991,0H0l4.991,16L0,32h15.009h43.981L64,16L58.991,0L58.991,0z"/></g><g><polygon style="fill:#F4F4F4;" points="0.34,31.75 5.252,16 0.34,0.25 14.759,0.25 14.759,31.75 "/><g><path style="fill:#BDBDBD;" d="M14.509,0.5v31H0.68l4.788-15.351L5.514,16l-0.046-0.149L0.68,0.5H14.509 M15.009,0H0l4.991,16 L0,32h15.009V0L15.009,0z"/></g></g></g></svg> 
