<?xml version="1.0" encoding="iso-8859-1"?><svg version="1.1" xmlns="http://www.w3.org/2000/svg" xmlns:xlink="http://www.w3.org/1999/xlink" x="0px" y="0px" viewBox="0 0 16 16" style="enable-background:new 0 0 16 16;" xml:space="preserve"><g id="dfl-sort"><g><g><g><polygon style="fill:#FCA72C;" points="4.36,12.871 7.888,9.344 0.833,9.344 "/><path style="fill:#FCA72C;" d="M5.181,3.129H3.532c-0.191,0-0.347,0.155-0.347,0.347v7.286c0,0.191,0.155,0.347,0.347,0.347 h1.649c0.191,0,0.347-0.155,0.347-0.347V3.475C5.528,3.284,5.373,3.129,5.181,3.129z"/></g></g><g><g><polygon style="fill:#D65D00;" points="11.64,3.129 15.167,6.656 8.112,6.656 "/><path style="fill:#D65D00;" d="M12.46,12.871h-1.649c-0.191,0-0.347-0.155-0.347-0.347V5.239c0-0.191,0.155-0.347,0.347-0.347 h1.649c0.191,0,0.347,0.155,0.347,0.347v7.286C12.807,12.716,12.652,12.871,12.46,12.871z"/></g></g></g></g></svg> 
