<?xml version="1.0" encoding="iso-8859-1"?><svg version="1.1" xmlns="http://www.w3.org/2000/svg" xmlns:xlink="http://www.w3.org/1999/xlink" x="0px" y="0px" viewBox="0 0 16 16" style="enable-background:new 0 0 16 16;" xml:space="preserve"><g id="dfl-select"><g><path style="fill:#B4EC36;" d="M14.425,12.766H8.75c-0.414,0-0.75-0.336-0.75-0.75V4.224c0-0.414,0.336-0.75,0.75-0.75h5.676 c0.414,0,0.75,0.336,0.75,0.75v7.793C15.175,12.431,14.839,12.766,14.425,12.766z"/><path style="fill:#548620;" d="M7.25,12.766H1.575c-0.414,0-0.75-0.336-0.75-0.75V4.224c0-0.414,0.336-0.75,0.75-0.75H7.25 C7.664,3.474,8,3.81,8,4.224v7.793C8,12.431,7.664,12.766,7.25,12.766z"/><g><g><polygon style="fill:#548620;" points="12.885,7.959 10.532,5.607 10.532,10.312 "/><rect x="4.626" y="7.22" style="fill:#548620;" width="7.418" height="1.478"/></g></g></g></g></svg> 
