<?xml version="1.0" encoding="iso-8859-1"?><svg version="1.1" xmlns="http://www.w3.org/2000/svg" xmlns:xlink="http://www.w3.org/1999/xlink" x="0px" y="0px" viewBox="0 0 16 16" style="enable-background:new 0 0 16 16;" xml:space="preserve"><g id="dfl-window"><path style="fill:#B4EC36;" d="M14.458,11.685H1.542c-0.396,0-0.717-0.321-0.717-0.717V5.033c0-0.396,0.321-0.717,0.717-0.717 h12.915c0.396,0,0.717,0.321,0.717,0.717v5.935C15.175,11.363,14.854,11.685,14.458,11.685z"/><path style="fill:#6A9D34;" d="M10.678,1.838v12.325H5.322V1.838H10.678 M10.842,0.838H5.158c-0.462,0-0.836,0.374-0.836,0.836 v12.652c0,0.462,0.374,0.836,0.836,0.836h5.684c0.462,0,0.836-0.374,0.836-0.836V1.674C11.678,1.212,11.304,0.838,10.842,0.838 L10.842,0.838z"/></g></svg> 
