<?xml version="1.0" encoding="iso-8859-1"?><svg version="1.1" xmlns="http://www.w3.org/2000/svg" xmlns:xlink="http://www.w3.org/1999/xlink" x="0px" y="0px" viewBox="0 0 14.25 14.252" style="enable-background:new 0 0 14.25 14.252;" xml:space="preserve"><g id="dfl-line"><g id="Layer_1_00000059993709664313906680000004153750506988845710_"></g><polygon style="fill:none;" points="4.366,13.19 7.26,11.519 7.26,8.288 7.259,8.286 4.366,9.957 "/><polygon style="fill:none;" points="3.998,5.977 1.104,7.648 3.998,9.319 6.892,7.648 "/><polygon style="fill:none;" points="0.736,11.519 3.63,13.19 3.63,9.957 0.736,8.286 "/><path style="fill:none;" d="M7.996,8.036c0.389,0.41,1.354,0.828,2.656,0.828c1.712,0,2.847-0.722,2.847-1.2 c0-0.042-0.01-0.087-0.031-0.137l-0.022-0.043l0-0.001L13.422,7.43l-2.789-5.711L7.907,7.384l0.09,0.052V8.036z"/><path style="fill:#555555;" d="M7.26,8.288v3.231L4.366,13.19V9.957l2.893-1.671C7.137,8.09,7.055,7.883,7.055,7.665 c0-0.144,0.031-0.283,0.086-0.418l0.115-0.238l-3.257-1.88L0,7.436v4.508l3.63,2.096l0.368,0.212l0.368-0.213l3.63-2.096V8.969 C7.669,8.774,7.42,8.543,7.26,8.288z M3.63,13.19l-2.894-1.671V8.286L3.63,9.957V13.19z M3.998,9.319L1.104,7.648l2.894-1.671 l2.894,1.671L3.998,9.319z"/><path style="fill:#FFFFFF;" d="M7.805,7.665c0,0.114,0.069,0.243,0.191,0.372v-0.6l-0.09-0.052l-0.09,0.187 C7.815,7.578,7.805,7.624,7.805,7.665z"/><path style="fill:#555555;" d="M14.163,7.243l-0.039-0.082c-0.014-0.027-0.025-0.055-0.04-0.083L10.627,0L7.255,7.008l0.651,0.376 l2.725-5.665l2.789,5.711l0.025,0.054l0,0.001l0.022,0.043C13.49,7.578,13.5,7.623,13.5,7.665c0,0.478-1.136,1.2-2.847,1.2 c-1.302,0-2.267-0.418-2.656-0.828v0.933c0.658,0.393,1.599,0.645,2.656,0.645c1.987,0,3.597-0.873,3.597-1.95 C14.25,7.52,14.219,7.379,14.163,7.243z"/><polygon style="fill:#555555;" points="7.26,8.285 7.259,8.286 7.26,8.288 "/><path style="fill:#FFFFFF;" d="M7.805,7.665c0-0.041,0.01-0.086,0.011-0.093l0.09-0.187L7.255,7.008L7.141,7.246 C7.086,7.382,7.055,7.521,7.055,7.665c0,0.219,0.081,0.425,0.204,0.621L7.26,8.285v0.003c0.16,0.255,0.409,0.486,0.736,0.681V8.036 C7.874,7.907,7.805,7.779,7.805,7.665z"/><g id="Layer_1_00000183242553472922851370000005850991842143824561_"></g><line style="fill:none;" x1="6.973" y1="2.159" x2="5.075" y2="3.956"/><rect x="3.43" y="3.394" style="fill:none;" width="0.469" height="0"/><rect x="3.665" y="0.735" transform="matrix(0.6875 -0.7261 0.7261 0.6875 0.4407 2.9643)" style="fill:none;" width="0" height="0.47"/><polygon style="fill:none;" points="2.62,2.203 2.62,2.203 3.286,2.833 4.298,3.791 5.4,2.747 5.976,2.203 5.976,2.202 5.976,2.202 4.525,0.828 4.525,0.828 4.525,0.828 4.525,0.829 4.298,0.614 2.62,2.202 "/><rect x="4.585" y="1.842" style="fill:#555555;" width="0" height="0"/><rect x="4.585" y="0.808" transform="matrix(0.7071 -0.7071 0.7071 0.7071 0.7713 3.4791)" style="fill:#555555;" width="0.001" height="0"/><path style="fill:#555555;" d="M6.492,1.658L5.041,0.284L4.844,0.097L4.299,0.613V0.612l0,0v0L4.298,0.614l0.227,0.215V0.828l0,0v0 L5.58,1.827H4.491c-1.394,0-2.527,1.134-2.527,2.527v0.164h0.75V4.354c0-0.98,0.797-1.777,1.777-1.777H5.58L5.4,2.747L4.298,3.791 l0.545,0.516L5.04,4.12l1.451-1.373l0.576-0.545L6.492,1.658z"/></g></svg> 
