<?xml version="1.0" encoding="iso-8859-1"?><svg version="1.1" xmlns="http://www.w3.org/2000/svg" xmlns:xlink="http://www.w3.org/1999/xlink" x="0px" y="0px" viewBox="0 0 16 16" style="enable-background:new 0 0 16 16;" xml:space="preserve"><g id="dfl-aggregate"><g><path style="fill:#4B781D;" d="M6.874,10.833H6.547c-0.155,0-0.274,0.105-0.337,0.236l0,0c-0.29,0.601-0.637,0.764-1.209,0.772 H2.75l2.59-3.724c0.029-0.041,0.035-0.093,0.046-0.139c0.01-0.028,0.01-0.06,0.013-0.089C5.4,7.838,5.404,7.802,5.386,7.756 c-0.01-0.038-0.02-0.07-0.043-0.105L3.105,4.139h1.187c0.925,0,1.237,0.096,1.437,0.417c0.075,0.109,0.169,0.257,0.23,0.424 c0.07,0.136,0.193,0.24,0.355,0.226l0.302-0.026C6.83,5.16,6.988,4.972,6.969,4.758L6.826,3.116 C6.807,2.902,6.618,2.744,6.404,2.763L6.377,2.765H6.132c-0.004,0-0.006-0.004-0.009-0.004H1.558 c-0.004,0-0.006,0.004-0.009,0.004H1.504c0.003,0.005-0.003-0.005,0,0C1.315,2.791,1.169,2.954,1.169,3.15v0.227 c0,0.079,0.065,0.228,0.105,0.29c0.008,0.017-0.023-0.053-0.013-0.037l0.002,0.003C1.261,3.633,1.259,3.636,1.256,3.636 l2.694,4.236l-3.034,4.363c-0.011,0.016,0.008-0.016,0,0c-0.037,0.059-0.09,0.168-0.09,0.243v0.327c0,0.194,0.17,0.36,0.357,0.389 h-0.02h0.052h5.333h0.327h0.092l0,0c0.16-0.048,0.296-0.213,0.296-0.389v-0.327v-1.257C7.263,11.007,7.089,10.833,6.874,10.833z" /><path style="fill:#B4EC36;" d="M12.772,11.058H8.627c-0.139,0-0.252-0.113-0.252-0.252V6.662c0-0.139,0.113-0.252,0.252-0.252 h4.145c0.139,0,0.252,0.113,0.252,0.252v4.145C13.023,10.946,12.911,11.058,12.772,11.058z"/><polygon style="fill:#4B781D;" points="12.151,8.002 9.128,13.239 15.175,13.239 "/></g></g></svg> 
