<?xml version="1.0" encoding="iso-8859-1"?><svg version="1.1" xmlns="http://www.w3.org/2000/svg" xmlns:xlink="http://www.w3.org/1999/xlink" x="0px" y="0px" viewBox="0 0 14.374 14.353" style="enable-background:new 0 0 14.374 14.353;" xml:space="preserve"><g id="diagram-view"><polygon style="fill:#555555;" points="12.964,6.657 12.502,6.657 10.852,6.657 10.345,6.657 8.98,6.657 11.677,10.371 14.374,6.657 "/><g><path style="fill:#0088B6;" d="M9.765,10.928C8.383,9.117,6.743,8.16,5.022,8.16c-1.721,0-3.362,0.958-4.743,2.768l-0.251,0.329 l0.25,0.329c1.382,1.811,3.022,2.768,4.743,2.768c1.72,0,3.36-0.957,4.743-2.767l0.25-0.329L9.765,10.928z M5.022,13.27 c-1.265,0-2.515-0.696-3.619-2.014c1.103-1.318,2.354-2.014,3.619-2.014c1.264,0,2.514,0.696,3.619,2.014 C7.537,12.574,6.286,13.27,5.022,13.27z"/></g><path style="fill:#0088B6;" d="M5.022,9.564c-0.933,0-1.692,0.759-1.692,1.692s0.759,1.693,1.692,1.693s1.693-0.76,1.693-1.693 S5.955,9.564,5.022,9.564z M5.772,11.256c0,0.414-0.337,0.75-0.75,0.75c-0.413,0-0.75-0.337-0.75-0.75 c0-0.413,0.337-0.75,0.75-0.75C5.435,10.506,5.772,10.843,5.772,11.256z"/><polygon style="fill:#555555;" points="1.88,0 1.88,6.2 1.88,6.555 1.88,7.245 0,7.245 0,6.9 0,6.555 0,0 "/><g><polygon style="fill:#555555;" points="4.835,0 4.835,2.236 4.835,2.58 3.012,2.58 3.012,2.236 3.012,2.059 3.012,0 "/><polygon style="fill:#555555;" points="7.819,0 7.819,2.236 7.819,2.58 5.996,2.58 5.996,2.236 5.996,2.059 5.996,0 "/><polygon style="fill:#555555;" points="10.802,0 10.802,2.236 10.802,2.58 8.98,2.58 8.98,2.236 8.98,2.059 8.98,0 "/></g><polygon style="fill:#555555;" points="4.835,4.665 4.835,6.901 4.835,7.245 3.012,7.245 3.012,6.901 3.012,6.724 3.012,4.665 "/><polygon style="fill:#555555;" points="7.819,4.665 7.819,6.901 7.819,7.245 5.996,7.245 5.996,6.901 5.996,6.724 5.996,4.665 "/></g></svg> 
