<?xml version="1.0" encoding="iso-8859-1"?><svg version="1.1" xmlns="http://www.w3.org/2000/svg" xmlns:xlink="http://www.w3.org/1999/xlink" x="0px" y="0px" viewBox="0 0 11.08 14.316" style="enable-background:new 0 0 11.08 14.316;" xml:space="preserve"><g id="documentation-build"><g><path style="fill:#686969;" d="M10.469,2.025V0H1.381c0,0,0,0,0,0C1.339,0,1.302,0,1.296,0C0.595,0,0.031,0.559,0.008,1.255 C0.006,1.251,0.003,1.247,0,1.244v11.503c0,0.867,0.703,1.569,1.569,1.569h9.511V2.025H10.469z M1.302,0.564 c0.006,0,0.073,0,0.079,0.001h0.956h7.567v1.444H9.339V1.244c0-0.156-0.127-0.283-0.283-0.283H2.524H1.923H1.647 c-0.156,0-0.283,0.126-0.283,0.283s0.127,0.283,0.283,0.283H1.97h0.575h6.229v0.483H2.348H1.381c-0.009,0,0.001,0-0.008-0.001 c-0.021,0.002-0.057,0-0.079,0c-0.397,0-0.72-0.316-0.72-0.713C0.575,0.898,0.905,0.564,1.302,0.564z M10.469,13.674H1.703 c-0.623,0-1.127-0.505-1.127-1.128v-9.86h9.894V13.674z"/><path id="Works_25_" style="fill:#0088B6;" d="M2.073,6.277C2.01,6.472,1.976,6.68,1.976,6.895c0,1.156,0.978,2.093,2.185,2.093 c0.225,0,0.442-0.033,0.646-0.093l2.848,2.852c0.179,0.175,0.428,0.284,0.703,0.284c0.547,0,0.991-0.43,0.991-0.96 c0-0.28-0.124-0.531-0.321-0.706l-2.796-2.8c0.074-0.21,0.115-0.436,0.115-0.67c0-1.156-0.978-2.093-2.185-2.093 c-0.184,0-0.363,0.022-0.534,0.063l1.182,1.2c0.189,0.192,0.187,0.504-0.005,0.693L4.007,7.542 C3.815,7.731,3.503,7.729,3.314,7.537L2.073,6.277z M7.947,11.011c0-0.214,0.174-0.388,0.388-0.388s0.388,0.174,0.388,0.388 s-0.174,0.388-0.388,0.388S7.947,11.225,7.947,11.011z"/></g></g></svg> 
