<?xml version="1.0" encoding="iso-8859-1"?><svg version="1.1" xmlns="http://www.w3.org/2000/svg" xmlns:xlink="http://www.w3.org/1999/xlink" x="0px" y="0px" viewBox="0 0 14.349 10.286" style="enable-background:new 0 0 14.349 10.286;" xml:space="preserve"><g id="folder-line"><path style="fill:#555555;" d="M14.014,1.299c-0.001,0-0.001-0.001-0.002-0.001H7.757c-0.004,0-0.007,0-0.011,0 c-0.063,0-0.124-0.021-0.175-0.059L5.782,0.051C5.726,0.017,5.662,0,5.597,0c0,0,0,0-0.001,0H0.338C0.154,0,0.005,0.146,0,0.329 v2.378v7.295c0.005,0.158,0.154,0.285,0.338,0.285c0,0,0,0,0,0h0.414h12.846h0.414c0.183,0,0.333-0.126,0.338-0.285V1.635 C14.349,1.45,14.199,1.3,14.014,1.299z M0.751,2.415l0-1.663h4.728l1.236,0.821L5.799,2.335c-0.065,0.05-0.149,0.079-0.236,0.08 H0.751z M13.598,9.535H0.752V3.166l4.822,0c0.249-0.004,0.493-0.088,0.706-0.254L7.315,2.05l6.282,0h0L13.598,9.535L13.598,9.535z" /></g></svg> 
