<?xml version="1.0" encoding="iso-8859-1"?><svg version="1.1" xmlns="http://www.w3.org/2000/svg" xmlns:xlink="http://www.w3.org/1999/xlink" x="0px" y="0px" viewBox="0 0 13.461 11.277" style="enable-background:new 0 0 13.461 11.277;" xml:space="preserve"><g id="folder-yellow"><path style="fill:#DCB67A;" d="M12.947,0H5.799c-0.201,0-0.37,0.115-0.455,0.279L5.337,0.281l-0.01,0.022 C5.326,0.305,5.326,0.307,5.325,0.309L4.58,1.984H0.531C0.238,1.984,0,2.221,0,2.514v8.232c0,0.293,0.238,0.531,0.531,0.531h12.4 c0.293,0,0.531-0.238,0.531-0.531V2.839h0V2.267V0.501C13.461,0.224,13.231,0,12.947,0z M6.018,0.855h6.588v1.129h-7.09 L6.018,0.855z"/></g></svg> 
