<?xml version="1.0" encoding="iso-8859-1"?><svg version="1.1" xmlns="http://www.w3.org/2000/svg" xmlns:xlink="http://www.w3.org/1999/xlink" x="0px" y="0px" viewBox="0 0 16 16" style="enable-background:new 0 0 16 16;" xml:space="preserve"><g id="help-color"><path id="XMLID_4_" style="fill:#686969;" d="M13.098,2.902c-2.816-2.816-7.381-2.816-10.197,0C1.494,4.31,0.79,6.155,0.79,8 c0,1.845,0.704,3.69,2.112,5.098c2.816,2.816,7.381,2.816,10.197,0C14.506,11.69,15.21,9.845,15.21,8 C15.21,6.155,14.506,4.31,13.098,2.902z M12.212,12.212C11.087,13.337,9.591,13.957,8,13.957s-3.087-0.62-4.212-1.745 S2.043,9.591,2.043,8c0-1.591,0.62-3.087,1.745-4.212S6.409,2.043,8,2.043c1.591,0,3.087,0.62,4.212,1.745 C13.337,4.913,13.957,6.409,13.957,8C13.957,9.591,13.337,11.087,12.212,12.212z"/><g><path id="XMLID_3_" style="fill:#0088B6;" d="M8.494,10.83c-0.101-0.097-0.219-0.174-0.355-0.231 c-0.135-0.057-0.28-0.085-0.437-0.085c-0.16,0-0.308,0.028-0.443,0.085c-0.135,0.057-0.252,0.134-0.351,0.231 c-0.099,0.097-0.177,0.211-0.234,0.342s-0.086,0.272-0.086,0.424c0,0.152,0.029,0.294,0.086,0.427 c0.057,0.133,0.135,0.248,0.234,0.345c0.099,0.097,0.216,0.173,0.351,0.228c0.135,0.055,0.283,0.082,0.443,0.082 c0.156,0,0.302-0.027,0.437-0.082c0.135-0.055,0.253-0.131,0.355-0.228c0.101-0.097,0.18-0.212,0.237-0.345 c0.057-0.133,0.085-0.275,0.085-0.427c0-0.152-0.028-0.293-0.085-0.424C8.674,11.041,8.595,10.927,8.494,10.83z"/><path id="XMLID_2_" style="fill:#0088B6;" d="M9.88,4.164C9.656,3.968,9.385,3.817,9.066,3.712 C8.748,3.607,8.39,3.554,7.994,3.554c-0.283,0-0.545,0.024-0.788,0.073c-0.243,0.049-0.469,0.116-0.68,0.202 C6.314,3.915,6.117,4.016,5.934,4.13C5.75,4.243,5.58,4.366,5.425,4.496l0.519,0.798C6.032,5.45,6.167,5.528,6.348,5.528 c0.08,0,0.16-0.023,0.24-0.069C6.669,5.412,6.763,5.36,6.87,5.303s0.236-0.108,0.386-0.155c0.15-0.046,0.337-0.069,0.56-0.069 c0.291,0,0.52,0.075,0.687,0.224c0.167,0.15,0.25,0.351,0.25,0.604c0,0.211-0.044,0.394-0.133,0.548 c-0.089,0.154-0.2,0.293-0.335,0.418C8.15,6.997,8.004,7.113,7.848,7.221C7.692,7.328,7.546,7.44,7.412,7.556 C7.277,7.672,7.165,7.8,7.076,7.939C6.987,8.078,6.943,8.241,6.943,8.426c0,0.025,0.001,0.051,0.003,0.076 c0.002,0.025,0.005,0.051,0.01,0.076l0.139,1.019h1.342l0.177-0.886C8.639,8.58,8.705,8.462,8.813,8.357 c0.108-0.106,0.234-0.213,0.38-0.323c0.146-0.11,0.3-0.227,0.462-0.351c0.162-0.124,0.312-0.273,0.449-0.446 c0.137-0.173,0.25-0.375,0.339-0.608c0.088-0.232,0.133-0.51,0.133-0.835c0-0.338-0.06-0.645-0.18-0.921 C10.275,4.597,10.103,4.361,9.88,4.164z"/></g></g></svg> 
