<?xml version="1.0" encoding="iso-8859-1"?><svg version="1.1" xmlns="http://www.w3.org/2000/svg" xmlns:xlink="http://www.w3.org/1999/xlink" x="0px" y="0px" viewBox="0 0 16 16" style="enable-background:new 0 0 16 16;" xml:space="preserve"><g id="lsat-color"><path style="fill:#686969;" d="M12.957,2.401L11.586,1.03c-0.195-0.195-0.512-0.195-0.707,0L7.824,4.085 c-0.195,0.195-0.195,0.512,0,0.707l0.149,0.149L4.891,8.023L4.742,7.874c-0.195-0.195-0.512-0.195-0.707,0L0.98,10.929 c-0.195,0.195-0.195,0.512,0,0.707l1.371,1.371c0.195,0.195,0.512,0.195,0.707,0l3.055-3.055c0.195-0.195,0.195-0.512,0-0.707 L5.963,9.095l3.082-3.082l0.149,0.149c0.195,0.195,0.512,0.195,0.707,0l3.055-3.055C13.152,2.912,13.152,2.596,12.957,2.401z"/><path style="fill:#637B32;" d="M14.658,8.106l-4.58-0.931l-2.903,2.903l0.931,4.58c0.099,0.487,0.405,0.661,0.679,0.387 l2.605-2.605l1.483,1.483c0.241,0.241,0.632,0.241,0.873,0l0.224-0.224c0.241-0.241,0.241-0.632,0-0.873l-1.483-1.483l2.557-2.558 C15.319,8.51,15.145,8.204,14.658,8.106z"/></g></svg> 
