<svg id="artboard_original" data-name="artboard original" xmlns="http://www.w3.org/2000/svg" viewBox="0 0 50 50">
  <title>make-up-classes</title>
  <path id="curve29" d="M6.18,18.88V47.12H43.82V18.88ZM9.94,1.94a.94.94,0,0,1,1.88,0V3.82h3.77V1.94a.94.94,0,0,1,1.88,0V3.82h3.77V1.94a.94.94,0,1,1,1.88,0V3.82h3.76V1.94a.94.94,0,1,1,1.88,0V3.82h3.77V1.94a.94.94,0,1,1,1.88,0V3.82h3.77V1.94a.94.94,0,0,1,1.88,0V3.82h2.82a2.83,2.83,0,0,1,2.83,2.83V49H4.29V6.65A2.83,2.83,0,0,1,7.12,3.82H9.94Zm1.88,3.77V6.9a1.85,1.85,0,0,1,.94,1.63A1.88,1.88,0,1,1,9.94,6.9V5.71H7.12a.94.94,0,0,0-.94.94V17H43.82V6.65a.94.94,0,0,0-.94-.94H40.06V6.9A1.87,1.87,0,0,1,41,8.53a1.88,1.88,0,0,1-3.76,0,1.85,1.85,0,0,1,.94-1.63V5.71H34.41V6.9a1.85,1.85,0,0,1,.94,1.63A1.88,1.88,0,1,1,32.53,6.9V5.71H28.76V6.9a1.87,1.87,0,0,1,.95,1.63,1.89,1.89,0,0,1-3.77,0,1.87,1.87,0,0,1,.94-1.63V5.71H23.12V6.9a1.87,1.87,0,0,1,.94,1.63,1.89,1.89,0,0,1-3.77,0,1.86,1.86,0,0,1,.95-1.63V5.71H17.47V6.9a1.87,1.87,0,0,1,.94,1.63,1.88,1.88,0,1,1-3.76,0,1.86,1.86,0,0,1,.94-1.63V5.71Z" fill="#018045"/>
  <g>
    <path d="M17.78,22.54H10.37a.74.74,0,0,0-.74.74h0v7.4a.74.74,0,0,0,.73.75h7.41a.75.75,0,0,0,.75-.74h0V23.28A.74.74,0,0,0,17.78,22.54ZM17,29.94H11.11V24H17Z" fill="#018045"/>
    <path d="M22.6,24a.74.74,0,1,0,0,1.48h17a.74.74,0,0,0,0-1.48Z" fill="#018045"/>
    <path d="M22.6,28.46a.75.75,0,0,0-.77.72.74.74,0,0,0,.72.76H39.62a.72.72,0,0,0,.71-.76.73.73,0,0,0-.71-.72Z" fill="#018045"/>
    <path d="M10.37,34.58a.74.74,0,0,0-.74.74h0v7.4a.74.74,0,0,0,.74.74h7.4a.75.75,0,0,0,.75-.74h0v-7.4a.76.76,0,0,0-.23-.53l-3.21,5.35a.75.75,0,0,1-1,.26h0l-.13-.1-1.85-1.78A.74.74,0,0,1,12,37.47a.73.73,0,0,1,1-.06h0l0,0,1.18,1.13,2.4-4Z" fill="#018045"/>
    <path d="M22.6,36.06a.74.74,0,0,0-.76.72.75.75,0,0,0,.73.76h17a.74.74,0,0,0,0-1.48Z" fill="#018045"/>
    <path d="M22.6,40.5a.75.75,0,0,0-.72.77.74.74,0,0,0,.72.71h17a.72.72,0,0,0,.71-.76.74.74,0,0,0-.71-.72Z" fill="#018045"/>
  </g>
</svg>
