<?xml version="1.0" encoding="iso-8859-1"?><svg version="1.1" xmlns="http://www.w3.org/2000/svg" xmlns:xlink="http://www.w3.org/1999/xlink" x="0px" y="0px" viewBox="0 0 13.083 13.075" style="enable-background:new 0 0 13.083 13.075;" xml:space="preserve"><g id="rename"><g><polygon style="fill:#0088B6;" points="10.817,1.007 10.817,0 6.604,0 6.604,1.007 8.202,1.007 8.202,12.068 6.604,12.068 6.604,13.075 10.817,13.075 10.817,12.068 9.219,12.068 9.219,1.007 "/></g><path style="fill:#0088B6;" d="M5.1,3.432L5.081,3.385H4.216L2.105,8.882h0.913l0.587-1.619h2.131l0.624,1.619H7.33L5.1,3.432z M5.461,6.537H3.866l0.549-1.467C4.506,4.822,4.582,4.57,4.644,4.317c0.077,0.24,0.176,0.521,0.297,0.84L5.461,6.537z"/><g><path style="fill:#686969;" d="M7.202,10.735H2.144C1.513,10.735,1,10.222,1,9.591V3.558c0-0.631,0.513-1.144,1.144-1.144h5.058 v-1H2.144C0.96,1.414,0,2.374,0,3.558v6.033c0,1.184,0.96,2.144,2.144,2.144h5.058V10.735z"/><path style="fill:#686969;" d="M10.939,1.414h-0.72v1h0.72c0.631,0,1.144,0.513,1.144,1.144v6.033 c0,0.631-0.513,1.144-1.144,1.144h-0.72v1h0.72c1.184,0,2.144-0.96,2.144-2.144V3.558C13.083,2.374,12.123,1.414,10.939,1.414z"/></g></g></svg> 
