<?xml version="1.0" encoding="iso-8859-1"?>
<!-- Generator: Adobe Illustrator 24.1.1, SVG Export Plug-In . SVG Version: 6.00 Build 0)  -->
<svg version="1.1" xmlns="http://www.w3.org/2000/svg" xmlns:xlink="http://www.w3.org/1999/xlink" x="0px" y="0px"
	 viewBox="0 0 16 16" style="enable-background:new 0 0 16 16;" xml:space="preserve">
<g id="sql-database-grey">
	<g>
		<path style="fill:#555555;" d="M8,0.825c-2.989,0-5.413,0.878-5.413,1.96v10.429c0,1.074,2.384,1.945,5.339,1.959v0.001h0.058
			c0.006,0,0.011,0,0.016,0v0c2.989,0,5.413-0.877,5.413-1.96V2.786C13.413,1.703,10.989,0.825,8,0.825z"/>
		<path style="fill:#E27730;" d="M12.306,2.673c0,0.715-1.928,1.294-4.306,1.294S3.693,3.387,3.693,2.673
			c0-0.714,1.928-1.294,4.307-1.294S12.306,1.958,12.306,2.673"/>
		<path style="fill:#FFFFFF;" d="M11.404,3.463c0.564-0.219,0.902-0.492,0.902-0.79c0-0.715-1.928-1.294-4.307-1.294
			c-2.378,0-4.306,0.579-4.306,1.294c0,0.297,0.339,0.571,0.902,0.79C5.384,3.157,6.614,2.96,8,2.96
			C9.386,2.96,10.616,3.157,11.404,3.463"/>
		<path style="fill:#FFFFFF;" d="M6.281,10.024c0,0.324-0.118,0.575-0.353,0.753c-0.235,0.178-0.56,0.267-0.974,0.267
			c-0.353,0-0.647-0.064-0.884-0.191v-0.762c0.273,0.232,0.574,0.348,0.903,0.348c0.159,0,0.282-0.032,0.368-0.095
			c0.087-0.064,0.13-0.148,0.13-0.253c0-0.103-0.042-0.193-0.125-0.269C5.263,9.746,5.093,9.647,4.837,9.527
			c-0.521-0.244-0.781-0.578-0.781-1c0-0.306,0.113-0.552,0.341-0.737c0.227-0.185,0.529-0.278,0.905-0.278
			c0.334,0,0.61,0.044,0.829,0.131v0.712c-0.23-0.159-0.492-0.238-0.786-0.238c-0.148,0-0.264,0.031-0.35,0.094
			C4.909,8.273,4.866,8.357,4.866,8.461c0,0.108,0.034,0.197,0.104,0.266c0.069,0.069,0.211,0.155,0.425,0.256
			c0.319,0.151,0.547,0.304,0.683,0.46C6.213,9.599,6.281,9.793,6.281,10.024z"/>
		<path style="fill:#FFFFFF;" d="M9.956,9.253c0,0.402-0.092,0.751-0.274,1.046c-0.183,0.295-0.44,0.503-0.772,0.622l0.991,0.917h-1
			l-0.708-0.793c-0.303-0.011-0.577-0.091-0.821-0.241c-0.244-0.149-0.432-0.354-0.565-0.613c-0.133-0.26-0.199-0.549-0.199-0.868
			c0-0.354,0.072-0.67,0.215-0.947c0.144-0.277,0.346-0.49,0.606-0.64c0.26-0.149,0.559-0.224,0.896-0.224
			c0.314,0,0.596,0.072,0.844,0.217c0.248,0.144,0.441,0.35,0.579,0.617C9.888,8.612,9.956,8.915,9.956,9.253z M9.147,9.296
			c0-0.346-0.075-0.62-0.226-0.821C8.769,8.274,8.563,8.174,8.301,8.174c-0.267,0-0.48,0.101-0.641,0.302
			C7.5,8.678,7.419,8.946,7.419,9.281c0,0.334,0.079,0.6,0.236,0.799c0.157,0.199,0.366,0.299,0.626,0.299
			c0.265,0,0.476-0.096,0.631-0.289C9.069,9.897,9.147,9.632,9.147,9.296z"/>
		<polygon style="fill:#FFFFFF;" points="12.555,10.985 10.521,10.985 10.521,7.569 11.29,7.569 11.29,10.361 12.555,10.361 		"/>
	</g>
</g>
<g id="Layer_1">
</g>
</svg>
