<?xml version="1.0" encoding="iso-8859-1"?><svg version="1.1" xmlns="http://www.w3.org/2000/svg" xmlns:xlink="http://www.w3.org/1999/xlink" x="0px" y="0px" viewBox="0 0 16 16" style="enable-background:new 0 0 16 16;" xml:space="preserve"><g id="sybase-connection"><g><path style="fill-rule:evenodd;clip-rule:evenodd;fill:#171F69;" d="M9.092,3.81c0-0.999,0-1.984,0-2.983 c1.56,0.031,2.933,1.422,2.965,2.983C11.058,3.81,10.091,3.81,9.092,3.81L9.092,3.81z"/><path style="fill-rule:evenodd;clip-rule:evenodd;fill:#171F69;" d="M9.092,4.072c0,0,0.281,0,0.374,0 C9.311,4.166,9.186,4.291,9.092,4.447C9.092,4.298,9.092,4.072,9.092,4.072L9.092,4.072z"/><path style="fill-rule:evenodd;clip-rule:evenodd;fill:#171F69;" d="M9.092,6.194c0,0,0.281,0,0.374,0 C9.311,6.101,9.186,5.976,9.092,5.82C9.092,5.968,9.092,6.194,9.092,6.194L9.092,6.194z"/><path style="fill-rule:evenodd;clip-rule:evenodd;fill:#171F69;" d="M10.311,4.072c0,0,1.153,0,1.746,0 c-0.125,0.874-0.841,1.623-1.746,1.685C10.311,5.024,10.311,4.072,10.311,4.072L10.311,4.072z"/><path style="fill-rule:evenodd;clip-rule:evenodd;fill:#171F69;" d="M10.024,4.478c0,0,0,0.788,0,1.28 c-0.289,0-0.557-0.31-0.557-0.597C9.467,4.598,10.024,4.478,10.024,4.478L10.024,4.478z"/><path style="fill-rule:evenodd;clip-rule:evenodd;fill:#171F69;" d="M8.803,6.194c0,0-3.581,0-5.328,0 c0-2.809,2.489-5.368,5.328-5.368C8.803,3.729,8.803,6.194,8.803,6.194L8.803,6.194z"/><path style="fill-rule:evenodd;clip-rule:evenodd;fill:#171F69;" d="M12.525,6.444c0,0,0,5.827,0,8.729 c-4.759,0.04-9.05-4.017-9.05-8.729C6.44,6.444,12.525,6.444,12.525,6.444L12.525,6.444z"/></g></g></svg> 
