<?xml version="1.0" encoding="iso-8859-1"?><svg version="1.1" xmlns="http://www.w3.org/2000/svg" xmlns:xlink="http://www.w3.org/1999/xlink" x="0px" y="0px" viewBox="0 0 16 16" style="enable-background:new 0 0 16 16;" xml:space="preserve"><g id="teradata-connection"><g><path style="fill:#EB881D;" d="M11.432,3.682H8.507v7.768c0,0.574,0.32,0.868,0.982,0.868h1.942l0.326-0.006 c2.33-0.086,3.417-1.114,3.417-3.545V7.31C15.175,4.884,13.935,3.682,11.432,3.682z M13.603,8.761 c0,1.749-0.574,2.605-2.119,2.605h-1.405V4.634h1.354c1.597,0,2.171,0.934,2.171,2.683V8.761z"/><path style="fill:#EB881D;" d="M10.685,1.561H1.161L0.825,2.653h4.374v10.915c0,0.576,0.345,0.871,1.01,0.871h0.576V2.653h3.565 L10.685,1.561z"/></g></g></svg> 
