<?xml version="1.0" encoding="iso-8859-1"?><svg version="1.1" xmlns="http://www.w3.org/2000/svg" xmlns:xlink="http://www.w3.org/1999/xlink" x="0px" y="0px" viewBox="0 0 14.35 12.255" style="enable-background:new 0 0 14.35 12.255;" xml:space="preserve"><g id="zoom-fit"><path style="fill:#0088B6;" d="M9.999,3.201H4.35c-0.32,0-0.58,0.23-0.58,0.514V8.54c0,0.283,0.26,0.514,0.58,0.514h5.649 c0.32,0,0.58-0.23,0.58-0.514V3.715C10.579,3.432,10.32,3.201,9.999,3.201z M9.758,3.94v4.375H4.592V3.94H9.758z"/><path style="fill:#686969;" d="M13.243,1c0.059,0,0.107,0.048,0.107,0.107v10.041c0,0.059-0.048,0.107-0.107,0.107H1.107 C1.048,11.255,1,11.207,1,11.148V1.107C1,1.048,1.048,1,1.107,1H13.243 M13.243,0H1.107C0.496,0,0,0.496,0,1.107v10.041 c0,0.611,0.496,1.107,1.107,1.107h12.136c0.611,0,1.107-0.495,1.107-1.107V1.107C14.35,0.496,13.854,0,13.243,0L13.243,0z"/></g></svg> 
