<?xml version="1.0" encoding="utf-8"?>
<!-- Generator: Adobe Illustrator 20.1.0, SVG Export Plug-In . SVG Version: 6.00 Build 0)  -->
<svg version="1.1" id="Layer_1" xmlns="http://www.w3.org/2000/svg" xmlns:xlink="http://www.w3.org/1999/xlink" x="0px" y="0px"
	 viewBox="0 0 332.8 54.1" style="enable-background:new 0 0 332.8 54.1;" xml:space="preserve">
<style type="text/css">
	.st0{fill:#C6093B;}
	.st1{fill:#FFFFFF;}
	.st2{fill:none;}
	.st3{fill:url(#SVGID_1_);}
	.st4{fill:url(#SVGID_2_);}
	.st5{fill:url(#SVGID_3_);}
	.st6{fill:url(#SVGID_4_);}
	.st7{fill:url(#SVGID_5_);}
	.st8{fill:url(#SVGID_6_);}
	.st9{fill:url(#SVGID_7_);}
	.st10{fill:url(#SVGID_8_);}
	.st11{fill:url(#SVGID_9_);}
	.st12{fill:#00416A;}
</style>
<g>
	<g>
		<path class="st0" d="M42.2,39.4c2.7,0,4.4-2.2,3.8-4.8l-0.6-2.5l-2.4-9.9"/>
		<path class="st0" d="M42.9,22.2V7.8c0-0.8-0.1-1.5-0.4-2.1c-0.1-0.2-0.2-0.5-0.3-0.7c-0.2-0.4-0.4-0.7-0.7-1
			c-0.5-0.5-1-0.9-1.6-1.2c-0.6-0.3-1.3-0.4-1.9-0.4H11.7c-0.7,0-1.3,0.2-1.9,0.4C9.1,3,8.6,3.4,8.1,3.9C7.8,4.2,7.6,4.6,7.4,5
			C7.3,5.2,7.2,5.4,7.1,5.7C6.8,6.3,6.7,7.1,6.7,7.8v14.4C18.7,22.2,30.8,22.2,42.9,22.2z"/>
		<path class="st1" d="M6.7,22.2L6.7,22.2L6.7,22.2L6.7,22.2v14.4c0,0.8,0.1,1.5,0.4,2.2c0.1,0.2,0.2,0.5,0.3,0.7
			c0.2,0.4,0.4,0.7,0.7,1c0.5,0.5,1,0.9,1.6,1.2c0.6,0.3,1.3,0.4,1.9,0.4h26.2c0.7,0,1.3-0.2,1.9-0.4c0.6-0.3,1.1-0.7,1.6-1.2
			c0.3-0.3,0.5-0.7,0.7-1c0.1-0.2,0.3-0.5,0.3-0.7c0.3-0.7,0.4-1.4,0.4-2.2l0-14.4h0v0v0l0,0L6.7,22.2z"/>
		<line class="st2" x1="42" y1="32.1" x2="45.3" y2="32.1"/>
		<line class="st2" x1="6.9" y1="22.2" x2="42.9" y2="22.2"/>
		<path class="st0" d="M42.9,22.2L42.9,22.2L42.9,22.2l5.3-7.2c1.1-1.5-0.2-2.7-2.8-2.8"/>
		<path class="st1" d="M42.9,22.2l2.4-9.9L46,9.7C46.6,7.1,44.9,5,42.2,5"/>
		<path class="st1" d="M45.3,32.1c2.7,0,3.9-1.3,2.8-2.8l-5.3-7.2l0,0l0,0"/>
		
			<linearGradient id="SVGID_1_" gradientUnits="userSpaceOnUse" x1="201.0842" y1="31.8121" x2="201.0842" y2="31.8121" gradientTransform="matrix(-1 0 0 -1 244 54)">
			<stop  offset="0" style="stop-color:#C0623F"/>
			<stop  offset="1" style="stop-color:#932A24"/>
		</linearGradient>
		<polygon class="st3" points="42.9,22.2 42.9,22.2 42.9,22.2 		"/>
		
			<linearGradient id="SVGID_2_" gradientUnits="userSpaceOnUse" x1="201.0842" y1="31.8121" x2="201.0842" y2="31.8121" gradientTransform="matrix(-1 0 0 -1 244 54)">
			<stop  offset="0" style="stop-color:#C0623F"/>
			<stop  offset="1" style="stop-color:#932A24"/>
		</linearGradient>
		<polygon class="st4" points="42.9,22.2 42.9,22.2 42.9,22.2 		"/>
		
			<linearGradient id="SVGID_3_" gradientUnits="userSpaceOnUse" x1="201.0842" y1="31.813" x2="201.0861" y2="31.813" gradientTransform="matrix(-1 0 0 -1 244 54)">
			<stop  offset="0" style="stop-color:#C0623F"/>
			<stop  offset="1" style="stop-color:#932A24"/>
		</linearGradient>
		<polygon class="st5" points="42.9,22.2 42.9,22.2 42.9,22.2 42.9,22.2 42.9,22.2 		"/>
		
			<linearGradient id="SVGID_4_" gradientUnits="userSpaceOnUse" x1="201.0842" y1="31.8121" x2="201.0842" y2="31.8121" gradientTransform="matrix(-1 0 0 -1 244 54)">
			<stop  offset="0" style="stop-color:#C0623F"/>
			<stop  offset="1" style="stop-color:#932A24"/>
		</linearGradient>
		<circle class="st6" cx="42.9" cy="22.2" r="0"/>
		
			<linearGradient id="SVGID_5_" gradientUnits="userSpaceOnUse" x1="201.0842" y1="31.8121" x2="201.0842" y2="31.8121" gradientTransform="matrix(-1 0 0 -1 244 54)">
			<stop  offset="0" style="stop-color:#C0623F"/>
			<stop  offset="1" style="stop-color:#932A24"/>
		</linearGradient>
		<polygon class="st7" points="42.9,22.2 42.9,22.2 42.9,22.2 		"/>
		
			<linearGradient id="SVGID_6_" gradientUnits="userSpaceOnUse" x1="201.0842" y1="31.8121" x2="201.0861" y2="31.8121" gradientTransform="matrix(-1 0 0 -1 244 54)">
			<stop  offset="0" style="stop-color:#C0623F"/>
			<stop  offset="1" style="stop-color:#932A24"/>
		</linearGradient>
		<polygon class="st8" points="42.9,22.2 42.9,22.2 42.9,22.2 		"/>
		<path class="st1" d="M42.9,22.2l-2.4-9.9l-0.6-2.5C39.2,7.1,36.5,5,33.7,5H16.1H9.7h-2c0,0,0,0-0.1,0C4.9,5,3.2,7.1,3.8,9.7
			l3.5,12.5"/>
		
			<linearGradient id="SVGID_7_" gradientUnits="userSpaceOnUse" x1="201.0842" y1="31.8121" x2="201.0861" y2="31.8121" gradientTransform="matrix(-1 0 0 -1 244 54)">
			<stop  offset="0" style="stop-color:#C0623F"/>
			<stop  offset="1" style="stop-color:#932A24"/>
		</linearGradient>
		<polygon class="st9" points="42.9,22.2 42.9,22.2 42.9,22.2 		"/>
		<path class="st0" d="M42.9,22.2l-2.4,9.9l-0.6,2.5c-0.6,2.6-3.4,4.8-6.2,4.8l-26,0c0,0,0,0-0.1,0c-2.7,0-4.4-2.2-3.8-4.8l0.6-2.5
			c0.1,0,0.1,0,0.1,0l2.7-9.9"/>
		
			<linearGradient id="SVGID_8_" gradientUnits="userSpaceOnUse" x1="201.0842" y1="31.8121" x2="201.0861" y2="31.8121" gradientTransform="matrix(-1 0 0 -1 244 54)">
			<stop  offset="0" style="stop-color:#C0623F"/>
			<stop  offset="1" style="stop-color:#932A24"/>
		</linearGradient>
		<circle class="st10" cx="42.9" cy="22.2" r="0"/>
		
			<linearGradient id="SVGID_9_" gradientUnits="userSpaceOnUse" x1="201.0861" y1="31.8121" x2="201.0861" y2="31.8121" gradientTransform="matrix(-1 0 0 -1 244 54)">
			<stop  offset="0" style="stop-color:#C0623F"/>
			<stop  offset="1" style="stop-color:#932A24"/>
		</linearGradient>
		<polygon class="st11" points="42.9,22.2 42.9,22.2 42.9,22.2 		"/>
		<path class="st0" d="M42.9,22.2L42.9,22.2L37.7,15c-1.1-1.5-4.3-2.8-7-2.8h-26c-0.1,0-0.1,0-0.1,0c-2.7,0-3.9,1.3-2.8,2.8l5.3,7.2
			l0,0"/>
		<path class="st1" d="M6.9,22.2l-5.3,7.2c-1.1,1.5,0.2,2.7,2.8,2.8c0.1,0,0.1,0,0.1,0h26c2.8,0,5.9-1.2,7-2.8l5.3-7.2"/>
	</g>
	<g>
		<g>
			<path class="st12" d="M86.5,31c0,1.3-0.2,2.5-0.5,3.6c-0.4,1.1-0.9,2-1.5,2.9c-0.6,0.8-1.4,1.5-2.3,2.1c-0.9,0.6-1.9,1.1-3,1.5
				c-1.1,0.4-2.2,0.7-3.5,0.9c-1.2,0.2-2.6,0.3-4.1,0.3h-10c-0.6,0-1.2-0.2-1.6-0.6c-0.4-0.4-0.7-1-0.7-1.8V7.2
				c0-0.8,0.2-1.5,0.7-1.8c0.4-0.4,1-0.6,1.6-0.6h9.4c2.3,0,4.2,0.2,5.8,0.6c1.6,0.4,2.9,1,4,1.8c1.1,0.8,1.9,1.8,2.5,3
				c0.6,1.2,0.9,2.6,0.9,4.2c0,0.9-0.1,1.8-0.3,2.6c-0.2,0.8-0.6,1.5-1,2.2c-0.4,0.7-1,1.2-1.6,1.7c-0.6,0.5-1.4,0.9-2.2,1.2
				c1.1,0.2,2,0.5,2.9,1c0.9,0.5,1.7,1.1,2.3,1.9c0.7,0.8,1.2,1.7,1.6,2.7C86.3,28.6,86.5,29.7,86.5,31z M76.7,15.2
				c0-0.8-0.1-1.4-0.3-2c-0.2-0.6-0.6-1.1-1-1.5c-0.5-0.4-1-0.7-1.8-0.9c-0.7-0.2-1.6-0.3-2.8-0.3h-3.8v9.7h4.3c1.1,0,2-0.1,2.6-0.4
				c0.7-0.3,1.2-0.6,1.6-1.1c0.4-0.5,0.8-1,1-1.6C76.6,16.6,76.7,15.9,76.7,15.2z M78.6,31.3c0-0.9-0.1-1.6-0.4-2.3
				c-0.3-0.7-0.7-1.3-1.3-1.7c-0.6-0.5-1.3-0.8-2.1-1.1c-0.9-0.2-2-0.4-3.4-0.4h-4.5v10.7h5.5c1.1,0,2-0.1,2.7-0.3
				c0.7-0.2,1.4-0.6,1.9-1c0.5-0.4,0.9-1,1.2-1.6C78.5,32.8,78.6,32.1,78.6,31.3z"/>
			<path class="st12" d="M97.7,6.7c0,1.5-0.3,2.5-0.9,3c-0.6,0.6-1.7,0.8-3.3,0.8c-1.6,0-2.7-0.3-3.3-0.8c-0.6-0.5-0.9-1.5-0.9-2.9
				c0-1.5,0.3-2.5,0.9-3.1c0.6-0.6,1.7-0.9,3.3-0.9c1.6,0,2.7,0.3,3.3,0.8C97.4,4.3,97.7,5.3,97.7,6.7z M97.1,41.3
				c0,0.2-0.1,0.4-0.2,0.5c-0.1,0.1-0.3,0.3-0.6,0.4c-0.3,0.1-0.7,0.2-1.1,0.2c-0.5,0-1.1,0.1-1.8,0.1c-0.7,0-1.3,0-1.8-0.1
				c-0.5,0-0.8-0.1-1.1-0.2c-0.3-0.1-0.5-0.2-0.6-0.4c-0.1-0.1-0.2-0.3-0.2-0.5V15.5c0-0.2,0.1-0.4,0.2-0.5c0.1-0.1,0.3-0.3,0.6-0.4
				c0.3-0.1,0.7-0.2,1.1-0.2c0.5-0.1,1.1-0.1,1.8-0.1c0.7,0,1.3,0,1.8,0.1c0.5,0.1,0.8,0.1,1.1,0.2c0.3,0.1,0.5,0.2,0.6,0.4
				c0.1,0.1,0.2,0.3,0.2,0.5V41.3z"/>
			<path class="st12" d="M143.1,41.3c0,0.2-0.1,0.4-0.2,0.5c-0.1,0.1-0.3,0.3-0.6,0.4c-0.3,0.1-0.6,0.2-1.1,0.2
				c-0.5,0-1.1,0.1-1.8,0.1c-0.7,0-1.3,0-1.8-0.1c-0.5,0-0.8-0.1-1.1-0.2c-0.3-0.1-0.5-0.2-0.6-0.4c-0.1-0.1-0.2-0.3-0.2-0.5V26
				c0-0.9-0.1-1.7-0.2-2.4c-0.2-0.7-0.4-1.3-0.8-1.8c-0.3-0.5-0.8-0.9-1.3-1.2c-0.5-0.3-1.1-0.4-1.8-0.4c-0.9,0-1.7,0.3-2.6,1
				c-0.9,0.7-1.9,1.7-2.9,3v17.2c0,0.2-0.1,0.4-0.2,0.5c-0.1,0.1-0.3,0.3-0.6,0.4c-0.3,0.1-0.7,0.2-1.1,0.2c-0.5,0-1,0.1-1.7,0.1
				c-0.7,0-1.3,0-1.8-0.1c-0.5,0-0.8-0.1-1.1-0.2c-0.3-0.1-0.5-0.2-0.6-0.4c-0.1-0.1-0.2-0.3-0.2-0.5V26c0-0.9-0.1-1.7-0.2-2.4
				c-0.2-0.7-0.4-1.3-0.7-1.8s-0.8-0.9-1.3-1.2c-0.5-0.3-1.1-0.4-1.8-0.4c-0.9,0-1.8,0.3-2.7,1c-0.9,0.7-1.8,1.7-2.9,3v17.2
				c0,0.2-0.1,0.4-0.2,0.5c-0.1,0.1-0.3,0.3-0.6,0.4c-0.3,0.1-0.7,0.2-1.1,0.2c-0.5,0-1.1,0.1-1.8,0.1c-0.7,0-1.3,0-1.8-0.1
				c-0.5,0-0.8-0.1-1.1-0.2c-0.3-0.1-0.5-0.2-0.6-0.4c-0.1-0.1-0.2-0.3-0.2-0.5V15.4c0-0.2,0-0.4,0.1-0.5c0.1-0.1,0.3-0.3,0.5-0.4
				c0.3-0.1,0.6-0.2,1-0.2c0.4,0,0.9-0.1,1.5-0.1c0.6,0,1.1,0,1.5,0.1c0.4,0,0.7,0.1,0.9,0.2c0.2,0.1,0.4,0.2,0.5,0.4
				c0.1,0.1,0.1,0.3,0.1,0.5v3c1.4-1.5,2.9-2.7,4.3-3.5c1.4-0.8,2.9-1.2,4.4-1.2c1.1,0,2,0.1,2.9,0.3c0.8,0.2,1.6,0.5,2.3,1
				c0.7,0.4,1.2,0.9,1.7,1.5c0.5,0.6,0.9,1.2,1.2,1.9c0.8-0.8,1.5-1.5,2.3-2.1c0.7-0.6,1.5-1.1,2.2-1.5c0.7-0.4,1.4-0.7,2.2-0.8
				c0.7-0.2,1.5-0.3,2.2-0.3c1.7,0,3.2,0.3,4.3,0.9c1.2,0.6,2.1,1.4,2.9,2.4c0.7,1,1.2,2.2,1.5,3.5c0.3,1.3,0.5,2.7,0.5,4.2V41.3z"
				/>
			<path class="st12" d="M155.1,41.3c0,0.2-0.1,0.4-0.2,0.5c-0.1,0.1-0.3,0.3-0.6,0.4c-0.3,0.1-0.7,0.2-1.1,0.2
				c-0.5,0-1.1,0.1-1.8,0.1c-0.7,0-1.3,0-1.8-0.1c-0.5,0-0.8-0.1-1.1-0.2c-0.3-0.1-0.5-0.2-0.6-0.4c-0.1-0.1-0.2-0.3-0.2-0.5V3.2
				c0-0.2,0.1-0.4,0.2-0.5c0.1-0.2,0.3-0.3,0.6-0.4c0.3-0.1,0.7-0.2,1.1-0.2c0.5-0.1,1.1-0.1,1.8-0.1c0.7,0,1.3,0,1.8,0.1
				c0.5,0.1,0.8,0.1,1.1,0.2c0.3,0.1,0.5,0.2,0.6,0.4c0.1,0.2,0.2,0.3,0.2,0.5V41.3z"/>
		</g>
	</g>
	<g>
		<path class="st12" d="M183.4,40.8c0,0.3,0,0.5-0.1,0.7s-0.1,0.4-0.2,0.5c-0.1,0.1-0.2,0.2-0.3,0.3s-0.2,0.1-0.4,0.1h-17.8
			c-0.4,0-0.7-0.1-1.1-0.4c-0.4-0.3-0.6-0.7-0.6-1.5V6.3c0-0.7,0.2-1.2,0.6-1.5s0.7-0.4,1.1-0.4h17.5c0.1,0,0.3,0,0.4,0.1
			s0.2,0.2,0.3,0.3s0.1,0.3,0.2,0.5c0,0.2,0.1,0.4,0.1,0.7c0,0.3,0,0.5-0.1,0.7c0,0.2-0.1,0.4-0.2,0.5s-0.2,0.2-0.3,0.3
			c-0.1,0.1-0.2,0.1-0.4,0.1h-15.6V21H180c0.2,0,0.3,0,0.4,0.1s0.2,0.2,0.3,0.3c0.1,0.1,0.1,0.3,0.2,0.5c0,0.2,0.1,0.4,0.1,0.7
			c0,0.3,0,0.5-0.1,0.7c0,0.2-0.1,0.3-0.2,0.5c-0.1,0.1-0.2,0.2-0.3,0.3s-0.3,0.1-0.4,0.1h-13.4v15.1h15.8c0.1,0,0.3,0,0.4,0.1
			s0.2,0.2,0.3,0.3c0.1,0.1,0.2,0.3,0.2,0.5S183.4,40.6,183.4,40.8z"/>
		<path class="st12" d="M209.5,41.3c0.2,0.2,0.2,0.4,0.2,0.6c0,0.2-0.1,0.3-0.2,0.4c-0.1,0.1-0.3,0.2-0.6,0.2s-0.6,0.1-1.1,0.1
			c-0.4,0-0.7,0-1,0c-0.2,0-0.4-0.1-0.6-0.1c-0.1-0.1-0.3-0.1-0.4-0.2c-0.1-0.1-0.2-0.2-0.2-0.3l-7.2-11.1l-7.1,11.1
			c-0.1,0.1-0.2,0.2-0.3,0.3c-0.1,0.1-0.2,0.2-0.4,0.2c-0.2,0.1-0.4,0.1-0.6,0.1c-0.2,0-0.6,0-1,0c-0.4,0-0.8,0-1-0.1
			c-0.3,0-0.5-0.1-0.6-0.2s-0.2-0.2-0.2-0.4s0.1-0.4,0.3-0.6l8.7-12.9l-8.3-12.6c-0.2-0.2-0.2-0.4-0.3-0.6s0.1-0.3,0.2-0.4
			s0.4-0.2,0.7-0.2s0.7-0.1,1.1-0.1c0.4,0,0.7,0,1,0c0.2,0,0.4,0.1,0.6,0.1c0.1,0.1,0.2,0.1,0.3,0.2s0.2,0.2,0.2,0.3l6.7,10.4
			l6.9-10.4c0.1-0.1,0.2-0.2,0.2-0.3s0.2-0.2,0.3-0.2s0.3-0.1,0.5-0.1c0.2,0,0.5,0,0.9,0c0.4,0,0.8,0,1,0.1c0.3,0,0.5,0.1,0.6,0.2
			c0.1,0.1,0.2,0.2,0.2,0.4s-0.1,0.4-0.3,0.6l-8.4,12.5L209.5,41.3z"/>
		<path class="st12" d="M238.5,28.2c0,2.3-0.2,4.3-0.7,6.1c-0.5,1.8-1.2,3.4-2.2,4.6c-1,1.3-2.2,2.3-3.6,2.9c-1.4,0.7-3.1,1-4.9,1
			c-0.8,0-1.5-0.1-2.2-0.2c-0.7-0.2-1.4-0.4-2-0.8c-0.7-0.4-1.3-0.8-2-1.3c-0.7-0.5-1.3-1.2-2.1-1.9v13.7c0,0.1,0,0.2-0.1,0.3
			s-0.2,0.2-0.3,0.3c-0.1,0.1-0.3,0.1-0.5,0.1s-0.5,0-0.9,0c-0.3,0-0.6,0-0.8,0s-0.4-0.1-0.5-0.1c-0.1-0.1-0.2-0.2-0.3-0.3
			s-0.1-0.2-0.1-0.3V15.3c0-0.1,0-0.3,0.1-0.4c0-0.1,0.1-0.2,0.3-0.2c0.1-0.1,0.3-0.1,0.5-0.1s0.5,0,0.7,0s0.5,0,0.7,0
			c0.2,0,0.4,0.1,0.5,0.1c0.1,0.1,0.2,0.1,0.3,0.2c0.1,0.1,0.1,0.2,0.1,0.4v3.8c0.8-0.8,1.6-1.6,2.3-2.2c0.7-0.6,1.5-1.1,2.2-1.5
			c0.7-0.4,1.5-0.7,2.3-0.9s1.6-0.3,2.5-0.3c1.9,0,3.5,0.4,4.9,1.1c1.3,0.7,2.4,1.7,3.3,3c0.9,1.3,1.5,2.8,1.8,4.4
			C238.3,24.4,238.5,26.2,238.5,28.2z M234.8,28.7c0-1.5-0.1-2.9-0.4-4.3c-0.2-1.4-0.6-2.6-1.2-3.7c-0.6-1.1-1.3-1.9-2.2-2.6
			s-2.1-1-3.5-1c-0.7,0-1.4,0.1-2.1,0.3c-0.7,0.2-1.4,0.5-2.1,1c-0.7,0.4-1.4,1-2.2,1.7s-1.6,1.6-2.4,2.7v11.6
			c1.5,1.8,2.9,3.1,4.2,4.1s2.7,1.4,4.2,1.4c1.3,0,2.5-0.3,3.5-1c1-0.7,1.8-1.5,2.4-2.6c0.6-1.1,1.1-2.3,1.3-3.6
			C234.7,31.4,234.8,30.1,234.8,28.7z"/>
		<path class="st12" d="M260.5,16.6c0,0.3,0,0.5,0,0.7c0,0.2-0.1,0.4-0.1,0.5s-0.1,0.2-0.2,0.3c-0.1,0.1-0.2,0.1-0.3,0.1
			c-0.2,0-0.4,0-0.6-0.1s-0.5-0.2-0.8-0.3c-0.3-0.1-0.7-0.2-1-0.3c-0.4-0.1-0.8-0.1-1.2-0.1c-0.5,0-1,0.1-1.6,0.3
			c-0.5,0.2-1,0.6-1.6,1.1c-0.6,0.5-1.1,1.2-1.8,2c-0.6,0.8-1.3,1.8-2,3v18c0,0.1,0,0.2-0.1,0.3c-0.1,0.1-0.2,0.2-0.3,0.2
			c-0.1,0.1-0.3,0.1-0.5,0.1s-0.5,0.1-0.9,0.1c-0.3,0-0.6,0-0.8-0.1s-0.4-0.1-0.5-0.1s-0.2-0.1-0.3-0.2c0-0.1-0.1-0.2-0.1-0.3V15.3
			c0-0.1,0-0.2,0.1-0.3c0-0.1,0.1-0.2,0.3-0.2s0.3-0.1,0.5-0.1s0.5,0,0.8,0s0.6,0,0.8,0c0.2,0,0.4,0.1,0.5,0.1s0.2,0.2,0.2,0.2
			c0,0.1,0.1,0.2,0.1,0.3v4.2c0.8-1.1,1.5-2,2.1-2.7c0.6-0.7,1.3-1.2,1.8-1.6c0.6-0.4,1.2-0.6,1.7-0.8c0.6-0.1,1.1-0.2,1.7-0.2
			c0.3,0,0.5,0,0.9,0c0.3,0,0.7,0.1,1.1,0.2c0.4,0.1,0.7,0.2,1,0.3c0.3,0.1,0.5,0.2,0.6,0.3c0.1,0.1,0.2,0.2,0.2,0.2
			s0.1,0.2,0.1,0.3c0,0.1,0,0.3,0.1,0.4C260.5,16.1,260.5,16.3,260.5,16.6z"/>
		<path class="st12" d="M286.4,27.2c0,0.7-0.2,1.2-0.6,1.5s-0.7,0.4-1.1,0.4h-18.1c0,1.6,0.2,3.1,0.5,4.5c0.3,1.3,0.9,2.5,1.6,3.4
			c0.7,0.9,1.7,1.7,2.9,2.2c1.2,0.5,2.7,0.8,4.4,0.8c1.2,0,2.3-0.1,3.3-0.3c1-0.2,1.8-0.5,2.5-0.7c0.7-0.3,1.3-0.5,1.8-0.7
			c0.5-0.2,0.8-0.3,1-0.3c0.1,0,0.2,0,0.3,0.1c0.1,0.1,0.2,0.2,0.2,0.3c0.1,0.1,0.1,0.3,0.1,0.5c0,0.2,0,0.4,0,0.7
			c0,0.1,0,0.3,0,0.4c0,0.1,0,0.2-0.1,0.4s-0.1,0.2-0.1,0.3c-0.1,0.1-0.1,0.2-0.2,0.3c-0.1,0.1-0.4,0.3-0.9,0.5
			c-0.5,0.2-1.2,0.5-2,0.7c-0.8,0.2-1.8,0.5-2.9,0.7s-2.3,0.3-3.5,0.3c-2.1,0-3.9-0.3-5.5-0.9s-2.9-1.5-4-2.7
			c-1.1-1.2-1.9-2.7-2.4-4.5c-0.6-1.8-0.8-3.8-0.8-6.2c0-2.2,0.3-4.3,0.9-6s1.4-3.3,2.5-4.5c1.1-1.2,2.4-2.2,3.9-2.8s3.2-1,5.1-1
			c2,0,3.7,0.3,5.1,1c1.4,0.7,2.6,1.6,3.5,2.7c0.9,1.1,1.6,2.4,2,3.9s0.6,3,0.6,4.7V27.2z M282.8,26.2c0.1-2.8-0.6-5-1.9-6.6
			s-3.3-2.4-5.9-2.4c-1.3,0-2.5,0.2-3.5,0.7c-1,0.5-1.9,1.2-2.6,2c-0.7,0.8-1.2,1.8-1.6,2.9c-0.4,1.1-0.6,2.2-0.6,3.4H282.8z"/>
		<path class="st12" d="M309.3,34.8c0,1.3-0.2,2.4-0.7,3.4s-1.1,1.9-2,2.6c-0.9,0.7-1.9,1.2-3.1,1.6c-1.2,0.4-2.6,0.6-4,0.6
			c-0.9,0-1.8-0.1-2.6-0.2s-1.6-0.3-2.2-0.6c-0.7-0.2-1.2-0.5-1.7-0.7s-0.8-0.5-1-0.7c-0.2-0.2-0.4-0.4-0.5-0.7
			c-0.1-0.3-0.1-0.7-0.1-1.2c0-0.3,0-0.5,0.1-0.7s0.1-0.4,0.1-0.5s0.1-0.2,0.2-0.3s0.2-0.1,0.3-0.1c0.2,0,0.5,0.1,0.9,0.4
			c0.4,0.3,0.9,0.6,1.5,0.9s1.3,0.6,2.2,0.9c0.9,0.3,1.8,0.4,2.9,0.4c0.9,0,1.7-0.1,2.5-0.3c0.7-0.2,1.4-0.5,1.9-0.9
			c0.5-0.4,1-0.9,1.3-1.5c0.3-0.6,0.5-1.3,0.5-2.2s-0.2-1.5-0.6-2.1c-0.4-0.6-0.9-1.1-1.5-1.5c-0.6-0.4-1.4-0.8-2.2-1.1
			s-1.6-0.7-2.5-1s-1.7-0.7-2.5-1.1c-0.8-0.4-1.5-0.9-2.2-1.5c-0.6-0.6-1.1-1.3-1.5-2.1c-0.4-0.8-0.6-1.8-0.6-3
			c0-0.9,0.2-1.8,0.5-2.7c0.4-0.9,0.9-1.7,1.6-2.4s1.7-1.3,2.8-1.7c1.1-0.4,2.5-0.6,4.1-0.6c0.7,0,1.3,0.1,2,0.2
			c0.7,0.1,1.3,0.2,1.8,0.4c0.5,0.2,1,0.4,1.4,0.6c0.4,0.2,0.7,0.4,0.9,0.5c0.2,0.2,0.3,0.3,0.4,0.4s0.1,0.2,0.1,0.3
			c0,0.1,0.1,0.3,0.1,0.4s0,0.4,0,0.6c0,0.2,0,0.4,0,0.6c0,0.2-0.1,0.3-0.1,0.5s-0.1,0.2-0.2,0.3c-0.1,0.1-0.2,0.1-0.3,0.1
			c-0.2,0-0.4-0.1-0.7-0.3c-0.3-0.2-0.7-0.4-1.2-0.7c-0.5-0.3-1.1-0.5-1.8-0.7c-0.7-0.2-1.5-0.3-2.4-0.3s-1.7,0.1-2.4,0.3
			c-0.7,0.2-1.3,0.5-1.7,0.9c-0.5,0.4-0.8,0.9-1,1.4c-0.2,0.5-0.3,1.1-0.3,1.7c0,0.9,0.2,1.6,0.6,2.2c0.4,0.6,0.9,1.1,1.6,1.5
			s1.4,0.8,2.2,1.1c0.8,0.3,1.7,0.7,2.5,1c0.9,0.3,1.7,0.7,2.5,1.1s1.6,0.9,2.2,1.5c0.6,0.6,1.2,1.2,1.6,2S309.3,33.6,309.3,34.8z"
			/>
		<path class="st12" d="M331.8,34.8c0,1.3-0.2,2.4-0.7,3.4s-1.1,1.9-2,2.6c-0.9,0.7-1.9,1.2-3.1,1.6c-1.2,0.4-2.6,0.6-4,0.6
			c-0.9,0-1.8-0.1-2.6-0.2s-1.6-0.3-2.2-0.6c-0.7-0.2-1.2-0.5-1.7-0.7c-0.5-0.3-0.8-0.5-1-0.7c-0.2-0.2-0.4-0.4-0.5-0.7
			c-0.1-0.3-0.1-0.7-0.1-1.2c0-0.3,0-0.5,0.1-0.7s0.1-0.4,0.1-0.5s0.1-0.2,0.2-0.3c0.1-0.1,0.2-0.1,0.3-0.1c0.2,0,0.5,0.1,0.9,0.4
			c0.4,0.3,0.9,0.6,1.5,0.9s1.3,0.6,2.2,0.9c0.9,0.3,1.8,0.4,2.9,0.4c0.9,0,1.7-0.1,2.5-0.3c0.7-0.2,1.4-0.5,1.9-0.9
			c0.5-0.4,1-0.9,1.3-1.5c0.3-0.6,0.5-1.3,0.5-2.2s-0.2-1.5-0.6-2.1c-0.4-0.6-0.9-1.1-1.5-1.5c-0.6-0.4-1.4-0.8-2.2-1.1
			s-1.6-0.7-2.5-1s-1.7-0.7-2.5-1.1c-0.8-0.4-1.5-0.9-2.2-1.5c-0.6-0.6-1.1-1.3-1.5-2.1c-0.4-0.8-0.6-1.8-0.6-3
			c0-0.9,0.2-1.8,0.5-2.7c0.4-0.9,0.9-1.7,1.6-2.4s1.7-1.3,2.8-1.7c1.1-0.4,2.5-0.6,4.1-0.6c0.7,0,1.3,0.1,2,0.2
			c0.7,0.1,1.3,0.2,1.8,0.4c0.5,0.2,1,0.4,1.4,0.6c0.4,0.2,0.7,0.4,0.9,0.5c0.2,0.2,0.3,0.3,0.4,0.4s0.1,0.2,0.1,0.3
			c0,0.1,0.1,0.3,0.1,0.4s0,0.4,0,0.6c0,0.2,0,0.4,0,0.6c0,0.2-0.1,0.3-0.1,0.5s-0.1,0.2-0.2,0.3c-0.1,0.1-0.2,0.1-0.3,0.1
			c-0.2,0-0.4-0.1-0.7-0.3c-0.3-0.2-0.7-0.4-1.2-0.7c-0.5-0.3-1.1-0.5-1.8-0.7c-0.7-0.2-1.5-0.3-2.4-0.3s-1.7,0.1-2.4,0.3
			c-0.7,0.2-1.3,0.5-1.7,0.9c-0.5,0.4-0.8,0.9-1,1.4c-0.2,0.5-0.3,1.1-0.3,1.7c0,0.9,0.2,1.6,0.6,2.2c0.4,0.6,0.9,1.1,1.6,1.5
			s1.4,0.8,2.2,1.1c0.8,0.3,1.7,0.7,2.5,1c0.9,0.3,1.7,0.7,2.5,1.1s1.6,0.9,2.2,1.5c0.6,0.6,1.2,1.2,1.6,2S331.8,33.6,331.8,34.8z"
			/>
	</g>
</g>
</svg>
