<?xml version="1.0" encoding="utf-8"?>
<!-- Generator: Adobe Illustrator 20.1.0, SVG Export Plug-In . SVG Version: 6.00 Build 0)  -->
<svg version="1.1" id="Layer_1" xmlns="http://www.w3.org/2000/svg" xmlns:xlink="http://www.w3.org/1999/xlink" x="0px" y="0px"
	 viewBox="0 0 161.4 54.1" style="enable-background:new 0 0 161.4 54.1;" xml:space="preserve">
<style type="text/css">
	.st0{fill:#C6093B;}
	.st1{fill:#FFFFFF;}
	.st2{fill:none;}
	.st3{fill:url(#XMLID_2_);}
	.st4{fill:url(#XMLID_3_);}
	.st5{fill:url(#XMLID_4_);}
	.st6{fill:url(#XMLID_5_);}
	.st7{fill:url(#XMLID_6_);}
	.st8{fill:url(#XMLID_7_);}
	.st9{fill:url(#XMLID_8_);}
	.st10{fill:url(#XMLID_9_);}
	.st11{fill:url(#XMLID_10_);}
	.st12{fill:#00416A;}
</style>
<g>
	<g id="XMLID_194_">
		<g id="XMLID_257_">
			<path id="XMLID_278_" class="st0" d="M44.1,44.8c2.7,0,4.4-2.2,3.8-4.8l-0.6-2.5l-2.4-9.9"/>
			<path id="XMLID_277_" class="st0" d="M44.8,27.6V13.2c0-0.8-0.1-1.5-0.4-2.1c-0.1-0.2-0.2-0.5-0.3-0.7c-0.2-0.4-0.4-0.7-0.7-1
				c-0.5-0.5-1-0.9-1.6-1.2c-0.6-0.3-1.3-0.4-1.9-0.4H13.6c-0.7,0-1.3,0.2-1.9,0.4C11,8.4,10.5,8.8,10,9.3c-0.3,0.3-0.5,0.7-0.7,1
				c-0.1,0.2-0.3,0.5-0.3,0.7c-0.3,0.7-0.4,1.4-0.4,2.1v14.4C20.6,27.6,32.7,27.6,44.8,27.6z"/>
			<path id="XMLID_276_" class="st1" d="M8.6,27.6L8.6,27.6L8.6,27.6L8.6,27.6V42c0,0.8,0.1,1.5,0.4,2.2c0.1,0.2,0.2,0.5,0.3,0.7
				c0.2,0.4,0.4,0.7,0.7,1c0.5,0.5,1,0.9,1.6,1.2c0.6,0.3,1.3,0.4,1.9,0.4h26.2c0.7,0,1.3-0.2,1.9-0.4c0.6-0.3,1.1-0.7,1.6-1.2
				c0.3-0.3,0.5-0.7,0.7-1c0.1-0.2,0.3-0.5,0.3-0.7c0.3-0.7,0.4-1.4,0.4-2.2l0-14.4h0v0v0l0,0L8.6,27.6z"/>
			<line id="XMLID_275_" class="st2" x1="43.9" y1="37.5" x2="47.2" y2="37.5"/>
			<line id="XMLID_274_" class="st2" x1="8.8" y1="27.6" x2="44.8" y2="27.6"/>
			<path id="XMLID_273_" class="st0" d="M44.8,27.6L44.8,27.6L44.8,27.6l5.3-7.2c1.1-1.5-0.2-2.7-2.8-2.8"/>
			<path id="XMLID_272_" class="st1" d="M44.8,27.6l2.4-9.9l0.6-2.5c0.6-2.6-1.1-4.7-3.8-4.8"/>
			<path id="XMLID_271_" class="st1" d="M47.2,37.5c2.7,0,3.9-1.3,2.8-2.8l-5.3-7.2l0,0l0,0"/>
			
				<linearGradient id="XMLID_2_" gradientUnits="userSpaceOnUse" x1="143.6775" y1="29.4475" x2="143.6775" y2="29.4475" gradientTransform="matrix(-1 0 0 -1 188.4828 57.0345)">
				<stop  offset="0" style="stop-color:#C1633F"/>
				<stop  offset="1" style="stop-color:#942B24"/>
			</linearGradient>
			<polygon id="XMLID_270_" class="st3" points="44.8,27.6 44.8,27.6 44.8,27.6 			"/>
			
				<linearGradient id="XMLID_3_" gradientUnits="userSpaceOnUse" x1="143.6775" y1="29.4475" x2="143.6775" y2="29.4475" gradientTransform="matrix(-1 0 0 -1 188.4828 57.0345)">
				<stop  offset="0" style="stop-color:#C1633F"/>
				<stop  offset="1" style="stop-color:#942B24"/>
			</linearGradient>
			<polygon id="XMLID_269_" class="st4" points="44.8,27.6 44.8,27.6 44.8,27.6 			"/>
			
				<linearGradient id="XMLID_4_" gradientUnits="userSpaceOnUse" x1="143.6775" y1="29.4485" x2="143.6793" y2="29.4485" gradientTransform="matrix(-1 0 0 -1 188.4828 57.0345)">
				<stop  offset="0" style="stop-color:#C1633F"/>
				<stop  offset="1" style="stop-color:#942B24"/>
			</linearGradient>
			<polygon id="XMLID_268_" class="st5" points="44.8,27.6 44.8,27.6 44.8,27.6 44.8,27.6 44.8,27.6 			"/>
			
				<linearGradient id="XMLID_5_" gradientUnits="userSpaceOnUse" x1="143.6775" y1="29.4475" x2="143.6775" y2="29.4475" gradientTransform="matrix(-1 0 0 -1 188.4828 57.0345)">
				<stop  offset="0" style="stop-color:#C1633F"/>
				<stop  offset="1" style="stop-color:#942B24"/>
			</linearGradient>
			<circle id="XMLID_267_" class="st6" cx="44.8" cy="27.6" r="0"/>
			
				<linearGradient id="XMLID_6_" gradientUnits="userSpaceOnUse" x1="143.6775" y1="29.4475" x2="143.6775" y2="29.4475" gradientTransform="matrix(-1 0 0 -1 188.4828 57.0345)">
				<stop  offset="0" style="stop-color:#C1633F"/>
				<stop  offset="1" style="stop-color:#942B24"/>
			</linearGradient>
			<polygon id="XMLID_266_" class="st7" points="44.8,27.6 44.8,27.6 44.8,27.6 			"/>
			
				<linearGradient id="XMLID_7_" gradientUnits="userSpaceOnUse" x1="143.6775" y1="29.4475" x2="143.6793" y2="29.4475" gradientTransform="matrix(-1 0 0 -1 188.4828 57.0345)">
				<stop  offset="0" style="stop-color:#C1633F"/>
				<stop  offset="1" style="stop-color:#942B24"/>
			</linearGradient>
			<polygon id="XMLID_265_" class="st8" points="44.8,27.6 44.8,27.6 44.8,27.6 			"/>
			<path id="XMLID_264_" class="st1" d="M44.8,27.6l-2.4-9.9l-0.6-2.5c-0.6-2.6-3.4-4.8-6.2-4.8H18h-6.4h-2c0,0,0,0-0.1,0
				c-2.7,0-4.4,2.2-3.8,4.8l3.5,12.5"/>
			
				<linearGradient id="XMLID_8_" gradientUnits="userSpaceOnUse" x1="143.6775" y1="29.4475" x2="143.6793" y2="29.4475" gradientTransform="matrix(-1 0 0 -1 188.4828 57.0345)">
				<stop  offset="0" style="stop-color:#C1633F"/>
				<stop  offset="1" style="stop-color:#942B24"/>
			</linearGradient>
			<polygon id="XMLID_263_" class="st9" points="44.8,27.6 44.8,27.6 44.8,27.6 			"/>
			<path id="XMLID_262_" class="st0" d="M44.8,27.6l-2.4,9.9L41.8,40c-0.6,2.6-3.4,4.8-6.2,4.8l-26,0c0,0,0,0-0.1,0
				c-2.7,0-4.4-2.2-3.8-4.8l0.6-2.5c0.1,0,0.1,0,0.1,0l2.7-9.9"/>
			
				<linearGradient id="XMLID_9_" gradientUnits="userSpaceOnUse" x1="143.6775" y1="29.4475" x2="143.6793" y2="29.4475" gradientTransform="matrix(-1 0 0 -1 188.4828 57.0345)">
				<stop  offset="0" style="stop-color:#C1633F"/>
				<stop  offset="1" style="stop-color:#942B24"/>
			</linearGradient>
			<circle id="XMLID_261_" class="st10" cx="44.8" cy="27.6" r="0"/>
			
				<linearGradient id="XMLID_10_" gradientUnits="userSpaceOnUse" x1="143.6793" y1="29.4475" x2="143.6793" y2="29.4475" gradientTransform="matrix(-1 0 0 -1 188.4828 57.0345)">
				<stop  offset="0" style="stop-color:#C1633F"/>
				<stop  offset="1" style="stop-color:#942B24"/>
			</linearGradient>
			<polygon id="XMLID_260_" class="st11" points="44.8,27.6 44.8,27.6 44.8,27.6 			"/>
			<path id="XMLID_259_" class="st0" d="M44.8,27.6L44.8,27.6l-5.3-7.2c-1.1-1.5-4.3-2.8-7-2.8h-26c-0.1,0-0.1,0-0.1,0
				c-2.7,0-3.9,1.3-2.8,2.8l5.3,7.2l0,0"/>
			<path id="XMLID_258_" class="st1" d="M8.8,27.6l-5.3,7.2c-1.1,1.5,0.2,2.7,2.8,2.8c0.1,0,0.1,0,0.1,0h26c2.8,0,5.9-1.2,7-2.8
				l5.3-7.2"/>
		</g>
		<g id="XMLID_244_">
			<g id="XMLID_245_">
				<path id="XMLID_253_" class="st12" d="M88.4,36.4c0,1.3-0.2,2.5-0.5,3.6c-0.4,1.1-0.9,2-1.5,2.9c-0.6,0.8-1.4,1.5-2.3,2.1
					c-0.9,0.6-1.9,1.1-3,1.5c-1.1,0.4-2.2,0.7-3.5,0.9c-1.2,0.2-2.6,0.3-4.1,0.3h-10c-0.6,0-1.2-0.2-1.6-0.6c-0.4-0.4-0.7-1-0.7-1.8
					V12.6c0-0.8,0.2-1.5,0.7-1.8c0.4-0.4,1-0.6,1.6-0.6H73c2.3,0,4.2,0.2,5.8,0.6c1.6,0.4,2.9,1,4,1.8c1.1,0.8,1.9,1.8,2.5,3
					c0.6,1.2,0.9,2.6,0.9,4.2c0,0.9-0.1,1.8-0.3,2.6c-0.2,0.8-0.6,1.5-1,2.2c-0.4,0.7-1,1.2-1.6,1.7c-0.6,0.5-1.4,0.9-2.2,1.2
					c1.1,0.2,2,0.5,2.9,1c0.9,0.5,1.7,1.1,2.3,1.9c0.7,0.8,1.2,1.7,1.6,2.7C88.2,34,88.4,35.1,88.4,36.4z M78.6,20.6
					c0-0.8-0.1-1.4-0.3-2c-0.2-0.6-0.6-1.1-1-1.5c-0.5-0.4-1-0.7-1.8-0.9c-0.7-0.2-1.6-0.3-2.8-0.3h-3.8v9.7H73c1.1,0,2-0.1,2.6-0.4
					c0.7-0.3,1.2-0.6,1.6-1.1c0.4-0.5,0.8-1,1-1.6C78.5,22,78.6,21.3,78.6,20.6z M80.5,36.7c0-0.9-0.1-1.6-0.4-2.3
					c-0.3-0.7-0.7-1.3-1.3-1.7c-0.6-0.5-1.3-0.8-2.1-1.1c-0.9-0.2-2-0.4-3.4-0.4h-4.5v10.7h5.5c1.1,0,2-0.1,2.7-0.3
					c0.7-0.2,1.4-0.6,1.9-1c0.5-0.4,0.9-1,1.2-1.6C80.4,38.2,80.5,37.5,80.5,36.7z"/>
				<path id="XMLID_250_" class="st12" d="M99.6,12.1c0,1.5-0.3,2.5-0.9,3C98.1,15.7,97,16,95.3,16c-1.6,0-2.7-0.3-3.3-0.8
					c-0.6-0.5-0.9-1.5-0.9-2.9c0-1.5,0.3-2.5,0.9-3.1c0.6-0.6,1.7-0.9,3.3-0.9c1.6,0,2.7,0.3,3.3,0.8C99.3,9.7,99.6,10.7,99.6,12.1z
					 M99,46.7c0,0.2-0.1,0.4-0.2,0.5c-0.1,0.1-0.3,0.3-0.6,0.4c-0.3,0.1-0.7,0.2-1.1,0.2c-0.5,0-1.1,0.1-1.8,0.1
					c-0.7,0-1.3,0-1.8-0.1c-0.5,0-0.8-0.1-1.1-0.2c-0.3-0.1-0.5-0.2-0.6-0.4c-0.1-0.1-0.2-0.3-0.2-0.5V20.9c0-0.2,0.1-0.4,0.2-0.5
					c0.1-0.1,0.3-0.3,0.6-0.4c0.3-0.1,0.7-0.2,1.1-0.2c0.5-0.1,1.1-0.1,1.8-0.1c0.7,0,1.3,0,1.8,0.1c0.5,0.1,0.8,0.1,1.1,0.2
					c0.3,0.1,0.5,0.2,0.6,0.4c0.1,0.1,0.2,0.3,0.2,0.5V46.7z"/>
				<path id="XMLID_248_" class="st12" d="M145,46.7c0,0.2-0.1,0.4-0.2,0.5c-0.1,0.1-0.3,0.3-0.6,0.4c-0.3,0.1-0.6,0.2-1.1,0.2
					c-0.5,0-1.1,0.1-1.8,0.1c-0.7,0-1.3,0-1.8-0.1c-0.5,0-0.8-0.1-1.1-0.2c-0.3-0.1-0.5-0.2-0.6-0.4c-0.1-0.1-0.2-0.3-0.2-0.5V31.4
					c0-0.9-0.1-1.7-0.2-2.4c-0.2-0.7-0.4-1.3-0.8-1.8c-0.3-0.5-0.8-0.9-1.3-1.2c-0.5-0.3-1.1-0.4-1.8-0.4c-0.9,0-1.7,0.3-2.6,1
					c-0.9,0.7-1.9,1.7-2.9,3v17.2c0,0.2-0.1,0.4-0.2,0.5c-0.1,0.1-0.3,0.3-0.6,0.4c-0.3,0.1-0.7,0.2-1.1,0.2c-0.5,0-1,0.1-1.7,0.1
					c-0.7,0-1.3,0-1.8-0.1c-0.5,0-0.8-0.1-1.1-0.2c-0.3-0.1-0.5-0.2-0.6-0.4c-0.1-0.1-0.2-0.3-0.2-0.5V31.4c0-0.9-0.1-1.7-0.2-2.4
					c-0.2-0.7-0.4-1.3-0.7-1.8c-0.3-0.5-0.8-0.9-1.3-1.2c-0.5-0.3-1.1-0.4-1.8-0.4c-0.9,0-1.8,0.3-2.7,1c-0.9,0.7-1.8,1.7-2.9,3
					v17.2c0,0.2-0.1,0.4-0.2,0.5c-0.1,0.1-0.3,0.3-0.6,0.4c-0.3,0.1-0.7,0.2-1.1,0.2c-0.5,0-1.1,0.1-1.8,0.1c-0.7,0-1.3,0-1.8-0.1
					c-0.5,0-0.8-0.1-1.1-0.2c-0.3-0.1-0.5-0.2-0.6-0.4c-0.1-0.1-0.2-0.3-0.2-0.5V20.8c0-0.2,0-0.4,0.1-0.5c0.1-0.1,0.3-0.3,0.5-0.4
					c0.3-0.1,0.6-0.2,1-0.2c0.4,0,0.9-0.1,1.5-0.1c0.6,0,1.1,0,1.5,0.1c0.4,0,0.7,0.1,0.9,0.2c0.2,0.1,0.4,0.2,0.5,0.4
					c0.1,0.1,0.1,0.3,0.1,0.5v3c1.4-1.5,2.9-2.7,4.3-3.5c1.4-0.8,2.9-1.2,4.4-1.2c1.1,0,2,0.1,2.9,0.3c0.8,0.2,1.6,0.5,2.3,1
					c0.7,0.4,1.2,0.9,1.7,1.5c0.5,0.6,0.9,1.2,1.2,1.9c0.8-0.8,1.5-1.5,2.3-2.1c0.7-0.6,1.5-1.1,2.2-1.5c0.7-0.4,1.4-0.7,2.2-0.8
					c0.7-0.2,1.5-0.3,2.2-0.3c1.7,0,3.2,0.3,4.3,0.9c1.2,0.6,2.1,1.4,2.9,2.4c0.7,1,1.2,2.2,1.5,3.5c0.3,1.3,0.5,2.7,0.5,4.2V46.7z"
					/>
				<path id="XMLID_246_" class="st12" d="M157,46.7c0,0.2-0.1,0.4-0.2,0.5c-0.1,0.1-0.3,0.3-0.6,0.4c-0.3,0.1-0.7,0.2-1.1,0.2
					c-0.5,0-1.1,0.1-1.8,0.1c-0.7,0-1.3,0-1.8-0.1c-0.5,0-0.8-0.1-1.1-0.2c-0.3-0.1-0.5-0.2-0.6-0.4c-0.1-0.1-0.2-0.3-0.2-0.5V8.6
					c0-0.2,0.1-0.4,0.2-0.5c0.1-0.2,0.3-0.3,0.6-0.4c0.3-0.1,0.7-0.2,1.1-0.2c0.5-0.1,1.1-0.1,1.8-0.1c0.7,0,1.3,0,1.8,0.1
					c0.5,0.1,0.8,0.1,1.1,0.2c0.3,0.1,0.5,0.2,0.6,0.4c0.1,0.2,0.2,0.3,0.2,0.5V46.7z"/>
			</g>
		</g>
	</g>
</g>
</svg>
