<?xml version="1.0" encoding="utf-8"?>
<!-- Generator: Adobe Illustrator 21.0.0, SVG Export Plug-In . SVG Version: 6.00 Build 0)  -->
<svg version="1.1"
	 id="Layer_1" inkscape:version="0.92.2 (5c3e80d, 2017-08-06)" sodipodi:docname="bimlflex-icon.svg" xmlns:cc="http://creativecommons.org/ns#" xmlns:dc="http://purl.org/dc/elements/1.1/" xmlns:inkscape="http://www.inkscape.org/namespaces/inkscape" xmlns:rdf="http://www.w3.org/1999/02/22-rdf-syntax-ns#" xmlns:sodipodi="http://sodipodi.sourceforge.net/DTD/sodipodi-0.dtd" xmlns:svg="http://www.w3.org/2000/svg"
	 xmlns="http://www.w3.org/2000/svg" xmlns:xlink="http://www.w3.org/1999/xlink" x="0px" y="0px" viewBox="0 0 43.1 50.8"
	 style="enable-background:new 0 0 43.1 50.8;" xml:space="preserve">
<style type="text/css">
	.st0{fill:#C6093B;}
	.st1{fill:#00416A;}
</style>
<sodipodi:namedview  bordercolor="#666666" borderopacity="1" gridtolerance="10" guidetolerance="10" id="namedview3775" inkscape:current-layer="Layer_1" inkscape:cx="63.687644" inkscape:cy="32.400002" inkscape:measure-end="249.438,-1.68539" inkscape:measure-start="148.876,-16.8539" inkscape:pageopacity="0" inkscape:pageshadow="2" inkscape:window-height="1137" inkscape:window-maximized="1" inkscape:window-width="1920" inkscape:window-x="1912" inkscape:window-y="-8" inkscape:zoom="1.78" objecttolerance="10" pagecolor="#ffffff" showgrid="false">
	</sodipodi:namedview>
<g id="g3770" transform="translate(-0.98065379,-4.0655571)">
	<path id="path3764" inkscape:connector-curvature="0" class="st0" d="M38,21.1L20.9,38.2C17.1,42,11,42,7.2,38.2l-0.1-0.1L24.2,21
		C28,17.2,34.1,17.2,38,21.1z"/>
	<path id="path3766" inkscape:connector-curvature="0" class="st1" d="M18.1,45.4l-1.8-1.9c-0.3-0.3-0.9-0.1-0.9,0.4v10
		c0,0.6,0.5,1,1,1h10c0.5,0,0.7-0.6,0.4-0.9l-1.7-1.7L42,35.4c2.8-2.8,2.8-7.5,0-10.3l-1.8-1.8L18.1,45.4z"/>
	<path id="path3768" inkscape:connector-curvature="0" class="st1" d="M28.7,4.1h-10c-0.5,0-0.7,0.6-0.4,0.9l1.8,1.8l-17,17
		c-2.8,2.8-2.8,7.5,0,10.3l1.8,1.8l22.2-22.2l1.8,1.8c0.3,0.3,0.9,0.1,0.9-0.4v-10C29.7,4.6,29.3,4.1,28.7,4.1z"/>
</g>
</svg>
