<?xml version="1.0" encoding="iso-8859-1"?>
<!-- Generator: Adobe Illustrator 24.1.1, SVG Export Plug-In . SVG Version: 6.00 Build 0)  -->
<svg version="1.1" xmlns="http://www.w3.org/2000/svg" xmlns:xlink="http://www.w3.org/1999/xlink" x="0px" y="0px"
	 viewBox="0 0 16 16" style="enable-background:new 0 0 16 16;" xml:space="preserve">
<g id="biml-catalog-connection">
	<g>
		<path style="fill:#555555;" d="M15.175,10.469V7.288L13.82,6.945c-0.023-0.059-0.046-0.118-0.071-0.176l0.718-1.218l-2.214-2.249
			l-1.199,0.731c-0.057-0.025-0.115-0.049-0.172-0.072l-0.338-1.377H8.739v1.491h0.658l0.258,1.051l0.401,0.122
			c0.236,0.071,0.468,0.168,0.689,0.289l0.367,0.199l0.911-0.556l0.596,0.604l-0.547,0.928l0.198,0.374
			c0.116,0.219,0.211,0.454,0.283,0.7l0.12,0.405l1.034,0.263v0.853l-1.035,0.263l-0.12,0.406c-0.072,0.244-0.168,0.479-0.283,0.698
			l-0.199,0.374l0.549,0.928l-0.596,0.604l-0.912-0.558l-0.368,0.202c-0.216,0.118-0.447,0.215-0.688,0.288l-0.4,0.122l-0.258,1.051
			H8.739v1.49h1.804l0.339-1.377c0.057-0.023,0.115-0.047,0.172-0.072l1.199,0.731l2.214-2.249l-0.719-1.218
			c0.025-0.057,0.048-0.116,0.071-0.174L15.175,10.469z"/>
		<path style="fill:#555555;" d="M8.981,10.212H8.735v1.548h0.246c1.557,0,2.824-1.287,2.824-2.869s-1.267-2.868-2.824-2.868H8.735
			V7.57h0.246c0.717,0,1.3,0.592,1.3,1.321C10.281,9.619,9.698,10.212,8.981,10.212z"/>
	</g>
	<g>
		<polygon style="fill:#555555;" points="4.853,0.825 4.853,13.106 4.853,13.808 4.853,15.175 7.93,15.175 7.93,14.492 7.93,13.808 
			7.93,0.825 		"/>
		<polygon style="fill:#555555;" points="0.825,4.924 0.825,13.807 0.825,15.173 3.902,15.173 3.902,13.807 3.902,13.104 
			3.902,4.924 		"/>
	</g>
</g>
<g id="Layer_1">
</g>
</svg>
