<?xml version="1.0" encoding="utf-8"?>
<!-- Generator: Adobe Illustrator 23.0.1, SVG Export Plug-In . SVG Version: 6.00 Build 0)  -->
<svg version="1.1" id="Layer_1" xmlns="http://www.w3.org/2000/svg" xmlns:xlink="http://www.w3.org/1999/xlink" x="0px" y="0px"
	 viewBox="0 0 800 220" style="enable-background:new 0 0 800 220;" xml:space="preserve">
<style type="text/css">
	.st0{fill:#C40D3C;}
	.st1{fill:#00416B;}
</style>
<g>
	<path class="st0" d="M216.3,193.2c0,3.5-0.4,6.6-1.3,9.3c-0.9,2.6-2.2,4.8-3.9,6.6s-3.8,3-6.3,3.9c-2.5,0.9-5.5,1.3-8.9,1.3h-8.5
		c-0.5,0-0.9-0.2-1.4-0.5c-0.4-0.3-0.6-0.9-0.6-1.7v-36.5c0-0.8,0.2-1.4,0.6-1.7c0.4-0.3,0.9-0.5,1.4-0.5h9.1c3.5,0,6.4,0.5,8.9,1.4
		c2.4,0.9,4.4,2.2,6.1,4c1.6,1.7,2.9,3.8,3.7,6.2C215.8,187.4,216.3,190.1,216.3,193.2z M210.6,193.4c0-2.2-0.3-4.3-0.8-6.2
		c-0.5-1.9-1.4-3.6-2.5-5c-1.2-1.4-2.6-2.5-4.4-3.3s-4-1.2-6.8-1.2h-5.5v31.9h5.5c2.6,0,4.8-0.3,6.5-1c1.8-0.7,3.2-1.7,4.4-3
		c1.2-1.3,2.1-3,2.7-5.1C210.3,198.6,210.6,196.2,210.6,193.4z"/>
	<path class="st0" d="M252.2,212.3c0.2,0.5,0.3,0.8,0.3,1.1c0,0.3-0.1,0.5-0.2,0.6c-0.2,0.1-0.4,0.2-0.8,0.3c-0.4,0-0.9,0.1-1.5,0.1
		s-1.2,0-1.5,0c-0.4,0-0.7-0.1-0.9-0.2s-0.3-0.2-0.4-0.3c-0.1-0.1-0.2-0.3-0.3-0.5l-3.5-10h-16.8l-3.3,9.8c-0.1,0.2-0.1,0.4-0.3,0.5
		c-0.1,0.1-0.3,0.3-0.5,0.3c-0.2,0.1-0.5,0.2-0.8,0.2c-0.4,0-0.8,0.1-1.4,0.1c-0.6,0-1.1,0-1.5-0.1c-0.4-0.1-0.7-0.2-0.8-0.3
		c-0.2-0.1-0.2-0.4-0.2-0.6c0-0.3,0.1-0.7,0.3-1.1l13.5-38c0.1-0.2,0.2-0.4,0.3-0.6c0.1-0.1,0.3-0.3,0.6-0.3c0.3-0.1,0.6-0.1,1-0.2
		c0.4,0,0.9,0,1.5,0c0.7,0,1.2,0,1.7,0c0.4,0,0.8,0.1,1.1,0.2s0.5,0.2,0.6,0.4c0.1,0.2,0.3,0.4,0.3,0.6L252.2,212.3z M234.8,178.8
		L234.8,178.8l-7,20.4h14L234.8,178.8z"/>
	<path class="st0" d="M277.7,175.7c0,0.4,0,0.7-0.1,1c0,0.3-0.1,0.5-0.2,0.7c-0.1,0.2-0.2,0.3-0.3,0.4c-0.1,0.1-0.3,0.1-0.5,0.1
		h-11.4v35.5c0,0.2,0,0.3-0.1,0.4s-0.2,0.2-0.4,0.3c-0.2,0.1-0.5,0.1-0.8,0.2c-0.3,0.1-0.8,0.1-1.3,0.1c-0.5,0-0.9,0-1.3-0.1
		c-0.4-0.1-0.6-0.1-0.8-0.2s-0.4-0.2-0.4-0.3s-0.1-0.3-0.1-0.4V178h-11.4c-0.2,0-0.3,0-0.5-0.1c-0.1-0.1-0.2-0.2-0.3-0.4
		c-0.1-0.2-0.2-0.4-0.2-0.7c-0.1-0.3-0.1-0.6-0.1-1c0-0.4,0-0.8,0.1-1.1c0.1-0.3,0.1-0.6,0.2-0.7c0.1-0.2,0.2-0.3,0.3-0.4
		c0.1-0.1,0.3-0.1,0.5-0.1h28.1c0.2,0,0.3,0,0.5,0.1c0.1,0.1,0.3,0.2,0.3,0.4c0.1,0.2,0.2,0.4,0.2,0.7
		C277.6,174.9,277.7,175.3,277.7,175.7z"/>
	<path class="st0" d="M307.1,212.3c0.2,0.5,0.3,0.8,0.3,1.1c0,0.3-0.1,0.5-0.2,0.6c-0.2,0.1-0.4,0.2-0.8,0.3c-0.4,0-0.9,0.1-1.5,0.1
		c-0.6,0-1.2,0-1.5,0c-0.4,0-0.7-0.1-0.9-0.2s-0.3-0.2-0.4-0.3c-0.1-0.1-0.2-0.3-0.3-0.5l-3.5-10h-16.8l-3.3,9.8
		c-0.1,0.2-0.1,0.4-0.3,0.5c-0.1,0.1-0.3,0.3-0.5,0.3c-0.2,0.1-0.5,0.2-0.8,0.2c-0.4,0-0.8,0.1-1.4,0.1c-0.6,0-1.1,0-1.5-0.1
		c-0.4-0.1-0.7-0.2-0.8-0.3c-0.2-0.1-0.2-0.4-0.2-0.6c0-0.3,0.1-0.7,0.3-1.1l13.5-38c0.1-0.2,0.2-0.4,0.3-0.6
		c0.1-0.1,0.3-0.3,0.6-0.3c0.3-0.1,0.6-0.1,1-0.2c0.4,0,0.9,0,1.5,0c0.7,0,1.2,0,1.7,0c0.4,0,0.8,0.1,1.1,0.2s0.5,0.2,0.6,0.4
		c0.1,0.2,0.3,0.4,0.3,0.6L307.1,212.3z M289.7,178.8L289.7,178.8l-7,20.4h14L289.7,178.8z"/>
	<path class="st0" d="M361.2,212.3c0.2,0.5,0.3,0.8,0.3,1.1c0,0.3-0.1,0.5-0.2,0.6c-0.2,0.1-0.4,0.2-0.8,0.3c-0.4,0-0.9,0.1-1.5,0.1
		s-1.2,0-1.5,0c-0.4,0-0.7-0.1-0.9-0.2s-0.3-0.2-0.4-0.3c-0.1-0.1-0.2-0.3-0.3-0.5l-3.5-10h-16.8l-3.3,9.8c-0.1,0.2-0.1,0.4-0.3,0.5
		c-0.1,0.1-0.3,0.3-0.5,0.3c-0.2,0.1-0.5,0.2-0.8,0.2c-0.4,0-0.8,0.1-1.4,0.1c-0.6,0-1.1,0-1.5-0.1c-0.4-0.1-0.7-0.2-0.8-0.3
		c-0.2-0.1-0.2-0.4-0.2-0.6c0-0.3,0.1-0.7,0.3-1.1l13.5-38c0.1-0.2,0.2-0.4,0.3-0.6c0.1-0.1,0.3-0.3,0.6-0.3c0.3-0.1,0.6-0.1,1-0.2
		c0.4,0,0.9,0,1.5,0c0.7,0,1.2,0,1.7,0c0.4,0,0.8,0.1,1.1,0.2s0.5,0.2,0.6,0.4c0.1,0.2,0.3,0.4,0.3,0.6L361.2,212.3z M343.8,178.8
		L343.8,178.8l-7,20.4h14L343.8,178.8z"/>
	<path class="st0" d="M395.7,199.1c0,2.5-0.4,4.7-1.1,6.7c-0.7,2-1.7,3.6-3.1,4.9c-1.3,1.4-3,2.4-4.9,3.1s-4.1,1-6.5,1
		c-2.2,0-4.3-0.3-6.1-1c-1.8-0.7-3.4-1.6-4.7-2.9c-1.3-1.3-2.3-2.9-3-4.8s-1.1-4.1-1.1-6.6v-25.4c0-0.2,0-0.3,0.1-0.4
		c0.1-0.1,0.2-0.2,0.4-0.3s0.5-0.1,0.8-0.2c0.3-0.1,0.8-0.1,1.3-0.1c0.5,0,0.9,0,1.3,0.1c0.4,0.1,0.6,0.1,0.8,0.2
		c0.2,0.1,0.3,0.2,0.4,0.3c0.1,0.1,0.1,0.3,0.1,0.4v24.7c0,1.9,0.2,3.6,0.7,5s1.1,2.6,2,3.5c0.9,0.9,1.9,1.6,3.1,2.1
		c1.2,0.5,2.6,0.7,4.1,0.7c1.6,0,2.9-0.2,4.2-0.7s2.2-1.2,3.1-2.1s1.5-2.1,1.9-3.4c0.4-1.4,0.7-3,0.7-4.8v-25c0-0.2,0-0.3,0.1-0.4
		c0.1-0.1,0.2-0.2,0.4-0.3s0.5-0.1,0.8-0.2c0.3-0.1,0.8-0.1,1.3-0.1c0.5,0,0.9,0,1.3,0.1c0.3,0.1,0.6,0.1,0.8,0.2
		c0.2,0.1,0.3,0.2,0.4,0.3c0.1,0.1,0.1,0.3,0.1,0.4L395.7,199.1L395.7,199.1z"/>
	<path class="st0" d="M430,175.7c0,0.4,0,0.7-0.1,1c0,0.3-0.1,0.5-0.2,0.7c-0.1,0.2-0.2,0.3-0.3,0.4c-0.1,0.1-0.3,0.1-0.5,0.1h-11.4
		v35.5c0,0.2,0,0.3-0.1,0.4c-0.1,0.1-0.2,0.2-0.4,0.3c-0.2,0.1-0.5,0.1-0.8,0.2c-0.3,0.1-0.8,0.1-1.3,0.1c-0.5,0-0.9,0-1.3-0.1
		c-0.4-0.1-0.6-0.1-0.8-0.2s-0.4-0.2-0.4-0.3s-0.1-0.3-0.1-0.4V178h-11.4c-0.2,0-0.3,0-0.5-0.1c-0.1-0.1-0.2-0.2-0.3-0.4
		c-0.1-0.2-0.2-0.4-0.2-0.7c-0.1-0.3-0.1-0.6-0.1-1c0-0.4,0-0.8,0.1-1.1c0.1-0.3,0.1-0.6,0.2-0.7c0.1-0.2,0.2-0.3,0.3-0.4
		c0.1-0.1,0.3-0.1,0.5-0.1H429c0.2,0,0.3,0,0.5,0.1c0.1,0.1,0.2,0.2,0.3,0.4c0.1,0.2,0.2,0.4,0.2,0.7C430,174.9,430,175.3,430,175.7
		z"/>
	<path class="st0" d="M466.3,193.3c0,3.3-0.4,6.3-1.2,9c-0.8,2.7-1.9,4.9-3.4,6.8c-1.5,1.9-3.4,3.3-5.8,4.3s-5,1.5-8.1,1.5
		c-3,0-5.7-0.5-7.9-1.4c-2.2-0.9-4-2.3-5.5-4c-1.4-1.7-2.5-3.9-3.2-6.5c-0.7-2.6-1.1-5.6-1.1-9c0-3.2,0.4-6.2,1.2-8.8
		s1.9-4.9,3.5-6.7c1.5-1.8,3.5-3.3,5.8-4.3c2.3-1,5-1.5,8.1-1.5c3,0,5.6,0.5,7.8,1.4c2.2,0.9,4,2.2,5.5,4s2.6,3.9,3.3,6.5
		C465.9,187.1,466.3,190,466.3,193.3z M460.6,193.7c0-2.3-0.2-4.5-0.6-6.5c-0.4-2-1.1-3.7-2-5.2s-2.2-2.6-3.8-3.4
		c-1.6-0.8-3.5-1.2-5.9-1.2c-2.3,0-4.3,0.4-5.9,1.3c-1.6,0.9-2.9,2.1-3.8,3.5s-1.7,3.2-2.1,5.2c-0.4,2-0.6,4-0.6,6.2
		c0,2.4,0.2,4.6,0.6,6.6c0.4,2,1.1,3.8,2,5.2s2.2,2.6,3.8,3.4c1.6,0.8,3.5,1.2,5.9,1.2c2.3,0,4.3-0.4,5.9-1.3
		c1.6-0.9,2.9-2.1,3.9-3.6c1-1.5,1.7-3.3,2.1-5.2C460.4,198,460.6,195.9,460.6,193.7z"/>
	<path class="st0" d="M517,213.4c0,0.2,0,0.3-0.1,0.4s-0.2,0.2-0.5,0.3c-0.2,0.1-0.5,0.1-0.8,0.2c-0.3,0.1-0.8,0.1-1.3,0.1
		c-0.5,0-0.9,0-1.3-0.1c-0.4-0.1-0.6-0.1-0.8-0.2s-0.3-0.2-0.4-0.3s-0.1-0.3-0.1-0.4v-35.6h-0.1l-14.2,35.8
		c-0.1,0.1-0.2,0.3-0.3,0.4s-0.3,0.2-0.5,0.3c-0.2,0.1-0.5,0.1-0.8,0.2c-0.3,0-0.7,0-1.1,0c-0.4,0-0.8,0-1.1-0.1
		c-0.3,0-0.6-0.1-0.8-0.2c-0.2-0.1-0.4-0.2-0.5-0.3c-0.1-0.1-0.2-0.2-0.2-0.3l-13.6-35.8h0v35.6c0,0.2,0,0.3-0.1,0.4
		s-0.2,0.2-0.5,0.3c-0.2,0.1-0.5,0.1-0.8,0.2c-0.3,0.1-0.8,0.1-1.3,0.1c-0.5,0-0.9,0-1.3-0.1c-0.3-0.1-0.6-0.1-0.8-0.2
		s-0.3-0.2-0.4-0.3s-0.1-0.3-0.1-0.4v-37.6c0-0.9,0.2-1.5,0.7-1.9c0.5-0.4,1-0.6,1.6-0.6h3.3c0.7,0,1.3,0.1,1.8,0.2
		c0.5,0.1,0.9,0.3,1.3,0.6c0.4,0.3,0.7,0.6,1,1c0.3,0.4,0.5,0.9,0.7,1.5l11.5,29.6h0.2l12-29.5c0.2-0.6,0.5-1.2,0.8-1.6
		c0.3-0.4,0.6-0.8,0.9-1.1c0.3-0.3,0.7-0.5,1.1-0.6c0.4-0.1,0.9-0.2,1.4-0.2h3.5c0.3,0,0.6,0,0.9,0.1c0.3,0.1,0.5,0.2,0.7,0.4
		c0.2,0.2,0.4,0.5,0.5,0.8s0.2,0.7,0.2,1.1L517,213.4L517,213.4z"/>
	<path class="st0" d="M556.4,212.3c0.2,0.5,0.3,0.8,0.3,1.1c0,0.3-0.1,0.5-0.2,0.6c-0.2,0.1-0.4,0.2-0.8,0.3c-0.4,0-0.9,0.1-1.5,0.1
		c-0.6,0-1.2,0-1.5,0c-0.4,0-0.7-0.1-0.9-0.2s-0.3-0.2-0.4-0.3c-0.1-0.1-0.2-0.3-0.3-0.5l-3.5-10h-16.8l-3.3,9.8
		c-0.1,0.2-0.1,0.4-0.3,0.5c-0.1,0.1-0.3,0.3-0.5,0.3c-0.2,0.1-0.5,0.2-0.8,0.2c-0.4,0-0.8,0.1-1.4,0.1c-0.6,0-1.1,0-1.5-0.1
		c-0.4-0.1-0.7-0.2-0.8-0.3c-0.2-0.1-0.2-0.4-0.2-0.6s0.1-0.7,0.3-1.1l13.5-38c0.1-0.2,0.2-0.4,0.3-0.6c0.1-0.1,0.3-0.3,0.6-0.3
		s0.6-0.1,1-0.2c0.4,0,0.9,0,1.5,0c0.7,0,1.2,0,1.7,0c0.4,0,0.8,0.1,1.1,0.2s0.5,0.2,0.6,0.4c0.1,0.2,0.3,0.4,0.3,0.6L556.4,212.3z
		 M539,178.8L539,178.8l-7,20.4h14L539,178.8z"/>
	<path class="st0" d="M591.4,178.9c0,0.4,0,0.8-0.1,1.1c0,0.3-0.1,0.6-0.2,0.8c-0.1,0.2-0.2,0.3-0.3,0.4s-0.3,0.1-0.4,0.1
		c-0.2,0-0.7-0.2-1.2-0.6c-0.6-0.4-1.4-0.8-2.3-1.3c-1-0.5-2.1-0.9-3.5-1.3c-1.4-0.4-3-0.6-4.8-0.6c-2.2,0-4.2,0.4-6,1.2
		c-1.8,0.8-3.3,2-4.5,3.4c-1.2,1.5-2.2,3.2-2.8,5.2c-0.7,2-1,4.2-1,6.5c0,2.6,0.4,4.9,1.1,7c0.7,2,1.7,3.7,3,5.1
		c1.3,1.4,2.8,2.4,4.5,3.2c1.8,0.7,3.7,1.1,5.8,1.1c1.2,0,2.5-0.2,3.8-0.5c1.3-0.3,2.5-0.8,3.6-1.4v-11.9h-9.4
		c-0.4,0-0.6-0.2-0.8-0.5c-0.2-0.4-0.3-0.9-0.3-1.7c0-0.4,0-0.7,0.1-1c0-0.3,0.1-0.5,0.2-0.7c0.1-0.2,0.2-0.3,0.3-0.4
		c0.1-0.1,0.3-0.1,0.5-0.1h12.8c0.2,0,0.5,0,0.7,0.1c0.2,0.1,0.4,0.2,0.6,0.4s0.3,0.4,0.4,0.7c0.1,0.3,0.2,0.6,0.2,1v15.6
		c0,0.5-0.1,1-0.3,1.4c-0.2,0.4-0.6,0.8-1.2,1.1c-0.6,0.3-1.4,0.6-2.3,1c-1,0.4-1.9,0.7-3,0.9c-1,0.3-2,0.4-3.1,0.6
		c-1,0.1-2.1,0.2-3.1,0.2c-3.1,0-5.9-0.5-8.4-1.5c-2.5-1-4.5-2.4-6.2-4.2c-1.7-1.8-3-4-3.9-6.5c-0.9-2.5-1.3-5.4-1.3-8.5
		c0-3.2,0.5-6.2,1.5-8.8c1-2.6,2.3-4.9,4.1-6.7c1.8-1.9,3.9-3.3,6.3-4.3c2.5-1,5.2-1.5,8.2-1.5c1.5,0,3,0.1,4.3,0.4s2.6,0.6,3.6,1
		c1,0.4,1.9,0.8,2.7,1.2c0.7,0.4,1.2,0.8,1.5,1.1s0.5,0.6,0.6,0.9C591.3,177.7,591.4,178.2,591.4,178.9z"/>
	<path class="st0" d="M605.1,213.4c0,0.2,0,0.3-0.1,0.4c-0.1,0.1-0.2,0.2-0.4,0.3c-0.2,0.1-0.5,0.1-0.8,0.2
		c-0.3,0.1-0.8,0.1-1.3,0.1c-0.5,0-0.9,0-1.3-0.1c-0.4-0.1-0.6-0.1-0.8-0.2c-0.2-0.1-0.4-0.2-0.4-0.3c-0.1-0.1-0.1-0.3-0.1-0.4
		v-39.3c0-0.2,0-0.3,0.1-0.4s0.3-0.2,0.5-0.3c0.2-0.1,0.5-0.1,0.8-0.2c0.3-0.1,0.8-0.1,1.2-0.1c0.5,0,1,0,1.3,0.1
		c0.3,0.1,0.6,0.1,0.8,0.2s0.4,0.2,0.4,0.3c0.1,0.1,0.1,0.3,0.1,0.4L605.1,213.4L605.1,213.4z"/>
	<path class="st0" d="M641.2,208.5c0,0.3,0,0.6,0,0.9c0,0.3-0.1,0.5-0.1,0.7c-0.1,0.2-0.1,0.4-0.2,0.5c-0.1,0.1-0.2,0.3-0.4,0.5
		c-0.2,0.2-0.6,0.5-1.3,1c-0.7,0.4-1.5,0.9-2.5,1.3c-1,0.4-2.1,0.8-3.4,1s-2.7,0.4-4.2,0.4c-2.6,0-5-0.4-7.1-1.3
		c-2.1-0.9-3.9-2.2-5.4-3.9c-1.5-1.7-2.6-3.9-3.4-6.4c-0.8-2.5-1.2-5.5-1.2-8.8c0-3.4,0.4-6.4,1.3-9.1c0.9-2.7,2.1-4.9,3.6-6.8
		c1.6-1.8,3.4-3.3,5.6-4.2s4.6-1.5,7.2-1.5c1.2,0,2.3,0.1,3.4,0.3c1.1,0.2,2.1,0.5,3.1,0.8c0.9,0.3,1.8,0.7,2.5,1.2
		c0.7,0.4,1.2,0.8,1.5,1.1c0.3,0.3,0.5,0.5,0.5,0.6c0.1,0.1,0.2,0.3,0.2,0.5c0.1,0.2,0.1,0.4,0.1,0.7c0,0.3,0,0.6,0,1
		c0,0.4,0,0.8-0.1,1.1c0,0.3-0.1,0.5-0.2,0.7s-0.2,0.3-0.3,0.4c-0.1,0.1-0.3,0.1-0.4,0.1c-0.3,0-0.7-0.2-1.2-0.6s-1.2-0.9-2-1.4
		c-0.8-0.5-1.8-0.9-3-1.4c-1.2-0.4-2.6-0.6-4.2-0.6c-1.8,0-3.4,0.4-4.9,1.1c-1.5,0.7-2.7,1.8-3.8,3.2c-1,1.4-1.9,3.1-2.4,5.2
		c-0.6,2-0.9,4.4-0.9,7c0,2.6,0.3,4.9,0.8,6.9c0.6,2,1.3,3.7,2.4,5c1,1.3,2.3,2.4,3.8,3c1.5,0.7,3.2,1,5.1,1c1.6,0,3-0.2,4.2-0.6
		c1.2-0.4,2.2-0.8,3.1-1.3c0.8-0.5,1.5-0.9,2.1-1.3s1-0.6,1.3-0.6c0.1,0,0.3,0,0.4,0.1c0.1,0.1,0.2,0.2,0.3,0.4
		c0.1,0.2,0.1,0.4,0.1,0.7C641.2,207.6,641.2,208,641.2,208.5z"/>
	<path class="st0" d="M676.9,212.3c0.2,0.5,0.3,0.8,0.3,1.1c0,0.3-0.1,0.5-0.2,0.6c-0.2,0.1-0.4,0.2-0.8,0.3c-0.4,0-0.9,0.1-1.5,0.1
		c-0.6,0-1.2,0-1.5,0c-0.4,0-0.7-0.1-0.9-0.2c-0.2-0.1-0.3-0.2-0.4-0.3c-0.1-0.1-0.2-0.3-0.3-0.5l-3.5-10h-16.8l-3.3,9.8
		c-0.1,0.2-0.1,0.4-0.3,0.5c-0.1,0.1-0.3,0.3-0.5,0.3c-0.2,0.1-0.5,0.2-0.8,0.2c-0.4,0-0.8,0.1-1.4,0.1c-0.6,0-1.1,0-1.5-0.1
		c-0.4-0.1-0.7-0.2-0.8-0.3c-0.2-0.1-0.2-0.4-0.2-0.6s0.1-0.7,0.3-1.1l13.5-38c0.1-0.2,0.2-0.4,0.3-0.6c0.1-0.1,0.3-0.3,0.6-0.3
		s0.6-0.1,1-0.2c0.4,0,0.9,0,1.5,0c0.7,0,1.2,0,1.7,0c0.4,0,0.8,0.1,1.1,0.2s0.5,0.2,0.6,0.4c0.1,0.2,0.3,0.4,0.3,0.6L676.9,212.3z
		 M659.5,178.8L659.5,178.8l-7,20.4h14L659.5,178.8z"/>
	<path class="st0" d="M702.4,175.7c0,0.4,0,0.7-0.1,1c0,0.3-0.1,0.5-0.2,0.7c-0.1,0.2-0.2,0.3-0.3,0.4c-0.1,0.1-0.3,0.1-0.5,0.1
		h-11.4v35.5c0,0.2,0,0.3-0.1,0.4s-0.2,0.2-0.4,0.3s-0.5,0.1-0.8,0.2c-0.3,0.1-0.8,0.1-1.3,0.1c-0.5,0-0.9,0-1.3-0.1
		c-0.4-0.1-0.6-0.1-0.8-0.2s-0.4-0.2-0.4-0.3s-0.1-0.3-0.1-0.4V178h-11.4c-0.2,0-0.3,0-0.5-0.1c-0.1-0.1-0.2-0.2-0.3-0.4
		c-0.1-0.2-0.2-0.4-0.2-0.7c-0.1-0.3-0.1-0.6-0.1-1c0-0.4,0-0.8,0.1-1.1c0.1-0.3,0.1-0.6,0.2-0.7c0.1-0.2,0.2-0.3,0.3-0.4
		c0.1-0.1,0.3-0.1,0.5-0.1h28.1c0.2,0,0.3,0,0.5,0.1c0.1,0.1,0.2,0.2,0.3,0.4c0.1,0.2,0.2,0.4,0.2,0.7
		C702.3,174.9,702.4,175.3,702.4,175.7z"/>
	<path class="st0" d="M712,213.4c0,0.2,0,0.3-0.1,0.4c-0.1,0.1-0.2,0.2-0.4,0.3c-0.2,0.1-0.5,0.1-0.8,0.2c-0.3,0.1-0.8,0.1-1.3,0.1
		c-0.5,0-0.9,0-1.3-0.1c-0.4-0.1-0.6-0.1-0.8-0.2c-0.2-0.1-0.4-0.2-0.4-0.3c-0.1-0.1-0.1-0.3-0.1-0.4v-39.3c0-0.2,0-0.3,0.1-0.4
		s0.3-0.2,0.5-0.3c0.2-0.1,0.5-0.1,0.8-0.2c0.3-0.1,0.8-0.1,1.2-0.1c0.5,0,1,0,1.3,0.1c0.3,0.1,0.6,0.1,0.8,0.2
		c0.2,0.1,0.4,0.2,0.4,0.3c0.1,0.1,0.1,0.3,0.1,0.4L712,213.4L712,213.4z"/>
	<path class="st0" d="M754.9,193.3c0,3.3-0.4,6.3-1.2,9s-1.9,4.9-3.4,6.8s-3.4,3.3-5.8,4.3s-5,1.5-8.1,1.5c-3,0-5.7-0.5-7.9-1.4
		s-4-2.3-5.5-4c-1.4-1.7-2.5-3.9-3.2-6.5c-0.7-2.6-1.1-5.6-1.1-9c0-3.2,0.4-6.2,1.2-8.8s1.9-4.9,3.5-6.7c1.5-1.8,3.5-3.3,5.8-4.3
		c2.3-1,5-1.5,8.1-1.5c3,0,5.6,0.5,7.8,1.4c2.2,0.9,4,2.2,5.5,4s2.6,3.9,3.3,6.5C754.5,187.1,754.9,190,754.9,193.3z M749.2,193.7
		c0-2.3-0.2-4.5-0.6-6.5c-0.4-2-1.1-3.7-2-5.2s-2.2-2.6-3.8-3.4c-1.6-0.8-3.5-1.2-5.9-1.2c-2.3,0-4.3,0.4-5.9,1.3
		c-1.6,0.9-2.9,2.1-3.8,3.5s-1.7,3.2-2.1,5.2c-0.4,2-0.6,4-0.6,6.2c0,2.4,0.2,4.6,0.6,6.6c0.4,2,1.1,3.8,2,5.2s2.2,2.6,3.8,3.4
		c1.6,0.8,3.5,1.2,5.9,1.2c2.3,0,4.3-0.4,5.9-1.3c1.6-0.9,2.9-2.1,3.9-3.6s1.7-3.3,2.1-5.2C749,198,749.2,195.9,749.2,193.7z"/>
	<path class="st0" d="M792.3,212c0,0.4-0.1,0.8-0.2,1.1c-0.1,0.3-0.3,0.5-0.5,0.7c-0.2,0.2-0.5,0.3-0.8,0.4
		c-0.3,0.1-0.6,0.1-0.8,0.1h-1.8c-0.6,0-1-0.1-1.5-0.2c-0.4-0.1-0.8-0.3-1.2-0.6c-0.4-0.3-0.8-0.7-1.1-1.2c-0.4-0.5-0.8-1.2-1.2-2
		L770.8,187c-0.6-1.2-1.3-2.5-1.9-3.8s-1.3-2.6-1.8-3.8H767c0,1.5,0.1,3.1,0.1,4.6s0,3.2,0,4.7v24.7c0,0.1,0,0.3-0.1,0.4
		c-0.1,0.1-0.2,0.2-0.4,0.3c-0.2,0.1-0.5,0.1-0.8,0.2c-0.3,0.1-0.8,0.1-1.3,0.1c-0.5,0-1,0-1.3-0.1c-0.3-0.1-0.6-0.1-0.8-0.2
		c-0.2-0.1-0.3-0.2-0.4-0.3c-0.1-0.1-0.1-0.3-0.1-0.4v-37.8c0-0.8,0.2-1.4,0.7-1.8c0.5-0.4,1-0.5,1.5-0.5h2.6c0.6,0,1.1,0.1,1.6,0.2
		c0.4,0.1,0.8,0.3,1.1,0.5s0.7,0.6,1,1c0.3,0.4,0.6,1,1,1.6l9.5,18c0.6,1.1,1.1,2.2,1.7,3.2c0.5,1,1.1,2.1,1.6,3.1c0.5,1,1,2,1.5,3
		c0.5,1,1,2,1.5,3h0c0-1.7-0.1-3.4-0.1-5.2c0-1.8,0-3.5,0-5.2v-22.2c0-0.1,0-0.3,0.1-0.4c0.1-0.1,0.2-0.2,0.4-0.3
		c0.2-0.1,0.5-0.2,0.8-0.2c0.3,0,0.8-0.1,1.3-0.1c0.5,0,0.9,0,1.3,0.1c0.4,0,0.6,0.1,0.8,0.2c0.2,0.1,0.3,0.2,0.4,0.3
		c0.1,0.1,0.1,0.3,0.1,0.4L792.3,212L792.3,212z"/>
</g>
<g>
	<g>
		<g>
			<path class="st1" d="M274.5,119.2c0,4.4-0.6,8.3-1.8,11.9c-1.2,3.6-2.9,6.7-5,9.4c-2.1,2.7-4.7,5.1-7.6,7c-3,2-6.2,3.6-9.8,4.9
				c-3.6,1.3-7.3,2.2-11.4,2.8c-4,0.6-8.5,0.9-13.5,0.9h-32.8c-2.1,0-3.9-0.6-5.3-1.9c-1.4-1.2-2.1-3.3-2.1-6V40.8
				c0-2.8,0.7-4.8,2.1-6c1.4-1.2,3.2-1.9,5.3-1.9h30.9c7.6,0,14,0.6,19.2,1.9c5.2,1.3,9.6,3.2,13.2,5.8c3.6,2.6,6.3,5.8,8.2,9.8
				c1.9,3.9,2.9,8.6,2.9,13.9c0,3-0.4,5.8-1.1,8.4c-0.8,2.6-1.9,5-3.3,7.2c-1.5,2.2-3.3,4.1-5.4,5.7c-2.1,1.7-4.6,3-7.3,4
				c3.5,0.6,6.7,1.7,9.7,3.3c3,1.6,5.5,3.6,7.7,6.1c2.2,2.5,3.9,5.4,5.2,8.8C273.8,111.2,274.5,115,274.5,119.2z M242.1,67.3
				c0-2.5-0.4-4.7-1.1-6.7c-0.8-2-1.9-3.6-3.4-4.9c-1.5-1.3-3.4-2.3-5.8-3c-2.3-0.7-5.4-1-9.3-1h-12.7v32h14c3.6,0,6.5-0.4,8.7-1.3
				c2.2-0.9,4-2,5.4-3.5c1.4-1.5,2.5-3.2,3.2-5.2C241.7,71.6,242.1,69.5,242.1,67.3z M248.5,120c0-2.9-0.5-5.4-1.4-7.7
				c-1-2.3-2.3-4.1-4.2-5.7c-1.8-1.5-4.2-2.7-7-3.5c-2.9-0.8-6.6-1.2-11.1-1.2h-14.9v35h18.1c3.5,0,6.4-0.4,8.8-1.1s4.4-1.8,6.2-3.2
				c1.7-1.4,3.1-3.2,4.1-5.3C248,125.2,248.5,122.8,248.5,120z"/>
			<path class="st1" d="M311.1,39.2c0,4.8-1,8.2-3,10c-2,1.8-5.6,2.8-11,2.8c-5.4,0-9-0.9-10.9-2.7c-1.9-1.8-2.8-5-2.8-9.6
				c0-4.8,1-8.2,2.9-10c1.9-1.9,5.6-2.8,11-2.8c5.3,0,9,0.9,10.9,2.7C310.2,31.3,311.1,34.6,311.1,39.2z M309.3,152.9
				c0,0.6-0.2,1.2-0.6,1.7c-0.4,0.5-1,0.9-2,1.2c-0.9,0.3-2.1,0.6-3.7,0.7c-1.5,0.2-3.5,0.2-5.8,0.2c-2.3,0-4.3-0.1-5.8-0.2
				c-1.5-0.2-2.7-0.4-3.7-0.7c-0.9-0.3-1.6-0.7-1.9-1.2s-0.6-1-0.6-1.7V68.1c0-0.6,0.2-1.2,0.6-1.7s1-0.9,1.9-1.2s2.1-0.6,3.7-0.8
				c1.5-0.2,3.5-0.3,5.8-0.3c2.3,0,4.3,0.1,5.8,0.3c1.5,0.2,2.7,0.5,3.7,0.8c0.9,0.3,1.6,0.8,2,1.2c0.4,0.5,0.6,1,0.6,1.7V152.9z"/>
			<path class="st1" d="M460.5,152.9c0,0.6-0.2,1.2-0.6,1.7c-0.4,0.5-1,0.9-1.9,1.2c-0.9,0.3-2.1,0.6-3.6,0.7
				c-1.5,0.2-3.5,0.2-5.8,0.2c-2.4,0-4.4-0.1-5.9-0.2c-1.5-0.2-2.8-0.4-3.7-0.7c-0.9-0.3-1.6-0.7-1.9-1.2c-0.3-0.5-0.5-1-0.5-1.7
				v-50.4c0-2.9-0.3-5.5-0.8-7.8c-0.5-2.3-1.4-4.4-2.5-6c-1.1-1.7-2.5-3-4.2-3.9c-1.7-0.9-3.7-1.4-6-1.4c-2.9,0-5.7,1.1-8.7,3.3
				c-2.9,2.2-6.1,5.5-9.5,9.7v56.5c0,0.6-0.2,1.2-0.6,1.7c-0.4,0.5-1,0.9-2,1.2c-0.9,0.3-2.1,0.6-3.7,0.7c-1.5,0.2-3.4,0.2-5.7,0.2
				c-2.3,0-4.3-0.1-5.8-0.2c-1.5-0.2-2.7-0.4-3.7-0.7c-0.9-0.3-1.6-0.7-2-1.2c-0.4-0.5-0.6-1-0.6-1.7v-50.4c0-2.9-0.3-5.5-0.8-7.8
				c-0.5-2.3-1.3-4.4-2.4-6s-2.5-3-4.2-3.9s-3.7-1.4-6-1.4c-2.9,0-5.8,1.1-8.8,3.3c-2.9,2.2-6.1,5.5-9.4,9.7v56.5
				c0,0.6-0.2,1.2-0.6,1.7c-0.4,0.5-1,0.9-2,1.2c-0.9,0.3-2.1,0.6-3.7,0.7c-1.5,0.2-3.5,0.2-5.8,0.2s-4.3-0.1-5.8-0.2
				c-1.5-0.2-2.8-0.4-3.7-0.7c-0.9-0.3-1.6-0.7-2-1.2s-0.6-1-0.6-1.7V68c0-0.6,0.2-1.2,0.5-1.7c0.3-0.5,0.9-0.9,1.7-1.2
				c0.8-0.3,1.9-0.6,3.2-0.7c1.3-0.2,2.9-0.2,4.9-0.2c2,0,3.7,0.1,5,0.2c1.3,0.2,2.4,0.4,3.1,0.7c0.7,0.3,1.3,0.7,1.6,1.2
				c0.3,0.5,0.5,1,0.5,1.7v9.8c4.7-5.1,9.4-8.9,14-11.4c4.7-2.5,9.5-3.8,14.6-3.8c3.5,0,6.6,0.4,9.4,1.1c2.8,0.7,5.3,1.8,7.5,3.1
				s4.1,3,5.7,4.9c1.6,1.9,2.9,4,4,6.4c2.5-2.7,5-5.1,7.5-7c2.4-2,4.9-3.6,7.2-4.8c2.4-1.2,4.8-2.2,7.1-2.8c2.4-0.6,4.8-0.9,7.3-0.9
				c5.7,0,10.4,1,14.3,2.9c3.9,1.9,7,4.5,9.4,7.8c2.4,3.3,4.1,7.1,5.1,11.5c1,4.4,1.5,9,1.5,13.9L460.5,152.9L460.5,152.9z"/>
			<path class="st1" d="M500.3,152.9c0,0.6-0.2,1.2-0.6,1.7c-0.4,0.5-1,0.9-2,1.2c-0.9,0.3-2.1,0.6-3.7,0.7
				c-1.5,0.2-3.5,0.2-5.8,0.2s-4.3-0.1-5.8-0.2c-1.5-0.2-2.7-0.4-3.7-0.7c-0.9-0.3-1.6-0.7-2-1.2c-0.4-0.5-0.6-1-0.6-1.7V27.7
				c0-0.6,0.2-1.2,0.6-1.7c0.4-0.5,1-0.9,2-1.3c0.9-0.3,2.1-0.6,3.7-0.8c1.5-0.2,3.5-0.3,5.8-0.3s4.3,0.1,5.8,0.3
				c1.5,0.2,2.7,0.5,3.7,0.8c0.9,0.3,1.6,0.8,2,1.3c0.4,0.5,0.6,1.1,0.6,1.7V152.9z"/>
		</g>
	</g>
	<g>
		<path class="st1" d="M586.1,37.2c0,0.8-0.1,1.6-0.2,2.2c-0.1,0.6-0.3,1.2-0.6,1.6c-0.3,0.4-0.6,0.7-1,1c-0.4,0.2-0.8,0.3-1.3,0.3
			h-48.4v47.3h45.8c0.4,0,0.9,0.1,1.3,0.2c0.4,0.2,0.7,0.4,1,0.8c0.3,0.4,0.5,0.9,0.6,1.5c0.1,0.6,0.2,1.4,0.2,2.4
			c0,0.8-0.1,1.6-0.2,2.2c-0.1,0.6-0.3,1.2-0.6,1.6c-0.3,0.4-0.6,0.7-1,1c-0.4,0.2-0.8,0.3-1.3,0.3h-45.8v55c0,0.4-0.1,0.7-0.3,1.1
			s-0.5,0.6-1,0.8c-0.5,0.2-1,0.4-1.8,0.5c-0.7,0.1-1.7,0.2-2.8,0.2c-1.1,0-2-0.1-2.8-0.2c-0.8-0.1-1.4-0.3-1.8-0.5
			c-0.5-0.2-0.8-0.4-1-0.8c-0.2-0.3-0.3-0.7-0.3-1.1V37.9c0-2.3,0.6-3.9,1.8-4.8c1.2-0.9,2.4-1.3,3.6-1.3H583c0.5,0,0.9,0.1,1.3,0.3
			c0.4,0.2,0.7,0.6,1,1c0.3,0.5,0.5,1,0.6,1.7C586.1,35.5,586.1,36.3,586.1,37.2z"/>
		<path class="st1" d="M616.7,154.8c0,0.4-0.1,0.7-0.3,1.1c-0.2,0.3-0.5,0.6-0.9,0.8c-0.4,0.2-1,0.4-1.7,0.5
			c-0.7,0.1-1.7,0.2-2.8,0.2c-1.1,0-2-0.1-2.8-0.2c-0.7-0.1-1.3-0.3-1.8-0.5c-0.5-0.2-0.8-0.4-0.9-0.8c-0.2-0.3-0.2-0.7-0.2-1.1
			V24.7c0-0.4,0.1-0.7,0.2-1.1c0.2-0.3,0.5-0.6,0.9-0.8c0.4-0.2,1-0.4,1.8-0.5c0.7-0.1,1.7-0.1,2.8-0.1c1.2,0,2.1,0,2.8,0.1
			c0.7,0.1,1.3,0.3,1.7,0.5c0.4,0.2,0.7,0.5,0.9,0.8c0.2,0.3,0.3,0.7,0.3,1.1V154.8z"/>
		<path class="st1" d="M709.5,106.6c0,2.3-0.6,3.9-1.8,4.8c-1.2,0.9-2.4,1.3-3.6,1.3h-59.5c0,5.4,0.5,10.3,1.6,14.7
			c1.1,4.4,2.8,8.1,5.3,11.2c2.4,3.1,5.6,5.5,9.6,7.2c3.9,1.7,8.7,2.5,14.5,2.5c4.1,0,7.7-0.4,10.9-1.1c3.2-0.7,6-1.5,8.3-2.4
			c2.3-0.9,4.3-1.7,5.8-2.4c1.5-0.7,2.6-1.1,3.2-1.1c0.4,0,0.7,0.1,1.1,0.3c0.3,0.2,0.6,0.5,0.8,0.9c0.2,0.4,0.3,0.9,0.4,1.6
			c0.1,0.6,0.1,1.4,0.1,2.4c0,0.5,0,0.9-0.1,1.3c-0.1,0.4-0.1,0.8-0.2,1.2c-0.1,0.4-0.2,0.7-0.4,1s-0.5,0.6-0.8,1
			c-0.3,0.3-1.3,0.9-3,1.7c-1.7,0.8-3.9,1.6-6.6,2.4c-2.7,0.8-5.8,1.5-9.4,2.2c-3.6,0.6-7.4,1-11.5,1c-6.8,0-12.7-1-18-3
			c-5.2-2-9.6-5-13.1-9c-3.5-4-6.2-8.9-8.1-14.7c-1.8-5.9-2.8-12.6-2.8-20.4c0-7.4,0.9-14,2.8-19.9c1.9-5.9,4.6-10.8,8.2-14.9
			c3.5-4.1,7.8-7.2,12.8-9.4c5-2.2,10.5-3.2,16.6-3.2c6.6,0,12.2,1.1,16.8,3.3c4.6,2.2,8.4,5.1,11.4,8.8c3,3.7,5.2,8,6.6,12.9
			c1.4,4.9,2.1,10,2.1,15.4L709.5,106.6L709.5,106.6z M697.7,103.2c0.2-9.3-1.9-16.5-6.4-21.7c-4.4-5.2-10.9-7.8-19.4-7.8
			c-4.4,0-8.2,0.8-11.5,2.5c-3.3,1.6-6.1,3.8-8.4,6.5c-2.3,2.7-4,5.8-5.3,9.4c-1.2,3.6-1.9,7.3-2.1,11.1
			C644.6,103.2,697.7,103.2,697.7,103.2z"/>
		<path class="st1" d="M791.5,152.9c0.5,0.8,0.8,1.4,0.8,2c0,0.5-0.2,1-0.6,1.4c-0.5,0.4-1.1,0.6-2.1,0.8c-0.9,0.2-2.1,0.2-3.5,0.2
			c-1.4,0-2.4,0-3.2-0.1c-0.8-0.1-1.4-0.2-1.9-0.4c-0.5-0.2-0.9-0.4-1.2-0.8c-0.3-0.3-0.6-0.7-0.8-1.1l-23.5-36.5l-23.5,36.5
			c-0.3,0.4-0.5,0.7-0.8,1.1c-0.3,0.3-0.7,0.6-1.2,0.8c-0.5,0.2-1.2,0.3-2,0.4c-0.8,0.1-1.8,0.1-3.1,0.1c-1.4,0-2.5-0.1-3.4-0.2
			c-0.9-0.2-1.6-0.4-2-0.8c-0.4-0.4-0.6-0.8-0.6-1.4c0-0.5,0.3-1.2,0.9-2l28.8-42.4l-27.4-41.4c-0.5-0.8-0.8-1.4-0.8-2
			c0-0.5,0.2-1,0.7-1.4c0.5-0.4,1.2-0.6,2.2-0.7c1-0.1,2.2-0.2,3.6-0.2c1.4,0,2.4,0,3.2,0.1c0.8,0.1,1.4,0.2,1.9,0.4
			c0.4,0.2,0.8,0.4,1.1,0.7c0.3,0.3,0.5,0.6,0.8,1l22.2,34.2l22.8-34.2c0.3-0.4,0.5-0.7,0.8-1c0.3-0.3,0.6-0.5,1-0.7
			c0.4-0.2,1-0.3,1.7-0.4c0.7-0.1,1.8-0.1,3-0.1c1.4,0,2.5,0.1,3.4,0.2c0.9,0.1,1.6,0.4,2.1,0.7c0.4,0.3,0.7,0.8,0.6,1.3
			c0,0.5-0.3,1.2-0.9,2.1l-27.6,41L791.5,152.9z"/>
	</g>
	<g>
		<path class="st0" d="M127.8,63.2c-12.6-12.6-33-12.6-45.6,0l-56.1,56.1l0,0c12.6,12.6,33,12.6,45.6,0L127.8,63.2L127.8,63.2z"/>
		<path class="st1" d="M141,76.3l-5.9-5.9L62.6,143l-6-6c-1.1-1.1-3.1-0.3-3.1,1.3v33c0,1.8,1.5,3.3,3.3,3.3h33c1.6,0,2.4-2,1.3-3.1
			l-5.7-5.7l55.6-55.6C150.4,100.9,150.4,85.7,141,76.3z"/>
		<path class="st1" d="M97.4,7.3h-33c-1.6,0-2.4,2-1.3,3.1l5.9,5.9l-56,56c-9.4,9.4-9.4,24.5,0,33.9l5.9,5.9l72.9-72.9l5.9,5.9
			c1.1,1.1,3.1,0.3,3.1-1.3v-33C100.7,8.8,99.2,7.3,97.4,7.3z"/>
	</g>
</g>
</svg>
