<?xml version="1.0" encoding="iso-8859-1"?>
<!-- Generator: Adobe Illustrator 24.1.1, SVG Export Plug-In . SVG Version: 6.00 Build 0)  -->
<svg version="1.1" xmlns="http://www.w3.org/2000/svg" xmlns:xlink="http://www.w3.org/1999/xlink" x="0px" y="0px"
	 viewBox="0 0 16 16" style="enable-background:new 0 0 16 16;" xml:space="preserve">
<g id="adf">
	<g>
		<path style="fill:#59B4D9;" d="M15.139,9.276L15.139,9.276V5.807l-3.928,3.412h-0.086V5.807L7.197,9.218l0,0V2.08
			c0-0.602-1.347-1.204-3.125-1.204s-3.24,0.573-3.24,1.204v13.073h14.335L15.139,9.276z M4.072,2.653
			c-1.29,0-2.322-0.315-2.322-0.659s1.032-0.659,2.322-0.659s2.322,0.287,2.322,0.659C6.366,2.338,5.334,2.653,4.072,2.653z
			 M10.838,12.831H9.261v-1.577h1.577V12.831z M8.057,12.831H6.48v-1.577h1.577V12.831z M12.071,12.831v-1.577h1.577v1.577H12.071z"
			/>
		<rect x="0.833" y="1.994" style="fill:#3999C6;" width="3.182" height="13.159"/>
		<path style="fill:#FFFFFF;" d="M7.169,1.994c0,0.631-1.433,1.147-3.182,1.147S0.833,2.624,0.833,1.994s1.433-1.147,3.182-1.147
			S7.169,1.334,7.169,1.994"/>
		<path style="fill:#7FBA00;" d="M6.538,1.908c0,0.43-1.118,0.745-2.523,0.745S1.492,2.338,1.492,1.908S2.61,1.162,4.015,1.162
			S6.538,1.506,6.538,1.908"/>
		<path style="fill:#B8D432;" d="M5.993,2.366C6.337,2.252,6.509,2.08,6.509,1.908c0-0.43-1.118-0.745-2.523-0.745
			S1.463,1.506,1.463,1.908C1.492,2.08,1.693,2.252,2.008,2.366C2.667,2.166,3.327,2.051,4.015,2.08
			C4.674,2.051,5.362,2.166,5.993,2.366"/>
	</g>
</g>
<g id="Layer_1">
</g>
</svg>
