<?xml version="1.0" encoding="iso-8859-1"?>
<!-- Generator: Adobe Illustrator 24.1.1, SVG Export Plug-In . SVG Version: 6.00 Build 0)  -->
<svg version="1.1" xmlns="http://www.w3.org/2000/svg" xmlns:xlink="http://www.w3.org/1999/xlink" x="0px" y="0px"
	 viewBox="0 0 16 16" style="enable-background:new 0 0 16 16;" xml:space="preserve">
<g id="dv-sql-database-grey">
	<g>
		<path style="fill:#555555;" d="M8,0.825c-2.986,0-5.407,0.877-5.407,1.958v10.418c0,1.073,2.382,1.943,5.333,1.957v0.001v0h0.059
			c0.005,0,0.01,0,0.015,0v0h0c1.866,0,3.512-0.342,4.484-0.863c0.583-0.313,0.924-0.689,0.924-1.095V2.783
			C13.407,1.701,10.986,0.825,8,0.825z"/>
		<path style="fill:#E27730;" d="M12.302,2.67c0,0.714-1.926,1.292-4.302,1.292S3.698,3.384,3.698,2.67
			c0-0.714,1.926-1.292,4.302-1.292S12.302,1.956,12.302,2.67"/>
		<path style="fill:#FFFFFF;" d="M11.401,3.46c0.563-0.218,0.902-0.492,0.902-0.789c0-0.714-1.926-1.292-4.302-1.292
			c-2.376,0-4.302,0.578-4.302,1.292c0,0.297,0.338,0.571,0.902,0.789C5.386,3.154,6.615,2.957,8,2.957
			C9.385,2.957,10.614,3.154,11.401,3.46"/>
		<g>
			<path style="fill:#FFFFFF;" d="M9.776,9.493c-0.106,0-0.192-0.086-0.192-0.192V8.217c0-0.873-0.711-1.584-1.584-1.584
				c-0.873,0-1.584,0.711-1.584,1.584v1.083c0,0.106-0.086,0.192-0.192,0.192c-0.106,0-0.192-0.086-0.192-0.192V8.217
				c0-1.085,0.883-1.968,1.968-1.968c1.085,0,1.968,0.883,1.968,1.968v1.083C9.968,9.406,9.882,9.493,9.776,9.493z"/>
			<path style="fill:#FFFFFF;" d="M10.423,13.01H5.577c-0.106,0-0.192-0.086-0.192-0.192V9.301c0-0.106,0.086-0.192,0.192-0.192
				h4.847c0.106,0,0.192,0.086,0.192,0.192v3.517C10.615,12.924,10.529,13.01,10.423,13.01z M5.769,12.626h4.463V9.493H5.769V12.626
				z"/>
		</g>
	</g>
</g>
<g id="Layer_1">
</g>
</svg>
