<?xml version="1.0" encoding="iso-8859-1"?>
<!-- Generator: Adobe Illustrator 24.1.1, SVG Export Plug-In . SVG Version: 6.00 Build 0)  -->
<svg version="1.1" xmlns="http://www.w3.org/2000/svg" xmlns:xlink="http://www.w3.org/1999/xlink" x="0px" y="0px"
	 viewBox="0 0 16 16" style="enable-background:new 0 0 16 16;" xml:space="preserve">
<g id="dm-sql-database-grey">
	<g>
		<path style="fill:#555555;" d="M8,0.825c-2.989,0-5.413,0.878-5.413,1.96v10.429c0,1.074,2.384,1.945,5.339,1.959v0.001v0h0.059
			c0.005,0,0.01,0,0.015,0v0h0c1.868,0,3.516-0.343,4.488-0.864c0.584-0.313,0.924-0.69,0.924-1.096V2.786
			C13.413,1.703,10.989,0.825,8,0.825z"/>
		<path style="fill:#E27730;" d="M12.306,2.673c0,0.715-1.928,1.294-4.306,1.294S3.694,3.387,3.694,2.673
			c0-0.714,1.928-1.294,4.307-1.294S12.306,1.958,12.306,2.673"/>
		<path style="fill:#FFFFFF;" d="M11.404,3.463c0.564-0.219,0.902-0.492,0.902-0.79c0-0.715-1.928-1.294-4.306-1.294
			c-2.378,0-4.306,0.579-4.306,1.294c0,0.297,0.339,0.571,0.902,0.79C5.384,3.157,6.614,2.96,8,2.96
			C9.387,2.96,10.616,3.157,11.404,3.463"/>
		<g>
			<path style="fill:#FFFFFF;" d="M8,7.535c-0.449,0-0.814-0.365-0.814-0.814c0-0.449,0.365-0.814,0.814-0.814
				c0.449,0,0.814,0.365,0.814,0.814C8.814,7.169,8.449,7.535,8,7.535z M8,6.225c-0.273,0-0.495,0.222-0.495,0.495
				S7.727,7.216,8,7.216c0.273,0,0.495-0.222,0.495-0.495S8.273,6.225,8,6.225z"/>
			<path style="fill:#FFFFFF;" d="M8,12.47c-0.449,0-0.814-0.365-0.814-0.814S7.551,10.842,8,10.842
				c0.449,0,0.814,0.365,0.814,0.814S8.449,12.47,8,12.47z M8,11.161c-0.273,0-0.495,0.222-0.495,0.495
				c0,0.273,0.222,0.495,0.495,0.495c0.273,0,0.495-0.222,0.495-0.495C8.495,11.383,8.273,11.161,8,11.161z"/>
			<path style="fill:#FFFFFF;" d="M10.468,10.003c-0.449,0-0.814-0.365-0.814-0.814s0.365-0.814,0.814-0.814
				s0.814,0.365,0.814,0.814S10.917,10.003,10.468,10.003z M10.468,8.693c-0.273,0-0.495,0.222-0.495,0.495
				c0,0.273,0.222,0.495,0.495,0.495s0.495-0.222,0.495-0.495C10.963,8.915,10.741,8.693,10.468,8.693z"/>
			<path style="fill:#FFFFFF;" d="M5.532,10.003c-0.449,0-0.814-0.365-0.814-0.814s0.365-0.814,0.814-0.814s0.814,0.365,0.814,0.814
				S5.981,10.003,5.532,10.003z M5.532,8.693c-0.273,0-0.495,0.222-0.495,0.495c0,0.273,0.222,0.495,0.495,0.495
				c0.273,0,0.495-0.222,0.495-0.495C6.028,8.915,5.805,8.693,5.532,8.693z"/>
			<path style="fill:#FFFFFF;" d="M9.745,8.257c-0.218,0-0.422-0.085-0.576-0.239C9.015,7.865,8.931,7.661,8.931,7.443
				c0-0.218,0.085-0.422,0.239-0.576c0.317-0.317,0.834-0.318,1.152,0c0.317,0.318,0.317,0.834,0,1.152l0,0
				C10.167,8.173,9.962,8.257,9.745,8.257z M9.745,6.948c-0.127,0-0.254,0.048-0.35,0.145C9.301,7.186,9.25,7.311,9.25,7.443
				c0,0.132,0.051,0.257,0.145,0.35c0.187,0.187,0.513,0.187,0.701,0c0.193-0.193,0.193-0.507,0-0.701
				C9.999,6.996,9.872,6.948,9.745,6.948z"/>
			<path style="fill:#FFFFFF;" d="M6.255,11.747c-0.209,0-0.417-0.079-0.576-0.238c-0.317-0.318-0.317-0.834,0-1.152
				c0.308-0.308,0.844-0.308,1.152,0c0.317,0.317,0.317,0.834,0,1.152l0,0C6.672,11.668,6.464,11.747,6.255,11.747z M6.255,10.438
				c-0.132,0-0.257,0.052-0.35,0.145c-0.193,0.193-0.193,0.507,0,0.701c0.193,0.193,0.508,0.193,0.701,0
				c0.193-0.193,0.193-0.508,0-0.701C6.512,10.489,6.387,10.438,6.255,10.438z"/>
			<rect x="7.84" y="7.372" style="fill:#FFFFFF;" width="0.319" height="3.629"/>
			<rect x="6.187" y="9.029" style="fill:#FFFFFF;" width="3.626" height="0.319"/>
			
				<rect x="6.187" y="9.029" transform="matrix(0.7071 -0.7071 0.7071 0.7071 -4.1538 8.348)" style="fill:#FFFFFF;" width="3.626" height="0.319"/>
		</g>
	</g>
</g>
<g id="Layer_1">
</g>
</svg>
