<?xml version="1.0" encoding="iso-8859-1"?>
<!-- Generator: Adobe Illustrator 24.1.1, SVG Export Plug-In . SVG Version: 6.00 Build 0)  -->
<svg version="1.1" xmlns="http://www.w3.org/2000/svg" xmlns:xlink="http://www.w3.org/1999/xlink" x="0px" y="0px"
	 viewBox="0 0 16 16" style="enable-background:new 0 0 16 16;" xml:space="preserve">
<g id="load-sample">
	<g>
		<path style="fill:#555555;" d="M13.966,12.181h-1.792v1.195h1.792c0.659,0,1.195-0.536,1.195-1.195v-1.792h-1.195V12.181z"/>
		<path style="fill:#555555;" d="M13.966,3.222h-0.597V2.624h-1.195v0.597h-1.195V1.43H5.604v1.792H3.812V2.624H2.617v0.597H2.02
			c-0.659,0-1.195,0.536-1.195,1.195v7.765c0,0.659,0.536,1.195,1.195,1.195h2.984v-1.195H2.02V4.416h11.946v2.389h1.195V4.416
			C15.16,3.757,14.624,3.222,13.966,3.222z M6.798,2.624h2.986v0.597H6.798V2.624z"/>
		<path style="fill:#555555;" d="M12.174,5.961l-5.973,5.973v2.636h2.636l5.973-5.973L12.174,5.961z M13.121,8.597l-3.934,3.934
			L8.24,11.584l3.934-3.934L13.121,8.597z M7.395,13.376v-0.947l0.947,0.947H7.395z"/>
	</g>
</g>
<g id="Layer_1">
</g>
</svg>
