<?xml version="1.0" encoding="iso-8859-1"?>
<!-- Generator: Adobe Illustrator 24.1.1, SVG Export Plug-In . SVG Version: 6.00 Build 0)  -->
<svg version="1.1" xmlns="http://www.w3.org/2000/svg" xmlns:xlink="http://www.w3.org/1999/xlink" x="0px" y="0px"
	 viewBox="0 0 16 16" style="enable-background:new 0 0 16 16;" xml:space="preserve">
<g id="accelerator">
	<circle style="fill:#FFFFFF;" cx="13.275" cy="2.742" r="1.274"/>
	<circle style="fill:#FFFFFF;" cx="7.593" cy="8.221" r="2.265"/>
	<circle style="fill:#FFFFFF;" cx="2.497" cy="13.114" r="1.671"/>
	<circle style="fill:#FFFFFF;" cx="13.503" cy="10.921" r="1.671"/>
	<circle style="fill:#FFFFFF;" cx="13" cy="3" r="1.671"/>
	<circle style="fill:#FFFFFF;" cx="3.36" cy="3" r="1.671"/>
	
		<rect x="5.129" y="2.233" transform="matrix(0.7731 -0.6343 0.6343 0.7731 -2.3115 4.765)" style="fill:#FFFFFF;" width="0.75" height="6.76"/>
	
		<rect x="6.166" y="5.411" transform="matrix(0.7149 -0.6993 0.6993 0.7149 -1.1515 8.7479)" style="fill:#FFFFFF;" width="7.969" height="0.75"/>
	
		<rect x="10.028" y="6.217" transform="matrix(0.4263 -0.9046 0.9046 0.4263 -2.6544 14.8789)" style="fill:#FFFFFF;" width="0.75" height="6.631"/>
	
		<rect x="1.593" y="10.468" transform="matrix(0.7264 -0.6873 0.6873 0.7264 -6.1119 6.3345)" style="fill:#FFFFFF;" width="6.613" height="0.75"/>
</g>
<g id="Layer_1">
</g>
</svg>
