<?xml version="1.0" encoding="iso-8859-1"?>
<!-- Generator: Adobe Illustrator 24.1.1, SVG Export Plug-In . SVG Version: 6.00 Build 0)  -->
<svg version="1.1" xmlns="http://www.w3.org/2000/svg" xmlns:xlink="http://www.w3.org/1999/xlink" x="0px" y="0px"
	 viewBox="0 0 16 16" style="enable-background:new 0 0 16 16;" xml:space="preserve">
<g id="archive-snapshot">
	<g>
		<g>
			<polygon style="fill:#555555;" points="2.13,2.122 4.739,2.122 4.739,0.817 2.13,0.817 0.825,0.817 0.825,2.122 0.825,4.731 
				2.13,4.731 			"/>
			<polygon style="fill:#555555;" points="15.175,2.122 15.175,0.817 13.87,0.817 11.261,0.817 11.261,2.122 13.87,2.122 
				13.87,4.731 15.175,4.731 			"/>
			<polygon style="fill:#555555;" points="0.825,13.862 0.825,15.167 2.13,15.167 4.739,15.167 4.739,13.862 2.13,13.862 
				2.13,11.253 0.825,11.253 			"/>
			<polygon style="fill:#555555;" points="15.175,13.862 15.175,11.253 13.87,11.253 13.87,13.862 11.261,13.862 11.261,15.167 
				13.87,15.167 15.175,15.167 			"/>
		</g>
	</g>
	<g>
		<polygon style="fill:#555555;" points="9.575,5.786 8,7.362 6.425,5.786 5.794,6.416 7.37,7.992 5.794,9.568 6.425,10.198 
			8,8.622 9.575,10.198 10.206,9.568 8.63,7.992 10.206,6.416 		"/>
		<path style="fill:#555555;" d="M8,2.644c-2.949,0-5.348,2.399-5.348,5.348S5.051,13.34,8,13.34s5.348-2.399,5.348-5.348
			S10.949,2.644,8,2.644z M8,12.448c-2.457,0-4.456-1.999-4.456-4.456c0-2.457,1.999-4.456,4.456-4.456s4.456,1.999,4.456,4.456
			C12.456,10.45,10.457,12.448,8,12.448z"/>
	</g>
</g>
<g id="Layer_1">
</g>
</svg>
