<?xml version="1.0" encoding="UTF-8" standalone="no"?>
<!-- Generator: Adobe Illustrator 19.1.0, SVG Export Plug-In . SVG Version: 6.00 Build 0)  -->

<svg
   xmlns:dc="http://purl.org/dc/elements/1.1/"
   xmlns:cc="http://creativecommons.org/ns#"
   xmlns:rdf="http://www.w3.org/1999/02/22-rdf-syntax-ns#"
   xmlns:svg="http://www.w3.org/2000/svg"
   xmlns="http://www.w3.org/2000/svg"
   xmlns:sodipodi="http://sodipodi.sourceforge.net/DTD/sodipodi-0.dtd"
   xmlns:inkscape="http://www.inkscape.org/namespaces/inkscape"
   version="1.1"
   id="Layer_1"
   x="0px"
   y="0px"
   viewBox="0 0 247.6 64.8"
   style="enable-background:new 0 0 247.6 64.8;"
   xml:space="preserve"
   sodipodi:docname="bimlflex-title.svg"
   inkscape:version="0.92.2 (5c3e80d, 2017-08-06)"><metadata
     id="metadata41"><rdf:RDF><cc:Work
         rdf:about=""><dc:format>image/svg+xml</dc:format><dc:type
           rdf:resource="http://purl.org/dc/dcmitype/StillImage" /></cc:Work></rdf:RDF></metadata><defs
     id="defs39" /><sodipodi:namedview
     pagecolor="#ffffff"
     bordercolor="#666666"
     borderopacity="1"
     objecttolerance="10"
     gridtolerance="10"
     guidetolerance="10"
     inkscape:pageopacity="0"
     inkscape:pageshadow="2"
     inkscape:window-width="1920"
     inkscape:window-height="1017"
     id="namedview37"
     showgrid="false"
     inkscape:zoom="1.1470113"
     inkscape:cx="-17.872537"
     inkscape:cy="32.400003"
     inkscape:window-x="-8"
     inkscape:window-y="-8"
     inkscape:window-maximized="1"
     inkscape:current-layer="Layer_1" /><style
     type="text/css"
     id="style2">
	.st0{fill:#00416A;}
	.st1{fill:#C6093B;}
</style><g
     id="g12"
     style="opacity:1;fill:#ffffff;fill-opacity:1"
     transform="translate(0,6)"><path
       class="st0"
       d="m 85.2,41.6 c 0,1.3 -0.2,2.5 -0.5,3.6 -0.4,1.1 -0.9,2 -1.5,2.9 -0.6,0.8 -1.4,1.5 -2.3,2.1 -0.9,0.6 -1.9,1.1 -3,1.5 -1.1,0.4 -2.2,0.7 -3.5,0.9 -1.2,0.2 -2.6,0.3 -4.1,0.3 h -10 c -0.6,0 -1.2,-0.2 -1.6,-0.6 C 58.3,51.9 58,51.3 58,50.5 V 17.8 c 0,-0.8 0.2,-1.5 0.7,-1.8 0.4,-0.4 1,-0.6 1.6,-0.6 h 9.4 c 2.3,0 4.2,0.2 5.8,0.6 1.6,0.4 2.9,1 4,1.8 1.1,0.8 1.9,1.8 2.5,3 0.6,1.2 0.9,2.6 0.9,4.2 0,0.9 -0.1,1.8 -0.3,2.6 -0.2,0.8 -0.6,1.5 -1,2.2 -0.4,0.7 -1,1.2 -1.6,1.7 -0.6,0.5 -1.4,0.9 -2.2,1.2 1.1,0.2 2,0.5 2.9,1 0.9,0.5 1.7,1.1 2.3,1.9 0.7,0.8 1.2,1.7 1.6,2.7 0.4,0.9 0.6,2 0.6,3.3 z M 75.4,25.8 c 0,-0.8 -0.1,-1.4 -0.3,-2 -0.2,-0.6 -0.6,-1.1 -1,-1.5 -0.5,-0.4 -1,-0.7 -1.8,-0.9 -0.7,-0.2 -1.6,-0.3 -2.8,-0.3 h -3.8 v 9.7 H 70 c 1.1,0 2,-0.1 2.6,-0.4 0.7,-0.3 1.2,-0.6 1.6,-1.1 0.4,-0.5 0.8,-1 1,-1.6 0.1,-0.5 0.2,-1.2 0.2,-1.9 z m 1.9,16.1 c 0,-0.9 -0.1,-1.6 -0.4,-2.3 -0.3,-0.7 -0.7,-1.3 -1.3,-1.7 -0.6,-0.5 -1.3,-0.8 -2.1,-1.1 -0.9,-0.2 -2,-0.4 -3.4,-0.4 H 65.6 V 47 h 5.5 c 1.1,0 2,-0.1 2.7,-0.3 0.7,-0.2 1.4,-0.6 1.9,-1 0.5,-0.4 0.9,-1 1.2,-1.6 0.3,-0.7 0.4,-1.4 0.4,-2.2 z"
       id="path4"
       inkscape:connector-curvature="0"
       style="fill:#ffffff;fill-opacity:1" /><path
       class="st0"
       d="m 96.4,17.3 c 0,1.5 -0.3,2.5 -0.9,3 -0.6,0.6 -1.7,0.8 -3.3,0.8 -1.6,0 -2.7,-0.3 -3.3,-0.8 -0.6,-0.5 -0.9,-1.5 -0.9,-2.9 0,-1.5 0.3,-2.5 0.9,-3.1 0.6,-0.6 1.7,-0.9 3.3,-0.9 1.6,0 2.7,0.3 3.3,0.8 0.6,0.7 0.9,1.7 0.9,3.1 z m -0.6,34.6 c 0,0.2 -0.1,0.4 -0.2,0.5 -0.1,0.1 -0.3,0.3 -0.6,0.4 -0.3,0.1 -0.7,0.2 -1.1,0.2 -0.5,0 -1.1,0.1 -1.8,0.1 -0.7,0 -1.3,0 -1.8,-0.1 -0.5,0 -0.8,-0.1 -1.1,-0.2 -0.3,-0.1 -0.5,-0.2 -0.6,-0.4 -0.1,-0.1 -0.2,-0.3 -0.2,-0.5 V 26.1 c 0,-0.2 0.1,-0.4 0.2,-0.5 0.1,-0.1 0.3,-0.3 0.6,-0.4 0.3,-0.1 0.7,-0.2 1.1,-0.2 0.5,-0.1 1.1,-0.1 1.8,-0.1 0.7,0 1.3,0 1.8,0.1 0.5,0.1 0.8,0.1 1.1,0.2 0.3,0.1 0.5,0.2 0.6,0.4 0.1,0.1 0.2,0.3 0.2,0.5 z"
       id="path6"
       inkscape:connector-curvature="0"
       style="fill:#ffffff;fill-opacity:1" /><path
       class="st0"
       d="m 141.8,51.9 c 0,0.2 -0.1,0.4 -0.2,0.5 -0.1,0.1 -0.3,0.3 -0.6,0.4 -0.3,0.1 -0.6,0.2 -1.1,0.2 -0.5,0 -1.1,0.1 -1.8,0.1 -0.7,0 -1.3,0 -1.8,-0.1 -0.5,0 -0.8,-0.1 -1.1,-0.2 -0.3,-0.1 -0.5,-0.2 -0.6,-0.4 -0.1,-0.1 -0.2,-0.3 -0.2,-0.5 V 36.5 c 0,-0.9 -0.1,-1.7 -0.2,-2.4 -0.2,-0.7 -0.4,-1.3 -0.8,-1.8 -0.3,-0.5 -0.8,-0.9 -1.3,-1.2 -0.5,-0.3 -1.1,-0.4 -1.8,-0.4 -0.9,0 -1.7,0.3 -2.6,1 -0.9,0.7 -1.9,1.7 -2.9,3 v 17.2 c 0,0.2 -0.1,0.4 -0.2,0.5 -0.1,0.1 -0.3,0.3 -0.6,0.4 -0.3,0.1 -0.7,0.2 -1.1,0.2 -0.5,0 -1,0.1 -1.7,0.1 -0.7,0 -1.3,0 -1.8,-0.1 -0.5,0 -0.8,-0.1 -1.1,-0.2 -0.3,-0.1 -0.5,-0.2 -0.6,-0.4 -0.1,-0.1 -0.2,-0.3 -0.2,-0.5 V 36.5 c 0,-0.9 -0.1,-1.7 -0.2,-2.4 -0.2,-0.7 -0.4,-1.3 -0.7,-1.8 -0.3,-0.5 -0.8,-0.9 -1.3,-1.2 -0.5,-0.3 -1.1,-0.4 -1.8,-0.4 -0.9,0 -1.8,0.3 -2.7,1 -0.9,0.7 -1.8,1.7 -2.9,3 v 17.2 c 0,0.2 -0.1,0.4 -0.2,0.5 -0.1,0.1 -0.3,0.3 -0.6,0.4 -0.3,0.1 -0.7,0.2 -1.1,0.2 -0.5,0 -1.1,0.1 -1.8,0.1 -0.7,0 -1.3,0 -1.8,-0.1 -0.5,0 -0.8,-0.1 -1.1,-0.2 -0.3,-0.1 -0.5,-0.2 -0.6,-0.4 -0.1,-0.1 -0.2,-0.3 -0.2,-0.5 V 26 c 0,-0.2 0,-0.4 0.1,-0.5 0.1,-0.1 0.3,-0.3 0.5,-0.4 0.3,-0.1 0.6,-0.2 1,-0.2 0.4,0 0.9,-0.1 1.5,-0.1 0.6,0 1.1,0 1.5,0.1 0.4,0 0.7,0.1 0.9,0.2 0.2,0.1 0.4,0.2 0.5,0.4 0.1,0.1 0.1,0.3 0.1,0.5 v 3 c 1.4,-1.5 2.9,-2.7 4.3,-3.5 1.4,-0.8 2.9,-1.2 4.4,-1.2 1.1,0 2,0.1 2.9,0.3 0.8,0.2 1.6,0.5 2.3,1 0.7,0.4 1.2,0.9 1.7,1.5 0.5,0.6 0.9,1.2 1.2,1.9 0.8,-0.8 1.5,-1.5 2.3,-2.1 0.7,-0.6 1.5,-1.1 2.2,-1.5 0.7,-0.4 1.4,-0.7 2.2,-0.8 0.7,-0.2 1.5,-0.3 2.2,-0.3 1.7,0 3.2,0.3 4.3,0.9 1.2,0.6 2.1,1.4 2.9,2.4 0.7,1 1.2,2.2 1.5,3.5 0.3,1.3 0.5,2.7 0.5,4.2 v 16.6 z"
       id="path8"
       inkscape:connector-curvature="0"
       style="fill:#ffffff;fill-opacity:1" /><path
       class="st0"
       d="m 153.9,51.9 c 0,0.2 -0.1,0.4 -0.2,0.5 -0.1,0.1 -0.3,0.3 -0.6,0.4 -0.3,0.1 -0.7,0.2 -1.1,0.2 -0.5,0 -1.1,0.1 -1.8,0.1 -0.7,0 -1.3,0 -1.8,-0.1 -0.5,0 -0.8,-0.1 -1.1,-0.2 -0.3,-0.1 -0.5,-0.2 -0.6,-0.4 -0.1,-0.1 -0.2,-0.3 -0.2,-0.5 V 13.8 c 0,-0.2 0.1,-0.4 0.2,-0.5 0.1,-0.2 0.3,-0.3 0.6,-0.4 0.3,-0.1 0.7,-0.2 1.1,-0.2 0.5,-0.1 1.1,-0.1 1.8,-0.1 0.7,0 1.3,0 1.8,0.1 0.5,0.1 0.8,0.1 1.1,0.2 0.3,0.1 0.5,0.2 0.6,0.4 0.1,0.2 0.2,0.3 0.2,0.5 z"
       id="path10"
       inkscape:connector-curvature="0"
       style="fill:#ffffff;fill-opacity:1" /></g><g
     id="g24"
     style="opacity:1;fill:#ffffff;fill-opacity:1"
     transform="translate(0,6)"><path
       style="fill:#ffffff;fill-opacity:1"
       inkscape:connector-curvature="0"
       id="path16"
       d="m 180,16.7 c 0,0.3 0,0.5 -0.1,0.7 0,0.2 -0.1,0.4 -0.2,0.5 -0.1,0.1 -0.2,0.2 -0.3,0.3 -0.1,0.1 -0.2,0.1 -0.4,0.1 h -14.7 v 14.4 h 13.9 c 0.1,0 0.3,0 0.4,0.1 0.1,0.1 0.2,0.1 0.3,0.2 0.1,0.1 0.2,0.3 0.2,0.5 0,0.2 0.1,0.4 0.1,0.7 0,0.3 0,0.5 -0.1,0.7 0,0.2 -0.1,0.4 -0.2,0.5 -0.1,0.1 -0.2,0.2 -0.3,0.3 -0.1,0.1 -0.2,0.1 -0.4,0.1 h -13.9 v 16.7 c 0,0.1 0,0.2 -0.1,0.3 -0.1,0.1 -0.2,0.2 -0.3,0.2 -0.1,0 -0.3,0.1 -0.5,0.1 -0.2,0 -0.5,0.1 -0.9,0.1 -0.3,0 -0.6,0 -0.9,-0.1 -0.2,0 -0.4,-0.1 -0.6,-0.1 -0.2,0 -0.2,-0.1 -0.3,-0.2 -0.1,-0.1 -0.1,-0.2 -0.1,-0.3 V 16.9 c 0,-0.7 0.2,-1.2 0.6,-1.5 0.4,-0.3 0.7,-0.4 1.1,-0.4 H 179 c 0.1,0 0.3,0 0.4,0.1 0.1,0.1 0.2,0.2 0.3,0.3 0.1,0.1 0.2,0.3 0.2,0.5 0,0.3 0.1,0.5 0.1,0.8 z"
       class="st0" /><path
       style="fill:#ffffff;fill-opacity:1"
       inkscape:connector-curvature="0"
       id="path18"
       d="m 189.2,52.4 c 0,0.1 0,0.2 -0.1,0.3 -0.1,0.1 -0.2,0.2 -0.3,0.2 -0.1,0.1 -0.3,0.1 -0.5,0.1 -0.2,0 -0.5,0.1 -0.9,0.1 -0.3,0 -0.6,0 -0.8,-0.1 -0.2,0 -0.4,-0.1 -0.5,-0.1 -0.1,-0.1 -0.2,-0.1 -0.3,-0.2 -0.1,-0.1 -0.1,-0.2 -0.1,-0.3 V 12.9 c 0,-0.1 0,-0.2 0.1,-0.3 0,-0.1 0.1,-0.2 0.3,-0.2 0.1,-0.1 0.3,-0.1 0.5,-0.1 0.2,0 0.5,0 0.8,0 0.4,0 0.6,0 0.9,0 0.2,0 0.4,0.1 0.5,0.1 0.1,0.1 0.2,0.2 0.3,0.2 0.1,0.1 0.1,0.2 0.1,0.3 z"
       class="st0" /><path
       style="fill:#ffffff;fill-opacity:1"
       inkscape:connector-curvature="0"
       id="path20"
       d="m 217.5,37.8 c 0,0.7 -0.2,1.2 -0.6,1.5 -0.4,0.3 -0.7,0.4 -1.1,0.4 h -18.1 c 0,1.6 0.2,3.1 0.5,4.5 0.3,1.3 0.9,2.5 1.6,3.4 0.7,0.9 1.7,1.7 2.9,2.2 1.2,0.5 2.7,0.8 4.4,0.8 1.2,0 2.3,-0.1 3.3,-0.3 1,-0.2 1.8,-0.5 2.5,-0.7 0.7,-0.3 1.3,-0.5 1.8,-0.7 0.5,-0.2 0.8,-0.3 1,-0.3 0.1,0 0.2,0 0.3,0.1 0.1,0.1 0.2,0.2 0.2,0.3 0.1,0.1 0.1,0.3 0.1,0.5 0,0.2 0,0.4 0,0.7 0,0.1 0,0.3 0,0.4 0,0.1 0,0.2 -0.1,0.4 0,0.1 -0.1,0.2 -0.1,0.3 -0.1,0.1 -0.1,0.2 -0.2,0.3 -0.1,0.1 -0.4,0.3 -0.9,0.5 -0.5,0.2 -1.2,0.5 -2,0.7 -0.8,0.2 -1.8,0.5 -2.9,0.7 -1.1,0.2 -2.3,0.3 -3.5,0.3 -2.1,0 -3.9,-0.3 -5.5,-0.9 -1.6,-0.6 -2.9,-1.5 -4,-2.7 -1.1,-1.2 -1.9,-2.7 -2.4,-4.5 -0.6,-1.8 -0.8,-3.8 -0.8,-6.2 0,-2.2 0.3,-4.3 0.9,-6 0.6,-1.8 1.4,-3.3 2.5,-4.5 1.1,-1.2 2.4,-2.2 3.9,-2.8 1.5,-0.7 3.2,-1 5.1,-1 2,0 3.7,0.3 5.1,1 1.4,0.7 2.6,1.6 3.5,2.7 0.9,1.1 1.6,2.4 2,3.9 0.4,1.5 0.6,3.1 0.6,4.7 z m -3.6,-1 c 0.1,-2.8 -0.6,-5 -1.9,-6.6 -1.3,-1.6 -3.3,-2.4 -5.9,-2.4 -1.3,0 -2.5,0.2 -3.5,0.7 -1,0.5 -1.9,1.2 -2.6,2 -0.7,0.8 -1.2,1.8 -1.6,2.9 -0.4,1.1 -0.6,2.2 -0.6,3.4 z"
       class="st0" /><path
       style="fill:#ffffff;fill-opacity:1"
       inkscape:connector-curvature="0"
       id="path22"
       d="m 242.4,51.9 c 0.2,0.2 0.2,0.4 0.2,0.6 0,0.2 -0.1,0.3 -0.2,0.4 -0.1,0.1 -0.3,0.2 -0.6,0.2 -0.3,0 -0.6,0.1 -1.1,0.1 -0.4,0 -0.7,0 -1,0 -0.2,0 -0.4,-0.1 -0.6,-0.1 -0.1,-0.1 -0.3,-0.1 -0.4,-0.2 -0.1,-0.1 -0.2,-0.2 -0.2,-0.3 l -7.2,-11.1 -7.1,11.1 c -0.1,0.1 -0.2,0.2 -0.2,0.3 -0.1,0.1 -0.2,0.2 -0.4,0.2 -0.2,0 -0.4,0.1 -0.6,0.1 -0.2,0 -0.6,0 -1,0 -0.4,0 -0.8,0 -1,-0.1 -0.2,-0.1 -0.5,-0.1 -0.6,-0.2 -0.1,-0.1 -0.2,-0.2 -0.2,-0.4 0,-0.2 0.1,-0.4 0.3,-0.6 L 229.2,39 221,26.4 c -0.2,-0.2 -0.2,-0.4 -0.2,-0.6 0,-0.2 0.1,-0.3 0.2,-0.4 0.1,-0.1 0.4,-0.2 0.7,-0.2 0.3,0 0.7,-0.1 1.1,-0.1 0.4,0 0.7,0 1,0 0.2,0 0.4,0.1 0.6,0.1 0.1,0.1 0.2,0.1 0.3,0.2 0.1,0.1 0.2,0.2 0.2,0.3 l 6.7,10.4 6.9,-10.4 c 0.1,-0.1 0.2,-0.2 0.2,-0.3 0,-0.1 0.2,-0.2 0.3,-0.2 0.1,-0.1 0.3,-0.1 0.5,-0.1 0.2,0 0.5,0 0.9,0 0.4,0 0.8,0 1,0.1 0.3,0 0.5,0.1 0.6,0.2 0.1,0.1 0.2,0.2 0.2,0.4 0,0.2 -0.1,0.4 -0.3,0.6 l -8.4,12.5 z"
       class="st0" /></g><path
     class="st1"
     d="M 40.7,30.6 23.6,47.7 c -3.8,3.8 -9.9,3.8 -13.7,0 L 9.8,47.6 26.9,30.5 c 3.8,-3.8 9.9,-3.8 13.8,0.1 z"
     id="path26"
     inkscape:connector-curvature="0"
     style="fill:#c6093b" /><path
     class="st0"
     d="M 20.8,54.9 19,53 c -0.3,-0.3 -0.9,-0.1 -0.9,0.4 v 10 c 0,0.6 0.5,1 1,1 h 10 c 0.5,0 0.7,-0.6 0.4,-0.9 L 27.8,61.8 44.7,44.9 c 2.8,-2.8 2.8,-7.5 0,-10.3 l -1.8,-1.8 z"
     id="path28"
     inkscape:connector-curvature="0"
     style="fill:#ffffff;fill-opacity:1" /><path
     class="st0"
     d="m 31.4,13.6 h -10 c -0.5,0 -0.7,0.6 -0.4,0.9 l 1.8,1.8 -17,17 C 3,36.1 3,40.8 5.8,43.6 l 1.8,1.8 22.2,-22.2 1.8,1.8 c 0.3,0.3 0.9,0.1 0.9,-0.4 v -10 c -0.1,-0.5 -0.5,-1 -1.1,-1 z"
     id="path30"
     inkscape:connector-curvature="0"
     style="fill:#ffffff;fill-opacity:1" /></svg>