<?xml version="1.0" encoding="iso-8859-1"?>
<!-- Generator: Adobe Illustrator 24.1.1, SVG Export Plug-In . SVG Version: 6.00 Build 0)  -->
<svg version="1.1" xmlns="http://www.w3.org/2000/svg" xmlns:xlink="http://www.w3.org/1999/xlink" x="0px" y="0px"
	 viewBox="0 0 16 16" style="enable-background:new 0 0 16 16;" xml:space="preserve">
<g id="clone-snapshot">
	<path style="fill:#555555;" d="M5.783,8.246C6.128,8.1,6.461,7.93,6.811,7.819c0.495-0.157,1.004-0.267,1.505-0.405
		c0.42-0.116,0.834-0.246,1.202-0.491c0.42-0.28,0.614-0.685,0.675-1.171c0.011-0.084-0.013-0.126-0.094-0.161
		C9.492,5.328,9.129,4.756,9.144,4.102c0.015-0.638,0.473-1.235,1.099-1.433c0.61-0.193,1.296,0.03,1.68,0.545
		c0.63,0.846,0.319,1.985-0.659,2.387c-0.112,0.046-0.114,0.122-0.122,0.207c-0.052,0.512-0.23,0.974-0.537,1.386
		c-0.322,0.432-0.761,0.716-1.255,0.89C8.8,8.276,8.231,8.407,7.673,8.572C7.326,8.676,6.978,8.783,6.64,8.911
		c-0.249,0.094-0.47,0.247-0.63,0.466c-0.198,0.271-0.226,0.59-0.221,0.911c0.001,0.037,0.065,0.087,0.11,0.107
		c0.488,0.217,0.798,0.582,0.923,1.1c0.243,1.009-0.632,1.994-1.668,1.881c-0.707-0.077-1.277-0.614-1.385-1.303
		c-0.109-0.7,0.276-1.389,0.942-1.675c0.081-0.035,0.113-0.077,0.113-0.169c-0.003-1.489-0.003-2.978,0-4.467
		c0-0.088-0.023-0.135-0.108-0.172C4.057,5.306,3.702,4.705,3.761,3.988c0.051-0.615,0.55-1.18,1.189-1.345
		c0.818-0.211,1.715,0.358,1.876,1.191C6.972,4.596,6.608,5.28,5.893,5.597c-0.046,0.02-0.077,0.079-0.108,0.124
		C5.774,5.736,5.783,5.764,5.783,5.787C5.783,6.612,5.783,7.437,5.783,8.246z M5.299,12.42c0.339,0.002,0.603-0.253,0.607-0.586
		c0.004-0.33-0.262-0.599-0.595-0.601c-0.337-0.002-0.6,0.254-0.603,0.589C4.704,12.163,4.957,12.418,5.299,12.42z M5.311,4.753
		C5.643,4.75,5.903,4.494,5.906,4.168C5.909,3.834,5.633,3.56,5.298,3.563c-0.331,0.003-0.592,0.27-0.591,0.604
		C4.708,4.5,4.971,4.756,5.311,4.753z M11.295,4.159c-0.002-0.328-0.27-0.596-0.598-0.596c-0.331,0-0.593,0.263-0.595,0.598
		C10.1,4.496,10.36,4.753,10.699,4.753C11.037,4.752,11.297,4.493,11.295,4.159z"/>
	<g>
		<g>
			<polygon style="fill:#555555;" points="2.13,2.122 4.739,2.122 4.739,0.817 2.13,0.817 0.825,0.817 0.825,2.122 0.825,4.731 
				2.13,4.731 			"/>
			<polygon style="fill:#555555;" points="15.175,2.122 15.175,0.817 13.87,0.817 11.261,0.817 11.261,2.122 13.87,2.122 
				13.87,4.731 15.175,4.731 			"/>
			<polygon style="fill:#555555;" points="0.825,13.862 0.825,15.167 2.13,15.167 4.739,15.167 4.739,13.862 2.13,13.862 
				2.13,11.253 0.825,11.253 			"/>
			<polygon style="fill:#555555;" points="15.175,13.862 15.175,11.253 13.87,11.253 13.87,13.862 11.261,13.862 11.261,15.167 
				13.87,15.167 15.175,15.167 			"/>
		</g>
	</g>
</g>
<g id="Layer_1">
</g>
</svg>
