<?xml version="1.0" encoding="iso-8859-1"?>
<!-- Generator: Adobe Illustrator 24.1.1, SVG Export Plug-In . SVG Version: 6.00 Build 0)  -->
<svg version="1.1" xmlns="http://www.w3.org/2000/svg" xmlns:xlink="http://www.w3.org/1999/xlink" x="0px" y="0px"
	 viewBox="0 0 16 16" style="enable-background:new 0 0 16 16;" xml:space="preserve">
<g id="clone-version">
	<path style="fill:#555555;" d="M5.059,8.329C5.517,8.136,5.958,7.91,6.423,7.762c0.656-0.208,1.332-0.354,1.996-0.537
		C8.976,7.073,9.526,6.9,10.014,6.574c0.557-0.371,0.815-0.909,0.896-1.553c0.014-0.111-0.017-0.167-0.125-0.214
		C9.98,4.458,9.497,3.7,9.517,2.832c0.02-0.846,0.627-1.639,1.458-1.901c0.81-0.256,1.72,0.039,2.228,0.723
		c0.835,1.123,0.423,2.634-0.874,3.166c-0.149,0.061-0.151,0.162-0.162,0.275c-0.069,0.679-0.305,1.292-0.713,1.839
		c-0.428,0.573-1.009,0.95-1.665,1.181C9.062,8.369,8.306,8.542,7.566,8.762C7.105,8.899,6.645,9.041,6.196,9.211
		C5.866,9.336,5.572,9.539,5.36,9.829c-0.262,0.359-0.3,0.782-0.293,1.209c0.001,0.049,0.086,0.116,0.146,0.142
		c0.647,0.287,1.059,0.772,1.224,1.459c0.323,1.338-0.838,2.646-2.213,2.496c-0.938-0.102-1.694-0.814-1.837-1.728
		c-0.145-0.929,0.367-1.843,1.25-2.222c0.108-0.046,0.15-0.102,0.15-0.224C3.783,8.986,3.783,7.01,3.787,5.035
		c0-0.116-0.03-0.179-0.143-0.228C2.77,4.429,2.298,3.631,2.376,2.681c0.067-0.816,0.73-1.566,1.577-1.785
		c1.086-0.28,2.275,0.475,2.488,1.581c0.195,1.01-0.288,1.918-1.236,2.338C5.144,4.841,5.103,4.919,5.061,4.979
		c-0.014,0.02-0.002,0.058-0.002,0.088C5.059,6.161,5.059,7.256,5.059,8.329z M4.417,13.866c0.449,0.002,0.8-0.336,0.805-0.777
		c0.005-0.438-0.347-0.794-0.789-0.797c-0.448-0.003-0.796,0.337-0.8,0.782C3.628,13.525,3.963,13.864,4.417,13.866z M4.433,3.695
		c0.44-0.004,0.786-0.343,0.789-0.777C5.226,2.476,4.86,2.112,4.416,2.116C3.977,2.121,3.631,2.474,3.632,2.917
		C3.633,3.36,3.982,3.699,4.433,3.695z M12.371,2.908c-0.002-0.435-0.359-0.791-0.793-0.791c-0.439,0-0.786,0.349-0.789,0.793
		c-0.003,0.444,0.341,0.786,0.792,0.785C12.028,3.693,12.374,3.35,12.371,2.908z"/>
</g>
<g id="Layer_1">
</g>
</svg>
