<?xml version="1.0" encoding="iso-8859-1"?>
<!-- Generator: Adobe Illustrator 24.1.1, SVG Export Plug-In . SVG Version: 6.00 Build 0)  -->
<svg version="1.1" xmlns="http://www.w3.org/2000/svg" xmlns:xlink="http://www.w3.org/1999/xlink" x="0px" y="0px"
	 viewBox="0 0 16 16" style="enable-background:new 0 0 16 16;" xml:space="preserve">
<g id="db2-connection">
	<g>
		<path style="fill:#555555;" d="M8,0.825c-2.989,0-5.413,0.878-5.413,1.96v10.429c0,1.074,2.384,1.945,5.339,1.959v0.001h0.058
			c0.005,0,0.011,0,0.016,0v0c2.989,0,5.413-0.877,5.413-1.96V2.786C13.413,1.703,10.989,0.825,8,0.825z"/>
		<path style="fill:#009A2C;" d="M12.306,2.673c0,0.715-1.928,1.294-4.306,1.294S3.693,3.387,3.693,2.673
			c0-0.714,1.928-1.294,4.307-1.294S12.306,1.958,12.306,2.673"/>
		<path style="fill:#FFFFFF;" d="M11.404,3.463c0.564-0.219,0.902-0.492,0.902-0.79c0-0.715-1.928-1.294-4.307-1.294
			c-2.378,0-4.306,0.579-4.306,1.294c0,0.297,0.339,0.571,0.902,0.79C5.384,3.158,6.614,2.96,8,2.96
			C9.386,2.96,10.616,3.158,11.404,3.463"/>
		<g>
			<g>
				<path style="fill:#009A2C;" d="M5.824,7.488C5.608,7.406,5.349,7.366,5.046,7.366H4.515H4.169h-0.48v3.581h0.48h0.347h0.528
					c0.309,0,0.572-0.043,0.788-0.127s0.378-0.205,0.489-0.362c0.108-0.157,0.163-0.341,0.163-0.552V8.407
					c0-0.218-0.056-0.406-0.168-0.563C6.202,7.688,6.038,7.569,5.824,7.488z M5.634,9.877c0,0.144-0.054,0.255-0.16,0.333
					c-0.108,0.078-0.26,0.117-0.457,0.117H4.515V7.984h0.502c0.197,0,0.349,0.039,0.457,0.117c0.106,0.078,0.16,0.189,0.16,0.334
					V9.877z"/>
				<path style="fill:#009A2C;" d="M9.248,9.223C9.121,9.158,8.968,9.117,8.79,9.099c0.165-0.021,0.307-0.062,0.426-0.123
					c0.119-0.061,0.209-0.14,0.27-0.236c0.061-0.096,0.092-0.204,0.092-0.326V8.22c0-0.181-0.047-0.334-0.14-0.462
					C9.345,7.631,9.209,7.534,9.03,7.467C8.85,7.399,8.634,7.366,8.38,7.366H7.668h-0.41H6.841v3.581h0.416h0.41H8.44
					c0.252,0,0.468-0.034,0.649-0.101s0.317-0.166,0.41-0.295c0.093-0.129,0.14-0.284,0.14-0.466V9.836
					c0-0.136-0.033-0.256-0.101-0.36C9.472,9.373,9.375,9.288,9.248,9.223z M8.323,7.974c0.136,0,0.242,0.026,0.318,0.079
					c0.076,0.053,0.114,0.126,0.114,0.222v0.192c0,0.107-0.038,0.189-0.113,0.246S8.46,8.799,8.323,8.799H7.668V7.974H8.323z
					 M8.806,10.008c0,0.103-0.041,0.184-0.122,0.241c-0.083,0.057-0.197,0.086-0.345,0.086H7.668V9.407h0.664
					c0.1,0,0.185,0.014,0.258,0.042C8.662,9.477,8.716,9.517,8.752,9.57s0.054,0.117,0.054,0.192V10.008z"/>
				<path style="fill:#009A2C;" d="M10.932,10.321L11.87,9.23c0.14-0.176,0.247-0.346,0.321-0.512s0.111-0.322,0.111-0.468V8.225
					c0-0.195-0.047-0.36-0.14-0.493c-0.093-0.133-0.231-0.234-0.413-0.302c-0.182-0.068-0.406-0.102-0.671-0.102
					c-0.254,0-0.473,0.038-0.655,0.115C10.241,7.52,10.1,7.632,10,7.781c-0.1,0.149-0.154,0.33-0.162,0.545v0.066h0.846V8.326
					c0.008-0.121,0.047-0.214,0.117-0.278c0.068-0.064,0.164-0.096,0.287-0.096c0.119,0,0.209,0.024,0.272,0.071
					c0.061,0.048,0.093,0.117,0.093,0.209V8.26c0,0.089-0.026,0.19-0.079,0.303c-0.053,0.113-0.132,0.236-0.238,0.367l-1.256,1.433
					v0.584h2.432v-0.625H10.932z"/>
			</g>
		</g>
	</g>
</g>
<g id="Layer_1">
</g>
</svg>
