<?xml version="1.0" encoding="iso-8859-1"?>
<!-- Generator: Adobe Illustrator 24.1.1, SVG Export Plug-In . SVG Version: 6.00 Build 0)  -->
<svg version="1.1" xmlns="http://www.w3.org/2000/svg" xmlns:xlink="http://www.w3.org/1999/xlink" x="0px" y="0px"
	 viewBox="0 0 16 16" style="enable-background:new 0 0 16 16;" xml:space="preserve">
<g id="diagram-view">
	<path style="fill:#555555;" d="M14.904,11.501c-1.497-1.962-3.275-3-5.139-3c-1.865,0-3.643,1.038-5.139,3l-0.272,0.356
		l0.271,0.356c1.497,1.962,3.275,3,5.139,3c1.864,0,3.641-1.037,5.139-2.999l0.271-0.357L14.904,11.501z M9.764,14.039
		c-1.37,0-2.725-0.754-3.921-2.182c1.196-1.428,2.55-2.182,3.921-2.182c1.37,0,2.724,0.754,3.922,2.182
		C12.488,13.285,11.134,14.039,9.764,14.039z"/>
	<path style="fill:#555555;" d="M5.139,9.501V4.889H3.873v5.799H4.04C4.394,10.252,4.759,9.849,5.139,9.501z"/>
	<path style="fill:#555555;" d="M7.743,7.906V4.889H6.476v3.612C6.888,8.253,7.311,8.058,7.743,7.906z"/>
	<g>
		<path style="fill:#555555;" d="M9.781,7.54c0.19,0,0.377,0.021,0.565,0.038V4.889H9.079v2.698C9.312,7.56,9.545,7.54,9.781,7.54z"
			/>
		<path style="fill:#555555;" d="M10.346,10.554c-0.184-0.035-0.371-0.06-0.565-0.06c-0.242,0-0.475,0.035-0.702,0.088v0.106h1.267
			V10.554z"/>
	</g>
	<path style="fill:#555555;" d="M3.813,12.753l-0.637-0.834H2.292V3.547h9.635v4.396c0.502,0.187,0.992,0.441,1.467,0.759V3.547
		V1.45V0.795H0.825V1.45v2.097v9.681h3.034h0.349C4.076,13.072,3.942,12.921,3.813,12.753z"/>
	<path style="fill:#555555;" d="M9.764,10.024c-1.011,0-1.834,0.822-1.834,1.833s0.823,1.834,1.834,1.834s1.834-0.823,1.834-1.834
		S10.775,10.024,9.764,10.024z M10.576,11.857c0,0.449-0.365,0.813-0.812,0.813c-0.448,0-0.812-0.365-0.812-0.813
		c0-0.448,0.365-0.812,0.812-0.812C10.212,11.045,10.576,11.409,10.576,11.857z"/>
</g>
<g id="Layer_1">
</g>
</svg>
