<?xml version="1.0" encoding="iso-8859-1"?>
<!-- Generator: Adobe Illustrator 24.3.0, SVG Export Plug-In . SVG Version: 6.00 Build 0)  -->
<svg version="1.1" xmlns="http://www.w3.org/2000/svg" xmlns:xlink="http://www.w3.org/1999/xlink" x="0px" y="0px"
	 viewBox="0 0 16 16" style="enable-background:new 0 0 16 16;" xml:space="preserve">
<g id="discard">
	<g>
		<polygon style="fill:#757575;" points="10.114,5.041 8,7.155 5.886,5.041 5.041,5.886 7.155,8 5.041,10.114 5.886,10.96 8,8.846 
			10.114,10.96 10.959,10.114 8.845,8 10.959,5.886 		"/>
		<path style="fill:#757575;" d="M8,0.825C4.044,0.825,0.825,4.044,0.825,8S4.044,15.175,8,15.175S15.175,11.956,15.175,8
			S11.956,0.825,8,0.825z M8,13.979c-3.297,0-5.979-2.682-5.979-5.979c0-3.297,2.682-5.979,5.979-5.979S13.979,4.703,13.979,8
			C13.979,11.297,11.297,13.979,8,13.979z"/>
	</g>
</g>
<g id="Layer_1">
</g>
</svg>
