<?xml version="1.0" encoding="iso-8859-1"?>
<!-- Generator: Adobe Illustrator 24.1.1, SVG Export Plug-In . SVG Version: 6.00 Build 0)  -->
<svg version="1.1" xmlns="http://www.w3.org/2000/svg" xmlns:xlink="http://www.w3.org/1999/xlink" x="0px" y="0px"
	 viewBox="0 0 16 16" style="enable-background:new 0 0 16 16;" xml:space="preserve">
<g id="excel_connection">
	<g>
		<path style="fill:#207245;" d="M8.33,0.991h0.968v1.304c1.632,0,3.263,0.003,4.895-0.005c0.276,0.011,0.579-0.008,0.818,0.156
			c0.168,0.241,0.148,0.548,0.16,0.825c-0.008,2.83-0.005,5.658-0.003,8.486c-0.008,0.474,0.044,0.958-0.055,1.426
			c-0.065,0.339-0.473,0.347-0.745,0.359c-1.689,0.005-3.379-0.003-5.07,0v1.467H8.286c-2.484-0.452-4.973-0.869-7.461-1.304V2.296
			C3.327,1.861,5.83,1.433,8.33,0.991z"/>
		<path style="fill:#FFFFFF;" d="M9.298,2.784h5.379v10.269H9.298v-0.978h1.304v-1.141H9.298v-0.652h1.304V9.141H9.298V8.489h1.304
			V7.348H9.298V6.696h1.304V5.555H9.298V4.903h1.304V3.762H9.298V2.784z"/>
		<path style="fill:#207245;" d="M11.254,3.762h2.282v1.141h-2.282V3.762z"/>
		<path style="fill:#FFFFFF;" d="M5.653,5.289C6.022,5.263,6.392,5.24,6.762,5.222C6.327,6.115,5.889,7.005,5.447,7.894
			c0.448,0.913,0.906,1.819,1.356,2.732c-0.392-0.023-0.785-0.048-1.177-0.075c-0.277-0.68-0.615-1.337-0.813-2.047
			C4.591,9.165,4.274,9.79,4.02,10.439c-0.357-0.005-0.714-0.02-1.071-0.034c0.419-0.82,0.823-1.646,1.255-2.461
			C3.838,7.103,3.435,6.28,3.057,5.446c0.359-0.021,0.717-0.042,1.076-0.062c0.243,0.637,0.508,1.267,0.709,1.92
			C5.057,6.611,5.378,5.959,5.653,5.289L5.653,5.289z"/>
		<path style="fill:#207245;" d="M11.254,5.555h2.282v1.141h-2.282V5.555z M11.254,7.348h2.282v1.141h-2.282V7.348z M11.254,9.141
			h2.282v1.141h-2.282V9.141z M11.254,10.934h2.282v1.141h-2.282V10.934z"/>
	</g>
</g>
<g id="Layer_1">
</g>
</svg>
