<?xml version="1.0" encoding="iso-8859-1"?>
<!-- Generator: Adobe Illustrator 24.1.1, SVG Export Plug-In . SVG Version: 6.00 Build 0)  -->
<svg version="1.1" xmlns="http://www.w3.org/2000/svg" xmlns:xlink="http://www.w3.org/1999/xlink" x="0px" y="0px"
	 viewBox="0 0 16 16" style="enable-background:new 0 0 16 16;" xml:space="preserve">
<g id="filter-clear">
	<g>
		<polygon style="fill:#555555;" points="12.282,8.803 10.99,10.095 9.698,8.803 8.837,9.664 10.129,10.957 8.837,12.249 
			9.698,13.11 10.99,11.818 12.282,13.11 13.143,12.249 11.851,10.957 13.143,9.664 		"/>
	</g>
	<path style="fill:#606060;" d="M10.99,6.753c-2.318,0-4.204,1.886-4.204,4.204c0,2.319,1.886,4.204,4.204,4.204
		c2.318,0,4.204-1.885,4.204-4.204C15.194,8.639,13.308,6.753,10.99,6.753z M10.99,13.959c-1.656,0-3.003-1.346-3.003-3.003
		c0-1.655,1.347-3.003,3.003-3.003c1.655,0,3.003,1.348,3.003,3.003C13.993,12.613,12.645,13.959,10.99,13.959z"/>
	<path style="fill:#606060;" d="M0.825,0.823v2.001l3.83,4.287v5.572h1.321v-1.321V8.46V7.111V6.607L5.64,6.231L2.146,2.32V2.143
		h9.081V2.32L7.732,6.231L7.396,6.607v0.504v0.572C7.927,7.12,8.587,6.692,9.329,6.425l3.218-3.602V0.823H0.825z"/>
</g>
<g id="Layer_1">
</g>
</svg>
