<?xml version="1.0" encoding="iso-8859-1"?>
<!-- Generator: Adobe Illustrator 24.1.1, SVG Export Plug-In . SVG Version: 6.00 Build 0)  -->
<svg version="1.1" xmlns="http://www.w3.org/2000/svg" xmlns:xlink="http://www.w3.org/1999/xlink" x="0px" y="0px"
	 viewBox="0 0 16 16" style="enable-background:new 0 0 16 16;" xml:space="preserve">
<g id="informatica-import">
	<g>
		<path style="fill:#FF4D00;" d="M7.271,9.172l4.317,2.415l0.162-1.837L10.55,8.475L8.783,8.184L7.271,9.172z"/>
		<path style="fill:#FF7D00;" d="M8,0.825l3.587,10.762L15.175,8L8,0.825z"/>
		<path style="fill:#001AFF;" d="M7.425,6.525L7.271,9.172L12.784,8L7.425,6.525z"/>
		<path style="fill:#E23400;" d="M0.825,8l3.831,3.831l0.713-0.956L5.242,9.726l-1.759-1.14L0.825,8z"/>
		<path style="fill:#FF4D00;" d="M7.614,1.214L0.825,8l4.417,1.726L7.614,1.214z"/>
		<path style="fill:#FF7D00;" d="M5.242,9.726l-0.586,2.104L8,15.175l3.142-3.142C11.142,12.033,5.242,9.726,5.242,9.726z"/>
	</g>
</g>
<g id="Layer_1">
</g>
</svg>
