<?xml version="1.0" encoding="iso-8859-1"?>
<!-- Generator: Adobe Illustrator 24.1.1, SVG Export Plug-In . SVG Version: 6.00 Build 0)  -->
<svg version="1.1" xmlns="http://www.w3.org/2000/svg" xmlns:xlink="http://www.w3.org/1999/xlink" x="0px" y="0px"
	 viewBox="0 0 16 16" style="enable-background:new 0 0 16 16;" xml:space="preserve">
<g id="my-sql-connection">
	<g id="paths">
		<g id="Access_control">
		</g>
		<g id="Azure_active_directory">
		</g>
		<g id="API_Management">
		</g>
		<g id="Azure_automation">
		</g>
		<g id="Azure_SQL_database">
		</g>
		<g id="Azure_subscription">
		</g>
		<g id="Backup_service">
		</g>
		<g id="Bitbucket_code_source">
		</g>
		<g id="Azure_cache">
		</g>
		<g id="Content_delivery_network__x28_CDN_x29_">
		</g>
		<g id="Cloud_service">
		</g>
		<g id="CodePlex">
		</g>
		<g id="Dropbox_code_source">
		</g>
		<g id="Express_route">
		</g>
		<g id="Git_repository">
		</g>
		<g id="GitHub_code">
		</g>
		<g id="HD_Insight">
		</g>
		<g id="Health_monitoring">
		</g>
		<g id="Healthy">
		</g>
		<g id="BizTalk_hybrid_connection">
		</g>
		<g id="Hybrid_connection_manager_for_BizTalk_hybrid_connection">
		</g>
		<g id="Hyper-V_recovery_manager">
		</g>
		<g id="Machine_learning">
		</g>
		<g id="Media_services">
		</g>
		<g id="Microsoft_account">
		</g>
		<g id="Mobile_services">
		</g>
		<g id="Multi-factor_authentication">
		</g>
	</g>
	<path style="fill:#555555;" d="M8,0.825c-2.989,0-5.413,0.878-5.413,1.96v10.429c0,1.074,2.384,1.945,5.339,1.959v0.001h0.058
		c0.005,0,0.011,0,0.016,0v0c2.989,0,5.413-0.877,5.413-1.96V2.786C13.413,1.703,10.989,0.825,8,0.825z"/>
	<path style="fill:#E48E00;" d="M12.306,2.673c0,0.715-1.928,1.294-4.306,1.294S3.693,3.387,3.693,2.673
		c0-0.714,1.928-1.294,4.307-1.294S12.306,1.958,12.306,2.673"/>
	<path style="fill:#FFFFFF;" d="M11.404,3.463c0.564-0.219,0.902-0.492,0.902-0.79c0-0.715-1.928-1.294-4.307-1.294
		c-2.378,0-4.306,0.579-4.306,1.294c0,0.297,0.339,0.571,0.902,0.79C5.384,3.158,6.614,2.96,8,2.96
		C9.386,2.96,10.616,3.158,11.404,3.463"/>
	<g>
		<g>
			<path style="fill:#E48E00;" d="M8.467,10.845V8.408l0.041,0.024v-0.39c0-0.325-0.162-0.568-0.447-0.65
				C7.899,7.352,7.736,7.312,7.614,7.312c-0.365,0-0.65,0.203-0.812,0.528L5.99,9.586L5.219,7.84
				C5.056,7.515,4.772,7.312,4.407,7.312c-0.122,0-0.284,0.041-0.447,0.081c-0.284,0.122-0.365,0.325-0.365,0.65v2.761h0.974V9.017
				l0.609,1.34c0.163,0.325,0.406,0.487,0.812,0.487c0.365,0,0.609-0.122,0.772-0.487l0.609-1.299v1.787H8.467z"/>
			<path style="fill:#E48E00;" d="M8.954,10.966v0.772h2.152c0.609-0.041,1.218-0.325,1.218-0.934l0.081-2.355h-1.096v1.502h-0.772
				h-0.284c-0.122,0-0.162,0-0.162-0.041V8.449H8.535l0.338,0.203c0,0.122,0,0.447,0,1.259v0.081
				c0.041,0.447,0.487,0.812,1.218,0.812h0.812l0.365-0.122c0,0-0.041,0.284-0.162,0.284H8.954z"/>
		</g>
	</g>
</g>
<g id="Layer_1">
</g>
</svg>
