<?xml version="1.0" encoding="iso-8859-1"?>
<!-- Generator: Adobe Illustrator 24.3.0, SVG Export Plug-In . SVG Version: 6.00 Build 0)  -->
<svg version="1.1" xmlns="http://www.w3.org/2000/svg" xmlns:xlink="http://www.w3.org/1999/xlink" x="0px" y="0px"
	 viewBox="0 0 16 16" style="enable-background:new 0 0 16 16;" xml:space="preserve">
<g id="navigate">
	<path style="fill:#555555;" d="M0.825,8c0,3.956,3.218,7.175,7.175,7.175S15.175,11.956,15.175,8S11.956,0.825,8,0.825
		S0.825,4.044,0.825,8z M2.023,8.04C2.04,8.291,2.212,8.506,2.454,8.575L6.321,9.68l1.104,3.866c0.07,0.244,0.287,0.418,0.54,0.432
		C4.698,13.958,2.045,11.307,2.023,8.04z M4.465,7.906l6.05-2.42l-2.42,6.049L7.379,9.032C7.322,8.833,7.167,8.678,6.968,8.621
		L4.465,7.906z M8,2.021c3.297,0,5.979,2.682,5.979,5.979c0,3.297-2.682,5.979-5.979,5.979H7.999c0.243,0,0.464-0.148,0.555-0.376
		l3.588-8.969c0.089-0.222,0.037-0.476-0.133-0.645c-0.169-0.17-0.423-0.22-0.645-0.133L2.396,7.445
		C2.162,7.539,2.013,7.77,2.022,8.021c0-0.007-0.001-0.014-0.001-0.021C2.021,4.703,4.703,2.021,8,2.021z"/>
</g>
<g id="Layer_1">
</g>
</svg>
