<?xml version="1.0" encoding="iso-8859-1"?>
<!-- Generator: Adobe Illustrator 24.1.1, SVG Export Plug-In . SVG Version: 6.00 Build 0)  -->
<svg version="1.1" xmlns="http://www.w3.org/2000/svg" xmlns:xlink="http://www.w3.org/1999/xlink" x="0px" y="0px"
	 viewBox="0 0 16 16" style="enable-background:new 0 0 16 16;" xml:space="preserve">
<g id="oracle-connection">
	<path style="fill:#555555;" d="M8,0.825c-2.989,0-5.413,0.878-5.413,1.96v10.429c0,1.074,2.384,1.945,5.339,1.959v0.001h0.058
		c0.005,0,0.011,0,0.016,0v0c2.989,0,5.413-0.877,5.413-1.96V2.786C13.413,1.703,10.989,0.825,8,0.825z"/>
	<path style="fill:#EA1B22;" d="M12.306,2.673c0,0.715-1.928,1.294-4.306,1.294S3.693,3.387,3.693,2.673
		c0-0.714,1.928-1.294,4.307-1.294S12.306,1.958,12.306,2.673"/>
	<path style="fill:#FFFFFF;" d="M11.404,3.463c0.564-0.219,0.902-0.492,0.902-0.79c0-0.715-1.928-1.294-4.307-1.294
		c-2.378,0-4.306,0.579-4.306,1.294c0,0.297,0.339,0.571,0.902,0.79C5.384,3.158,6.614,2.96,8,2.96
		C9.386,2.96,10.616,3.158,11.404,3.463"/>
	<path style="fill:#EA1B22;" d="M11.383,7.452c-0.475-0.476-1.132-0.77-1.857-0.77H6.474c-1.45,0-2.626,1.178-2.626,2.628
		c0,1.45,1.177,2.624,2.626,2.624h3.052c1.45,0,2.626-1.174,2.626-2.624C12.152,8.585,11.858,7.928,11.383,7.452z M9.459,11.007
		L9.459,11.007H6.541c-0.939,0-1.7-0.759-1.7-1.697c0-0.939,0.761-1.702,1.7-1.702h2.917c0.939,0,1.7,0.763,1.7,1.702
		C11.159,10.249,10.398,11.007,9.459,11.007z"/>
</g>
<g id="Layer_1">
</g>
</svg>
