<?xml version="1.0" encoding="iso-8859-1"?>
<!-- Generator: Adobe Illustrator 24.1.1, SVG Export Plug-In . SVG Version: 6.00 Build 0)  -->
<svg version="1.1" xmlns="http://www.w3.org/2000/svg" xmlns:xlink="http://www.w3.org/1999/xlink" x="0px" y="0px"
	 viewBox="0 0 16 16" style="enable-background:new 0 0 16 16;" xml:space="preserve">
<g id="psa-sql-database-grey">
	<g>
		<path style="fill:#555555;" d="M8,0.825c-2.986,0-5.407,0.877-5.407,1.958v10.418c0,1.073,2.382,1.943,5.333,1.957v0.001h0.058
			c0.006,0,0.011,0,0.016,0v0c2.986,0,5.407-0.876,5.407-1.958V2.783C13.407,1.701,10.986,0.825,8,0.825z"/>
		<path style="fill:#E27730;" d="M12.302,2.67c0,0.714-1.926,1.292-4.302,1.292S3.698,3.384,3.698,2.67
			c0-0.714,1.926-1.292,4.302-1.292S12.302,1.956,12.302,2.67"/>
		<path style="fill:#FFFFFF;" d="M11.4,3.46c0.563-0.218,0.902-0.492,0.902-0.789c0-0.714-1.926-1.292-4.302-1.292
			c-2.376,0-4.302,0.578-4.302,1.292c0,0.297,0.338,0.571,0.902,0.789C5.386,3.154,6.615,2.957,8,2.957
			C9.385,2.957,10.613,3.154,11.4,3.46"/>
		<path style="fill:#FFFFFF;" d="M8,6.546c-1.703,0-3.089,1.386-3.089,3.089c0,1.703,1.386,3.089,3.089,3.089
			s3.089-1.386,3.089-3.089C11.089,7.932,9.703,6.546,8,6.546z M8,6.854c1.391,0,2.544,1.028,2.746,2.364L10.066,10L9.408,9.572
			C9.375,8.822,8.758,8.22,8,8.22c-0.719,0-1.309,0.542-1.397,1.238l-0.615-0.4c-0.065-0.042-0.15-0.029-0.2,0.028L5.224,9.735
			c-0.001-0.034-0.005-0.066-0.005-0.1C5.219,8.102,6.467,6.854,8,6.854z M9.107,9.635c0,0.61-0.497,1.107-1.107,1.107
			s-1.107-0.497-1.107-1.107c0-0.61,0.497-1.107,1.107-1.107S9.107,9.025,9.107,9.635z M8,12.416c-1.356,0-2.487-0.976-2.73-2.262
			l0.663-0.764l0.668,0.435c0.001,0.001,0.002,0.001,0.004,0.001C6.698,10.515,7.285,11.05,8,11.05c0.681,0,1.251-0.484,1.385-1.125
			l0.626,0.407c0.026,0.017,0.055,0.025,0.084,0.025c0.043,0,0.086-0.018,0.116-0.053l0.569-0.655
			C10.773,11.175,9.529,12.416,8,12.416z"/>
	</g>
</g>
<g id="Layer_1">
</g>
</svg>
