<?xml version="1.0" encoding="iso-8859-1"?>
<!-- Generator: Adobe Illustrator 24.1.1, SVG Export Plug-In . SVG Version: 6.00 Build 0)  -->
<svg version="1.1" xmlns="http://www.w3.org/2000/svg" xmlns:xlink="http://www.w3.org/1999/xlink" x="0px" y="0px"
	 viewBox="0 0 16 16" style="enable-background:new 0 0 16 16;" xml:space="preserve">
<g id="rollback-snapshot">
	<g>
		<g>
			<polygon style="fill:#555555;" points="2.13,2.122 4.739,2.122 4.739,0.817 2.13,0.817 0.825,0.817 0.825,2.122 0.825,4.731 
				2.13,4.731 			"/>
			<polygon style="fill:#555555;" points="15.175,2.122 15.175,0.817 13.87,0.817 11.261,0.817 11.261,2.122 13.87,2.122 
				13.87,4.731 15.175,4.731 			"/>
			<polygon style="fill:#555555;" points="0.825,13.862 0.825,15.167 2.13,15.167 4.739,15.167 4.739,13.862 2.13,13.862 
				2.13,11.253 0.825,11.253 			"/>
			<polygon style="fill:#555555;" points="15.175,13.862 15.175,11.253 13.87,11.253 13.87,13.862 11.261,13.862 11.261,15.167 
				13.87,15.167 15.175,15.167 			"/>
		</g>
	</g>
	<path style="fill:#555555;" d="M8,13.386c2.619,0,4.751-2.131,4.751-4.751c0-2.407-1.801-4.397-4.125-4.704l0.66-0.661L8.614,2.598
		L6.853,4.359L8.614,6.12l0.672-0.672l-0.54-0.54C10.486,5.257,11.8,6.795,11.8,8.635c0,2.096-1.705,3.8-3.8,3.8s-3.8-1.705-3.8-3.8
		h-0.95C3.249,11.255,5.381,13.386,8,13.386z"/>
</g>
<g id="Layer_1">
</g>
</svg>
