<?xml version="1.0" encoding="iso-8859-1"?>
<!-- Generator: Adobe Illustrator 24.1.1, SVG Export Plug-In . SVG Version: 6.00 Build 0)  -->
<svg version="1.1" xmlns="http://www.w3.org/2000/svg" xmlns:xlink="http://www.w3.org/1999/xlink" x="0px" y="0px"
	 viewBox="0 0 16 16" style="enable-background:new 0 0 16 16;" xml:space="preserve">
<g id="settings">
	<g>
		<path style="fill:#FFFFFF;" d="M2.516,12.631l-0.89,0.891l0.846,0.846l0.89-0.891c0.314,0.207,0.668,0.359,1.05,0.437v1.256h1.196
			v-1.256c0.381-0.078,0.735-0.23,1.049-0.437l0.89,0.89l0.846-0.846l-0.89-0.89c0.208-0.314,0.36-0.668,0.437-1.05h1.256v-1.196
			H7.94c-0.078-0.381-0.23-0.735-0.437-1.049l0.89-0.89L7.547,7.6l-0.89,0.89C6.343,8.282,5.989,8.13,5.607,8.053V6.796H4.411v1.257
			C4.03,8.13,3.676,8.282,3.362,8.49L2.472,7.6L1.625,8.445l0.89,0.89c-0.207,0.314-0.359,0.668-0.437,1.049H0.822v1.196h1.256
			C2.156,11.964,2.308,12.317,2.516,12.631z M5.009,9.188c0.991,0,1.794,0.804,1.794,1.794c0,0.991-0.804,1.794-1.794,1.794
			c-0.991,0-1.794-0.803-1.794-1.794C3.215,9.992,4.019,9.188,5.009,9.188z"/>
		<path style="fill:#FFFFFF;" d="M13.643,3.196L14.55,2.29l-0.846-0.846l-0.907,0.907c-0.189-0.112-0.393-0.199-0.61-0.255V0.814
			h-1.196v1.282c-0.217,0.056-0.421,0.143-0.609,0.253L9.474,1.443L8.629,2.289l0.907,0.907c-0.112,0.189-0.198,0.393-0.254,0.61H8
			v1.196h1.281c0.056,0.217,0.143,0.422,0.254,0.61L8.629,6.519l0.846,0.846l0.907-0.908c0.189,0.112,0.392,0.197,0.609,0.254v1.281
			h1.196V6.711c0.217-0.057,0.421-0.143,0.61-0.254l0.907,0.907l0.846-0.846l-0.907-0.907c0.112-0.189,0.198-0.393,0.254-0.61h1.281
			V3.805h-1.281C13.84,3.588,13.754,3.384,13.643,3.196z M11.589,5.599c-0.66,0-1.196-0.536-1.196-1.196
			c0-0.659,0.537-1.196,1.196-1.196s1.196,0.537,1.196,1.196C12.785,5.063,12.249,5.599,11.589,5.599z"/>
	</g>
</g>
<g id="Layer_1">
</g>
</svg>
