<?xml version="1.0" encoding="iso-8859-1"?>
<!-- Generator: Adobe Illustrator 24.1.1, SVG Export Plug-In . SVG Version: 6.00 Build 0)  -->
<svg version="1.1" xmlns="http://www.w3.org/2000/svg" xmlns:xlink="http://www.w3.org/1999/xlink" x="0px" y="0px"
	 viewBox="0 0 16 16" style="enable-background:new 0 0 16 16;" xml:space="preserve">
<g id="show-related">
	<g>
		<polygon style="fill:#555555;" points="12.022,4.274 10.814,5.482 11.983,6.651 10.005,6.651 3.862,12.794 0.904,12.794 
			0.904,14.503 4.57,14.503 10.713,8.359 11.983,8.359 10.814,9.528 12.022,10.736 15.253,7.505 		"/>
		<g>
			<path style="fill:#555555;" d="M8.917,3.816C7.759,2.299,6.384,1.497,4.941,1.497c-1.444,0-2.819,0.802-3.975,2.319L0.747,4.102
				l0.219,0.287c1.158,1.517,2.532,2.319,3.975,2.319c1.443,0,2.818-0.802,3.976-2.318l0.218-0.287L8.917,3.816z M7.935,4.102
				c-0.916,1.086-1.949,1.66-2.994,1.66c-1.045,0-2.078-0.574-2.994-1.66c0.915-1.086,1.948-1.66,2.994-1.66
				S7.019,3.016,7.935,4.102z"/>
			<path style="fill:#555555;" d="M4.941,2.768c-0.735,0-1.334,0.599-1.334,1.334s0.599,1.334,1.334,1.334s1.334-0.599,1.334-1.334
				S5.676,2.768,4.941,2.768z M4.941,4.598c-0.273,0-0.495-0.222-0.495-0.495s0.222-0.495,0.495-0.495
				c0.273,0,0.495,0.222,0.495,0.495S5.214,4.598,4.941,4.598z"/>
		</g>
	</g>
</g>
<g id="Layer_1">
</g>
</svg>
