<?xml version="1.0" encoding="iso-8859-1"?>
<!-- Generator: Adobe Illustrator 24.1.1, SVG Export Plug-In . SVG Version: 6.00 Build 0)  -->
<svg version="1.1" xmlns="http://www.w3.org/2000/svg" xmlns:xlink="http://www.w3.org/1999/xlink" x="0px" y="0px"
	 viewBox="0 0 16 16" style="enable-background:new 0 0 16 16;" xml:space="preserve">
<g id="sybase-connection">
	<g>
		<path style="fill:#555555;" d="M8,0.825c-2.989,0-5.413,0.878-5.413,1.96v10.429c0,1.074,2.384,1.945,5.339,1.959v0.001h0.058
			c0.005,0,0.011,0,0.016,0v0c2.989,0,5.413-0.877,5.413-1.96V2.786C13.413,1.703,10.989,0.825,8,0.825z"/>
		<path style="fill:#171F69;" d="M12.306,2.673c0,0.715-1.928,1.294-4.306,1.294S3.693,3.387,3.693,2.673
			c0-0.714,1.928-1.294,4.307-1.294S12.306,1.958,12.306,2.673"/>
		<path style="fill:#FFFFFF;" d="M11.404,3.463c0.564-0.219,0.902-0.492,0.902-0.79c0-0.715-1.928-1.294-4.307-1.294
			c-2.378,0-4.306,0.579-4.306,1.294c0,0.297,0.339,0.571,0.902,0.79C5.384,3.158,6.614,2.96,8,2.96
			C9.386,2.96,10.616,3.158,11.404,3.463"/>
	</g>
	<g>
		<path style="fill-rule:evenodd;clip-rule:evenodd;fill:#FFFFFF;" d="M8.608,6.929c0-0.556,0-1.105,0-1.661
			c0.869,0.017,1.633,0.792,1.651,1.661C9.702,6.929,9.164,6.929,8.608,6.929L8.608,6.929z"/>
		<path style="fill-rule:evenodd;clip-rule:evenodd;fill:#FFFFFF;" d="M8.608,7.075c0,0,0.156,0,0.208,0
			C8.729,7.128,8.66,7.197,8.608,7.284C8.608,7.201,8.608,7.075,8.608,7.075L8.608,7.075z"/>
		<path style="fill-rule:evenodd;clip-rule:evenodd;fill:#FFFFFF;" d="M8.608,8.257c0,0,0.156,0,0.208,0
			C8.729,8.205,8.66,8.135,8.608,8.048C8.608,8.131,8.608,8.257,8.608,8.257L8.608,8.257z"/>
		<path style="fill-rule:evenodd;clip-rule:evenodd;fill:#FFFFFF;" d="M9.286,7.075c0,0,0.642,0,0.972,0
			C10.189,7.562,9.79,7.979,9.286,8.014C9.286,7.605,9.286,7.075,9.286,7.075L9.286,7.075z"/>
		<path style="fill-rule:evenodd;clip-rule:evenodd;fill:#FFFFFF;" d="M9.127,7.301c0,0,0,0.439,0,0.712
			c-0.161,0-0.31-0.172-0.31-0.333C8.816,7.368,9.127,7.301,9.127,7.301L9.127,7.301z"/>
		<path style="fill-rule:evenodd;clip-rule:evenodd;fill:#FFFFFF;" d="M8.447,8.257c0,0-1.994,0-2.966,0
			c0-1.564,1.386-2.988,2.966-2.988C8.447,6.884,8.447,8.257,8.447,8.257L8.447,8.257z"/>
		<path style="fill-rule:evenodd;clip-rule:evenodd;fill:#FFFFFF;" d="M10.519,8.396c0,0,0,3.244,0,4.86
			c-2.649,0.022-5.038-2.236-5.038-4.86C7.131,8.396,10.519,8.396,10.519,8.396L10.519,8.396z"/>
	</g>
</g>
<g id="Layer_1">
</g>
</svg>
