<?xml version="1.0" encoding="iso-8859-1"?>
<!-- Generator: Adobe Illustrator 25.4.1, SVG Export Plug-In . SVG Version: 6.00 Build 0)  -->
<svg version="1.1" xmlns="http://www.w3.org/2000/svg" xmlns:xlink="http://www.w3.org/1999/xlink" x="0px" y="0px"
	 viewBox="0 0 16 16" style="enable-background:new 0 0 16 16;" xml:space="preserve">
<g id="_x5F__x5F_events">
	<g>
		<path style="fill:#686969;" d="M11.258,13.213v1.303h3.91V2.135h-2.607V0.832h-1.303v1.303H4.742V0.832H3.438v1.303H0.832v12.382
			h3.91v-1.303H2.135V6.697h11.73v6.517H11.258z M2.135,5.393V3.438h1.303v1.303h1.303V3.438h6.517v1.303h1.303V3.438h1.303v1.955
			H2.135z"/>
		<path style="fill:#0088B6;" d="M7.348,9.303h1.303c0.36,0,0.652,0.292,0.652,0.652h1.303C10.607,8.877,9.73,8,8.652,8V7.348H7.348
			V8C6.27,8,5.393,8.877,5.393,9.955S6.27,11.91,7.348,11.91h1.303c0.36,0,0.652,0.292,0.652,0.652c0,0.359-0.292,0.652-0.652,0.652
			H7.348c-0.36,0-0.652-0.293-0.652-0.652H5.393c0,1.078,0.877,1.955,1.955,1.955v0.652h1.303v-0.652
			c1.078,0,1.955-0.877,1.955-1.955s-0.877-1.955-1.955-1.955H7.348c-0.36,0-0.652-0.293-0.652-0.652
			C6.697,9.595,6.989,9.303,7.348,9.303z"/>
	</g>
</g>
<g id="Layer_1">
</g>
</svg>
