<?xml version="1.0" encoding="utf-8"?>
<!-- Generator: Adobe Illustrator 23.0.3, SVG Export Plug-In . SVG Version: 6.00 Build 0)  -->
<svg version="1.1" id="Layer_1" xmlns="http://www.w3.org/2000/svg" xmlns:xlink="http://www.w3.org/1999/xlink" x="0px" y="0px"
	 viewBox="0 0 841.89 246" style="enable-background:new 0 0 841.89 246;" xml:space="preserve">
<style type="text/css">
	.st0{fill:#C40D3C;}
	.st1{fill:#FFFFFF;}
</style>
<g>
	<g>
		<path class="st0" d="M237.26,208.46c0,3.54-0.45,6.64-1.34,9.28c-0.89,2.65-2.2,4.84-3.91,6.58c-1.71,1.74-3.82,3.04-6.31,3.91
			c-2.49,0.87-5.47,1.3-8.92,1.3h-8.54c-0.48,0-0.93-0.16-1.36-0.49c-0.43-0.33-0.64-0.9-0.64-1.72v-36.5c0-0.82,0.21-1.4,0.64-1.72
			c0.43-0.33,0.88-0.49,1.36-0.49h9.14c3.49,0,6.44,0.46,8.86,1.38c2.41,0.92,4.43,2.23,6.07,3.95c1.63,1.72,2.87,3.8,3.71,6.25
			C236.84,202.62,237.26,205.38,237.26,208.46z M231.62,208.68c0-2.21-0.27-4.28-0.81-6.18c-0.54-1.91-1.39-3.56-2.54-4.95
			c-1.15-1.39-2.61-2.48-4.38-3.26c-1.77-0.78-4.04-1.17-6.83-1.17h-5.46v31.85h5.52c2.58,0,4.75-0.33,6.52-0.98
			c1.77-0.65,3.24-1.66,4.43-3.01c1.19-1.35,2.07-3.04,2.67-5.08C231.32,213.88,231.62,211.47,231.62,208.68z"/>
		<path class="st0" d="M273.21,227.6c0.17,0.46,0.25,0.84,0.26,1.12c0.01,0.28-0.07,0.5-0.23,0.65c-0.17,0.15-0.44,0.24-0.83,0.28
			c-0.38,0.04-0.9,0.06-1.54,0.06s-1.16-0.02-1.54-0.05c-0.39-0.03-0.68-0.08-0.87-0.16s-0.34-0.17-0.44-0.3
			c-0.09-0.13-0.18-0.28-0.26-0.47l-3.46-9.96h-16.78l-3.31,9.84c-0.06,0.19-0.15,0.35-0.25,0.49c-0.1,0.14-0.25,0.25-0.45,0.35
			c-0.2,0.09-0.48,0.16-0.84,0.21c-0.36,0.04-0.84,0.06-1.42,0.06c-0.6,0-1.1-0.03-1.48-0.08c-0.39-0.05-0.66-0.15-0.81-0.3
			c-0.16-0.15-0.23-0.36-0.22-0.65c0.01-0.28,0.1-0.66,0.26-1.12l13.53-38.02c0.08-0.23,0.19-0.42,0.33-0.57
			c0.14-0.15,0.33-0.26,0.59-0.35c0.26-0.08,0.59-0.14,1-0.17c0.41-0.03,0.92-0.05,1.54-0.05c0.67,0,1.22,0.02,1.65,0.05
			c0.44,0.03,0.79,0.09,1.06,0.17c0.27,0.08,0.48,0.21,0.62,0.36c0.15,0.16,0.26,0.35,0.34,0.59L273.21,227.6z M255.84,194.04h-0.03
			l-6.95,20.4h14.03L255.84,194.04z"/>
		<path class="st0" d="M298.65,190.94c0,0.4-0.02,0.75-0.06,1.04c-0.04,0.29-0.11,0.53-0.2,0.71c-0.09,0.18-0.21,0.31-0.34,0.4
			c-0.14,0.08-0.29,0.13-0.45,0.13h-11.35v35.49c0,0.17-0.04,0.32-0.12,0.44c-0.08,0.13-0.23,0.23-0.44,0.3
			c-0.21,0.07-0.48,0.14-0.83,0.19c-0.34,0.05-0.77,0.08-1.29,0.08c-0.5,0-0.93-0.03-1.28-0.08c-0.35-0.05-0.63-0.12-0.84-0.19
			c-0.21-0.07-0.35-0.17-0.44-0.3c-0.08-0.13-0.12-0.27-0.12-0.44v-35.49h-11.35c-0.17,0-0.32-0.04-0.45-0.13
			c-0.14-0.08-0.24-0.22-0.33-0.4c-0.08-0.18-0.15-0.42-0.2-0.71c-0.05-0.3-0.08-0.64-0.08-1.04c0-0.4,0.03-0.75,0.08-1.06
			c0.05-0.31,0.12-0.55,0.2-0.74c0.08-0.19,0.19-0.33,0.33-0.41c0.14-0.08,0.29-0.13,0.45-0.13h28.07c0.17,0,0.32,0.04,0.45,0.13
			c0.14,0.09,0.25,0.22,0.34,0.41c0.09,0.19,0.16,0.44,0.2,0.74C298.63,190.18,298.65,190.54,298.65,190.94z"/>
		<path class="st0" d="M328.12,227.6c0.17,0.46,0.25,0.84,0.26,1.12c0.01,0.28-0.07,0.5-0.23,0.65c-0.17,0.15-0.44,0.24-0.83,0.28
			c-0.38,0.04-0.9,0.06-1.54,0.06c-0.64,0-1.16-0.02-1.54-0.05c-0.39-0.03-0.68-0.08-0.87-0.16s-0.34-0.17-0.44-0.3
			c-0.09-0.13-0.18-0.28-0.26-0.47l-3.46-9.96h-16.78l-3.31,9.84c-0.06,0.19-0.15,0.35-0.25,0.49c-0.1,0.14-0.25,0.25-0.45,0.35
			c-0.2,0.09-0.48,0.16-0.84,0.21c-0.36,0.04-0.84,0.06-1.42,0.06c-0.6,0-1.1-0.03-1.48-0.08c-0.39-0.05-0.66-0.15-0.81-0.3
			c-0.16-0.15-0.23-0.36-0.22-0.65c0.01-0.28,0.1-0.66,0.26-1.12l13.53-38.02c0.08-0.23,0.19-0.42,0.33-0.57
			c0.14-0.15,0.33-0.26,0.59-0.35c0.26-0.08,0.59-0.14,1-0.17c0.41-0.03,0.92-0.05,1.54-0.05c0.67,0,1.22,0.02,1.65,0.05
			c0.44,0.03,0.79,0.09,1.06,0.17c0.27,0.08,0.48,0.21,0.62,0.36c0.15,0.16,0.26,0.35,0.34,0.59L328.12,227.6z M310.75,194.04h-0.03
			l-6.95,20.4h14.03L310.75,194.04z"/>
		<path class="st0" d="M382.21,227.6c0.17,0.46,0.25,0.84,0.26,1.12c0.01,0.28-0.07,0.5-0.23,0.65c-0.17,0.15-0.44,0.24-0.83,0.28
			c-0.38,0.04-0.9,0.06-1.54,0.06s-1.16-0.02-1.54-0.05c-0.39-0.03-0.68-0.08-0.87-0.16s-0.34-0.17-0.44-0.3
			c-0.09-0.13-0.18-0.28-0.26-0.47l-3.46-9.96h-16.78l-3.31,9.84c-0.06,0.19-0.15,0.35-0.25,0.49c-0.1,0.14-0.25,0.25-0.45,0.35
			c-0.2,0.09-0.48,0.16-0.84,0.21c-0.36,0.04-0.84,0.06-1.42,0.06c-0.6,0-1.1-0.03-1.48-0.08c-0.39-0.05-0.66-0.15-0.81-0.3
			c-0.16-0.15-0.23-0.36-0.22-0.65c0.01-0.28,0.1-0.66,0.26-1.12l13.53-38.02c0.08-0.23,0.19-0.42,0.33-0.57
			c0.14-0.15,0.33-0.26,0.59-0.35c0.26-0.08,0.59-0.14,1-0.17c0.41-0.03,0.92-0.05,1.54-0.05c0.67,0,1.22,0.02,1.65,0.05
			c0.44,0.03,0.79,0.09,1.06,0.17c0.27,0.08,0.48,0.21,0.62,0.36c0.15,0.16,0.26,0.35,0.34,0.59L382.21,227.6z M364.84,194.04h-0.03
			l-6.95,20.4h14.03L364.84,194.04z"/>
		<path class="st0" d="M416.7,214.41c0,2.49-0.36,4.71-1.08,6.66c-0.72,1.95-1.74,3.6-3.07,4.95c-1.33,1.35-2.95,2.37-4.86,3.07
			c-1.91,0.7-4.08,1.04-6.52,1.04c-2.23,0-4.25-0.33-6.08-0.98c-1.83-0.65-3.4-1.62-4.71-2.89c-1.31-1.28-2.32-2.87-3.02-4.79
			c-0.71-1.92-1.06-4.13-1.06-6.64v-25.4c0-0.17,0.04-0.32,0.12-0.44c0.08-0.13,0.23-0.23,0.44-0.3c0.21-0.07,0.48-0.14,0.81-0.19
			c0.33-0.05,0.77-0.08,1.31-0.08c0.5,0,0.92,0.03,1.28,0.08c0.35,0.05,0.63,0.12,0.83,0.19c0.2,0.07,0.34,0.17,0.42,0.3
			c0.08,0.13,0.12,0.27,0.12,0.44v24.74c0,1.9,0.23,3.55,0.69,4.97c0.46,1.41,1.12,2.59,1.98,3.53c0.86,0.94,1.9,1.64,3.12,2.12
			c1.22,0.47,2.58,0.71,4.1,0.71c1.56,0,2.95-0.23,4.16-0.7c1.22-0.46,2.25-1.16,3.09-2.09s1.49-2.08,1.93-3.45
			c0.45-1.37,0.67-2.97,0.67-4.81v-25.02c0-0.17,0.04-0.32,0.12-0.44c0.08-0.13,0.23-0.23,0.44-0.3c0.21-0.07,0.48-0.14,0.83-0.19
			c0.34-0.05,0.77-0.08,1.29-0.08c0.5,0,0.92,0.03,1.26,0.08c0.34,0.05,0.61,0.12,0.81,0.19c0.2,0.07,0.34,0.17,0.44,0.3
			c0.09,0.13,0.14,0.27,0.14,0.44V214.41z"/>
		<path class="st0" d="M451.03,190.94c0,0.4-0.02,0.75-0.06,1.04c-0.04,0.29-0.11,0.53-0.2,0.71c-0.09,0.18-0.21,0.31-0.34,0.4
			c-0.14,0.08-0.29,0.13-0.45,0.13h-11.35v35.49c0,0.17-0.04,0.32-0.12,0.44c-0.08,0.13-0.23,0.23-0.44,0.3
			c-0.21,0.07-0.48,0.14-0.83,0.19c-0.34,0.05-0.77,0.08-1.29,0.08c-0.5,0-0.93-0.03-1.28-0.08c-0.35-0.05-0.63-0.12-0.84-0.19
			c-0.21-0.07-0.35-0.17-0.44-0.3c-0.08-0.13-0.12-0.27-0.12-0.44v-35.49H421.9c-0.17,0-0.32-0.04-0.45-0.13
			c-0.14-0.08-0.24-0.22-0.33-0.4c-0.08-0.18-0.15-0.42-0.2-0.71c-0.05-0.3-0.08-0.64-0.08-1.04c0-0.4,0.03-0.75,0.08-1.06
			c0.05-0.31,0.12-0.55,0.2-0.74c0.08-0.19,0.19-0.33,0.33-0.41c0.14-0.08,0.29-0.13,0.45-0.13h28.07c0.17,0,0.32,0.04,0.45,0.13
			c0.13,0.09,0.25,0.22,0.34,0.41c0.09,0.19,0.16,0.44,0.2,0.74C451.01,190.18,451.03,190.54,451.03,190.94z"/>
		<path class="st0" d="M487.26,208.59c0,3.31-0.38,6.29-1.15,8.95c-0.77,2.66-1.92,4.92-3.45,6.79c-1.53,1.87-3.45,3.3-5.75,4.3
			s-5,1.5-8.08,1.5c-3.04,0-5.66-0.46-7.87-1.38c-2.21-0.92-4.04-2.25-5.49-4c-1.45-1.75-2.52-3.92-3.23-6.52
			c-0.71-2.59-1.06-5.58-1.06-8.95c0-3.23,0.38-6.16,1.15-8.79s1.92-4.88,3.46-6.72c1.54-1.84,3.46-3.27,5.77-4.27
			c2.31-1,5-1.5,8.08-1.5c2.97,0,5.56,0.45,7.76,1.36c2.2,0.91,4.04,2.23,5.5,3.97c1.47,1.74,2.56,3.89,3.27,6.45
			C486.9,202.34,487.26,205.28,487.26,208.59z M481.58,208.97c0-2.32-0.2-4.48-0.61-6.47c-0.4-1.99-1.08-3.72-2.02-5.19
			s-2.21-2.61-3.78-3.43c-1.58-0.82-3.53-1.23-5.86-1.23c-2.33,0-4.28,0.44-5.86,1.33c-1.58,0.89-2.86,2.07-3.85,3.54
			s-1.69,3.2-2.12,5.17c-0.43,1.97-0.64,4.04-0.64,6.22c0,2.4,0.2,4.62,0.59,6.64c0.39,2.02,1.06,3.77,1.99,5.23
			c0.93,1.47,2.19,2.61,3.75,3.42c1.57,0.81,3.54,1.22,5.9,1.22c2.35,0,4.32-0.44,5.92-1.33c1.6-0.89,2.89-2.08,3.86-3.59
			c0.98-1.51,1.67-3.25,2.09-5.24C481.38,213.28,481.58,211.18,481.58,208.97z"/>
		<path class="st0" d="M538.03,228.71c0,0.17-0.04,0.32-0.13,0.44c-0.09,0.13-0.24,0.23-0.45,0.3c-0.21,0.07-0.49,0.14-0.82,0.19
			c-0.33,0.05-0.77,0.08-1.3,0.08c-0.49,0-0.92-0.03-1.27-0.08c-0.35-0.05-0.63-0.12-0.83-0.19s-0.35-0.17-0.43-0.3
			c-0.09-0.13-0.13-0.27-0.13-0.44v-35.65h-0.06l-14.22,35.81c-0.06,0.15-0.15,0.27-0.26,0.38c-0.11,0.11-0.28,0.2-0.5,0.27
			c-0.22,0.07-0.48,0.13-0.78,0.16c-0.3,0.03-0.66,0.05-1.08,0.05c-0.44,0-0.81-0.02-1.12-0.06c-0.31-0.04-0.57-0.1-0.78-0.17
			c-0.21-0.07-0.37-0.16-0.48-0.27c-0.11-0.1-0.19-0.22-0.23-0.35l-13.6-35.81h-0.03v35.65c0,0.17-0.04,0.32-0.13,0.44
			c-0.09,0.13-0.24,0.23-0.45,0.3c-0.21,0.07-0.49,0.14-0.83,0.19c-0.34,0.05-0.78,0.08-1.32,0.08c-0.51,0-0.94-0.03-1.29-0.08
			c-0.34-0.05-0.61-0.12-0.82-0.19s-0.34-0.17-0.42-0.3c-0.07-0.13-0.11-0.27-0.11-0.44v-37.64c0-0.89,0.23-1.52,0.7-1.9
			c0.46-0.38,0.98-0.57,1.55-0.57h3.29c0.68,0,1.27,0.06,1.77,0.19c0.51,0.13,0.95,0.33,1.33,0.6c0.38,0.27,0.7,0.62,0.95,1.04
			c0.25,0.42,0.47,0.92,0.66,1.49l11.54,29.64h0.16l12.01-29.54c0.23-0.63,0.48-1.17,0.76-1.61c0.27-0.44,0.58-0.8,0.9-1.06
			c0.33-0.26,0.69-0.45,1.09-0.57c0.4-0.12,0.87-0.17,1.39-0.17h3.45c0.32,0,0.62,0.05,0.9,0.14c0.29,0.09,0.53,0.24,0.73,0.44
			c0.2,0.2,0.36,0.45,0.49,0.76c0.13,0.31,0.19,0.68,0.19,1.12V228.71z"/>
		<path class="st0" d="M577.37,227.6c0.17,0.46,0.25,0.84,0.26,1.12c0.01,0.28-0.07,0.5-0.23,0.65c-0.17,0.15-0.44,0.24-0.83,0.28
			c-0.39,0.04-0.9,0.06-1.54,0.06c-0.65,0-1.16-0.02-1.54-0.05c-0.38-0.03-0.68-0.08-0.87-0.16c-0.2-0.07-0.34-0.17-0.44-0.3
			c-0.09-0.13-0.18-0.28-0.26-0.47l-3.46-9.96h-16.78l-3.3,9.84c-0.06,0.19-0.15,0.35-0.25,0.49c-0.1,0.14-0.25,0.25-0.45,0.35
			c-0.2,0.09-0.48,0.16-0.84,0.21c-0.36,0.04-0.84,0.06-1.42,0.06c-0.6,0-1.1-0.03-1.48-0.08c-0.38-0.05-0.65-0.15-0.81-0.3
			c-0.16-0.15-0.23-0.36-0.22-0.65c0.01-0.28,0.1-0.66,0.26-1.12l13.54-38.02c0.08-0.23,0.19-0.42,0.33-0.57
			c0.14-0.15,0.33-0.26,0.59-0.35c0.26-0.08,0.59-0.14,1-0.17c0.41-0.03,0.92-0.05,1.54-0.05c0.66,0,1.22,0.02,1.65,0.05
			c0.44,0.03,0.79,0.09,1.06,0.17c0.27,0.08,0.48,0.21,0.62,0.36c0.15,0.16,0.26,0.35,0.34,0.59L577.37,227.6z M560,194.04h-0.03
			l-6.95,20.4h14.03L560,194.04z"/>
		<path class="st0" d="M612.36,194.16c0,0.4-0.02,0.75-0.06,1.06c-0.04,0.31-0.1,0.56-0.19,0.76c-0.08,0.2-0.19,0.34-0.31,0.43
			c-0.12,0.08-0.26,0.13-0.41,0.13c-0.25,0-0.66-0.2-1.25-0.6c-0.58-0.4-1.36-0.84-2.34-1.33c-0.98-0.48-2.15-0.93-3.51-1.33
			c-1.36-0.4-2.98-0.6-4.85-0.6c-2.22,0-4.22,0.41-5.99,1.23c-1.77,0.82-3.26,1.96-4.49,3.42c-1.23,1.45-2.17,3.18-2.82,5.19
			c-0.65,2-0.98,4.18-0.98,6.52c0,2.62,0.36,4.93,1.08,6.96c0.72,2.03,1.71,3.73,2.98,5.12c1.27,1.39,2.78,2.45,4.54,3.16
			c1.76,0.72,3.68,1.08,5.78,1.08c1.25,0,2.51-0.15,3.79-0.46c1.28-0.31,2.47-0.76,3.57-1.38v-11.92h-9.36
			c-0.35,0-0.62-0.18-0.79-0.54c-0.18-0.36-0.27-0.92-0.27-1.68c0-0.4,0.02-0.74,0.06-1.03c0.04-0.29,0.11-0.52,0.2-0.7
			c0.09-0.18,0.2-0.31,0.33-0.4c0.12-0.08,0.28-0.13,0.47-0.13h12.82c0.23,0,0.46,0.04,0.69,0.13c0.23,0.08,0.44,0.21,0.62,0.38
			c0.19,0.17,0.33,0.4,0.44,0.7c0.1,0.3,0.16,0.63,0.16,1.01v15.59c0,0.55-0.09,1.02-0.28,1.42c-0.19,0.4-0.58,0.75-1.19,1.06
			c-0.6,0.31-1.38,0.64-2.34,1c-0.96,0.36-1.94,0.66-2.96,0.92c-1.02,0.25-2.05,0.44-3.09,0.57c-1.04,0.13-2.07,0.19-3.09,0.19
			c-3.12,0-5.91-0.49-8.36-1.47c-2.45-0.98-4.53-2.38-6.22-4.19c-1.69-1.81-2.99-3.99-3.88-6.52c-0.89-2.53-1.34-5.36-1.34-8.48
			c0-3.25,0.48-6.19,1.45-8.83c0.97-2.64,2.33-4.88,4.09-6.74c1.76-1.86,3.87-3.3,6.33-4.32c2.46-1.02,5.19-1.53,8.19-1.53
			c1.54,0,2.98,0.14,4.33,0.41c1.35,0.27,2.55,0.6,3.6,0.96c1.05,0.37,1.93,0.77,2.65,1.2c0.72,0.43,1.21,0.79,1.48,1.06
			c0.27,0.27,0.46,0.59,0.56,0.95C612.31,192.97,612.36,193.49,612.36,194.16z"/>
		<path class="st0" d="M626.11,228.71c0,0.17-0.04,0.32-0.12,0.44c-0.08,0.13-0.23,0.23-0.44,0.3c-0.21,0.07-0.48,0.14-0.83,0.19
			c-0.34,0.05-0.77,0.08-1.29,0.08c-0.5,0-0.93-0.03-1.28-0.08c-0.35-0.05-0.63-0.12-0.84-0.19c-0.21-0.07-0.35-0.17-0.44-0.3
			c-0.08-0.13-0.12-0.27-0.12-0.44v-39.29c0-0.17,0.05-0.32,0.14-0.44c0.09-0.13,0.25-0.23,0.47-0.3c0.22-0.07,0.5-0.14,0.84-0.19
			c0.34-0.05,0.75-0.08,1.23-0.08c0.52,0,0.95,0.03,1.29,0.08c0.34,0.05,0.62,0.12,0.83,0.19c0.21,0.07,0.35,0.17,0.44,0.3
			c0.08,0.13,0.12,0.27,0.12,0.44V228.71z"/>
		<path class="st0" d="M662.18,223.74c0,0.34-0.01,0.63-0.03,0.89c-0.02,0.25-0.06,0.48-0.11,0.67c-0.05,0.19-0.12,0.36-0.2,0.51
			c-0.08,0.15-0.23,0.33-0.44,0.54c-0.21,0.21-0.65,0.53-1.31,0.96c-0.66,0.43-1.49,0.85-2.48,1.26c-0.99,0.41-2.12,0.76-3.4,1.04
			c-1.28,0.29-2.68,0.43-4.19,0.43c-2.62,0-4.98-0.44-7.09-1.33c-2.11-0.89-3.91-2.19-5.39-3.92c-1.49-1.73-2.63-3.86-3.43-6.41
			c-0.8-2.54-1.2-5.47-1.2-8.78c0-3.39,0.43-6.42,1.29-9.08c0.86-2.66,2.07-4.91,3.63-6.75c1.56-1.84,3.43-3.25,5.6-4.22
			c2.17-0.97,4.58-1.45,7.22-1.45c1.16,0,2.3,0.11,3.4,0.33c1.1,0.22,2.12,0.5,3.06,0.84c0.94,0.34,1.77,0.73,2.49,1.17
			c0.73,0.44,1.23,0.81,1.51,1.09c0.28,0.29,0.46,0.5,0.55,0.65c0.08,0.15,0.15,0.32,0.2,0.52c0.05,0.2,0.09,0.44,0.12,0.71
			c0.03,0.27,0.05,0.6,0.05,0.98c0,0.42-0.02,0.78-0.06,1.07c-0.04,0.3-0.1,0.54-0.19,0.74c-0.08,0.2-0.18,0.35-0.3,0.44
			c-0.11,0.1-0.26,0.14-0.42,0.14c-0.29,0-0.7-0.21-1.22-0.62s-1.2-0.86-2.02-1.36c-0.83-0.49-1.83-0.95-3.01-1.36
			c-1.18-0.41-2.6-0.62-4.25-0.62c-1.8,0-3.43,0.36-4.91,1.09c-1.47,0.73-2.73,1.8-3.78,3.21c-1.05,1.41-1.85,3.14-2.43,5.17
			c-0.57,2.03-0.86,4.36-0.86,6.97c0,2.59,0.28,4.89,0.83,6.88c0.55,1.99,1.35,3.66,2.38,5c1.03,1.34,2.3,2.35,3.81,3.04
			c1.5,0.69,3.21,1.03,5.11,1.03c1.61,0,3.02-0.2,4.22-0.6c1.2-0.4,2.23-0.85,3.07-1.34c0.85-0.5,1.54-0.94,2.08-1.34
			s0.97-0.6,1.29-0.6c0.15,0,0.27,0.03,0.38,0.09c0.1,0.06,0.19,0.18,0.25,0.36c0.06,0.18,0.11,0.43,0.14,0.74
			C662.16,222.85,662.18,223.26,662.18,223.74z"/>
		<path class="st0" d="M697.91,227.6c0.17,0.46,0.25,0.84,0.26,1.12c0.01,0.28-0.07,0.5-0.23,0.65c-0.17,0.15-0.44,0.24-0.83,0.28
			c-0.39,0.04-0.9,0.06-1.54,0.06c-0.65,0-1.16-0.02-1.54-0.05c-0.38-0.03-0.68-0.08-0.87-0.16c-0.2-0.07-0.34-0.17-0.44-0.3
			c-0.09-0.13-0.18-0.28-0.26-0.47l-3.46-9.96h-16.78l-3.3,9.84c-0.06,0.19-0.15,0.35-0.25,0.49c-0.1,0.14-0.25,0.25-0.45,0.35
			c-0.2,0.09-0.48,0.16-0.84,0.21c-0.36,0.04-0.84,0.06-1.42,0.06c-0.6,0-1.1-0.03-1.48-0.08c-0.38-0.05-0.65-0.15-0.81-0.3
			c-0.16-0.15-0.23-0.36-0.22-0.65c0.01-0.28,0.1-0.66,0.26-1.12l13.54-38.02c0.08-0.23,0.19-0.42,0.33-0.57
			c0.14-0.15,0.33-0.26,0.59-0.35c0.26-0.08,0.59-0.14,1-0.17c0.41-0.03,0.92-0.05,1.54-0.05c0.66,0,1.22,0.02,1.65,0.05
			c0.44,0.03,0.79,0.09,1.06,0.17c0.27,0.08,0.48,0.21,0.62,0.36c0.15,0.16,0.26,0.35,0.34,0.59L697.91,227.6z M680.54,194.04h-0.03
			l-6.95,20.4h14.03L680.54,194.04z"/>
		<path class="st0" d="M723.35,190.94c0,0.4-0.02,0.75-0.06,1.04c-0.04,0.29-0.11,0.53-0.2,0.71c-0.09,0.18-0.21,0.31-0.34,0.4
			c-0.14,0.08-0.29,0.13-0.45,0.13h-11.35v35.49c0,0.17-0.04,0.32-0.12,0.44c-0.08,0.13-0.23,0.23-0.44,0.3s-0.48,0.14-0.83,0.19
			c-0.34,0.05-0.77,0.08-1.29,0.08c-0.5,0-0.92-0.03-1.28-0.08c-0.35-0.05-0.63-0.12-0.84-0.19s-0.35-0.17-0.44-0.3
			c-0.08-0.13-0.12-0.27-0.12-0.44v-35.49h-11.35c-0.17,0-0.32-0.04-0.45-0.13c-0.14-0.08-0.24-0.22-0.33-0.4
			c-0.08-0.18-0.15-0.42-0.2-0.71c-0.05-0.3-0.08-0.64-0.08-1.04c0-0.4,0.03-0.75,0.08-1.06c0.05-0.31,0.12-0.55,0.2-0.74
			c0.08-0.19,0.19-0.33,0.33-0.41c0.14-0.08,0.29-0.13,0.45-0.13h28.07c0.17,0,0.32,0.04,0.45,0.13c0.13,0.09,0.25,0.22,0.34,0.41
			c0.09,0.19,0.16,0.44,0.2,0.74C723.33,190.18,723.35,190.54,723.35,190.94z"/>
		<path class="st0" d="M732.95,228.71c0,0.17-0.04,0.32-0.12,0.44c-0.08,0.13-0.23,0.23-0.44,0.3c-0.21,0.07-0.48,0.14-0.83,0.19
			c-0.34,0.05-0.77,0.08-1.29,0.08c-0.5,0-0.93-0.03-1.28-0.08c-0.35-0.05-0.63-0.12-0.84-0.19c-0.21-0.07-0.35-0.17-0.44-0.3
			c-0.08-0.13-0.12-0.27-0.12-0.44v-39.29c0-0.17,0.05-0.32,0.14-0.44c0.09-0.13,0.25-0.23,0.47-0.3c0.22-0.07,0.5-0.14,0.84-0.19
			c0.34-0.05,0.75-0.08,1.23-0.08c0.52,0,0.95,0.03,1.29,0.08c0.34,0.05,0.62,0.12,0.83,0.19c0.21,0.07,0.35,0.17,0.44,0.3
			c0.08,0.13,0.12,0.27,0.12,0.44V228.71z"/>
		<path class="st0" d="M775.89,208.59c0,3.31-0.38,6.29-1.15,8.95c-0.77,2.66-1.92,4.92-3.45,6.79s-3.45,3.3-5.75,4.3
			s-5,1.5-8.08,1.5c-3.04,0-5.66-0.46-7.87-1.38s-4.04-2.25-5.49-4c-1.45-1.75-2.52-3.92-3.23-6.52c-0.71-2.59-1.06-5.58-1.06-8.95
			c0-3.23,0.38-6.16,1.15-8.79s1.92-4.88,3.46-6.72c1.54-1.84,3.46-3.27,5.77-4.27c2.31-1,5-1.5,8.08-1.5
			c2.97,0,5.56,0.45,7.76,1.36c2.2,0.91,4.04,2.23,5.5,3.97c1.47,1.74,2.56,3.89,3.27,6.45
			C775.53,202.34,775.89,205.28,775.89,208.59z M770.21,208.97c0-2.32-0.2-4.48-0.61-6.47c-0.4-1.99-1.08-3.72-2.02-5.19
			c-0.95-1.47-2.21-2.61-3.78-3.43c-1.58-0.82-3.53-1.23-5.86-1.23c-2.33,0-4.28,0.44-5.86,1.33c-1.58,0.89-2.86,2.07-3.85,3.54
			s-1.69,3.2-2.12,5.17c-0.43,1.97-0.64,4.04-0.64,6.22c0,2.4,0.2,4.62,0.59,6.64c0.39,2.02,1.06,3.77,1.99,5.23
			c0.93,1.47,2.19,2.61,3.75,3.42c1.57,0.81,3.54,1.22,5.9,1.22c2.35,0,4.32-0.44,5.92-1.33c1.6-0.89,2.89-2.08,3.86-3.59
			s1.67-3.25,2.09-5.24C770.01,213.28,770.21,211.18,770.21,208.97z"/>
		<path class="st0" d="M813.27,227.28c0,0.42-0.07,0.78-0.21,1.08c-0.14,0.3-0.32,0.54-0.55,0.73c-0.23,0.19-0.48,0.33-0.76,0.41
			c-0.28,0.08-0.56,0.13-0.84,0.13h-1.77c-0.56,0-1.05-0.06-1.47-0.17c-0.42-0.12-0.82-0.33-1.19-0.63
			c-0.38-0.31-0.75-0.72-1.13-1.25c-0.38-0.53-0.78-1.2-1.2-2.02l-12.31-23.28c-0.64-1.2-1.29-2.46-1.95-3.78s-1.26-2.6-1.82-3.84
			h-0.06c0.04,1.52,0.07,3.07,0.09,4.65c0.02,1.58,0.03,3.15,0.03,4.71v24.7c0,0.15-0.04,0.29-0.13,0.43
			c-0.09,0.14-0.24,0.24-0.44,0.32c-0.21,0.07-0.48,0.14-0.82,0.19c-0.34,0.05-0.77,0.08-1.3,0.08c-0.53,0-0.96-0.03-1.3-0.08
			c-0.34-0.05-0.61-0.12-0.81-0.19c-0.2-0.07-0.34-0.18-0.43-0.32c-0.09-0.14-0.13-0.28-0.13-0.43v-37.77c0-0.84,0.24-1.44,0.71-1.8
			c0.47-0.36,0.99-0.54,1.55-0.54h2.64c0.62,0,1.14,0.05,1.56,0.16c0.42,0.11,0.79,0.28,1.13,0.52c0.33,0.24,0.65,0.58,0.97,1.01
			c0.31,0.43,0.64,0.98,0.98,1.63l9.46,17.97c0.58,1.1,1.14,2.17,1.69,3.21c0.54,1.04,1.06,2.07,1.57,3.08
			c0.5,1.01,1,2.01,1.49,2.99c0.49,0.98,0.98,1.97,1.46,2.96H808c-0.04-1.67-0.07-3.4-0.08-5.2c-0.01-1.8-0.02-3.54-0.02-5.2v-22.21
			c0-0.15,0.04-0.29,0.13-0.41c0.09-0.13,0.24-0.24,0.44-0.33c0.21-0.09,0.48-0.16,0.82-0.21c0.34-0.04,0.78-0.06,1.33-0.06
			c0.48,0,0.9,0.02,1.25,0.06c0.35,0.04,0.63,0.11,0.82,0.21c0.2,0.1,0.34,0.21,0.43,0.33c0.09,0.13,0.13,0.26,0.13,0.41V227.28z"/>
	</g>
	<g>
		<g>
			<g>
				<path class="st1" d="M295.46,134.45c0,4.38-0.61,8.35-1.81,11.9c-1.21,3.56-2.87,6.7-5,9.43c-2.13,2.73-4.67,5.08-7.62,7.05
					c-2.95,1.97-6.21,3.59-9.76,4.86c-3.56,1.27-7.35,2.21-11.38,2.81c-4.03,0.6-8.52,0.9-13.48,0.9h-32.76
					c-2.1,0-3.86-0.62-5.29-1.86c-1.43-1.24-2.14-3.25-2.14-6.05V56.08c0-2.79,0.71-4.81,2.14-6.05c1.43-1.24,3.19-1.86,5.29-1.86
					h30.95c7.55,0,13.95,0.63,19.19,1.9c5.24,1.27,9.65,3.19,13.24,5.76c3.59,2.57,6.33,5.83,8.24,9.76
					c1.9,3.94,2.86,8.57,2.86,13.9c0,2.99-0.38,5.79-1.14,8.43c-0.76,2.63-1.87,5.03-3.33,7.19c-1.46,2.16-3.25,4.06-5.38,5.71
					c-2.13,1.65-4.56,2.99-7.28,4c3.49,0.63,6.71,1.75,9.67,3.33c2.95,1.59,5.52,3.63,7.71,6.14c2.19,2.51,3.92,5.44,5.19,8.81
					C294.82,126.49,295.46,130.26,295.46,134.45z M263.08,82.55c0-2.48-0.38-4.7-1.14-6.67c-0.76-1.97-1.9-3.6-3.43-4.9
					c-1.52-1.3-3.44-2.3-5.76-3c-2.32-0.7-5.42-1.05-9.29-1.05H230.8v32h14c3.62,0,6.51-0.43,8.67-1.29
					c2.16-0.86,3.95-2.03,5.38-3.52c1.43-1.49,2.49-3.24,3.19-5.24C262.73,86.89,263.08,84.78,263.08,82.55z M269.46,135.31
					c0-2.86-0.48-5.41-1.43-7.67c-0.95-2.25-2.35-4.14-4.19-5.67c-1.84-1.52-4.19-2.7-7.05-3.52c-2.86-0.82-6.57-1.24-11.14-1.24
					H230.8v35.04h18.09c3.49,0,6.43-0.37,8.81-1.09c2.38-0.73,4.44-1.81,6.19-3.24c1.75-1.43,3.11-3.21,4.09-5.33
					C268.97,140.47,269.46,138.04,269.46,135.31z"/>
				<path class="st1" d="M332.13,54.46c0,4.83-0.99,8.16-2.95,10c-1.97,1.84-5.62,2.76-10.95,2.76c-5.4,0-9.03-0.89-10.91-2.67
					c-1.87-1.77-2.81-4.98-2.81-9.62c0-4.82,0.97-8.17,2.9-10.05c1.94-1.87,5.61-2.81,11-2.81c5.33,0,8.95,0.91,10.86,2.71
					C331.18,46.61,332.13,49.83,332.13,54.46z M330.32,168.16c0,0.63-0.19,1.19-0.57,1.67c-0.38,0.48-1.03,0.87-1.95,1.19
					c-0.92,0.32-2.14,0.56-3.66,0.71c-1.52,0.16-3.46,0.24-5.81,0.24c-2.35,0-4.28-0.08-5.81-0.24c-1.52-0.16-2.75-0.39-3.67-0.71
					c-0.92-0.32-1.57-0.71-1.95-1.19c-0.38-0.48-0.57-1.03-0.57-1.67V83.41c0-0.63,0.19-1.19,0.57-1.67
					c0.38-0.48,1.03-0.89,1.95-1.24c0.92-0.35,2.15-0.62,3.67-0.81c1.52-0.19,3.46-0.28,5.81-0.28c2.35,0,4.29,0.1,5.81,0.28
					c1.52,0.19,2.74,0.46,3.66,0.81c0.92,0.35,1.57,0.76,1.95,1.24c0.38,0.48,0.57,1.03,0.57,1.67V168.16z"/>
				<path class="st1" d="M481.55,168.16c0,0.63-0.19,1.19-0.57,1.67c-0.38,0.48-1.02,0.87-1.9,1.19c-0.89,0.32-2.1,0.56-3.62,0.71
					c-1.52,0.16-3.46,0.24-5.81,0.24c-2.41,0-4.38-0.08-5.9-0.24c-1.52-0.16-2.75-0.39-3.67-0.71c-0.92-0.32-1.56-0.71-1.91-1.19
					c-0.35-0.48-0.52-1.03-0.52-1.67v-50.37c0-2.86-0.27-5.46-0.81-7.81c-0.54-2.35-1.37-4.36-2.48-6.05
					c-1.11-1.68-2.51-2.98-4.19-3.9c-1.68-0.92-3.7-1.38-6.05-1.38c-2.86,0-5.74,1.11-8.67,3.33c-2.92,2.22-6.09,5.46-9.52,9.71
					v56.47c0,0.63-0.19,1.19-0.57,1.67c-0.38,0.48-1.03,0.87-1.95,1.19c-0.92,0.32-2.14,0.56-3.67,0.71
					c-1.52,0.16-3.43,0.24-5.71,0.24c-2.35,0-4.28-0.08-5.81-0.24c-1.52-0.16-2.75-0.39-3.67-0.71c-0.92-0.32-1.57-0.71-1.95-1.19
					c-0.38-0.48-0.57-1.03-0.57-1.67v-50.37c0-2.86-0.27-5.46-0.81-7.81c-0.54-2.35-1.35-4.36-2.43-6.05s-2.48-2.98-4.19-3.9
					c-1.71-0.92-3.71-1.38-6-1.38c-2.92,0-5.84,1.11-8.76,3.33c-2.92,2.22-6.06,5.46-9.43,9.71v56.47c0,0.63-0.19,1.19-0.57,1.67
					c-0.38,0.48-1.03,0.87-1.95,1.19c-0.92,0.32-2.14,0.56-3.67,0.71c-1.52,0.16-3.46,0.24-5.81,0.24c-2.35,0-4.29-0.08-5.81-0.24
					c-1.52-0.16-2.75-0.39-3.67-0.71c-0.92-0.32-1.57-0.71-1.95-1.19c-0.38-0.48-0.57-1.03-0.57-1.67V83.22
					c0-0.63,0.16-1.19,0.48-1.67c0.32-0.48,0.89-0.87,1.71-1.19c0.82-0.32,1.89-0.56,3.19-0.71c1.3-0.16,2.94-0.24,4.9-0.24
					c2.03,0,3.71,0.08,5.05,0.24c1.33,0.16,2.37,0.4,3.09,0.71c0.73,0.32,1.25,0.71,1.57,1.19c0.32,0.48,0.48,1.03,0.48,1.67v9.81
					c4.7-5.08,9.38-8.89,14.05-11.43c4.67-2.54,9.54-3.81,14.62-3.81c3.49,0,6.63,0.37,9.43,1.1c2.79,0.73,5.29,1.78,7.48,3.14
					c2.19,1.37,4.08,3,5.67,4.9c1.59,1.9,2.92,4.03,4,6.38c2.54-2.73,5.03-5.08,7.48-7.05c2.44-1.97,4.86-3.57,7.24-4.81
					c2.38-1.24,4.76-2.16,7.14-2.76c2.38-0.6,4.81-0.9,7.28-0.9c5.65,0,10.41,0.95,14.28,2.86c3.87,1.9,7,4.49,9.38,7.76
					c2.38,3.27,4.08,7.09,5.09,11.48c1.02,4.38,1.52,9.01,1.52,13.9V168.16z"/>
				<path class="st1" d="M521.26,168.16c0,0.63-0.19,1.19-0.57,1.67c-0.38,0.48-1.03,0.87-1.95,1.19c-0.92,0.32-2.14,0.56-3.67,0.71
					c-1.52,0.16-3.46,0.24-5.81,0.24c-2.35,0-4.29-0.08-5.81-0.24c-1.52-0.16-2.75-0.39-3.67-0.71c-0.92-0.32-1.57-0.71-1.95-1.19
					c-0.38-0.48-0.57-1.03-0.57-1.67V42.94c0-0.63,0.19-1.2,0.57-1.71c0.38-0.51,1.03-0.94,1.95-1.29c0.92-0.35,2.14-0.62,3.67-0.81
					c1.52-0.19,3.46-0.29,5.81-0.29c2.35,0,4.29,0.1,5.81,0.29c1.52,0.19,2.75,0.46,3.67,0.81c0.92,0.35,1.57,0.78,1.95,1.29
					c0.38,0.51,0.57,1.08,0.57,1.71V168.16z"/>
			</g>
		</g>
		<g>
			<path class="st1" d="M607.12,52.47c0,0.84-0.06,1.58-0.19,2.22c-0.13,0.64-0.34,1.17-0.63,1.59c-0.29,0.42-0.63,0.74-1.01,0.97
				c-0.39,0.23-0.8,0.34-1.25,0.34h-48.35v47.29h45.84c0.45,0,0.87,0.08,1.25,0.24c0.39,0.16,0.72,0.43,1.01,0.82
				c0.29,0.39,0.5,0.9,0.63,1.54c0.13,0.64,0.19,1.45,0.19,2.41c0,0.84-0.06,1.58-0.19,2.22c-0.13,0.64-0.34,1.17-0.63,1.59
				c-0.29,0.42-0.63,0.74-1.01,0.97c-0.39,0.23-0.81,0.34-1.25,0.34h-45.84v55.01c0,0.39-0.1,0.74-0.29,1.06
				c-0.19,0.32-0.52,0.58-0.96,0.77c-0.45,0.19-1.05,0.35-1.79,0.48c-0.74,0.13-1.69,0.19-2.85,0.19c-1.09,0-2.03-0.06-2.8-0.19
				c-0.77-0.13-1.38-0.29-1.83-0.48c-0.45-0.19-0.77-0.45-0.96-0.77c-0.19-0.32-0.29-0.68-0.29-1.06V53.14
				c0-2.32,0.61-3.91,1.83-4.78c1.22-0.87,2.41-1.3,3.57-1.3h54.72c0.45,0,0.87,0.11,1.25,0.34c0.39,0.23,0.72,0.56,1.01,1.01
				c0.29,0.45,0.5,1.01,0.63,1.69C607.05,50.78,607.12,51.56,607.12,52.47z"/>
			<path class="st1" d="M637.66,170.02c0,0.39-0.1,0.74-0.29,1.06c-0.19,0.32-0.5,0.58-0.92,0.77c-0.42,0.19-1,0.35-1.74,0.48
				c-0.74,0.13-1.69,0.19-2.85,0.19c-1.09,0-2.01-0.06-2.75-0.19c-0.74-0.13-1.34-0.29-1.79-0.48c-0.45-0.19-0.76-0.45-0.92-0.77
				c-0.16-0.32-0.24-0.68-0.24-1.06V39.92c0-0.39,0.08-0.74,0.24-1.06c0.16-0.32,0.47-0.59,0.92-0.82c0.45-0.22,1.04-0.39,1.79-0.48
				c0.74-0.1,1.66-0.14,2.75-0.14c1.16,0,2.11,0.05,2.85,0.14c0.74,0.1,1.32,0.26,1.74,0.48c0.42,0.23,0.72,0.5,0.92,0.82
				c0.19,0.32,0.29,0.68,0.29,1.06V170.02z"/>
			<path class="st1" d="M730.55,121.86c0,2.32-0.61,3.91-1.83,4.78c-1.22,0.87-2.41,1.3-3.57,1.3h-59.55
				c0,5.41,0.53,10.3,1.59,14.67c1.06,4.38,2.81,8.12,5.26,11.24c2.44,3.12,5.63,5.52,9.55,7.19c3.92,1.67,8.75,2.51,14.48,2.51
				c4.05,0,7.69-0.35,10.91-1.06c3.22-0.71,6-1.5,8.35-2.36c2.35-0.87,4.28-1.66,5.79-2.37c1.51-0.71,2.59-1.06,3.23-1.06
				c0.39,0,0.74,0.1,1.06,0.29c0.32,0.19,0.58,0.5,0.77,0.92c0.19,0.42,0.34,0.95,0.43,1.59c0.1,0.64,0.14,1.45,0.14,2.41
				c0,0.45-0.03,0.88-0.1,1.3c-0.07,0.42-0.15,0.81-0.24,1.16c-0.1,0.35-0.24,0.69-0.43,1.01c-0.19,0.32-0.45,0.64-0.77,0.96
				c-0.32,0.32-1.32,0.88-2.99,1.69c-1.67,0.81-3.86,1.61-6.56,2.41c-2.7,0.81-5.84,1.53-9.41,2.17c-3.57,0.64-7.42,0.96-11.53,0.96
				c-6.76,0-12.74-1.01-17.95-3.04c-5.21-2.03-9.59-5.02-13.13-8.98c-3.54-3.96-6.23-8.86-8.06-14.72
				c-1.83-5.85-2.75-12.64-2.75-20.36c0-7.4,0.95-14.03,2.85-19.88c1.9-5.85,4.62-10.82,8.16-14.91c3.54-4.08,7.8-7.21,12.79-9.36
				c4.99-2.16,10.54-3.23,16.65-3.23c6.56,0,12.16,1.09,16.79,3.28c4.63,2.19,8.45,5.13,11.44,8.83c2.99,3.7,5.18,8,6.56,12.88
				c1.38,4.89,2.07,10.04,2.07,15.44V121.86z M718.68,118.48c0.19-9.26-1.93-16.5-6.37-21.71c-4.44-5.21-10.91-7.82-19.4-7.82
				c-4.38,0-8.22,0.82-11.53,2.46c-3.32,1.64-6.11,3.81-8.4,6.51c-2.28,2.7-4.04,5.84-5.26,9.41c-1.22,3.57-1.93,7.29-2.12,11.15
				H718.68z"/>
			<path class="st1" d="M812.45,168.18c0.51,0.77,0.79,1.43,0.82,1.98c0.03,0.55-0.18,1-0.63,1.35c-0.45,0.35-1.14,0.61-2.07,0.77
				c-0.93,0.16-2.11,0.24-3.52,0.24c-1.35,0-2.43-0.05-3.23-0.14c-0.81-0.1-1.45-0.24-1.93-0.43c-0.48-0.19-0.87-0.45-1.16-0.77
				c-0.29-0.32-0.56-0.67-0.82-1.06l-23.55-36.48l-23.45,36.48c-0.26,0.39-0.53,0.74-0.82,1.06c-0.29,0.32-0.69,0.58-1.21,0.77
				c-0.52,0.19-1.17,0.34-1.98,0.43c-0.8,0.1-1.85,0.14-3.14,0.14c-1.35,0-2.48-0.08-3.38-0.24c-0.9-0.16-1.56-0.42-1.98-0.77
				c-0.42-0.35-0.61-0.8-0.58-1.35c0.03-0.55,0.34-1.21,0.92-1.98l28.76-42.37l-27.41-41.4c-0.52-0.77-0.79-1.43-0.82-1.98
				c-0.03-0.55,0.19-1,0.68-1.35c0.48-0.35,1.21-0.59,2.17-0.72c0.97-0.13,2.16-0.19,3.57-0.19c1.35,0,2.43,0.05,3.23,0.15
				c0.8,0.1,1.43,0.24,1.88,0.43c0.45,0.19,0.8,0.43,1.06,0.72c0.26,0.29,0.51,0.63,0.77,1.01l22.2,34.17l22.78-34.17
				c0.26-0.39,0.51-0.72,0.77-1.01c0.26-0.29,0.59-0.53,1.01-0.72c0.42-0.19,1-0.34,1.74-0.43c0.74-0.1,1.75-0.15,3.04-0.15
				c1.35,0,2.49,0.07,3.43,0.19c0.93,0.13,1.62,0.35,2.08,0.68c0.45,0.32,0.66,0.76,0.63,1.3c-0.03,0.55-0.34,1.24-0.92,2.08
				l-27.6,41.02L812.45,168.18z"/>
		</g>
		<g>
			<path class="st0" d="M148.84,78.45c-12.59-12.59-33.01-12.59-45.6,0l-56.1,56.1l0,0c12.59,12.59,33.01,12.59,45.6,0L148.84,78.45
				L148.84,78.45z"/>
			<path class="st1" d="M162,91.6l-5.86-5.86L83.57,158.3l-6-6c-1.15-1.15-3.11-0.33-3.11,1.29v33.01c0,1.84,1.49,3.32,3.32,3.32
				h33.01c1.62,0,2.44-1.96,1.29-3.11l-5.72-5.72L162,125.48C171.35,116.13,171.35,100.96,162,91.6z"/>
			<path class="st1" d="M118.39,22.59l-33.01,0c-1.62,0-2.44,1.96-1.29,3.11l5.85,5.85L33.98,87.51c-9.36,9.36-9.36,24.52,0,33.88
				l5.86,5.86l72.9-72.9l5.86,5.86c1.15,1.15,3.11,0.33,3.11-1.29l0-33.01C121.71,24.08,120.22,22.59,118.39,22.59z"/>
		</g>
	</g>
</g>
</svg>
