<?xml version="1.0" encoding="iso-8859-1"?>
<!-- Generator: Adobe Illustrator 24.1.1, SVG Export Plug-In . SVG Version: 6.00 Build 0)  -->
<svg version="1.1" xmlns="http://www.w3.org/2000/svg" xmlns:xlink="http://www.w3.org/1999/xlink" x="0px" y="0px"
	 viewBox="0 0 16 16" style="enable-background:new 0 0 16 16;" xml:space="preserve">
<g id="change-type">
	<g>
		<rect x="0.833" y="7.348" style="fill:#555555;" width="7.167" height="1.303"/>
		<path style="fill:#555555;" d="M15.167,10.606V5.394c0-1.078-0.877-1.955-1.955-1.955h-1.955V1.484L8.652,4.12l2.606,2.633V4.742
			h1.955c0.36,0,0.652,0.293,0.652,0.652v5.213c0,0.36-0.292,0.652-0.652,0.652H8.652v1.303h4.561
			C14.291,12.561,15.167,11.684,15.167,10.606z"/>
		<path style="fill:#555555;" d="M2.136,6.045h4.561V1.484H2.136V6.045z M3.439,2.787h1.955v1.955H3.439V2.787z"/>
		<path style="fill:#555555;" d="M6.697,9.955H2.136v4.561h4.561V9.955z M5.394,13.213H3.439v-1.955h1.955V13.213z"/>
	</g>
</g>
<g id="Layer_1">
</g>
</svg>
