<?xml version="1.0" encoding="iso-8859-1"?>
<!-- Generator: Adobe Illustrator 24.1.1, SVG Export Plug-In . SVG Version: 6.00 Build 0)  -->
<svg version="1.1" xmlns="http://www.w3.org/2000/svg" xmlns:xlink="http://www.w3.org/1999/xlink" x="0px" y="0px"
	 viewBox="0 0 16 16" style="enable-background:new 0 0 16 16;" xml:space="preserve">
<g id="error">
	<g>
		<polygon style="fill:#C40D3C;" points="10.113,5.038 8,7.151 5.887,5.038 5.042,5.883 7.155,7.996 5.042,10.109 5.887,10.955 
			8,8.842 10.113,10.955 10.958,10.109 8.845,7.996 10.958,5.883 		"/>
		<path style="fill:#C40D3C;" d="M8,0.825c-3.954,0-7.171,3.217-7.171,7.171S4.046,15.167,8,15.167s7.171-3.217,7.171-7.171
			S11.954,0.825,8,0.825z M8,13.972c-3.295,0-5.976-2.68-5.976-5.976C2.024,4.701,4.705,2.02,8,2.02s5.976,2.681,5.976,5.976
			C13.976,11.292,11.295,13.972,8,13.972z"/>
	</g>
</g>
<g id="Layer_1">
</g>
</svg>
