<?xml version="1.0" encoding="iso-8859-1"?>
<!-- Generator: Adobe Illustrator 24.1.1, SVG Export Plug-In . SVG Version: 6.00 Build 0)  -->
<svg version="1.1" xmlns="http://www.w3.org/2000/svg" xmlns:xlink="http://www.w3.org/1999/xlink" x="0px" y="0px"
	 viewBox="0 0 16 16" style="enable-background:new 0 0 16 16;" xml:space="preserve">
<g id="model-grouping">
	<polygon style="fill:#757575;" points="0.825,8.644 2.78,8.644 2.78,10.599 4.083,10.599 4.083,8.644 6.038,8.644 6.038,7.341 
		4.083,7.341 4.083,5.386 2.78,5.386 2.78,7.341 0.825,7.341 	"/>
	<path style="fill:#757575;" d="M15.175,4.735v-3.91h-4.266v1.303H7.354v5.213v1.303v5.213h3.555v1.303h4.266v-3.91h-4.266v1.303
		H8.776v-3.91h2.133v1.303h4.266v-3.91h-4.266v1.303H8.776v-3.91h2.133v1.303H15.175z M12.331,2.128h1.422v1.303h-1.422V2.128z
		 M12.331,12.554h1.422v1.303h-1.422V12.554z M12.331,7.341h1.422v1.303h-1.422V7.341z"/>
</g>
<g id="Layer_1">
</g>
</svg>
