<?xml version="1.0" encoding="iso-8859-1"?>
<!-- Generator: Adobe Illustrator 24.1.1, SVG Export Plug-In . SVG Version: 6.00 Build 0)  -->
<svg version="1.1" xmlns="http://www.w3.org/2000/svg" xmlns:xlink="http://www.w3.org/1999/xlink" x="0px" y="0px"
	 viewBox="0 0 16 16" style="enable-background:new 0 0 16 16;" xml:space="preserve">
<g id="postgress-connection">
	<g>
		<path style="fill:#555555;" d="M8,0.825c-2.989,0-5.413,0.878-5.413,1.96v10.429c0,1.074,2.384,1.945,5.339,1.959v0.001h0.058
			c0.005,0,0.011,0,0.016,0v0c2.989,0,5.413-0.877,5.413-1.96V2.786C13.413,1.703,10.989,0.825,8,0.825z"/>
		<path style="fill:#E27730;" d="M12.306,2.673c0,0.715-1.928,1.294-4.306,1.294S3.693,3.387,3.693,2.673
			c0-0.714,1.928-1.294,4.307-1.294S12.306,1.958,12.306,2.673"/>
		<path style="fill:#FFFFFF;" d="M11.404,3.463c0.564-0.219,0.902-0.492,0.902-0.79c0-0.715-1.928-1.294-4.307-1.294
			c-2.378,0-4.306,0.579-4.306,1.294c0,0.297,0.339,0.571,0.902,0.79C5.384,3.158,6.614,2.96,8,2.96
			C9.386,2.96,10.616,3.158,11.404,3.463"/>
		<g>
			<g>
				<path style="fill:#FFFFFF;" d="M7.345,7.97C7.256,7.958,7.175,7.969,7.134,8c-0.023,0.017-0.03,0.038-0.032,0.052
					C7.097,8.088,7.123,8.129,7.139,8.15c0.045,0.059,0.11,0.1,0.175,0.109c0.01,0.001,0.019,0.002,0.029,0.002
					c0.046,0,0.093-0.015,0.134-0.043c0.035-0.024,0.074-0.063,0.079-0.103C7.567,8.037,7.454,7.985,7.345,7.97z"/>
				<path style="fill:#FFFFFF;" d="M10.299,7.972L10.299,7.972c-0.009-0.061-0.117-0.078-0.22-0.064
					C9.977,7.923,9.877,7.969,9.886,8.03c0.007,0.047,0.092,0.129,0.194,0.129c0.009,0,0.017-0.001,0.026-0.002
					c0.068-0.009,0.117-0.052,0.141-0.077C10.282,8.042,10.303,8,10.299,7.972z"/>
				<path style="fill:#FFFFFF;" d="M11.995,10.582c-0.038-0.114-0.159-0.151-0.361-0.109c-0.599,0.124-0.814,0.038-0.884-0.014
					c0.466-0.709,0.849-1.567,1.056-2.367c0.099-0.385,0.298-1.321-0.003-1.706c-0.446-0.57-1.101-0.876-1.893-0.884
					C9.364,5.498,8.904,5.636,8.815,5.675C8.627,5.628,8.422,5.6,8.199,5.596C7.791,5.59,7.437,5.687,7.145,5.887
					C6.848,5.776,5.488,5.318,4.647,5.914C4.177,6.247,3.96,6.842,4.002,7.683c0.014,0.283,0.175,1.153,0.43,1.987
					c0.335,1.097,0.699,1.718,1.082,1.846C5.558,11.53,5.61,11.54,5.667,11.54c0.14,0,0.311-0.063,0.489-0.277
					c0.296-0.356,0.572-0.655,0.674-0.763c0.151,0.081,0.316,0.126,0.485,0.13c0,0.004,0.001,0.009,0.001,0.013
					c-0.034,0.04-0.062,0.076-0.086,0.106c-0.117,0.149-0.142,0.18-0.519,0.257c-0.107,0.022-0.392,0.081-0.397,0.281
					c-0.005,0.218,0.337,0.31,0.376,0.32c0.136,0.034,0.266,0.051,0.391,0.051c0.303,0,0.569-0.1,0.783-0.292
					c-0.007,0.778,0.026,1.545,0.119,1.779c0.076,0.191,0.263,0.659,0.854,0.659c0.087,0,0.182-0.01,0.287-0.033
					c0.616-0.132,0.884-0.405,0.987-1.005c0.055-0.321,0.151-1.088,0.195-1.499c0.094,0.029,0.216,0.043,0.347,0.043
					c0.274,0,0.59-0.058,0.788-0.15C11.666,11.056,12.067,10.803,11.995,10.582z M11.609,6.538c0.305,0.39-0.031,2.163-1.003,3.693
					c-0.01-0.012-0.019-0.025-0.029-0.037c-0.004-0.005-0.008-0.01-0.012-0.015c0.251-0.415,0.202-0.825,0.158-1.189
					c-0.018-0.149-0.035-0.29-0.031-0.423c0.004-0.14,0.023-0.261,0.041-0.377c0.022-0.144,0.045-0.292,0.038-0.467
					c0.005-0.018,0.006-0.04,0.004-0.066c-0.016-0.168-0.207-0.67-0.598-1.125C9.963,6.281,9.651,6.002,9.224,5.815
					C9.762,5.701,10.881,5.607,11.609,6.538z M10.479,9.018c0.037,0.307,0.074,0.622-0.072,0.934
					c-0.023-0.04-0.045-0.084-0.065-0.133c-0.018-0.044-0.058-0.115-0.112-0.213c-0.213-0.382-0.712-1.276-0.456-1.641
					c0.131-0.188,0.464-0.196,0.753-0.16c-0.002,0.121-0.019,0.231-0.036,0.346c-0.019,0.124-0.039,0.252-0.044,0.407
					C10.442,8.709,10.461,8.866,10.479,9.018z M5.967,11.106c-0.196,0.236-0.332,0.191-0.377,0.176
					C5.3,11.185,4.963,10.571,4.666,9.598c-0.257-0.842-0.407-1.69-0.419-1.927C4.209,6.919,4.391,6.396,4.788,6.114
					C5.434,5.656,6.495,5.93,6.922,6.069C6.916,6.075,6.909,6.081,6.903,6.087C6.196,6.801,6.22,8.026,6.222,8.078c0,0,0,0,0,0
					c0,0.028,0.002,0.068,0.006,0.122c0.012,0.203,0.034,0.581-0.025,1.01c-0.056,0.398,0.067,0.787,0.336,1.068
					c0.028,0.029,0.057,0.056,0.087,0.082C6.505,10.489,6.245,10.773,5.967,11.106z M6.715,10.108
					C6.498,9.882,6.4,9.566,6.445,9.243c0.063-0.452,0.04-0.846,0.027-1.058C6.47,8.156,6.469,8.13,6.468,8.11
					C6.57,8.019,7.044,7.765,7.382,7.842c0.154,0.035,0.248,0.14,0.287,0.321c0.202,0.935,0.027,1.325-0.114,1.638
					C7.526,9.866,7.498,9.927,7.475,9.99l-0.018,0.049c-0.046,0.123-0.089,0.238-0.115,0.347
					C7.111,10.385,6.886,10.286,6.715,10.108z M7.846,11.019c-0.313,0.438-0.768,0.432-1.095,0.35
					c-0.067-0.017-0.128-0.046-0.164-0.07c0.03-0.014,0.083-0.033,0.174-0.052c0.444-0.091,0.512-0.156,0.662-0.346
					c0.034-0.044,0.073-0.093,0.127-0.153c0,0,0,0,0,0c0.08-0.09,0.117-0.075,0.183-0.047c0.054,0.022,0.106,0.09,0.128,0.164
					C7.872,10.901,7.883,10.967,7.846,11.019z M10.085,11.024c-0.018,0.229-0.148,1.316-0.215,1.7
					c-0.087,0.506-0.274,0.695-0.797,0.807c-0.543,0.116-0.735-0.161-0.862-0.477c-0.082-0.204-0.122-1.126-0.093-2.145
					c0-0.014-0.002-0.027-0.006-0.04c-0.003-0.024-0.008-0.047-0.015-0.071c-0.042-0.148-0.146-0.272-0.27-0.323
					c-0.049-0.02-0.14-0.058-0.248-0.03c0.023-0.095,0.063-0.203,0.107-0.32l0.018-0.049c0.021-0.055,0.046-0.113,0.074-0.173
					c0.148-0.328,0.35-0.777,0.13-1.791c-0.082-0.38-0.356-0.565-0.772-0.522C6.887,7.615,6.659,7.716,6.546,7.773
					C6.521,7.786,6.499,7.798,6.478,7.809c0.032-0.383,0.152-1.098,0.6-1.55c0.282-0.285,0.658-0.426,1.117-0.418
					c0.903,0.015,1.482,0.478,1.809,0.864c0.282,0.333,0.434,0.668,0.495,0.849C10.042,7.508,9.73,7.598,9.573,7.824
					C9.229,8.315,9.76,9.267,10.016,9.725c0.047,0.084,0.087,0.156,0.1,0.187c0.083,0.201,0.191,0.336,0.269,0.434
					c0.024,0.03,0.047,0.059,0.065,0.085C10.312,10.471,10.063,10.563,10.085,11.024z M11.34,10.937
					c-0.325,0.151-0.918,0.16-1.01,0.074c-0.014-0.288,0.093-0.318,0.206-0.35c0.012-0.003,0.031-0.009,0.051-0.016
					c0.011,0.009,0.022,0.017,0.035,0.026c0.2,0.132,0.557,0.146,1.061,0.042c0.002,0,0.004-0.001,0.006-0.001
					C11.621,10.776,11.505,10.861,11.34,10.937z"/>
			</g>
			<path style="fill:#316192;" d="M6.202,9.21c0.06-0.428,0.037-0.806,0.025-1.01C6.224,8.146,6.222,8.106,6.222,8.078c0,0,0,0,0,0
				C6.22,8.026,6.196,6.801,6.903,6.087c0.006-0.006,0.012-0.012,0.019-0.018C6.495,5.93,5.434,5.656,4.788,6.114
				C4.391,6.396,4.209,6.919,4.247,7.671c0.012,0.238,0.162,1.085,0.419,1.927c0.297,0.974,0.634,1.588,0.925,1.685
				c0.045,0.015,0.18,0.06,0.377-0.176c0.277-0.334,0.538-0.618,0.658-0.746c-0.03-0.026-0.059-0.053-0.087-0.082
				C6.269,9.997,6.146,9.607,6.202,9.21z"/>
			<path style="fill:#316192;" d="M7.457,10.039L7.475,9.99c0.023-0.063,0.051-0.124,0.08-0.189
				c0.141-0.313,0.316-0.703,0.114-1.638C7.63,7.983,7.536,7.878,7.382,7.842C7.044,7.765,6.57,8.019,6.468,8.11
				C6.469,8.13,6.47,8.156,6.472,8.185c0.013,0.212,0.036,0.606-0.027,1.058C6.4,9.566,6.498,9.882,6.715,10.108
				c0.171,0.178,0.395,0.277,0.626,0.278C7.368,10.277,7.411,10.162,7.457,10.039z M7.139,8.15C7.123,8.129,7.097,8.088,7.102,8.052
				C7.104,8.038,7.111,8.017,7.134,8c0.041-0.031,0.122-0.042,0.211-0.03c0.109,0.015,0.222,0.067,0.211,0.145
				c-0.006,0.04-0.045,0.08-0.079,0.103C7.436,8.246,7.389,8.261,7.343,8.261c-0.01,0-0.019-0.001-0.029-0.002
				C7.249,8.25,7.183,8.209,7.139,8.15z"/>
			<path style="fill:#316192;" d="M7.734,10.701c-0.067-0.028-0.103-0.043-0.183,0.047c0,0,0,0,0,0
				c-0.054,0.06-0.093,0.11-0.127,0.153c-0.15,0.19-0.218,0.255-0.662,0.346c-0.092,0.019-0.145,0.038-0.174,0.052
				c0.036,0.024,0.096,0.054,0.164,0.07c0.327,0.082,0.783,0.088,1.095-0.35c0.037-0.052,0.026-0.119,0.016-0.154
				C7.841,10.791,7.788,10.723,7.734,10.701z"/>
			<path style="fill:#316192;" d="M10.177,6.53c0.391,0.455,0.582,0.957,0.598,1.125c0.002,0.026,0.001,0.047-0.004,0.066
				c0.006,0.175-0.016,0.324-0.038,0.467c-0.018,0.116-0.036,0.237-0.041,0.377c-0.004,0.132,0.013,0.273,0.031,0.423
				c0.044,0.364,0.093,0.774-0.158,1.189c0.004,0.005,0.008,0.01,0.012,0.015c0.01,0.013,0.02,0.025,0.029,0.037
				c0.972-1.53,1.308-3.303,1.003-3.693c-0.728-0.93-1.847-0.837-2.384-0.723C9.651,6.002,9.963,6.281,10.177,6.53z"/>
			<path style="fill:#316192;" d="M10.49,8.151c0.018-0.115,0.034-0.225,0.036-0.346c-0.29-0.036-0.622-0.028-0.753,0.16
				c-0.255,0.365,0.243,1.259,0.456,1.641c0.055,0.098,0.094,0.169,0.112,0.213c0.02,0.049,0.042,0.093,0.065,0.133
				c0.146-0.312,0.109-0.627,0.072-0.934c-0.018-0.152-0.037-0.309-0.032-0.46C10.452,8.402,10.471,8.274,10.49,8.151z M10.246,8.08
				c-0.024,0.025-0.073,0.068-0.141,0.077c-0.009,0.001-0.017,0.002-0.026,0.002c-0.102,0-0.187-0.081-0.194-0.129
				C9.877,7.969,9.977,7.923,10.08,7.908c0.103-0.014,0.211,0.003,0.22,0.064v0C10.303,8,10.282,8.042,10.246,8.08z"/>
			<path style="fill:#316192;" d="M10.623,10.671c-0.013-0.008-0.025-0.017-0.035-0.026c-0.02,0.008-0.039,0.013-0.051,0.016
				c-0.113,0.032-0.22,0.062-0.206,0.35c0.092,0.086,0.684,0.077,1.01-0.074c0.165-0.077,0.281-0.162,0.349-0.225
				c-0.002,0-0.004,0.001-0.006,0.001C11.179,10.817,10.823,10.803,10.623,10.671z"/>
			<path style="fill:#316192;" d="M10.385,10.346c-0.079-0.098-0.186-0.233-0.269-0.434c-0.013-0.031-0.053-0.103-0.1-0.187
				C9.76,9.267,9.229,8.315,9.573,7.824c0.158-0.226,0.469-0.316,0.927-0.269c-0.061-0.181-0.213-0.516-0.495-0.849
				c-0.327-0.386-0.906-0.85-1.809-0.864C7.736,5.833,7.361,5.974,7.078,6.259c-0.449,0.453-0.569,1.168-0.6,1.55
				c0.021-0.012,0.043-0.024,0.068-0.036c0.114-0.058,0.342-0.158,0.591-0.184c0.416-0.043,0.69,0.142,0.772,0.522
				c0.219,1.014,0.017,1.463-0.13,1.791c-0.027,0.061-0.053,0.118-0.074,0.173l-0.018,0.049c-0.044,0.117-0.084,0.224-0.107,0.32
				c0.109-0.028,0.199,0.01,0.248,0.03c0.124,0.051,0.227,0.175,0.27,0.323c0.007,0.024,0.011,0.048,0.015,0.071
				c0.004,0.013,0.006,0.026,0.006,0.04c-0.028,1.018,0.012,1.94,0.093,2.145c0.127,0.317,0.319,0.594,0.862,0.477
				c0.524-0.112,0.71-0.301,0.797-0.807c0.066-0.384,0.197-1.47,0.215-1.7c-0.022-0.461,0.226-0.553,0.365-0.593
				C10.432,10.406,10.409,10.376,10.385,10.346z"/>
		</g>
	</g>
</g>
<g id="Layer_1">
</g>
</svg>
