<?xml version="1.0" encoding="iso-8859-1"?>
<!-- Generator: Adobe Illustrator 24.1.1, SVG Export Plug-In . SVG Version: 6.00 Build 0)  -->
<svg version="1.1" xmlns="http://www.w3.org/2000/svg" xmlns:xlink="http://www.w3.org/1999/xlink" x="0px" y="0px"
	 viewBox="0 0 16 16" style="enable-background:new 0 0 16 16;" xml:space="preserve">
<g id="salesforce-connection">
	<g>
		<path style="fill:#0F9BD7;" d="M6.813,4.126c0.456-0.476,1.092-0.771,1.795-0.771c0.935,0,1.75,0.521,2.184,1.294
			c0.377-0.169,0.795-0.262,1.234-0.262c1.685,0,3.052,1.378,3.052,3.079c0,1.7-1.366,3.079-3.052,3.079
			c-0.206,0-0.407-0.021-0.601-0.06c-0.382,0.682-1.111,1.143-1.947,1.143c-0.35,0-0.681-0.081-0.976-0.225
			c-0.387,0.912-1.291,1.551-2.343,1.551c-1.096,0-2.03-0.693-2.389-1.666c-0.157,0.033-0.319,0.051-0.486,0.051
			c-1.305,0-2.363-1.069-2.363-2.387c0-0.884,0.475-1.655,1.181-2.068C1.958,6.549,1.877,6.18,1.877,5.791
			c0-1.516,1.231-2.746,2.749-2.746C5.518,3.046,6.31,3.47,6.813,4.126"/>
		<path style="fill:#FFFFFF;" d="M2.972,8.184C2.963,8.207,2.975,8.212,2.978,8.216c0.027,0.019,0.053,0.033,0.081,0.049
			C3.203,8.341,3.34,8.364,3.482,8.364c0.29,0,0.471-0.154,0.471-0.403V7.956c0-0.23-0.204-0.314-0.394-0.374L3.534,7.574
			C3.39,7.527,3.266,7.487,3.266,7.392V7.387c0-0.081,0.073-0.141,0.185-0.141c0.125,0,0.273,0.042,0.369,0.094
			c0,0,0.028,0.018,0.038-0.009c0.006-0.015,0.054-0.145,0.059-0.159C3.923,7.158,3.913,7.146,3.903,7.14
			c-0.109-0.066-0.26-0.112-0.416-0.112l-0.029,0c-0.266,0-0.451,0.161-0.451,0.391v0.005c0,0.242,0.205,0.321,0.397,0.376
			l0.031,0.01c0.14,0.043,0.26,0.08,0.26,0.178v0.005c0,0.09-0.078,0.157-0.205,0.157c-0.049,0-0.205-0.001-0.374-0.108
			c-0.02-0.012-0.032-0.021-0.048-0.03C3.059,8.007,3.039,7.998,3.029,8.025L2.972,8.184z"/>
		<path style="fill:#FFFFFF;" d="M7.223,8.184C7.214,8.207,7.226,8.212,7.229,8.216C7.256,8.235,7.283,8.249,7.31,8.265
			c0.144,0.077,0.281,0.099,0.423,0.099c0.29,0,0.471-0.154,0.471-0.403V7.956c0-0.23-0.204-0.314-0.394-0.374L7.785,7.574
			C7.641,7.527,7.517,7.487,7.517,7.392V7.387c0-0.081,0.073-0.141,0.185-0.141c0.125,0,0.273,0.042,0.369,0.094
			c0,0,0.028,0.018,0.038-0.009c0.006-0.015,0.054-0.145,0.059-0.159C8.174,7.158,8.164,7.146,8.154,7.14
			c-0.109-0.066-0.26-0.112-0.416-0.112l-0.029,0c-0.266,0-0.451,0.161-0.451,0.391v0.005c0,0.242,0.205,0.321,0.397,0.376
			l0.031,0.01c0.14,0.043,0.26,0.08,0.26,0.178v0.005c0,0.09-0.078,0.157-0.205,0.157c-0.049,0-0.205-0.001-0.374-0.108
			c-0.02-0.012-0.032-0.02-0.048-0.03c-0.005-0.003-0.03-0.013-0.038,0.013L7.223,8.184z"/>
		<path style="fill:#FFFFFF;" d="M10.368,7.436c-0.024-0.081-0.061-0.151-0.11-0.211c-0.049-0.059-0.112-0.107-0.186-0.141
			C9.997,7.05,9.91,7.032,9.812,7.032c-0.098,0-0.186,0.018-0.26,0.052C9.477,7.119,9.415,7.167,9.366,7.226
			c-0.05,0.059-0.087,0.13-0.11,0.21c-0.024,0.08-0.036,0.168-0.036,0.26c0,0.093,0.012,0.181,0.036,0.26
			c0.024,0.08,0.061,0.151,0.11,0.211c0.049,0.059,0.112,0.107,0.186,0.14c0.074,0.034,0.161,0.051,0.26,0.051
			c0.098,0,0.185-0.017,0.26-0.051c0.074-0.034,0.137-0.081,0.186-0.14c0.049-0.059,0.087-0.13,0.11-0.211
			c0.024-0.08,0.036-0.168,0.036-0.26C10.403,7.604,10.391,7.517,10.368,7.436 M10.125,7.697c0,0.14-0.026,0.251-0.078,0.33
			C9.996,8.104,9.919,8.142,9.812,8.142c-0.108,0-0.185-0.038-0.235-0.115C9.526,7.948,9.5,7.837,9.5,7.697
			c0-0.14,0.026-0.251,0.077-0.328c0.051-0.077,0.127-0.114,0.235-0.114c0.108,0,0.185,0.037,0.236,0.114
			C10.099,7.446,10.125,7.557,10.125,7.697"/>
		<path style="fill-rule:evenodd;clip-rule:evenodd;fill:#FFFFFF;" d="M12.358,8.104c-0.008-0.024-0.031-0.015-0.031-0.015
			c-0.035,0.014-0.073,0.026-0.113,0.032c-0.04,0.006-0.085,0.01-0.133,0.01c-0.117,0-0.211-0.035-0.277-0.104
			C11.738,7.958,11.7,7.847,11.7,7.696c0-0.137,0.033-0.24,0.093-0.319c0.059-0.078,0.149-0.118,0.269-0.118
			c0.1,0,0.176,0.012,0.256,0.037c0,0,0.019,0.008,0.028-0.017c0.021-0.059,0.037-0.101,0.06-0.166
			c0.006-0.019-0.009-0.026-0.015-0.029c-0.031-0.012-0.105-0.032-0.162-0.041c-0.052-0.008-0.114-0.012-0.182-0.012
			c-0.102,0-0.192,0.017-0.27,0.052c-0.078,0.034-0.143,0.082-0.195,0.141c-0.052,0.059-0.092,0.13-0.118,0.211
			c-0.026,0.08-0.04,0.168-0.04,0.261c0,0.201,0.054,0.363,0.161,0.482c0.107,0.12,0.268,0.18,0.479,0.18
			c0.124,0,0.252-0.025,0.343-0.061c0,0,0.017-0.009,0.01-0.029L12.358,8.104z"/>
		<path style="fill-rule:evenodd;clip-rule:evenodd;fill:#FFFFFF;" d="M13.598,7.391c-0.021-0.078-0.072-0.156-0.105-0.192
			c-0.053-0.057-0.105-0.097-0.156-0.119c-0.067-0.029-0.147-0.048-0.235-0.048c-0.102,0-0.195,0.017-0.271,0.053
			c-0.076,0.035-0.139,0.084-0.189,0.144c-0.05,0.06-0.087,0.132-0.111,0.213c-0.024,0.081-0.036,0.169-0.036,0.262
			c0,0.095,0.012,0.183,0.037,0.262c0.025,0.08,0.065,0.15,0.119,0.209c0.054,0.059,0.123,0.104,0.206,0.137
			c0.083,0.032,0.183,0.048,0.298,0.048c0.237-0.001,0.362-0.053,0.413-0.082c0.009-0.005,0.018-0.014,0.007-0.039l-0.054-0.15
			c-0.008-0.022-0.031-0.014-0.031-0.014c-0.059,0.022-0.142,0.061-0.337,0.061c-0.127,0-0.222-0.038-0.281-0.097
			c-0.061-0.06-0.091-0.148-0.095-0.273l0.82,0.001c0,0,0.022,0,0.024-0.021C13.624,7.735,13.651,7.576,13.598,7.391 M12.782,7.562
			c0.012-0.078,0.033-0.143,0.066-0.193c0.05-0.077,0.127-0.119,0.234-0.119c0.108,0,0.179,0.042,0.23,0.119
			c0.034,0.051,0.049,0.118,0.055,0.194L12.782,7.562z"/>
		<path style="fill-rule:evenodd;clip-rule:evenodd;fill:#FFFFFF;" d="M7.027,7.391C7.006,7.313,6.955,7.235,6.922,7.199
			C6.869,7.142,6.818,7.102,6.766,7.08C6.699,7.051,6.619,7.032,6.531,7.032c-0.103,0-0.196,0.017-0.271,0.053
			C6.185,7.12,6.121,7.169,6.071,7.229c-0.05,0.06-0.087,0.132-0.111,0.213C5.936,7.523,5.924,7.611,5.924,7.704
			c0,0.095,0.012,0.183,0.037,0.262c0.025,0.08,0.065,0.15,0.119,0.209c0.054,0.059,0.123,0.104,0.206,0.137
			C6.369,8.343,6.47,8.36,6.585,8.359c0.237-0.001,0.362-0.053,0.413-0.082c0.009-0.005,0.018-0.014,0.007-0.039l-0.054-0.15
			C6.943,8.066,6.92,8.074,6.92,8.074C6.861,8.096,6.778,8.135,6.583,8.134c-0.127,0-0.222-0.038-0.281-0.097
			C6.242,7.978,6.212,7.89,6.207,7.765l0.82,0.001c0,0,0.022,0,0.024-0.021C7.052,7.735,7.08,7.576,7.027,7.391 M6.211,7.562
			c0.012-0.078,0.033-0.143,0.066-0.193C6.328,7.292,6.404,7.25,6.512,7.25c0.108,0,0.179,0.042,0.23,0.119
			C6.776,7.42,6.79,7.487,6.796,7.563L6.211,7.562z"/>
		<path style="fill:#FFFFFF;" d="M4.764,7.523C4.731,7.521,4.688,7.519,4.636,7.519c-0.07,0-0.138,0.009-0.202,0.026
			C4.37,7.563,4.312,7.589,4.263,7.625C4.213,7.66,4.173,7.706,4.144,7.76C4.114,7.814,4.1,7.878,4.1,7.949
			c0,0.073,0.012,0.136,0.038,0.187c0.025,0.052,0.061,0.095,0.107,0.128C4.29,8.298,4.346,8.322,4.411,8.337
			c0.064,0.015,0.138,0.022,0.217,0.022c0.084,0,0.168-0.007,0.249-0.021c0.081-0.014,0.179-0.034,0.207-0.04
			c0.027-0.006,0.057-0.015,0.057-0.015c0.02-0.005,0.019-0.027,0.019-0.027l0-0.75c0-0.165-0.044-0.287-0.13-0.362
			C4.944,7.069,4.817,7.031,4.653,7.031c-0.062,0-0.16,0.008-0.22,0.02c0,0-0.179,0.035-0.253,0.093c0,0-0.016,0.01-0.007,0.033
			l0.058,0.156c0.007,0.02,0.027,0.013,0.027,0.013s0.006-0.002,0.014-0.007c0.158-0.086,0.357-0.083,0.357-0.083
			c0.089,0,0.157,0.018,0.203,0.053c0.045,0.035,0.067,0.086,0.067,0.196v0.035C4.829,7.529,4.764,7.523,4.764,7.523 M4.438,8.1
			C4.405,8.074,4.401,8.068,4.39,8.051C4.374,8.026,4.366,7.99,4.366,7.944c0-0.072,0.024-0.124,0.073-0.159
			c0,0,0.071-0.062,0.238-0.059C4.794,7.728,4.9,7.745,4.9,7.745v0.373c0,0-0.104,0.022-0.222,0.029
			C4.511,8.158,4.437,8.099,4.438,8.1"/>
		<path style="fill-rule:evenodd;clip-rule:evenodd;fill:#FFFFFF;" d="M11.382,7.1c0.006-0.019-0.007-0.027-0.012-0.03
			c-0.014-0.005-0.084-0.02-0.138-0.024c-0.103-0.006-0.16,0.011-0.212,0.034c-0.051,0.023-0.107,0.06-0.139,0.102l0-0.1
			c0-0.014-0.01-0.025-0.024-0.025h-0.21c-0.014,0-0.024,0.011-0.024,0.025v1.224c0,0.014,0.011,0.025,0.025,0.025h0.216
			c0.014,0,0.025-0.011,0.025-0.025V7.696c0-0.082,0.009-0.164,0.027-0.215c0.018-0.051,0.042-0.092,0.072-0.121
			c0.03-0.029,0.064-0.05,0.102-0.061c0.038-0.012,0.08-0.016,0.11-0.016c0.043,0,0.09,0.011,0.09,0.011
			c0.016,0.002,0.025-0.008,0.03-0.022C11.334,7.235,11.374,7.123,11.382,7.1"/>
		<path style="fill-rule:evenodd;clip-rule:evenodd;fill:#FFFFFF;" d="M9.358,6.533C9.332,6.525,9.309,6.52,9.277,6.514
			C9.246,6.508,9.208,6.505,9.166,6.505c-0.148,0-0.265,0.042-0.347,0.125C8.737,6.712,8.681,6.837,8.653,7.002l-0.01,0.056H8.457
			c0,0-0.023-0.001-0.027,0.024L8.399,7.252C8.397,7.268,8.404,7.279,8.426,7.279h0.181L8.423,8.305
			C8.409,8.388,8.392,8.456,8.374,8.508C8.356,8.559,8.338,8.597,8.317,8.624C8.296,8.651,8.276,8.671,8.242,8.682
			C8.213,8.692,8.181,8.696,8.145,8.696c-0.02,0-0.046-0.003-0.066-0.007C8.06,8.685,8.05,8.681,8.035,8.675
			c0,0-0.021-0.008-0.03,0.013C7.999,8.705,7.95,8.838,7.945,8.855C7.939,8.871,7.947,8.884,7.957,8.887
			c0.024,0.009,0.042,0.014,0.075,0.022c0.046,0.011,0.084,0.011,0.12,0.011c0.076,0,0.144-0.011,0.201-0.031
			c0.057-0.021,0.107-0.057,0.152-0.106C8.553,8.731,8.583,8.676,8.612,8.6C8.64,8.525,8.665,8.433,8.684,8.324l0.185-1.046h0.27
			c0,0,0.023,0.001,0.027-0.024l0.031-0.171c0.002-0.016-0.005-0.026-0.027-0.026H8.908c0.001-0.006,0.013-0.098,0.043-0.185
			c0.013-0.037,0.037-0.067,0.058-0.088c0.02-0.02,0.043-0.035,0.069-0.043C9.104,6.734,9.133,6.73,9.166,6.73
			c0.025,0,0.049,0.003,0.067,0.007c0.025,0.005,0.035,0.008,0.042,0.01c0.027,0.008,0.03,0,0.036-0.012l0.063-0.172
			C9.38,6.543,9.364,6.535,9.358,6.533"/>
		<path style="fill-rule:evenodd;clip-rule:evenodd;fill:#FFFFFF;" d="M5.693,8.308c0,0.014-0.01,0.025-0.024,0.025H5.452
			c-0.014,0-0.024-0.011-0.024-0.025V6.556c0-0.014,0.01-0.025,0.024-0.025h0.218c0.014,0,0.024,0.011,0.024,0.025V8.308z"/>
	</g>
</g>
<g id="Layer_1">
</g>
</svg>
