<?xml version="1.0" encoding="iso-8859-1"?>
<!-- Generator: Adobe Illustrator 24.1.1, SVG Export Plug-In . SVG Version: 6.00 Build 0)  -->
<svg version="1.1" xmlns="http://www.w3.org/2000/svg" xmlns:xlink="http://www.w3.org/1999/xlink" x="0px" y="0px"
	 viewBox="0 0 16 16" style="enable-background:new 0 0 16 16;" xml:space="preserve">
<g id="snowflake-database">
	<path style="fill:#555555;" d="M8,0.817c-2.989,0-5.413,0.878-5.413,1.96v10.429c0,1.074,2.384,1.945,5.339,1.959v0.001h0.058
		c0.006,0,0.011,0,0.016,0v0c2.989,0,5.413-0.877,5.413-1.96V2.778C13.413,1.695,10.989,0.817,8,0.817z"/>
	<path style="fill:#2AB4E7;" d="M12.306,2.665c0,0.715-1.928,1.294-4.306,1.294S3.693,3.379,3.693,2.665
		C3.693,1.95,5.622,1.371,8,1.371S12.306,1.95,12.306,2.665"/>
	<path style="fill:#FFFFFF;" d="M11.404,3.455c0.564-0.219,0.902-0.492,0.902-0.79c0-0.715-1.928-1.294-4.307-1.294
		c-2.378,0-4.306,0.579-4.306,1.294c0,0.297,0.339,0.571,0.902,0.79C5.384,3.15,6.614,2.952,8,2.952
		C9.386,2.952,10.616,3.15,11.404,3.455"/>
	<g>
		<path style="fill-rule:evenodd;clip-rule:evenodd;fill:#2AB4E7;" d="M8.423,8.76C8.409,8.733,8.409,8.733,8.409,8.733
			C8.298,8.551,8.367,8.3,8.561,8.189C9.92,7.408,9.92,7.408,9.92,7.408c0.18-0.112,0.43-0.056,0.541,0.139
			c0.014,0.014,0.014,0.014,0.014,0.014c0.097,0.195,0.042,0.432-0.152,0.544C8.963,8.9,8.963,8.9,8.963,8.9
			C8.769,9.011,8.534,8.942,8.423,8.76L8.423,8.76z"/>
		<path style="fill-rule:evenodd;clip-rule:evenodd;fill:#2AB4E7;" d="M8.769,8.928c-0.028,0-0.028,0-0.028,0
			c-0.208,0-0.388-0.181-0.388-0.39c0-1.589,0-1.589,0-1.589c0-0.209,0.18-0.39,0.388-0.39c0.028,0,0.028,0,0.028,0
			c0.208,0,0.388,0.181,0.388,0.39c0,1.589,0,1.589,0,1.589C9.158,8.747,8.977,8.928,8.769,8.928L8.769,8.928z"/>
		<path style="fill-rule:evenodd;clip-rule:evenodd;fill:#2AB4E7;" d="M9.102,9.611c0.014-0.014,0.014-0.014,0.014-0.014
			c0.097-0.195,0.347-0.265,0.541-0.153c1.359,0.795,1.359,0.795,1.359,0.795c0.194,0.112,0.25,0.349,0.139,0.544
			c0,0.014,0,0.014,0,0.014c-0.111,0.195-0.36,0.251-0.541,0.139c-1.372-0.781-1.372-0.781-1.372-0.781
			C9.06,10.043,8.991,9.792,9.102,9.611L9.102,9.611z"/>
		<path style="fill-rule:evenodd;clip-rule:evenodd;fill:#2AB4E7;" d="M9.116,10.001c0-0.028,0-0.028,0-0.028
			C9.005,9.792,9.06,9.541,9.255,9.43c1.359-0.781,1.359-0.781,1.359-0.781c0.194-0.112,0.444-0.056,0.541,0.139
			c0.014,0.014,0.014,0.014,0.014,0.014c0.111,0.195,0.042,0.446-0.139,0.544c-1.372,0.795-1.372,0.795-1.372,0.795
			C9.476,10.252,9.227,10.183,9.116,10.001L9.116,10.001z"/>
		<path style="fill-rule:evenodd;clip-rule:evenodd;fill:#2AB4E7;" d="M8.742,10.643c0.014,0,0.014,0,0.014,0
			c0.222,0,0.402,0.181,0.402,0.39c0,1.589,0,1.589,0,1.589c0,0.223-0.18,0.39-0.402,0.39c-0.014,0-0.014,0-0.014,0
			c-0.222,0-0.402-0.167-0.402-0.39c0-1.589,0-1.589,0-1.589C8.34,10.824,8.52,10.643,8.742,10.643L8.742,10.643z"/>
		<path style="fill-rule:evenodd;clip-rule:evenodd;fill:#2AB4E7;" d="M8.423,10.852c0-0.014,0-0.014,0-0.014
			c0.111-0.195,0.36-0.265,0.541-0.153c1.372,0.795,1.372,0.795,1.372,0.795c0.18,0.112,0.25,0.349,0.139,0.544
			c-0.014,0.014-0.014,0.014-0.014,0.014c-0.097,0.195-0.347,0.265-0.541,0.153c-1.359-0.795-1.359-0.795-1.359-0.795
			C8.367,11.284,8.312,11.047,8.423,10.852L8.423,10.852z"/>
		<path style="fill-rule:evenodd;clip-rule:evenodd;fill:#2AB4E7;" d="M7.577,10.81c0.014,0.028,0.014,0.028,0.014,0.028
			c0.111,0.181,0.042,0.432-0.152,0.544C6.08,12.176,6.08,12.176,6.08,12.176c-0.18,0.098-0.43,0.042-0.541-0.153
			c-0.014-0.014-0.014-0.014-0.014-0.014c-0.097-0.195-0.042-0.432,0.152-0.544c1.359-0.795,1.359-0.795,1.359-0.795
			C7.231,10.559,7.466,10.629,7.577,10.81L7.577,10.81z"/>
		<path style="fill-rule:evenodd;clip-rule:evenodd;fill:#2AB4E7;" d="M7.231,10.643c0.028,0,0.028,0,0.028,0
			c0.208,0,0.388,0.181,0.388,0.39c0,1.589,0,1.589,0,1.589c0,0.223-0.18,0.39-0.388,0.39c-0.028,0-0.028,0-0.028,0
			c-0.208,0-0.388-0.167-0.388-0.39c0-1.589,0-1.589,0-1.589C6.842,10.824,7.023,10.643,7.231,10.643L7.231,10.643z"/>
		<path style="fill-rule:evenodd;clip-rule:evenodd;fill:#2AB4E7;" d="M6.898,9.96C6.884,9.987,6.884,9.987,6.884,9.987
			c-0.097,0.181-0.347,0.251-0.541,0.139C4.985,9.332,4.985,9.332,4.985,9.332c-0.194-0.098-0.25-0.349-0.139-0.544
			c0-0.014,0-0.014,0-0.014c0.111-0.195,0.36-0.251,0.541-0.139c1.372,0.781,1.372,0.781,1.372,0.781
			C6.94,9.527,7.009,9.778,6.898,9.96L6.898,9.96z"/>
		<path style="fill-rule:evenodd;clip-rule:evenodd;fill:#2AB4E7;" d="M6.884,9.569c0,0.028,0,0.028,0,0.028
			c0.111,0.181,0.055,0.432-0.139,0.544c-1.359,0.781-1.359,0.781-1.359,0.781c-0.194,0.112-0.444,0.056-0.541-0.139
			c-0.014-0.014-0.014-0.014-0.014-0.014c-0.111-0.195-0.042-0.432,0.139-0.544C6.343,9.43,6.343,9.43,6.343,9.43
			C6.524,9.318,6.773,9.388,6.884,9.569L6.884,9.569z"/>
		<path style="fill-rule:evenodd;clip-rule:evenodd;fill:#2AB4E7;" d="M7.258,8.928c-0.014,0-0.014,0-0.014,0
			c-0.222,0-0.402-0.181-0.402-0.39c0-1.589,0-1.589,0-1.589c0-0.209,0.18-0.39,0.402-0.39c0.014,0,0.014,0,0.014,0
			c0.222,0,0.402,0.181,0.402,0.39c0,1.589,0,1.589,0,1.589C7.66,8.747,7.48,8.928,7.258,8.928L7.258,8.928z"/>
		<path style="fill-rule:evenodd;clip-rule:evenodd;fill:#2AB4E7;" d="M7.577,8.719c0,0.014,0,0.014,0,0.014
			c-0.111,0.195-0.36,0.265-0.541,0.153C5.664,8.091,5.664,8.091,5.664,8.091c-0.18-0.112-0.25-0.349-0.139-0.544
			c0.014-0.014,0.014-0.014,0.014-0.014C5.636,7.338,5.886,7.269,6.08,7.38c1.359,0.795,1.359,0.795,1.359,0.795
			C7.633,8.286,7.688,8.523,7.577,8.719L7.577,8.719z"/>
		<path style="fill-rule:evenodd;clip-rule:evenodd;fill:#2AB4E7;" d="M8.645,9.597c-0.444-0.46-0.444-0.46-0.444-0.46
			c-0.111-0.112-0.291-0.112-0.402,0c-0.444,0.46-0.444,0.46-0.444,0.46c-0.111,0.112-0.111,0.279,0,0.39
			c0.444,0.46,0.444,0.46,0.444,0.46c0.111,0.112,0.291,0.112,0.402,0c0.444-0.46,0.444-0.46,0.444-0.46
			C8.756,9.876,8.756,9.709,8.645,9.597L8.645,9.597z M8.243,9.834c-0.194,0.195-0.194,0.195-0.194,0.195
			c-0.028,0.028-0.069,0.028-0.097,0C7.757,9.834,7.757,9.834,7.757,9.834c-0.028-0.014-0.028-0.07,0-0.084
			c0.194-0.195,0.194-0.195,0.194-0.195c0.028-0.028,0.069-0.028,0.097,0C8.243,9.75,8.243,9.75,8.243,9.75
			C8.27,9.764,8.27,9.82,8.243,9.834L8.243,9.834z"/>
	</g>
</g>
<g id="Layer_1">
</g>
</svg>
