<?xml version="1.0" encoding="iso-8859-1"?>
<!-- Generator: Adobe Illustrator 24.1.1, SVG Export Plug-In . SVG Version: 6.00 Build 0)  -->
<svg version="1.1" xmlns="http://www.w3.org/2000/svg" xmlns:xlink="http://www.w3.org/1999/xlink" x="0px" y="0px"
	 viewBox="0 0 16 16" style="enable-background:new 0 0 16 16;" xml:space="preserve">
<g id="teradata-connection">
	<path style="fill:#555555;" d="M8,0.825c-2.989,0-5.413,0.878-5.413,1.96v10.429c0,1.074,2.384,1.945,5.339,1.959v0.001h0.058
		c0.005,0,0.011,0,0.016,0v0c2.989,0,5.413-0.877,5.413-1.96V2.786C13.413,1.703,10.989,0.825,8,0.825z"/>
	<path style="fill:#EB881D;" d="M12.306,2.673c0,0.715-1.928,1.294-4.306,1.294S3.693,3.387,3.693,2.673
		c0-0.714,1.928-1.294,4.307-1.294S12.306,1.958,12.306,2.673"/>
	<path style="fill:#FFFFFF;" d="M11.404,3.463c0.564-0.219,0.902-0.492,0.902-0.79c0-0.715-1.928-1.294-4.307-1.294
		c-2.378,0-4.306,0.579-4.306,1.294c0,0.297,0.339,0.571,0.902,0.79C5.384,3.158,6.614,2.96,8,2.96
		C9.386,2.96,10.616,3.158,11.404,3.463"/>
	<g>
		<path style="fill:#EB881D;" d="M9.869,7.484H8.276v4.232c0,0.313,0.174,0.473,0.535,0.473h1.058l0.178-0.003
			c1.269-0.047,1.861-0.607,1.861-1.931V9.46C11.908,8.139,11.233,7.484,9.869,7.484z M11.052,10.251
			c0,0.953-0.313,1.419-1.155,1.419H9.132V8.002h0.737c0.87,0,1.183,0.509,1.183,1.461V10.251z"/>
		<path style="fill:#EB881D;" d="M9.463,6.329H4.274L4.092,6.923h2.382v5.946c0,0.314,0.188,0.474,0.55,0.474h0.314V6.923H9.28
			L9.463,6.329z"/>
	</g>
</g>
<g id="Layer_1">
</g>
</svg>
