<?xml version="1.0" encoding="iso-8859-1"?>
<!-- Generator: Adobe Illustrator 24.1.1, SVG Export Plug-In . SVG Version: 6.00 Build 0)  -->
<svg version="1.1" xmlns="http://www.w3.org/2000/svg" xmlns:xlink="http://www.w3.org/1999/xlink" x="0px" y="0px"
	 viewBox="0 0 16 16" style="enable-background:new 0 0 16 16;" xml:space="preserve">
<g id="batches">
	<path style="fill:#FFFFFF;" d="M11.826,15.175H4.174c-0.222,0-0.403-0.181-0.403-0.403v-2.764c0-0.222,0.181-0.403,0.403-0.403
		h7.652c0.222,0,0.403,0.181,0.403,0.403v2.764C12.229,14.993,12.048,15.175,11.826,15.175z"/>
	<path style="fill:#FFFFFF;" d="M11.826,9.786H4.174c-0.222,0-0.403-0.181-0.403-0.403V6.618c0-0.222,0.181-0.403,0.403-0.403h7.652
		c0.222,0,0.403,0.181,0.403,0.403v2.764C12.229,9.604,12.048,9.786,11.826,9.786z"/>
	<path style="fill:#FFFFFF;" d="M11.826,4.396H4.174c-0.222,0-0.403-0.181-0.403-0.403V1.228c0-0.222,0.181-0.403,0.403-0.403h7.652
		c0.222,0,0.403,0.181,0.403,0.403v2.764C12.229,4.215,12.048,4.396,11.826,4.396z"/>
	<path style="fill:#FFFFFF;" d="M13.46,1.924h-1.362V2.96h1.362c0.143,0,0.263,0.118,0.263,0.259v3.986
		c0,0.141-0.12,0.259-0.263,0.259h-1.362V8.5h1.362c0.725,0,1.314-0.581,1.314-1.295V3.219C14.775,2.505,14.185,1.924,13.46,1.924z"
		/>
	<path style="fill:#FFFFFF;" d="M2.506,7.384h1.327V8.42H2.506c-0.139,0-0.256,0.118-0.256,0.259v3.986
		c0,0.141,0.117,0.259,0.256,0.259h1.327v1.036H2.506c-0.706,0-1.281-0.581-1.281-1.295V8.679C1.225,7.965,1.8,7.384,2.506,7.384z"
		/>
	<rect x="1.225" y="1.924" style="fill:#FFFFFF;" width="2.765" height="1.036"/>
	<rect x="12.009" y="12.924" style="fill:#FFFFFF;" width="2.765" height="1.036"/>
</g>
<g id="Layer_1">
</g>
</svg>
