<?xml version="1.0" encoding="iso-8859-1"?>
<!-- Generator: Adobe Illustrator 24.1.1, SVG Export Plug-In . SVG Version: 6.00 Build 0)  -->
<svg version="1.1" xmlns="http://www.w3.org/2000/svg" xmlns:xlink="http://www.w3.org/1999/xlink" x="0px" y="0px"
	 viewBox="0 0 16 16" style="enable-background:new 0 0 16 16;" xml:space="preserve">
<g id="create-pit">
	<g>
		<path style="fill:#555555;" d="M6.667,6.318H5.42v3.257C5.297,9.73,5.23,9.92,5.23,10.116c0,0.486,0.395,0.881,0.881,0.881
			s0.881-0.395,0.881-0.881c0-0.264-0.121-0.515-0.325-0.682V6.318z"/>
		<path style="fill:#555555;" d="M9.752,6.07l1.025-1.025L9.895,4.163L8.744,5.315C8.097,4.941,7.4,4.714,6.667,4.637V3.79h1.076
			V2.542H4.434V3.79H5.42v0.862C2.794,4.996,0.825,7.231,0.825,9.889c0,2.914,2.371,5.285,5.286,5.285
			c2.914,0,5.285-2.371,5.285-5.285C11.396,8.453,10.798,7.067,9.752,6.07z M6.111,13.928c-2.227,0-4.038-1.812-4.038-4.038
			c0-2.128,1.665-3.896,3.785-4.025h0.5c2.126,0.129,3.791,1.897,3.791,4.025C10.149,12.116,8.337,13.928,6.111,13.928z"/>
		<path style="fill:#555555;" d="M7.11,6.803L6.966,6.754v1.348l0.055,0.031c0.627,0.351,1.016,1.007,1.014,1.735v0.108h1.14
			l0.11-0.022V9.845C9.285,8.474,8.41,7.251,7.11,6.803z"/>
	</g>
	<polygon style="fill:#555555;" points="13.381,0.825 12.185,0.825 12.185,2.619 10.392,2.619 10.392,3.815 12.185,3.815 
		12.185,5.608 13.381,5.608 13.381,3.815 15.175,3.815 15.175,2.619 13.381,2.619 	"/>
</g>
<g id="Layer_1">
</g>
</svg>
