<?xml version="1.0" encoding="iso-8859-1"?>
<!-- Generator: Adobe Illustrator 24.1.1, SVG Export Plug-In . SVG Version: 6.00 Build 0)  -->
<svg version="1.1" xmlns="http://www.w3.org/2000/svg" xmlns:xlink="http://www.w3.org/1999/xlink" x="0px" y="0px"
	 viewBox="0 0 16 16" style="enable-background:new 0 0 16 16;" xml:space="preserve">
<g id="synapse-connection">
	<path style="fill:none;" d="M3.057,5.146v5.707l1.824,1.053L8.97,9.59C8.965,9.54,8.962,9.49,8.962,9.439
		c0-0.282,0.078-0.546,0.213-0.772C8.998,8.413,8.76,8.174,8.465,7.962C7.723,7.427,6.731,7.128,5.664,7.113
		C5.593,7.138,5.52,7.152,5.448,7.152c-0.219,0-0.432-0.113-0.551-0.315C4.718,6.533,4.82,6.142,5.124,5.963l4.577-2.689
		L9.699,3.274L7.307,4.681l2.393-1.407L8,2.293L3.057,5.146z"/>
	<path style="fill:none;" d="M7.435,6.087c0.656,0.185,1.26,0.468,1.777,0.84c0.42,0.302,0.762,0.649,1.023,1.026
		c0.076-0.012,0.154-0.018,0.233-0.018c0.831,0,1.505,0.674,1.505,1.505s-0.674,1.505-1.505,1.505c-0.312,0-0.602-0.095-0.843-0.258
		l-3.46,1.961L8,13.707l4.943-2.854V5.146l-1.97-1.138L7.435,6.087z"/>
	<path style="fill:none;" d="M9.211,6.926c0.42,0.302,0.762,0.649,1.023,1.026c0.076-0.012,0.154-0.018,0.233-0.018
		c0.831,0,1.505,0.674,1.505,1.505s-0.674,1.505-1.505,1.505c-0.312,0-0.602-0.095-0.843-0.258l-3.46,1.961L8,13.707l4.943-2.854
		V5.146l-1.97-1.138L9.352,4.96L9.35,4.961L9.352,4.96L7.435,6.087C8.091,6.271,8.695,6.554,9.211,6.926z"/>
	<path style="fill:none;" d="M3.057,5.146v5.707l1.824,1.053L8.97,9.59C8.965,9.54,8.962,9.49,8.962,9.439
		c0-0.282,0.078-0.546,0.213-0.772C8.998,8.413,8.76,8.174,8.465,7.962C7.723,7.427,6.731,7.128,5.664,7.113
		C5.593,7.138,5.52,7.152,5.448,7.152c-0.219,0-0.432-0.113-0.551-0.315C4.718,6.533,4.82,6.142,5.124,5.963l4.577-2.689
		L9.699,3.274L8,2.293L3.057,5.146z"/>
	<path style="fill:none;" d="M9.211,6.926c0.42,0.302,0.762,0.649,1.023,1.026c0.076-0.012,0.154-0.018,0.233-0.018
		c0.831,0,1.505,0.674,1.505,1.505s-0.674,1.505-1.505,1.505c-0.312,0-0.602-0.095-0.843-0.258L8.3,11.437l-2.134,1.211L8,13.707
		l4.943-2.854V5.146l-1.97-1.138L9.352,4.96L7.435,6.087C8.091,6.271,8.695,6.554,9.211,6.926z"/>
	<polygon style="fill:none;" points="6.164,12.647 6.165,12.648 8.3,11.437 	"/>
	<path style="fill:none;" d="M3.057,5.146v5.707l1.822,1.052l2.746-1.553l-2.746,1.553l0.002,0.001L8.97,9.59
		C8.965,9.54,8.962,9.49,8.962,9.439c0-0.282,0.078-0.546,0.213-0.772C8.998,8.413,8.76,8.174,8.465,7.962
		C7.723,7.427,6.731,7.128,5.664,7.113C5.593,7.138,5.52,7.152,5.448,7.152c-0.219,0-0.432-0.113-0.551-0.315
		C4.718,6.533,4.82,6.142,5.124,5.963l4.577-2.689L9.699,3.274L8,2.293L3.057,5.146z"/>
	<polygon style="fill:#00609C;" points="12.213,3.25 9.352,4.96 10.972,4.009 12.943,5.146 12.943,10.854 8,13.707 6.165,12.648 
		4.878,13.379 8,15.182 14.22,11.591 14.22,4.409 	"/>
	<polygon style="fill:#00609C;" points="3.057,10.854 3.057,5.146 8,2.293 9.699,3.274 10.964,2.53 8,0.818 1.78,4.409 1.78,11.591 
		3.589,12.635 4.879,11.905 	"/>
	<path style="fill:#50E6FF;" d="M10.467,7.935c-0.079,0-0.157,0.006-0.233,0.018C9.974,7.575,9.631,7.229,9.211,6.926
		c-0.517-0.372-1.121-0.655-1.777-0.84L9.352,4.96l2.86-1.71L10.964,2.53L9.699,3.274l0.002,0.001L6.438,5.191
		C6.217,5.065,5.965,4.988,5.693,4.988c-0.838,0-1.517,0.679-1.517,1.517s0.679,1.517,1.517,1.517c0.547,0,1.022-0.292,1.289-0.726
		C7.534,7.44,8.043,7.658,8.465,7.962c0.294,0.212,0.532,0.45,0.71,0.706C9.04,8.893,8.962,9.157,8.962,9.439
		c0,0.051,0.003,0.101,0.008,0.15l-4.089,2.317l-0.002-0.001l-1.29,0.73l1.289,0.744l1.288-0.731l-0.002-0.001L8.3,11.437
		l1.325-0.751c0.24,0.163,0.53,0.258,0.843,0.258c0.831,0,1.505-0.674,1.505-1.505S11.298,7.935,10.467,7.935z"/>
</g>
<g id="Layer_1">
</g>
</svg>
