<?xml version="1.0" encoding="iso-8859-1"?>
<!-- Generator: Adobe Illustrator 24.1.1, SVG Export Plug-In . SVG Version: 6.00 Build 0)  -->
<svg version="1.1" xmlns="http://www.w3.org/2000/svg" xmlns:xlink="http://www.w3.org/1999/xlink" x="0px" y="0px"
	 viewBox="0 0 16 16" style="enable-background:new 0 0 16 16;" xml:space="preserve">
<g id="versions">
	<g>
		<path style="fill:#FFFFFF;" d="M0.825,5.013c0.201-0.086,0.381-0.163,0.561-0.24C2.732,4.199,4.077,3.624,5.423,3.05
			c0.826-0.352,1.653-0.702,2.478-1.056c0.084-0.036,0.153-0.036,0.238,0c1.112,0.48,2.225,0.957,3.338,1.435
			c1.19,0.511,2.38,1.022,3.57,1.534c0.032,0.014,0.062,0.03,0.113,0.054c-0.107,0.052-0.195,0.097-0.285,0.138
			c-1.413,0.655-2.825,1.31-4.238,1.965c-0.841,0.39-1.682,0.78-2.522,1.173c-0.064,0.03-0.116,0.034-0.182,0.003
			C6.593,7.677,5.252,7.06,3.911,6.442C2.917,5.984,1.922,5.526,0.928,5.067C0.9,5.054,0.873,5.038,0.825,5.013z M3.352,5.042
			C3.35,5.052,3.349,5.063,3.348,5.073c0.095,0.044,0.19,0.089,0.286,0.133c1.432,0.659,2.864,1.317,4.296,1.977
			c0.063,0.029,0.112,0.025,0.173-0.003c1.482-0.688,2.966-1.374,4.449-2.061c0.033-0.015,0.063-0.034,0.12-0.065
			c-0.176-0.075-0.323-0.138-0.47-0.201c-1.341-0.576-2.684-1.15-4.023-1.731C8.056,3.07,7.958,3.074,7.84,3.125
			C6.569,3.67,5.297,4.21,4.025,4.752C3.8,4.848,3.576,4.945,3.352,5.042z"/>
		<path style="fill:#FFFFFF;" d="M0.826,7.922C0.959,7.864,1.074,7.811,1.192,7.76c0.3-0.128,0.6-0.257,0.902-0.379
			c0.044-0.018,0.11-0.017,0.154,0.003c1.324,0.606,2.647,1.217,3.97,1.826c0.572,0.263,1.145,0.525,1.716,0.791
			c0.062,0.029,0.11,0.03,0.173,0.001c1.139-0.53,2.279-1.058,3.419-1.587c0.738-0.342,1.476-0.686,2.216-1.025
			c0.047-0.021,0.117-0.028,0.163-0.009c0.394,0.163,0.785,0.334,1.176,0.503c0.023,0.01,0.043,0.025,0.078,0.047
			c-0.221,0.103-0.427,0.199-0.634,0.295c-1.512,0.701-3.024,1.402-4.536,2.104c-0.627,0.291-1.254,0.581-1.88,0.874
			c-0.061,0.029-0.112,0.029-0.174,0c-1.346-0.622-2.692-1.242-4.039-1.862C2.903,8.885,1.911,8.43,0.919,7.974
			C0.894,7.962,0.87,7.947,0.826,7.922z"/>
		<path style="fill:#FFFFFF;" d="M0.825,10.719c0.199-0.086,0.376-0.162,0.553-0.238c0.229-0.097,0.459-0.191,0.686-0.292
			c0.075-0.034,0.137-0.031,0.21,0.003c1.169,0.542,2.34,1.081,3.51,1.62c0.716,0.33,1.432,0.658,2.147,0.989
			c0.065,0.03,0.118,0.027,0.183-0.002c1.493-0.695,2.988-1.387,4.482-2.081c0.375-0.174,0.75-0.347,1.124-0.525
			c0.077-0.037,0.141-0.038,0.219-0.003c0.366,0.162,0.735,0.318,1.103,0.476c0.032,0.014,0.063,0.03,0.113,0.054
			c-0.047,0.028-0.076,0.049-0.109,0.064c-0.683,0.316-1.366,0.631-2.049,0.948c-1.62,0.751-3.241,1.503-4.859,2.257
			c-0.085,0.04-0.151,0.038-0.235-0.001c-1.225-0.567-2.452-1.131-3.678-1.695c-1.091-0.502-2.183-1.003-3.275-1.505
			C0.914,10.772,0.88,10.75,0.825,10.719z"/>
	</g>
</g>
<g id="Layer_1">
</g>
</svg>
