<?xml version="1.0" encoding="iso-8859-1"?><svg version="1.1" xmlns="http://www.w3.org/2000/svg" xmlns:xlink="http://www.w3.org/1999/xlink" x="0px" y="0px" viewBox="0 0 16 16" style="enable-background:new 0 0 16 16;" xml:space="preserve"><g id="_x5F__x5F_action"><g><path style="fill:#686969;" d="M12.661,6.554l-1.086-0.479l-0.8,0.801c0.337,0.612,0.529,1.315,0.529,2.062 c0,2.366-1.926,4.292-4.292,4.292c-2.366,0-4.291-1.926-4.291-4.292c0-2.366,1.924-4.291,4.291-4.291 c0.798,0,1.545,0.22,2.186,0.6l0.76-0.76L9.491,3.379L9.407,3.182C8.669,2.874,7.861,2.703,7.012,2.703 c-3.444,0-6.235,2.792-6.235,6.235c0,3.445,2.791,6.235,6.235,6.235c3.444,0,6.235-2.791,6.235-6.235 c0-0.821-0.16-1.605-0.448-2.323L12.661,6.554z"/><path style="fill:#0088B6;" d="M6.896,8.465c-0.19,0.19-0.19,0.498,0,0.688c0.189,0.189,0.497,0.189,0.686,0l3.849-3.849 l1.49,0.657l2.301-2.3l-1.491-0.658l0.303-0.302c0.19-0.189,0.19-0.498,0-0.688c-0.19-0.188-0.498-0.188-0.687,0l-0.322,0.324 l-0.638-1.511l-2.301,2.3l0.637,1.511L6.896,8.465z"/><path style="fill:#686969;" d="M8.299,6.146C7.907,5.965,7.473,5.862,7.012,5.862c-1.699,0-3.077,1.378-3.077,3.076 c0,1.7,1.378,3.078,3.077,3.078c1.7,0,3.077-1.378,3.077-3.078c0-0.407-0.081-0.796-0.224-1.152L8.041,9.612 c-0.441,0.441-1.161,0.441-1.603,0c-0.442-0.443-0.442-1.163,0-1.605L8.299,6.146z"/></g></g></svg> 
