<?xml version="1.0" encoding="iso-8859-1"?><svg version="1.1" xmlns="http://www.w3.org/2000/svg" xmlns:xlink="http://www.w3.org/1999/xlink" x="0px" y="0px" viewBox="0 0 16 16" style="enable-background:new 0 0 16 16;" xml:space="preserve"><g id="_x5F__x5F_account"><g><path style="fill:#0088B6;" d="M9.444,10.595H6.555V9.011H0.832v4.732c0,0.441,0.297,0.798,0.664,0.798h13.005 c0.368,0,0.666-0.357,0.666-0.798V9.011H9.444V10.595z"/><path style="fill:#686969;" d="M14.502,3.458h-4.46c0,0,0-1.437,0-1.736c0-0.298-0.16-0.262-0.16-0.262H5.724 c0,0-0.176,0.025-0.176,0.271c0,0.246,0,1.726,0,1.726H1.497c-0.367,0.001-0.664,0.357-0.664,0.8v3.565h14.335V4.258 C15.168,3.814,14.869,3.458,14.502,3.458z M9.363,3.458H6.229V2.064h3.133V3.458z"/></g></g></svg> 
