<?xml version="1.0" encoding="iso-8859-1"?><svg version="1.1" xmlns="http://www.w3.org/2000/svg" xmlns:xlink="http://www.w3.org/1999/xlink" x="0px" y="0px" viewBox="0 0 16 16" style="enable-background:new 0 0 16 16;" xml:space="preserve"><g id="_x5F__x5F_events"><g><path style="fill:#686969;" d="M0.827,14.509h3.727v-1.073H1.9V6.546h12.2v6.891h-2.655v1.073h3.727V2.155h-2.654V0.827h-1.073 v1.328H4.555V0.827H3.482v1.328H0.827V14.509z M1.9,3.228h1.582v1.327h1.073V3.228h6.891v1.327h1.073V3.228h1.582v2.246H1.9V3.228 z"/><path style="fill:#0088B6;" d="M8.664,8.128H8.537V7.464H7.464v0.664H7.336c-1.027,0-1.863,0.836-1.863,1.864 c0,1.027,0.836,1.864,1.863,1.864h1.328c0.436,0,0.791,0.355,0.791,0.791S9.1,13.436,8.664,13.436H7.336 c-0.393,0-0.72-0.287-0.78-0.663H5.478c0.066,0.969,0.874,1.736,1.859,1.736h0.127v0.663h1.073v-0.663h0.127 c1.028,0,1.863-0.836,1.863-1.864s-0.835-1.864-1.863-1.864H7.336c-0.436,0-0.791-0.355-0.791-0.791S6.9,9.201,7.336,9.201h1.328 c0.393,0,0.72,0.287,0.781,0.663h1.078C10.458,8.895,9.649,8.128,8.664,8.128z"/></g></g></svg> 
