<?xml version="1.0" encoding="iso-8859-1"?><svg version="1.1" xmlns="http://www.w3.org/2000/svg" xmlns:xlink="http://www.w3.org/1999/xlink" x="0px" y="0px" viewBox="0 0 16 16" style="enable-background:new 0 0 16 16;" xml:space="preserve"><g id="_x5F__x5F_location"><g><path id="XMLID_2411_" style="fill:#686969;" d="M7.999,1.641c-0.155,0-0.309,0.007-0.461,0.019 c0.199,0.302,0.353,0.635,0.454,0.99c0.002,0,0.005,0,0.007,0c0.929,0,1.936,1.281,2.425,3.231H7.412 C7.241,6.219,7.05,6.56,6.853,6.891h3.767c0.068,0.477,0.105,0.985,0.105,1.514c0,0.601-0.049,1.179-0.135,1.716H5.41 C5.362,9.827,5.327,9.521,5.305,9.205C5.248,9.283,5.198,9.348,5.162,9.398l-0.645,0.853L4.38,10.069 c0.002,0.017,0.004,0.035,0.007,0.052H2.507C2.338,9.579,2.246,9.003,2.246,8.405c0-0.41,0.046-0.81,0.128-1.198 C2.132,6.819,1.894,6.405,1.68,5.993c-0.287,0.75-0.443,1.561-0.443,2.412c0,3.734,3.027,6.762,6.762,6.762 c2.766,0,5.142-1.66,6.191-4.038h0.068v-0.162c0.324-0.79,0.505-1.654,0.505-2.563C14.763,4.67,11.736,1.641,7.999,1.641z M10.356,3.158c1.225,0.55,2.224,1.519,2.814,2.724h-1.704C11.227,4.81,10.843,3.876,10.356,3.158z M2.934,11.13h1.647 c0.24,0.988,0.607,1.85,1.063,2.521C4.488,13.131,3.533,12.24,2.934,11.13z M7.999,14.158c-0.895,0-1.863-1.193-2.37-3.028h4.742 C9.865,12.965,8.895,14.158,7.999,14.158z M10.356,13.65c0.456-0.671,0.822-1.533,1.063-2.521h1.648 C12.466,12.24,11.512,13.131,10.356,13.65z M13.492,10.121h-1.879c0.079-0.55,0.122-1.124,0.122-1.716 c0-0.521-0.034-1.029-0.095-1.514h1.91c0.132,0.483,0.204,0.99,0.204,1.514C13.754,9.003,13.662,9.579,13.492,10.121z"/><path id="XMLID_2086_" style="fill:#0088B6;" d="M4.517,0.833c-1.551,0-2.809,1.258-2.809,2.81c0,1.55,2.809,5.27,2.809,5.27 s2.809-3.719,2.809-5.27C7.326,2.091,6.068,0.833,4.517,0.833z M4.517,4.872c-0.776,0-1.404-0.63-1.404-1.405 c0-0.776,0.629-1.405,1.404-1.405c0.776,0,1.405,0.629,1.405,1.405C5.922,4.242,5.292,4.872,4.517,4.872z"/></g></g></svg> 
