<?xml version="1.0" encoding="iso-8859-1"?><svg version="1.1" xmlns="http://www.w3.org/2000/svg" xmlns:xlink="http://www.w3.org/1999/xlink" x="0px" y="0px" viewBox="0 0 16 16" style="enable-background:new 0 0 16 16;" xml:space="preserve"><g id="_x5F__x5F_matrix"><path id="XMLID_492_" style="fill:#0088B6;" d="M15.051,11.847c0-0.378-0.309-0.687-0.687-0.687c-0.378,0-0.687,0.309-0.687,0.687 v1.954h-1.93c-0.378,0-0.687,0.309-0.687,0.687c0,0.378,0.309,0.687,0.687,0.687h2.617c0.189,0,0.69-0.009,0.69-0.009 s-0.003-0.489-0.003-0.677V11.847z"/><path id="XMLID_529_" style="fill:#0088B6;" d="M15.055,0.825c0,0-0.489,0.003-0.678,0.003h-2.641 c-0.378,0-0.687,0.309-0.687,0.687s0.309,0.687,0.687,0.687h1.954v1.93c0,0.378,0.309,0.687,0.687,0.687 c0.378,0,0.687-0.309,0.687-0.687V1.515C15.064,1.326,15.055,0.825,15.055,0.825z"/><path id="XMLID_530_" style="fill:#0088B6;" d="M0.949,4.153c0,0.378,0.309,0.687,0.687,0.687c0.378,0,0.687-0.309,0.687-0.687 V2.198h1.93c0.378,0,0.687-0.309,0.687-0.687c0-0.378-0.309-0.687-0.687-0.687H1.636c-0.189,0-0.69,0.009-0.69,0.009 s0.003,0.489,0.003,0.677V4.153z"/><path id="XMLID_536_" style="fill:#0088B6;" d="M4.263,13.798H2.309v-1.93c0-0.378-0.309-0.687-0.687-0.687 c-0.378,0-0.687,0.309-0.687,0.687v2.617c0,0.189,0.009,0.69,0.009,0.69s0.489-0.003,0.678-0.003h2.641 c0.378,0,0.687-0.309,0.687-0.687C4.95,14.107,4.641,13.798,4.263,13.798z"/><g id="show_x5F_lines_2_"><path id="XMLID_6978_" style="fill-rule:evenodd;clip-rule:evenodd;fill:#686969;" d="M5.99,11.556c0,0.14-0.022,0.254-0.05,0.254 H3.652c-0.027,0-0.05-0.114-0.05-0.254V10.54c0-0.14,0.022-0.254,0.05-0.254H5.94c0.027,0,0.05,0.114,0.05,0.254V11.556z M5.99,7.492c0-0.14-0.022-0.254-0.05-0.254H3.652c-0.027,0-0.05,0.114-0.05,0.254v1.016c0,0.14,0.022,0.254,0.05,0.254H5.94 c0.027,0,0.05-0.114,0.05-0.254V7.492z M5.99,4.444c0-0.14-0.022-0.254-0.05-0.254H3.652c-0.027,0-0.05,0.114-0.05,0.254V5.46 c0,0.14,0.022,0.254,0.05,0.254H5.94c0.027,0,0.05-0.114,0.05-0.254V4.444z"/></g><g id="show_x5F_lines_1_"><path id="XMLID_2_" style="fill-rule:evenodd;clip-rule:evenodd;fill:#686969;" d="M10.682,11.556c0,0.14-0.034,0.254-0.075,0.254 H7.16c-0.041,0-0.075-0.114-0.075-0.254V10.54c0-0.14,0.034-0.254,0.075-0.254h3.447c0.041,0,0.075,0.114,0.075,0.254V11.556z M10.682,7.492c0-0.14-0.034-0.254-0.075-0.254H7.16c-0.041,0-0.075,0.114-0.075,0.254v1.016c0,0.14,0.034,0.254,0.075,0.254 h3.447c0.041,0,0.075-0.114,0.075-0.254V7.492z M10.682,4.444c0-0.14-0.034-0.254-0.075-0.254H7.16 c-0.041,0-0.075,0.114-0.075,0.254V5.46c0,0.14,0.034,0.254,0.075,0.254h3.447c0.041,0,0.075-0.114,0.075-0.254V4.444z"/></g><g id="show_x5F_lines_4_"><path id="XMLID_6_" style="fill-rule:evenodd;clip-rule:evenodd;fill:#686969;" d="M12.398,11.556c0,0.14-0.022,0.254-0.05,0.254 H10.06c-0.027,0-0.05-0.114-0.05-0.254V10.54c0-0.14,0.022-0.254,0.05-0.254h2.288c0.027,0,0.05,0.114,0.05,0.254V11.556z M12.398,7.492c0-0.14-0.022-0.254-0.05-0.254H10.06c-0.027,0-0.05,0.114-0.05,0.254v1.016c0,0.14,0.022,0.254,0.05,0.254h2.288 c0.027,0,0.05-0.114,0.05-0.254V7.492z M12.398,4.444c0-0.14-0.022-0.254-0.05-0.254H10.06c-0.027,0-0.05,0.114-0.05,0.254V5.46 c0,0.14,0.022,0.254,0.05,0.254h2.288c0.027,0,0.05-0.114,0.05-0.254V4.444z"/></g></g></svg> 
