<?xml version="1.0" encoding="iso-8859-1"?><svg version="1.1" xmlns="http://www.w3.org/2000/svg" xmlns:xlink="http://www.w3.org/1999/xlink" x="0px" y="0px" viewBox="0 0 16 16" style="enable-background:new 0 0 16 16;" xml:space="preserve"><g id="_x5F__x5F_model"><rect id="XMLID_244_" x="4.951" y="2.411" style="fill:#0088B6;" width="5.981" height="4.61"/><path id="XMLID_1333_" style="fill:#686969;" d="M4.591,10.023H1.378c-0.304,0-0.553,0.249-0.553,0.553v2.46 c0,0.304,0.249,0.553,0.553,0.553h3.212c0.304,0,0.553-0.249,0.553-0.553v-2.46C5.144,10.272,4.895,10.023,4.591,10.023z M4.452,12.898H1.517v-2.183h2.936V12.898z"/><path id="XMLID_1365_" style="fill:#686969;" d="M9.656,10.023H6.443c-0.304,0-0.553,0.249-0.553,0.553v2.46 c0,0.304,0.249,0.553,0.553,0.553h3.212c0.304,0,0.553-0.249,0.553-0.553v-2.46C10.209,10.272,9.96,10.023,9.656,10.023z M9.517,12.898H6.582v-2.183h2.936V12.898z"/><path id="XMLID_1436_" style="fill:#686969;" d="M14.622,10.023h-3.212c-0.304,0-0.553,0.249-0.553,0.553v2.46 c0,0.304,0.249,0.553,0.553,0.553h3.212c0.304,0,0.553-0.249,0.553-0.553v-2.46C15.175,10.272,14.926,10.023,14.622,10.023z M14.483,12.898h-2.936v-2.183h2.936V12.898z"/><path id="XMLID_1443_" style="fill:#686969;" d="M2.931,9.666c0.173,0,0.315-0.142,0.315-0.315V8.89h4.489v0.326 c0,0.173,0.142,0.315,0.315,0.315c0.173,0,0.315-0.142,0.315-0.315V8.89H12.7v0.461c0,0.173,0.142,0.315,0.315,0.315 c0.173,0,0.315-0.142,0.315-0.315V8.67c0.008-0.027,0.013-0.054,0.013-0.083V8.37c0-0.167-0.137-0.304-0.304-0.304H8.364V7.723 c0-0.173-0.142-0.315-0.315-0.315c-0.173,0-0.315,0.142-0.315,0.315v0.342H2.92c-0.167,0-0.304,0.137-0.304,0.304v0.06v0.922 C2.616,9.524,2.758,9.666,2.931,9.666z"/></g></svg> 
