<?xml version="1.0" encoding="iso-8859-1"?><svg version="1.1" xmlns="http://www.w3.org/2000/svg" xmlns:xlink="http://www.w3.org/1999/xlink" x="0px" y="0px" viewBox="0 0 16 16" style="enable-background:new 0 0 16 16;" xml:space="preserve"><g id="_x5F__x5F_other"><g><path style="fill:#686969;" d="M13.248,12.285c1.062,0,1.927-0.864,1.927-1.927V3.41c0-1.062-0.864-1.927-1.927-1.927H2.752 c-1.062,0-1.927,0.865-1.927,1.927v6.948c0,1.062,0.865,1.927,1.927,1.927h1.051v1.637c0,0.237,0.141,0.451,0.359,0.547 c0.218,0.093,0.474,0.048,0.643-0.109l2.235-2.075H13.248z M6.4,11.252l-1.403,1.303v-0.866c0-0.329-0.268-0.597-0.596-0.597 H2.752c-0.398,0-0.734-0.336-0.734-0.734V3.41c0-0.398,0.336-0.734,0.734-0.734h10.496c0.398,0,0.734,0.336,0.734,0.734v6.948 c0,0.398-0.336,0.734-0.734,0.734H6.806C6.655,11.092,6.511,11.148,6.4,11.252z"/><g><circle id="XMLID_9692_" style="fill:#0088B6;" cx="11.767" cy="7.027" r="1.206"/><circle id="XMLID_9691_" style="fill:#0088B6;" cx="8" cy="7.027" r="1.206"/><circle id="XMLID_9690_" style="fill:#0088B6;" cx="4.233" cy="7.027" r="1.206"/></g></g></g></svg> 
