<?xml version="1.0" encoding="iso-8859-1"?><svg version="1.1" xmlns="http://www.w3.org/2000/svg" xmlns:xlink="http://www.w3.org/1999/xlink" x="0px" y="0px" viewBox="0 0 16 16" style="enable-background:new 0 0 16 16;" xml:space="preserve"><g id="_x5F__x5F_partyrole"><path style="fill-rule:evenodd;clip-rule:evenodd;fill:#0088B6;" d="M10.098,14.954c0.026,0.026,0.052,0.052,0.078,0.052h0.026 c0,0,0.026,0,0.052-0.026c0.052-0.026,0.078-0.078,0.078-0.129v-0.932h2.604c0.932,0,1.424-0.492,1.424-1.398v-2.513V9.947V9.846 c0-0.084-0.068-0.153-0.153-0.153h-1.141c-0.084,0-0.152,0.068-0.152,0.153v0.102h-0.001V9.715 c-0.002-0.008-0.003-0.016-0.003-0.006v2.553c0,0.129-0.103,0.233-0.207,0.233h-2.371v-1.061c0-0.052-0.026-0.103-0.078-0.129 c-0.078-0.026-0.13,0-0.156,0.026L8.39,13.038c-0.052,0.052-0.052,0.156,0,0.207L10.098,14.954z"/><path style="fill-rule:evenodd;clip-rule:evenodd;fill:#686969;" d="M4.319,11.105c0.786,0,1.423-0.728,1.423-1.628 c0-0.902-0.637-1.63-1.423-1.63c-0.785,0-1.421,0.728-1.421,1.63C2.898,10.376,3.534,11.105,4.319,11.105z"/><path style="fill-rule:evenodd;clip-rule:evenodd;fill:#686969;" d="M5.785,11.189l-0.396-0.013l-1.037,2.63L4.32,13.688v-0.02 l-0.032,0.117l-1.037-2.63l-0.396,0.013c-0.721,0.013-1.31,0.685-1.31,1.493v2.513h5.551v-2.493 C7.096,11.874,6.506,11.202,5.785,11.189z"/><path style="fill-rule:evenodd;clip-rule:evenodd;fill:#0088B6;" d="M11.679,4.083c0.786,0,1.423-0.728,1.423-1.628 c0-0.902-0.637-1.63-1.423-1.63c-0.785,0-1.421,0.728-1.421,1.63C10.258,3.355,10.894,4.083,11.679,4.083z"/><path style="fill-rule:evenodd;clip-rule:evenodd;fill:#0088B6;" d="M13.145,4.167l-0.396-0.013l-1.037,2.63L11.68,6.666v-0.02 l-0.032,0.117l-1.037-2.63l-0.396,0.013C9.494,4.161,8.904,4.832,8.904,5.64v2.513h5.551V5.66 C14.456,4.852,13.866,4.18,13.145,4.167z"/><path style="fill-rule:evenodd;clip-rule:evenodd;fill:#686969;" d="M6.605,1.829C6.579,1.803,6.554,1.777,6.527,1.777H6.501 c0,0-0.026,0-0.052,0.026C6.398,1.829,6.372,1.881,6.372,1.933v0.932H3.768c-0.932,0-1.424,0.492-1.424,1.398v2.513v0.059v0.102 c0,0.084,0.068,0.153,0.153,0.153h1.141c0.084,0,0.152-0.068,0.152-0.153V6.835H3.79v0.232c0.002,0.008,0.003,0.016,0.003,0.006 V4.521c0-0.129,0.103-0.233,0.207-0.233h2.371V5.35c0,0.052,0.026,0.103,0.078,0.129c0.078,0.026,0.13,0,0.156-0.026l1.709-1.708 c0.052-0.052,0.052-0.156,0-0.207L6.605,1.829z"/></g></svg> 
