<?xml version="1.0" encoding="iso-8859-1"?><svg version="1.1" xmlns="http://www.w3.org/2000/svg" xmlns:xlink="http://www.w3.org/1999/xlink" x="0px" y="0px" viewBox="0 0 16 16" style="enable-background:new 0 0 16 16;" xml:space="preserve"><g id="_x5F__x5F_person"><g><path style="fill:#686969;" d="M15.175,13.74c0-2.769-2.253-5.022-5.022-5.022H5.848c-2.769,0-5.022,2.253-5.022,5.022v1.435 h14.35V13.74z M2.26,13.74c0-1.978,1.609-3.587,3.587-3.587h4.305c1.978,0,3.587,1.609,3.587,3.587H2.26z"/><path style="fill:#0088B6;" d="M11.587,4.413c0-1.978-1.609-3.587-3.587-3.587c-1.978,0-3.587,1.609-3.587,3.587S6.022,8,8,8 C9.978,8,11.587,6.391,11.587,4.413z M5.848,4.413C5.848,3.226,6.813,2.26,8,2.26c1.187,0,2.152,0.966,2.152,2.152 S9.187,6.565,8,6.565C6.813,6.565,5.848,5.6,5.848,4.413z"/></g></g></svg> 
