<?xml version="1.0" encoding="iso-8859-1"?><svg version="1.1" xmlns="http://www.w3.org/2000/svg" xmlns:xlink="http://www.w3.org/1999/xlink" x="0px" y="0px" viewBox="0 0 16 16" style="enable-background:new 0 0 16 16;" xml:space="preserve"><g id="_x5F__x5F_place"><g><path id="XMLID_4176_" style="fill:#686969;" d="M4.24,7.316C4.184,7.197,4.102,7.001,4.059,6.877c0,0-0.007-0.021-0.019-0.057 C3.97,6.832,3.898,6.839,3.824,6.839c-0.716,0-1.297-0.564-1.297-1.261c0-0.696,0.581-1.26,1.297-1.26 c0.098,0,0.193,0.011,0.284,0.031C4.346,3.81,4.724,3.344,5.196,2.99C4.784,2.784,4.319,2.666,3.824,2.666 c-1.656,0-2.999,1.303-2.999,2.913c0,0.428,0.2,1.007,0.2,1.007C1.062,6.691,1.131,6.858,1.18,6.959l2.555,5.27 c0.05,0.101,0.129,0.101,0.178,0l1.355-2.794L4.24,7.316z"/><path id="XMLID_4173_" style="fill:#0088B6;" d="M7.992,2.342c-1.944,0-3.521,1.53-3.521,3.42c0,0.502,0.235,1.182,0.235,1.182 c0.043,0.124,0.125,0.32,0.181,0.438l3,6.188c0.059,0.118,0.151,0.118,0.209,0l3.001-6.188c0.057-0.118,0.136-0.315,0.18-0.438 c0,0,0.236-0.68,0.236-1.182C11.513,3.872,9.937,2.342,7.992,2.342z M7.992,7.242c-0.841,0-1.523-0.663-1.523-1.481 c0-0.817,0.682-1.479,1.523-1.479c0.841,0,1.524,0.663,1.524,1.479C9.515,6.58,8.833,7.242,7.992,7.242z"/><path id="XMLID_4172_" style="fill:#686969;" d="M11.76,7.245c0.057-0.118,0.139-0.315,0.181-0.438c0,0,0.007-0.021,0.019-0.057 c0.071,0.012,0.143,0.019,0.217,0.019c0.716,0,1.297-0.564,1.297-1.261c0-0.696-0.581-1.26-1.297-1.26 c-0.098,0-0.193,0.011-0.284,0.031c-0.238-0.539-0.616-1.005-1.088-1.359c0.411-0.206,0.877-0.325,1.372-0.325 c1.656,0,2.999,1.303,2.999,2.913c0,0.428-0.2,1.007-0.2,1.007c-0.036,0.105-0.106,0.273-0.154,0.373l-2.555,5.27 c-0.05,0.101-0.129,0.101-0.178,0l-1.355-2.794L11.76,7.245z"/></g></g></svg> 
