<?xml version="1.0" encoding="iso-8859-1"?><svg version="1.1" xmlns="http://www.w3.org/2000/svg" xmlns:xlink="http://www.w3.org/1999/xlink" x="0px" y="0px" viewBox="0 0 16 16" style="enable-background:new 0 0 16 16;" xml:space="preserve"><g id="_x5F__x5F_resource"><g><g id="Nature_27_"><path id="XMLID_1771_" style="fill:#686969;" d="M13.384,8.198L9.146,6.173c0.01,0.026,0.021,0.051,0.03,0.078 c0.172,0.531,0.007,1.091-0.375,1.449l4.313,1.215c0.203,0.077,0.423-0.003,0.489-0.178l0.032-0.084 C13.7,8.48,13.587,8.275,13.384,8.198z"/><path id="XMLID_1764_" style="fill:#686969;" d="M6.755,5.816C6.92,5.608,7.146,5.443,7.417,5.355 C7.69,5.267,7.971,5.267,8.228,5.34L6.514,1.116C6.45,0.908,6.252,0.783,6.074,0.838L5.988,0.865 C5.81,0.92,5.717,1.135,5.781,1.342L6.755,5.816z"/><circle id="XMLID_1757_" style="fill:#686969;" cx="7.85" cy="6.661" r="0.945"/><path id="XMLID_1756_" style="fill:#686969;" d="M7.87,8.02c-0.226,0-0.438-0.048-0.631-0.129C6.91,7.731,6.643,7.445,6.521,7.07 c-0.015-0.045-0.027-0.09-0.037-0.136l-2.532,3.963c-0.132,0.172-0.119,0.406,0.028,0.52l0.072,0.055 c0.148,0.113,0.377,0.065,0.509-0.107l2.52-2.762l-0.64,5.114l2.865,0.001L8.79,7.735C8.534,7.913,8.216,8.02,7.87,8.02z"/></g><g><path style="fill:#686969;" d="M7.062,1.882C5.906,1.917,4.793,2.385,3.927,3.2C3.056,4.02,2.557,5.085,2.52,6.199L2.509,6.535 l-0.45-0.003l1.079,1.603l0.9-1.587L3.64,6.544L3.65,6.193c0.059-2.206,1.72-4.015,3.862-4.303 C7.363,1.88,7.213,1.877,7.062,1.882z"/><rect x="3.405" y="14.252" style="fill:#0088B6;" width="8.89" height="0.923"/><path style="fill:#686969;" d="M9.111,11.457c1.154-0.078,2.249-0.587,3.084-1.433c0.84-0.852,1.3-1.934,1.296-3.048L13.49,6.64 l0.452,0.009l-1.138-1.562l-0.841,1.619l0.397-0.033l0.004,0.351c0.022,2.207-1.571,4.076-3.701,4.442 C8.81,11.47,8.96,11.468,9.111,11.457z"/></g></g></g></svg> 
