<?xml version="1.0" encoding="iso-8859-1"?><svg version="1.1" xmlns="http://www.w3.org/2000/svg" xmlns:xlink="http://www.w3.org/1999/xlink" x="0px" y="0px" viewBox="0 0 16 16" style="enable-background:new 0 0 16 16;" xml:space="preserve"><g id="_x5F__x5F_relationships"><g><path style="fill:#0088B6;" d="M8.217,4.227c0.821,0,1.486-0.761,1.486-1.7c0-0.942-0.665-1.702-1.486-1.702 c-0.819,0-1.484,0.761-1.484,1.702C6.734,3.467,7.398,4.227,8.217,4.227z"/><path style="fill:#0088B6;" d="M11.117,5.875c0-0.844-0.616-1.546-1.369-1.559L9.335,4.302L8.252,7.048L8.219,6.925V6.905 L8.185,7.027L7.102,4.281L6.688,4.295C5.936,4.309,5.32,5.01,5.32,5.854v2.624h5.798V5.875z"/><path style="fill:#686969;" d="M3.091,12.394c0.537,0,0.972-0.498,0.972-1.112c0-0.616-0.435-1.114-0.972-1.114 c-0.536,0-0.971,0.498-0.971,1.114C2.12,11.896,2.554,12.394,3.091,12.394z"/><path style="fill:#686969;" d="M4.092,12.451l-0.271-0.009l-0.709,1.797l-0.022-0.08v-0.014l-0.022,0.08l-0.709-1.797L2.09,12.438 c-0.492,0.009-0.895,0.468-0.895,1.02v1.717h3.793v-1.703C4.988,12.919,4.585,12.46,4.092,12.451z"/><path style="fill:#686969;" d="M12.908,12.116c0.537,0,0.972-0.498,0.972-1.112c0-0.616-0.435-1.114-0.972-1.114 c-0.536,0-0.971,0.498-0.971,1.114C11.937,11.618,12.372,12.116,12.908,12.116z"/><path style="fill:#686969;" d="M13.91,12.174l-0.271-0.009l-0.709,1.797l-0.022-0.08v-0.014l-0.022,0.08l-0.709-1.797 l-0.271,0.009c-0.493,0.009-0.896,0.468-0.896,1.02v1.717h3.793v-1.703C14.805,12.642,14.402,12.183,13.91,12.174z"/><polygon style="fill:#686969;" points="8.499,9.313 7.743,9.313 7.743,11.569 6.107,13.204 6.642,13.739 8.173,12.208 9.704,13.739 10.238,13.204 8.499,11.465 "/></g></g></svg> 
