<?xml version="1.0" encoding="iso-8859-1"?><svg version="1.1" xmlns="http://www.w3.org/2000/svg" xmlns:xlink="http://www.w3.org/1999/xlink" x="0px" y="0px" viewBox="0 0 16 16" style="enable-background:new 0 0 16 16;" xml:space="preserve"><g id="_x5F__x5F_thing"><g><path id="XMLID_15_" style="fill:#0088B6;" d="M8,6.349c-2.094,0-3.792,1.698-3.792,3.792S5.906,13.933,8,13.933 c2.094,0,3.792-1.698,3.792-3.792S10.094,6.349,8,6.349z M10.284,9.705l-1.231,0.894l0.47,1.447 c0.026,0.078-0.002,0.164-0.069,0.213c-0.033,0.024-0.073,0.036-0.112,0.036c-0.039,0-0.079-0.012-0.112-0.036L8,11.364 l-1.231,0.894c-0.067,0.048-0.157,0.048-0.224,0c-0.067-0.048-0.095-0.134-0.069-0.213l0.47-1.447L5.716,9.705 C5.649,9.656,5.621,9.57,5.646,9.492c0.026-0.078,0.099-0.131,0.181-0.131h1.522l0.47-1.447C7.845,7.835,7.918,7.782,8,7.782 c0.082,0,0.155,0.053,0.181,0.131l0.47,1.447h1.522c0.082,0,0.155,0.053,0.181,0.131C10.379,9.57,10.351,9.656,10.284,9.705z"/><g id="XMLID_1_"><path id="XMLID_14_" style="fill:#686969;" d="M11.526,3.824c0.442,0,0.799-0.446,0.799-1V1.776c0-0.555-0.357-1.002-0.799-1.002 c-0.442,0-0.799,0.447-0.799,1.002v1.048C10.727,3.378,11.084,3.824,11.526,3.824z"/><path id="XMLID_11_" style="fill:#686969;" d="M15.108,2.508H13.09v0.51c0,0.841-0.683,1.527-1.526,1.527 c-0.844,0-1.526-0.685-1.526-1.527v-0.51H5.966v0.51c0,0.841-0.684,1.527-1.527,1.527c-0.842,0-1.526-0.685-1.526-1.527v-0.51 L0.877,2.482v12.744h1.018h12.211l1.017-0.003L15.108,2.508z M14.106,14.212H1.895V6.07h12.211V14.212z"/><path id="XMLID_10_" style="fill:#686969;" d="M4.407,3.824c0.462,0,0.837-0.446,0.837-1V1.776c0-0.555-0.374-1.002-0.837-1.002 c-0.462,0-0.835,0.447-0.835,1.002v1.048C3.572,3.378,3.945,3.824,4.407,3.824z"/></g></g></g></svg> 
