<?xml version="1.0" encoding="iso-8859-1"?><svg version="1.1" xmlns="http://www.w3.org/2000/svg" xmlns:xlink="http://www.w3.org/1999/xlink" x="0px" y="0px" viewBox="0 0 14.335 14.306" style="enable-background:new 0 0 14.335 14.306;" xml:space="preserve"><g id="adf-blue"><g><path style="fill:#219DD9;" d="M14.306,8.429L14.306,8.429V4.96l-3.928,3.412h-0.086V4.96L6.365,8.372l0,0V1.233 c0-0.602-1.347-1.204-3.125-1.204S0,0.602,0,1.233v13.073h14.335L14.306,8.429z"/></g><path style="fill:#59B4D9;" d="M3.24,1.806c-1.29,0-2.322-0.315-2.322-0.659S1.95,0.487,3.24,0.487s2.322,0.287,2.322,0.659 C5.533,1.491,4.501,1.806,3.24,1.806z"/><rect x="8.429" y="10.407" style="fill:#FFFFFF;" width="1.577" height="1.577"/><rect x="5.648" y="10.407" style="fill:#FFFFFF;" width="1.577" height="1.577"/><rect x="11.239" y="10.407" style="fill:#FFFFFF;" width="1.577" height="1.577"/><rect x="0" y="1.147" style="fill:#175A9A;" width="3.182" height="13.159"/><path style="fill:#FFFFFF;" d="M6.336,1.147c0,0.631-1.433,1.147-3.182,1.147S0,1.778,0,1.147S1.433,0,3.182,0 S6.336,0.487,6.336,1.147"/><path style="fill:#175A9A;" d="M5.161,1.52c0.344-0.115,0.516-0.287,0.516-0.459c0-0.43-1.118-0.745-2.523-0.745 S0.631,0.659,0.631,1.061C0.659,1.233,0.86,1.405,1.175,1.52c0.659-0.201,1.319-0.315,2.007-0.287 C3.842,1.204,4.53,1.319,5.161,1.52"/></g></svg> 
