<?xml version="1.0" encoding="iso-8859-1"?><svg version="1.1" xmlns="http://www.w3.org/2000/svg" xmlns:xlink="http://www.w3.org/1999/xlink" x="0px" y="0px" viewBox="0 0 16 16" style="enable-background:new 0 0 16 16;" xml:space="preserve"><g id="adf-switch"><g><polygon style="fill:#999999;" points="10.347,2.863 8.38,0.896 8.38,4.83 "/><rect x="5.742" y="-0.196" transform="matrix(6.123234e-17 -1 1 6.123234e-17 3.4409 9.1673)" style="fill:#999999;" width="1.124" height="6.119"/><polygon style="fill:#999999;" points="10.394,8.061 8.427,6.094 8.427,10.028 "/><rect x="5.765" y="4.978" transform="matrix(6.123234e-17 -1 1 6.123234e-17 -1.7338 14.3888)" style="fill:#999999;" width="1.124" height="6.166"/><rect x="3.244" y="2.356" style="fill:#999999;" width="1.124" height="11.301"/><path style="fill:#515151;" d="M5.657,3.003L3.923,4.737c-0.065,0.065-0.169,0.065-0.234,0L1.956,3.003 c-0.065-0.065-0.065-0.169,0-0.234L3.69,1.036c0.065-0.065,0.169-0.065,0.234,0L5.657,2.77C5.721,2.834,5.721,2.939,5.657,3.003z" /><polygon style="fill:#999999;" points="10.48,13.137 8.513,11.17 8.513,15.104 "/><rect x="5.808" y="10.011" transform="matrix(6.123234e-17 -1 1 6.123234e-17 -6.7663 19.5073)" style="fill:#999999;" width="1.124" height="6.252"/><path style="fill:#0078D4;" d="M13.88,4.285h-2.42c-0.117,0-0.212-0.095-0.212-0.212v-2.42c0-0.117,0.095-0.212,0.212-0.212h2.42 c0.117,0,0.212,0.095,0.212,0.212v2.42C14.092,4.19,13.997,4.285,13.88,4.285z"/><path style="fill:#0078D4;" d="M13.88,9.483h-2.42c-0.117,0-0.212-0.095-0.212-0.212v-2.42c0-0.117,0.095-0.212,0.212-0.212h2.42 c0.117,0,0.212,0.095,0.212,0.212v2.42C14.092,9.388,13.997,9.483,13.88,9.483z"/><path style="fill:#0078D4;" d="M13.88,14.559h-2.42c-0.117,0-0.212-0.095-0.212-0.212v-2.42c0-0.117,0.095-0.212,0.212-0.212h2.42 c0.117,0,0.212,0.095,0.212,0.212v2.42C14.092,14.464,13.997,14.559,13.88,14.559z"/></g></g></svg> 
