<?xml version="1.0" encoding="iso-8859-1"?><svg version="1.1" xmlns="http://www.w3.org/2000/svg" xmlns:xlink="http://www.w3.org/1999/xlink" x="0px" y="0px" viewBox="0 0 16 16" style="enable-background:new 0 0 16 16;" xml:space="preserve"><g id="adf-lookup"><g><path style="fill:#198AB3;" d="M7.019,10.1L6.287,9.368c-0.176-0.176-0.462-0.176-0.638,0l-4.316,4.316 c-0.176,0.176-0.176,0.462,0,0.638l0.732,0.732c0.176,0.176,0.462,0.176,0.638,0l4.316-4.316 C7.196,10.562,7.196,10.276,7.019,10.1z"/><g><circle style="fill:#FFFFFF;" cx="9.376" cy="6.237" r="5.423"/><path style="fill:#9CEBFF;" d="M9.376,2.319c2.161,0,3.918,1.758,3.918,3.918s-1.758,3.918-3.918,3.918S5.458,8.398,5.458,6.237 S7.215,2.319,9.376,2.319 M9.376,0.814c-2.995,0-5.423,2.428-5.423,5.423c0,2.995,2.428,5.423,5.423,5.423 s5.423-2.428,5.423-5.423C14.799,3.242,12.371,0.814,9.376,0.814L9.376,0.814z"/></g></g></g></svg> 
