<?xml version="1.0" encoding="iso-8859-1"?><svg version="1.1" xmlns="http://www.w3.org/2000/svg" xmlns:xlink="http://www.w3.org/1999/xlink" x="0px" y="0px" viewBox="0 0 16 16" style="enable-background:new 0 0 16 16;" xml:space="preserve"><g id="adf-dfl"><g><linearGradient id="SVGID_1_" gradientUnits="userSpaceOnUse" x1="10.9432" y1="6.6382" x2="10.9432" y2="17.1701" gradientTransform="matrix(1 0 0 -1 0 18)"><stop offset="0" style="stop-color:#32BEDD"/><stop offset="0.532" style="stop-color:#50E6FF"/><stop offset="1" style="stop-color:#9CEBFF"/></linearGradient><path style="fill:url(#SVGID_1_);" d="M10.943,11.362c0.52-0.001,1.038-0.057,1.545-0.168c0.508-0.108,0.995-0.3,1.44-0.568 c0.131-0.08,0.257-0.168,0.378-0.263c0.124-0.095,0.237-0.205,0.336-0.325c0.097-0.117,0.178-0.246,0.242-0.384 c0.064-0.141,0.096-0.294,0.095-0.448c0.001-0.112-0.013-0.223-0.042-0.331c-0.031-0.108-0.073-0.212-0.126-0.31L10.943,0.83 L7.064,8.577c-0.048,0.098-0.087,0.2-0.116,0.305C6.921,8.988,6.906,9.097,6.907,9.207C6.905,9.362,6.938,9.515,7.002,9.655 c0.064,0.138,0.145,0.267,0.242,0.384c0.099,0.121,0.212,0.23,0.336,0.325c0.121,0.095,0.247,0.182,0.378,0.263 c0.445,0.268,0.932,0.46,1.44,0.568C9.906,11.306,10.424,11.361,10.943,11.362z"/><path style="fill:#0378D2;" d="M9.012,8.177v4.649L5.016,15.17v-4.661L9.012,8.177z"/><path style="fill:#82B7F7;" d="M9.012,8.177l-3.996,2.345L1.02,8.177l3.995-2.33L9.012,8.177z"/><path style="fill:#5E9EEE;" d="M5.016,10.522v4.648L1.02,12.826V8.177L5.016,10.522z"/><path style="opacity:0.2;fill:#82B7F7;enable-background:new ;" d="M1.02,12.826l3.995-2.318v4.661L1.02,12.826z"/><path style="opacity:0.2;fill:#5E9EEE;enable-background:new ;" d="M9.012,12.826l-3.996-2.318v4.661L9.012,12.826z"/><g><polygon style="fill:#999999;" points="6.907,2.408 5.241,0.83 5.241,3.985 "/><path style="fill:#999999;" d="M2.882,5.496V4.944c0-1.103,0.897-1.999,1.999-1.999H5.24V1.843H4.881c-1.712,0-3.1,1.388-3.1,3.1 v0.554h1.101V5.496z"/></g></g></g></svg> 
