<?xml version="1.0" encoding="iso-8859-1"?><svg version="1.1" xmlns="http://www.w3.org/2000/svg" xmlns:xlink="http://www.w3.org/1999/xlink" x="0px" y="0px" viewBox="0 0 16 16" style="enable-background:new 0 0 16 16;" xml:space="preserve"><g id="adf-extension-point"><path style="fill:#00416B;" d="M8.797,10.832h-3.29c-0.187,0-0.339-0.152-0.339-0.339v-3.29c0-0.187,0.152-0.339,0.339-0.339h3.29 c0.187,0,0.339,0.152,0.339,0.339v3.29C9.136,10.68,8.985,10.832,8.797,10.832z"/><polygon style="fill:#999999;" points="12.218,9.416 12.218,13.917 2.083,13.917 2.083,3.782 6.301,3.782 6.301,2.619 1.59,2.619 1.59,2.622 0.92,2.622 0.92,15.08 1.72,15.08 2.083,15.08 13.381,15.08 13.381,14.633 13.381,13.917 13.381,9.416 "/><polygon style="fill:#E27730;" points="8.873,0.92 8.873,2.083 13.917,2.083 13.917,7.15 15.08,7.15 15.08,2.083 15.08,1.933 15.08,0.92 "/><polygon style="fill:#C40D3C;" points="8.873,0.92 8.873,2.083 13.917,2.083 13.917,7.15 15.08,7.15 15.08,2.083 15.08,1.933 15.08,0.92 "/></g></svg> 
