<?xml version="1.0" encoding="iso-8859-1"?><svg version="1.1" xmlns="http://www.w3.org/2000/svg" xmlns:xlink="http://www.w3.org/1999/xlink" x="0px" y="0px" viewBox="0 0 16 16" style="enable-background:new 0 0 16 16;" xml:space="preserve"><g id="adf-if-condition"><g><polygon style="fill:#999999;" points="12.135,7.465 14.17,5.43 10.1,5.43 "/><rect x="3.283" y="2.279" style="fill:#999999;" width="1.163" height="4.169"/><rect x="11.554" y="2.279" style="fill:#999999;" width="1.163" height="4.169"/><polygon style="fill:#999999;" points="3.865,7.465 5.9,5.43 1.83,5.43 "/><rect x="7.052" y="-1.49" transform="matrix(9.151441e-11 -1 1 9.151441e-11 4.773 10.4931)" style="fill:#999999;" width="1.163" height="8.699"/><g><g><polygon style="fill:#999999;" points="12.135,15.175 14.17,13.14 10.1,13.14 "/><rect x="11.554" y="10.473" style="fill:#999999;" width="1.163" height="3.685"/></g></g><polygon style="fill:#999999;" points="3.865,15.175 5.9,13.14 1.83,13.14 "/><rect x="3.283" y="10.473" style="fill:#999999;" width="1.163" height="3.685"/><polygon style="fill:#0078D4;" points="13.505,6.972 13.505,9.978 10.765,9.978 10.765,6.972 9.602,6.972 9.602,9.978 9.602,11.141 10.765,11.141 13.505,11.141 13.771,11.141 14.668,11.141 14.668,6.972 "/><rect x="6.583" y="1.421" transform="matrix(0.7071 -0.7071 0.7071 0.7071 0.3273 6.5102)" style="fill:#515151;" width="2.878" height="2.878"/><polygon style="fill:#0078D4;" points="5.235,6.972 5.235,9.978 2.495,9.978 2.495,6.972 1.332,6.972 1.332,9.978 1.332,11.141 2.495,11.141 5.235,11.141 5.501,11.141 6.398,11.141 6.398,6.972 "/></g></g></svg> 
