<?xml version="1.0" encoding="iso-8859-1"?><svg version="1.1" xmlns="http://www.w3.org/2000/svg" xmlns:xlink="http://www.w3.org/1999/xlink" x="0px" y="0px" viewBox="0 0 16 16" style="enable-background:new 0 0 16 16;" xml:space="preserve"><g id="adf-set-variables"><g><path style="fill:#5FA0EF;" d="M7.761,8.764c-0.086,0.143-0.159,0.263-0.23,0.383c-0.412,0.699-0.857,1.376-1.413,1.971 c-0.31,0.332-0.643,0.637-1.104,0.751c-0.506,0.124-0.978-0.093-1.133-0.525c-0.112-0.313-0.01-0.66,0.253-0.86 c0.213-0.162,0.565-0.152,0.824,0.025c0.123,0.084,0.248,0.165,0.365,0.257c0.089,0.07,0.176,0.078,0.253,0.004 c0.181-0.176,0.374-0.345,0.528-0.543c0.535-0.689,0.99-1.431,1.409-2.196c0.06-0.109,0.065-0.209,0.033-0.33 c-0.156-0.586-0.3-1.175-0.454-1.762C7.013,5.643,6.879,5.372,6.666,5.147c-0.201-0.213-0.459-0.297-0.746-0.3 c-0.199-0.002-0.397,0-0.596,0.01C5.214,4.862,5.167,4.833,5.167,4.712c-0.001-0.297-0.008-0.3,0.282-0.354 c0.634-0.117,1.269-0.229,1.904-0.347C7.473,3.989,7.554,4.02,7.638,4.115c0.507,0.571,0.753,1.262,0.93,1.986 C8.582,6.16,8.598,6.218,8.625,6.318c0.103-0.153,0.187-0.277,0.27-0.403c0.389-0.587,0.819-1.136,1.401-1.549 c0.24-0.171,0.495-0.308,0.793-0.352c0.361-0.053,0.761,0.09,0.899,0.329c0.172,0.3,0.165,0.642-0.043,0.883 c-0.216,0.249-0.506,0.268-0.806,0.203c-0.118-0.026-0.237-0.059-0.347-0.108c-0.32-0.143-0.582-0.044-0.809,0.188 C9.548,5.953,9.186,6.452,8.888,6.996c-0.033,0.06-0.042,0.15-0.027,0.218c0.2,0.865,0.404,1.728,0.611,2.591 c0.054,0.225,0.113,0.449,0.184,0.669c0.11,0.344,0.292,0.392,0.579,0.17c0.32-0.248,0.559-0.56,0.754-0.91 c0.024-0.043,0.052-0.084,0.092-0.148c0.136,0.065,0.272,0.129,0.431,0.205c-0.112,0.18-0.197,0.354-0.316,0.501 c-0.308,0.38-0.617,0.761-0.953,1.114c-0.16,0.168-0.371,0.3-0.582,0.402c-0.428,0.207-0.819,0.075-1.096-0.318 c-0.24-0.341-0.303-0.743-0.406-1.129c-0.131-0.489-0.23-0.987-0.344-1.481C7.808,8.849,7.789,8.823,7.761,8.764z"/><path style="fill:#767676;" d="M3.863,13.849h-0.97c-1.374-1.569-2.06-3.503-2.06-5.803c0-2.308,0.686-4.274,2.06-5.895h0.984 C2.485,3.835,1.789,5.795,1.789,8.033C1.789,10.253,2.481,12.192,3.863,13.849z"/><path style="fill:#767676;" d="M13.093,13.849h-0.97c1.382-1.657,2.074-3.596,2.074-5.816c0-2.238-0.696-4.198-2.087-5.882h0.984 c1.382,1.622,2.074,3.587,2.074,5.895C15.167,10.346,14.476,12.28,13.093,13.849z"/></g></g></svg> 
