<?xml version="1.0" encoding="iso-8859-1"?><svg version="1.1" xmlns="http://www.w3.org/2000/svg" xmlns:xlink="http://www.w3.org/1999/xlink" x="0px" y="0px" viewBox="0 0 16 16" style="enable-background:new 0 0 16 16;" xml:space="preserve"><g id="adf-script"><g><path style="fill:#005BA1;" d="M13.869,1.333V1.318c-0.025,0-0.048,0.006-0.073,0.007c-0.025-0.001-0.048-0.007-0.073-0.007 c-0.801,0-1.451,0.65-1.451,1.451V4.22h0.682h0.769h0.145V4.205c0.732-0.074,1.306-0.685,1.306-1.436S14.601,1.406,13.869,1.333z" /><path style="fill:#0078D7;" d="M12.273,1.318H4.811v0.015c-0.005,0-0.009-0.001-0.014-0.001c-0.838,0-1.517,0.679-1.517,1.517 v11.833h7.462v-0.001c0.005,0,0.009,0.001,0.014,0.001c0.838,0,1.517-0.679,1.517-1.517c0-0.005-0.001-0.009-0.001-0.014h0.001 V2.769c0-0.801,0.65-1.451,1.451-1.451H12.273z"/><path style="fill:#5EA0EF;" d="M9.304,13.251c0-0.412,0.173-0.781,0.449-1.046H9.747C9.8,12.161,9.838,12.1,9.838,12.025 c0-0.135-0.11-0.245-0.245-0.245H2.276c-0.801,0-1.451,0.65-1.451,1.451s0.65,1.451,1.451,1.451h8.277 C9.848,14.583,9.304,13.983,9.304,13.251z"/><g><path style="fill:#83B9F9;" d="M10.43,4.267H5.122c-0.053,0-0.096-0.043-0.096-0.096V3.785c0-0.053,0.043-0.096,0.096-0.096 h5.308c0.053,0,0.096,0.043,0.096,0.096v0.386C10.526,4.224,10.483,4.267,10.43,4.267z"/><path style="fill:#83B9F9;" d="M10.43,5.995H5.122c-0.053,0-0.096-0.043-0.096-0.096V5.513c0-0.053,0.043-0.096,0.096-0.096 h5.308c0.053,0,0.096,0.043,0.096,0.096v0.386C10.526,5.952,10.483,5.995,10.43,5.995z"/><path style="fill:#83B9F9;" d="M10.43,7.724H5.122c-0.053,0-0.096-0.043-0.096-0.096V7.242c0-0.053,0.043-0.096,0.096-0.096 h5.308c0.053,0,0.096,0.043,0.096,0.096v0.386C10.526,7.681,10.483,7.724,10.43,7.724z"/><path style="fill:#83B9F9;" d="M8.349,9.452H5.122c-0.053,0-0.096-0.043-0.096-0.096V8.97c0-0.053,0.043-0.096,0.096-0.096h3.227 c0.053,0,0.096,0.043,0.096,0.096v0.386C8.444,9.409,8.402,9.452,8.349,9.452z"/></g></g></g></svg> 
