<?xml version="1.0" encoding="iso-8859-1"?><svg version="1.1" xmlns="http://www.w3.org/2000/svg" xmlns:xlink="http://www.w3.org/1999/xlink" x="0px" y="0px" viewBox="0 0 16 16" style="enable-background:new 0 0 16 16;" xml:space="preserve"><g id="adf-dataflow"><g><polygon style="fill:#999999;" points="6.822,2.376 5.184,0.825 5.184,3.926 "/><path style="fill:#999999;" d="M2.866,5.411V4.868c0-1.084,0.882-1.965,1.965-1.965h0.352V1.821H4.831 c-1.683,0-3.047,1.364-3.047,3.047v0.544H2.866z"/></g><path style="fill:#96EBFF;" d="M15.08,8.787L15.08,8.787l-0.043-0.09c-0.015-0.03-0.027-0.061-0.044-0.091l-3.8-7.781L7.361,8.79 l0,0C7.301,8.939,7.267,9.092,7.267,9.25c0,1.184,1.77,2.143,3.954,2.143c2.184,0,3.954-0.96,3.954-2.143 C15.175,9.091,15.141,8.936,15.08,8.787z"/><g><polygon style="fill:#82B7F7;" points="4.899,5.877 0.825,8.229 4.899,10.581 8.973,8.229 "/><polygon style="fill:#0378D2;" points="8.973,8.229 4.899,10.581 4.899,15.175 8.973,12.823 "/><polygon style="fill:#5E9EEE;" points="0.825,8.229 0.825,12.823 4.899,15.175 4.899,10.581 "/></g></g></svg> 
