<?xml version="1.0" encoding="iso-8859-1"?><svg version="1.1" xmlns="http://www.w3.org/2000/svg" xmlns:xlink="http://www.w3.org/1999/xlink" x="0px" y="0px" viewBox="0 0 16 16" style="enable-background:new 0 0 16 16;" xml:space="preserve"><g id="adf-copy"><g><g><path style="fill:#005BA1;" d="M6.114,2.191c0,0-0.05,0-0.052,0c-0.101,0-3.721,0-3.721,0V9.46c0,0.748,1.662,1.354,3.721,1.365 v0.002h0.046c0.002,0,0.004,0,0.006,0v0c2.083,0,3.772-0.611,3.772-1.366V2.191H6.114z"/><path style="fill:#FFFFFF;" d="M9.886,2.191c0,0.755-1.689,1.366-3.772,1.366S2.341,2.946,2.341,2.191S4.03,0.825,6.114,0.825 S9.886,1.437,9.886,2.191"/><path style="fill:#015CA1;" d="M9.115,2.113c0,0.498-1.344,0.901-3.001,0.901S3.112,2.611,3.112,2.113 c0-0.498,1.344-0.901,3.001-0.901S9.115,1.615,9.115,2.113"/><path style="fill:#50E6FF;" d="M8.486,2.664c0.393-0.152,0.629-0.343,0.629-0.55c0-0.498-1.344-0.902-3.001-0.902 c-1.657,0-3.001,0.404-3.001,0.902c0,0.207,0.236,0.398,0.629,0.55c0.549-0.213,1.406-0.35,2.372-0.35 C7.08,2.313,7.937,2.451,8.486,2.664"/></g><g><path style="fill:#005BA1;" d="M9.886,6.54c0,0-0.05,0-0.052,0c-0.101,0-3.721,0-3.721,0v7.268c0,0.748,1.662,1.354,3.721,1.365 v0.002H9.88c0.002,0,0.004,0,0.006,0v0c2.083,0,3.772-0.611,3.772-1.366V6.54H9.886z"/><path style="fill:#FFFFFF;" d="M13.659,6.54c0,0.755-1.689,1.366-3.772,1.366S6.114,7.295,6.114,6.54s1.689-1.366,3.772-1.366 S13.659,5.786,13.659,6.54"/><path style="fill:#015CA1;" d="M12.887,6.462c0,0.498-1.344,0.901-3.001,0.901S6.885,6.96,6.885,6.462 c0-0.498,1.344-0.901,3.001-0.901S12.887,5.964,12.887,6.462"/><path style="fill:#50E6FF;" d="M12.259,7.012c0.393-0.152,0.629-0.343,0.629-0.55c0-0.498-1.344-0.902-3.001-0.902 c-1.657,0-3.001,0.404-3.001,0.902c0,0.207,0.236,0.398,0.629,0.55C8.063,6.8,8.92,6.662,9.886,6.662 C10.853,6.662,11.71,6.8,12.259,7.012"/></g></g></g></svg> 
