<?xml version="1.0" encoding="iso-8859-1"?><svg version="1.1" xmlns="http://www.w3.org/2000/svg" xmlns:xlink="http://www.w3.org/1999/xlink" x="0px" y="0px" viewBox="0 0 16 16" style="enable-background:new 0 0 16 16;" xml:space="preserve"><g id="adf-execute-pipeline"><g><g><ellipse style="fill:#32D4F5;" cx="2.475" cy="5.944" rx="1.024" ry="3.36"/></g><g><g><path style="fill:#E8E8E8;" d="M2.475,1.478c-0.911,0-1.65,1.999-1.65,4.466s0.739,4.466,1.65,4.466s1.65-1.999,1.65-4.466 S3.386,1.478,2.475,1.478z M2.475,9.304c-0.566,0-1.024-1.504-1.024-3.36s0.458-3.36,1.024-3.36s1.024,1.504,1.024,3.36 S3.041,9.304,2.475,9.304z"/></g></g><path style="fill:#005BA4;" d="M4.125,1.478h-1.65c0.911,0,1.65,1.999,1.65,4.466c0,2.432-0.719,4.406-1.612,4.461h1.574 c0.013,0.001,0.025,0.005,0.038,0.005c0.911,0,1.65-1.999,1.65-4.466S5.036,1.478,4.125,1.478z M4.125,2.584 c0.018,0,0.035,0.006,0.052,0.009C4.159,2.594,4.142,2.6,4.125,2.603V2.584z M4.125,9.304V9.285 c0.018,0.003,0.034,0.009,0.052,0.01C4.159,9.298,4.142,9.304,4.125,9.304z"/><g><g><path style="fill:#E8E8E8;" d="M10.969,1.478c-0.911,0-1.65,1.999-1.65,4.466s0.739,4.466,1.65,4.466 c0.911,0,1.65-1.999,1.65-4.466S11.88,1.478,10.969,1.478z M10.969,9.304c-0.566,0-1.024-1.504-1.024-3.36 s0.458-3.36,1.024-3.36s1.024,1.504,1.024,3.36S11.534,9.304,10.969,9.304z"/></g></g><path style="fill:#005BA4;" d="M12.618,1.478h-1.65c0.911,0,1.65,1.999,1.65,4.466c0,2.432-0.719,4.406-1.612,4.461h1.574 c0.013,0.001,0.025,0.005,0.038,0.005c0.911,0,1.65-1.999,1.65-4.466S13.53,1.478,12.618,1.478z M12.618,2.584 c0.018,0,0.035,0.006,0.052,0.009c-0.018,0.001-0.034,0.007-0.052,0.01V2.584z M12.618,9.304V9.285 c0.018,0.003,0.034,0.009,0.052,0.01C12.653,9.298,12.636,9.304,12.618,9.304z"/><path style="fill:#005BA4;" d="M10.969,2.584H4.95v6.72h6.018c0.566,0,1.024-1.504,1.024-3.36 C11.993,4.088,11.534,2.584,10.969,2.584z"/><g><polygon style="fill:#FFD70F;" points="14.5,7.938 10.889,7.938 10.889,10.577 13.398,10.577 "/><g><path style="fill:#FFD70F;" d="M14.922,7.938l-2.1,0.005c-0.222,0.001-0.418,0.147-0.481,0.36l-1.778,6.021l0.294,0.134 l4.272-6.126C15.246,8.167,15.126,7.938,14.922,7.938z"/><ellipse style="fill:#FFD70F;" cx="10.723" cy="14.368" rx="0.166" ry="0.154"/></g><g><g><g><path style="fill:#FFD70F;" d="M9.192,10.577l2.1-0.005c0.222-0.001,0.418-0.147,0.481-0.36l1.778-6.021l-0.294-0.134 l-4.272,6.126C8.869,10.348,8.988,10.577,9.192,10.577z"/></g><g><ellipse style="fill:#FFD70F;" cx="13.391" cy="4.147" rx="0.166" ry="0.154"/></g></g></g></g></g></g></svg> 
