<?xml version="1.0" encoding="iso-8859-1"?><svg version="1.1" xmlns="http://www.w3.org/2000/svg" xmlns:xlink="http://www.w3.org/1999/xlink" x="0px" y="0px" viewBox="0 0 16 16" style="enable-background:new 0 0 16 16;" xml:space="preserve"><g id="adf-function"><g><polygon style="fill:#FFD70F;" points="7.885,7.148 12.012,1.5 8.006,1.5 4.535,8.709 6.185,8.709 6.744,8.709 7.204,8.709 4.681,14.5 5.044,14.5 11.575,7.148 9.705,7.148 "/><g><rect x="2.594" y="6.669" transform="matrix(0.7071 -0.7071 0.7071 0.7071 -5.7545 4.9549)" style="fill:#50E6FF;" width="1.02" height="5.51"/><rect x="2.591" y="3.493" transform="matrix(-0.7071 -0.7071 0.7071 -0.7071 0.8752 12.8596)" style="fill:#1490DF;" width="1.02" height="5.51"/></g><g><rect x="12.386" y="6.669" transform="matrix(-0.7071 -0.7071 0.7071 -0.7071 15.3515 25.2063)" style="fill:#50E6FF;" width="1.02" height="5.51"/><rect x="12.389" y="3.493" transform="matrix(0.7071 -0.7071 0.7071 0.7071 -0.6403 10.9512)" style="fill:#1490DF;" width="1.02" height="5.51"/></g></g></g></svg> 
