<?xml version="1.0" encoding="iso-8859-1"?><svg version="1.1" xmlns="http://www.w3.org/2000/svg" xmlns:xlink="http://www.w3.org/1999/xlink" x="0px" y="0px" viewBox="0 0 14.35 14.867" style="enable-background:new 0 0 14.35 14.867;" xml:space="preserve"><g id="adf-dfl-line"><g id="Layer_1_00000059993709664313906680000004153750506988845710_"></g><polygon style="fill:#637B32;" points="11.38,3.085 14.067,8.669 11.38,3.085 "/><path style="fill:none;" d="M7.998,10.512c-0.176-0.088-0.335-0.185-0.479-0.289c-0.025-0.018-0.055-0.034-0.079-0.052 c-0.157-0.121-0.295-0.249-0.404-0.387c0,0,0,0,0,0C6.831,9.526,6.717,9.241,6.717,8.942c0-0.159,0.034-0.314,0.095-0.463 l0.043-0.09c0.015-0.03,0.027-0.061,0.044-0.091l0.479-0.98L4.349,5.569L0.275,7.921v4.594l4.074,2.352l4.074-2.352v-1.833 c-0.125-0.047-0.256-0.09-0.37-0.145C8.035,10.528,8.015,10.521,7.998,10.512z"/><path style="fill:none;" d="M8.923,7.633v0.289v2.416c0.169,0.05,0.345,0.095,0.534,0.13c0.558,0.045,1.066,0.017,1.492-0.075 c0.75-0.162,1.256-0.5,1.347-0.908c0.019-0.085,0.02-0.177,0.003-0.279l-1.35-5.77l-0.362-1.549L8.032,7.118l0.641,0.37 L8.923,7.633z"/><path style="fill:none;" d="M7.812,7.568L7.348,8.518L7.347,8.52L7.302,8.613L7.263,8.695C7.236,8.762,7.217,8.854,7.217,8.942 c0,0.435,0.455,0.893,1.206,1.214V7.921L7.812,7.568z"/><g><polygon style="fill:#999999;" points="5.997,1.551 4.359,0 4.359,3.101 "/><path style="fill:#999999;" d="M2.041,4.586V4.043c0-1.084,0.882-1.965,1.965-1.965h0.352V0.996H4.006 c-1.683,0-3.047,1.364-3.047,3.047v0.544h1.082V4.586z"/></g><path style="fill:#0378D2;" d="M4.074,5.052L0,7.404v4.594l4.074,2.352l4.074-2.352V7.404L4.074,5.052z M4.074,5.629l3.574,2.063 L4.074,9.756L0.5,7.693L4.074,5.629z"/><path style="fill:#96EBFF;" d="M14.256,7.965l-0.07-0.146l-1.863-3.872l-1.866-3.878l-0.003-0.005L10.424,0L9.791,1.296 L9.286,2.331l0,0L7.323,6.35l0.434,0.251l2.555-5.231l0.362,1.549l1.35,5.77c0.017,0.103,0.016,0.194-0.003,0.279 c-0.091,0.408-0.597,0.746-1.347,0.908c-0.426,0.092-0.934,0.12-1.492,0.075C8.993,9.915,8.817,9.87,8.648,9.82v0.505 c0.179,0.048,0.357,0.098,0.55,0.131c0,0,0,0,0,0c0,0,0,0,0,0c0.18,0.031,0.36,0.059,0.55,0.076 c0.21,0.022,0.425,0.035,0.647,0.035c0.253,0,0.497-0.015,0.736-0.04c0.146-0.015,0.284-0.041,0.424-0.064 c0.078-0.013,0.159-0.023,0.235-0.039c0.185-0.038,0.36-0.086,0.531-0.138c0.018-0.006,0.037-0.01,0.056-0.016 c1.005-0.318,1.723-0.863,1.911-1.511C14.324,8.65,14.35,8.54,14.35,8.425C14.35,8.267,14.316,8.114,14.256,7.965z"/></g></svg> 
