<?xml version="1.0" encoding="iso-8859-1"?><svg version="1.1" xmlns="http://www.w3.org/2000/svg" xmlns:xlink="http://www.w3.org/1999/xlink" x="0px" y="0px" viewBox="0 0 16 16" style="enable-background:new 0 0 16 16;" xml:space="preserve"><g id="adf"><g><path style="fill:#50E6FF;" d="M7.156,2.014c0,0.464-1.233,0.844-2.752,0.844S1.651,2.496,1.651,2.014s1.283-0.819,2.761-0.819 S7.156,1.559,7.156,2.014"/><path style="fill:#005BA1;" d="M11.588,9.249V5.949c0.001-0.065-0.051-0.119-0.116-0.12c-0.032,0-0.064,0.012-0.086,0.035 L8.008,9.241l-3.512,3.512v2.423h10.198c0.261,0.005,0.477-0.203,0.481-0.464c0-0.006,0-0.011,0-0.017V5.949 c0.001-0.065-0.051-0.119-0.116-0.12c-0.032,0-0.064,0.012-0.086,0.035L11.588,9.249z"/><linearGradient id="SVGID_1_" gradientUnits="userSpaceOnUse" x1="0.824" y1="9.3668" x2="8" y2="9.3668" gradientTransform="matrix(1 0 0 -1 0 18)"><stop offset="0" style="stop-color:#005BA1"/><stop offset="0.07" style="stop-color:#0060A9"/><stop offset="0.36" style="stop-color:#0071C8"/><stop offset="0.52" style="stop-color:#0078D4"/><stop offset="0.64" style="stop-color:#0074CD"/><stop offset="0.81" style="stop-color:#006ABB"/><stop offset="0.99" style="stop-color:#005BA1"/></linearGradient><path style="fill:url(#SVGID_1_);" d="M4.412,3.424c-1.984,0-3.588-0.583-3.588-1.334v4.787l0,0v7.818 c-0.005,0.261,0.203,0.477,0.464,0.481c0.006,0,0.011,0,0.017,0H8V2.09C8,2.842,6.396,3.424,4.412,3.424z"/><path style="fill:#FFFFFF;" d="M11.537,11.352h1.444c0.131,0,0.236,0.106,0.236,0.236v1.444c0,0.131-0.106,0.236-0.236,0.236 h-1.444c-0.131,0-0.236-0.106-0.236-0.236v-1.444C11.301,11.457,11.407,11.352,11.537,11.352z"/><path style="fill:#FFFFFF;" d="M8.211,11.352h1.444c0.131,0,0.236,0.106,0.236,0.236v1.444c0,0.131-0.106,0.236-0.236,0.236H8.211 c-0.131,0-0.236-0.106-0.236-0.236v-1.444C7.975,11.457,8.081,11.352,8.211,11.352z"/><path style="fill:#FFFFFF;" d="M4.885,11.352h1.444c0.131,0,0.236,0.106,0.236,0.236v1.444c0,0.131-0.106,0.236-0.236,0.236H4.885 c-0.131,0-0.236-0.106-0.236-0.236v-1.444C4.648,11.457,4.754,11.352,4.885,11.352z"/><path style="fill:#198AB3;" d="M4.412,2.209C3.674,2.193,2.938,2.307,2.234,2.546c0.702,0.25,1.439,0.367,2.178,0.347 c0.739,0.02,1.476-0.097,2.178-0.347C5.886,2.307,5.15,2.193,4.412,2.209z"/><path style="fill:#EAEAEA;" d="M4.412,0.824c-1.984,0-3.588,0.522-3.588,1.283c0,0.761,1.604,1.317,3.588,1.317S8,2.834,8,2.107 C8,1.414,6.396,0.824,4.412,0.824z M4.404,2.859c-1.52,0-2.752-0.363-2.752-0.844s1.283-0.819,2.761-0.819 s2.744,0.363,2.744,0.819C7.156,2.479,5.923,2.859,4.404,2.859z"/></g></g></svg> 
