<?xml version="1.0" encoding="iso-8859-1"?><svg version="1.1" xmlns="http://www.w3.org/2000/svg" xmlns:xlink="http://www.w3.org/1999/xlink" x="0px" y="0px" viewBox="0 0 16 16" style="enable-background:new 0 0 16 16;" xml:space="preserve"><g id="append-record-source"><polygon style="fill:#555555;" points="13.381,10.392 12.185,10.392 12.185,12.185 10.392,12.185 10.392,13.381 12.185,13.381 12.185,15.175 13.381,15.175 13.381,13.381 15.175,13.381 15.175,12.185 13.381,12.185 "/><path style="fill:#555555;" d="M11.077,0.825H2.465c-0.904,0-1.64,0.736-1.64,1.64V4.89v0.685v2.425c0,0.904,0.736,1.64,1.64,1.64 h8.612c0.904,0,1.64-0.736,1.64-1.64V5.576V4.89V2.465C12.716,1.561,11.981,0.825,11.077,0.825z M11.897,4.89v0.685v2.425 c0,0.453-0.368,0.821-0.821,0.821H2.465c-0.453,0-0.821-0.368-0.821-0.821V5.576V4.89V2.465c0-0.453,0.368-0.821,0.821-0.821h8.612 c0.453,0,0.821,0.368,0.821,0.821V4.89z"/><g><path style="fill:#555555;" d="M4.456,5.728v1.628H3.557V3.113h1.236c0.576,0,1.003,0.105,1.28,0.314 c0.276,0.21,0.415,0.529,0.415,0.957c0,0.25-0.069,0.472-0.206,0.666C6.144,5.244,5.95,5.397,5.698,5.507 c0.639,0.954,1.054,1.57,1.248,1.849H5.948L4.935,5.728H4.456z M4.456,4.996h0.29c0.285,0,0.495-0.047,0.63-0.142 C5.512,4.759,5.579,4.61,5.579,4.407c0-0.201-0.069-0.344-0.208-0.429C5.234,3.892,5.019,3.85,4.729,3.85H4.456V4.996z"/><path style="fill:#555555;" d="M9.985,6.177c0,0.383-0.138,0.685-0.413,0.905C9.296,7.303,8.912,7.414,8.421,7.414 c-0.453,0-0.853-0.085-1.201-0.255V6.322C7.506,6.45,7.748,6.54,7.946,6.592C8.145,6.645,8.326,6.671,8.49,6.671 c0.197,0,0.349-0.038,0.454-0.113C9.05,6.482,9.103,6.37,9.103,6.221c0-0.083-0.023-0.157-0.069-0.222 C8.987,5.934,8.918,5.872,8.828,5.812s-0.273-0.156-0.55-0.287C8.019,5.403,7.825,5.285,7.695,5.173 C7.566,5.061,7.462,4.93,7.384,4.781C7.307,4.633,7.269,4.458,7.269,4.259c0-0.375,0.127-0.67,0.381-0.885 c0.254-0.214,0.606-0.322,1.055-0.322c0.221,0,0.431,0.026,0.631,0.078s0.41,0.126,0.629,0.221L9.674,4.05 C9.448,3.957,9.261,3.892,9.112,3.856C8.965,3.819,8.82,3.801,8.676,3.801c-0.17,0-0.301,0.04-0.392,0.119 C8.194,3.999,8.148,4.102,8.148,4.23c0,0.079,0.018,0.148,0.055,0.208C8.24,4.497,8.299,4.554,8.379,4.609 c0.081,0.055,0.271,0.154,0.571,0.298c0.396,0.189,0.668,0.379,0.815,0.57C9.911,5.667,9.985,5.901,9.985,6.177z"/></g></g></svg> 
