<?xml version="1.0" encoding="iso-8859-1"?><svg version="1.1" xmlns="http://www.w3.org/2000/svg" xmlns:xlink="http://www.w3.org/1999/xlink" x="0px" y="0px" viewBox="0 0 16 16" style="enable-background:new 0 0 16 16;" xml:space="preserve"><g id="bfx-db-source"><g><path style="fill:#555555;" d="M2.587,2.786v10.428c0,1.083,2.423,1.961,5.413,1.961V2.786L2.587,2.786z"/><path style="fill:#686969;" d="M7.926,15.174H8c2.989,0,5.413-0.877,5.413-1.96V2.786H7.926V15.174z"/><path style="fill:#FFFFFF;" d="M13.413,2.786c0,1.083-2.423,1.96-5.413,1.96s-5.413-0.878-5.413-1.96S5.011,0.826,8,0.826 S13.413,1.703,13.413,2.786"/><path style="fill:#E27730;" d="M12.306,2.673c0,0.715-1.928,1.293-4.306,1.293S3.694,3.388,3.694,2.673 c0-0.714,1.928-1.293,4.306-1.293S12.306,1.958,12.306,2.673"/><path style="fill:#FFB000;" d="M11.404,3.463c0.564-0.219,0.902-0.492,0.902-0.79c0-0.715-1.928-1.294-4.306-1.294 c-2.378,0-4.306,0.579-4.306,1.294c0,0.297,0.339,0.571,0.902,0.79C5.384,3.158,6.614,2.961,8,2.961 C9.386,2.961,10.616,3.158,11.404,3.463"/><path style="fill:#FFFFFF;" d="M11.498,11.241c-0.29,0.241-0.682,0.363-1.192,0.363H8.605V7.167h1.613 c0.508,0,0.897,0.093,1.165,0.285c0.251,0.18,0.376,0.432,0.376,0.754c0,0.257-0.092,0.475-0.278,0.667 c-0.159,0.159-0.35,0.269-0.586,0.333v0.01c0.316,0.039,0.574,0.159,0.767,0.362c0.18,0.192,0.273,0.428,0.273,0.7 C11.936,10.684,11.788,11.002,11.498,11.241 M7.353,10.98c-0.426,0.416-1,0.624-1.717,0.624h-1.57V7.167h1.57 c1.575,0,2.363,0.717,2.363,2.16C7.999,10.017,7.785,10.57,7.353,10.98"/><path style="fill:#555555;" d="M5.553,7.977H5.061v2.817h0.498c0.437,0,0.777-0.137,1.027-0.399 c0.24-0.262,0.362-0.612,0.362-1.055c0-0.416-0.122-0.743-0.356-0.986C6.346,8.103,6.001,7.977,5.553,7.977"/><path style="fill:#686969;" d="M10.525,8.804c0.12-0.105,0.18-0.241,0.18-0.411c0-0.329-0.24-0.493-0.728-0.493H9.601v1.051h0.443 C10.246,8.951,10.41,8.901,10.525,8.804"/><path style="fill:#686969;" d="M10.689,9.847c-0.132-0.098-0.311-0.153-0.542-0.153H9.6v1.17h0.541 c0.23,0,0.416-0.055,0.552-0.164c0.126-0.11,0.191-0.251,0.191-0.438C10.886,10.088,10.821,9.946,10.689,9.847"/></g></g></svg> 
