<?xml version="1.0" encoding="iso-8859-1"?><svg version="1.1" xmlns="http://www.w3.org/2000/svg" xmlns:xlink="http://www.w3.org/1999/xlink" x="0px" y="0px" viewBox="0 0 16 16" style="enable-background:new 0 0 16 16;" xml:space="preserve"><g id="bfx-biml-tmpl"><path style="fill:#00416B;" d="M3.348,10.906V1.584h0.375h1.745h0.227H7.31h0.342H9.52v0.239v0.205v1.146V4.82l2.841,0.016h0.29 v6.069h0.833V4.837V4.833V4.294l-3.416-3.468H9.52H7.652H7.31H5.695H5.468H3.723H3.229H3.063c-0.302,0-0.548,0.245-0.548,0.544 v9.537H3.348z"/><g><path style="fill:#555555;" d="M4.034,13.038H3.662v0.794h0.368c0.156,0,0.279-0.036,0.368-0.109 c0.089-0.072,0.134-0.172,0.134-0.298c0-0.12-0.044-0.215-0.132-0.283C4.314,13.072,4.192,13.038,4.034,13.038z"/><path style="fill:#555555;" d="M13.981,10.476H2.018c-0.25,0-0.453,0.201-0.453,0.449v3.799c0,0.248,0.203,0.449,0.453,0.449 h11.963c0.25,0,0.454-0.201,0.454-0.449v-3.799C14.435,10.678,14.232,10.476,13.981,10.476z M4.95,14.089 c-0.197,0.161-0.467,0.242-0.809,0.242H2.985V11.32H4.08c0.336,0,0.595,0.062,0.775,0.185s0.271,0.297,0.271,0.521 c0,0.162-0.055,0.304-0.164,0.426c-0.11,0.122-0.251,0.207-0.422,0.254v0.009c0.215,0.026,0.386,0.105,0.514,0.237 s0.192,0.292,0.192,0.481C5.246,13.708,5.148,13.927,4.95,14.089z M6.42,14.331H5.742V11.32H6.42V14.331z M10.538,14.331h-0.67 V12.53c0-0.194,0.008-0.41,0.025-0.645H9.876c-0.034,0.185-0.066,0.317-0.094,0.398l-0.706,2.048H8.521l-0.718-2.026 c-0.02-0.055-0.052-0.195-0.095-0.42H7.69c0.018,0.297,0.027,0.557,0.027,0.781v1.665H7.106V11.32h0.994l0.615,1.785 c0.049,0.143,0.085,0.286,0.107,0.431h0.013c0.037-0.167,0.077-0.312,0.119-0.435l0.615-1.781h0.969V14.331z M13.015,14.331 h-1.793V11.32H11.9v2.462h1.115V14.331z"/><path style="fill:#555555;" d="M4.291,12.432c0.081-0.068,0.121-0.161,0.121-0.28c0-0.222-0.165-0.332-0.495-0.332H3.662v0.714 h0.299C4.101,12.534,4.211,12.499,4.291,12.432z"/></g><g id="File_x2C__general"></g><g id="Message"></g><g id="Monitor"></g><g id="Monitor_running_apps"></g><g id="Mouse"></g><g id="Network_card"></g><g id="Not_allowed"></g><g id="Performance"></g><g id="Phone"></g><g id="Plug_and_play"></g><g id="Powershell_script_file"></g><g id="Protocol_stack"></g><g id="Queue_x2C__general"></g><g id="RMS_connector"></g><g id="Router"></g><g><polygon style="fill:#C40D3C;" points="4.423,8.001 6.452,9.318 6.452,8.57 5.028,7.752 5.028,7.752 6.452,6.862 6.452,6.114 4.423,7.502 "/><polygon style="fill:#C40D3C;" points="6.914,10.243 7.52,10.243 9.05,5.082 8.409,5.082 "/><polygon style="fill:#C40D3C;" points="9.548,6.826 11.007,7.716 11.007,7.716 9.548,8.535 9.548,9.282 11.577,7.965 11.577,7.467 9.548,6.079 "/></g><g id="slices"></g></g></svg> 
