<?xml version="1.0" encoding="iso-8859-1"?><svg version="1.1" xmlns="http://www.w3.org/2000/svg" xmlns:xlink="http://www.w3.org/1999/xlink" x="0px" y="0px" viewBox="0 0 16 16" style="enable-background:new 0 0 16 16;" xml:space="preserve"><g id="bfx-src-json"><g id="File_x2C__general_4_"></g><g id="Message_4_"></g><g id="Monitor_4_"></g><g id="Monitor_running_apps_4_"></g><g id="Mouse_4_"></g><g id="Network_card_4_"></g><g id="Not_allowed_4_"></g><g id="Performance_4_"></g><g id="Phone_4_"></g><g id="Plug_and_play_4_"></g><g id="Powershell_script_file_4_"></g><g id="Protocol_stack_4_"></g><g id="Queue_x2C__general_4_"></g><g id="RMS_connector_4_"></g><g id="Router_4_"></g><g id="slices_4_"></g><g><polygon style="fill:#FFFFFF;" points="10.301,4.227 10.301,1.372 3.036,1.372 3.036,14.755 5.915,14.755 10.301,14.755 13.18,14.755 13.18,4.227 "/><path style="fill:#555555;" d="M3.348,10.906V1.584h0.375h1.745h0.227H7.31h0.342H9.52v0.239v0.205v1.146V4.82l2.841,0.016h0.29 v6.069h0.833V4.837V4.833V4.294l-3.416-3.468H9.52H7.652H7.31H5.695H5.468H3.723H3.229H3.063c-0.302,0-0.548,0.245-0.548,0.544 v9.537H3.348z"/><g><g><defs><polygon id="SVGID_7_" points="5.04,9.756 10.96,9.756 10.96,4.662 5.04,4.662 5.04,9.756 "/></defs><defs><polygon id="SVGID_8_" points="5.04,4.662 10.96,4.662 10.96,9.756 5.04,9.756 5.04,4.662 "/></defs><clipPath id="SVGID_00000100380391712484962700000009253811174888267425_"><use xlink:href="#SVGID_7_" style="overflow:visible;"/></clipPath><clipPath id="SVGID_00000135687080189728468990000017455958191930023812_" style="clip-path:url(#SVGID_00000100380391712484962700000009253811174888267425_);"><use xlink:href="#SVGID_8_" style="overflow:visible;"/></clipPath><g style="clip-path:url(#SVGID_00000135687080189728468990000017455958191930023812_);"><defs><polygon id="SVGID_11_" points="5.04,9.756 10.96,9.756 10.96,4.662 5.04,4.662 5.04,9.756 "/></defs><clipPath id="SVGID_00000060032776833222865200000018088863665092774065_"><use xlink:href="#SVGID_11_" style="overflow:visible;"/></clipPath><path style="clip-path:url(#SVGID_00000060032776833222865200000018088863665092774065_);fill:#59B4D9;" d="M6.076,7.658 c-0.244,0-0.419-0.046-0.524-0.128C5.447,7.438,5.401,7.287,5.401,7.066V6.672c0-0.197-0.081-0.302-0.244-0.302V6.068 c0.163,0,0.244-0.104,0.244-0.313V5.383c0-0.221,0.047-0.383,0.151-0.476c0.105-0.093,0.279-0.128,0.524-0.128v0.302 c-0.175,0-0.268,0.093-0.268,0.29V5.72c0,0.267-0.081,0.43-0.256,0.499l0,0c0.163,0.07,0.256,0.232,0.256,0.499v0.337 c0,0.104,0.023,0.186,0.058,0.232c0.047,0.046,0.105,0.07,0.198,0.07v0.302H6.076L6.076,7.658L6.076,7.658z"/><path style="clip-path:url(#SVGID_00000060032776833222865200000018088863665092774065_);fill:#59B4D9;" d="M10.034,6.869 c0.244,0,0.419,0.046,0.524,0.128c0.105,0.093,0.151,0.244,0.151,0.464v0.395c0,0.197,0.081,0.302,0.244,0.302v0.302 c-0.163,0-0.244,0.104-0.244,0.313v0.36c0,0.221-0.047,0.383-0.151,0.476c-0.105,0.093-0.279,0.139-0.524,0.139V9.446 c0.175,0,0.268-0.093,0.268-0.29V8.808c0-0.267,0.081-0.43,0.256-0.499l0,0c-0.163-0.07-0.256-0.232-0.256-0.499V7.473 c0-0.104-0.023-0.186-0.058-0.232c-0.047-0.046-0.105-0.07-0.198-0.07L10.034,6.869L10.034,6.869L10.034,6.869L10.034,6.869z" /><path style="clip-path:url(#SVGID_00000060032776833222865200000018088863665092774065_);fill:#A0A1A2;" d="M8.136,7.496h-1.49 c-0.151,0-0.279-0.128-0.279-0.244c0-0.116,0.128-0.221,0.279-0.221h1.49c0.163,0,0.279,0.093,0.279,0.221 C8.416,7.38,8.299,7.496,8.136,7.496L8.136,7.496z"/><path style="clip-path:url(#SVGID_00000060032776833222865200000018088863665092774065_);fill:#A0A1A2;" d="M9.417,8.552H7.112 c-0.151,0-0.279-0.128-0.279-0.244c0-0.116,0.128-0.221,0.279-0.221h2.305c0.163,0,0.279,0.093,0.279,0.221 C9.696,8.436,9.58,8.552,9.417,8.552L9.417,8.552z"/><path style="clip-path:url(#SVGID_00000060032776833222865200000018088863665092774065_);fill:#A0A1A2;" d="M9.417,6.347h-2.77 c-0.151,0-0.279-0.128-0.279-0.244s0.128-0.221,0.279-0.221h2.77c0.163,0,0.279,0.093,0.279,0.221 C9.696,6.23,9.58,6.347,9.417,6.347L9.417,6.347z"/><path style="clip-path:url(#SVGID_00000060032776833222865200000018088863665092774065_);fill:#A0A1A2;" d="M8.951,5.244H6.646 C6.495,5.244,6.367,5.116,6.367,5s0.128-0.221,0.279-0.221h2.305C9.114,4.779,9.23,4.872,9.23,5 C9.23,5.128,9.114,5.244,8.951,5.244L8.951,5.244z"/><path style="clip-path:url(#SVGID_00000060032776833222865200000018088863665092774065_);fill:#A0A1A2;" d="M8.835,9.748H7.112 c-0.151,0-0.279-0.128-0.279-0.244c0-0.116,0.128-0.221,0.279-0.221h1.723c0.151,0,0.279,0.093,0.279,0.221 C9.114,9.62,8.998,9.748,8.835,9.748L8.835,9.748z"/></g></g></g><g><path style="fill:#E27730;" d="M8.544,11.886c-0.23,0-0.412,0.086-0.547,0.259c-0.135,0.172-0.203,0.4-0.203,0.684 c0,0.288,0.068,0.516,0.203,0.683s0.312,0.251,0.531,0.251c0.226,0,0.405-0.081,0.537-0.244c0.133-0.163,0.199-0.389,0.199-0.678 c0-0.301-0.064-0.536-0.193-0.704C8.943,11.97,8.767,11.886,8.544,11.886z"/><path style="fill:#E27730;" d="M13.981,10.476H2.018c-0.25,0-0.453,0.201-0.453,0.449v3.799c0,0.248,0.203,0.449,0.453,0.449 h11.963c0.25,0,0.454-0.201,0.454-0.449v-3.799C14.435,10.678,14.232,10.476,13.981,10.476z M4.53,13.125 c0,0.389-0.09,0.687-0.271,0.894c-0.18,0.207-0.442,0.31-0.784,0.31c-0.153,0-0.294-0.026-0.424-0.079v-0.614 c0.112,0.085,0.238,0.128,0.377,0.128c0.299,0,0.448-0.222,0.448-0.665v-1.728H4.53V13.125z M6.82,13.87 c-0.061,0.11-0.145,0.199-0.25,0.268c-0.105,0.068-0.228,0.117-0.368,0.147s-0.288,0.045-0.443,0.045 c-0.159,0-0.311-0.014-0.455-0.041c-0.144-0.027-0.269-0.068-0.374-0.122v-0.649c0.118,0.099,0.245,0.173,0.383,0.222 s0.277,0.074,0.418,0.074c0.082,0,0.154-0.007,0.216-0.022c0.062-0.015,0.113-0.035,0.154-0.062 c0.041-0.026,0.072-0.057,0.092-0.093c0.02-0.036,0.03-0.075,0.03-0.117c0-0.057-0.016-0.107-0.049-0.152 c-0.032-0.045-0.077-0.086-0.133-0.124s-0.123-0.074-0.2-0.109c-0.077-0.035-0.16-0.071-0.249-0.107 c-0.227-0.095-0.396-0.21-0.508-0.347c-0.112-0.136-0.167-0.301-0.167-0.495c0-0.151,0.03-0.281,0.091-0.39 s0.144-0.198,0.248-0.269c0.105-0.07,0.226-0.122,0.364-0.155c0.138-0.033,0.284-0.05,0.438-0.05 c0.151,0,0.286,0.009,0.402,0.027c0.117,0.018,0.225,0.046,0.323,0.084v0.606c-0.049-0.034-0.102-0.064-0.159-0.089 s-0.117-0.047-0.177-0.064c-0.061-0.017-0.121-0.029-0.181-0.038c-0.06-0.008-0.117-0.012-0.171-0.012 c-0.074,0-0.142,0.007-0.203,0.021c-0.061,0.014-0.112,0.034-0.154,0.06c-0.042,0.026-0.074,0.056-0.097,0.092 c-0.023,0.036-0.034,0.076-0.034,0.121c0,0.049,0.013,0.092,0.039,0.131c0.026,0.039,0.062,0.075,0.109,0.109 c0.047,0.034,0.105,0.068,0.172,0.101c0.068,0.033,0.144,0.067,0.229,0.102c0.116,0.049,0.221,0.1,0.313,0.155 s0.172,0.117,0.238,0.186c0.066,0.069,0.117,0.148,0.152,0.236c0.035,0.089,0.053,0.192,0.053,0.309 C6.913,13.623,6.882,13.76,6.82,13.87z M9.555,13.909c-0.266,0.28-0.612,0.42-1.039,0.42c-0.416,0-0.756-0.136-1.018-0.407 c-0.262-0.271-0.393-0.624-0.393-1.059c0-0.46,0.133-0.831,0.399-1.115s0.619-0.426,1.058-0.426c0.415,0,0.751,0.136,1.007,0.408 c0.256,0.272,0.384,0.63,0.384,1.075C9.954,13.261,9.821,13.63,9.555,13.909z M12.948,14.278h-0.661l-1.198-1.827 c-0.07-0.107-0.119-0.187-0.146-0.241h-0.008c0.011,0.103,0.016,0.26,0.016,0.47v1.598h-0.618v-2.908h0.706l1.154,1.77 c0.053,0.08,0.101,0.159,0.146,0.237h0.008c-0.011-0.068-0.016-0.201-0.016-0.399v-1.608h0.618V14.278z"/></g></g></g></svg> 
