<?xml version="1.0" encoding="iso-8859-1"?><svg version="1.1" xmlns="http://www.w3.org/2000/svg" xmlns:xlink="http://www.w3.org/1999/xlink" x="0px" y="0px" viewBox="0 0 16 16" style="enable-background:new 0 0 16 16;" xml:space="preserve"><g id="bfx-sql-script_copy"><g><path style="fill:#0078D4;" d="M10.068,0.825H9.52H7.652H7.31H5.695H5.468H3.723H3.229H3.063c-0.302,0-0.548,0.245-0.548,0.544 V11.78h0.833V1.584h0.375h1.745h0.227H7.31h0.342H9.52v0.239v0.205v1.146V4.82l2.841,0.016h0.29v6.944h0.833V4.837V4.833V4.294 L10.068,0.825L10.068,0.825L10.068,0.825z"/><polygon style="fill:#0078D4;" points="4.303,5.927 11.698,5.927 11.698,6.741 4.303,6.741 4.303,5.927 "/><polygon style="fill:#0078D4;" points="4.303,7.873 11.698,7.873 11.698,8.687 4.303,8.687 4.303,7.873 "/></g><g><path style="fill:#555555;" d="M7.955,11.662c-0.26,0-0.456,0.087-0.588,0.26c-0.132,0.174-0.198,0.43-0.198,0.772 c0,0.342,0.065,0.598,0.196,0.771c0.131,0.174,0.326,0.26,0.586,0.26c0.52,0,0.781-0.343,0.781-1.03 C8.731,12.005,8.473,11.662,7.955,11.662L7.955,11.662z"/><path style="fill:#555555;" d="M13.981,10.476H2.018c-0.25,0-0.453,0.201-0.453,0.449v3.8c0,0.248,0.203,0.449,0.453,0.449h11.963 c0.25,0,0.454-0.201,0.454-0.449v-3.8C14.435,10.678,14.232,10.476,13.981,10.476L13.981,10.476z M11.956,13.689v0.535h-1.902 V11.17h0.653v2.519H11.956L11.956,13.689L11.956,13.689z M9.415,14.192l-0.237,0.602l-1.575-0.585 c-0.297-0.054-0.557-0.156-0.74-0.351c-0.253-0.271-0.379-0.661-0.379-1.169c0-0.509,0.127-0.897,0.38-1.165 c0.254-0.268,0.617-0.403,1.09-0.403c0.473,0,0.835,0.135,1.085,0.405c0.251,0.27,0.375,0.659,0.375,1.166 c0,0.359-0.063,0.66-0.192,0.904c-0.105,0.2-0.263,0.345-0.45,0.457L9.415,14.192L9.415,14.192L9.415,14.192z M5.373,13.247 c-0.034-0.047-0.083-0.092-0.148-0.135c-0.065-0.043-0.198-0.112-0.399-0.206c-0.189-0.088-0.329-0.173-0.423-0.253 c-0.093-0.081-0.169-0.175-0.225-0.282c-0.056-0.107-0.084-0.233-0.084-0.376c0-0.27,0.092-0.483,0.277-0.637 c0.185-0.154,0.44-0.232,0.766-0.232c0.16,0,0.313,0.019,0.458,0.057c0.145,0.037,0.297,0.091,0.456,0.158l-0.211,0.504 c-0.164-0.067-0.3-0.114-0.408-0.14c-0.107-0.027-0.213-0.039-0.316-0.039c-0.123,0-0.218,0.029-0.284,0.085 c-0.066,0.057-0.099,0.132-0.099,0.223c0,0.057,0.013,0.107,0.04,0.15c0.027,0.042,0.069,0.083,0.128,0.123 c0.059,0.04,0.196,0.112,0.414,0.215c0.288,0.136,0.485,0.273,0.592,0.41c0.107,0.137,0.16,0.305,0.16,0.504 c0,0.276-0.1,0.493-0.3,0.653c-0.2,0.158-0.478,0.239-0.835,0.239c-0.328,0-0.618-0.061-0.871-0.184v-0.602 c0.208,0.093,0.384,0.156,0.527,0.195c0.143,0.038,0.275,0.057,0.394,0.057c0.143,0,0.253-0.028,0.33-0.081 c0.077-0.054,0.114-0.135,0.114-0.242C5.424,13.348,5.407,13.294,5.373,13.247L5.373,13.247z"/></g></g></svg> 
