<?xml version="1.0" encoding="iso-8859-1"?><svg version="1.1" xmlns="http://www.w3.org/2000/svg" xmlns:xlink="http://www.w3.org/1999/xlink" x="0px" y="0px" viewBox="0 0 16 16" style="enable-background:new 0 0 16 16;" xml:space="preserve"><g id="bfx-dacpac"><g id="File_x2C__general_00000173879594802062536730000009152704966033397684_"></g><g id="Message_00000094596386896089823300000018050146434345783740_"></g><g id="Monitor_00000067214861683043021250000013698869246601090231_"></g><g id="Monitor_running_apps_00000039123264122694384690000000218249766305306244_"></g><g id="Mouse_00000153690045685100187110000005528886280301690804_"></g><g id="Network_card_00000172424885639836575250000001480129239556197281_"></g><g id="Not_allowed_00000183209579921987190630000011631756911343777212_"></g><g id="Performance_00000054971213026123131420000011290942711997320851_"></g><g id="Phone_00000150800293204800276410000008402790859309401218_"></g><g id="Plug_and_play_00000063610123180854781750000003838449293949202569_"></g><g id="Powershell_script_file_00000094613638171820158750000017159310808546681985_"></g><g id="Protocol_stack_00000047746478488195419120000015798261547865570691_"></g><g id="Queue_x2C__general_00000088106289962848075440000017238566508971131310_"></g><g id="RMS_connector_00000115514201369671606020000006628008240774527891_"></g><g id="Router_00000070093115883671821760000013690245453523269553_"></g><g id="slices_00000072280896456252525220000003640744728599946654_"></g><g><polygon style="fill:#FFFFFF;" points="10.301,4.227 10.301,1.372 3.036,1.372 3.036,14.755 5.915,14.755 10.301,14.755 13.18,14.755 13.18,4.227 "/><path style="fill:#555555;" d="M3.348,10.906V1.584h0.375h1.745h0.227H7.31h0.342H9.52v0.239v0.205v1.146V4.82l2.841,0.016h0.29 v6.069h0.833V4.837V4.833V4.294l-3.416-3.468H9.52H7.652H7.31H5.695H5.468H3.723H3.229H3.063c-0.302,0-0.548,0.245-0.548,0.544 v9.537H3.348z"/><g><path style="fill:#E27730;" d="M8.544,11.886c-0.23,0-0.412,0.086-0.547,0.259c-0.135,0.172-0.203,0.4-0.203,0.684 c0,0.288,0.068,0.516,0.203,0.683s0.312,0.251,0.531,0.251c0.226,0,0.405-0.081,0.537-0.244c0.133-0.163,0.199-0.389,0.199-0.678 c0-0.301-0.064-0.536-0.193-0.704C8.943,11.97,8.767,11.886,8.544,11.886z"/><path style="fill:#E27730;" d="M13.981,10.476H2.018c-0.25,0-0.453,0.201-0.453,0.449v3.799c0,0.248,0.203,0.449,0.453,0.449 h11.963c0.25,0,0.454-0.201,0.454-0.449v-3.799C14.435,10.678,14.232,10.476,13.981,10.476z M4.53,13.125 c0,0.389-0.09,0.687-0.271,0.894c-0.18,0.207-0.442,0.31-0.784,0.31c-0.153,0-0.294-0.026-0.424-0.079v-0.614 c0.112,0.085,0.238,0.128,0.377,0.128c0.299,0,0.448-0.222,0.448-0.665v-1.728H4.53V13.125z M6.82,13.87 c-0.061,0.11-0.145,0.199-0.25,0.268c-0.105,0.068-0.228,0.117-0.368,0.147s-0.288,0.045-0.443,0.045 c-0.159,0-0.311-0.014-0.455-0.041c-0.144-0.027-0.269-0.068-0.374-0.122v-0.649c0.118,0.099,0.245,0.173,0.383,0.222 s0.277,0.074,0.418,0.074c0.082,0,0.154-0.007,0.216-0.022c0.062-0.015,0.113-0.035,0.154-0.062 c0.041-0.026,0.072-0.057,0.092-0.093c0.02-0.036,0.03-0.075,0.03-0.117c0-0.057-0.016-0.107-0.049-0.152 c-0.032-0.045-0.077-0.086-0.133-0.124s-0.123-0.074-0.2-0.109c-0.077-0.035-0.16-0.071-0.249-0.107 c-0.227-0.095-0.396-0.21-0.508-0.347c-0.112-0.136-0.167-0.301-0.167-0.495c0-0.151,0.03-0.281,0.091-0.39 s0.144-0.198,0.248-0.269c0.105-0.07,0.226-0.122,0.364-0.155c0.138-0.033,0.284-0.05,0.438-0.05 c0.151,0,0.286,0.009,0.402,0.027c0.117,0.018,0.225,0.046,0.323,0.084v0.606c-0.049-0.034-0.102-0.064-0.159-0.089 s-0.117-0.047-0.177-0.064c-0.061-0.017-0.121-0.029-0.181-0.038c-0.06-0.008-0.117-0.012-0.171-0.012 c-0.074,0-0.142,0.007-0.203,0.021c-0.061,0.014-0.112,0.034-0.154,0.06c-0.042,0.026-0.074,0.056-0.097,0.092 c-0.023,0.036-0.034,0.076-0.034,0.121c0,0.049,0.013,0.092,0.039,0.131c0.026,0.039,0.062,0.075,0.109,0.109 c0.047,0.034,0.105,0.068,0.172,0.101c0.068,0.033,0.144,0.067,0.229,0.102c0.116,0.049,0.221,0.1,0.313,0.155 s0.172,0.117,0.238,0.186c0.066,0.069,0.117,0.148,0.152,0.236c0.035,0.089,0.053,0.192,0.053,0.309 C6.913,13.623,6.882,13.76,6.82,13.87z M9.555,13.909c-0.266,0.28-0.612,0.42-1.039,0.42c-0.416,0-0.756-0.136-1.018-0.407 c-0.262-0.271-0.393-0.624-0.393-1.059c0-0.46,0.133-0.831,0.399-1.115s0.619-0.426,1.058-0.426c0.415,0,0.751,0.136,1.007,0.408 c0.256,0.272,0.384,0.63,0.384,1.075C9.954,13.261,9.821,13.63,9.555,13.909z M12.948,14.278h-0.661l-1.198-1.827 c-0.07-0.107-0.119-0.187-0.146-0.241h-0.008c0.011,0.103,0.016,0.26,0.016,0.47v1.598h-0.618v-2.908h0.706l1.154,1.77 c0.053,0.08,0.101,0.159,0.146,0.237h0.008c-0.011-0.068-0.016-0.201-0.016-0.399v-1.608h0.618V14.278z"/></g><rect x="2.117" y="11.212" style="fill:#E27730;" width="11.887" height="3.504"/><g><path style="fill:#FFFFFF;" d="M2.491,11.759h0.755c0.171,0,0.301,0.014,0.39,0.043c0.12,0.039,0.223,0.107,0.309,0.206 c0.086,0.099,0.151,0.22,0.196,0.362c0.044,0.143,0.067,0.32,0.067,0.529c0,0.185-0.021,0.343-0.063,0.477 c-0.051,0.163-0.124,0.296-0.219,0.396c-0.072,0.077-0.169,0.135-0.291,0.178c-0.091,0.032-0.213,0.048-0.366,0.048H2.491V11.759 z M2.904,12.138v1.484h0.309c0.115,0,0.199-0.007,0.25-0.022c0.067-0.018,0.123-0.049,0.167-0.093 c0.044-0.044,0.081-0.116,0.108-0.216c0.028-0.101,0.042-0.238,0.042-0.411s-0.014-0.306-0.042-0.398S3.67,12.317,3.62,12.265 c-0.05-0.052-0.114-0.088-0.191-0.106c-0.058-0.014-0.171-0.022-0.339-0.022H2.904z"/><path style="fill:#FFFFFF;" d="M6.259,13.999H5.809L5.631,13.49H4.813l-0.169,0.509H4.205l0.797-2.239h0.436L6.259,13.999z M5.498,13.113l-0.282-0.831l-0.277,0.831H5.498z"/><path style="fill:#FFFFFF;" d="M7.644,13.176l0.401,0.138c-0.062,0.245-0.164,0.426-0.307,0.545 c-0.143,0.118-0.324,0.177-0.543,0.177c-0.272,0-0.495-0.102-0.67-0.305c-0.175-0.203-0.262-0.481-0.262-0.833 c0-0.373,0.088-0.663,0.264-0.869c0.176-0.206,0.407-0.31,0.694-0.31c0.25,0,0.454,0.082,0.61,0.243 c0.093,0.097,0.163,0.234,0.21,0.413L7.63,12.483c-0.024-0.115-0.075-0.207-0.152-0.275c-0.077-0.068-0.17-0.101-0.28-0.101 c-0.152,0-0.275,0.06-0.369,0.178c-0.095,0.119-0.141,0.313-0.141,0.579c0,0.284,0.046,0.485,0.139,0.605s0.214,0.18,0.363,0.18 c0.11,0,0.205-0.038,0.284-0.114S7.61,13.339,7.644,13.176z"/><path style="fill:#FFFFFF;" d="M8.256,13.999v-2.239H8.92c0.251,0,0.414,0.011,0.492,0.034c0.117,0.033,0.215,0.106,0.295,0.219 c0.078,0.112,0.117,0.258,0.117,0.436c0,0.137-0.022,0.253-0.068,0.346c-0.046,0.095-0.104,0.168-0.173,0.221 c-0.072,0.054-0.143,0.09-0.215,0.106c-0.1,0.021-0.241,0.032-0.429,0.032H8.669v0.845H8.256z M8.669,12.138v0.636h0.226 c0.163,0,0.271-0.012,0.326-0.035c0.056-0.024,0.098-0.061,0.129-0.11c0.03-0.05,0.046-0.107,0.046-0.174 c0-0.082-0.022-0.148-0.066-0.201c-0.044-0.054-0.098-0.087-0.165-0.1c-0.05-0.01-0.149-0.016-0.298-0.016H8.669z"/><path style="fill:#FFFFFF;" d="M11.653,13.999h-0.45l-0.178-0.509h-0.818l-0.169,0.509H9.599l0.797-2.239h0.437L11.653,13.999z M10.892,13.113l-0.283-0.831l-0.276,0.831H10.892z"/><path style="fill:#FFFFFF;" d="M13.038,13.176l0.401,0.138c-0.062,0.245-0.163,0.426-0.307,0.545 c-0.142,0.118-0.324,0.177-0.543,0.177c-0.272,0-0.496-0.102-0.67-0.305c-0.175-0.203-0.263-0.481-0.263-0.833 c0-0.373,0.088-0.663,0.264-0.869c0.176-0.206,0.407-0.31,0.694-0.31c0.251,0,0.454,0.082,0.61,0.243 c0.093,0.097,0.163,0.234,0.209,0.413l-0.409,0.106c-0.024-0.115-0.075-0.207-0.151-0.275s-0.17-0.101-0.28-0.101 c-0.151,0-0.275,0.06-0.369,0.178c-0.095,0.119-0.141,0.313-0.141,0.579c0,0.284,0.046,0.485,0.139,0.605 c0.093,0.12,0.214,0.18,0.363,0.18c0.109,0,0.204-0.038,0.283-0.114C12.948,13.459,13.004,13.339,13.038,13.176z"/></g><g><g><rect x="6.547" y="7.509" transform="matrix(0.892 -0.452 0.452 0.892 -2.6112 4.3602)" style="fill:#555555;" width="2.545" height="0.273"/><g><rect x="8.181" y="4.69" transform="matrix(0.5597 -0.8287 0.8287 0.5597 -1.2787 9.5178)" style="fill:#555555;" width="0.273" height="2.545"/></g><path style="fill:#555555;" d="M8.8,5.86v1.998h1.973V5.86H8.8z M9.073,7.585v-0.72H10.5v0.72H9.073z"/><g><g><path style="fill:#555555;" d="M5.443,4.194v1.998h1.973V4.194H5.443z M5.716,5.919v-0.73h1.427v0.73H5.716z"/></g></g><g><g><path style="fill:#555555;" d="M5.443,7.526v1.998h1.973V7.526H5.443z M5.716,9.251V8.467h1.427v0.784H5.716z"/></g></g></g></g></g></g></svg> 
