<?xml version="1.0" encoding="iso-8859-1"?><svg version="1.1" xmlns="http://www.w3.org/2000/svg" xmlns:xlink="http://www.w3.org/1999/xlink" x="0px" y="0px" viewBox="0 0 16 16" style="enable-background:new 0 0 16 16;" xml:space="preserve"><g id="bfx-delta-lake"><path style="fill:#0088B6;" d="M15.124,12.822l-0.519-0.899l-2.537-4.394L8.382,1.146c-0.064-0.11-0.176-0.162-0.287-0.159 c-0.1-0.003-0.201,0.043-0.259,0.142L7.829,1.142C7.828,1.143,7.826,1.144,7.824,1.146l-0.41,0.71L3.252,9.034L2.11,11.002 c-0.093,0.161,0.072,0.348,0.243,0.277c0.584-0.241,1.096-0.43,1.584-0.55c0.271-0.066,0.539-0.104,0.81-0.127 c0.537-0.046,1.091-0.014,1.741,0.127c0.756,0.164,1.638,0.462,2.777,0.927c-0.209-0.334-0.444-0.639-0.694-0.927 c-0.023-0.027-0.049-0.05-0.072-0.076C7.793,9.867,6.934,9.285,5.932,9.019c-0.078-0.021-0.16-0.03-0.239-0.047l2.143-3.695 c0.111-0.192,0.389-0.192,0.5,0L8.75,5.99l0.498,0.859l3.264,5.629c0.076,0.131,0.03,0.28-0.073,0.365 c-0.009,0.009-0.026,0.017-0.037,0.026c-0.01,0.012-0.019,0.027-0.029,0.038c-0.016,0.007-0.032,0.009-0.049,0.016 c-2.467,0.963-4.428-1.66-6.853-1.492c-0.457-0.006-0.888,0.056-1.298,0.165c-1.002,0.266-1.861,0.848-2.566,1.634 c-0.024,0.026-0.049,0.05-0.072,0.076c-0.25,0.287-0.485,0.593-0.694,0.927c1.139-0.465,2.02-0.762,2.777-0.927 c0.978-0.213,1.744-0.198,2.551,0c0.85,0.209,1.751,0.615,3.014,1.161c1.058,0.457,2.232,0.668,3.368,0.476 c1.098-0.185,2.152-0.815,2.566-1.79c0.004-0.01,0.01-0.019,0.014-0.029c0.011-0.023,0.015-0.048,0.021-0.074 C15.167,12.976,15.167,12.897,15.124,12.822z"/></g></svg> 
