<?xml version="1.0" encoding="iso-8859-1"?><svg version="1.1" xmlns="http://www.w3.org/2000/svg" xmlns:xlink="http://www.w3.org/1999/xlink" x="0px" y="0px" viewBox="0 0 16 16" style="enable-background:new 0 0 16 16;" xml:space="preserve"><g id="bfx-file-parq"><path style="fill:#5EA0EF;" d="M10.068,0.825H9.52H7.652H7.31H5.695H5.468H3.723H3.229H3.063c-0.302,0-0.548,0.245-0.548,0.544 V11.78h0.833V1.584h0.375h1.745h0.227H7.31h0.342H9.52v0.239v0.205v1.146V4.82l2.841,0.016h0.29v6.944h0.833V4.837V4.833V4.294 L10.068,0.825L10.068,0.825L10.068,0.825z"/><g id="E-Icons_x2F_Dataset-Icons_x2F_i-20x20-Parquet"><path id="Combined-Shape" style="fill:#4FABF3;" d="M7.079,6.264l1.426-0.839l0.391,0.209l-1.447,0.92L7.079,6.264z M6.869,6.388 l0.394,0.285l-2.044,1.3L4.841,7.581L6.869,6.388z M8.467,6.11L9.06,5.722l0.441,0.235L8.924,6.363L8.467,6.11z M8.311,6.212 l0.422,0.285l-2.94,2.069L5.377,8.136L8.311,6.212z M8.863,7.564l1.458-1.169l0.534,0.285L9.425,7.956L8.863,7.564z M8.701,7.694 l0.541,0.425l-2.086,1.86l-0.57-0.59L8.701,7.694z M7.211,7.825l2.475-1.77l0.432,0.231L7.648,8.211L7.211,7.825z M7.011,7.968 l0.439,0.397L6.393,9.188l-0.445-0.46L7.011,7.968z M11.082,6.801l0.547,0.292l-3.637,3.751L7.36,10.189L11.082,6.801z M8.322,5.328L4.676,7.411L4.37,7.094L8,5.156L8.322,5.328z"/></g><g><path style="fill:#555555;" d="M8.711,11.668c-0.028-0.007-0.061-0.013-0.097-0.018c-0.037-0.004-0.087-0.006-0.151-0.006H8.21 v0.786h0.287c0.08,0,0.15-0.01,0.21-0.029c0.06-0.02,0.109-0.046,0.15-0.081c0.039-0.035,0.069-0.077,0.09-0.125 c0.02-0.049,0.029-0.104,0.029-0.163c0-0.092-0.021-0.169-0.062-0.231C8.874,11.738,8.805,11.693,8.711,11.668z"/><polygon style="fill:#555555;" points="6.205,11.743 5.812,12.921 6.599,12.921 6.207,11.743 "/><path style="fill:#555555;" d="M4.522,11.717c-0.05-0.029-0.102-0.049-0.157-0.057s-0.112-0.012-0.17-0.012h-0.24v0.94h0.253 c0.09,0,0.165-0.012,0.226-0.036c0.061-0.024,0.11-0.059,0.149-0.102c0.039-0.044,0.068-0.096,0.088-0.156 c0.02-0.062,0.03-0.127,0.03-0.198c0-0.098-0.017-0.178-0.051-0.24S4.572,11.747,4.522,11.717z"/><path style="fill:#555555;" d="M13.981,10.476H2.018c-0.25,0-0.453,0.201-0.453,0.449v3.799c0,0.248,0.203,0.449,0.453,0.449 h11.963c0.25,0,0.454-0.201,0.454-0.449v-3.799C14.435,10.678,14.232,10.476,13.981,10.476z M4.186,13.023H3.955v0.885 c0,0.015-0.004,0.027-0.014,0.039c-0.01,0.011-0.025,0.021-0.046,0.027s-0.05,0.013-0.085,0.018 c-0.036,0.004-0.082,0.006-0.137,0.006c-0.054,0-0.1-0.002-0.136-0.006c-0.037-0.005-0.065-0.011-0.087-0.018 s-0.037-0.017-0.045-0.027c-0.009-0.012-0.013-0.024-0.013-0.039v-2.493c0-0.066,0.018-0.117,0.053-0.15 c0.035-0.034,0.081-0.051,0.138-0.051h0.653c0.065,0,0.128,0.003,0.187,0.008c0.06,0.005,0.13,0.016,0.213,0.032 c0.083,0.016,0.167,0.047,0.251,0.091s0.158,0.101,0.217,0.168c0.06,0.067,0.106,0.147,0.137,0.237 c0.031,0.091,0.047,0.193,0.047,0.306c0,0.155-0.024,0.293-0.073,0.413c-0.049,0.12-0.12,0.222-0.212,0.304 s-0.207,0.145-0.341,0.187C4.527,13.002,4.369,13.023,4.186,13.023z M7.494,13.965c-0.016,0.016-0.044,0.024-0.083,0.028 c-0.04,0.003-0.095,0.005-0.165,0.005c-0.073,0-0.13-0.001-0.17-0.003s-0.072-0.007-0.093-0.013 c-0.021-0.007-0.036-0.016-0.045-0.027c-0.008-0.011-0.016-0.026-0.021-0.045l-0.186-0.557H5.688l-0.176,0.542 c-0.005,0.02-0.013,0.037-0.022,0.05c-0.009,0.014-0.024,0.024-0.045,0.032c-0.021,0.008-0.05,0.014-0.088,0.017 c-0.038,0.003-0.087,0.004-0.149,0.004c-0.065,0-0.117-0.002-0.154-0.006c-0.037-0.005-0.063-0.015-0.077-0.031 c-0.015-0.017-0.02-0.04-0.015-0.069c0.004-0.03,0.015-0.07,0.032-0.12l0.854-2.459c0.009-0.024,0.019-0.044,0.03-0.059 c0.012-0.016,0.03-0.026,0.055-0.034s0.06-0.014,0.104-0.016s0.103-0.003,0.176-0.003c0.084,0,0.151,0.001,0.201,0.003 s0.089,0.008,0.117,0.016s0.048,0.02,0.06,0.035s0.022,0.037,0.031,0.064l0.857,2.456c0.017,0.052,0.028,0.092,0.032,0.122 C7.515,13.928,7.51,13.95,7.494,13.965z M9.695,13.952c-0.006,0.011-0.02,0.02-0.041,0.026c-0.021,0.008-0.053,0.013-0.094,0.016 c-0.042,0.003-0.098,0.004-0.17,0.004c-0.06,0-0.107-0.001-0.144-0.004c-0.035-0.003-0.063-0.009-0.084-0.017 c-0.021-0.008-0.035-0.018-0.044-0.029c-0.009-0.013-0.016-0.027-0.021-0.044l-0.249-0.619c-0.029-0.07-0.059-0.132-0.087-0.187 c-0.028-0.055-0.06-0.1-0.095-0.136C8.63,12.926,8.59,12.898,8.544,12.88c-0.045-0.019-0.098-0.027-0.158-0.027H8.21v1.056 c0,0.015-0.004,0.027-0.014,0.039c-0.01,0.011-0.025,0.021-0.046,0.027s-0.05,0.013-0.085,0.018 c-0.036,0.004-0.082,0.006-0.137,0.006c-0.054,0-0.1-0.002-0.136-0.006c-0.037-0.005-0.065-0.011-0.087-0.018 s-0.037-0.017-0.045-0.027c-0.009-0.012-0.013-0.024-0.013-0.039v-2.517c0-0.062,0.016-0.108,0.048-0.136 c0.032-0.028,0.072-0.042,0.119-0.042h0.717c0.073,0,0.133,0.002,0.18,0.004c0.047,0.003,0.09,0.007,0.129,0.011 c0.111,0.017,0.211,0.043,0.301,0.082c0.09,0.038,0.165,0.089,0.227,0.15c0.062,0.062,0.11,0.136,0.143,0.221 c0.033,0.085,0.05,0.183,0.05,0.293c0,0.093-0.012,0.177-0.035,0.254C9.5,12.305,9.466,12.373,9.42,12.433 s-0.102,0.112-0.169,0.156s-0.144,0.08-0.229,0.107c0.041,0.02,0.08,0.044,0.117,0.072c0.036,0.029,0.07,0.063,0.103,0.104 c0.032,0.04,0.062,0.087,0.091,0.139c0.028,0.053,0.057,0.111,0.084,0.177l0.233,0.546c0.021,0.055,0.035,0.095,0.043,0.119 c0.007,0.025,0.011,0.045,0.011,0.059C9.704,13.929,9.701,13.941,9.695,13.952z M12.601,14.373 c-0.005,0.031-0.012,0.056-0.021,0.073c-0.009,0.017-0.018,0.027-0.027,0.033c-0.011,0.005-0.021,0.007-0.032,0.007 c-0.048,0-0.109-0.013-0.186-0.038c-0.076-0.026-0.159-0.062-0.247-0.11C12,14.29,11.91,14.231,11.817,14.162 c-0.092-0.069-0.177-0.148-0.256-0.239c-0.065,0.03-0.146,0.057-0.238,0.078c-0.094,0.022-0.198,0.033-0.312,0.033 c-0.216,0-0.404-0.027-0.564-0.082c-0.161-0.055-0.295-0.141-0.402-0.256c-0.106-0.116-0.187-0.263-0.24-0.442 c-0.054-0.179-0.081-0.393-0.081-0.64c0-0.224,0.029-0.426,0.086-0.604c0.058-0.18,0.143-0.331,0.255-0.456 c0.113-0.125,0.253-0.222,0.419-0.288c0.166-0.067,0.359-0.101,0.579-0.101c0.207,0,0.391,0.027,0.55,0.083 s0.293,0.142,0.402,0.256c0.109,0.115,0.192,0.261,0.248,0.437c0.057,0.175,0.085,0.383,0.085,0.623 c0,0.124-0.008,0.24-0.024,0.35s-0.041,0.211-0.072,0.304s-0.069,0.178-0.115,0.255s-0.098,0.145-0.156,0.203 c0.088,0.077,0.167,0.136,0.235,0.176s0.126,0.069,0.173,0.09c0.046,0.02,0.083,0.034,0.111,0.044 c0.027,0.009,0.049,0.021,0.065,0.036c0.016,0.016,0.026,0.041,0.034,0.077c0.007,0.036,0.011,0.087,0.011,0.151 C12.609,14.3,12.606,14.342,12.601,14.373z"/><path style="fill:#555555;" d="M11.605,11.893c-0.055-0.085-0.128-0.15-0.22-0.196c-0.091-0.047-0.205-0.07-0.343-0.07 s-0.254,0.026-0.347,0.077c-0.093,0.052-0.168,0.121-0.225,0.208c-0.058,0.087-0.098,0.188-0.121,0.306 c-0.023,0.116-0.035,0.238-0.035,0.367c0,0.152,0.011,0.29,0.034,0.411c0.022,0.121,0.062,0.225,0.115,0.311 c0.055,0.086,0.127,0.15,0.219,0.195c0.092,0.046,0.206,0.068,0.345,0.068s0.254-0.026,0.347-0.077 c0.093-0.052,0.168-0.122,0.226-0.21c0.057-0.089,0.097-0.192,0.121-0.311c0.023-0.119,0.035-0.245,0.035-0.38 c0-0.144-0.012-0.275-0.034-0.394C11.699,12.081,11.66,11.978,11.605,11.893z"/></g></g></svg> 
