<?xml version="1.0" encoding="iso-8859-1"?><svg version="1.1" xmlns="http://www.w3.org/2000/svg" xmlns:xlink="http://www.w3.org/1999/xlink" x="0px" y="0px" viewBox="0 0 16 16" style="enable-background:new 0 0 16 16;" xml:space="preserve"><g id="bfx-catalog"><path style="fill:#00416B;" d="M8,2.787c0,0-0.072,0-0.074,0c-0.144,0-5.337,0-5.337,0v10.425c0,1.073,2.384,1.943,5.337,1.957 v0.002h0.066c0.003,0,0.006,0,0.008,0v0c2.988,0,5.411-0.877,5.411-1.96V2.787H8z"/><path style="fill:#FFFFFF;" d="M13.411,2.787c0,1.082-2.423,1.96-5.411,1.96S2.589,3.87,2.589,2.787S5.012,0.828,8,0.828 S13.411,1.705,13.411,2.787"/><path style="fill:#00416B;" d="M12.305,2.674c0,0.715-1.927,1.293-4.305,1.293S3.695,3.389,3.695,2.674 C3.695,1.96,5.623,1.381,8,1.381S12.305,1.96,12.305,2.674"/><path style="fill:#C40D3C;" d="M11.403,3.465c0.564-0.219,0.902-0.492,0.902-0.79c0-0.715-1.927-1.293-4.305-1.293 c-2.377,0-4.305,0.579-4.305,1.293c0,0.297,0.339,0.571,0.902,0.79C5.384,3.159,6.614,2.962,8,2.962 C9.386,2.962,10.615,3.159,11.403,3.465"/><path style="fill:#C40D3C;" d="M8.471,10.83H8.353v0.742h0.118c0.747,0,1.354-0.617,1.354-1.376c0-0.758-0.608-1.375-1.354-1.375 H8.353v0.742h0.118c0.344,0,0.623,0.284,0.623,0.633C9.094,10.546,8.814,10.83,8.471,10.83z"/><path style="fill:#C40D3C;" d="M9.465,12.515l0.575,0.351l1.062-1.078l-0.345-0.584c0.012-0.028,0.023-0.055,0.034-0.083 l0.65-0.166V9.428l-0.65-0.165c-0.011-0.028-0.022-0.056-0.034-0.084l0.344-0.584l-1.062-1.079l-0.575,0.35 C9.437,7.855,9.41,7.843,9.382,7.832L9.22,7.172H8.354v0.715H8.67l0.124,0.504l0.192,0.058C9.1,8.483,9.211,8.53,9.317,8.588 l0.176,0.095L9.93,8.417l0.286,0.29L9.953,9.152l0.095,0.179c0.056,0.105,0.101,0.218,0.136,0.335l0.058,0.194l0.496,0.126v0.409 l-0.496,0.126l-0.058,0.195c-0.035,0.117-0.08,0.23-0.136,0.335l-0.095,0.179l0.263,0.445l-0.286,0.29l-0.438-0.268l-0.176,0.097 c-0.103,0.056-0.214,0.103-0.33,0.138l-0.192,0.059L8.67,12.495H8.354v0.711c0.3-0.007,0.593-0.022,0.878-0.047l0.15-0.61 C9.41,12.539,9.437,12.527,9.465,12.515z"/><path style="fill:none;" d="M4.56,11.189c-0.473,0.207-0.75,0.458-0.75,0.728c0,0.27,0.277,0.521,0.75,0.728v-0.091V11.189z"/><path style="fill:none;" d="M6.491,12.218v-1.497c-0.158,0.019-0.308,0.043-0.456,0.068v1.428v0.337v0.491 c0.148,0.025,0.298,0.049,0.456,0.068v-0.559V12.218z"/><path style="fill:#FFFFFF;" d="M4.56,8.294v2.894v1.365v0.091c0.379,0.166,0.887,0.302,1.475,0.4v-0.491v-0.337v-1.428V8.294H4.56z "/><path style="fill:#FFFFFF;" d="M6.491,6.329v4.391v1.497v0.337v0.559c0.105,0.013,0.219,0.02,0.328,0.031 c0.295,0.026,0.595,0.047,0.908,0.054c0.08,0.002,0.158,0.006,0.239,0.007v-0.323v-0.328v-1.926V6.329H6.491z"/></g></svg> 
