<?xml version="1.0" encoding="iso-8859-1"?>
<!-- Generator: Adobe Illustrator 27.0.1, SVG Export Plug-In . SVG Version: 6.00 Build 0)  -->
<svg version="1.1" id="Layer_5" xmlns="http://www.w3.org/2000/svg" xmlns:xlink="http://www.w3.org/1999/xlink" x="0px" y="0px"
	 viewBox="0 0 256 256" style="enable-background:new 0 0 256 256;" xml:space="preserve">
<g>
	<path style="fill:#00416B;" d="M55.533,153.812l69.86-69.86l20.493-20.493l7.468,7.468c1.429,1.429,3.873,0.417,3.873-1.604V28.214
		c0-2.286-1.853-4.139-4.139-4.139h-41.109c-2.021,0-3.033,2.444-1.604,3.873l7.118,7.118L57.497,95.061v0l-1.964,1.964
		C39.852,112.707,39.852,138.131,55.533,153.812z"/>
	<path style="fill:#C40D3C;" d="M191.385,93.105c-15.681-15.681-41.106-15.681-56.787,0l-69.857,69.857
		c15.681,15.681,41.105,15.681,56.786,0L191.385,93.105L191.385,93.105z"/>
	<path style="fill:#00416B;" d="M200.467,102.188l-69.86,69.86l-20.493,20.493l-7.468-7.468c-1.429-1.429-3.873-0.417-3.873,1.604
		v41.109c0,2.286,1.853,4.139,4.139,4.139h41.109c2.021,0,3.033-2.444,1.604-3.873l-7.118-7.118l59.995-59.995v0l1.964-1.964
		C216.148,143.293,216.148,117.869,200.467,102.188z"/>
</g>
</svg>
