<?xml version="1.0" encoding="iso-8859-1"?>
<!-- Generator: Adobe Illustrator 27.0.1, SVG Export Plug-In . SVG Version: 6.00 Build 0)  -->
<svg version="1.1" id="Layer_1" xmlns="http://www.w3.org/2000/svg" xmlns:xlink="http://www.w3.org/1999/xlink" x="0px" y="0px"
	 viewBox="0 0 800 200" style="enable-background:new 0 0 800 200;" xml:space="preserve">
<g>
	<g>
		<path style="fill:#FFFFFF;" d="M271.625,129.044c0,4.38-0.606,8.348-1.809,11.903c-1.206,3.559-2.873,6.701-4.999,9.428
			c-2.127,2.73-4.667,5.082-7.618,7.047c-2.952,1.968-6.206,3.587-9.761,4.856c-3.559,1.273-7.348,2.206-11.379,2.81
			c-4.032,0.603-8.523,0.904-13.475,0.904h-32.758c-2.095,0-3.856-0.618-5.285-1.857c-1.428-1.238-2.142-3.25-2.142-6.046V50.672
			c0-2.793,0.714-4.809,2.142-6.046c1.429-1.239,3.19-1.857,5.285-1.857h30.949c7.554,0,13.95,0.635,19.189,1.904
			c5.236,1.273,9.648,3.19,13.236,5.761c3.587,2.571,6.332,5.826,8.238,9.761c1.904,3.94,2.857,8.57,2.857,13.904
			c0,2.986-0.381,5.793-1.143,8.427c-0.761,2.634-1.873,5.034-3.333,7.19c-1.464,2.158-3.253,4.063-5.38,5.714
			c-2.127,1.653-4.558,2.986-7.285,3.999c3.488,0.635,6.713,1.749,9.665,3.334c2.952,1.587,5.523,3.634,7.714,6.142
			c2.19,2.507,3.917,5.443,5.19,8.808C270.99,121.08,271.625,124.854,271.625,129.044z M239.248,77.146
			c0-2.476-0.381-4.698-1.143-6.666c-0.761-1.965-1.904-3.603-3.428-4.905c-1.523-1.301-3.444-2.298-5.761-2.999
			c-2.318-0.698-5.415-1.048-9.285-1.048h-12.664v31.997h13.998c3.619,0,6.507-0.429,8.665-1.286
			c2.156-0.857,3.952-2.031,5.38-3.523c1.429-1.492,2.489-3.238,3.19-5.237C238.898,81.478,239.248,79.371,239.248,77.146z
			 M245.628,129.901c0-2.857-0.476-5.411-1.428-7.665c-0.952-2.255-2.349-4.143-4.19-5.666c-1.844-1.524-4.19-2.698-7.047-3.523
			c-2.857-0.822-6.571-1.239-11.142-1.239h-14.856v35.044h18.093c3.488,0,6.427-0.365,8.808-1.095c2.381-0.73,4.444-1.81,6.19-3.238
			c1.745-1.429,3.11-3.206,4.094-5.333C245.136,135.059,245.628,132.631,245.628,129.901z"/>
		<path style="fill:#FFFFFF;" d="M308.297,49.054c0,4.825-0.987,8.158-2.953,9.999c-1.968,1.844-5.618,2.761-10.951,2.761
			c-5.396,0-9.033-0.889-10.906-2.666c-1.873-1.775-2.806-4.984-2.806-9.618c0-4.822,0.965-8.174,2.902-10.046
			c1.936-1.873,5.605-2.81,11.001-2.81c5.333,0,8.952,0.905,10.856,2.714C307.345,41.198,308.297,44.422,308.297,49.054z
			 M306.487,162.754c0,0.635-0.191,1.191-0.572,1.666c-0.381,0.476-1.035,0.873-1.955,1.19c-0.922,0.321-2.14,0.556-3.663,0.714
			c-1.524,0.159-3.463,0.238-5.81,0.238c-2.349,0-4.285-0.079-5.808-0.238c-1.524-0.158-2.749-0.393-3.67-0.714
			c-0.921-0.317-1.568-0.714-1.949-1.19c-0.381-0.476-0.571-1.032-0.571-1.666V78.003c0-0.632,0.19-1.19,0.571-1.666
			c0.381-0.476,1.028-0.889,1.949-1.238c0.921-0.349,2.145-0.619,3.67-0.81c1.523-0.19,3.459-0.285,5.808-0.285
			c2.346,0,4.286,0.095,5.81,0.285c1.523,0.191,2.741,0.461,3.663,0.81c0.92,0.349,1.574,0.761,1.955,1.238
			c0.381,0.476,0.572,1.035,0.572,1.666V162.754z"/>
		<path style="fill:#FFFFFF;" d="M457.713,162.754c0,0.635-0.19,1.191-0.572,1.666c-0.381,0.476-1.016,0.873-1.905,1.19
			c-0.889,0.321-2.095,0.556-3.619,0.714c-1.524,0.159-3.46,0.238-5.809,0.238c-2.412,0-4.381-0.079-5.903-0.238
			c-1.524-0.158-2.75-0.393-3.666-0.714c-0.921-0.317-1.559-0.714-1.905-1.19c-0.348-0.476-0.523-1.032-0.523-1.666v-50.375
			c0-2.856-0.273-5.46-0.809-7.809c-0.54-2.346-1.368-4.364-2.477-6.046c-1.11-1.682-2.51-2.984-4.189-3.905
			c-1.683-0.921-3.698-1.381-6.047-1.381c-2.856,0-5.745,1.111-8.665,3.333c-2.92,2.225-6.095,5.462-9.523,9.713v56.469
			c0,0.635-0.191,1.191-0.571,1.666c-0.381,0.476-1.035,0.873-1.952,1.19c-0.921,0.321-2.143,0.556-3.666,0.714
			c-1.523,0.159-3.428,0.238-5.714,0.238c-2.349,0-4.285-0.079-5.809-0.238c-1.523-0.158-2.748-0.393-3.666-0.714
			c-0.92-0.317-1.57-0.714-1.951-1.19c-0.381-0.476-0.572-1.032-0.572-1.666v-50.375c0-2.856-0.273-5.46-0.81-7.809
			c-0.54-2.346-1.349-4.364-2.428-6.046c-1.079-1.682-2.476-2.984-4.19-3.905c-1.714-0.921-3.714-1.381-5.999-1.381
			c-2.92,0-5.841,1.111-8.762,3.333c-2.921,2.225-6.063,5.462-9.427,9.713v56.469c0,0.635-0.19,1.191-0.572,1.666
			c-0.381,0.476-1.035,0.873-1.952,1.19c-0.921,0.321-2.143,0.556-3.666,0.714c-1.523,0.159-3.46,0.238-5.809,0.238
			c-2.349,0-4.285-0.079-5.808-0.238c-1.524-0.158-2.75-0.393-3.666-0.714c-0.922-0.317-1.572-0.714-1.953-1.19
			c-0.381-0.476-0.572-1.032-0.572-1.666V77.812c0-0.632,0.159-1.19,0.476-1.666c0.318-0.476,0.889-0.87,1.715-1.19
			c0.825-0.318,1.888-0.556,3.19-0.715c1.298-0.159,2.936-0.237,4.904-0.237c2.031,0,3.714,0.079,5.047,0.237
			c1.334,0.159,2.365,0.397,3.095,0.715c0.728,0.32,1.254,0.714,1.572,1.19c0.317,0.476,0.476,1.035,0.476,1.666v9.809
			c4.698-5.079,9.379-8.888,14.046-11.427c4.666-2.536,9.539-3.809,14.617-3.809c3.491,0,6.634,0.366,9.427,1.096
			c2.794,0.73,5.285,1.777,7.475,3.142c2.19,1.365,4.079,2.999,5.666,4.904c1.588,1.905,2.92,4.035,3.999,6.381
			c2.539-2.727,5.031-5.079,7.475-7.047c2.441-1.965,4.857-3.571,7.237-4.81c2.381-1.238,4.762-2.158,7.142-2.761
			c2.381-0.603,4.81-0.905,7.285-0.905c5.65,0,10.412,0.953,14.284,2.857c3.873,1.905,6.999,4.492,9.381,7.76
			c2.38,3.27,4.078,7.094,5.094,11.475c1.016,4.381,1.524,9.014,1.524,13.903V162.754z"/>
		<path style="fill:#FFFFFF;" d="M497.429,162.754c0,0.635-0.19,1.191-0.571,1.666c-0.381,0.476-1.035,0.873-1.953,1.19
			c-0.92,0.321-2.142,0.556-3.666,0.714c-1.523,0.159-3.459,0.238-5.808,0.238s-4.285-0.079-5.809-0.238
			c-1.523-0.158-2.749-0.393-3.666-0.714c-0.921-0.317-1.571-0.714-1.952-1.19c-0.381-0.476-0.572-1.032-0.572-1.666V37.532
			c0-0.632,0.191-1.203,0.572-1.714c0.381-0.508,1.031-0.937,1.952-1.285c0.917-0.35,2.143-0.619,3.666-0.81
			c1.524-0.19,3.46-0.286,5.809-0.286s4.285,0.095,5.808,0.286c1.524,0.191,2.746,0.46,3.666,0.81
			c0.918,0.348,1.572,0.777,1.953,1.285c0.381,0.511,0.571,1.083,0.571,1.714V162.754z"/>
	</g>
</g>
<g>
	<path style="fill:#FFFFFF;" d="M583.287,47.056c0,0.837-0.065,1.577-0.193,2.22c-0.13,0.644-0.338,1.175-0.627,1.592
		c-0.29,0.42-0.627,0.741-1.014,0.966c-0.386,0.226-0.805,0.338-1.255,0.338h-48.352v47.29h45.843c0.449,0,0.868,0.082,1.255,0.242
		c0.386,0.161,0.724,0.434,1.013,0.82c0.29,0.386,0.498,0.901,0.628,1.544c0.128,0.644,0.192,1.447,0.192,2.413
		c0,0.837-0.064,1.577-0.192,2.22c-0.13,0.644-0.338,1.174-0.628,1.592c-0.289,0.42-0.627,0.74-1.013,0.966
		c-0.387,0.226-0.806,0.337-1.255,0.337h-45.843v55.012c0,0.387-0.097,0.741-0.29,1.062c-0.193,0.322-0.516,0.579-0.965,0.771
		c-0.451,0.193-1.047,0.354-1.786,0.482c-0.74,0.129-1.688,0.193-2.847,0.193c-1.095,0-2.026-0.064-2.799-0.193
		c-0.772-0.129-1.385-0.289-1.834-0.482c-0.45-0.192-0.771-0.449-0.965-0.771c-0.193-0.321-0.289-0.676-0.289-1.062V47.732
		c0-2.316,0.61-3.909,1.833-4.777c1.222-0.869,2.413-1.304,3.571-1.304h54.722c0.45,0,0.869,0.113,1.255,0.338
		c0.387,0.227,0.724,0.564,1.014,1.014c0.289,0.451,0.497,1.014,0.627,1.689C583.223,45.367,583.287,46.156,583.287,47.056z"/>
	<path style="fill:#FFFFFF;" d="M613.825,164.607c0,0.387-0.097,0.741-0.29,1.062c-0.192,0.322-0.499,0.579-0.917,0.771
		c-0.419,0.193-0.998,0.354-1.736,0.482c-0.741,0.129-1.689,0.193-2.848,0.193c-1.095,0-2.012-0.064-2.75-0.193
		c-0.741-0.129-1.337-0.289-1.786-0.482c-0.45-0.192-0.757-0.449-0.917-0.771c-0.161-0.321-0.241-0.676-0.241-1.062V34.509
		c0-0.386,0.08-0.739,0.241-1.062c0.16-0.321,0.467-0.594,0.917-0.82c0.449-0.225,1.045-0.386,1.786-0.482
		c0.738-0.097,1.655-0.144,2.75-0.144c1.158,0,2.107,0.048,2.848,0.144c0.738,0.097,1.317,0.258,1.736,0.482
		c0.418,0.227,0.725,0.499,0.917,0.82c0.193,0.322,0.29,0.676,0.29,1.062V164.607z"/>
	<path style="fill:#FFFFFF;" d="M706.713,116.448c0,2.316-0.611,3.909-1.833,4.777c-1.224,0.869-2.413,1.303-3.571,1.303h-59.548
		c0,5.405,0.531,10.296,1.593,14.67c1.061,4.376,2.813,8.124,5.26,11.244c2.444,3.121,5.629,5.518,9.555,7.189
		c3.924,1.674,8.749,2.51,14.477,2.51c4.054,0,7.688-0.352,10.906-1.061c3.216-0.707,5.998-1.496,8.348-2.364
		c2.349-0.869,4.278-1.656,5.791-2.365c1.511-0.707,2.589-1.061,3.233-1.061c0.386,0,0.738,0.097,1.062,0.29
		c0.321,0.192,0.579,0.499,0.771,0.917c0.193,0.419,0.338,0.949,0.435,1.592c0.097,0.645,0.144,1.448,0.144,2.413
		c0,0.451-0.033,0.885-0.096,1.303c-0.065,0.419-0.146,0.806-0.241,1.158c-0.097,0.355-0.242,0.692-0.435,1.014
		c-0.193,0.322-0.451,0.644-0.772,0.965c-0.322,0.322-1.319,0.885-2.991,1.689c-1.675,0.806-3.861,1.609-6.563,2.413
		c-2.702,0.806-5.839,1.527-9.41,2.172c-3.57,0.643-7.416,0.965-11.532,0.965c-6.756,0-12.74-1.014-17.952-3.04
		c-5.211-2.026-9.587-5.019-13.125-8.976c-3.539-3.957-6.226-8.862-8.059-14.718c-1.834-5.855-2.751-12.644-2.751-20.364
		c0-7.398,0.948-14.026,2.848-19.882c1.896-5.854,4.615-10.824,8.155-14.911c3.537-4.085,7.801-7.205,12.787-9.361
		c4.985-2.155,10.535-3.233,16.648-3.233c6.562,0,12.16,1.095,16.793,3.282c4.633,2.188,8.445,5.131,11.437,8.83
		c2.992,3.701,5.179,7.996,6.563,12.885c1.383,4.891,2.074,10.037,2.074,15.441V116.448z M694.843,113.07
		c0.192-9.265-1.931-16.503-6.37-21.715c-4.439-5.212-10.906-7.817-19.399-7.817c-4.376,0-8.22,0.82-11.532,2.461
		c-3.315,1.641-6.114,3.812-8.398,6.515c-2.284,2.702-4.038,5.839-5.26,9.41c-1.223,3.57-1.93,7.286-2.123,11.146H694.843z"/>
	<path style="fill:#FFFFFF;" d="M788.619,162.774c0.514,0.771,0.787,1.433,0.82,1.979c0.031,0.547-0.179,0.998-0.628,1.351
		c-0.45,0.355-1.143,0.611-2.074,0.773c-0.934,0.16-2.108,0.241-3.523,0.241c-1.351,0-2.429-0.048-3.232-0.145
		c-0.806-0.097-1.448-0.241-1.931-0.435c-0.482-0.193-0.868-0.449-1.158-0.772c-0.289-0.321-0.563-0.675-0.82-1.062l-23.549-36.481
		l-23.452,36.481c-0.258,0.387-0.531,0.74-0.82,1.062c-0.29,0.323-0.692,0.579-1.207,0.772c-0.516,0.193-1.175,0.338-1.978,0.435
		c-0.805,0.097-1.85,0.145-3.137,0.145c-1.351,0-2.478-0.081-3.378-0.241c-0.901-0.161-1.561-0.418-1.979-0.773
		c-0.419-0.352-0.611-0.804-0.578-1.351c0.031-0.546,0.337-1.207,0.916-1.979l28.761-42.369l-27.409-41.403
		c-0.516-0.772-0.789-1.432-0.82-1.979c-0.033-0.546,0.193-0.997,0.676-1.352c0.482-0.353,1.206-0.594,2.171-0.724
		c0.966-0.128,2.155-0.193,3.571-0.193c1.352,0,2.428,0.049,3.233,0.146c0.804,0.097,1.431,0.241,1.882,0.434
		c0.449,0.193,0.804,0.435,1.061,0.725c0.257,0.289,0.515,0.627,0.773,1.013l22.197,34.165l22.777-34.165
		c0.256-0.386,0.514-0.724,0.771-1.013c0.257-0.29,0.595-0.531,1.014-0.725c0.418-0.192,0.997-0.337,1.737-0.434
		c0.738-0.097,1.752-0.146,3.04-0.146c1.351,0,2.492,0.065,3.426,0.193c0.933,0.13,1.624,0.354,2.075,0.676
		c0.449,0.322,0.659,0.757,0.627,1.303c-0.033,0.548-0.337,1.239-0.916,2.075l-27.603,41.018L788.619,162.774z"/>
</g>
<g>
	<path style="fill:#FFFFFF;" d="M20.188,121.137l57.206-57.206L94.175,47.15l6.115,6.115c1.17,1.17,3.171,0.341,3.171-1.314V18.288
		c0-1.872-1.517-3.389-3.389-3.389H66.409c-1.655,0-2.484,2.001-1.314,3.171l5.829,5.829L21.797,73.027v0l-1.609,1.609
		C7.347,87.477,7.347,108.296,20.188,121.137z"/>
	<path style="fill:#C40D3C;" d="M131.433,71.426c-12.841-12.841-33.66-12.841-46.501,0L27.728,128.63
		c12.841,12.841,33.66,12.841,46.501,0L131.433,71.426L131.433,71.426z"/>
	<path style="fill:#FFFFFF;" d="M138.871,78.863l-57.206,57.206L64.883,152.85l-6.115-6.115c-1.17-1.17-3.171-0.341-3.171,1.314
		v33.663c0,1.872,1.517,3.389,3.389,3.389h33.663c1.655,0,2.484-2.001,1.314-3.171l-5.829-5.829l49.128-49.128v0l1.609-1.609
		C151.711,112.523,151.711,91.704,138.871,78.863z"/>
</g>
</svg>
