<?xml version="1.0" encoding="iso-8859-1"?><svg version="1.1" xmlns="http://www.w3.org/2000/svg" xmlns:xlink="http://www.w3.org/1999/xlink" x="0px" y="0px" viewBox="0 0 16 16" style="enable-background:new 0 0 16 16;" xml:space="preserve"><g id="business-modelling"><g><g id="XMLID_10228_"><path style="fill:#FFFFFF;" d="M14.175,1.825v1.957H1.825V1.825H14.175 M15.175,0.825H0.825v3.957h14.35V0.825L15.175,0.825z"/></g><g id="XMLID_22_"><path style="fill:#FFFFFF;" d="M14.175,12.511v1.663H8.482v-1.663H14.175 M15.175,11.511H7.482v3.663h7.692V11.511L15.175,11.511 z"/></g><g id="XMLID_24_"><path style="fill:#FFFFFF;" d="M7.518,12.511v1.663H1.825v-1.663H7.518 M8.518,11.511H0.825v3.663h7.692V11.511L8.518,11.511z"/></g><g id="XMLID_25_"><path style="fill:#FFFFFF;" d="M5.13,4.75v6.762H1.825V4.75H5.13 M6.13,3.75H0.825v8.762H6.13V3.75L6.13,3.75z"/></g><g id="XMLID_26_"><path style="fill:#FFFFFF;" d="M14.175,4.75v6.762h-3.323V4.75H14.175 M15.175,3.75H9.851v8.762h5.323V3.75L15.175,3.75z"/></g><g id="XMLID_32_"><path style="fill:#FFFFFF;" d="M9.865,7.648v3.865h-3.73V7.648H9.865 M10.865,6.648h-5.73v5.865h5.73V6.648L10.865,6.648z"/></g><g id="XMLID_29_"><path style="fill:#FFFFFF;" d="M9.865,4.75v1.978h-3.73V4.75H9.865 M10.865,3.75h-5.73v3.978h5.73V3.75L10.865,3.75z"/></g></g></g></svg> 
