<?xml version="1.0" encoding="iso-8859-1"?><svg version="1.1" xmlns="http://www.w3.org/2000/svg" xmlns:xlink="http://www.w3.org/1999/xlink" x="0px" y="0px" viewBox="0 0 12.367 14.34" style="enable-background:new 0 0 12.367 14.34;" xml:space="preserve"><g id="business-object-concept"><path id="XMLID_4173_" style="fill:#0088B6;" d="M6.183,3.493c-1.435,0-2.599,1.13-2.599,2.525c0,0.371,0.173,0.873,0.173,0.873 C3.789,6.982,3.85,7.127,3.892,7.214l2.215,4.568c0.044,0.087,0.112,0.087,0.154,0l2.215-4.568C8.517,7.127,8.576,6.981,8.609,6.89 c0,0,0.174-0.502,0.174-0.873C8.782,4.622,7.619,3.493,6.183,3.493z M6.183,7.11c-0.621,0-1.125-0.489-1.125-1.093 c0-0.603,0.504-1.092,1.125-1.092s1.125,0.489,1.125,1.092C7.307,6.622,6.804,7.11,6.183,7.11z"/><path style="fill:#686969;" d="M0,3.584v7.173l6.184,3.582l6.183-3.582V3.584L6.184,0L0,3.584z M11.331,4.126l0.05,0.029v0.058 v5.913v0.058l-0.05,0.029l-5.096,2.953l-0.051,0.029l-0.051-0.029l-5.097-2.953l-0.05-0.029v-0.058V4.214V4.156l0.05-0.029 l5.097-2.954l0.051-0.029l0.051,0.029L11.331,4.126z"/></g></svg> 
