<?xml version="1.0" encoding="iso-8859-1"?><svg version="1.1" xmlns="http://www.w3.org/2000/svg" xmlns:xlink="http://www.w3.org/1999/xlink" x="0px" y="0px" viewBox="0 0 16 16" style="enable-background:new 0 0 16 16;" xml:space="preserve"><g id="business-modelling-color"><g><g id="XMLID_41_"><rect x="1.325" y="1.325" style="fill:#0088B6;" width="13.35" height="2.957"/><g><path style="fill:#555555;" d="M14.175,1.825v1.957H1.825V1.825H14.175 M15.175,0.825H0.825v3.957h14.35V0.825L15.175,0.825z"/></g></g><g id="XMLID_40_"><rect x="7.982" y="12.012" style="fill:#FFFFFF;" width="6.692" height="2.663"/><g><path style="fill:#555555;" d="M14.175,12.511v1.663H8.482v-1.663H14.175 M15.175,11.511H7.482v3.663h7.692V11.511 L15.175,11.511z"/></g></g><g id="XMLID_39_"><rect x="1.325" y="12.012" style="fill:#FFFFFF;" width="6.692" height="2.663"/><g><path style="fill:#555555;" d="M7.518,12.511v1.663H1.825v-1.663H7.518 M8.518,11.511H0.825v3.663h7.692V11.511L8.518,11.511z" /></g></g><g id="XMLID_38_"><rect x="1.325" y="4.25" style="fill:#FFFFFF;" width="4.305" height="7.762"/><g><path style="fill:#555555;" d="M5.13,4.75v6.762H1.825V4.75H5.13 M6.13,3.75H0.825v8.762H6.13V3.75L6.13,3.75z"/></g></g><g id="XMLID_37_"><rect x="10.352" y="4.25" style="fill:#FFFFFF;" width="4.323" height="7.762"/><g><path style="fill:#555555;" d="M14.175,4.75v6.762h-3.323V4.75H14.175 M15.175,3.75H9.851v8.762h5.323V3.75L15.175,3.75z"/></g></g><g id="XMLID_36_"><rect x="5.635" y="7.148" style="fill:#FFFFFF;" width="4.73" height="4.865"/><g><path style="fill:#555555;" d="M9.865,7.648v3.865h-3.73V7.648H9.865 M10.865,6.648h-5.73v5.865h5.73V6.648L10.865,6.648z"/></g></g><g id="XMLID_23_"><rect x="5.635" y="4.25" style="fill:#FFFFFF;" width="4.73" height="2.978"/><g><path style="fill:#555555;" d="M9.865,4.75v1.978h-3.73V4.75H9.865 M10.865,3.75h-5.73v3.978h5.73V3.75L10.865,3.75z"/></g></g></g></g></svg> 
