<?xml version="1.0" encoding="iso-8859-1"?><svg version="1.1" xmlns="http://www.w3.org/2000/svg" xmlns:xlink="http://www.w3.org/1999/xlink" x="0px" y="0px" viewBox="0 0 12.367 14.34" style="enable-background:new 0 0 12.367 14.34;" xml:space="preserve"><g id="business-object-header"><path style="fill:#686969;" d="M0,3.584v7.173l6.184,3.582l6.183-3.582V3.584L6.184,0L0,3.584z M11.331,4.126l0.05,0.029v0.058 v5.913v0.058l-0.05,0.029l-5.096,2.953l-0.051,0.029l-0.051-0.029l-5.097-2.953l-0.05-0.029v-0.058V4.214V4.156l0.05-0.029 l5.097-2.954l0.051-0.029l0.051,0.029L11.331,4.126z"/><polygon style="fill:none;" points="8.916,4.849 8.916,1.682 6.186,0.097 3.451,1.682 3.451,4.849 6.186,3.264 "/><polygon style="fill:none;" points="4.088,5.219 6.186,6.432 8.281,5.219 6.186,4.003 "/><polygon style="fill:none;" points="3.451,5.588 3.451,8.756 6.186,10.338 8.916,8.756 8.916,5.589 6.186,7.17 "/><polygon style="fill:#0088B6;" points="4.088,5.219 3.451,5.587 3.451,5.588 6.186,7.17 8.916,5.589 8.916,5.587 8.281,5.219 6.186,6.432 "/><polygon style="fill:#0088B6;" points="8.916,4.85 8.281,5.219 8.916,5.587 8.916,5.589 9.553,5.22 9.553,5.218 8.916,4.849 "/><polygon style="fill:#0088B6;" points="3.451,5.587 4.088,5.219 3.451,4.85 3.451,4.849 2.814,5.218 2.814,5.22 3.451,5.588 "/><path style="fill:#686969;" d="M11.381,3.013L6.184,0L0.985,3.013L0,3.584v0.018v7.156l6.184,3.582l6.183-3.582V3.602V3.584 L11.381,3.013z M11.381,4.214v5.913v0.058l-0.05,0.029l-5.096,2.953l-0.051,0.029l-0.051-0.029l-5.097-2.953l-0.05-0.029v-0.058 V4.214V4.173V4.156l0.05-0.029l0.921-0.534l4.176-2.42l0.051-0.029l0.051,0.029l4.175,2.42l0.921,0.534l0.05,0.029v0.018V4.214z"/><polygon style="fill:#0088B6;" points="6.184,6.041 6.133,6.012 1.957,3.593 1.036,4.126 0.985,4.156 0.985,4.173 6.184,7.184 11.381,4.173 11.381,4.156 11.331,4.126 10.41,3.593 6.235,6.012 "/><polygon style="fill:#0088B6;" points="8.297,2.368 6.235,1.173 6.184,1.143 6.133,1.173 4.071,2.368 3.084,2.939 6.184,4.735 9.283,2.94 "/></g></svg> 
