<?xml version="1.0" encoding="iso-8859-1"?><svg version="1.1" xmlns="http://www.w3.org/2000/svg" xmlns:xlink="http://www.w3.org/1999/xlink" x="0px" y="0px" viewBox="0 0 14.35 14.35" style="enable-background:new 0 0 14.35 14.35;" xml:space="preserve"><g id="business-configurations"><path style="fill:#FFFFFF;" d="M13.354,0H0.996C0.446,0,0,0.446,0,0.996v12.358c0,0.55,0.446,0.996,0.996,0.996h11.533l-1.25-1.25 h0l-2.694-2.695l-0.358,0.127c-0.39,0.138-0.799,0.209-1.214,0.209c-0.96,0-1.862-0.373-2.54-1.051 C3.744,8.961,3.375,7.954,3.429,6.948L5.322,8.84c0.679,0.681,1.866,0.681,2.547,0.001l0.849-0.849 c0.34-0.34,0.528-0.792,0.528-1.273S9.058,5.785,8.718,5.445L6.823,3.55c1.02-0.059,2.017,0.32,2.743,1.046 c0.975,0.975,1.306,2.449,0.842,3.755l-0.127,0.357l1.298,1.298l0,0l0.333,0.333L13,11.426l0,0l0.099,0.099v0l1.25,1.25V0.996 C14.35,0.446,13.904,0,13.354,0z M10.415,3.748C9.511,2.842,8.307,2.344,7.026,2.344c-0.553,0-1.096,0.093-1.616,0.278L4.516,2.94 l3.353,3.354c0.113,0.113,0.176,0.264,0.176,0.424S7.982,7.03,7.869,7.143L7.02,7.991C6.793,8.219,6.398,8.219,6.171,7.992 L2.818,4.639L2.499,5.534c-0.618,1.739-0.176,3.704,1.125,5.005c0.905,0.904,2.108,1.402,3.388,1.402 c0.423,0,0.841-0.056,1.247-0.164l0.997,0.997L9.581,13.1H1.25V1.25H13.1v8.578l-0.397-0.397l0,0l-0.419-0.419l-0.568-0.568l0,0 l-0.061-0.061C12.092,6.74,11.625,4.957,10.415,3.748z"/></g></svg> 
