<?xml version="1.0" encoding="iso-8859-1"?><svg version="1.1" xmlns="http://www.w3.org/2000/svg" xmlns:xlink="http://www.w3.org/1999/xlink" x="0px" y="0px" viewBox="0 0 14.35 14.35" style="enable-background:new 0 0 14.35 14.35;" xml:space="preserve"><g id="business-models"><path style="fill:#FFFFFF;" d="M13.1,1.25V13.1H1.25V1.25H13.1 M13.354,0H0.996C0.446,0,0,0.446,0,0.996v12.358 c0,0.55,0.446,0.996,0.996,0.996h12.358c0.55,0,0.996-0.446,0.996-0.996V0.996C14.35,0.446,13.904,0,13.354,0L13.354,0z"/><g><g><path id="XMLID_21_" style="fill:#FFFFFF;" d="M9.396,11.061h2.064c0.114,0,0.206-0.093,0.206-0.206V9.708 c0-0.114-0.093-0.206-0.206-0.206H9.396c-0.114,0-0.206,0.093-0.206,0.206v1.147C9.19,10.968,9.283,11.061,9.396,11.061z"/><path style="fill:#FFFFFF;" d="M9.396,9.419h2.064c0.159,0,0.289,0.13,0.289,0.289v1.147c0,0.159-0.13,0.289-0.289,0.289H9.396 c-0.159,0-0.289-0.13-0.289-0.289V9.708C9.108,9.549,9.237,9.419,9.396,9.419z M11.46,10.979c0.068,0,0.124-0.056,0.124-0.124 V9.708c0-0.068-0.056-0.124-0.124-0.124H9.396c-0.068,0-0.124,0.056-0.124,0.124v1.147c0,0.068,0.056,0.124,0.124,0.124H11.46z" /></g><path id="XMLID_20_" style="fill:#FFFFFF;" d="M7.806,9.86V7.52h0.849V6.695H7.806V4.493h0.849V3.668H7.37 c-0.227,0-0.413,0.186-0.413,0.413v6.192c0,0.227,0.186,0.413,0.413,0.413h1.284V9.86H7.806z"/><g><path id="XMLID_19_" style="fill:#FFFFFF;" d="M9.396,7.955h2.064c0.114,0,0.206-0.093,0.206-0.206V6.601 c0-0.114-0.093-0.206-0.206-0.206H9.396c-0.114,0-0.206,0.093-0.206,0.206v1.147C9.19,7.862,9.283,7.955,9.396,7.955z"/><path style="fill:#FFFFFF;" d="M9.396,6.313h2.064c0.159,0,0.289,0.13,0.289,0.289v1.147c0,0.159-0.13,0.289-0.289,0.289H9.396 c-0.159,0-0.289-0.13-0.289-0.289V6.601C9.108,6.442,9.237,6.313,9.396,6.313z M11.46,7.872c0.068,0,0.124-0.056,0.124-0.124 V6.601c0-0.068-0.056-0.124-0.124-0.124H9.396c-0.068,0-0.124,0.056-0.124,0.124v1.147c0,0.068,0.056,0.124,0.124,0.124H11.46z" /></g><g><path id="XMLID_18_" style="fill:#FFFFFF;" d="M9.396,4.848h2.064c0.114,0,0.206-0.093,0.206-0.206V3.495 c0-0.114-0.093-0.206-0.206-0.206H9.396c-0.114,0-0.206,0.093-0.206,0.206v1.147C9.19,4.755,9.283,4.848,9.396,4.848z"/><path style="fill:#FFFFFF;" d="M9.396,3.206h2.064c0.159,0,0.289,0.13,0.289,0.289v1.147c0,0.159-0.13,0.289-0.289,0.289H9.396 c-0.159,0-0.289-0.13-0.289-0.289V3.495C9.108,3.336,9.237,3.206,9.396,3.206z M11.46,4.766c0.068,0,0.124-0.056,0.124-0.124 V3.495c0-0.068-0.056-0.124-0.124-0.124H9.396c-0.068,0-0.124,0.056-0.124,0.124v1.147c0,0.068,0.056,0.124,0.124,0.124H11.46z" /></g><path style="fill:#FFFFFF;" d="M6.471,6.73H5.628V6.409c0-0.114-0.093-0.206-0.206-0.206H5.124H4.481h-0.78H3.214H2.807 c-0.113,0-0.206,0.093-0.206,0.206v1.422c0,0.114,0.093,0.206,0.206,0.206h2.614c0.113,0,0.206-0.093,0.206-0.206V7.509h0.844 V6.73z"/></g></g></svg> 
