<?xml version="1.0" encoding="iso-8859-1"?><svg version="1.1" xmlns="http://www.w3.org/2000/svg" xmlns:xlink="http://www.w3.org/1999/xlink" x="0px" y="0px" viewBox="0 0 12.367 14.34" style="enable-background:new 0 0 12.367 14.34;" xml:space="preserve"><g id="business-object-event"><path id="Works_3_" style="fill:#0088B6;" d="M3.672,7.849h1.841c0.108,0,0.171,0.032,0.14,0.125l-0.88,3.333 c-0.032,0.092-0.003,0.084,0.063,0.007l3.933-4.726C8.834,6.512,8.8,6.45,8.692,6.45H6.852c-0.108,0-0.166-0.068-0.126-0.158 l0.861-3.254c0.039-0.09,0.013-0.092-0.056-0.018l-3.93,4.652C3.533,7.745,3.565,7.849,3.672,7.849z"/><path style="fill:#686969;" d="M0,3.584v7.173l6.184,3.582l6.183-3.582V3.584L6.184,0L0,3.584z M11.331,4.126l0.05,0.029v0.058 v5.913v0.058l-0.05,0.029l-5.096,2.953l-0.051,0.029l-0.051-0.029l-5.097-2.953l-0.05-0.029v-0.058V4.214V4.156l0.05-0.029 l5.097-2.954l0.051-0.029l0.051,0.029L11.331,4.126z"/></g></svg> 
