<?xml version="1.0" encoding="iso-8859-1"?><svg version="1.1" xmlns="http://www.w3.org/2000/svg" xmlns:xlink="http://www.w3.org/1999/xlink" x="0px" y="0px" viewBox="0 0 12.367 14.34" style="enable-background:new 0 0 12.367 14.34;" xml:space="preserve"><g id="business-object-relationship"><g><polygon style="fill:#0088B6;" points="6.184,6.041 6.133,6.012 1.957,3.592 1.036,4.126 0.985,4.156 0.985,4.173 6.184,7.184 11.381,4.173 11.381,4.156 11.331,4.126 10.41,3.592 6.235,6.012 "/><polygon style="fill:#0088B6;" points="6.168,8.343 6.117,8.373 1.941,10.792 1.02,10.258 0.969,10.229 0.969,10.212 6.168,7.201 11.365,10.212 11.365,10.229 11.315,10.258 10.393,10.792 6.218,8.373 "/><path style="fill:#686969;" d="M0,3.584v7.173l6.184,3.582l6.183-3.582V3.584L6.184,0L0,3.584z M11.331,4.126l0.05,0.029v0.058 v5.913v0.058l-0.05,0.029l-5.096,2.953l-0.051,0.029l-0.051-0.029l-5.097-2.953l-0.05-0.029v-0.058V4.214V4.156l0.05-0.029 l5.097-2.954l0.051-0.029l0.051,0.029L11.331,4.126z"/></g></g></svg> 
