<?xml version="1.0" encoding="iso-8859-1"?><svg version="1.1" xmlns="http://www.w3.org/2000/svg" xmlns:xlink="http://www.w3.org/1999/xlink" x="0px" y="0px" viewBox="0 0 16 16" style="enable-background:new 0 0 16 16;" xml:space="preserve"><g id="collapse-toggle"><path style="fill:#555555;" d="M1.981,15.174h12.038c0.619,0,1.123-0.504,1.123-1.123V1.949c0-0.619-0.504-1.123-1.123-1.123H1.981 c-0.619,0-1.123,0.504-1.123,1.123v12.102C0.858,14.67,1.362,15.174,1.981,15.174z M2.06,12.272V2.029h4.608h7.272v9.109v1.202 v1.632H2.06V12.272z"/><polygon style="fill:#555555;" points="6.193,4.599 6.468,4.874 11.043,9.449 11.476,9.882 12.568,10.974 12.568,3.35 4.943,3.349 "/><path style="fill:#555555;" d="M1.981,15.174h12.038c0.619,0,1.123-0.504,1.123-1.123V1.949c0-0.619-0.504-1.123-1.123-1.123H1.981 c-0.619,0-1.123,0.504-1.123,1.123v12.102C0.858,14.67,1.362,15.174,1.981,15.174z M2.06,12.272V2.029h4.608h7.272v9.109v1.202 v1.632H2.06V12.272z"/></g></svg> 
