<?xml version="1.0" encoding="iso-8859-1"?><svg version="1.1" xmlns="http://www.w3.org/2000/svg" xmlns:xlink="http://www.w3.org/1999/xlink" x="0px" y="0px" viewBox="0 0 16 16" style="enable-background:new 0 0 16 16;" xml:space="preserve"><g id="configurations"><path style="fill:#FFFFFF;" d="M8,0.817c-3.956,0-7.175,3.219-7.175,7.175c0,3.957,3.219,7.174,7.175,7.174 c1.187,0,2.364-0.297,3.404-0.858l0.709-0.383L9.41,11.222l-0.358,0.127c-0.39,0.138-0.799,0.209-1.214,0.209 c-0.96,0-1.862-0.373-2.54-1.051C4.57,9.778,4.201,8.771,4.254,7.765l1.893,1.892c0.679,0.681,1.866,0.681,2.547,0.001l0.849-0.849 c0.34-0.34,0.528-0.792,0.528-1.273c0-0.481-0.187-0.933-0.528-1.273L7.648,4.367c1.02-0.059,2.017,0.32,2.743,1.046 c0.975,0.975,1.306,2.449,0.842,3.755l-0.127,0.357l2.718,2.719l0.391-0.679c0.627-1.087,0.958-2.323,0.958-3.572 C15.175,4.037,11.956,0.817,8,0.817z M13.528,10.248L12.48,9.2c0.437-1.643-0.03-3.426-1.239-4.635 C10.336,3.66,9.132,3.161,7.852,3.161c-0.553,0-1.096,0.093-1.616,0.278L5.341,3.758l3.353,3.354 C8.808,7.224,8.87,7.376,8.87,7.536S8.808,7.847,8.694,7.96L7.845,8.808C7.618,9.036,7.223,9.036,6.996,8.809L3.643,5.456 L3.324,6.351c-0.618,1.739-0.176,3.704,1.125,5.006c0.905,0.904,2.108,1.402,3.389,1.402c0.423,0,0.841-0.056,1.247-0.164 l0.997,0.997C9.419,13.838,8.712,13.966,8,13.966c-3.294,0-5.974-2.68-5.974-5.974c0-3.294,2.68-5.975,5.974-5.975 c3.294,0,5.974,2.68,5.974,5.975C13.974,8.766,13.821,9.533,13.528,10.248z"/></g></svg> 
