<?xml version="1.0" encoding="iso-8859-1"?><svg version="1.1" xmlns="http://www.w3.org/2000/svg" xmlns:xlink="http://www.w3.org/1999/xlink" x="0px" y="0px" viewBox="0 0 16 16" style="enable-background:new 0 0 16 16;" xml:space="preserve"><g id="connections"><rect x="7.77" y="9.21" style="fill:#FFFFFF;" width="0.401" height="2.17"/><path style="fill:#FFFFFF;" d="M9.349,8.626c0.356,0.356,0.831,0.552,1.337,0.552c0.506,0,0.981-0.196,1.337-0.553l2.608-2.608 c0.737-0.737,0.737-1.937,0-2.675L12.64,1.352c-0.712-0.713-1.963-0.713-2.674,0L7.358,3.96C7.001,4.316,6.805,4.791,6.805,5.297 c0,0.506,0.196,0.981,0.553,1.337L7.903,7.18L7.198,7.886L6.652,7.34c-0.712-0.713-1.963-0.713-2.674,0L1.369,9.948 c-0.356,0.356-0.553,0.831-0.553,1.337c0,0.506,0.196,0.981,0.553,1.337l1.991,1.991c0.356,0.356,0.831,0.552,1.337,0.552 c0.506,0,0.981-0.196,1.337-0.553l2.608-2.608c0.737-0.737,0.737-1.937,0-2.675L8.089,8.777l0.706-0.706L9.349,8.626z M7.751,10.222c0.246,0.246,0.246,0.646,0,0.892l-2.608,2.608c-0.236,0.237-0.655,0.236-0.891,0l-1.991-1.991 c-0.118-0.118-0.183-0.276-0.183-0.446c0-0.169,0.065-0.328,0.183-0.446l2.608-2.609c0.118-0.118,0.276-0.183,0.446-0.183 c0.169,0,0.327,0.065,0.446,0.183l0.546,0.546l-1.42,1.42l0.891,0.891l1.42-1.42L7.751,10.222z M8.249,5.743 C8.131,5.625,8.066,5.467,8.066,5.297c0-0.169,0.065-0.328,0.183-0.446l2.608-2.609c0.118-0.118,0.276-0.183,0.446-0.183 c0.169,0,0.327,0.065,0.446,0.183l1.991,1.991c0.246,0.246,0.246,0.646,0,0.892l-2.608,2.608c-0.236,0.237-0.655,0.236-0.891,0 L9.686,7.18l1.135-1.135L9.929,5.154L8.795,6.289L8.249,5.743z"/></g></svg> 
