<?xml version="1.0" encoding="iso-8859-1"?><svg version="1.1" xmlns="http://www.w3.org/2000/svg" xmlns:xlink="http://www.w3.org/1999/xlink" x="0px" y="0px" viewBox="0 0 16 16" style="enable-background:new 0 0 16 16;" xml:space="preserve"><g id="connection-color"><path style="fill:#686969;" d="M9.349,8.634c0.356,0.356,0.831,0.552,1.337,0.552c0.506,0,0.981-0.196,1.337-0.553l2.608-2.608 c0.737-0.737,0.737-1.937,0-2.675L12.64,1.36c-0.712-0.713-1.963-0.713-2.674,0L7.358,3.968C7.001,4.324,6.805,4.799,6.805,5.305 c0,0.506,0.196,0.981,0.553,1.337l0.545,0.546L7.198,7.894L6.652,7.348c-0.712-0.713-1.963-0.713-2.674,0L1.369,9.956 c-0.356,0.356-0.553,0.831-0.553,1.337c0,0.506,0.196,0.981,0.553,1.337l1.991,1.991c0.356,0.356,0.831,0.552,1.337,0.552 c0.506,0,0.981-0.196,1.337-0.553l2.608-2.608c0.737-0.737,0.737-1.937,0-2.675L8.089,8.785L8.795,8.08L9.349,8.634z M7.751,10.23 c0.246,0.246,0.246,0.646,0,0.892L5.143,13.73c-0.236,0.237-0.655,0.236-0.891,0l-1.991-1.991 c-0.118-0.118-0.183-0.276-0.183-0.446c0-0.169,0.065-0.328,0.183-0.446l2.608-2.609c0.118-0.118,0.276-0.183,0.446-0.183 c0.169,0,0.327,0.065,0.446,0.183l0.546,0.546l-1.42,1.42l0.891,0.891l1.42-1.42L7.751,10.23z M8.249,5.751 C8.131,5.633,8.066,5.475,8.066,5.305c0-0.169,0.065-0.328,0.183-0.446l2.608-2.609c0.118-0.118,0.276-0.183,0.446-0.183 c0.169,0,0.327,0.065,0.446,0.183l1.991,1.991c0.246,0.246,0.246,0.646,0,0.892l-2.608,2.608c-0.236,0.237-0.655,0.236-0.891,0 L9.686,7.188l1.135-1.135L9.929,5.162L8.795,6.297L8.249,5.751z"/><rect x="7.182" y="4.553" transform="matrix(0.7071 0.7071 -0.7071 0.7071 8.0405 -3.1713)" style="fill:#0088B6;" width="1.333" height="7.134"/></g></svg> 
