<?xml version="1.0" encoding="iso-8859-1"?><svg version="1.1" xmlns="http://www.w3.org/2000/svg" xmlns:xlink="http://www.w3.org/1999/xlink" x="0px" y="0px" viewBox="0 0 16 16" style="enable-background:new 0 0 16 16;" xml:space="preserve"><g id="create-pit"><g><path style="fill:#555555;" d="M8.632,5.114H7.215v3.7C7.076,8.99,6.999,9.206,6.999,9.428c0,0.552,0.449,1.001,1.001,1.001 c0.552,0,1.001-0.449,1.001-1.001c0-0.299-0.137-0.585-0.37-0.775V5.114z"/><path style="fill:#555555;" d="M12.136,4.833L13.3,3.668l-1.002-1.002l-1.307,1.308c-0.734-0.424-1.527-0.683-2.359-0.77V2.242 h1.222V0.825H6.095v1.417h1.12v0.98c-2.983,0.391-5.219,2.929-5.219,5.95c0,3.31,2.693,6.004,6.004,6.004 c3.31,0,6.004-2.693,6.004-6.004C14.004,7.539,13.324,5.965,12.136,4.833z M8,13.758c-2.529,0-4.587-2.058-4.587-4.587 c0-2.417,1.892-4.426,4.299-4.572h0.568c2.415,0.146,4.307,2.155,4.307,4.572C12.587,11.7,10.529,13.758,8,13.758z"/><path style="fill:#555555;" d="M9.135,5.665L8.972,5.609V7.14l0.062,0.035c0.712,0.398,1.154,1.144,1.152,1.971v0.123h1.295 l0.125-0.025V9.121C11.605,7.563,10.612,6.174,9.135,5.665z"/></g></g></svg> 
