<?xml version="1.0" encoding="iso-8859-1"?><svg version="1.1" xmlns="http://www.w3.org/2000/svg" xmlns:xlink="http://www.w3.org/1999/xlink" x="0px" y="0px" viewBox="0 0 16 16" style="enable-background:new 0 0 16 16;" xml:space="preserve"><g id="datatype-mappings"><g><polygon style="fill:#FFFFFF;" points="12.164,1.765 11.258,2.671 12.758,4.169 10.169,4.169 3.764,10.574 0.827,10.574 0.827,11.855 4.294,11.855 10.699,5.45 12.684,5.45 11.258,6.875 12.164,7.782 15.173,4.774 "/><polygon style="fill:#FFFFFF;" points="12.164,8.202 11.258,9.109 12.725,10.574 10.699,10.574 8.597,8.473 7.691,9.378 10.169,11.855 12.717,11.855 11.258,13.313 12.164,14.219 15.173,11.211 "/><polygon style="fill:#FFFFFF;" points="0.827,5.45 3.764,5.45 5.88,7.566 6.786,6.661 4.294,4.169 0.827,4.169 "/></g></g></svg> 
