<?xml version="1.0" encoding="iso-8859-1"?><svg version="1.1" xmlns="http://www.w3.org/2000/svg" xmlns:xlink="http://www.w3.org/1999/xlink" x="0px" y="0px" viewBox="0 0 16 16" style="enable-background:new 0 0 16 16;" xml:space="preserve"><g id="databricks"><path style="fill:#FF3621;" d="M1.378,4.565v0.432L8,8.733l5.914-3.34v1.351L8,10.103L1.711,6.53L1.378,6.715V9.3L8,13.027 l5.914-3.327v1.339L8,14.399l-6.289-3.574l-0.333,0.186v0.438L8,15.175l6.622-3.726V8.862l-0.338-0.184L8,12.251L2.085,8.89V7.558 L8,10.882l6.622-3.726V4.605L14.284,4.42L8,7.994L2.388,4.805L8,1.636l4.622,2.612l0.404-0.227V3.664L8,0.825L1.378,4.565z"/></g></svg> 
