<?xml version="1.0" encoding="iso-8859-1"?><svg version="1.1" xmlns="http://www.w3.org/2000/svg" xmlns:xlink="http://www.w3.org/1999/xlink" x="0px" y="0px" viewBox="0 0 16 16" style="enable-background:new 0 0 16 16;" xml:space="preserve"><g id="data-lake"><g id="Layer_1_00000029030844744539633530000010370647445518032311_"></g><g><path style="fill:#555555;" d="M8,0.818c-2.992,0-5.418,0.878-5.418,1.962v10.439c0,1.075,2.386,1.947,5.344,1.961v0.001h0.058 c0.006,0,0.011,0,0.016,0v0c2.992,0,5.418-0.878,5.418-1.962V2.78C13.418,1.697,10.992,0.818,8,0.818z"/><path style="fill:#59B4D9;" d="M12.31,2.667c0,0.715-1.93,1.295-4.31,1.295S3.689,3.383,3.689,2.667 c0-0.715,1.93-1.295,4.311-1.295S12.31,1.952,12.31,2.667"/><path style="fill:#FFFFFF;" d="M11.407,3.459c0.564-0.219,0.903-0.493,0.903-0.791c0-0.715-1.93-1.295-4.311-1.295 c-2.381,0-4.31,0.58-4.31,1.295c0,0.298,0.339,0.572,0.903,0.791C5.381,3.153,6.612,2.955,8,2.955 C9.388,2.955,10.619,3.153,11.407,3.459"/><path style="fill:#59B4D9;" d="M11.78,10.008c-0.805,0-1.523-0.431-1.926-1.064C9.48,9.577,8.79,9.979,7.986,10.008 c0,0-0.004,0-0.014,0c-0.811,0-1.507-0.431-1.912-1.064c-0.406,0.632-1.072,1.064-1.883,1.064c-0.637,0-1.188-0.259-1.594-0.69 v3.909c0,1.055,2.367,1.911,5.317,1.953v0.002c0.043,0,0.043,0,0.087,0c2.989,0,5.432-0.891,5.432-1.955V9.289 C13.016,9.721,12.441,10.008,11.78,10.008z"/></g></g></svg> 
