<?xml version="1.0" encoding="iso-8859-1"?><svg version="1.1" xmlns="http://www.w3.org/2000/svg" xmlns:xlink="http://www.w3.org/1999/xlink" x="0px" y="0px" viewBox="0 0 16 16" style="enable-background:new 0 0 16 16;" xml:space="preserve"><g id="database-connect"><g><g><g><path style="fill:#555555;" d="M8,8.275H7.934c-0.018,0-0.037-0.001-0.055-0.001c-2.497-0.02-4.506-0.603-4.56-1.327v2.269 c0.037,0.775,2.047,1.461,4.56,1.486c0.047,0,0.094,0.001,0.141,0.001c0.006,0,0.013,0,0.019,0 c2.569-0.003,4.644-0.669,4.644-1.426V6.919C12.683,7.691,10.586,8.275,8,8.275z"/><path style="fill:#555555;" d="M7.983,0.855c-0.035,0-0.069,0.001-0.104,0.001C5.343,0.874,3.317,1.546,3.317,2.32v1.729 c0,0.737,2.031,1.336,4.562,1.356c0.018,0,0.036,0.001,0.055,0.001H8c2.586,0,4.683-0.585,4.683-1.357V2.344 C12.683,1.586,10.569,0.855,7.983,0.855z M7.987,2.998c-0.036,0-0.072,0-0.108-0.001C6.098,2.984,4.643,2.636,4.643,2.19 c0-0.445,1.424-0.794,3.236-0.807c0.036,0,0.072-0.001,0.108-0.001c1.83,0,3.311,0.354,3.311,0.808 C11.298,2.644,9.847,2.998,7.987,2.998z"/><path style="fill:#555555;" d="M8,5.878H7.934c-0.018,0-0.037-0.001-0.055-0.001c-2.531-0.02-4.562-0.619-4.562-1.356v0.877 l0.002,1.068c0.037,0.728,2.052,1.316,4.56,1.336c0.018,0,0.036,0.001,0.055,0.001H8c2.586,0,4.683-0.585,4.683-1.357V4.521 C12.683,5.293,10.586,5.878,8,5.878z"/></g><rect x="7.462" y="11.293" style="fill:#555555;" width="1.076" height="3.225"/><path style="fill:#555555;" d="M4.994,13.458H2.822H2.526c-0.297,0-0.538,0.241-0.538,0.538c0,0.297,0.241,0.538,0.538,0.538 h0.295h2.173h1.371v-1.076H4.994z"/><path style="fill:#555555;" d="M11.006,13.458h2.173h0.295c0.297,0,0.538,0.241,0.538,0.538c0,0.297-0.241,0.538-0.538,0.538 h-0.295h-2.173H9.635v-1.076H11.006z"/><circle style="fill:#555555;" cx="8" cy="13.996" r="1.149"/></g></g></g></svg> 
