<?xml version="1.0" encoding="iso-8859-1"?><svg version="1.1" xmlns="http://www.w3.org/2000/svg" xmlns:xlink="http://www.w3.org/1999/xlink" x="0px" y="0px" viewBox="0 0 16 16" style="enable-background:new 0 0 16 16;" xml:space="preserve"><g id="db2-connection"><g><g><path style="fill:#009A2C;" d="M4.391,5.264c-0.359-0.135-0.787-0.202-1.29-0.202h-0.88H1.646H0.85V11h0.796h0.575h0.875 c0.513,0,0.949-0.071,1.307-0.211c0.359-0.14,0.627-0.34,0.81-0.6c0.179-0.26,0.271-0.565,0.271-0.916V6.789 c0-0.362-0.093-0.673-0.279-0.933S4.746,5.399,4.391,5.264z M4.077,9.227c0,0.24-0.09,0.423-0.265,0.553 C3.632,9.909,3.381,9.975,3.054,9.975H2.221V6.087h0.833c0.327,0,0.578,0.065,0.757,0.194C3.987,6.41,4.077,6.595,4.077,6.834 V9.227z"/><path style="fill:#009A2C;" d="M10.069,8.142C9.858,8.035,9.605,7.967,9.31,7.937c0.274-0.035,0.51-0.103,0.706-0.204 c0.197-0.101,0.346-0.231,0.448-0.391c0.102-0.159,0.153-0.339,0.153-0.54V6.479c0-0.299-0.077-0.555-0.232-0.766 c-0.155-0.211-0.381-0.372-0.678-0.484C9.41,5.118,9.052,5.062,8.63,5.062H7.449h-0.68H6.078V11h0.691h0.68H8.73 c0.418,0,0.777-0.056,1.076-0.167c0.299-0.112,0.525-0.275,0.68-0.489c0.155-0.214,0.232-0.471,0.232-0.773V9.158 c0-0.226-0.054-0.425-0.167-0.596C10.442,8.39,10.28,8.25,10.069,8.142z M8.535,6.07c0.225,0,0.401,0.044,0.527,0.131 c0.127,0.087,0.19,0.21,0.19,0.368v0.319c0,0.177-0.063,0.313-0.188,0.408S8.764,7.438,8.535,7.438H7.449V6.07H8.535z M9.336,9.444c0,0.172-0.069,0.305-0.202,0.4C8.997,9.939,8.808,9.987,8.561,9.987H7.449v-1.54h1.102 c0.165,0,0.308,0.023,0.427,0.069c0.12,0.046,0.209,0.113,0.269,0.2c0.06,0.087,0.09,0.193,0.09,0.319V9.444z"/><path style="fill:#009A2C;" d="M12.862,9.962l1.555-1.809c0.232-0.291,0.409-0.574,0.532-0.849 c0.123-0.275,0.185-0.534,0.185-0.776V6.487c0-0.324-0.077-0.596-0.232-0.817c-0.155-0.221-0.383-0.387-0.685-0.5 C13.914,5.057,13.544,5,13.104,5c-0.422,0-0.784,0.063-1.086,0.19c-0.302,0.127-0.536,0.313-0.701,0.559 c-0.165,0.246-0.255,0.548-0.269,0.905v0.11h1.402v-0.11c0.014-0.201,0.077-0.355,0.193-0.461 c0.112-0.106,0.272-0.159,0.476-0.159c0.197,0,0.346,0.039,0.452,0.118c0.102,0.079,0.155,0.195,0.155,0.347v0.045 c0,0.147-0.044,0.314-0.132,0.502s-0.22,0.391-0.395,0.608l-2.082,2.377V11h4.033V9.962H12.862z"/></g></g></g></svg> 
