<?xml version="1.0" encoding="iso-8859-1"?><svg version="1.1" xmlns="http://www.w3.org/2000/svg" xmlns:xlink="http://www.w3.org/1999/xlink" x="0px" y="0px" viewBox="0 0 13.481 13.039" style="enable-background:new 0 0 13.481 13.039;" xml:space="preserve"><g id="delta-lake-blue"><path style="fill:#175A9A;" d="M14.284,10.848L13.765,9.95l-2.537-4.394L7.543-0.828C7.479-0.938,7.367-0.99,7.255-0.987 c-0.1-0.003-0.201,0.043-0.259,0.142L6.989-0.832C6.988-0.83,6.986-0.83,6.985-0.828l-0.41,0.71L2.412,7.06L1.271,9.028 C1.178,9.189,1.342,9.376,1.514,9.306c0.584-0.241,1.096-0.43,1.584-0.55c0.271-0.066,0.539-0.104,0.81-0.127 c0.537-0.046,1.091-0.014,1.741,0.127C6.405,8.92,7.287,9.218,8.425,9.683C8.217,9.349,7.981,9.043,7.731,8.756 C7.708,8.729,7.683,8.706,7.659,8.68C6.953,7.893,6.094,7.311,5.093,7.045c-0.078-0.021-0.16-0.03-0.239-0.047l2.143-3.695 c0.111-0.192,0.389-0.192,0.5,0L7.91,4.016l0.498,0.859l3.264,5.629c0.076,0.131,0.03,0.28-0.073,0.365 c-0.009,0.009-0.026,0.017-0.037,0.026c-0.01,0.012-0.019,0.027-0.029,0.038c-0.016,0.007-0.032,0.009-0.049,0.016 c-2.467,0.963-4.428-1.66-6.853-1.492C4.174,9.45,3.743,9.512,3.333,9.621c-1.002,0.266-1.861,0.848-2.566,1.634 c-0.024,0.026-0.049,0.05-0.072,0.076C0.444,11.619,0.209,11.924,0,12.258c1.139-0.465,2.02-0.762,2.777-0.927 c0.978-0.213,1.744-0.198,2.551,0c0.85,0.209,1.751,0.615,3.014,1.161c1.058,0.457,2.232,0.668,3.368,0.476 c1.098-0.185,2.152-0.815,2.566-1.79c0.004-0.01,0.01-0.019,0.014-0.029c0.011-0.023,0.015-0.048,0.021-0.074 C14.327,11.002,14.327,10.923,14.284,10.848z"/></g></svg> 
