<?xml version="1.0" encoding="iso-8859-1"?><svg version="1.1" xmlns="http://www.w3.org/2000/svg" xmlns:xlink="http://www.w3.org/1999/xlink" x="0px" y="0px" viewBox="0 0 16 16" style="enable-background:new 0 0 16 16;" xml:space="preserve"><g id="dfl-exists"><g><path style="fill:#B796F9;" d="M6.143,3.188l4.455,4.455c0.183,0.183,0.183,0.48,0,0.663l-4.505,4.505 c-0.183,0.183-0.48,0.183-0.663,0L0.975,8.357c-0.183-0.183-0.183-0.48,0-0.663L5.48,3.188C5.663,3.005,5.96,3.005,6.143,3.188z" /><path style="fill:#472686;" d="M5.059,5.911c-1.319,0-2.392,1.073-2.392,2.392c0,0.621,0.244,1.182,0.633,1.607l-1.607,1.607 c-0.167,0.167-0.167,0.438,0,0.605s0.438,0.167,0.605,0l1.642-1.642c0.017-0.017,0.024-0.038,0.037-0.056 c0.327,0.168,0.691,0.271,1.083,0.271c1.319,0,2.392-1.073,2.392-2.392C7.451,6.984,6.378,5.911,5.059,5.911z M5.059,10.179 c-1.035,0-1.876-0.842-1.876-1.876c0-1.035,0.841-1.876,1.876-1.876s1.876,0.842,1.876,1.876 C6.935,9.337,6.094,10.179,5.059,10.179z"/><path style="fill:#472686;" d="M11.868,4.502l3.157,3.157c0.183,0.183,0.183,0.48,0,0.663l-3.195,3.195 c-0.183,0.183-0.48,0.183-0.663,0L8.01,8.36c-0.183-0.183-0.183-0.48,0-0.663l3.195-3.195C11.388,4.319,11.685,4.319,11.868,4.502 z"/></g></g></svg> 
