<?xml version="1.0" encoding="iso-8859-1"?><svg version="1.1" xmlns="http://www.w3.org/2000/svg" xmlns:xlink="http://www.w3.org/1999/xlink" x="0px" y="0px" viewBox="0 0 16 16" style="enable-background:new 0 0 16 16;" xml:space="preserve"><g id="dfl-filter"><polygon style="fill:#FDAD3B;" points="4.397,5.448 4.398,5.448 4.398,5.448 "/><g><ellipse style="fill:#FFFFFF;" cx="8" cy="3.224" rx="5.477" ry="1.68"/><ellipse style="fill:#D15900;" cx="8" cy="4.426" rx="4.43" ry="0.87"/><path style="fill:#F8941D;" d="M14.884,3.332c0-1.238-2.496-2.263-5.763-2.457C8.755,0.853,8.383,0.839,8,0.839 S7.245,0.853,6.879,0.875c-3.03,0.18-5.395,1.074-5.723,2.191c-0.026,0.088-0.04,0.176-0.04,0.267s0.015,0.179,0.04,0.267 c0.029,0.099,0.078,0.195,0.138,0.29l0.154,0.208l4.029,5.425h0l0.908,1.222v0.782v0.962v2.098c0,0.315,0.74,0.57,1.657,0.574 v0.001h0.02c0.001,0,0.002,0,0.003,0v0c0.928,0,1.68-0.257,1.68-0.575v-2.098v-0.962v-0.952l0.833-1.122h0l4.029-5.425 c-0.002,0.002-0.004,0.003-0.006,0.005C14.781,3.81,14.884,3.576,14.884,3.332z M8,4.903c-3.025,0-5.477-0.752-5.477-1.68 S4.975,1.544,8,1.544c3.025,0,5.477,0.752,5.477,1.68S11.025,4.903,8,4.903z"/></g></g></svg> 
