<?xml version="1.0" encoding="iso-8859-1"?><svg version="1.1" xmlns="http://www.w3.org/2000/svg" xmlns:xlink="http://www.w3.org/1999/xlink" x="0px" y="0px" viewBox="0 0 16 16" style="enable-background:new 0 0 16 16;" xml:space="preserve"><g id="dfl-target"><g><g><path style="fill:#005BA1;" d="M8,2.787c0,0-0.072,0-0.074,0c-0.145,0-5.337,0-5.337,0v10.426c0,1.073,2.384,1.943,5.337,1.958 v0.002h0.066c0.003,0,0.006,0,0.008,0v0c2.989,0,5.412-0.877,5.412-1.96V2.787H8z"/><path style="fill:#FFFFFF;" d="M13.412,2.787c0,1.082-2.423,1.96-5.412,1.96s-5.412-0.877-5.412-1.96S5.011,0.827,8,0.827 S13.412,1.704,13.412,2.787"/><path style="fill:#198AB3;" d="M12.305,2.674c0,0.715-1.928,1.293-4.305,1.293S3.694,3.388,3.694,2.674 C3.694,1.96,5.622,1.381,8,1.381S12.305,1.96,12.305,2.674"/><path style="fill:#50E6FF;" d="M11.403,3.464c0.564-0.219,0.902-0.492,0.902-0.79c0-0.715-1.928-1.293-4.306-1.293 c-2.378,0-4.305,0.579-4.305,1.293c0,0.297,0.339,0.571,0.902,0.79C5.384,3.159,6.614,2.961,8,2.961 C9.386,2.961,10.616,3.159,11.403,3.464"/></g><polygon style="fill:#BEDCF4;" points="9.176,9.786 6.824,7.433 6.824,12.138 "/><rect x="2.588" y="9.047" style="fill:#BEDCF4;" width="5.253" height="1.478"/></g></g></svg> 
