<?xml version="1.0" encoding="iso-8859-1"?><svg version="1.1" xmlns="http://www.w3.org/2000/svg" xmlns:xlink="http://www.w3.org/1999/xlink" x="0px" y="0px" viewBox="0 0 16 16" style="enable-background:new 0 0 16 16;" xml:space="preserve"><g id="dfl-join"><path style="fill:#B796F9;" d="M6.799,14.856H1.077c-0.139,0-0.252-0.113-0.252-0.252V8.882c0-0.139,0.113-0.252,0.252-0.252h5.723 c0.139,0,0.252,0.113,0.252,0.252v5.723C7.051,14.743,6.938,14.856,6.799,14.856z"/><path style="fill:#B796F9;" d="M6.799,7.37H1.077c-0.139,0-0.252-0.113-0.252-0.252V1.396c0-0.139,0.113-0.252,0.252-0.252h5.723 c0.139,0,0.252,0.113,0.252,0.252v5.723C7.051,7.257,6.938,7.37,6.799,7.37z"/><path style="fill:#502C93;" d="M14.931,11.361H6.097c-0.137,0-0.249-0.111-0.249-0.249V4.737c0-0.137,0.111-0.249,0.249-0.249 h8.834c0.137,0,0.249,0.111,0.249,0.249v6.376C15.179,11.25,15.068,11.361,14.931,11.361z"/><g><path style="fill:#F4F4F4;" d="M12.342,7.978L10.215,5.85v1.447c0,0,0,0-0.001,0c-3.322,0-6.024-2.702-6.024-6.025 c0-0.044,0.012-0.084,0.013-0.128H2.841C2.84,1.188,2.828,1.228,2.828,1.272c0,4.073,3.314,7.387,7.386,7.387c0,0,0,0,0.001,0 v1.446L12.342,7.978z"/><path style="fill:#F4F4F4;" d="M12.342,7.978l-2.127,2.127V8.659c0,0,0,0-0.001,0c-3.322,0-6.024,2.702-6.024,6.025 c0,0.044,0.012,0.084,0.013,0.128H2.841c-0.001-0.043-0.013-0.084-0.013-0.128c0-4.073,3.314-7.387,7.386-7.387c0,0,0,0,0.001,0 V5.85L12.342,7.978z"/></g></g></svg> 
