<?xml version="1.0" encoding="iso-8859-1"?><svg version="1.1" xmlns="http://www.w3.org/2000/svg" xmlns:xlink="http://www.w3.org/1999/xlink" x="0px" y="0px" viewBox="0 0 16 16" style="enable-background:new 0 0 16 16;" xml:space="preserve"><g id="dfl-derived"><path style="fill:#76BC2D;" d="M8.19,6.414H2.24c-0.396,0-0.717-0.321-0.717-0.717V3.339c0-0.396,0.321-0.717,0.717-0.717H8.19 c0.396,0,0.717,0.321,0.717,0.717v2.358C8.907,6.093,8.586,6.414,8.19,6.414z"/><path style="fill:#B4EC36;" d="M7.111,1.662v5.712c0,0.462-0.374,0.836-0.836,0.836h-2.12c-0.462,0-0.836-0.374-0.836-0.836V1.662 c0-0.462,0.374-0.836,0.836-0.836h2.12C6.737,0.825,7.111,1.2,7.111,1.662z"/><path style="fill:#558820;" d="M14.478,8.524v5.917c0,0.406-0.329,0.734-0.734,0.734h-2.324c-0.406,0-0.734-0.329-0.734-0.734 V8.524c0-0.406,0.329-0.734,0.734-0.734h2.324C14.149,7.79,14.478,8.118,14.478,8.524z"/><polygon style="fill:#999999;" points="9.82,12.35 8.086,10.615 8.086,11.737 5.774,11.737 5.774,9.426 4.702,9.426 4.702,11.737 4.702,12.809 5.774,12.809 8.086,12.809 8.086,14.085 "/></g></svg> 
