<?xml version="1.0" encoding="iso-8859-1"?><svg version="1.1" xmlns="http://www.w3.org/2000/svg" xmlns:xlink="http://www.w3.org/1999/xlink" x="0px" y="0px" viewBox="0 0 64 32" style="enable-background:new 0 0 64 32;" xml:space="preserve"><g id="dfl-task-filter"><g><polygon style="fill:#FFFFFF;" points="0,9 58.991,9 64,16.009 58.991,23.019 15.009,23.019 0,23.019 -0.001,16.009 "/><path style="fill:#BDBDBD;" d="M56.591,9h-1.2v0.5h1.2V9L56.591,9z M54.191,9h-1.2v0.5h1.2V9L54.191,9z M51.791,9h-1.2v0.5h1.2V9 L51.791,9z M49.391,9h-1.2v0.5h1.2V9L49.391,9z M46.991,9h-1.2v0.5h1.2V9L46.991,9z M44.591,9h-1.2v0.5h1.2V9L44.591,9z M42.191,9 h-1.2v0.5h1.2V9L42.191,9z M39.791,9h-1.2v0.5h1.2V9L39.791,9z M37.391,9h-1.2v0.5h1.2V9L37.391,9z M34.991,9h-1.2v0.5h1.2V9 L34.991,9z M32.591,9h-1.2v0.5h1.2V9L32.591,9z M30.191,9h-1.2v0.5h1.2V9L30.191,9z M27.791,9h-1.2v0.5h1.2V9L27.791,9z M25.391,9 h-1.2v0.5h1.2V9L25.391,9z M22.991,9h-1.2v0.5h1.2V9L22.991,9z M20.591,9h-1.2v0.5h1.2V9L20.591,9z M18.191,9h-1.2v0.5h1.2V9 L18.191,9z M15.791,9h-1.2v0.5h1.2V9L15.791,9z M13.391,9h-1.2v0.5h1.2V9L13.391,9z M10.991,9h-1.2v0.5h1.2V9L10.991,9z M8.591,9 h-1.2v0.5h1.2V9L8.591,9z M6.191,9h-1.2v0.5h1.2V9L6.191,9z M3.791,9h-1.2v0.5h1.2V9L3.791,9z M1.391,9h-1.2v0.5h1.2V9L1.391,9z M0,10.009l0,1.2l0.5,0l0-1.2L0,10.009L0,10.009z M0,12.409l0,1.2l0.5,0l0-1.2L0,12.409L0,12.409z M-0.001,14.809l0,0.953 c0,0,0,0.001,0,0.001v0.033c0,0,0,0,0,0v0.049c0,0.001,0,0.001,0,0.002v0.001c0,0,0,0.001,0,0.001v0.002c0,0,0,0,0,0v0.004 c0,0.001,0,0.001,0,0.002v0.001c0,0,0,0,0,0.001l0,0.006c0,0.001,0,0.001,0,0.002v0.001c0,0.001,0,0.002,0,0.004v0.001 c0,0.002,0,0.004,0,0.006v0.001c0,0,0,0,0,0v0.003c0,0,0,0.001,0,0.001v0.003c0,0.001,0,0.001,0,0.002v0.002 c0,0.001,0,0.002,0,0.002v0.004c0,0,0,0,0,0v0.005c0,0.002,0,0.003,0,0.005v0.001c0,0.001,0,0.002,0,0.004v0 c0,0.001,0,0.002,0,0.003v0.004c0,0.002,0,0.003,0,0.005v0.001c0,0.002,0,0.004,0,0.006v0.015c0,0.004,0,0.007,0,0.01v0.003 c0,0.004,0,0.008,0,0.011v0c0,0.011,0,0.02,0,0.026v0c0,0.009,0,0.013,0,0.013l0,0l0.5,0l0-1.2L-0.001,14.809L-0.001,14.809z M0.499,17.209l-0.5,0l0,1.2l0.5,0L0.499,17.209L0.499,17.209z M0.5,19.609l-0.5,0l0,1.2l0.5,0L0.5,19.609L0.5,19.609z M0.5,22.009l-0.5,0l0,0.977c0,0,0,0,0,0v0.004c0,0,0,0,0,0v0.003c0,0,0,0.001,0,0.001v0c0,0,0,0.001,0,0.001v0c0,0,0,0,0,0.001v0 c0,0,0,0,0,0v0c0,0,0,0,0,0v0c0,0,0,0,0,0v0.001c0,0,0,0,0,0v0c0,0,0,0,0,0v0c0,0,0,0,0,0v0c0,0,0,0,0,0.001v0c0,0,0,0,0,0.001 l0,0c0,0.001,0,0.002,0,0.003v0.001c0,0,0,0,0,0v0c0,0.001,0,0.001,0,0.002l0,0c0,0.002,0,0.004,0,0.006l0,0 c0,0.002,0,0.003,0,0.003l0,0h0.191v0l0.309,0l0,0l0,0l0,0L0.5,22.009L0.5,22.009z M2.591,22.519h-1.2v0.5h1.2V22.519 L2.591,22.519z M4.991,22.519h-1.2v0.5h1.2V22.519L4.991,22.519z M7.391,22.519h-1.2v0.5h1.2V22.519L7.391,22.519z M9.791,22.519 h-1.2v0.5h1.2V22.519L9.791,22.519z M12.191,22.519h-1.2v0.5h1.2V22.519L12.191,22.519z M14.591,22.519h-1.2v0.5h1.2V22.519 L14.591,22.519z M16.991,22.519h-1.2v0.5h1.2V22.519L16.991,22.519z M19.391,22.519h-1.2v0.5h1.2V22.519L19.391,22.519z M21.791,22.519h-1.2v0.5h1.2V22.519L21.791,22.519z M24.191,22.519h-1.2v0.5h1.2V22.519L24.191,22.519z M26.591,22.519h-1.2v0.5 h1.2V22.519L26.591,22.519z M28.991,22.519h-1.2v0.5h1.2V22.519L28.991,22.519z M31.391,22.519h-1.2v0.5h1.2V22.519L31.391,22.519 z M33.791,22.519h-1.2v0.5h1.2V22.519L33.791,22.519z M36.191,22.519h-1.2v0.5h1.2V22.519L36.191,22.519z M38.591,22.519h-1.2v0.5 h1.2V22.519L38.591,22.519z M40.991,22.519h-1.2v0.5h1.2V22.519L40.991,22.519z M43.391,22.519h-1.2v0.5h1.2V22.519L43.391,22.519 z M45.791,22.519h-1.2v0.5h1.2V22.519L45.791,22.519z M48.191,22.519h-1.2v0.5h1.2V22.519L48.191,22.519z M50.591,22.519h-1.2v0.5 h1.2V22.519L50.591,22.519z M52.991,22.519h-1.2v0.5h1.2V22.519L52.991,22.519z M55.391,22.519h-1.2v0.5h1.2V22.519L55.391,22.519 z M57.791,22.519h-1.2v0.5h1.2V22.519L57.791,22.519z M59.282,21.752l-0.698,0.976l0.407,0.291c0,0,0.533-0.746,0.667-0.934 l0.003-0.004c0,0,0,0,0-0.001l0.001-0.001c0-0.001,0.001-0.001,0.001-0.002l0,0c0-0.001,0.001-0.001,0.001-0.002l0.001-0.001 c0,0,0,0,0,0l0,0c0,0,0,0,0-0.001l0.001-0.001c0,0,0,0,0,0l0.021-0.03L59.282,21.752L59.282,21.752z M60.677,19.799l-0.698,0.976 l0.407,0.291l0.698-0.976L60.677,19.799L60.677,19.799z M62.072,17.847l-0.698,0.976l0.407,0.291c0,0,0.194-0.271,0.377-0.527 l0.002-0.002l0,0l0.319-0.447L62.072,17.847L62.072,17.847z M63.468,15.894L62.77,16.87l0.407,0.291l0.698-0.976L63.468,15.894 L63.468,15.894z M62.73,14.232l-0.407,0.291l0.698,0.976l0.407-0.291L62.73,14.232L62.73,14.232z M61.334,12.28l-0.407,0.291 l0.698,0.976l0.407-0.291c0,0-0.163-0.228-0.331-0.464l-0.002-0.003c0,0,0-0.001-0.001-0.001l-0.003-0.005 c0,0,0-0.001-0.001-0.001L61.334,12.28L61.334,12.28z M59.939,10.327l-0.407,0.291l0.698,0.976l0.407-0.291L59.939,10.327 L59.939,10.327z M58.991,9h-1.2v0.5h0.943l0.101,0.141l0.407-0.291L58.991,9L58.991,9L58.991,9z"/></g></g></svg> 
