<?xml version="1.0" encoding="iso-8859-1"?><svg version="1.1" xmlns="http://www.w3.org/2000/svg" xmlns:xlink="http://www.w3.org/1999/xlink" x="0px" y="0px" viewBox="0 0 16 16" style="enable-background:new 0 0 16 16;" xml:space="preserve"><g id="dfl-source"><g><path style="fill:#005BA1;" d="M8,2.787c0,0-0.072,0-0.074,0c-0.145,0-5.337,0-5.337,0v10.426c0,1.073,2.384,1.943,5.337,1.958 v0.002h0.066c0.003,0,0.006,0,0.008,0v0c2.989,0,5.412-0.877,5.412-1.96V2.787H8z"/><path style="fill:#FFFFFF;" d="M13.412,2.787c0,1.082-2.423,1.96-5.412,1.96s-5.412-0.877-5.412-1.96S5.011,0.827,8,0.827 S13.412,1.704,13.412,2.787"/><path style="fill:#198AB3;" d="M12.305,2.674c0,0.715-1.928,1.293-4.305,1.293S3.694,3.388,3.694,2.674 C3.694,1.96,5.622,1.381,8,1.381S12.305,1.96,12.305,2.674"/><path style="fill:#50E6FF;" d="M11.403,3.464c0.564-0.219,0.902-0.492,0.902-0.79c0-0.715-1.928-1.293-4.306-1.293 c-2.378,0-4.305,0.579-4.305,1.293c0,0.297,0.339,0.571,0.902,0.79C5.384,3.159,6.614,2.961,8,2.961 C9.386,2.961,10.616,3.159,11.403,3.464"/></g><polygon style="fill:#BEDCF4;" points="7.32,7.357 7.32,8.18 7.32,8.91 7.32,10.372 7.32,11.235 7.32,11.925 9.604,9.641 "/><polygon style="fill:#005BA1;" points="13.412,2.787 13.412,2.787 13.412,2.787 "/><polygon style="fill:#005BA1;" points="2.588,2.787 2.588,2.787 2.588,2.787 "/><path style="fill:#BEDCF4;" d="M8.589,10.18V8.804c-2.721,0.419-4.952,2.326-5.841,4.861c0.205,0.313,0.62,0.593,1.184,0.828 C4.541,12.306,6.334,10.609,8.589,10.18z"/><path style="fill:#FFFFFF;" d="M3.695,2.677c0-0.001-0.001-0.002-0.001-0.003C3.694,1.96,5.622,1.381,8,1.381 c2.081,0,3.817,0.443,4.218,1.033c0.057,0.084,0.088,0.172,0.088,0.261c0,0.038-0.021,0.075-0.032,0.112h1.138 c0-1.082-2.423-1.96-5.412-1.96c-2.989,0-5.411,0.877-5.412,1.96c0,0,0.475,0,1.138,0C3.716,2.75,3.696,2.714,3.695,2.677z"/><path style="fill:#FFFFFF;" d="M12.274,2.787c-0.013,0.043-0.023,0.087-0.049,0.128c-0.017,0.027-0.046,0.053-0.069,0.08 c-0.042,0.049-0.088,0.097-0.148,0.143c-0.041,0.032-0.089,0.063-0.139,0.094c-0.061,0.038-0.127,0.074-0.199,0.11 c-0.064,0.031-0.128,0.062-0.2,0.092c-0.024,0.01-0.042,0.021-0.067,0.031c-0.003-0.001-0.007-0.002-0.009-0.003 C10.606,3.767,9.386,3.967,8,3.967c-1.386,0-2.606-0.2-3.394-0.506C4.604,3.462,4.6,3.463,4.597,3.464 c-0.024-0.009-0.042-0.02-0.065-0.03c-0.074-0.03-0.14-0.062-0.205-0.094c-0.07-0.035-0.134-0.07-0.193-0.107 C4.083,3.202,4.033,3.17,3.991,3.137C3.933,3.092,3.889,3.046,3.848,2.999C3.824,2.97,3.793,2.943,3.775,2.914 C3.749,2.872,3.739,2.83,3.727,2.787c-0.663,0-1.138,0-1.138,0v0c0,1.082,2.423,1.96,5.412,1.96c2.989,0,5.412-0.877,5.412-1.96v0 H12.274z"/><path style="fill:#198AB3;" d="M8,1.381c2.08,0,3.816,0.443,4.218,1.032C11.817,1.824,10.081,1.381,8,1.381 c-2.378,0-4.306,0.579-4.306,1.293c0,0.001,0.001,0.002,0.001,0.003c0-0.001-0.001-0.002-0.001-0.002 C3.695,1.96,5.622,1.381,8,1.381z"/><path style="fill:#198AB3;" d="M3.848,2.999C3.823,2.97,3.793,2.943,3.775,2.914C3.793,2.943,3.824,2.97,3.848,2.999z"/><path style="fill:#198AB3;" d="M12.008,3.138c-0.041,0.032-0.089,0.063-0.139,0.094C11.918,3.201,11.966,3.17,12.008,3.138z"/><path style="fill:#198AB3;" d="M4.134,3.233c-0.051-0.032-0.1-0.064-0.143-0.096C4.033,3.17,4.083,3.202,4.134,3.233z"/><path style="fill:#198AB3;" d="M11.67,3.342c-0.063,0.031-0.128,0.062-0.2,0.092C11.542,3.404,11.606,3.373,11.67,3.342z"/><path style="fill:#198AB3;" d="M4.532,3.434c-0.074-0.03-0.14-0.062-0.205-0.094C4.392,3.372,4.458,3.404,4.532,3.434z"/><path style="fill:#198AB3;" d="M4.606,3.461C5.394,3.767,6.614,3.967,8,3.967c1.386,0,2.606-0.2,3.394-0.506 c-0.788-0.303-2.013-0.5-3.394-0.5C6.619,2.961,5.394,3.158,4.606,3.461z"/><path style="fill:#198AB3;" d="M12.224,2.915c-0.017,0.027-0.046,0.053-0.069,0.08C12.178,2.968,12.207,2.943,12.224,2.915z"/><path style="fill:#50E6FF;" d="M12.218,2.413c0.057,0.084,0.087,0.171,0.087,0.26c0,0.039-0.027,0.075-0.038,0.113h0.006 c0.011-0.037,0.032-0.074,0.032-0.112C12.305,2.585,12.275,2.498,12.218,2.413z"/><path style="fill:#50E6FF;" d="M3.695,2.677c0,0.037,0.02,0.073,0.031,0.11c0.002,0,0.004,0,0.006,0 C3.722,2.75,3.696,2.714,3.695,2.677z"/><path style="fill:#50E6FF;" d="M11.403,3.464c0.025-0.01,0.043-0.021,0.067-0.031c-0.024,0.01-0.052,0.018-0.076,0.028 C11.397,3.462,11.4,3.463,11.403,3.464z"/><path style="fill:#50E6FF;" d="M12.155,2.995c-0.042,0.049-0.088,0.097-0.148,0.143C12.067,3.092,12.113,3.044,12.155,2.995z"/><path style="fill:#50E6FF;" d="M11.869,3.232c-0.061,0.038-0.127,0.074-0.199,0.11C11.742,3.306,11.808,3.269,11.869,3.232z"/><path style="fill:#50E6FF;" d="M12.224,2.915c0.027-0.042,0.037-0.085,0.049-0.128h-0.006C12.255,2.83,12.25,2.873,12.224,2.915z" /><path style="fill:#50E6FF;" d="M3.727,2.787C3.739,2.83,3.749,2.872,3.775,2.914c-0.026-0.041-0.03-0.085-0.043-0.127 C3.73,2.787,3.729,2.787,3.727,2.787z"/><path style="fill:#50E6FF;" d="M4.597,3.464C4.6,3.463,4.604,3.462,4.606,3.461C4.582,3.452,4.555,3.444,4.532,3.434 C4.555,3.444,4.573,3.455,4.597,3.464z"/><path style="fill:#50E6FF;" d="M3.991,3.137C3.934,3.092,3.889,3.046,3.848,2.999C3.889,3.046,3.933,3.092,3.991,3.137z"/><path style="fill:#50E6FF;" d="M4.327,3.34c-0.07-0.035-0.134-0.07-0.193-0.107C4.193,3.27,4.257,3.305,4.327,3.34z"/><path style="fill:#50E6FF;" d="M7.926,2.787c0.002,0,0.074,0,0.074,0h4.267c0.011-0.038,0.038-0.074,0.038-0.113 c0-0.089-0.03-0.176-0.087-0.26C11.816,1.824,10.08,1.381,8,1.381c-2.378,0-4.305,0.579-4.305,1.293 c0,0.001,0.001,0.002,0.001,0.002c0,0.038,0.026,0.073,0.037,0.11C5.27,2.787,7.825,2.787,7.926,2.787z"/><path style="fill:#50E6FF;" d="M8,2.787c0,0-0.072,0-0.074,0c-0.101,0-2.656,0-4.193,0c0.012,0.043,0.017,0.086,0.043,0.127 C3.793,2.943,3.823,2.97,3.848,2.999c0.041,0.047,0.086,0.094,0.143,0.138C4.033,3.17,4.083,3.202,4.134,3.233 C4.193,3.27,4.257,3.306,4.327,3.34c0.065,0.032,0.131,0.064,0.205,0.094c0.023,0.009,0.05,0.018,0.074,0.027 c0.787-0.304,2.013-0.5,3.394-0.5c1.381,0,2.606,0.196,3.394,0.5c0.025-0.01,0.053-0.018,0.076-0.028 c0.072-0.029,0.136-0.06,0.2-0.092c0.072-0.036,0.138-0.072,0.199-0.11c0.049-0.031,0.097-0.062,0.139-0.094 c0.059-0.046,0.106-0.094,0.148-0.143c0.023-0.027,0.052-0.053,0.069-0.08c0.026-0.042,0.031-0.085,0.043-0.128H8z"/></g></svg> 
