<?xml version="1.0" encoding="iso-8859-1"?><svg version="1.1" xmlns="http://www.w3.org/2000/svg" xmlns:xlink="http://www.w3.org/1999/xlink" x="0px" y="0px" viewBox="0 0 64 32" style="enable-background:new 0 0 64 32;" xml:space="preserve"><g id="dfl-task-sink"><g><polygon style="fill:#FFFFFF;" points="0.34,31.75 5.252,16 0.34,0.25 58.807,0.25 63.738,16 58.807,31.75 "/><path style="fill:#BDBDBD;" d="M58.623,0.5L63.476,16l-4.853,15.5H15.009H0.68l4.788-15.351L5.514,16l-0.046-0.149L0.68,0.5 H58.623 M58.991,0H0l4.991,16L0,32h15.009h43.981L64,16L58.991,0L58.991,0z"/></g><g><rect x="49.24" y="0.25" style="fill:#F4F4F4;" width="14.51" height="31.5"/><g><path style="fill:#BDBDBD;" d="M63.5,0.5v31H49.491V15.792V0.5H63.5 M64,0H48.991v15.792V32H64V0L64,0z"/></g></g><g><g><polygon style="fill:#0078D4;" points="64,32 64,15.792 64,0 62.491,0 62.491,32 "/></g><g><polygon style="fill:#0078D4;" points="61.868,32 61.868,15.792 61.868,0 61.189,0 61.189,32 "/></g></g></g></svg> 
