<?xml version="1.0" encoding="iso-8859-1"?><svg version="1.1" xmlns="http://www.w3.org/2000/svg" xmlns:xlink="http://www.w3.org/1999/xlink" x="0px" y="0px" viewBox="0 0 16 16" style="enable-background:new 0 0 16 16;" xml:space="preserve"><g id="documentation"><g><path style="fill:#686969;" d="M14.408,9.274h-1.032V8.22c0-0.575-0.466-1.041-1.041-1.041h-0.182v0.781h0.182 c0.144,0,0.26,0.117,0.26,0.26v1.054h-0.442h-0.781H4.554H3.976c-0.067,0-0.135,0.026-0.203,0.038 c-0.514,0.092-1.032,0.495-1.217,1.003l-0.913,2.51V6.138c0-0.143,0.117-0.26,0.26-0.26h1.87V5.097h-1.87 c-0.575,0-1.041,0.466-1.041,1.041v7.743c0,0.575,0.466,1.041,1.041,1.041h0.017h10.415h0.017c0.575,0,1.21-0.466,1.42-1.041 l1.298-3.566C15.28,9.74,14.983,9.274,14.408,9.274z M13.376,12.686l-0.337,0.927c-0.106,0.292-0.462,0.527-0.686,0.527h-0.017 L1.996,14.138l1.294-3.556c0.078-0.213,0.288-0.393,0.483-0.477c0.072-0.031,0.143-0.051,0.203-0.051h0.577h6.819h0.781h0.442 h0.781h0.958L13.376,12.686z"/><g><path style="fill:#0088B6;" d="M11.113,1.079H4.814c-0.575,0-1.041,0.466-1.041,1.041v2.977v0.781v3.434 C3.841,9.3,3.909,9.274,3.976,9.274h0.577V5.878V5.097V2.12c0-0.144,0.117-0.26,0.26-0.26h6.299c0.143,0,0.26,0.117,0.26,0.26 v2.977v0.781v3.396h0.781V5.878V5.097V2.12C12.154,1.545,11.688,1.079,11.113,1.079z"/><path style="fill:#0088B6;" d="M10.329,4.023H5.598c-0.215,0-0.39-0.175-0.39-0.39V3.602c0-0.215,0.175-0.39,0.39-0.39h4.732 c0.215,0,0.39,0.175,0.39,0.39v0.032C10.719,3.849,10.545,4.023,10.329,4.023z"/><path style="fill:#0088B6;" d="M10.329,7.787H5.598c-0.215,0-0.39-0.175-0.39-0.39V7.365c0-0.215,0.175-0.39,0.39-0.39h4.732 c0.215,0,0.39,0.175,0.39,0.39v0.032C10.719,7.612,10.545,7.787,10.329,7.787z"/><path style="fill:#0088B6;" d="M10.329,5.905H5.598c-0.215,0-0.39-0.175-0.39-0.39V5.483c0-0.215,0.175-0.39,0.39-0.39h4.732 c0.215,0,0.39,0.175,0.39,0.39v0.032C10.719,5.731,10.545,5.905,10.329,5.905z"/></g></g></g></svg> 
