<?xml version="1.0" encoding="iso-8859-1"?><svg version="1.1" xmlns="http://www.w3.org/2000/svg" xmlns:xlink="http://www.w3.org/1999/xlink" x="0px" y="0px" viewBox="0 0 16 16" style="enable-background:new 0 0 16 16;" xml:space="preserve"><g id="dwh-sql-database-grey"><g><g><path style="fill:#686969;" d="M8,0.825c-2.989,0-5.413,0.878-5.413,1.96v10.429c0,1.074,2.384,1.945,5.339,1.959v0.001v0h0.059 c0.005,0,0.01,0,0.015,0v0h0c1.868,0,3.516-0.343,4.488-0.864c0.584-0.313,0.924-0.69,0.924-1.096V2.786 C13.413,1.703,10.989,0.825,8,0.825z"/><path style="fill:#E27730;" d="M12.306,2.673c0,0.715-1.928,1.294-4.306,1.294S3.694,3.387,3.694,2.673 c0-0.714,1.928-1.294,4.307-1.294S12.306,1.958,12.306,2.673"/><path style="fill:#FFFFFF;" d="M11.404,3.463c0.564-0.219,0.902-0.492,0.902-0.79c0-0.715-1.928-1.294-4.306-1.294 c-2.378,0-4.306,0.579-4.306,1.294c0,0.297,0.339,0.571,0.902,0.79C5.384,3.157,6.614,2.96,8,2.96 C9.387,2.96,10.616,3.157,11.404,3.463"/></g><g><rect x="8.187" y="8.699" transform="matrix(0.452 -0.892 0.892 0.452 -4.5788 13.0778)" style="fill:#FFFFFF;" width="0.335" height="3.132"/><rect x="6.176" y="8.027" transform="matrix(0.8287 -0.5597 0.5597 0.8287 -3.2603 5.7373)" style="fill:#FFFFFF;" width="3.132" height="0.336"/><path style="fill:#FFFFFF;" d="M4.72,8.069v2.458h2.428V8.069H4.72z M5.056,10.191V9.305h1.756v0.886H5.056z"/><path style="fill:#FFFFFF;" d="M8.852,6.018v2.459h2.428V6.018H8.852z M9.187,8.141V7.242h1.757v0.899H9.187z"/><path style="fill:#FFFFFF;" d="M8.852,10.119v2.458h2.428v-2.458H8.852z M9.187,12.242v-0.965h1.757v0.965H9.187z"/></g></g></g></svg> 
