<?xml version="1.0" encoding="iso-8859-1"?><svg version="1.1" xmlns="http://www.w3.org/2000/svg" xmlns:xlink="http://www.w3.org/1999/xlink" x="0px" y="0px" viewBox="0 0 14.165 12.482" style="enable-background:new 0 0 14.165 12.482;" xml:space="preserve"><g id="edge-layouts"><g><path style="fill:#555555;" d="M4.597,12.17h-0.56v-1.25h0.56l0.293,1.224C4.795,12.16,4.697,12.17,4.597,12.17z"/><rect x="2.55" y="10.92" style="fill:#555555;" width="0.743" height="1.25"/><path style="fill:#555555;" d="M5.895,11.522l-0.998-0.752c0.034-0.046,0.075-0.121,0.075-0.226l1.25-0.098 C6.222,10.901,6.109,11.239,5.895,11.522z"/><rect x="4.972" y="8.961" style="fill:#555555;" width="1.25" height="0.743"/><rect x="4.972" y="7.476" style="fill:#555555;" width="1.25" height="0.742"/><rect x="4.972" y="5.989" style="fill:#555555;" width="1.25" height="0.743"/><rect x="4.972" y="4.502" style="fill:#555555;" width="1.25" height="0.743"/><path style="fill:#555555;" d="M6.222,3.76h-1.25V3.625c0-0.246,0.025-0.491,0.074-0.73L6.27,3.146 C6.238,3.302,6.222,3.463,6.222,3.625V3.76z"/><path style="fill:#555555;" d="M6.458,2.59L5.332,2.047c0.13-0.271,0.294-0.524,0.488-0.753l0.956,0.805 C6.65,2.249,6.543,2.414,6.458,2.59z"/><path style="fill:#555555;" d="M7.206,1.698L6.474,0.686C6.717,0.51,6.982,0.364,7.261,0.254L7.72,1.417 C7.538,1.489,7.366,1.583,7.206,1.698z"/><path style="fill:#555555;" d="M8.298,1.269l-0.152-1.24C8.285,0.011,8.425,0.001,8.568,0h0.375v1.25H8.597 C8.495,1.25,8.397,1.257,8.298,1.269z"/><polygon style="fill:#555555;" points="10.492,0 10.397,0 9.717,0 9.717,1.25 10.397,1.25 10.492,1.25 11.641,1.25 11.641,0 "/><circle style="fill:#555555;" cx="0.937" cy="11.545" r="0.937"/></g><polygon style="fill:#555555;" points="12.755,5.568 12.293,5.568 10.643,5.568 10.136,5.568 8.771,5.568 11.468,9.281 14.165,5.568 "/></g></svg> 
