<?xml version="1.0" encoding="iso-8859-1"?><svg version="1.1" xmlns="http://www.w3.org/2000/svg" xmlns:xlink="http://www.w3.org/1999/xlink" x="0px" y="0px" viewBox="0 0 16 16" style="enable-background:new 0 0 16 16;" xml:space="preserve"><g id="expand-toggle"><path style="fill:#555555;" d="M14.019,0.826H1.981c-0.619,0-1.123,0.504-1.123,1.123v12.102c0,0.619,0.504,1.123,1.123,1.123 h12.038c0.619,0,1.123-0.504,1.123-1.123V1.949C15.142,1.33,14.638,0.826,14.019,0.826z M13.94,3.728v10.243H9.332H2.06V4.862V3.66 V2.028h11.88V3.728z"/><polygon style="fill:#555555;" points="9.807,11.401 9.532,11.126 4.957,6.551 4.524,6.118 3.432,5.026 3.432,12.65 11.057,12.651 "/><path style="fill:#555555;" d="M14.019,0.826H1.981c-0.619,0-1.123,0.504-1.123,1.123v12.102c0,0.619,0.504,1.123,1.123,1.123 h12.038c0.619,0,1.123-0.504,1.123-1.123V1.949C15.142,1.33,14.638,0.826,14.019,0.826z M13.94,3.728v10.243H9.332H2.06V4.862V3.66 V2.028h11.88V3.728z"/></g></svg> 
