<?xml version="1.0" encoding="iso-8859-1"?><svg version="1.1" xmlns="http://www.w3.org/2000/svg" xmlns:xlink="http://www.w3.org/1999/xlink" x="0px" y="0px" viewBox="0 0 16 16" style="enable-background:new 0 0 16 16;" xml:space="preserve"><g id="expression"><g><path style="fill:#555555;" d="M10.728,9.372c-0.109,0.135-0.197,0.253-0.294,0.364c-0.393,0.45-0.781,0.905-1.188,1.343 c-0.274,0.294-0.599,0.525-1.017,0.572c-0.129,0.014-0.263,0.023-0.39,0.003c-0.447-0.071-0.694-0.45-0.605-0.909 c0.086-0.443,0.501-0.731,0.935-0.63c0.175,0.041,0.344,0.117,0.51,0.189c0.303,0.132,0.591,0.093,0.819-0.129 c0.29-0.282,0.538-0.607,0.82-0.897c0.233-0.24,0.276-0.479,0.159-0.8c-0.256-0.7-0.471-1.415-0.708-2.122 C9.735,6.252,9.679,6.152,9.624,6.055C9.413,5.69,9.139,5.558,8.722,5.618C8.648,5.628,8.574,5.641,8.5,5.652 C8.473,5.448,8.502,5.402,8.689,5.37c0.717-0.124,1.435-0.246,2.152-0.372c0.091-0.016,0.141,0.006,0.192,0.088 c0.383,0.632,0.656,1.308,0.832,2.024c0.011,0.045,0.023,0.09,0.041,0.163c0.043-0.06,0.073-0.103,0.105-0.144 c0.378-0.498,0.745-1.005,1.138-1.491c0.242-0.3,0.535-0.561,0.937-0.623c0.189-0.029,0.395-0.03,0.58,0.013 c0.368,0.086,0.544,0.431,0.485,0.876c-0.046,0.344-0.33,0.613-0.679,0.603c-0.212-0.006-0.429-0.04-0.633-0.099 c-0.406-0.117-0.754-0.025-1.011,0.292c-0.266,0.328-0.491,0.691-0.73,1.041c-0.02,0.029-0.023,0.081-0.013,0.116 c0.21,0.736,0.42,1.472,0.741,2.169c0.07,0.151,0.162,0.297,0.271,0.422c0.218,0.251,0.516,0.262,0.748,0.024 c0.195-0.2,0.365-0.424,0.557-0.651c0.064,0.037,0.139,0.08,0.209,0.121c0.003,0.018,0.008,0.029,0.005,0.035 c-0.308,0.505-0.655,0.979-1.133,1.34c-0.254,0.192-0.532,0.33-0.856,0.35c-0.538,0.033-0.975-0.166-1.227-0.646 c-0.211-0.403-0.365-0.836-0.54-1.257C10.812,9.645,10.778,9.52,10.728,9.372z"/><path style="fill:#555555;" d="M9.665,1.64c-0.931-0.158-1.77,0.075-2.512,0.653c-0.485,0.378-0.854,0.86-1.177,1.379 c-0.19,0.305-0.368,0.617-0.558,0.922C5.261,4.845,5.023,4.968,4.732,4.997C4.609,5.01,4.45,4.986,4.374,5.053 c-0.08,0.07-0.081,0.23-0.115,0.351C4.22,5.541,4.184,5.678,4.14,5.837c0.338,0,0.648,0,0.966,0 C5.091,5.905,5.08,5.955,5.067,6.004C4.829,6.94,4.593,7.877,4.351,8.811C4,10.161,3.645,11.51,3.289,12.858 c-0.108,0.41-0.299,0.778-0.628,1.054c-0.094,0.079-0.228,0.114-0.349,0.15c-0.039,0.012-0.096-0.036-0.145-0.056 c0.019-0.044,0.028-0.095,0.058-0.131c0.281-0.343,0.112-0.825-0.32-0.913c-0.299-0.061-0.56,0.013-0.793,0.183 c-0.016,0.01-0.03,0.021-0.045,0.032c-0.017,0.014-0.036,0.023-0.053,0.038c0,0.003,0,0.005,0,0.008 c-0.1,0.094-0.168,0.215-0.174,0.341c-0.01,0.183,0.057,0.345,0.174,0.48c0,0.004,0,0.009,0,0.013 c0.011,0.011,0.025,0.017,0.036,0.028c0.046,0.046,0.1,0.087,0.161,0.125c0.116,0.076,0.24,0.137,0.384,0.159 c0.603,0.094,1.183,0.017,1.735-0.243c0.692-0.326,1.16-0.882,1.534-1.528c0.458-0.791,0.732-1.655,0.968-2.529 c0.363-1.351,0.7-2.71,1.045-4.066c0.03-0.117,0.059-0.187,0.207-0.177c0.242,0.016,0.486,0.006,0.729,0.003 C7.847,5.828,7.908,5.812,7.916,5.79c0.082-0.25,0.156-0.503,0.24-0.782c-0.351,0-0.675,0-1.002,0 C7.157,4.969,7.155,4.95,7.16,4.933C7.304,4.366,7.477,3.81,7.734,3.284c0.211-0.431,0.464-0.833,0.837-1.145 c0.16-0.135,0.34-0.232,0.557-0.232c0.164-0.001,0.241,0.108,0.18,0.261c-0.04,0.099-0.101,0.19-0.144,0.288 C9.062,2.689,9.077,2.911,9.255,3.106c0.345,0.378,0.994,0.217,1.15-0.283C10.582,2.26,10.27,1.743,9.665,1.64z"/></g></g></svg> 
