<?xml version="1.0" encoding="iso-8859-1"?><svg version="1.1" xmlns="http://www.w3.org/2000/svg" xmlns:xlink="http://www.w3.org/1999/xlink" x="0px" y="0px" viewBox="0 0 16 16" style="enable-background:new 0 0 16 16;" xml:space="preserve"><g id="fact-color"><g><path style="fill:#0088B6;" d="M9.626,8.063L7.818,9.5v1.786h0.875c1.449,0,1.835-0.386,2.492-1.854l0.676,0.135l-0.753,3.805 H7.818v1.809h5.681l1.437-1.808v-5.31H9.626z"/><path style="fill:#686969;" d="M7.818,11.286H3.826L8.21,6.304L4.791,1.668h2.858c1.198,0,1.623,0.231,1.951,0.831 c0.27,0.483,0.483,0.888,0.676,1.603l0.676-0.096c-0.097-1.391-0.193-2.858-0.213-3.187H1.295v0.502l4.597,6.2L1.064,12.89v0.483 h6.754V11.286z"/></g></g></svg> 
