<?xml version="1.0" encoding="iso-8859-1"?><svg version="1.1" xmlns="http://www.w3.org/2000/svg" xmlns:xlink="http://www.w3.org/1999/xlink" x="0px" y="0px" viewBox="0 0 16 16" style="enable-background:new 0 0 16 16;" xml:space="preserve"><g id="files-grey"><g><path id="XMLID_73_" style="fill:#686969;" d="M10.875,0.821H4.53c-0.273,0-0.497,0.224-0.497,0.497V12.83 c0,0.273,0.224,0.497,0.497,0.497h8.944c0.273,0,0.497-0.224,0.497-0.497V3.989L10.875,0.821z M12.998,12.416H5.006V1.732h5.373 V4.47l2.619,0.015V12.416z"/><path style="fill:#686969;" d="M10.994,14.268h-0.977H3.002V4.491V3.584V2.674H2.526c-0.273,0-0.497,0.224-0.497,0.497v11.511 c0,0.273,0.224,0.497,0.497,0.497h8.944c0.273,0,0.497-0.224,0.497-0.497v-0.414H10.994z"/><g><rect id="XMLID_81_" x="5.729" y="4.507" style="fill:#E27730;" width="2.786" height="0.943"/><rect id="XMLID_80_" x="5.729" y="6.392" style="fill:#E27730;" width="6.557" height="0.562"/><rect id="XMLID_79_" x="5.729" y="7.491" style="fill:#E27730;" width="6.557" height="0.562"/><rect id="XMLID_78_" x="5.729" y="8.616" style="fill:#E27730;" width="6.557" height="0.562"/><rect id="XMLID_77_" x="5.718" y="9.695" style="fill:#E27730;" width="6.557" height="0.562"/><rect id="XMLID_76_" x="5.718" y="10.819" style="fill:#E27730;" width="4.165" height="0.562"/></g></g></g></svg> 
