<?xml version="1.0" encoding="iso-8859-1"?><svg version="1.1" xmlns="http://www.w3.org/2000/svg" xmlns:xlink="http://www.w3.org/1999/xlink" x="0px" y="0px" viewBox="0 0 16 16" style="enable-background:new 0 0 16 16;" xml:space="preserve"><g id="file-color"><g><path id="XMLID_70_" style="fill:#686969;" d="M10.148,0.833H2.874c-0.313,0-0.57,0.256-0.57,0.57v13.196 c0,0.313,0.256,0.57,0.57,0.57h10.253c0.313,0,0.57-0.256,0.57-0.57V4.464L10.148,0.833z M12.581,14.123H3.419V1.877h6.159v3.139 l3.002,0.018V14.123z"/><rect id="XMLID_69_" x="4.381" y="4.891" style="fill:#0088B6;" width="3.085" height="1.044"/><rect id="XMLID_68_" x="4.381" y="6.979" style="fill:#0088B6;" width="7.262" height="0.623"/><rect id="XMLID_67_" x="4.381" y="8.197" style="fill:#0088B6;" width="7.262" height="0.623"/><rect id="XMLID_66_" x="4.381" y="9.442" style="fill:#0088B6;" width="7.262" height="0.623"/><rect id="XMLID_65_" x="4.369" y="10.637" style="fill:#0088B6;" width="7.262" height="0.623"/><rect id="XMLID_62_" x="4.369" y="11.883" style="fill:#0088B6;" width="4.613" height="0.623"/></g></g></svg> 
