<?xml version="1.0" encoding="iso-8859-1"?><svg version="1.1" xmlns="http://www.w3.org/2000/svg" xmlns:xlink="http://www.w3.org/1999/xlink" x="0px" y="0px" viewBox="0 0 16 16" style="enable-background:new 0 0 16 16;" xml:space="preserve"><g id="folder-color"><path style="fill:#DCB67A;" d="M14.217,2.361H7.068c-0.201,0-0.37,0.115-0.455,0.279L6.606,2.643l-0.01,0.022 C6.596,2.667,6.595,2.668,6.594,2.67L5.849,4.345H1.8c-0.293,0-0.531,0.238-0.531,0.531v8.232c0,0.293,0.238,0.531,0.531,0.531 h12.4c0.293,0,0.531-0.238,0.531-0.531V5.2h0V4.629V2.863C14.731,2.586,14.5,2.361,14.217,2.361z M7.287,3.216h6.588v1.129h-7.09 L7.287,3.216z"/></g></svg> 
