<?xml version="1.0" encoding="iso-8859-1"?><svg version="1.1" xmlns="http://www.w3.org/2000/svg" xmlns:xlink="http://www.w3.org/1999/xlink" x="0px" y="0px" viewBox="0 0 16 16" style="enable-background:new 0 0 16 16;" xml:space="preserve"><g id="hub-color"><circle style="fill:#0088B6;" cx="8" cy="8" r="2.965"/><g><path style="fill:#686969;" d="M12.174,2.326c0.827,0,1.5,0.673,1.5,1.5v8.348c0,0.827-0.673,1.5-1.5,1.5H3.826 c-0.827,0-1.5-0.673-1.5-1.5V3.826c0-0.827,0.673-1.5,1.5-1.5H12.174 M12.174,0.826H3.826c-1.657,0-3,1.343-3,3v8.348 c0,1.657,1.343,3,3,3h8.348c1.657,0,3-1.343,3-3V3.826C15.174,2.169,13.831,0.826,12.174,0.826L12.174,0.826z"/></g></g></svg> 
