<?xml version="1.0" encoding="iso-8859-1"?><svg version="1.1" xmlns="http://www.w3.org/2000/svg" xmlns:xlink="http://www.w3.org/1999/xlink" x="0px" y="0px" viewBox="0 0 16 16" style="enable-background:new 0 0 16 16;" xml:space="preserve"><g id="import-metadata"><g><path style="fill:#FFFFFF;" d="M13.218,0.817H2.782c-1.079,0-1.957,0.878-1.957,1.957v3.261H2.13V2.774 c0-0.359,0.292-0.652,0.652-0.652h10.436c0.36,0,0.652,0.293,0.652,0.652V13.21c0,0.36-0.292,0.652-0.652,0.652H2.782 c-0.36,0-0.652-0.292-0.652-0.652v-3.206H0.825v3.206c0,1.079,0.878,1.957,1.957,1.957h10.436c1.079,0,1.957-0.878,1.957-1.957 V2.774C15.175,1.695,14.297,0.817,13.218,0.817z"/><polygon style="fill:#FFFFFF;" points="0.825,8.644 7.12,8.644 5.582,10.183 6.504,11.106 9.601,8.008 6.504,4.91 5.582,5.831 7.089,7.34 0.825,7.34 "/></g></g></svg> 
