<?xml version="1.0" encoding="iso-8859-1"?><svg version="1.1" xmlns="http://www.w3.org/2000/svg" xmlns:xlink="http://www.w3.org/1999/xlink" x="0px" y="0px" viewBox="0 0 16 16" style="enable-background:new 0 0 16 16;" xml:space="preserve"><g id="import-metadata-color"><g><path style="fill:#686969;" d="M13.218,0.825H2.782c-1.079,0-1.957,0.878-1.957,1.957v3.261H2.13V2.782 c0-0.359,0.292-0.652,0.652-0.652h10.436c0.36,0,0.652,0.293,0.652,0.652v10.436c0,0.36-0.292,0.652-0.652,0.652H2.782 c-0.36,0-0.652-0.292-0.652-0.652v-3.206H0.825v3.206c0,1.079,0.878,1.957,1.957,1.957h10.436c1.079,0,1.957-0.878,1.957-1.957 V2.782C15.175,1.703,14.297,0.825,13.218,0.825z"/><polygon style="fill:#0088B6;" points="0.825,8.652 7.12,8.652 5.582,10.191 6.504,11.114 9.601,8.016 6.504,4.918 5.582,5.839 7.089,7.348 0.825,7.348 "/></g></g></svg> 
