<?xml version="1.0" encoding="iso-8859-1"?>
<!-- Generator: Adobe Illustrator 27.3.0, SVG Export Plug-In . SVG Version: 6.00 Build 0)  -->
<svg version="1.1" xmlns="http://www.w3.org/2000/svg" xmlns:xlink="http://www.w3.org/1999/xlink" x="0px" y="0px"
	 viewBox="0 0 16 16" style="enable-background:new 0 0 16 16;" xml:space="preserve">
<g id="Folder">
	<g>
		<path style="fill:none;" d="M6.466,5.732c-0.113,0-0.226-0.008-0.349-0.008H1.765c-0.047,0-0.078-0.015-0.12-0.019v6.285h12.884
			V4.478H8.385l-0.527,0.47C7.193,5.65,6.833,5.732,6.466,5.732z"/>
		<path style="fill:none;" d="M7.343,3.218L7.321,3.199l-0.02-0.021C6.776,2.624,6.597,2.624,6.466,2.624
			c-0.046,0-0.092,0.002-0.139,0.003C6.259,2.63,6.19,2.632,6.117,2.632H1.765c-0.092,0-0.125,0.017-0.126,0.017
			c0.001,0.002-0.016,0.039-0.016,0.11v0.636v0.333h6.29L7.343,3.218z"/>
		<path style="fill:none;" d="M1.646,5.062c0.004,0,0.04,0.012,0.119,0.012h4.352c0.072,0,0.142,0.002,0.21,0.005
			C6.374,5.081,6.42,5.082,6.466,5.082c0.131,0,0.31,0,0.836-0.554l0.02-0.021l0.021-0.019l0.012-0.011h-5.71v0.581
			C1.645,5.059,1.645,5.062,1.646,5.062C1.646,5.062,1.646,5.062,1.646,5.062z"/>
		<path style="fill:#005BA1;" d="M14.823,3.458H8.581C8.514,3.461,8.449,3.44,8.396,3.399L6.61,2.214
			C6.554,2.18,6.49,2.163,6.425,2.163H1.177c-0.183,0-0.332,0.146-0.337,0.328v11.018c0.005,0.183,0.154,0.328,0.337,0.328h13.646
			c0.183,0,0.332-0.146,0.337-0.328V3.795C15.16,3.609,15.009,3.458,14.823,3.458z"/>
		<path style="fill:#FFFFFF;" d="M2.28,2.819h2.982c0.074,0,0.135,0.06,0.135,0.135v0.379c0,0.074-0.06,0.135-0.135,0.135H2.28
			c-0.074,0-0.135-0.06-0.135-0.135V2.954C2.145,2.879,2.206,2.819,2.28,2.819z"/>
		<path style="fill:#1AC3F2;" d="M2.238,2.819h0.463c0.051,0,0.093,0.041,0.093,0.093v0.463c0,0.051-0.041,0.093-0.093,0.093H2.238
			c-0.051,0-0.093-0.041-0.093-0.093V2.912C2.145,2.861,2.187,2.819,2.238,2.819z"/>
		
			<linearGradient id="SVGID_1_" gradientUnits="userSpaceOnUse" x1="8.2014" y1="16.4128" x2="7.8728" y2="3.3059" gradientTransform="matrix(1 0 0 -1 0 17.665)">
			<stop  offset="0" style="stop-color:#32D4F5"/>
			<stop  offset="0.23" style="stop-color:#31D0F1"/>
			<stop  offset="0.46" style="stop-color:#2CC3E6"/>
			<stop  offset="0.7" style="stop-color:#25AFD4"/>
			<stop  offset="0.94" style="stop-color:#1C92BA"/>
			<stop  offset="1" style="stop-color:#198AB3"/>
		</linearGradient>
		<path style="fill:url(#SVGID_1_);" d="M14.823,3.459H8C7.91,3.456,7.824,3.493,7.764,3.56L6.627,4.655
			C6.562,4.714,6.478,4.747,6.391,4.748H1.177c-0.186,0-0.337,0.151-0.337,0.337l0,0v8.423c0.005,0.183,0.154,0.329,0.337,0.329
			h13.646c0.183,0,0.332-0.146,0.337-0.329V3.813c0.009-0.186-0.134-0.344-0.32-0.353C14.834,3.459,14.829,3.459,14.823,3.459z"/>
	</g>
</g>
<g id="Layer_1">
</g>
</svg>
