<?xml version="1.0" encoding="iso-8859-1"?><svg version="1.1" xmlns="http://www.w3.org/2000/svg" xmlns:xlink="http://www.w3.org/1999/xlink" x="0px" y="0px" viewBox="0 0 16 16" style="enable-background:new 0 0 16 16;" xml:space="preserve"><g id="key-vault"><g><path style="fill:#1490DF;" d="M8,0.825C4.037,0.825,0.825,4.037,0.825,8c0,3.963,3.212,7.175,7.175,7.175 c3.963,0,7.175-3.212,7.175-7.175C15.175,4.037,11.963,0.825,8,0.825z M8,14.339c-3.495,0-6.339-2.844-6.339-6.339 c0-3.495,2.844-6.339,6.339-6.339S14.339,4.505,14.339,8C14.339,11.495,11.495,14.339,8,14.339z"/><g><path style="fill:#FFD70F;" d="M12.304,4.994l-3.78-3.78c-0.29-0.29-0.759-0.29-1.049,0l-3.78,3.78 c-0.29,0.29-0.29,0.759,0,1.049l2.671,2.671l0,4.77l1.519,1.519l2.064-2.064L9.261,12.25l0.688-0.688l-0.688-0.688l0.688-0.688 L9.055,9.292l3.249-3.249C12.594,5.753,12.594,5.284,12.304,4.994z M8,4.419c-0.553,0-1.002-0.449-1.002-1.002 S7.447,2.415,8,2.415s1.002,0.449,1.002,1.002S8.553,4.419,8,4.419z"/><rect x="5.754" y="5.318" style="fill:#FFB307;" width="4.491" height="0.584"/><rect x="5.754" y="6.299" style="fill:#FFB307;" width="4.491" height="0.379"/><rect x="5.275" y="10.957" transform="matrix(4.475537e-11 -1 1 4.475537e-11 -3.6255 18.667)" style="fill:#FFB118;" width="4.491" height="0.379"/></g></g></g></svg> 
