<?xml version="1.0" encoding="iso-8859-1"?><svg version="1.1" xmlns="http://www.w3.org/2000/svg" xmlns:xlink="http://www.w3.org/1999/xlink" x="0px" y="0px" viewBox="0 0 16 16" style="enable-background:new 0 0 16 16;" xml:space="preserve"><g id="layout-refresh"><path style="fill:#686969;" d="M11.903,8.593H9.322c-0.199,0-0.361,0.162-0.361,0.361v1.434c0,0.199,0.162,0.361,0.361,0.361h2.581 c0.199,0,0.361-0.162,0.361-0.361V8.954C12.264,8.755,12.102,8.593,11.903,8.593z"/><path style="fill:#686969;" d="M11.903,0.825H9.322c-0.199,0-0.361,0.162-0.361,0.361V2.62c0,0.199,0.162,0.361,0.361,0.361h2.581 c0.199,0,0.361-0.162,0.361-0.361V1.186C12.264,0.987,12.102,0.825,11.903,0.825z"/><path style="fill:#686969;" d="M5.665,5.231H4.61V4.829c0-0.142-0.116-0.258-0.258-0.258H3.981H3.176H2.202H1.592H1.083 c-0.142,0-0.258,0.116-0.258,0.258v1.778c0,0.142,0.116,0.258,0.258,0.258h3.269c0.142,0,0.258-0.116,0.258-0.258V6.206h1.055 V5.231z"/><path style="fill:#555555;" d="M8.395,6.15c-0.031,0.021-0.058,0.048-0.088,0.07h0.088V6.15z"/><path style="fill:#0088B6;" d="M10.728,5.338c-2.37,0-4.297,1.928-4.297,4.297c0,0.798,0.246,1.618,0.692,2.31l0.059,0.091 l0.82-0.636l-0.048-0.077c-0.326-0.518-0.499-1.102-0.499-1.688c0-1.805,1.468-3.272,3.273-3.272s3.273,1.468,3.273,3.272 c0,1.611-1.202,3.004-2.797,3.238l-0.082,0.012V12.75v-0.906v-0.263l-2.319,1.797l2.319,1.797v-0.604v-0.494v-0.16l0.108-0.012 c2.163-0.252,3.794-2.087,3.794-4.269C15.024,7.266,13.097,5.338,10.728,5.338z"/><path style="fill:#686969;" d="M10.728,5.063c0.542,0,1.054,0.111,1.537,0.285V5.07c0-0.199-0.162-0.361-0.361-0.361H9.322 c-0.199,0-0.361,0.162-0.361,0.361V5.42C9.505,5.191,10.102,5.063,10.728,5.063z"/><path style="fill:#686969;" d="M10.728,6.638c-0.403,0-0.786,0.082-1.137,0.227h2.274C11.513,6.721,11.13,6.638,10.728,6.638z"/><path style="fill:#686969;" d="M7.729,9.636c0,0.181,0.025,0.362,0.06,0.541h0.605V9.144H7.779 C7.752,9.305,7.729,9.467,7.729,9.636z"/><path style="fill:#686969;" d="M7.334,6.601V6.219H7.72c0.21-0.185,0.433-0.35,0.674-0.494V5.187H7.334V2.434h1.061V1.402H6.789 c-0.284,0-0.516,0.232-0.516,0.516v6.719C6.446,7.864,6.822,7.172,7.334,6.601z"/></g></svg> 
