<?xml version="1.0" encoding="iso-8859-1"?><svg version="1.1" xmlns="http://www.w3.org/2000/svg" xmlns:xlink="http://www.w3.org/1999/xlink" x="0px" y="0px" viewBox="0 0 12.623 12.628" style="enable-background:new 0 0 12.623 12.628;" xml:space="preserve"><g id="link-color"><g><path style="fill:#0088B6;" d="M7.002,0.965L5.309,2.658c0.339-0.053,0.684-0.079,1.033-0.046c0.211,0.02,0.415,0.062,0.615,0.111 l0.902-0.902c0.812-0.812,2.133-0.812,2.946,0c0.812,0.812,0.812,2.133,0,2.946L9.902,5.669L9.209,6.362L8.15,7.421 c-0.13,0.13-0.288,0.203-0.44,0.292C7.373,7.909,6.993,7.987,6.617,7.985C6.105,7.983,5.598,7.814,5.205,7.421 C4.858,7.075,4.672,6.64,4.63,6.192L3.985,6.837L3.641,7.18c0.157,0.398,0.384,0.774,0.707,1.097 C4.671,8.6,5.047,8.827,5.445,8.984C5.74,9.1,6.047,9.181,6.359,9.212c0.782,0.076,1.58-0.123,2.245-0.605 c0.139-0.101,0.277-0.204,0.403-0.329l2.654-2.654c0.171-0.171,0.316-0.359,0.442-0.555c0.818-1.275,0.673-2.989-0.442-4.104 C10.374-0.322,8.288-0.322,7.002,0.965z"/><path style="fill:#686969;" d="M7.178,3.644C6.883,3.528,6.576,3.446,6.264,3.416C5.481,3.34,4.684,3.539,4.019,4.021 C3.88,4.122,3.742,4.225,3.617,4.35L0.963,7.004C0.791,7.176,0.646,7.363,0.52,7.559c-0.818,1.275-0.673,2.989,0.442,4.104 c1.286,1.286,3.372,1.286,4.659,0L7.314,9.97c-0.339,0.053-0.684,0.079-1.033,0.046c-0.211-0.02-0.415-0.062-0.615-0.111 l-0.902,0.902c-0.812,0.812-2.133,0.812-2.946,0c-0.812-0.812-0.812-2.133,0-2.946l0.902-0.902l0.693-0.693l1.059-1.059 c0.13-0.13,0.288-0.203,0.44-0.292C5.251,4.718,5.63,4.641,6.006,4.642c0.512,0.003,1.019,0.171,1.412,0.564 c0.346,0.346,0.533,0.78,0.575,1.229l0.645-0.645l0.343-0.343C8.825,5.049,8.598,4.673,8.275,4.35 C7.952,4.028,7.576,3.801,7.178,3.644z"/></g></g></svg> 
