<?xml version="1.0" encoding="iso-8859-1"?><svg version="1.1" xmlns="http://www.w3.org/2000/svg" xmlns:xlink="http://www.w3.org/1999/xlink" x="0px" y="0px" viewBox="0 0 16 16" style="enable-background:new 0 0 16 16;" xml:space="preserve"><g id="load-defaults"><g><path style="fill:#555555;" d="M13.979,3.516h-0.598V2.918h-1.196v0.598H10.99V1.722H5.608v1.794H3.815V2.918H2.619v0.598H2.021 c-0.659,0-1.196,0.536-1.196,1.196v8.371c0,0.659,0.537,1.196,1.196,1.196h11.958c0.659,0,1.196-0.536,1.196-1.196V4.712 C15.175,4.052,14.638,3.516,13.979,3.516z M6.804,2.918h2.99v0.598h-2.99V2.918z M2.021,13.082V4.712h11.958l0.001,8.371H2.021z" /><path style="fill:#555555;" d="M10.053,7.69l0.907-0.906l-0.845-0.845L9.207,6.844C9.019,6.733,8.815,6.647,8.598,6.59V5.309 H7.402V6.59c-0.217,0.056-0.42,0.142-0.609,0.254L5.886,5.937L5.041,6.783l0.907,0.906C5.836,7.878,5.75,8.082,5.694,8.299H4.413 v1.196h1.281c0.056,0.217,0.142,0.421,0.254,0.61l-0.907,0.906l0.845,0.846l0.907-0.907c0.189,0.111,0.392,0.197,0.609,0.254 v1.281h1.196v-1.281c0.217-0.056,0.42-0.142,0.61-0.254l0.906,0.907l0.845-0.846l-0.906-0.907c0.111-0.189,0.197-0.392,0.253-0.61 h1.281V8.299h-1.281C10.25,8.082,10.164,7.879,10.053,7.69z M8,10.093c-0.659,0-1.196-0.536-1.196-1.196S7.341,7.701,8,7.701 s1.196,0.536,1.196,1.196S8.659,10.093,8,10.093z"/></g></g></svg> 
