<?xml version="1.0" encoding="iso-8859-1"?>
<!-- Generator: Adobe Illustrator 24.1.3, SVG Export Plug-In . SVG Version: 6.00 Build 0)  -->
<svg version="1.1" xmlns="http://www.w3.org/2000/svg" xmlns:xlink="http://www.w3.org/1999/xlink" x="0px" y="0px"
	 viewBox="0 0 16 16" style="enable-background:new 0 0 16 16;" xml:space="preserve">
<g id="_x5F__x5F_document">
	<g>
		<path id="XMLID_1195_" style="fill:#686969;" d="M10.15,0.825H2.868c-0.314,0-0.57,0.257-0.57,0.57v13.209
			c0,0.314,0.257,0.57,0.57,0.57h10.263c0.314,0,0.57-0.257,0.57-0.57V4.46L10.15,0.825z M12.585,14.129h-9.17V1.871H9.58v3.142
			l3.005,0.018V14.129z"/>
		<rect id="XMLID_1196_" x="4.377" y="4.888" style="fill:#0088B6;" width="3.088" height="1.045"/>
		<rect id="XMLID_1197_" x="4.377" y="6.978" style="fill:#0088B6;" width="7.27" height="0.623"/>
		<rect id="XMLID_1220_" x="4.377" y="8.197" style="fill:#0088B6;" width="7.27" height="0.623"/>
		<rect id="XMLID_1221_" x="4.377" y="9.444" style="fill:#0088B6;" width="7.27" height="0.623"/>
		<rect id="XMLID_1222_" x="4.365" y="10.64" style="fill:#0088B6;" width="7.27" height="0.623"/>
		<rect id="XMLID_1223_" x="4.365" y="11.886" style="fill:#0088B6;" width="4.617" height="0.623"/>
	</g>
</g>
<g id="Layer_1">
</g>
</svg>
