<?xml version="1.0" encoding="iso-8859-1"?>
<!-- Generator: Adobe Illustrator 19.0.0, SVG Export Plug-In . SVG Version: 6.00 Build 0)  -->
<svg version="1.1" id="Layer_1" xmlns="http://www.w3.org/2000/svg" xmlns:xlink="http://www.w3.org/1999/xlink" x="0px" y="0px"
	 viewBox="0 0 512 512" style="enable-background:new 0 0 512 512;" xml:space="preserve">
<path style="fill:#FFC61B;" d="M426.829,33.236H261.731c-8.673,0-15.703-7.03-15.703-15.703s7.03-15.703,15.703-15.703h165.097
	c8.673,0,15.703,7.03,15.703,15.703S435.5,33.236,426.829,33.236z"/>
<circle style="fill:#FEE187;" cx="451.968" cy="450.131" r="44.33"/>
<path style="fill:#FFC61B;" d="M451.968,510.171c-33.101,0-60.032-26.929-60.032-60.032c0-33.101,26.929-60.032,60.032-60.032
	c33.102,0,60.032,26.929,60.032,60.032S485.069,510.171,451.968,510.171z M451.968,421.515c-15.783,0-28.625,12.84-28.625,28.625
	s12.84,28.625,28.625,28.625s28.625-12.842,28.625-28.625S467.753,421.515,451.968,421.515z"/>
<g>
	<circle style="fill:#FEE187;" cx="60.033" cy="450.131" r="44.33"/>
	<rect x="207.847" y="410.999" style="fill:#FEE187;" width="96.307" height="81.391"/>
</g>
<path style="fill:#FFC61B;" d="M451.968,333.691H271.702v-53.025h155.125c8.673,0,15.703-7.03,15.703-15.703V76.435
	c0-8.673-7.03-15.703-15.703-15.703h-235.61c-8.673,0-15.703,7.03-15.703,15.703s7.03,15.703,15.703,15.703h219.909v157.121H100.874
	V33.236h90.343c8.673,0,15.703-7.03,15.703-15.703s-7.03-15.703-15.703-15.703H85.171c-8.673,0-15.703,7.03-15.703,15.703v247.43
	c0,8.673,7.03,15.703,15.703,15.703h155.125v53.025H60.032c-8.673,0-15.703,7.03-15.703,15.703v42.813
	C18.82,399.127,0,422.472,0,450.139c0,33.102,26.929,60.032,60.032,60.032c33.101,0,60.032-26.929,60.032-60.032
	c0-27.667-18.82-51.012-44.328-57.934v-27.11h164.561v30.196h-32.454c-8.673,0-15.703,7.03-15.703,15.703v81.393
	c0,8.673,7.03,15.703,15.703,15.703h96.312c8.673,0,15.703-7.03,15.703-15.703v-81.393c0-8.673-7.03-15.703-15.703-15.703h-32.454
	v-30.196h180.268c8.673,0,15.703-7.03,15.703-15.703S460.641,333.691,451.968,333.691z M88.657,450.139
	c0,15.783-12.84,28.625-28.625,28.625s-28.625-12.84-28.625-28.625s12.842-28.625,28.625-28.625S88.657,434.356,88.657,450.139z
	 M288.453,476.684h-64.906v-49.986h64.906L288.453,476.684L288.453,476.684z"/>
<g>
</g>
<g>
</g>
<g>
</g>
<g>
</g>
<g>
</g>
<g>
</g>
<g>
</g>
<g>
</g>
<g>
</g>
<g>
</g>
<g>
</g>
<g>
</g>
<g>
</g>
<g>
</g>
<g>
</g>
</svg>
