<?xml version="1.0" encoding="iso-8859-1"?><svg version="1.1" xmlns="http://www.w3.org/2000/svg" xmlns:xlink="http://www.w3.org/1999/xlink" x="0px" y="0px" viewBox="0 0 16 16" style="enable-background:new 0 0 16 16;" xml:space="preserve"><g id="my-sql-connection"><g id="paths"><g id="Access_control"></g><g id="Azure_active_directory"></g><g id="API_Management"></g><g id="Azure_automation"></g><g id="Azure_SQL_database"></g><g id="Azure_subscription"></g><g id="Backup_service"></g><g id="Bitbucket_code_source"></g><g id="Azure_cache"></g><g id="Content_delivery_network__x28_CDN_x29_"></g><g id="Cloud_service"></g><g id="CodePlex"></g><g id="Dropbox_code_source"></g><g id="Express_route"></g><g id="Git_repository"></g><g id="GitHub_code"></g><g id="HD_Insight"></g><g id="Health_monitoring"></g><g id="Healthy"></g><g id="BizTalk_hybrid_connection"></g><g id="Hybrid_connection_manager_for_BizTalk_hybrid_connection"></g><g id="Hyper-V_recovery_manager"></g><g id="Machine_learning"></g><g id="Media_services"></g><g id="Microsoft_account"></g><g id="Mobile_services"></g><g id="Multi-factor_authentication"></g></g><g><g><path style="fill:#E48E00;" d="M8.76,10.149V6.181l0.066,0.04V5.586c0-0.529-0.264-0.926-0.727-1.058 C7.835,4.462,7.57,4.396,7.372,4.396c-0.595,0-1.058,0.331-1.323,0.86L4.727,8.099L3.47,5.256 c-0.264-0.529-0.727-0.86-1.323-0.86c-0.198,0-0.463,0.066-0.727,0.132C0.958,4.727,0.825,5.057,0.825,5.586v4.497h1.587v-2.91 l0.992,2.182c0.265,0.529,0.661,0.793,1.323,0.793c0.595,0,0.992-0.198,1.257-0.793L6.975,7.24v2.91H8.76z"/><path style="fill:#E48E00;" d="M9.554,10.347v1.257h3.505c0.992-0.066,1.984-0.529,1.984-1.521l0.132-3.835H13.39v2.447h-1.257 H11.67c-0.198,0-0.264,0-0.264-0.066v-2.38H8.871l0.551,0.331c0,0.198,0,0.727,0,2.05V8.76c0.066,0.727,0.793,1.323,1.984,1.323 h1.323l0.595-0.198c0,0-0.066,0.463-0.264,0.463H9.554z"/></g></g></g></svg> 
