<?xml version="1.0" encoding="iso-8859-1"?><svg version="1.1" xmlns="http://www.w3.org/2000/svg" xmlns:xlink="http://www.w3.org/1999/xlink" x="0px" y="0px" viewBox="0 0 16 16" style="enable-background:new 0 0 16 16;" xml:space="preserve"><g id="parameter-color"><path style="fill:#0088B6;" d="M13.457,6.9v0.139l-2.744,3.071l-0.264,0.295V10.8v3.338H9.335V10.8v-0.396l-0.264-0.295 L6.327,7.038V6.9H13.457 M14.494,5.863H5.29v1.571L8.298,10.8v4.375h3.189V10.8l3.007-3.366V5.863L14.494,5.863z"/><polygon style="fill:#686969;" points="7.595,11.244 4.042,11.244 2.732,11.244 2.732,3.403 10.783,3.403 10.783,5.16 12.009,5.16 12.009,3.403 12.009,1.438 12.009,0.825 1.506,0.825 1.506,1.438 1.506,3.403 1.506,12.47 4.042,12.47 7.595,12.47 "/></g></svg> 
