<?xml version="1.0" encoding="iso-8859-1"?><svg version="1.1" xmlns="http://www.w3.org/2000/svg" xmlns:xlink="http://www.w3.org/1999/xlink" x="0px" y="0px" viewBox="0 0 16 16" style="enable-background:new 0 0 16 16;" xml:space="preserve"><g id="parameters"><g><path style="fill:#FFFFFF;" d="M13.457,6.892V7.03l-2.744,3.071l-0.264,0.295v0.396v3.338H9.335v-3.338v-0.396l-0.264-0.295 L6.327,7.03V6.892H13.457 M14.494,5.855H5.29v1.571l3.007,3.366v4.375h3.189v-4.375l3.007-3.366V5.855L14.494,5.855z"/><polygon style="fill:#FFFFFF;" points="7.595,11.236 4.042,11.236 2.732,11.236 2.732,3.395 10.783,3.395 10.783,5.152 12.009,5.152 12.009,3.395 12.009,1.43 12.009,0.817 1.506,0.817 1.506,1.43 1.506,3.395 1.506,12.462 4.042,12.462 7.595,12.462 "/></g></g></svg> 
