<?xml version="1.0" encoding="iso-8859-1"?><svg version="1.1" xmlns="http://www.w3.org/2000/svg" xmlns:xlink="http://www.w3.org/1999/xlink" x="0px" y="0px" viewBox="0 0 14.348 9.286" style="enable-background:new 0 0 14.348 9.286;" xml:space="preserve"><g id="pipeline-line"><path style="fill:#555555;" d="M12.341,0H9.64C9.175,0,8.753,0.38,8.413,0.992h-2.32C5.753,0.38,5.331,0,4.866,0H2.007 C0.899,0,0,2.079,0,4.643c0,2.564,0.899,4.643,2.007,4.643h2.859c0.439,0,0.843-0.336,1.173-0.89h2.427 C8.797,8.95,9.2,9.286,9.64,9.286h2.701c1.108,0,2.007-2.079,2.007-4.643C14.348,2.079,13.449,0,12.341,0z M0.761,4.643 c0-2.134,0.558-3.863,1.246-3.863s1.246,1.73,1.246,3.863S2.695,8.506,2.007,8.506S0.761,6.776,0.761,4.643z M4.866,8.506H3.755 H3.119c0.539-0.832,0.895-2.251,0.895-3.863c0-1.612-0.356-3.031-0.895-3.863h0.636h1.112c0.688,0,1.246,1.73,1.246,3.863 S5.554,8.506,4.866,8.506z M9.64,8.506c-0.156,0-0.303-0.099-0.44-0.261v-0.63H8.853H8.11H6.396C6.69,6.808,6.873,5.78,6.873,4.643 c0-1.09-0.169-2.079-0.441-2.871h1.641h0.74h0.386V1.041C9.337,0.879,9.484,0.78,9.64,0.78c0.688,0,1.246,1.73,1.246,3.863 S10.328,8.506,9.64,8.506z M12.341,8.506h-1.112h-0.478c0.539-0.832,0.895-2.251,0.895-3.863c0-1.612-0.356-3.031-0.895-3.863 h0.478h1.112c0.688,0,1.246,1.73,1.246,3.863S13.029,8.506,12.341,8.506z"/></g></svg> 
