<?xml version="1.0" encoding="iso-8859-1"?><svg version="1.1" xmlns="http://www.w3.org/2000/svg" xmlns:xlink="http://www.w3.org/1999/xlink" x="0px" y="0px" viewBox="0 0 16 16" style="enable-background:new 0 0 16 16;" xml:space="preserve"><g id="pointer"><g><path style="fill:#555555;" d="M12.303,4.83c-0.241,0-0.453,0.091-0.639,0.216c-0.154-0.467-0.581-0.81-1.098-0.81 c-0.319,0-0.608,0.13-0.819,0.338C9.533,4.292,9.21,4.098,8.83,4.098c-0.21,0-0.396,0.07-0.567,0.167v-2.27 c0-0.645-0.525-1.17-1.171-1.17c-0.646,0-1.171,0.525-1.171,1.17v6.786L5.029,7.682C4.774,7.305,4.349,7.08,3.894,7.08 c-0.754,0-1.368,0.613-1.368,1.368c0,0.349,0.202,0.686,0.298,0.847c0.433,0.726,3.251,5.143,3.388,5.354 c0.262,0.334,0.654,0.525,1.078,0.525h4.184c1.235,0,2-0.767,2-2V6.001C13.474,5.355,12.949,4.83,12.303,4.83z M12.87,13.175 c0,0.899-0.496,1.395-1.396,1.395H7.29c-0.237,0-0.455-0.107-0.585-0.27c-0.029-0.045-2.934-4.597-3.361-5.315 C3.279,8.878,3.131,8.63,3.131,8.448c0-0.422,0.342-0.764,0.763-0.764c0.254,0,0.491,0.126,0.65,0.358l1.982,2.443V1.995 c0-0.312,0.254-0.566,0.567-0.566c0.312,0,0.566,0.254,0.566,0.566v3.273v0.716v2.385h0.605V5.984V5.268 c0-0.312,0.254-0.567,0.567-0.567c0.312,0,0.566,0.255,0.566,0.567v3.101h0.605V5.408c0-0.313,0.253-0.567,0.566-0.567 c0.312,0,0.566,0.254,0.566,0.567v2.961h0.605V6.001c0-0.313,0.254-0.567,0.566-0.567c0.312,0,0.567,0.254,0.567,0.567V13.175z"/><path style="fill:#FFFFFF;" d="M7.658,5.268V1.995c0-0.312-0.253-0.566-0.566-0.566c-0.312,0-0.567,0.254-0.567,0.566v8.491 L4.544,8.043C4.385,7.81,4.148,7.685,3.894,7.685c-0.421,0-0.763,0.342-0.763,0.764c0,0.182,0.148,0.43,0.213,0.537 c0.428,0.718,3.332,5.27,3.361,5.315c0.13,0.163,0.349,0.27,0.585,0.27h4.184c0.9,0,1.396-0.496,1.396-1.395V6.001 c0-0.313-0.254-0.567-0.567-0.567c-0.312,0-0.566,0.254-0.566,0.567v2.369h-0.605V5.408c0-0.313-0.254-0.567-0.566-0.567 c-0.312,0-0.566,0.254-0.566,0.567v2.961H9.396V5.268c0-0.312-0.254-0.567-0.566-0.567c-0.312,0-0.567,0.255-0.567,0.567v0.716 v2.385H7.658V5.984V5.268z"/></g></g></svg> 
