<?xml version="1.0" encoding="iso-8859-1"?><svg version="1.1" xmlns="http://www.w3.org/2000/svg" xmlns:xlink="http://www.w3.org/1999/xlink" x="0px" y="0px" viewBox="0 0 16 16" style="enable-background:new 0 0 16 16;" xml:space="preserve"><g id="portal-settings"><g><path style="fill:#FFFFFF;" d="M8,5.6c-1.319,0-2.391,1.072-2.391,2.391c0,1.319,1.072,2.391,2.391,2.391 c1.319,0,2.391-1.073,2.391-2.391C10.391,6.672,9.319,5.6,8,5.6z M8,9.187c-0.659,0-1.196-0.536-1.196-1.196 c0-0.659,0.536-1.196,1.196-1.196c0.659,0,1.196,0.537,1.196,1.196C9.196,8.651,8.659,9.187,8,9.187z"/><path style="fill:#FFFFFF;" d="M13.422,5.473l0.827-1.38l-2.35-2.35l-1.38,0.827c-0.152-0.07-0.308-0.135-0.466-0.193l-0.389-1.56 H6.337l-0.389,1.56C5.789,2.435,5.633,2.499,5.481,2.57L4.102,1.743l-2.35,2.352l0.827,1.378C2.508,5.625,2.443,5.78,2.385,5.939 l-1.561,0.39v3.325l1.561,0.39c0.057,0.158,0.121,0.314,0.192,0.466l-0.827,1.38l2.35,2.35l1.38-0.828 c0.153,0.071,0.308,0.135,0.466,0.193l0.389,1.561h3.325l0.391-1.561c0.159-0.058,0.314-0.122,0.466-0.193l1.38,0.828l2.35-2.351 l-0.827-1.379c0.071-0.152,0.135-0.308,0.193-0.467l1.561-0.39V6.33l-1.561-0.39C13.557,5.78,13.493,5.625,13.422,5.473z M13.979,8.72l-1.304,0.326l-0.098,0.326c-0.092,0.306-0.214,0.603-0.364,0.882l-0.161,0.299l0.691,1.151l-1.031,1.031 l-1.151-0.691l-0.299,0.161c-0.277,0.149-0.574,0.272-0.882,0.365l-0.325,0.098l-0.326,1.303H7.271l-0.326-1.305l-0.326-0.098 c-0.304-0.091-0.601-0.214-0.881-0.364l-0.3-0.161l-1.151,0.691l-1.031-1.031l0.691-1.151l-0.161-0.299 C3.637,9.975,3.514,9.678,3.422,9.372L3.325,9.046L2.021,8.72V7.263l1.302-0.325l0.098-0.324c0.094-0.31,0.217-0.607,0.365-0.883 l0.161-0.3L3.257,4.28l1.031-1.031l1.15,0.69l0.299-0.16c0.28-0.15,0.577-0.273,0.883-0.365l0.326-0.098l0.326-1.303h1.457 l0.326,1.303L9.38,3.413c0.305,0.091,0.603,0.214,0.883,0.365l0.299,0.16l1.15-0.69l1.031,1.031l-0.691,1.152l0.161,0.299 c0.149,0.276,0.271,0.573,0.364,0.882l0.098,0.325l1.303,0.326V8.72z"/></g></g></svg> 
