<?xml version="1.0" encoding="iso-8859-1"?><svg version="1.1" xmlns="http://www.w3.org/2000/svg" xmlns:xlink="http://www.w3.org/1999/xlink" x="0px" y="0px" viewBox="0 0 16 16" style="enable-background:new 0 0 16 16;" xml:space="preserve"><g id="postgress-connection"><g><g><path style="fill:#FFFFFF;" d="M6.89,5.149C6.739,5.128,6.603,5.148,6.533,5.2C6.494,5.23,6.482,5.264,6.479,5.288 C6.471,5.35,6.514,5.419,6.541,5.454c0.076,0.101,0.187,0.17,0.296,0.185C6.854,5.641,6.87,5.642,6.887,5.642 c0.078,0,0.157-0.025,0.227-0.073c0.059-0.04,0.125-0.107,0.134-0.175C7.267,5.263,7.076,5.175,6.89,5.149z"/><path style="fill:#FFFFFF;" d="M11.895,5.154L11.895,5.154c-0.014-0.103-0.198-0.133-0.372-0.108 c-0.174,0.024-0.343,0.103-0.329,0.206c0.011,0.08,0.157,0.218,0.329,0.218c0.014,0,0.029-0.001,0.044-0.003 c0.115-0.016,0.199-0.089,0.239-0.131C11.866,5.271,11.902,5.2,11.895,5.154z"/><path style="fill:#FFFFFF;" d="M14.767,9.574c-0.064-0.193-0.27-0.255-0.611-0.185c-1.015,0.21-1.378,0.064-1.498-0.024 c0.789-1.202,1.438-2.654,1.788-4.01c0.168-0.652,0.505-2.238-0.005-2.889c-0.756-0.965-1.864-1.483-3.206-1.497 C10.31,0.961,9.532,1.195,9.381,1.262C9.062,1.182,8.715,1.134,8.338,1.128C7.645,1.117,7.047,1.283,6.551,1.62 C6.049,1.432,3.745,0.656,2.32,1.666C1.523,2.23,1.156,3.239,1.227,4.663c0.024,0.479,0.297,1.953,0.728,3.365 c0.567,1.858,1.184,2.91,1.832,3.126c0.076,0.025,0.164,0.043,0.26,0.043c0.237,0,0.527-0.107,0.829-0.47 c0.501-0.603,0.97-1.109,1.142-1.292C6.273,9.573,6.553,9.649,6.84,9.657c0,0.007,0.002,0.015,0.002,0.022 C6.785,9.747,6.737,9.807,6.697,9.858c-0.199,0.252-0.24,0.305-0.879,0.436c-0.182,0.037-0.665,0.137-0.672,0.475 c-0.008,0.37,0.571,0.525,0.637,0.542c0.23,0.057,0.451,0.086,0.662,0.086c0.513,0,0.965-0.169,1.326-0.495 c-0.011,1.318,0.044,2.617,0.202,3.013c0.13,0.324,0.446,1.116,1.447,1.116c0.147,0,0.308-0.017,0.486-0.055 c1.044-0.224,1.497-0.685,1.673-1.703c0.094-0.545,0.255-1.843,0.331-2.539c0.16,0.05,0.365,0.073,0.588,0.073 c0.464,0,0.999-0.099,1.335-0.254C14.21,10.378,14.89,9.948,14.767,9.574z M14.113,2.723c0.517,0.66-0.052,3.664-1.699,6.255 c-0.016-0.021-0.033-0.042-0.05-0.063c-0.007-0.008-0.014-0.017-0.021-0.026c0.426-0.703,0.342-1.398,0.268-2.015 c-0.03-0.253-0.059-0.492-0.052-0.716c0.008-0.238,0.039-0.442,0.069-0.639c0.037-0.243,0.076-0.495,0.065-0.791 c0.008-0.031,0.011-0.068,0.007-0.111c-0.027-0.284-0.351-1.135-1.013-1.906c-0.362-0.422-0.891-0.894-1.614-1.212 C10.985,1.306,12.88,1.147,14.113,2.723z M12.199,6.924c0.062,0.519,0.126,1.054-0.122,1.582 c-0.039-0.068-0.076-0.143-0.11-0.225c-0.031-0.075-0.098-0.195-0.191-0.361c-0.361-0.647-1.205-2.162-0.773-2.78 c0.222-0.318,0.785-0.331,1.276-0.271c-0.003,0.205-0.032,0.392-0.062,0.587c-0.032,0.21-0.066,0.426-0.074,0.689 C12.136,6.401,12.168,6.667,12.199,6.924z M4.557,10.462c-0.333,0.4-0.562,0.323-0.638,0.298 c-0.492-0.164-1.063-1.204-1.567-2.854c-0.436-1.427-0.69-2.862-0.71-3.265c-0.064-1.273,0.245-2.16,0.917-2.636 C3.653,1.23,5.451,1.694,6.174,1.93c-0.01,0.01-0.021,0.02-0.031,0.03C4.945,3.169,4.985,5.244,4.988,5.332c0,0,0,0,0,0 c0,0.048,0.004,0.115,0.009,0.207c0.02,0.344,0.058,0.985-0.043,1.71c-0.094,0.674,0.113,1.334,0.57,1.81 C5.571,9.108,5.62,9.155,5.671,9.198C5.468,9.416,5.027,9.897,4.557,10.462z M5.824,8.772C5.456,8.388,5.289,7.854,5.365,7.307 C5.473,6.54,5.433,5.873,5.412,5.514C5.409,5.464,5.406,5.42,5.405,5.386c0.173-0.154,0.976-0.584,1.548-0.453 c0.261,0.06,0.42,0.238,0.487,0.544c0.343,1.584,0.045,2.244-0.193,2.775C7.197,8.361,7.15,8.465,7.111,8.572L7.08,8.654 C7.002,8.863,6.93,9.057,6.885,9.242C6.494,9.241,6.113,9.074,5.824,8.772z M7.74,10.315c-0.53,0.742-1.301,0.732-1.856,0.593 C5.77,10.88,5.667,10.83,5.607,10.789c0.05-0.024,0.14-0.056,0.295-0.088c0.752-0.155,0.868-0.264,1.121-0.586 c0.058-0.074,0.124-0.157,0.215-0.259c0,0,0,0,0,0c0.136-0.152,0.198-0.126,0.311-0.08c0.091,0.038,0.18,0.152,0.216,0.278 C7.783,10.114,7.802,10.227,7.74,10.315z M11.532,10.323c-0.03,0.389-0.251,2.229-0.363,2.879 c-0.148,0.857-0.463,1.177-1.35,1.367c-0.92,0.197-1.245-0.272-1.46-0.809C8.22,13.414,8.152,11.853,8.2,10.128 c0.001-0.023-0.003-0.046-0.01-0.067c-0.005-0.04-0.013-0.08-0.025-0.121C8.094,9.689,7.919,9.479,7.709,9.392 C7.625,9.358,7.472,9.294,7.288,9.341C7.327,9.18,7.395,8.997,7.469,8.799L7.5,8.716c0.035-0.094,0.079-0.191,0.125-0.294 c0.25-0.555,0.592-1.316,0.221-3.033C7.706,4.746,7.242,4.432,6.538,4.505C6.115,4.548,5.729,4.719,5.536,4.816 C5.495,4.837,5.457,4.858,5.422,4.877c0.054-0.648,0.257-1.86,1.017-2.626C6.917,1.769,7.553,1.53,8.331,1.543 c1.53,0.025,2.511,0.81,3.065,1.464c0.477,0.564,0.735,1.132,0.839,1.438c-0.775-0.079-1.303,0.074-1.57,0.456 c-0.582,0.831,0.318,2.445,0.751,3.22c0.079,0.142,0.148,0.265,0.169,0.317c0.141,0.341,0.323,0.569,0.456,0.735 c0.041,0.051,0.08,0.1,0.11,0.144C11.916,9.386,11.494,9.542,11.532,10.323z M13.657,10.176c-0.551,0.256-1.555,0.27-1.71,0.125 c-0.024-0.488,0.158-0.539,0.35-0.593c0.021-0.006,0.052-0.015,0.087-0.028c0.018,0.015,0.038,0.029,0.06,0.044 c0.339,0.224,0.943,0.248,1.797,0.072c0.003-0.001,0.006-0.001,0.009-0.002C14.134,9.902,13.937,10.047,13.657,10.176z"/></g><path style="fill:#316192;" d="M4.954,7.249c0.101-0.726,0.064-1.366,0.043-1.71C4.992,5.447,4.988,5.38,4.988,5.332c0,0,0,0,0,0 C4.985,5.244,4.945,3.169,6.142,1.96c0.01-0.01,0.021-0.02,0.031-0.03c-0.723-0.235-2.521-0.7-3.615,0.076 C1.887,2.482,1.578,3.369,1.642,4.642c0.02,0.402,0.275,1.837,0.71,3.265c0.503,1.649,1.074,2.69,1.567,2.854 c0.075,0.025,0.305,0.102,0.638-0.298c0.47-0.565,0.912-1.047,1.115-1.264c-0.051-0.044-0.1-0.09-0.148-0.139 C5.067,8.583,4.86,7.923,4.954,7.249z"/><path style="fill:#316192;" d="M7.08,8.654l0.031-0.083c0.04-0.107,0.086-0.21,0.135-0.32C7.485,7.721,7.782,7.061,7.44,5.477 C7.373,5.171,7.214,4.993,6.953,4.933C6.381,4.802,5.578,5.232,5.405,5.386C5.406,5.42,5.409,5.464,5.412,5.514 C5.433,5.873,5.473,6.54,5.365,7.307C5.289,7.854,5.456,8.388,5.824,8.772c0.289,0.302,0.67,0.469,1.061,0.47 C6.93,9.057,7.002,8.863,7.08,8.654z M6.541,5.454C6.514,5.419,6.471,5.35,6.479,5.288C6.482,5.264,6.494,5.23,6.533,5.2 C6.603,5.148,6.739,5.128,6.89,5.149c0.185,0.026,0.377,0.114,0.358,0.245C7.239,5.463,7.173,5.53,7.114,5.57 c-0.07,0.048-0.149,0.073-0.227,0.073c-0.017,0-0.033-0.001-0.049-0.003C6.728,5.624,6.617,5.555,6.541,5.454z"/><path style="fill:#316192;" d="M7.55,9.776c-0.113-0.047-0.175-0.072-0.311,0.08c0,0,0,0,0,0 c-0.091,0.102-0.157,0.186-0.215,0.259c-0.254,0.322-0.37,0.431-1.121,0.586c-0.155,0.032-0.245,0.064-0.295,0.088 c0.06,0.041,0.163,0.091,0.277,0.119c0.554,0.139,1.326,0.148,1.856-0.593c0.063-0.088,0.044-0.201,0.027-0.26 C7.73,9.928,7.641,9.814,7.55,9.776z"/><path style="fill:#316192;" d="M11.688,2.71c0.662,0.77,0.986,1.621,1.013,1.906c0.004,0.044,0.001,0.08-0.007,0.111 c0.011,0.297-0.028,0.548-0.065,0.791c-0.03,0.197-0.062,0.401-0.069,0.639c-0.007,0.224,0.021,0.463,0.052,0.716 c0.074,0.617,0.157,1.312-0.268,2.015c0.007,0.009,0.014,0.018,0.021,0.026c0.017,0.021,0.034,0.042,0.05,0.063 c1.647-2.591,2.216-5.595,1.699-6.255c-1.233-1.576-3.129-1.417-4.039-1.225C10.797,1.816,11.326,2.288,11.688,2.71z"/><path style="fill:#316192;" d="M12.219,5.456c0.03-0.195,0.058-0.381,0.062-0.587c-0.491-0.06-1.054-0.047-1.276,0.271 c-0.432,0.618,0.412,2.133,0.773,2.78c0.093,0.166,0.16,0.286,0.191,0.361c0.034,0.083,0.071,0.157,0.11,0.225 c0.248-0.528,0.184-1.063,0.122-1.582c-0.031-0.257-0.063-0.523-0.055-0.779C12.153,5.882,12.187,5.665,12.219,5.456z M11.805,5.335c-0.04,0.042-0.124,0.115-0.239,0.131c-0.015,0.002-0.029,0.003-0.044,0.003c-0.172,0-0.317-0.137-0.329-0.218 c-0.014-0.103,0.155-0.182,0.329-0.206c0.174-0.024,0.358,0.005,0.372,0.108v0C11.902,5.2,11.866,5.271,11.805,5.335z"/><path style="fill:#316192;" d="M12.443,9.725c-0.022-0.014-0.042-0.029-0.06-0.044c-0.035,0.013-0.065,0.022-0.087,0.028 c-0.192,0.054-0.373,0.105-0.35,0.593c0.156,0.145,1.159,0.131,1.71-0.125c0.279-0.13,0.476-0.274,0.591-0.382 c-0.003,0.001-0.006,0.001-0.009,0.002C13.386,9.972,12.781,9.948,12.443,9.725z"/><path style="fill:#316192;" d="M12.04,9.175c-0.133-0.166-0.315-0.394-0.456-0.735c-0.022-0.052-0.09-0.175-0.169-0.317 c-0.432-0.775-1.332-2.389-0.751-3.22c0.267-0.382,0.795-0.535,1.57-0.456c-0.103-0.306-0.361-0.874-0.839-1.438 c-0.554-0.654-1.535-1.439-3.065-1.464C7.553,1.53,6.917,1.769,6.439,2.251c-0.76,0.767-0.963,1.978-1.017,2.626 c0.035-0.02,0.073-0.04,0.115-0.061c0.193-0.098,0.579-0.268,1.001-0.312c0.705-0.073,1.169,0.241,1.308,0.885 c0.371,1.718,0.029,2.478-0.221,3.033c-0.046,0.103-0.09,0.2-0.125,0.294L7.469,8.799C7.395,8.997,7.327,9.18,7.288,9.341 c0.184-0.047,0.337,0.016,0.421,0.051c0.21,0.087,0.385,0.297,0.457,0.548c0.012,0.041,0.019,0.081,0.025,0.121 c0.007,0.021,0.011,0.044,0.01,0.067c-0.048,1.725,0.02,3.286,0.158,3.633c0.215,0.536,0.54,1.006,1.46,0.809 c0.887-0.19,1.203-0.51,1.35-1.367c0.112-0.651,0.333-2.491,0.363-2.879c-0.038-0.781,0.383-0.937,0.618-1.005 C12.12,9.275,12.081,9.226,12.04,9.175z"/></g></g></svg> 
