<?xml version="1.0" encoding="iso-8859-1"?><svg version="1.1" xmlns="http://www.w3.org/2000/svg" xmlns:xlink="http://www.w3.org/1999/xlink" x="0px" y="0px" viewBox="0 0 16 16" style="enable-background:new 0 0 16 16;" xml:space="preserve"><g id="print"><g><path style="fill:#757575;" d="M5.711,8.855H4.573H3.499H2.865v3.269v0.192v2.516h10.246v-0.621v-1.172v-0.723v-0.192V8.855H5.711 z M11.973,12.316v1.32H4.003v-1.32v-0.192V10.05h7.969v2.074V12.316z"/><polygon style="fill:#757575;" points="3.804,4.635 3.804,2.364 12.172,2.364 12.172,4.635 13.367,4.635 13.367,1.169 5.597,1.169 4.402,1.169 3.274,1.169 2.609,1.169 2.609,4.635 "/><circle style="fill:#757575;" cx="3.292" cy="6.904" r="0.683"/><path style="fill:#757575;" d="M13.367,4.504H2.609c-0.989,0-1.793,0.804-1.793,1.793v1.11v0.085v3.878h1.487h0.232h0.922v-1.195 H2.536H2.303H2.011V7.493V7.408v-1.11c0-0.329,0.268-0.598,0.598-0.598h10.758c0.33,0,0.598,0.268,0.598,0.598v1.11v0.085v2.683 h-0.217h-0.62h-0.534v1.195h0.534h0.62h1.412V7.493V7.408v-1.11C15.16,5.309,14.356,4.504,13.367,4.504z"/></g></g></svg> 
