<?xml version="1.0" encoding="iso-8859-1"?><svg version="1.1" xmlns="http://www.w3.org/2000/svg" xmlns:xlink="http://www.w3.org/1999/xlink" x="0px" y="0px" viewBox="0 0 220 24" style="enable-background:new 0 0 220 24;" xml:space="preserve"><g id="prj-lin-header"><path style="fill:#323130;stroke:#231F20;stroke-width:0.5;stroke-miterlimit:10;" d="M5,23"/><path style="fill:#323130;stroke:#231F20;stroke-width:0.5;stroke-miterlimit:10;" d="M1,19"/><path style="fill:#323130;stroke:#231F20;stroke-width:0.5;stroke-miterlimit:10;" d="M219,19"/><path style="fill:#323130;stroke:#231F20;stroke-width:0.5;stroke-miterlimit:10;" d="M215,23"/><path style="fill:#323130;stroke:#231F20;stroke-width:0.5;stroke-miterlimit:10;" d="M5,23"/><path style="fill:none;stroke:#DDDDDD;stroke-width:0.75;stroke-linecap:round;stroke-miterlimit:10;stroke-dasharray:2,2;" d=" M50,23V9c0-2.209-1.791-4-4-4H9C6.791,5,5,6.791,5,9v14"/><path style="fill:none;stroke:#DDDDDD;stroke-width:0.75;stroke-linecap:round;stroke-miterlimit:10;stroke-dasharray:2,2;" d=" M105,23V9c0-2.209-1.791-4-4-4H64c-2.209,0-4,1.791-4,4v14"/><path style="fill:none;stroke:#DDDDDD;stroke-width:0.75;stroke-linecap:round;stroke-miterlimit:10;stroke-dasharray:2,2;" d=" M160,23V9c0-2.209-1.791-4-4-4h-37c-2.209,0-4,1.791-4,4v14"/><path style="fill:none;stroke:#DDDDDD;stroke-width:0.75;stroke-linecap:round;stroke-miterlimit:10;stroke-dasharray:2,2;" d=" M215,23V9c0-2.209-1.791-4-4-4h-37c-2.209,0-4,1.791-4,4v14"/></g></svg> 
