<?xml version="1.0" encoding="iso-8859-1"?><svg version="1.1" xmlns="http://www.w3.org/2000/svg" xmlns:xlink="http://www.w3.org/1999/xlink" x="0px" y="0px" viewBox="0 0 16 16" style="enable-background:new 0 0 16 16;" xml:space="preserve"><g id="processing"><circle style="fill:#00416B;" cx="8" cy="8" r="7.175"/><g><path style="fill:#FFFFFF;" d="M3.52,4.574L3.347,4.8l1.344,0.775l0.134-0.165c0.42-0.515,0.95-0.923,1.534-1.178l0.15-0.065 V2.545L6.178,2.658C5.138,3.014,4.194,3.693,3.52,4.574z"/><path style="fill:#FFFFFF;" d="M8.084,2.357L7.831,2.354v1.533l0.245,0.005c2.226,0.046,4.036,1.89,4.036,4.109 c0,2.226-1.811,4.07-4.035,4.11l-0.246,0.005v1.531l0.254-0.004C11.15,13.591,13.644,11.06,13.644,8 C13.644,4.934,11.149,2.402,8.084,2.357z"/><path style="fill:#FFFFFF;" d="M4.036,9.066C3.938,8.707,3.889,8.348,3.889,8c0-0.346,0.049-0.704,0.146-1.062l0.05-0.186 L2.728,5.969L2.633,6.263C2.449,6.829,2.356,7.414,2.356,8c0,0.589,0.094,1.175,0.278,1.741l0.096,0.294l1.356-0.783L4.036,9.066z "/><path style="fill:#FFFFFF;" d="M4.827,10.593l-0.135-0.165l-1.344,0.776l0.174,0.227c0.674,0.878,1.618,1.558,2.656,1.911 l0.331,0.113v-1.621l-0.15-0.066C5.776,11.514,5.247,11.106,4.827,10.593z"/></g></g></svg> 
