<?xml version="1.0" encoding="iso-8859-1"?><svg version="1.1" xmlns="http://www.w3.org/2000/svg" xmlns:xlink="http://www.w3.org/1999/xlink" x="0px" y="0px" viewBox="0 0 16 16" style="enable-background:new 0 0 16 16;" xml:space="preserve"><g id="project-color"><g><polygon style="fill:#686969;" points="12.49,12.411 12.238,12.049 10.657,12.049 10.405,12.411 10.405,15.175 14.688,15.175 14.688,12.411 "/><polygon style="fill:#686969;" points="12.49,8.177 12.238,7.816 10.657,7.816 10.405,8.177 10.405,10.941 14.688,10.941 14.688,8.177 "/><path style="fill:#686969;" d="M10.63,13.612H9.587c-0.005,0-0.008-0.003-0.013-0.003H6.389V9.973h3.986 c0.241,0,0.437-0.168,0.437-0.375s-0.196-0.375-0.437-0.375H6.389V6.839c0-0.207-0.168-0.375-0.375-0.375S5.639,6.632,5.639,6.839 v7.146c0,0.207,0.168,0.375,0.375,0.375h0.455c0.005,0,0.01,0.003,0.015,0.003h4.146c0.241,0,0.437-0.168,0.437-0.375 S10.871,13.612,10.63,13.612z"/><polygon style="fill:#0088B6;" points="5.438,1.541 4.941,0.825 1.81,0.825 1.312,1.541 1.312,7.013 9.792,7.013 9.792,1.541 "/></g></g></svg> 
