<?xml version="1.0" encoding="iso-8859-1"?><svg version="1.1" xmlns="http://www.w3.org/2000/svg" xmlns:xlink="http://www.w3.org/1999/xlink" x="0px" y="0px" viewBox="0 0 16 16" style="enable-background:new 0 0 16 16;" xml:space="preserve"><g id="projects"><polygon style="fill:#FFFFFF;" points="5.58,1.541 5.082,0.825 1.951,0.825 1.453,1.541 1.453,7.013 9.933,7.013 9.933,1.541 "/><polygon style="fill:#FFFFFF;" points="12.631,12.411 12.379,12.049 10.798,12.049 10.546,12.411 10.546,15.175 14.83,15.175 14.83,12.411 "/><polygon style="fill:#FFFFFF;" points="12.631,8.177 12.379,7.816 10.798,7.816 10.546,8.177 10.546,10.941 14.83,10.941 14.83,8.177 "/><path style="fill:#FFFFFF;" d="M10.771,13.612H9.728c-0.005,0-0.008-0.003-0.013-0.003H6.53V9.973h3.986 c0.241,0,0.437-0.168,0.437-0.375s-0.196-0.375-0.437-0.375H6.53V6.839c0-0.207-0.168-0.375-0.375-0.375S5.78,6.632,5.78,6.839 v7.146c0,0.207,0.168,0.375,0.375,0.375H6.61c0.005,0,0.01,0.003,0.015,0.003h4.146c0.241,0,0.437-0.168,0.437-0.375 S11.012,13.612,10.771,13.612z"/></g></svg> 
