<?xml version="1.0" encoding="iso-8859-1"?><svg version="1.1" xmlns="http://www.w3.org/2000/svg" xmlns:xlink="http://www.w3.org/1999/xlink" x="0px" y="0px" viewBox="0 0 14.35 14.35" style="enable-background:new 0 0 14.35 14.35;" xml:space="preserve"><g id="remove-link-satellite"><g><path style="fill:#555555;" d="M13,10.526c0.232-0.078,0.442-0.197,0.626-0.35l-0.138-0.138L13,10.526z"/><polygon style="fill:#555555;" points="11.501,10.638 10.901,10.038 10.301,10.638 "/><polygon style="fill:#555555;" points="13.487,10.038 12.194,11.331 10.901,10.038 10.039,10.9 11.332,12.194 10.039,13.487 10.901,14.35 12.194,13.056 13.487,14.35 14.35,13.487 13.056,12.194 14.35,10.9 "/><g><path style="fill:#555555;" d="M5.05,9.272H0v-9.12h1.514v7.842H5.05V9.272z"/><path style="fill:#555555;" d="M5.946,8.91V7.352c0.14,0.127,0.306,0.242,0.499,0.343c0.193,0.102,0.397,0.188,0.614,0.258 c0.216,0.07,0.432,0.124,0.649,0.162c0.216,0.038,0.416,0.057,0.598,0.057c0.636,0,1.11-0.106,1.421-0.318 c0.312-0.212,0.467-0.519,0.467-0.922c0-0.216-0.052-0.404-0.156-0.563S9.79,6.065,9.603,5.934 C9.417,5.802,9.197,5.676,8.945,5.555C8.693,5.435,8.423,5.308,8.134,5.177c-0.31-0.165-0.598-0.333-0.865-0.502 S6.77,4.317,6.573,4.112C6.376,3.906,6.221,3.674,6.109,3.415C5.996,3.157,5.94,2.853,5.94,2.506c0-0.428,0.096-0.8,0.289-1.116 c0.193-0.316,0.447-0.577,0.763-0.782s0.675-0.358,1.078-0.458C8.473,0.05,8.885,0,9.304,0c0.954,0,1.649,0.108,2.086,0.324 v1.495c-0.517-0.373-1.183-0.56-1.997-0.56c-0.225,0-0.448,0.021-0.671,0.064s-0.422,0.112-0.598,0.21 C7.949,1.63,7.806,1.755,7.695,1.908C7.585,2.061,7.53,2.245,7.53,2.461c0,0.204,0.042,0.379,0.127,0.528 s0.209,0.284,0.372,0.407c0.163,0.123,0.363,0.243,0.598,0.359c0.235,0.117,0.508,0.243,0.817,0.378 c0.318,0.165,0.618,0.339,0.9,0.522s0.53,0.384,0.744,0.604s0.384,0.465,0.509,0.735s0.188,0.576,0.188,0.919 c0,0.462-0.093,0.852-0.28,1.17c-0.187,0.318-0.438,0.577-0.754,0.776c-0.316,0.199-0.679,0.343-1.091,0.432 S8.815,9.425,8.357,9.425c-0.153,0-0.34-0.012-0.563-0.035C7.571,9.367,7.344,9.333,7.11,9.288 C6.877,9.244,6.657,9.189,6.449,9.126S6.074,8.99,5.946,8.91z"/></g></g></g></svg> 
