<?xml version="1.0" encoding="iso-8859-1"?><svg version="1.1" xmlns="http://www.w3.org/2000/svg" xmlns:xlink="http://www.w3.org/1999/xlink" x="0px" y="0px" viewBox="0 0 16 16" style="enable-background:new 0 0 16 16;" xml:space="preserve"><g id="rest-connection"><g><g><circle style="fill:#0078D4;" cx="8" cy="8" r="7.175"/></g><g><g><path style="fill:#83B9F9;" d="M7.94,1.925c3.35,0,6.075,2.725,6.075,6.075s-2.725,6.075-6.075,6.075S1.865,11.35,1.865,8 S4.59,1.925,7.94,1.925 M7.94,1.47C4.334,1.47,1.41,4.394,1.41,8s2.923,6.53,6.53,6.53s6.53-2.923,6.53-6.53 S11.546,1.47,7.94,1.47L7.94,1.47z"/><path style="fill:#83B9F9;" d="M7.94,1.925c1.54,0,2.842,2.782,2.842,6.075S9.48,14.075,7.94,14.075S5.098,11.293,5.098,8 S6.4,1.925,7.94,1.925 M7.94,1.47C6.119,1.47,4.643,4.394,4.643,8s1.476,6.53,3.297,6.53s3.297-2.923,3.297-6.53 S9.761,1.47,7.94,1.47L7.94,1.47z"/></g></g><g><rect x="2.84" y="6.09" style="fill:#0078D4;" width="10.32" height="3.82"/><g><g><path style="fill:#FFFFFF;" d="M3.696,9.271V6.728h1.081c0.272,0,0.469,0.023,0.592,0.068C5.493,6.842,5.591,6.923,5.665,7.04 c0.073,0.117,0.111,0.251,0.111,0.401c0,0.191-0.056,0.349-0.168,0.473c-0.112,0.124-0.28,0.203-0.503,0.235 C5.216,8.213,5.307,8.285,5.38,8.362C5.452,8.44,5.549,8.577,5.672,8.775l0.31,0.496H5.369L4.997,8.718 C4.865,8.52,4.775,8.396,4.726,8.344c-0.049-0.052-0.1-0.087-0.154-0.106c-0.054-0.019-0.14-0.029-0.259-0.029H4.21v1.062 H3.696z M4.21,7.804h0.379c0.247,0,0.4-0.011,0.461-0.031c0.061-0.022,0.11-0.057,0.144-0.108 C5.23,7.614,5.247,7.551,5.247,7.474c0-0.085-0.023-0.155-0.069-0.207c-0.045-0.053-0.11-0.086-0.193-0.1 C4.943,7.161,4.819,7.158,4.61,7.158h-0.4V7.804z"/><path style="fill:#FFFFFF;" d="M6.082,9.271V6.728h1.885v0.43H6.595v0.564h1.276V8.15H6.595v0.693h1.421v0.428H6.082z"/><path style="fill:#FFFFFF;" d="M8.144,8.443l0.5-0.049c0.029,0.168,0.091,0.291,0.182,0.37 c0.093,0.079,0.217,0.119,0.372,0.119c0.166,0,0.29-0.036,0.374-0.106s0.126-0.152,0.126-0.246 c0-0.059-0.017-0.111-0.053-0.153C9.61,8.336,9.549,8.3,9.461,8.268C9.401,8.248,9.264,8.21,9.05,8.157 C8.775,8.089,8.582,8.005,8.471,7.906c-0.156-0.14-0.235-0.31-0.235-0.512c0-0.129,0.037-0.251,0.111-0.363 C8.42,6.918,8.526,6.833,8.664,6.773c0.138-0.059,0.305-0.089,0.5-0.089c0.319,0,0.559,0.071,0.721,0.211 c0.162,0.14,0.246,0.327,0.254,0.559L9.626,7.477c-0.022-0.13-0.069-0.224-0.141-0.281C9.412,7.139,9.304,7.11,9.159,7.11 c-0.149,0-0.265,0.03-0.35,0.092C8.755,7.241,8.728,7.294,8.728,7.36c0,0.059,0.025,0.111,0.077,0.154 c0.065,0.054,0.222,0.111,0.471,0.17c0.25,0.058,0.434,0.12,0.554,0.182c0.12,0.064,0.213,0.15,0.281,0.259 c0.068,0.11,0.101,0.245,0.101,0.405c0,0.146-0.04,0.282-0.121,0.41c-0.082,0.127-0.196,0.221-0.344,0.283 C9.6,9.285,9.415,9.316,9.194,9.316c-0.322,0-0.569-0.074-0.741-0.223C8.281,8.944,8.178,8.728,8.144,8.443z"/><path style="fill:#FFFFFF;" d="M11.039,9.271V7.158h-0.755v-0.43h2.02v0.43h-0.752v2.113H11.039z"/></g></g></g></g></g></svg> 
