<?xml version="1.0" encoding="iso-8859-1"?><svg version="1.1" xmlns="http://www.w3.org/2000/svg" xmlns:xlink="http://www.w3.org/1999/xlink" x="0px" y="0px" viewBox="0 0 16 16" style="enable-background:new 0 0 16 16;" xml:space="preserve"><g id="robot-left"><g id="XMLID_88989_"><g id="XMLID_93962_"><path id="XMLID_93966_" style="fill:#FFFFFF;" d="M8.325,12.494c0.002,0.008,0.006,0.014,0.013,0.018 c0.09,0.057,0.726,0.492,0.257,1.124c-0.314,0.422-0.255,0.63-0.167,0.726c0.021,0.023,0,0.058-0.03,0.05 c-0.217-0.058-0.576-0.251-0.378-0.879c0.254-0.804-0.355-0.511-0.332-0.155c0.002,0.029-0.033,0.045-0.052,0.023 c-0.134-0.144-0.366-0.496,0.052-0.896C8.186,12.028,8.307,12.42,8.325,12.494z"/><path id="XMLID_93963_" style="fill:#150035;" d="M8.388,14.451c-0.128-0.034-0.3-0.112-0.396-0.287 C7.902,14,7.898,13.783,7.981,13.52c0.107-0.339,0.043-0.427,0.021-0.446c-0.031-0.027-0.077-0.01-0.102,0.002 c-0.091,0.045-0.179,0.169-0.171,0.299c0.002,0.031-0.015,0.059-0.044,0.071c-0.028,0.012-0.059,0.005-0.08-0.017 c-0.133-0.144-0.394-0.525,0.054-0.954c0.203-0.195,0.374-0.274,0.507-0.234c0.135,0.04,0.184,0.187,0.197,0.238 c0.07,0.045,0.371,0.256,0.432,0.583c0.037,0.197-0.02,0.398-0.168,0.597C8.4,13.966,8.34,14.205,8.458,14.333 c0.022,0.024,0.025,0.058,0.009,0.086c-0.013,0.022-0.036,0.034-0.061,0.034C8.4,14.454,8.394,14.453,8.388,14.451z M7.716,12.535c-0.364,0.349-0.21,0.654-0.069,0.817c0.003-0.158,0.111-0.295,0.217-0.349c0.073-0.036,0.143-0.033,0.192,0.009 c0.062,0.053,0.113,0.188,0.004,0.534c-0.076,0.24-0.074,0.436,0.004,0.58c0.074,0.135,0.204,0.203,0.312,0.237 c-0.089-0.121-0.115-0.346,0.186-0.751c0.134-0.18,0.185-0.36,0.153-0.533c-0.056-0.3-0.342-0.495-0.399-0.531 c-0.016-0.01-0.026-0.025-0.031-0.043l0,0c-0.009-0.036-0.044-0.155-0.141-0.183c-0.015-0.004-0.03-0.006-0.047-0.006 C7.999,12.314,7.869,12.389,7.716,12.535z"/></g><g id="XMLID_93957_"><path id="XMLID_93961_" style="fill:#150035;" d="M7.68,12.891c0.068-0.147,0.05-0.228,0.018-0.272 c-0.026-0.036-0.019-0.085,0.017-0.111c0.134-0.094,0.341-0.235,0.391-0.235c-0.092,0.421,0.215,0.461,0.266,0.726 c0.054,0.283-0.353,0.604-0.365,0.61c0.006-0.025,0.012-0.05,0.021-0.076c0.205-0.648-0.151-0.583-0.285-0.347 C7.707,13.107,7.613,13.035,7.68,12.891z"/><path id="XMLID_93958_" style="fill:#150035;" d="M7.971,13.583c0.005-0.02,0.011-0.041,0.017-0.063 c0.094-0.297,0.063-0.431,0.007-0.455c-0.052-0.023-0.156,0.033-0.217,0.141l-0.04,0.07l-0.033-0.073 c-0.007-0.016-0.018-0.032-0.029-0.049c-0.04-0.063-0.095-0.149-0.034-0.28l0,0c0.049-0.105,0.056-0.185,0.022-0.231 c-0.02-0.027-0.027-0.059-0.022-0.092c0.005-0.031,0.023-0.059,0.049-0.077c0.29-0.202,0.372-0.242,0.414-0.242c0,0,0,0,0.001,0 l0.05,0l-0.011,0.049c-0.052,0.24,0.033,0.343,0.123,0.452c0.06,0.072,0.121,0.146,0.143,0.258 c0.061,0.32-0.382,0.652-0.387,0.654l-0.082,0.042L7.971,13.583z M7.739,12.541c-0.01,0.007-0.014,0.017-0.015,0.023 c-0.002,0.01,0.001,0.021,0.007,0.029c0.054,0.073,0.049,0.179-0.014,0.314c-0.042,0.09-0.01,0.141,0.028,0.2 c0.082-0.103,0.199-0.155,0.283-0.119c0.067,0.029,0.159,0.133,0.056,0.498c0.116-0.112,0.28-0.311,0.248-0.482 c-0.017-0.091-0.07-0.154-0.125-0.221c-0.086-0.103-0.182-0.219-0.153-0.449C8.001,12.365,7.907,12.424,7.739,12.541z"/></g><g id="XMLID_93952_"><path id="XMLID_93956_" style="fill:#39A1FF;" d="M10.183,3.93L10.183,3.93c0,0,0.928-0.36,1.293,0.312 c0.365,0.672-0.444,1.254-0.444,1.254l0,0c-0.119,0.101-0.299,0.102-0.498-0.02c-0.345-0.212-0.616-0.711-0.605-1.116 C9.934,4.125,10.034,3.975,10.183,3.93z"/><path id="XMLID_93953_" style="fill:#150035;" d="M10.512,5.51c-0.355-0.218-0.636-0.735-0.624-1.152 c0.006-0.221,0.091-0.382,0.236-0.449l0,0l0.005-0.002c0.011-0.005,0.022-0.009,0.033-0.013l0.007-0.003 c0.01-0.004,0.966-0.365,1.344,0.331c0.378,0.696-0.448,1.301-0.456,1.307l-0.005,0.003c-0.065,0.052-0.142,0.078-0.227,0.078 C10.727,5.61,10.621,5.577,10.512,5.51z M11.044,5.434c0.149-0.121,0.696-0.62,0.396-1.173c-0.298-0.549-1.008-0.368-1.196-0.309 l0.001,0.002l-0.05,0.015c-0.138,0.041-0.22,0.184-0.226,0.391c-0.01,0.391,0.252,0.875,0.585,1.079 c0.176,0.108,0.341,0.117,0.45,0.024l0.038-0.031L11.044,5.434z"/></g><g id="XMLID_90604_"><path id="XMLID_93951_" style="fill:#39A1FF;" d="M7.225,12.051L7.225,12.051c-0.001,0,0.119-0.937,0.845-0.937 c0.726,0,0.845,0.937,0.845,0.937H8.914c0.03,0.145-0.05,0.296-0.243,0.407c-0.333,0.192-0.872,0.192-1.204,0 C7.275,12.346,7.195,12.195,7.225,12.051z"/><path id="XMLID_93948_" style="fill:#150035;" d="M7.447,12.493c-0.182-0.105-0.278-0.249-0.269-0.401h0l0.001-0.006 c0.001-0.011,0.002-0.022,0.004-0.032l0.001-0.008c0.001-0.01,0.133-0.973,0.886-0.973c0,0,0,0,0,0 c0.753,0,0.884,0.964,0.886,0.973l0.001,0.006c0.03,0.167-0.065,0.327-0.264,0.442c-0.172,0.099-0.397,0.149-0.623,0.149 C7.844,12.641,7.619,12.592,7.447,12.493z M8.07,11.154C8.07,11.154,8.07,11.154,8.07,11.154c-0.591,0-0.761,0.671-0.797,0.855 h0.002l-0.01,0.049c-0.028,0.133,0.054,0.265,0.223,0.363c0.321,0.185,0.843,0.185,1.163,0c0.169-0.098,0.251-0.23,0.223-0.363 l-0.01-0.049h0.002C8.831,11.825,8.661,11.154,8.07,11.154z"/></g><g id="XMLID_90599_"><path id="XMLID_90603_" style="fill:#150035;" d="M8.459,9.715v1.439c0.001,0.059-0.036,0.118-0.114,0.162 c-0.152,0.088-0.399,0.088-0.551,0c-0.076-0.044-0.114-0.102-0.114-0.159l0,0V9.711L8.459,9.715z"/><path id="XMLID_90600_" style="fill:#150035;" d="M7.774,11.352c-0.087-0.05-0.135-0.119-0.135-0.195V9.669L8.5,9.674v1.479 c0.002,0.077-0.046,0.148-0.135,0.199c-0.083,0.048-0.19,0.072-0.296,0.072C7.963,11.424,7.856,11.4,7.774,11.352z M7.721,9.752 v1.405c0,0.045,0.033,0.089,0.094,0.124c0.141,0.081,0.369,0.081,0.51,0c0.061-0.035,0.095-0.08,0.093-0.127V9.756L7.721,9.752z" /></g><g id="XMLID_90588_"><g id="XMLID_90594_"><path id="XMLID_90598_" style="fill:#FFFFFF;" d="M10.075,8.783h0.001c0,0-0.287,2.224-2.01,2.221 c-1.723-0.002-2.002-2.229-2.002-2.229l0.001,0C5.994,8.433,6.185,8.075,6.642,7.812c0.79-0.454,2.07-0.452,2.859,0.005 C9.957,8.082,10.147,8.44,10.075,8.783z"/><path id="XMLID_90595_" style="fill:#150035;" d="M8.066,11.046c-1.739-0.002-2.04-2.242-2.043-2.265L6.021,8.77 c-0.069-0.372,0.149-0.734,0.6-0.993c0.8-0.46,2.101-0.458,2.9,0.005c0.448,0.26,0.665,0.619,0.598,0.989l-0.002,0.018 c-0.003,0.023-0.312,2.257-2.049,2.257C8.067,11.046,8.066,11.046,8.066,11.046z M10.025,8.821l0.01-0.046 c0.071-0.34-0.131-0.676-0.554-0.922c-0.776-0.45-2.04-0.452-2.818-0.005c-0.425,0.244-0.628,0.58-0.558,0.92l0.009,0.049H6.111 c0.053,0.316,0.424,2.144,1.955,2.146c0.001,0,0.001,0,0.002,0c1.532,0,1.908-1.835,1.96-2.142L10.025,8.821z"/></g><g id="XMLID_90589_"><path id="XMLID_90593_" style="fill:#150035;" d="M6.641,7.815c-0.789,0.456-0.789,1.195,0,1.65 c0.789,0.456,2.069,0.456,2.859,0c0.789-0.456,0.789-1.195,0-1.65S7.43,7.359,6.641,7.815z"/><path id="XMLID_90590_" style="fill:#150035;" d="M6.62,9.501C6.225,9.273,6.007,8.967,6.007,8.64 c0-0.327,0.218-0.633,0.613-0.861l0,0c0.799-0.462,2.1-0.462,2.9,0c0.395,0.228,0.613,0.534,0.613,0.861 c0,0.327-0.218,0.633-0.613,0.861c-0.4,0.231-0.925,0.346-1.45,0.346C7.545,9.847,7.02,9.731,6.62,9.501z M6.661,7.85 C6.293,8.063,6.09,8.343,6.09,8.64c0,0.296,0.203,0.577,0.572,0.79c0.777,0.448,2.041,0.448,2.818,0 c0.369-0.213,0.571-0.493,0.571-0.79c0-0.296-0.203-0.577-0.572-0.79C9.09,7.626,8.58,7.514,8.07,7.514S7.05,7.626,6.661,7.85z" /></g></g><g id="XMLID_89279_"><g id="XMLID_90583_"><path id="XMLID_90587_" style="fill:#FFFFFF;" d="M4.771,7.49c0-0.082,0.01-0.165,0.028-0.246 C4.88,6.651,5.169,5.078,6.088,3.539L8.07,3.706l1.982-0.167c0.92,1.539,1.208,3.112,1.289,3.705 c0.127,0.566-0.185,1.158-0.938,1.593c-1.288,0.744-3.377,0.744-4.665,0C5.093,8.465,4.771,7.977,4.771,7.49L4.771,7.49 L4.771,7.49z"/><path id="XMLID_90584_" style="fill:#150035;" d="M5.717,8.872C5.081,8.505,4.73,8.014,4.73,7.49 c0-0.083,0.01-0.168,0.029-0.252c0.082-0.605,0.373-2.179,1.294-3.721l0.013-0.022l2,0.169l2.007-0.169l0.013,0.022 c0.921,1.541,1.212,3.115,1.294,3.717c0.137,0.61-0.212,1.207-0.957,1.638C9.774,9.247,8.922,9.434,8.07,9.434 S6.366,9.247,5.717,8.872z M8.066,3.747L6.111,3.582C5.208,5.103,4.921,6.652,4.84,7.253C4.821,7.334,4.812,7.414,4.812,7.49 c0,0.493,0.336,0.959,0.946,1.311c1.275,0.736,3.349,0.736,4.624,0c0.712-0.411,1.047-0.976,0.918-1.552 c-0.081-0.597-0.368-2.146-1.27-3.667L8.066,3.747z"/></g><g id="XMLID_89280_"><path id="XMLID_90582_" style="fill:#39A1FF;" d="M6.641,2.944c-0.789,0.456-0.789,1.195,0,1.65 c0.789,0.456,2.069,0.456,2.859,0c0.789-0.456,0.789-1.195,0-1.65S7.43,2.488,6.641,2.944z"/><path id="XMLID_89281_" style="fill:#150035;" d="M6.62,4.63C6.225,4.402,6.007,4.096,6.007,3.769 c0-0.327,0.218-0.633,0.613-0.861l0,0c0.799-0.462,2.1-0.462,2.9,0c0.395,0.228,0.613,0.534,0.613,0.861 c0,0.327-0.218,0.633-0.613,0.861c-0.4,0.231-0.925,0.346-1.45,0.346C7.545,4.976,7.02,4.861,6.62,4.63z M6.661,2.979 C6.293,3.192,6.09,3.473,6.09,3.769c0,0.296,0.203,0.577,0.572,0.79c0.777,0.449,2.041,0.449,2.818,0 c0.369-0.213,0.571-0.493,0.571-0.79c0-0.296-0.203-0.577-0.572-0.79C9.09,2.755,8.58,2.643,8.07,2.643S7.05,2.755,6.661,2.979z "/></g></g><g id="XMLID_89274_"><path id="XMLID_89278_" style="fill:#FFFFFF;" d="M6.065,3.314H6.064c0,0,0.283-2.224,2.006-2.225s2.006,2.225,2.006,2.225 h-0.001c0.071,0.343-0.119,0.702-0.576,0.965c-0.789,0.456-2.069,0.456-2.859,0C6.184,4.016,5.993,3.658,6.065,3.314z"/><path id="XMLID_89275_" style="fill:#150035;" d="M6.62,4.315C6.171,4.056,5.954,3.696,6.021,3.326l0.002-0.017 c0.003-0.023,0.308-2.26,2.047-2.261c0,0,0.001,0,0.001,0c1.738,0,2.043,2.238,2.046,2.261l0.001,0.012 c0.07,0.372-0.147,0.734-0.598,0.994c-0.4,0.231-0.925,0.346-1.45,0.346C7.545,4.661,7.02,4.546,6.62,4.315z M8.071,1.13 c0,0-0.001,0-0.001,0C6.54,1.131,6.165,2.957,6.112,3.273h0.004l-0.01,0.049c-0.071,0.34,0.132,0.676,0.556,0.921 c0.777,0.449,2.041,0.449,2.818,0c0.424-0.245,0.627-0.581,0.556-0.921l-0.009-0.049h0.003C9.975,2.957,9.6,1.13,8.071,1.13z"/></g><g id="XMLID_89269_"><path id="XMLID_89273_" style="fill:#39A1FF;" d="M7.807,1.316c-0.145,0.084-0.145,0.219,0,0.303c0.145,0.084,0.38,0.084,0.525,0 c0.145-0.084,0.145-0.219,0-0.303C8.187,1.233,7.952,1.233,7.807,1.316z"/><path id="XMLID_89270_" style="fill:#150035;" d="M7.787,1.655C7.703,1.607,7.658,1.54,7.658,1.468 c0-0.072,0.046-0.139,0.129-0.187l0,0c0.159-0.092,0.407-0.092,0.566,0c0.083,0.048,0.129,0.115,0.129,0.187 c0,0.072-0.046,0.139-0.129,0.187C8.273,1.7,8.171,1.723,8.07,1.723C7.968,1.723,7.866,1.7,7.787,1.655z M7.828,1.352 L7.828,1.352C7.771,1.385,7.74,1.426,7.74,1.468s0.031,0.083,0.088,0.116c0.131,0.076,0.352,0.076,0.483,0 C8.368,1.551,8.399,1.51,8.399,1.468S8.368,1.385,8.311,1.352C8.246,1.314,8.158,1.295,8.07,1.295 C7.981,1.295,7.893,1.314,7.828,1.352z"/></g><g id="XMLID_89264_"><path id="XMLID_89268_" style="fill:#39A1FF;" d="M5.382,6.333L5.382,6.333c0,0.001-1.068-0.232-0.995-1.069 C4.46,4.428,5.553,4.386,5.553,4.386l0,0.001c0.17-0.02,0.336,0.088,0.444,0.321C6.185,5.11,6.13,5.731,5.875,6.095 C5.728,6.305,5.546,6.383,5.382,6.333z"/><path id="XMLID_89265_" style="fill:#150035;" d="M5.423,6.385L5.423,6.385L5.419,6.384C5.406,6.382,5.394,6.379,5.381,6.376 L5.373,6.374c-0.011-0.002-1.102-0.25-1.027-1.113C4.422,4.399,5.54,4.345,5.552,4.345l0.006,0 C5.75,4.326,5.924,4.452,6.034,4.69c0.193,0.414,0.136,1.055-0.126,1.429C5.785,6.295,5.634,6.389,5.48,6.389 C5.461,6.389,5.442,6.388,5.423,6.385z M5.558,4.427L5.512,4.432V4.43C5.314,4.449,4.489,4.57,4.428,5.268 c-0.06,0.689,0.707,0.954,0.913,1.012V6.278l0.053,0.016C5.547,6.34,5.71,6.259,5.842,6.071c0.247-0.353,0.3-0.957,0.118-1.347 C5.87,4.532,5.738,4.425,5.593,4.425C5.582,4.425,5.57,4.426,5.558,4.427z"/></g><g id="XMLID_89259_"><path id="XMLID_89263_" style="fill:#39A1FF;" d="M9.084,2.61c0.347-0.2,0.481-0.484,0.4-0.748 C9.48,1.849,9.497,1.84,9.505,1.851c0.228,0.315,0.37,0.671,0.455,0.954c0.074,0.325-0.112,0.672-0.545,0.922 C9.055,3.935,8.585,4.04,8.112,4.045C7.926,4.046,7.755,3.946,7.665,3.784L7.661,3.776C7.534,3.549,7.544,3.272,7.684,3.055v0 C7.765,2.93,7.903,2.851,8.052,2.852C8.425,2.855,8.799,2.774,9.084,2.61z"/><path id="XMLID_89260_" style="fill:#150035;" d="M7.629,3.804L7.625,3.796C7.491,3.555,7.5,3.263,7.65,3.032 c0.09-0.139,0.239-0.222,0.399-0.222c0.008,0,0.015,0,0.023,0c0.376,0,0.727-0.084,0.992-0.236l0,0 c0.317-0.183,0.46-0.445,0.382-0.7C9.437,1.849,9.449,1.822,9.472,1.81c0.023-0.012,0.051-0.005,0.066,0.016 C9.78,2.16,9.923,2.536,10.001,2.795c0.081,0.354-0.13,0.716-0.564,0.966C9.083,3.966,8.612,4.081,8.112,4.086 c-0.002,0-0.003,0-0.005,0C7.909,4.086,7.726,3.978,7.629,3.804z M9.104,2.646L9.104,2.646c-0.277,0.16-0.643,0.247-1.033,0.247 c-0.008,0-0.015,0-0.023,0c-0.13,0-0.256,0.07-0.33,0.184C7.586,3.282,7.578,3.542,7.697,3.756l0.004,0.008 c0.083,0.149,0.236,0.241,0.41,0.239c0.486-0.005,0.942-0.116,1.284-0.313c0.401-0.232,0.598-0.56,0.526-0.874 C9.854,2.594,9.737,2.28,9.548,1.986C9.561,2.234,9.403,2.473,9.104,2.646z"/></g><g id="XMLID_89254_"><path id="XMLID_89258_" style="fill:#150035;" d="M8.086,3.854C8.559,3.85,8.843,3.81,9.231,3.603 c0.441-0.235,0.665-0.514,0.545-0.922C9.717,2.486,9.63,2.254,9.506,2.026c0.002-0.055-0.005-0.11-0.022-0.164 C9.48,1.849,9.497,1.84,9.505,1.851c0.228,0.315,0.37,0.671,0.455,0.954c0.074,0.325-0.112,0.672-0.545,0.922 C9.055,3.935,8.585,4.045,8.112,4.045c-0.187,0-0.326-0.134-0.421-0.234C7.684,3.804,7.691,3.794,7.7,3.797 C7.856,3.851,8.026,3.855,8.086,3.854z"/><path id="XMLID_89255_" style="fill:#150035;" d="M7.661,3.839C7.645,3.823,7.643,3.798,7.655,3.779 c0.013-0.02,0.037-0.028,0.059-0.02C7.861,3.81,8.023,3.814,8.086,3.813l0,0c0.458-0.004,0.743-0.042,1.126-0.247 c0.468-0.25,0.63-0.519,0.525-0.874C9.668,2.465,9.576,2.241,9.47,2.046l-0.005-0.01l0-0.011c0.001-0.051-0.005-0.102-0.02-0.151 C9.437,1.849,9.449,1.822,9.472,1.81c0.023-0.012,0.051-0.005,0.066,0.016C9.78,2.16,9.923,2.536,10.001,2.795 c0.081,0.354-0.13,0.716-0.564,0.966C9.074,3.971,8.604,4.086,8.112,4.086C7.923,4.086,7.784,3.967,7.661,3.839z M9.547,2.016 C9.654,2.214,9.746,2.44,9.815,2.67c0.116,0.394-0.063,0.702-0.565,0.97C8.852,3.852,8.558,3.891,8.086,3.896 C8.037,3.896,7.928,3.894,7.81,3.869c0.087,0.076,0.185,0.134,0.302,0.134c0.478,0,0.934-0.111,1.283-0.313 c0.401-0.232,0.598-0.56,0.526-0.874C9.854,2.594,9.737,2.279,9.547,1.984C9.547,1.995,9.548,2.005,9.547,2.016z"/></g><g id="XMLID_89249_"><path id="XMLID_89253_" style="fill:#FFFFFF;" d="M9.367,2.852c0.011,0.143,0.076,0.255,0.145,0.249 c0.069-0.005,0.116-0.126,0.104-0.269C9.605,2.689,9.54,2.577,9.471,2.583C9.402,2.588,9.356,2.709,9.367,2.852z"/><path id="XMLID_89250_" style="fill:#150035;" d="M9.383,3.053C9.352,3,9.332,2.93,9.326,2.855 C9.313,2.684,9.374,2.549,9.468,2.542c0.094-0.007,0.176,0.116,0.189,0.287C9.671,3,9.61,3.134,9.516,3.142 c-0.003,0-0.006,0-0.008,0C9.46,3.142,9.416,3.111,9.383,3.053z M9.475,2.624C9.441,2.626,9.398,2.717,9.408,2.848 C9.413,2.911,9.43,2.97,9.454,3.011c0.018,0.031,0.04,0.049,0.055,0.049c0.033-0.003,0.077-0.094,0.067-0.225 C9.565,2.706,9.51,2.624,9.476,2.624C9.476,2.624,9.475,2.624,9.475,2.624z"/></g><g id="XMLID_89244_"><path id="XMLID_89248_" style="fill:#FFFFFF;" d="M8.096,3.347C8.097,3.51,8.23,3.642,8.392,3.641 C8.555,3.64,8.685,3.506,8.684,3.343C8.683,3.179,8.551,3.047,8.388,3.048C8.226,3.049,8.095,3.183,8.096,3.347z"/><path id="XMLID_89245_" style="fill:#150035;" d="M8.155,3.585c-0.064-0.063-0.099-0.148-0.1-0.238 c-0.001-0.186,0.148-0.339,0.333-0.34c0.092,0,0.174,0.034,0.238,0.097c0.064,0.063,0.099,0.148,0.1,0.238 c0.001,0.186-0.148,0.339-0.333,0.34c-0.001,0-0.002,0-0.002,0C8.302,3.682,8.218,3.648,8.155,3.585z M8.388,3.089 C8.249,3.09,8.136,3.206,8.137,3.346l-0.041,0l0.041,0c0,0.068,0.027,0.132,0.075,0.18C8.261,3.574,8.321,3.601,8.392,3.6 c0.139-0.001,0.252-0.116,0.251-0.257c0-0.068-0.027-0.132-0.075-0.18C8.52,3.115,8.457,3.089,8.39,3.089 C8.39,3.089,8.389,3.089,8.388,3.089z"/></g><g id="XMLID_89239_"><path id="XMLID_89243_" style="fill:#39A1FF;" d="M7.592,6.936l0.201-0.621C7.817,6.24,7.888,6.191,7.967,6.192 c1.052,0.017,1.798-0.37,2.082-0.547c0.075-0.047,0.173-0.032,0.231,0.035l0.246,0.285c0.158,0.183,0.274,0.398,0.335,0.632 c0.342,1.312,0.04,1.863,0.035,1.872c-0.134,0.128-0.297,0.249-0.489,0.359c-0.759,0.438-1.794,0.618-2.781,0.54 C7.389,8.708,7.428,7.91,7.475,7.477C7.495,7.293,7.535,7.112,7.592,6.936z"/><path id="XMLID_89240_" style="fill:#150035;" d="M7.623,9.409L7.597,9.407L7.588,9.382c-0.242-0.671-0.2-1.484-0.154-1.909 c0.02-0.182,0.06-0.367,0.119-0.549l0.201-0.621c0.03-0.092,0.118-0.151,0.214-0.151c1.05,0.016,1.789-0.373,2.06-0.541 c0.093-0.058,0.212-0.04,0.284,0.043l0.246,0.285c0.164,0.19,0.283,0.414,0.344,0.648c0.344,1.317,0.044,1.879,0.031,1.903 l-0.008,0.01c-0.14,0.133-0.306,0.255-0.496,0.365C9.796,9.229,8.96,9.427,8.083,9.427C7.931,9.427,7.777,9.421,7.623,9.409z M10.821,6.607c-0.058-0.222-0.171-0.435-0.326-0.615l-0.246-0.285c-0.045-0.052-0.12-0.063-0.178-0.027 C9.794,5.852,9.039,6.249,7.967,6.234c-0.001,0-0.002,0-0.002,0c-0.061,0-0.114,0.038-0.132,0.094L7.631,6.949 C7.574,7.125,7.535,7.304,7.516,7.481C7.471,7.894,7.43,8.678,7.656,9.329c1.015,0.075,2.009-0.12,2.731-0.537 c0.182-0.105,0.342-0.222,0.476-0.349C10.891,8.386,11.139,7.827,10.821,6.607z"/></g><g id="XMLID_89234_"><ellipse id="XMLID_89238_" style="fill:#FFFFFF;" cx="10.674" cy="8.225" rx="0.092" ry="0.131"/><path id="XMLID_89235_" style="fill:#150035;" d="M10.541,8.225c0-0.097,0.058-0.172,0.133-0.172s0.133,0.076,0.133,0.172 c0,0.097-0.058,0.172-0.133,0.172S10.541,8.322,10.541,8.225z M10.624,8.225c0,0.052,0.027,0.09,0.05,0.09 c0.024,0,0.051-0.039,0.051-0.09c0-0.052-0.027-0.09-0.051-0.09C10.65,8.135,10.624,8.174,10.624,8.225z"/></g><g id="XMLID_89000_"><path id="XMLID_89233_" style="fill:#FFFFFF;" d="M10.087,6.069c0.034,0.064,0.097,0.097,0.141,0.074 c0.044-0.023,0.052-0.094,0.018-0.158c-0.034-0.064-0.097-0.097-0.141-0.074C10.061,5.934,10.053,6.005,10.087,6.069z"/><path id="XMLID_89001_" style="fill:#150035;" d="M10.135,6.175c-0.034-0.018-0.064-0.049-0.084-0.087l0,0 c-0.045-0.085-0.03-0.179,0.035-0.214c0.033-0.018,0.074-0.016,0.113,0.004c0.034,0.018,0.064,0.049,0.084,0.087 c0.02,0.038,0.029,0.08,0.025,0.118c-0.005,0.043-0.027,0.078-0.06,0.095c-0.015,0.008-0.032,0.012-0.05,0.012 C10.177,6.191,10.156,6.186,10.135,6.175z M10.125,5.947c-0.02,0.011-0.025,0.057-0.001,0.103c0.012,0.023,0.03,0.042,0.05,0.052 c0.007,0.004,0.024,0.011,0.036,0.004c0.012-0.007,0.016-0.025,0.017-0.032c0.002-0.021-0.003-0.047-0.016-0.07 c-0.012-0.023-0.03-0.042-0.049-0.052c-0.005-0.002-0.015-0.007-0.024-0.007C10.132,5.945,10.128,5.945,10.125,5.947z"/></g><g id="XMLID_88995_"><path id="XMLID_88999_" style="fill:#FFFFFF;" d="M7.823,9.002c0,0.072,0.059,0.131,0.131,0.131c0.072,0,0.131-0.059,0.131-0.131 S8.027,8.87,7.955,8.87C7.882,8.87,7.823,8.929,7.823,9.002z"/><path id="XMLID_88996_" style="fill:#150035;" d="M7.782,9.002c0-0.095,0.077-0.172,0.172-0.172c0.095,0,0.172,0.077,0.172,0.172 c0,0.095-0.077,0.172-0.172,0.172C7.859,9.174,7.782,9.097,7.782,9.002z M7.864,9.002c0,0.05,0.04,0.09,0.09,0.09 c0.05,0,0.09-0.04,0.09-0.09s-0.04-0.09-0.09-0.09C7.905,8.912,7.864,8.952,7.864,9.002z"/></g><g id="XMLID_88990_"><path id="XMLID_88994_" style="fill:#FFFFFF;" d="M7.985,6.625c0,0.072,0.059,0.131,0.131,0.131s0.131-0.059,0.131-0.131 c0-0.072-0.059-0.131-0.131-0.131S7.985,6.553,7.985,6.625z"/><path id="XMLID_88991_" style="fill:#150035;" d="M7.944,6.625c0-0.095,0.077-0.172,0.172-0.172c0.095,0,0.172,0.077,0.172,0.172 c0,0.095-0.077,0.172-0.172,0.172C8.021,6.797,7.944,6.72,7.944,6.625z M8.026,6.625c0,0.05,0.04,0.09,0.09,0.09 s0.09-0.04,0.09-0.09c0-0.05-0.04-0.09-0.09-0.09S8.026,6.575,8.026,6.625z"/></g></g><g id="XMLID_88987_"><path id="XMLID_88988_" style="fill:#150035;" d="M5.3,6.343c0.545-0.269,0.543-1.052,0.543-1.085L5.761,5.259 c0,0.008,0.001,0.765-0.497,1.01L5.3,6.343z"/></g><g id="XMLID_88985_"><path id="XMLID_88986_" style="fill:#150035;" d="M5.761,5.084l0.082-0.006C5.842,5.066,5.82,4.788,5.677,4.597L5.611,4.646 C5.739,4.818,5.76,5.081,5.761,5.084z"/></g><g id="XMLID_88983_"><path id="XMLID_88984_" style="fill:#150035;" d="M11.408,4.709c0.003-0.017,0.07-0.414-0.362-0.698l-0.045,0.069 c0.387,0.255,0.327,0.611,0.326,0.615L11.408,4.709z"/></g><g id="XMLID_88981_"><path id="XMLID_88982_" style="fill:#150035;" d="M8.049,1.922c0.512,0,0.636-0.333,0.641-0.348L8.612,1.546 C8.607,1.56,8.484,1.885,7.936,1.834L7.928,1.916C7.971,1.92,8.011,1.922,8.049,1.922z"/></g><g id="XMLID_83912_"><path id="XMLID_88980_" style="fill:#150035;" d="M7.256,9.094l0.01-0.082C7.257,9.011,6.44,8.906,5.8,8.518l-0.043,0.07 C6.413,8.986,7.247,9.093,7.256,9.094z"/></g><g id="XMLID_83910_"><path id="XMLID_83911_" style="fill:#150035;" d="M5.119,7.954l0.049-0.066c-0.001-0.001-0.133-0.104-0.19-0.345l-0.08,0.019 C4.963,7.834,5.113,7.949,5.119,7.954z"/></g><g id="XMLID_83908_"><path id="XMLID_83909_" style="fill:#150035;" d="M8.161,10.827c0.803-0.019,1.095-0.527,1.107-0.549l-0.072-0.04 c-0.003,0.005-0.283,0.489-1.037,0.506L8.161,10.827z"/></g><g id="XMLID_83906_"><path id="XMLID_83907_" style="fill:#150035;" d="M8.116,12.453c0.431,0,0.657-0.276,0.667-0.289l-0.064-0.051 c-0.01,0.012-0.25,0.304-0.712,0.252l-0.009,0.082C8.038,12.451,8.078,12.453,8.116,12.453z"/></g><g id="XMLID_83904_"><path id="XMLID_83905_" style="fill:#150035;" d="M9.426,1.454l0.058-0.058c-0.02-0.02-0.492-0.488-1.271-0.57L8.205,0.907 C8.955,0.987,9.422,1.449,9.426,1.454z"/></g><g id="XMLID_83902_"><path id="XMLID_83903_" style="fill:#150035;" d="M7.044,11.031l0.042-0.071c-0.005-0.003-0.552-0.334-0.79-0.88l-0.075,0.033 C6.47,10.684,7.021,11.017,7.044,11.031z"/></g><g id="XMLID_83900_"><path id="XMLID_83901_" style="fill:#150035;" d="M8.219,15.175c0.021,0,0.042-0.003,0.064-0.011 c0.094-0.031,0.167-0.122,0.176-0.222c0.007-0.068-0.011-0.198-0.2-0.302c-0.379-0.209-0.507-0.557-0.509-0.56l-0.077,0.028 c0.006,0.015,0.14,0.38,0.546,0.604c0.11,0.061,0.166,0.139,0.158,0.222c-0.006,0.067-0.057,0.131-0.12,0.151 c-0.032,0.01-0.079,0.013-0.119-0.033l-0.062,0.054C8.116,15.152,8.166,15.175,8.219,15.175z"/></g><g id="XMLID_83898_"><path id="XMLID_83899_" style="fill:#150035;" d="M7.937,15.118c0.023-0.067,0.057-0.113,0.103-0.135 c0.064-0.031,0.131-0.007,0.131-0.007l0.028-0.077c-0.004-0.001-0.099-0.036-0.195,0.01c-0.067,0.032-0.116,0.094-0.146,0.183 L7.937,15.118z"/></g><g id="XMLID_83896_"><path id="XMLID_83897_" style="fill:#150035;" d="M11.576,7.409l0.081-0.013c-0.001-0.009-0.14-0.891-0.31-1.396L11.27,6.026 C11.438,6.525,11.575,7.4,11.576,7.409z"/></g><g id="XMLID_83894_"><path id="XMLID_83895_" style="fill:#150035;" d="M7.453,0.975c0.16-0.059,0.529-0.068,0.533-0.068L7.984,0.825 c-0.016,0-0.386,0.009-0.559,0.073L7.453,0.975z"/></g><g id="XMLID_83892_"><path id="XMLID_83893_" style="fill:#150035;" d="M7.486,11.194l0.021-0.079c-0.002,0-0.154-0.042-0.322-0.121l-0.035,0.074 C7.325,11.15,7.48,11.192,7.486,11.194z"/></g></g></svg> 
