<?xml version="1.0" encoding="iso-8859-1"?><svg version="1.1" xmlns="http://www.w3.org/2000/svg" xmlns:xlink="http://www.w3.org/1999/xlink" x="0px" y="0px" viewBox="0 0 16 16" style="enable-background:new 0 0 16 16;" xml:space="preserve"><g id="save"><g><path style="fill:#555555;" d="M15.16,4.963V3.813l-2.988-2.988h-1.149h-0.693H2.782c-1.079,0-1.957,0.878-1.957,1.957v10.436 c0,1.079,0.878,1.957,1.957,1.957h10.436c1.079,0,1.957-0.878,1.957-1.957V4.977L15.16,4.963z M13.218,13.87H2.782 c-0.36,0-0.652-0.293-0.652-0.652V2.782c0-0.36,0.293-0.652,0.652-0.652h8.852l0.268,0.268l1.685,1.685l0.283,0.283v8.852 C13.87,13.578,13.578,13.87,13.218,13.87z"/><path style="fill:#555555;" d="M11.734,8.558h-0.841h-0.302H7.526H7.057H5.769H4.863H4.266c-0.243,0-0.44,0.197-0.44,0.44v2.267 v1.202v2.707h1.944v-1.303H5.128v-1.404v-1.202V9.861h0.641h1.287h0.469h3.066h0.28v1.404v1.202v1.404h-0.28v1.303h1.583v-2.707 v-1.202V8.999C12.175,8.755,11.978,8.558,11.734,8.558z"/><path style="fill:#555555;" d="M9.534,2.13h-0.04H8.23v2.606H7.95H5.769H5.514H5.128V2.13H3.825v3.468 c0,0.244,0.198,0.442,0.442,0.442h1.247h0.255H7.95h1.263h0.137h0.183h0.822c0.244,0,0.442-0.198,0.442-0.442V2.13H9.534z"/></g></g></svg> 
