<?xml version="1.0" encoding="iso-8859-1"?><svg version="1.1" xmlns="http://www.w3.org/2000/svg" xmlns:xlink="http://www.w3.org/1999/xlink" x="0px" y="0px" viewBox="0 0 16 16" style="enable-background:new 0 0 16 16;" xml:space="preserve"><g id="schema"><g><g><g><path id="XMLID_00000088123055192260114530000011793789672600723076_" style="fill:#555555;" d="M11.485,14.095h3.237 c0.178,0,0.324-0.146,0.324-0.324v-1.799c0-0.178-0.146-0.324-0.324-0.324h-3.237c-0.178,0-0.324,0.146-0.324,0.324v1.799 C11.161,13.95,11.307,14.095,11.485,14.095z"/><path style="fill:#555555;" d="M11.485,11.52h3.237c0.25,0,0.453,0.203,0.453,0.453v1.799c0,0.25-0.203,0.453-0.453,0.453 h-3.237c-0.25,0-0.453-0.203-0.453-0.453v-1.799C11.032,11.723,11.235,11.52,11.485,11.52z M14.722,13.966 c0.107,0,0.194-0.087,0.194-0.194v-1.799c0-0.107-0.087-0.195-0.194-0.195h-3.237c-0.107,0-0.195,0.087-0.195,0.195v1.799 c0,0.107,0.087,0.194,0.195,0.194H14.722z"/></g><path id="XMLID_00000011749033362904930040000009387011767569247929_" style="fill:#555555;" d="M8.99,12.211V8.542h1.331V7.247 H8.99V3.794h1.331V2.499H8.306c-0.356,0-0.647,0.291-0.647,0.647v9.712c0,0.356,0.291,0.647,0.647,0.647h2.014v-1.295H8.99z"/><g><path id="XMLID_00000026844418351351747010000016171991146685367716_" style="fill:#555555;" d="M11.485,9.223h3.237 c0.178,0,0.324-0.146,0.324-0.324V7.101c0-0.178-0.146-0.324-0.324-0.324h-3.237c-0.178,0-0.324,0.146-0.324,0.324v1.799 C11.161,9.077,11.307,9.223,11.485,9.223z"/><path style="fill:#555555;" d="M11.485,6.648h3.237c0.25,0,0.453,0.203,0.453,0.453v1.799c0,0.25-0.203,0.453-0.453,0.453 h-3.237c-0.25,0-0.453-0.203-0.453-0.453V7.101C11.032,6.851,11.235,6.648,11.485,6.648z M14.722,9.094 c0.107,0,0.195-0.087,0.195-0.194V7.101c0-0.107-0.087-0.195-0.195-0.195h-3.237c-0.107,0-0.195,0.087-0.195,0.195v1.799 c0,0.107,0.087,0.194,0.195,0.194H14.722z"/></g><g><path id="XMLID_00000178180709279972095450000002558796134924916404_" style="fill:#555555;" d="M11.485,4.351h3.237 c0.178,0,0.324-0.146,0.324-0.324V2.228c0-0.178-0.146-0.324-0.324-0.324h-3.237c-0.178,0-0.324,0.146-0.324,0.324v1.799 C11.161,4.205,11.307,4.351,11.485,4.351z"/><path style="fill:#555555;" d="M11.485,1.775h3.237c0.25,0,0.453,0.203,0.453,0.453v1.799c0,0.25-0.203,0.453-0.453,0.453 h-3.237c-0.25,0-0.453-0.203-0.453-0.453V2.228C11.032,1.979,11.235,1.775,11.485,1.775z M14.722,4.221 c0.107,0,0.195-0.087,0.195-0.194V2.228c0-0.107-0.087-0.195-0.195-0.195h-3.237c-0.107,0-0.195,0.087-0.195,0.195v1.799 c0,0.107,0.087,0.194,0.195,0.194H14.722z"/></g><path style="fill:#555555;" d="M6.896,7.302H5.573V6.798c0-0.178-0.146-0.324-0.324-0.324H4.784H3.775H2.552H1.788H1.149 c-0.178,0-0.324,0.146-0.324,0.324v2.23c0,0.178,0.146,0.324,0.324,0.324H5.25c0.178,0,0.324-0.146,0.324-0.324V8.525h1.323 V7.302z"/></g></g></g></svg> 
