<?xml version="1.0" encoding="iso-8859-1"?>
<!-- Generator: Adobe Illustrator 24.3.0, SVG Export Plug-In . SVG Version: 6.00 Build 0)  -->
<svg version="1.1" xmlns="http://www.w3.org/2000/svg" xmlns:xlink="http://www.w3.org/1999/xlink" x="0px" y="0px"
	 viewBox="0 0 16 16" style="enable-background:new 0 0 16 16;" xml:space="preserve">
<g id="schema-color">
	<g>
		<g>
			<path id="XMLID_1034_" style="fill:#686969;" d="M11.485,14.095h3.237c0.178,0,0.324-0.146,0.324-0.324v-1.799
				c0-0.178-0.146-0.324-0.324-0.324h-3.237c-0.178,0-0.324,0.146-0.324,0.324v1.799C11.161,13.95,11.307,14.095,11.485,14.095z"/>
			<path style="fill:#686969;" d="M11.485,11.52h3.237c0.25,0,0.453,0.203,0.453,0.453v1.799c0,0.25-0.203,0.453-0.453,0.453h-3.237
				c-0.25,0-0.453-0.203-0.453-0.453v-1.799C11.032,11.723,11.235,11.52,11.485,11.52z M14.722,13.966
				c0.107,0,0.194-0.087,0.194-0.194v-1.799c0-0.107-0.087-0.195-0.194-0.195h-3.237c-0.107,0-0.195,0.087-0.195,0.195v1.799
				c0,0.107,0.087,0.194,0.195,0.194H14.722z"/>
		</g>
		<path id="XMLID_1028_" style="fill:#686969;" d="M8.99,12.211V8.542h1.331V7.247H8.99V3.794h1.331V2.499H8.306
			c-0.356,0-0.647,0.291-0.647,0.647v9.712c0,0.356,0.291,0.647,0.647,0.647h2.014v-1.295H8.99z"/>
		<g>
			<path id="XMLID_1024_" style="fill:#686969;" d="M11.485,9.223h3.237c0.178,0,0.324-0.146,0.324-0.324V7.101
				c0-0.178-0.146-0.324-0.324-0.324h-3.237c-0.178,0-0.324,0.146-0.324,0.324v1.799C11.161,9.077,11.307,9.223,11.485,9.223z"/>
			<path style="fill:#686969;" d="M11.485,6.648h3.237c0.25,0,0.453,0.203,0.453,0.453v1.799c0,0.25-0.203,0.453-0.453,0.453h-3.237
				c-0.25,0-0.453-0.203-0.453-0.453V7.101C11.032,6.851,11.235,6.648,11.485,6.648z M14.722,9.094c0.107,0,0.195-0.087,0.195-0.194
				V7.101c0-0.107-0.087-0.195-0.195-0.195h-3.237c-0.107,0-0.195,0.087-0.195,0.195v1.799c0,0.107,0.087,0.194,0.195,0.194H14.722z
				"/>
		</g>
		<g>
			<path id="XMLID_100_" style="fill:#686969;" d="M11.485,4.351h3.237c0.178,0,0.324-0.146,0.324-0.324V2.228
				c0-0.178-0.146-0.324-0.324-0.324h-3.237c-0.178,0-0.324,0.146-0.324,0.324v1.799C11.161,4.205,11.307,4.351,11.485,4.351z"/>
			<path style="fill:#686969;" d="M11.485,1.775h3.237c0.25,0,0.453,0.203,0.453,0.453v1.799c0,0.25-0.203,0.453-0.453,0.453h-3.237
				c-0.25,0-0.453-0.203-0.453-0.453V2.228C11.032,1.979,11.235,1.775,11.485,1.775z M14.722,4.221c0.107,0,0.195-0.087,0.195-0.194
				V2.228c0-0.107-0.087-0.195-0.195-0.195h-3.237c-0.107,0-0.195,0.087-0.195,0.195v1.799c0,0.107,0.087,0.194,0.195,0.194H14.722z
				"/>
		</g>
		<path style="fill:#0088B6;" d="M6.896,7.302H5.573V6.798c0-0.178-0.146-0.324-0.324-0.324H4.784H3.775H2.552H1.788H1.149
			c-0.178,0-0.324,0.146-0.324,0.324v2.23c0,0.178,0.146,0.324,0.324,0.324H5.25c0.178,0,0.324-0.146,0.324-0.324V8.525h1.323V7.302
			z"/>
	</g>
</g>
<g id="Layer_1">
</g>
</svg>
