<?xml version="1.0" encoding="iso-8859-1"?><svg version="1.1" xmlns="http://www.w3.org/2000/svg" xmlns:xlink="http://www.w3.org/1999/xlink" x="0px" y="0px" viewBox="0 0 16 16" style="enable-background:new 0 0 16 16;" xml:space="preserve"><g id="schema-diagram-color"><g id="schema-diagram-color_1_"><g><rect x="8.409" y="6.691" transform="matrix(0.452 -0.892 0.892 0.452 -4.2152 13.3718)" style="fill:#555555;" width="0.734" height="6.852"/><rect x="4.01" y="5.219" transform="matrix(0.8287 -0.5597 0.5597 0.8287 -1.8527 5.1188)" style="fill:#555555;" width="6.852" height="0.734"/><path style="fill:#637B32;" d="M0.825,5.311v5.378h5.311V5.311H0.825z M1.56,9.955v-1.94h3.842v1.939L1.56,9.955L1.56,9.955z"/><path style="fill:#0088B6;" d="M9.863,0.825v5.378h5.312V0.825H9.863z M10.598,5.469V3.503h3.843V5.47h-3.843V5.469z"/><path style="fill:#0088B6;" d="M9.863,9.797v5.378h5.312V9.797H9.863z M10.598,14.44v-2.111h3.843v2.111H10.598z"/></g></g><g id="Layer_1_2_"></g><g id="schema-diagram-color_2_"><g><rect x="8.409" y="6.69" transform="matrix(0.452 -0.892 0.892 0.452 -4.215 13.3717)" style="fill:#555555;" width="0.734" height="6.852"/><rect x="4.01" y="5.219" transform="matrix(0.8287 -0.5597 0.5597 0.8287 -1.8526 5.1187)" style="fill:#555555;" width="6.852" height="0.734"/><path style="fill:#637B32;" d="M0.825,5.311v5.378h5.311V5.311H0.825z M1.56,9.955v-1.94h3.842v1.939L1.56,9.955L1.56,9.955z"/><path style="fill:#0088B6;" d="M9.863,0.825v5.378h5.312V0.825H9.863z M10.598,5.469V3.503h3.843V5.47h-3.843V5.469z"/><path style="fill:#0088B6;" d="M9.863,9.797v5.378h5.312V9.797H9.863z M10.598,14.44v-2.111h3.843v2.111H10.598z"/></g></g></g></svg> 
