<?xml version="1.0" encoding="iso-8859-1"?><svg version="1.1" xmlns="http://www.w3.org/2000/svg" xmlns:xlink="http://www.w3.org/1999/xlink" x="0px" y="0px" viewBox="0 0 13.691 13.474" style="enable-background:new 0 0 13.691 13.474;" xml:space="preserve"><g id="settings-popup"><g><path style="fill:#0088B6;" d="M12.855,2.733c-0.008-0.041-0.016-0.08-0.027-0.121l0.609-0.651L13.34,1.767 c-0.074-0.146-0.159-0.286-0.253-0.418c-0.096-0.132-0.197-0.253-0.3-0.362l-0.15-0.156l-0.806,0.35 c-0.037-0.024-0.074-0.049-0.112-0.071L11.69,0.236l-0.206-0.067c-0.312-0.102-0.63-0.158-0.948-0.164L10.319,0l-0.317,0.81 c-0.045,0.009-0.09,0.019-0.134,0.029L9.236,0.245L9.043,0.339C8.894,0.412,8.748,0.499,8.598,0.605 C8.481,0.69,8.365,0.786,8.254,0.89L8.096,1.04l0.353,0.807C8.424,1.884,8.4,1.92,8.378,1.958L7.495,1.987L7.425,2.19 C7.319,2.497,7.263,2.815,7.255,3.135L7.25,3.353L8.088,3.68c0.009,0.039,0.017,0.079,0.027,0.117L7.494,4.461L7.59,4.654 c0.074,0.151,0.163,0.298,0.262,0.439c0.104,0.141,0.194,0.247,0.286,0.342l0.15,0.153l0.844-0.366 c0.03,0.02,0.06,0.04,0.092,0.057l0.029,0.928L9.46,6.275c0.304,0.1,0.619,0.155,0.934,0.161l0.216,0.004l0.339-0.865 c0.035-0.007,0.069-0.013,0.103-0.021l0.68,0.636l0.194-0.099c0.141-0.071,0.281-0.157,0.416-0.253 c0.125-0.089,0.245-0.188,0.357-0.295l0.157-0.15l-0.368-0.844c0.02-0.031,0.04-0.063,0.06-0.094l0.915-0.029l0.067-0.208 c0.099-0.307,0.153-0.624,0.159-0.943l0.003-0.216L12.855,2.733z M9.465,3.079c0.078-0.555,0.593-0.942,1.147-0.864 c0.554,0.078,0.942,0.592,0.864,1.147c-0.078,0.555-0.592,0.942-1.147,0.864C9.775,4.148,9.387,3.633,9.465,3.079z"/></g><g><g><path style="fill:#808080;" d="M4.7,4.198l0.228,0.004l0.305,1.031c0.002,0.001,0.004,0.001,0.005,0.001l0.65-0.868L6.1,4.435 C6.42,4.54,6.726,4.679,7.01,4.848l0.197,0.117L6.955,6.011C6.957,6.012,6.959,6.014,6.96,6.015l0.996-0.429l0.149,0.168 c0.109,0.122,0.216,0.257,0.322,0.403c0.088,0.124,0.173,0.258,0.259,0.409l0.114,0.2L8.059,7.548 C8.059,7.55,8.06,7.551,8.061,7.553l1.076,0.13l0.045,0.219C9.252,8.234,9.284,8.57,9.279,8.897L9.275,9.125L8.244,9.43 c0,0.001,0,0.003-0.001,0.004l0.87,0.651l-0.071,0.213c-0.105,0.315-0.245,0.621-0.414,0.909l-0.117,0.199l-1.045-0.253 c-0.001,0.002-0.003,0.003-0.004,0.004l0.427,0.994l-0.166,0.149c-0.129,0.116-0.261,0.222-0.409,0.328 c-0.151,0.103-0.281,0.185-0.408,0.255l-0.2,0.11L5.93,12.255c-0.002,0.001-0.005,0.001-0.007,0.003l-0.129,1.077l-0.219,0.046 c-0.328,0.067-0.661,0.098-0.996,0.093l-0.23-0.004l-0.302-1.029C4.045,12.44,4.043,12.44,4.041,12.44l-0.649,0.87L3.18,13.24 c-0.318-0.105-0.625-0.245-0.912-0.417l-0.195-0.117l0.251-1.044c-0.001-0.001-0.003-0.002-0.004-0.004l-0.996,0.429 l-0.149-0.167c-0.108-0.12-0.213-0.251-0.325-0.405c-0.092-0.135-0.178-0.271-0.257-0.408l-0.114-0.202l0.741-0.779 c-0.001-0.002-0.001-0.004-0.002-0.006L0.143,9.992L0.097,9.774C0.03,9.457-0.003,9.122,0,8.779l0.002-0.23l1.032-0.305 c0-0.001,0.001-0.003,0.001-0.004L0.164,7.588l0.072-0.214c0.109-0.322,0.249-0.628,0.416-0.909L0.77,6.268L1.815,6.52 c0.001-0.002,0.002-0.003,0.004-0.004L1.39,5.52l0.168-0.149C1.684,5.258,1.819,5.15,1.963,5.047 c0.13-0.089,0.267-0.175,0.408-0.256l0.2-0.113l0.777,0.74c0.003-0.001,0.005-0.002,0.007-0.003l0.127-1.077l0.219-0.045 C4.007,4.23,4.319,4.198,4.632,4.198C4.654,4.198,4.677,4.198,4.7,4.198z M3.926,5.883l-0.193,0.06 C3.616,5.979,3.51,6.02,3.408,6.065l-0.19,0.086L2.481,5.45c-0.055,0.034-0.108,0.07-0.16,0.105 C2.259,5.6,2.199,5.645,2.141,5.692l0.403,0.942L2.41,6.781c-0.08,0.088-0.155,0.18-0.225,0.273L2.063,7.22L1.076,6.981 c-0.064,0.123-0.122,0.25-0.174,0.383L1.725,7.98L1.681,8.176C1.656,8.284,1.639,8.395,1.627,8.515L1.605,8.723L0.626,9.013 c0.006,0.141,0.02,0.28,0.04,0.415l1.013,0.12l0.063,0.188c0.038,0.113,0.078,0.223,0.127,0.333l0.085,0.189l-0.702,0.736 c0.035,0.054,0.071,0.108,0.106,0.161c0.047,0.064,0.093,0.124,0.137,0.181l0.939-0.404l0.148,0.132 c0.09,0.08,0.181,0.157,0.275,0.225l0.166,0.122L2.785,12.4c0.123,0.065,0.25,0.124,0.38,0.174l0.614-0.822l0.196,0.043 c0.113,0.025,0.228,0.044,0.345,0.055l0.208,0.022l0.287,0.978c0.139-0.006,0.278-0.019,0.416-0.039l0.122-1.019l0.191-0.06 c0.12-0.038,0.226-0.078,0.324-0.124L6.06,11.52l0.739,0.704c0.051-0.032,0.104-0.067,0.16-0.106 c0.063-0.044,0.123-0.09,0.181-0.136L6.735,11.04l0.135-0.148c0.079-0.087,0.154-0.179,0.224-0.274l0.123-0.165l0.986,0.239 c0.064-0.124,0.121-0.252,0.173-0.381L7.555,9.696L7.598,9.5c0.025-0.114,0.044-0.23,0.059-0.348L7.68,8.95l0.973-0.289 c-0.007-0.138-0.019-0.276-0.04-0.415L7.592,8.123L7.532,7.93C7.498,7.818,7.457,7.711,7.411,7.612L7.323,7.42l0.704-0.741 C7.992,6.622,7.956,6.57,7.921,6.52C7.876,6.457,7.83,6.395,7.783,6.338L6.841,6.743L6.693,6.607 c-0.087-0.08-0.177-0.155-0.272-0.225L6.257,6.26l0.238-0.987C6.37,5.209,6.244,5.151,6.113,5.1L5.497,5.925L5.3,5.879 C5.183,5.852,5.07,5.834,4.963,5.824L4.754,5.805l-0.29-0.982c-0.14,0.006-0.279,0.019-0.417,0.039L3.926,5.883z"/></g></g><path style="fill:#808080;" d="M4.639,7.165c-0.922,0-1.672,0.75-1.672,1.671c0,0.923,0.75,1.673,1.672,1.673 c0.921,0,1.671-0.75,1.671-1.673C6.31,7.915,5.56,7.165,4.639,7.165z M5.592,8.836c0,0.525-0.427,0.953-0.953,0.953 c-0.525,0-0.952-0.428-0.952-0.953c0-0.524,0.427-0.951,0.952-0.951C5.164,7.885,5.592,8.311,5.592,8.836z"/></g></svg> 
