<?xml version="1.0" encoding="iso-8859-1"?><svg version="1.1" xmlns="http://www.w3.org/2000/svg" xmlns:xlink="http://www.w3.org/1999/xlink" x="0px" y="0px" viewBox="0 0 16 16" style="enable-background:new 0 0 16 16;" xml:space="preserve"><g id="sftp-connection"><g><g><path style="fill:#005BA1;" d="M14.823,3.451H8.581C8.514,3.454,8.449,3.433,8.396,3.392L6.61,2.205 C6.554,2.171,6.49,2.154,6.425,2.154H1.177c-0.183,0-0.332,0.146-0.337,0.329v11.035c0.005,0.183,0.154,0.329,0.337,0.329h13.646 c0.183,0,0.332-0.146,0.337-0.329V3.788C15.16,3.602,15.009,3.451,14.823,3.451z"/><path style="fill:#FFFFFF;" d="M2.28,2.794h2.982c0.074,0,0.135,0.06,0.135,0.135v0.379c0,0.074-0.06,0.135-0.135,0.135H2.28 c-0.074,0-0.135-0.06-0.135-0.135V2.929C2.145,2.855,2.206,2.794,2.28,2.794z"/><path style="fill:#1AC3F2;" d="M2.238,2.794h0.463c0.051,0,0.093,0.041,0.093,0.093V3.35c0,0.051-0.041,0.093-0.093,0.093H2.238 c-0.051,0-0.093-0.041-0.093-0.093V2.887C2.145,2.836,2.187,2.794,2.238,2.794z"/><linearGradient id="SVGID_1_" gradientUnits="userSpaceOnUse" x1="8.2014" y1="16.4375" x2="7.8728" y2="3.3306" gradientTransform="matrix(1 0 0 -1 0 17.665)"><stop offset="0" style="stop-color:#32D4F5"/><stop offset="0.23" style="stop-color:#31D0F1"/><stop offset="0.46" style="stop-color:#2CC3E6"/><stop offset="0.7" style="stop-color:#25AFD4"/><stop offset="0.94" style="stop-color:#1C92BA"/><stop offset="1" style="stop-color:#198AB3"/></linearGradient><path style="fill:url(#SVGID_1_);" d="M14.823,3.434H8C7.91,3.432,7.824,3.469,7.764,3.536L6.627,4.631 C6.562,4.689,6.478,4.722,6.391,4.723H1.177c-0.186,0-0.337,0.151-0.337,0.337l0,0v8.423c0.005,0.183,0.154,0.329,0.337,0.329 h13.646c0.183,0,0.332-0.146,0.337-0.329V3.788c0.009-0.186-0.134-0.344-0.32-0.353C14.834,3.435,14.829,3.434,14.823,3.434z"/></g><g><path style="fill:#FFFFFF;" d="M2.086,9.666L2.79,9.598c0.042,0.236,0.128,0.409,0.258,0.521c0.129,0.11,0.304,0.166,0.523,0.166 c0.232,0,0.408-0.05,0.526-0.147c0.118-0.099,0.177-0.214,0.177-0.346c0-0.085-0.024-0.157-0.074-0.216 C4.15,9.516,4.063,9.464,3.939,9.42C3.855,9.391,3.662,9.338,3.361,9.264C2.973,9.167,2.702,9.05,2.545,8.91 c-0.22-0.197-0.329-0.437-0.329-0.72c0-0.182,0.051-0.353,0.154-0.512C2.474,7.52,2.624,7.398,2.818,7.315 s0.429-0.125,0.704-0.125c0.449,0,0.787,0.099,1.015,0.295c0.227,0.197,0.346,0.46,0.357,0.789L4.171,8.307 C4.14,8.123,4.074,7.99,3.972,7.91C3.871,7.829,3.718,7.789,3.515,7.789c-0.211,0-0.375,0.043-0.494,0.129 C2.945,7.974,2.907,8.048,2.907,8.141c0,0.084,0.036,0.157,0.107,0.217c0.091,0.077,0.312,0.156,0.664,0.239 s0.611,0.169,0.78,0.257c0.168,0.089,0.3,0.21,0.396,0.364c0.095,0.153,0.143,0.344,0.143,0.569c0,0.205-0.057,0.397-0.171,0.576 c-0.114,0.18-0.275,0.312-0.483,0.399s-0.468,0.131-0.778,0.131c-0.453,0-0.801-0.104-1.043-0.313 C2.279,10.371,2.133,10.066,2.086,9.666z"/><path style="fill:#FFFFFF;" d="M5.485,10.831V7.252h2.453v0.605h-1.73v0.847h1.494V9.31H6.208v1.521H5.485z"/><path style="fill:#FFFFFF;" d="M9.215,10.831V7.857H8.153V7.252h2.843v0.605H9.937v2.974H9.215z"/><path style="fill:#FFFFFF;" d="M11.337,10.831V7.252h1.16c0.439,0,0.726,0.018,0.859,0.054c0.205,0.054,0.377,0.17,0.516,0.351 c0.138,0.18,0.207,0.412,0.207,0.697c0,0.22-0.04,0.404-0.119,0.554c-0.08,0.149-0.182,0.268-0.305,0.353 c-0.123,0.086-0.248,0.142-0.375,0.17c-0.172,0.034-0.422,0.051-0.749,0.051H12.06v1.351H11.337z M12.06,7.857v1.016h0.396 c0.284,0,0.475-0.019,0.57-0.056c0.097-0.038,0.172-0.096,0.227-0.176s0.082-0.172,0.082-0.278c0-0.13-0.039-0.238-0.115-0.322 s-0.174-0.138-0.291-0.159c-0.086-0.016-0.259-0.024-0.52-0.024H12.06z"/></g></g></g></svg> 
