<?xml version="1.0" encoding="iso-8859-1"?><svg version="1.1" xmlns="http://www.w3.org/2000/svg" xmlns:xlink="http://www.w3.org/1999/xlink" x="0px" y="0px" viewBox="0 0 16 16" style="enable-background:new 0 0 16 16;" xml:space="preserve"><g id="snowflake-database"><g><path style="fill-rule:evenodd;clip-rule:evenodd;fill:#2AB4E7;" d="M8.918,5.776c-0.03-0.061-0.03-0.061-0.03-0.061 c-0.241-0.393-0.09-0.938,0.331-1.18c2.948-1.694,2.948-1.694,2.948-1.694c0.391-0.242,0.933-0.121,1.173,0.303 c0.03,0.03,0.03,0.03,0.03,0.03c0.211,0.424,0.09,0.938-0.331,1.18c-2.948,1.725-2.948,1.725-2.948,1.725 C9.67,6.321,9.158,6.169,8.918,5.776L8.918,5.776z"/><path style="fill-rule:evenodd;clip-rule:evenodd;fill:#2AB4E7;" d="M9.67,6.139c-0.06,0-0.06,0-0.06,0 c-0.451,0-0.842-0.393-0.842-0.847c0-3.449,0-3.449,0-3.449c0-0.454,0.391-0.847,0.842-0.847c0.06,0,0.06,0,0.06,0 c0.451,0,0.842,0.393,0.842,0.847c0,3.449,0,3.449,0,3.449C10.512,5.746,10.121,6.139,9.67,6.139L9.67,6.139z"/><path style="fill-rule:evenodd;clip-rule:evenodd;fill:#2AB4E7;" d="M10.392,7.622c0.03-0.03,0.03-0.03,0.03-0.03 c0.211-0.424,0.752-0.575,1.173-0.333c2.948,1.725,2.948,1.725,2.948,1.725c0.421,0.242,0.542,0.756,0.301,1.18 c0,0.03,0,0.03,0,0.03c-0.241,0.424-0.782,0.545-1.173,0.303c-2.978-1.694-2.978-1.694-2.978-1.694 C10.301,8.56,10.151,8.015,10.392,7.622L10.392,7.622z"/><path style="fill-rule:evenodd;clip-rule:evenodd;fill:#2AB4E7;" d="M10.422,8.469c0-0.061,0-0.061,0-0.061 c-0.241-0.393-0.12-0.938,0.301-1.18c2.948-1.694,2.948-1.694,2.948-1.694c0.421-0.242,0.963-0.121,1.173,0.303 c0.03,0.03,0.03,0.03,0.03,0.03c0.241,0.424,0.09,0.968-0.301,1.18c-2.978,1.725-2.978,1.725-2.978,1.725 C11.204,9.014,10.662,8.862,10.422,8.469L10.422,8.469z"/><path style="fill-rule:evenodd;clip-rule:evenodd;fill:#2AB4E7;" d="M9.61,9.861c0.03,0,0.03,0,0.03,0 c0.481,0,0.872,0.393,0.872,0.847c0,3.449,0,3.449,0,3.449c0,0.484-0.391,0.847-0.872,0.847c-0.03,0-0.03,0-0.03,0 c-0.481,0-0.872-0.363-0.872-0.847c0-3.449,0-3.449,0-3.449C8.737,10.254,9.128,9.861,9.61,9.861L9.61,9.861z"/><path style="fill-rule:evenodd;clip-rule:evenodd;fill:#2AB4E7;" d="M8.918,10.315c0-0.03,0-0.03,0-0.03 C9.158,9.861,9.7,9.71,10.091,9.952c2.978,1.725,2.978,1.725,2.978,1.725c0.391,0.242,0.542,0.756,0.301,1.18 c-0.03,0.03-0.03,0.03-0.03,0.03c-0.211,0.424-0.752,0.575-1.173,0.333c-2.948-1.725-2.948-1.725-2.948-1.725 C8.797,11.253,8.677,10.738,8.918,10.315L8.918,10.315z"/><path style="fill-rule:evenodd;clip-rule:evenodd;fill:#2AB4E7;" d="M7.082,10.224c0.03,0.061,0.03,0.061,0.03,0.061 c0.241,0.393,0.09,0.938-0.331,1.18c-2.948,1.725-2.948,1.725-2.948,1.725c-0.391,0.212-0.933,0.091-1.173-0.333 c-0.03-0.03-0.03-0.03-0.03-0.03c-0.211-0.424-0.09-0.938,0.331-1.18c2.948-1.725,2.948-1.725,2.948-1.725 C6.33,9.679,6.842,9.831,7.082,10.224L7.082,10.224z"/><path style="fill-rule:evenodd;clip-rule:evenodd;fill:#2AB4E7;" d="M6.33,9.861c0.06,0,0.06,0,0.06,0 c0.451,0,0.842,0.393,0.842,0.847c0,3.449,0,3.449,0,3.449c0,0.484-0.391,0.847-0.842,0.847c-0.06,0-0.06,0-0.06,0 c-0.451,0-0.842-0.363-0.842-0.847c0-3.449,0-3.449,0-3.449C5.488,10.254,5.879,9.861,6.33,9.861L6.33,9.861z"/><path style="fill-rule:evenodd;clip-rule:evenodd;fill:#2AB4E7;" d="M5.608,8.378c-0.03,0.061-0.03,0.061-0.03,0.061 C5.368,8.832,4.826,8.983,4.405,8.741C1.457,7.017,1.457,7.017,1.457,7.017C1.035,6.805,0.915,6.26,1.156,5.837 c0-0.03,0-0.03,0-0.03c0.241-0.424,0.782-0.545,1.173-0.303c2.978,1.694,2.978,1.694,2.978,1.694 C5.699,7.44,5.849,7.985,5.608,8.378L5.608,8.378z"/><path style="fill-rule:evenodd;clip-rule:evenodd;fill:#2AB4E7;" d="M5.578,7.531c0,0.061,0,0.061,0,0.061 c0.241,0.393,0.12,0.938-0.301,1.18c-2.948,1.694-2.948,1.694-2.948,1.694c-0.421,0.242-0.963,0.121-1.173-0.303 c-0.03-0.03-0.03-0.03-0.03-0.03c-0.241-0.424-0.09-0.938,0.301-1.18c2.978-1.725,2.978-1.725,2.978-1.725 C4.796,6.986,5.338,7.138,5.578,7.531L5.578,7.531z"/><path style="fill-rule:evenodd;clip-rule:evenodd;fill:#2AB4E7;" d="M6.39,6.139c-0.03,0-0.03,0-0.03,0 c-0.481,0-0.872-0.393-0.872-0.847c0-3.449,0-3.449,0-3.449c0-0.454,0.391-0.847,0.872-0.847c0.03,0,0.03,0,0.03,0 c0.481,0,0.872,0.393,0.872,0.847c0,3.449,0,3.449,0,3.449C7.263,5.746,6.872,6.139,6.39,6.139L6.39,6.139z"/><path style="fill-rule:evenodd;clip-rule:evenodd;fill:#2AB4E7;" d="M7.082,5.685c0,0.03,0,0.03,0,0.03 C6.842,6.139,6.3,6.29,5.909,6.048C2.931,4.324,2.931,4.324,2.931,4.324C2.54,4.082,2.389,3.567,2.63,3.143 c0.03-0.03,0.03-0.03,0.03-0.03C2.871,2.69,3.412,2.538,3.833,2.78c2.948,1.725,2.948,1.725,2.948,1.725 C7.203,4.747,7.323,5.262,7.082,5.685L7.082,5.685z"/><path style="fill-rule:evenodd;clip-rule:evenodd;fill:#2AB4E7;" d="M9.399,7.592C8.436,6.593,8.436,6.593,8.436,6.593 c-0.241-0.242-0.632-0.242-0.872,0C6.601,7.592,6.601,7.592,6.601,7.592c-0.241,0.242-0.241,0.605,0,0.847 c0.963,0.999,0.963,0.999,0.963,0.999c0.241,0.242,0.632,0.242,0.872,0c0.963-0.999,0.963-0.999,0.963-0.999 C9.64,8.197,9.64,7.834,9.399,7.592L9.399,7.592z M8.526,8.106C8.105,8.53,8.105,8.53,8.105,8.53c-0.06,0.061-0.15,0.061-0.211,0 C7.474,8.106,7.474,8.106,7.474,8.106c-0.06-0.03-0.06-0.151,0-0.182c0.421-0.424,0.421-0.424,0.421-0.424 c0.06-0.061,0.15-0.061,0.211,0c0.421,0.424,0.421,0.424,0.421,0.424C8.587,7.955,8.587,8.076,8.526,8.106L8.526,8.106z"/></g></g></svg> 
