<?xml version="1.0" encoding="iso-8859-1"?><svg version="1.1" xmlns="http://www.w3.org/2000/svg" xmlns:xlink="http://www.w3.org/1999/xlink" x="0px" y="0px" viewBox="0 0 16 16" style="enable-background:new 0 0 16 16;" xml:space="preserve"><g id="sql-databases"><g><path style="fill:#FFFFFF;" d="M8.301,8.174c-0.267,0-0.48,0.101-0.641,0.302C7.5,8.678,7.419,8.946,7.419,9.281 c0,0.334,0.079,0.6,0.236,0.799c0.157,0.199,0.366,0.299,0.626,0.299c0.265,0,0.476-0.096,0.631-0.289 c0.156-0.193,0.234-0.457,0.234-0.794c0-0.346-0.075-0.62-0.226-0.821C8.769,8.274,8.563,8.174,8.301,8.174z"/><path style="fill:#FFFFFF;" d="M8,0.825c-2.989,0-5.413,0.878-5.413,1.96v10.429c0,1.074,2.384,1.945,5.339,1.959v0.001h0.058 c0.006,0,0.011,0,0.016,0v0c2.989,0,5.413-0.877,5.413-1.96V2.786C13.413,1.703,10.989,0.825,8,0.825z M3.847,2.997 C3.823,2.969,3.792,2.942,3.774,2.913c-0.049-0.077-0.079-0.156-0.08-0.237c0-0.001-0.001-0.002-0.001-0.003 c0-0.714,1.928-1.294,4.307-1.294c2.081,0,3.818,0.443,4.219,1.033c0.057,0.084,0.088,0.172,0.088,0.261 c0,0.083-0.032,0.163-0.081,0.241c-0.017,0.027-0.046,0.053-0.069,0.08c-0.042,0.049-0.088,0.097-0.148,0.143 C11.967,3.169,11.919,3.2,11.87,3.231c-0.061,0.038-0.126,0.074-0.198,0.11c-0.064,0.032-0.129,0.062-0.201,0.092 c-0.024,0.01-0.042,0.021-0.066,0.03c-0.003-0.001-0.007-0.002-0.009-0.003C10.607,3.766,9.387,3.966,8,3.966 c-1.387,0-2.607-0.2-3.395-0.506C4.603,3.461,4.599,3.462,4.596,3.463c-0.024-0.009-0.042-0.02-0.065-0.03 c-0.074-0.03-0.14-0.062-0.205-0.094c-0.07-0.035-0.134-0.07-0.193-0.107C4.082,3.2,4.032,3.169,3.99,3.136 C3.932,3.091,3.888,3.044,3.847,2.997z M5.928,10.777c-0.235,0.178-0.56,0.267-0.974,0.267c-0.353,0-0.647-0.064-0.884-0.191 v-0.762c0.273,0.232,0.574,0.348,0.903,0.348c0.159,0,0.282-0.032,0.368-0.095c0.087-0.064,0.13-0.148,0.13-0.253 c0-0.103-0.042-0.193-0.125-0.269C5.263,9.746,5.093,9.647,4.837,9.527c-0.521-0.244-0.781-0.578-0.781-1 c0-0.306,0.114-0.552,0.341-0.737c0.227-0.185,0.529-0.278,0.905-0.278c0.334,0,0.61,0.044,0.829,0.131v0.712 c-0.23-0.159-0.492-0.238-0.786-0.238c-0.148,0-0.264,0.031-0.35,0.094C4.909,8.273,4.866,8.357,4.866,8.461 c0,0.108,0.034,0.197,0.104,0.266c0.069,0.069,0.211,0.154,0.425,0.256c0.319,0.151,0.547,0.304,0.683,0.46 c0.135,0.156,0.203,0.35,0.203,0.581C6.281,10.348,6.163,10.599,5.928,10.777z M9.901,11.837h-1l-0.708-0.793 c-0.303-0.011-0.577-0.091-0.821-0.241c-0.244-0.149-0.432-0.354-0.565-0.613c-0.133-0.26-0.199-0.549-0.199-0.868 c0-0.354,0.072-0.67,0.215-0.947c0.144-0.277,0.346-0.49,0.606-0.64c0.26-0.149,0.559-0.224,0.896-0.224 c0.314,0,0.596,0.072,0.844,0.217c0.248,0.144,0.441,0.35,0.579,0.617c0.138,0.267,0.206,0.57,0.206,0.908 c0,0.402-0.092,0.751-0.274,1.046c-0.183,0.295-0.44,0.503-0.772,0.622L9.901,11.837z M12.555,10.985h-2.034V7.569h0.769v2.792 h1.265V10.985z"/></g></g></svg> 
