<?xml version="1.0" encoding="iso-8859-1"?><svg version="1.1" xmlns="http://www.w3.org/2000/svg" xmlns:xlink="http://www.w3.org/1999/xlink" x="0px" y="0px" viewBox="0 0 16 16" style="enable-background:new 0 0 16 16;" xml:space="preserve"><g id="sql-database"><g><path style="fill:#00609C;" d="M8,0.811c-2.992,0-5.418,0.878-5.418,1.962v10.439c0,1.075,2.386,1.947,5.344,1.961v0.001h0.058 c0.006,0,0.011,0,0.016,0v0c2.992,0,5.418-0.878,5.418-1.962V2.774C13.418,1.69,10.992,0.811,8,0.811z"/><path style="fill:#E27730;" d="M12.31,2.661c0,0.715-1.93,1.295-4.31,1.295S3.689,3.376,3.689,2.661 c0-0.715,1.93-1.295,4.311-1.295S12.31,1.945,12.31,2.661"/><path style="fill:#FFFFFF;" d="M11.407,3.452c0.564-0.219,0.903-0.493,0.903-0.791c0-0.715-1.93-1.295-4.311-1.295 c-2.381,0-4.31,0.58-4.31,1.295c0,0.298,0.339,0.572,0.903,0.791C5.381,3.146,6.612,2.948,8,2.948 C9.388,2.948,10.619,3.146,11.407,3.452"/><path style="fill:#FFFFFF;" d="M6.279,10.019c0,0.324-0.118,0.576-0.353,0.754c-0.235,0.178-0.56,0.267-0.975,0.267 c-0.353,0-0.648-0.064-0.885-0.191v-0.763c0.273,0.232,0.575,0.348,0.904,0.348c0.159,0,0.282-0.032,0.369-0.095 s0.13-0.148,0.13-0.253c0-0.103-0.042-0.193-0.125-0.269C5.26,9.741,5.09,9.642,4.834,9.521C4.313,9.277,4.052,8.942,4.052,8.52 c0-0.307,0.114-0.553,0.341-0.738C4.62,7.597,4.923,7.504,5.299,7.504c0.334,0,0.61,0.044,0.83,0.131v0.713 C5.899,8.189,5.636,8.11,5.342,8.11c-0.148,0-0.265,0.031-0.35,0.094C4.906,8.267,4.863,8.35,4.863,8.455 c0,0.108,0.034,0.197,0.104,0.266C5.036,8.79,5.178,8.876,5.393,8.977c0.32,0.151,0.547,0.304,0.683,0.46 C6.211,9.594,6.279,9.788,6.279,10.019z"/><path style="fill:#FFFFFF;" d="M9.958,9.247c0,0.402-0.092,0.751-0.274,1.047c-0.183,0.296-0.44,0.503-0.772,0.622l0.992,0.918 H8.902L8.194,11.04c-0.304-0.011-0.578-0.091-0.822-0.241c-0.244-0.149-0.432-0.354-0.565-0.614 c-0.133-0.26-0.199-0.55-0.199-0.869c0-0.354,0.072-0.67,0.216-0.948c0.144-0.278,0.346-0.491,0.607-0.64 C7.691,7.579,7.99,7.504,8.327,7.504c0.315,0,0.596,0.072,0.845,0.217c0.249,0.145,0.442,0.35,0.579,0.617 C9.889,8.606,9.958,8.909,9.958,9.247z M9.148,9.29c0-0.347-0.075-0.62-0.227-0.822C8.77,8.267,8.563,8.167,8.301,8.167 c-0.267,0-0.481,0.101-0.641,0.303C7.499,8.672,7.419,8.94,7.419,9.275c0,0.334,0.079,0.6,0.236,0.8 c0.158,0.199,0.366,0.299,0.627,0.299c0.266,0,0.476-0.097,0.632-0.29C9.07,9.892,9.148,9.627,9.148,9.29z"/><polygon style="fill:#FFFFFF;" points="12.56,10.981 10.523,10.981 10.523,7.561 11.293,7.561 11.293,10.356 12.56,10.356 "/></g></g></svg> 
