<?xml version="1.0" encoding="iso-8859-1"?><svg version="1.1" xmlns="http://www.w3.org/2000/svg" xmlns:xlink="http://www.w3.org/1999/xlink" x="0px" y="0px" viewBox="0 0 14.35 8.072" style="enable-background:new 0 0 14.35 8.072;" xml:space="preserve"><g id="ssis-line"><g><g><path style="fill:#555555;" d="M8.072,8.072H3.139c-0.359,0-0.697-0.14-0.951-0.394C1.934,7.424,1.794,7.085,1.794,6.726V1.345 c0-0.359,0.14-0.697,0.394-0.951S2.78,0,3.139,0h2.242v4.484h2.691V8.072z M3.139,0.897c-0.118,0-0.233,0.048-0.317,0.131 C2.738,1.112,2.691,1.227,2.691,1.345v5.381c0,0.12,0.047,0.232,0.131,0.317c0.084,0.083,0.199,0.131,0.317,0.131h4.036V5.381 H4.484V0.897H3.139z"/><path style="fill:#555555;" d="M1.794,3.587H0v0.897h1.794V3.587z"/><path style="fill:#555555;" d="M11.211,8.072H8.968V3.587H6.278V0h4.933c0.359,0,0.697,0.14,0.951,0.394s0.394,0.592,0.394,0.951 v5.381c0,0.359-0.14,0.697-0.394,0.951C11.908,7.932,11.57,8.072,11.211,8.072z M9.865,7.175h1.345 c0.12,0,0.232-0.046,0.317-0.131c0.085-0.085,0.131-0.197,0.131-0.317V1.345c0-0.118-0.048-0.233-0.131-0.317 c-0.085-0.085-0.197-0.131-0.317-0.131H7.175v1.794h2.691V7.175z"/><path style="fill:#555555;" d="M12.556,4.484h1.794V3.587h-1.794V4.484z"/></g></g></g></svg> 
