<?xml version="1.0" encoding="iso-8859-1"?><svg version="1.1" xmlns="http://www.w3.org/2000/svg" xmlns:xlink="http://www.w3.org/1999/xlink" x="0px" y="0px" viewBox="0 0 16 16" style="enable-background:new 0 0 16 16;" xml:space="preserve"><g id="ssis"><g><linearGradient id="SVGID_1_" gradientUnits="userSpaceOnUse" x1="1361.3076" y1="2502.8838" x2="1421.4219" y2="2502.8838" gradientTransform="matrix(0.18 0 0 0.18 -243.54 -441.54)"><stop offset="0" style="stop-color:#005BA1"/><stop offset="0.07" style="stop-color:#0060A9"/><stop offset="0.36" style="stop-color:#0071C8"/><stop offset="0.52" style="stop-color:#0078D4"/><stop offset="0.64" style="stop-color:#0074CD"/><stop offset="0.82" style="stop-color:#006ABB"/><stop offset="1" style="stop-color:#005BA1"/></linearGradient><path style="fill:url(#SVGID_1_);" d="M6.906,4.742c-2.988,0-5.411-0.844-5.411-1.958v10.433c0,1.072,2.38,1.941,5.335,1.958 h0.076c2.987,0,5.41-0.844,5.41-1.958V2.783C12.316,3.872,9.894,4.742,6.906,4.742z"/><path style="fill:#E8E8E8;" d="M12.316,2.783c0,1.089-2.422,1.958-5.41,1.958S1.495,3.897,1.495,2.783s2.423-1.958,5.411-1.958 S12.316,1.669,12.316,2.783z"/><path style="fill:#50E6FF;" d="M11.058,2.623c0,0.692-1.865,1.249-4.153,1.249S2.753,3.315,2.753,2.623s1.865-1.241,4.153-1.241 S11.058,1.939,11.058,2.623z"/><path style="fill:#198AB3;" d="M6.906,2.908c-1.113-0.013-2.22,0.15-3.283,0.481c0.72,0.266,2.191,0.527,3.303,0.488 c1.116,0.029,2.227-0.139,3.284-0.499C9.139,3.056,8.025,2.897,6.906,2.908z"/><path style="fill:#FFFFFF;" d="M11.307,14.676c1.566,0,2.836-1.27,2.836-2.836s-1.27-2.836-2.836-2.836 c-1.566,0-2.836,1.27-2.836,2.836S9.74,14.676,11.307,14.676L11.307,14.676z"/><path style="fill:#003067;" d="M11.239,9.434c1.328-0.001,2.406,1.076,2.406,2.404c0.001,1.328-1.076,2.406-2.404,2.406 c-1.328,0.001-2.406-1.076-2.406-2.404c-0.001-0.973,0.585-1.85,1.483-2.223C10.61,9.497,10.923,9.434,11.239,9.434z M11.239,8.573c-1.806-0.002-3.272,1.46-3.275,3.266c-0.002,1.806,1.46,3.272,3.266,3.275c1.806,0.002,3.272-1.46,3.275-3.266 c0.001-0.869-0.343-1.702-0.958-2.317C12.935,8.918,12.105,8.574,11.239,8.573z"/><path style="fill:#76BC2D;" d="M9.727,12.6c0.002,0.213,0.174,0.385,0.387,0.386h0.003l1.299-0.011v-0.817h-0.838v-1.504 l-0.477,0.003c-0.157,0.001-0.298,0.096-0.357,0.242c-0.019,0.047-0.029,0.098-0.029,0.149l0.004,0.573H9.204v0.385h0.518 L9.727,12.6z"/><path style="fill:#76BC2D;" d="M12.841,11.027c-0.002-0.213-0.174-0.385-0.387-0.386h-0.003l-1.273,0.011v0.906h0.838v1.416 l0.451-0.003c0.214-0.001,0.387-0.176,0.386-0.39c0,0,0,0,0,0l-0.004-0.574h0.516v-0.386h-0.518L12.841,11.027z"/></g></g></svg> 
