<?xml version="1.0" encoding="iso-8859-1"?><svg version="1.1" xmlns="http://www.w3.org/2000/svg" xmlns:xlink="http://www.w3.org/1999/xlink" x="0px" y="0px" viewBox="0 0 16 16" style="enable-background:new 0 0 16 16;" xml:space="preserve"><g id="staging-sql-database-grey"><g><path style="fill:#686969;" d="M8,0.825c-2.989,0-5.413,0.878-5.413,1.96v10.429c0,1.074,2.384,1.945,5.339,1.959v0.001h0.058 c0.006,0,0.011,0,0.016,0v0c2.989,0,5.413-0.877,5.413-1.96V2.786C13.413,1.703,10.989,0.825,8,0.825z"/></g><path style="fill:#E27730;" d="M12.276,2.702c0,0.71-1.915,1.285-4.276,1.285S3.723,3.411,3.723,2.702 c0-0.71,1.915-1.285,4.277-1.285S12.276,1.992,12.276,2.702"/><path style="fill:#FFFFFF;" d="M11.38,3.487c0.56-0.217,0.896-0.489,0.896-0.784c0-0.71-1.915-1.285-4.277-1.285 c-2.362,0-4.276,0.575-4.276,1.285c0,0.295,0.336,0.567,0.896,0.784C5.402,3.183,6.623,2.987,8,2.987 C9.377,2.987,10.598,3.183,11.38,3.487"/><g><path style="fill:#FFFFFF;" d="M6.374,8.244H5.071c-0.085,0-0.153-0.069-0.153-0.153V6.348c0-0.085,0.069-0.153,0.153-0.153h1.303 c0.085,0,0.153,0.069,0.153,0.153v1.743C6.527,8.176,6.458,8.244,6.374,8.244z M5.224,7.938h0.996V6.501H5.224V7.938z"/><path style="fill:#FFFFFF;" d="M8.651,8.244H7.349c-0.085,0-0.153-0.069-0.153-0.153V6.348c0-0.085,0.069-0.153,0.153-0.153h1.303 c0.085,0,0.153,0.069,0.153,0.153v1.743C8.804,8.176,8.736,8.244,8.651,8.244z M7.502,7.938h0.996V6.501H7.502V7.938z"/><path style="fill:#FFFFFF;" d="M10.929,8.244H9.626c-0.085,0-0.153-0.069-0.153-0.153V6.348c0-0.085,0.069-0.153,0.153-0.153 h1.303c0.085,0,0.153,0.069,0.153,0.153v1.743C11.082,8.176,11.013,8.244,10.929,8.244z M9.779,7.938h0.996V6.501H9.779V7.938z"/><path style="fill:#FFFFFF;" d="M6.374,10.907H5.071c-0.085,0-0.153-0.069-0.153-0.153V9.011c0-0.085,0.069-0.153,0.153-0.153 h1.303c0.085,0,0.153,0.069,0.153,0.153v1.743C6.527,10.839,6.458,10.907,6.374,10.907z M5.224,10.601h0.996V9.164H5.224V10.601z" /><path style="fill:#FFFFFF;" d="M8.651,10.907H7.349c-0.085,0-0.153-0.069-0.153-0.153V9.011c0-0.085,0.069-0.153,0.153-0.153 h1.303c0.085,0,0.153,0.069,0.153,0.153v1.743C8.804,10.839,8.736,10.907,8.651,10.907z M7.502,10.601h0.996V9.164H7.502V10.601z" /><path style="fill:#FFFFFF;" d="M10.929,10.907H9.626c-0.085,0-0.153-0.069-0.153-0.153V9.011c0-0.085,0.069-0.153,0.153-0.153 h1.303c0.085,0,0.153,0.069,0.153,0.153v1.743C11.082,10.839,11.013,10.907,10.929,10.907z M9.779,10.601h0.996V9.164H9.779 V10.601z"/><path style="fill:#FFFFFF;" d="M6.374,13.588H5.071c-0.085,0-0.153-0.069-0.153-0.153v-1.743c0-0.085,0.069-0.153,0.153-0.153 h1.303c0.085,0,0.153,0.069,0.153,0.153v1.743C6.527,13.52,6.458,13.588,6.374,13.588z M5.224,13.282h0.996v-1.437H5.224V13.282z" /><path style="fill:#FFFFFF;" d="M8.651,13.588H7.349c-0.085,0-0.153-0.069-0.153-0.153v-1.743c0-0.085,0.069-0.153,0.153-0.153 h1.303c0.085,0,0.153,0.069,0.153,0.153v1.743C8.804,13.52,8.736,13.588,8.651,13.588z M7.502,13.282h0.996v-1.437H7.502V13.282z" /><path style="fill:#FFFFFF;" d="M10.929,13.588H9.626c-0.085,0-0.153-0.069-0.153-0.153v-1.743c0-0.085,0.069-0.153,0.153-0.153 h1.303c0.085,0,0.153,0.069,0.153,0.153v1.743C11.082,13.52,11.013,13.588,10.929,13.588z M9.779,13.282h0.996v-1.437H9.779 V13.282z"/></g></g></svg> 
