<?xml version="1.0" encoding="iso-8859-1"?><svg version="1.1" xmlns="http://www.w3.org/2000/svg" xmlns:xlink="http://www.w3.org/1999/xlink" x="0px" y="0px" viewBox="0 0 16 16" style="enable-background:new 0 0 16 16;" xml:space="preserve"><g id="streams-color"><rect x="5.394" y="6.135" style="fill:#686969;" width="5.466" height="0.965"/><rect x="6.6" y="8.547" style="fill:#0088B6;" width="6.189" height="0.965"/><rect x="5.394" y="10.958" style="fill:#686969;" width="5.466" height="0.965"/><circle style="fill:#686969;" cx="5.595" cy="11.44" r="0.94"/><ellipse style="fill:#686969;" cx="5.595" cy="6.617" rx="0.94" ry="0.94"/><ellipse style="fill:#0088B6;" cx="6.801" cy="9.029" rx="0.94" ry="0.94"/><polygon style="fill:#686969;" points="10.418,7.823 10.418,5.412 12.347,6.617 "/><polygon style="fill:#686969;" points="10.418,12.646 10.418,10.235 12.347,11.44 "/><polygon style="fill:#0088B6;" points="12.347,10.235 12.347,7.823 14.277,9.029 "/><rect x="13.507" y="12.646" style="fill:#686969;" width="0.77" height="2.157"/><rect x="1.723" y="1.846" style="fill:#686969;" width="0.77" height="12.957"/><rect x="1.723" y="13.923" style="fill:#686969;" width="12.546" height="0.88"/><rect x="13.507" y="3.284" style="fill:#686969;" width="0.77" height="2.128"/><rect x="1.723" y="1.245" style="fill:#0088B6;" width="12.553" height="2.89"/></g></svg> 
