<?xml version="1.0" encoding="iso-8859-1"?><svg version="1.1" xmlns="http://www.w3.org/2000/svg" xmlns:xlink="http://www.w3.org/1999/xlink" x="0px" y="0px" viewBox="0 0 12.439 14.363" style="enable-background:new 0 0 12.439 14.363;" xml:space="preserve"><g id="synapse-blue"><path style="fill:none;" d="M1.277,4.328v5.707l1.824,1.053l4.089-2.317c-0.005-0.049-0.008-0.099-0.008-0.15 c0-0.282,0.078-0.546,0.213-0.772c-0.178-0.255-0.415-0.493-0.71-0.706C5.942,6.609,4.95,6.31,3.884,6.295 C3.813,6.32,3.74,6.334,3.667,6.334c-0.219,0-0.432-0.113-0.551-0.315C2.938,5.715,3.039,5.324,3.343,5.145l4.577-2.689 L7.919,2.456L5.526,3.863l2.393-1.407L6.22,1.474L1.277,4.328z"/><path style="fill:none;" d="M5.654,5.268c0.656,0.185,1.26,0.468,1.777,0.84c0.42,0.302,0.762,0.649,1.023,1.026 C8.53,7.122,8.607,7.116,8.687,7.116c0.831,0,1.505,0.674,1.505,1.505s-0.674,1.505-1.505,1.505c-0.312,0-0.602-0.095-0.843-0.258 l-3.46,1.961l1.836,1.06l4.943-2.854V4.328L9.192,3.19L5.654,5.268z"/><path style="fill:none;" d="M7.431,6.108c0.42,0.302,0.762,0.649,1.023,1.026C8.53,7.122,8.607,7.116,8.687,7.116 c0.831,0,1.505,0.674,1.505,1.505s-0.674,1.505-1.505,1.505c-0.312,0-0.602-0.095-0.843-0.258l-3.46,1.961l1.836,1.06l4.943-2.854 V4.328L9.192,3.19l-1.62,0.952L7.57,4.143l0.002-0.001L5.654,5.268C6.31,5.453,6.914,5.736,7.431,6.108z"/><path style="fill:none;" d="M1.277,4.328v5.707l1.824,1.053l4.089-2.317c-0.005-0.049-0.008-0.099-0.008-0.15 c0-0.282,0.078-0.546,0.213-0.772c-0.178-0.255-0.415-0.493-0.71-0.706C5.942,6.609,4.95,6.31,3.884,6.295 C3.813,6.32,3.74,6.334,3.667,6.334c-0.219,0-0.432-0.113-0.551-0.315C2.938,5.715,3.039,5.324,3.343,5.145l4.577-2.689 L7.919,2.456L6.22,1.474L1.277,4.328z"/><path style="fill:none;" d="M7.431,6.108c0.42,0.302,0.762,0.649,1.023,1.026C8.53,7.122,8.607,7.116,8.687,7.116 c0.831,0,1.505,0.674,1.505,1.505s-0.674,1.505-1.505,1.505c-0.312,0-0.602-0.095-0.843-0.258l-1.325,0.751L4.385,11.83 l1.835,1.059l4.943-2.854V4.328L9.192,3.19l-1.62,0.952L5.654,5.268C6.31,5.453,6.914,5.736,7.431,6.108z"/><polygon style="fill:none;" points="4.383,11.829 4.385,11.83 6.519,10.619 "/><path style="fill:none;" d="M1.277,4.328v5.707l1.822,1.052l2.746-1.553l-2.746,1.553l0.002,0.001l4.089-2.317 c-0.005-0.049-0.008-0.099-0.008-0.15c0-0.282,0.078-0.546,0.213-0.772c-0.178-0.255-0.415-0.493-0.71-0.706 C5.942,6.609,4.95,6.31,3.884,6.295C3.813,6.32,3.74,6.334,3.667,6.334c-0.219,0-0.432-0.113-0.551-0.315 C2.938,5.715,3.039,5.324,3.343,5.145l4.577-2.689L7.919,2.456L6.22,1.474L1.277,4.328z"/><polygon style="fill:#175A9A;" points="10.432,2.432 7.572,4.142 9.192,3.19 11.162,4.328 11.162,10.035 6.22,12.889 4.385,11.83 3.097,12.561 6.22,14.363 12.439,10.773 12.439,3.591 "/><polygon style="fill:#175A9A;" points="1.277,10.035 1.277,4.328 6.22,1.474 7.919,2.456 9.184,1.712 6.22,0 0,3.591 0,10.773 1.809,11.817 3.098,11.087 "/><path style="fill:#219DD9;" d="M8.687,7.116c-0.079,0-0.157,0.006-0.233,0.018C8.193,6.757,7.851,6.41,7.431,6.108 C6.914,5.736,6.31,5.453,5.654,5.268l1.918-1.126l2.86-1.71L9.184,1.712L7.919,2.456l0.002,0.001L4.658,4.373 C4.437,4.247,4.185,4.17,3.912,4.17c-0.838,0-1.517,0.679-1.517,1.517s0.679,1.517,1.517,1.517c0.547,0,1.022-0.292,1.289-0.726 C5.753,6.621,6.262,6.84,6.685,7.144c0.294,0.212,0.532,0.45,0.71,0.706C7.26,8.075,7.182,8.339,7.182,8.621 c0,0.051,0.003,0.101,0.008,0.15l-4.089,2.317l-0.002-0.001l-1.29,0.73l1.289,0.744l1.288-0.731l-0.002-0.001l2.136-1.211 l1.325-0.751c0.24,0.163,0.53,0.258,0.843,0.258c0.831,0,1.505-0.674,1.505-1.505S9.518,7.116,8.687,7.116z"/></g></svg> 
