<?xml version="1.0" encoding="iso-8859-1"?><svg version="1.1" xmlns="http://www.w3.org/2000/svg" xmlns:xlink="http://www.w3.org/1999/xlink" x="0px" y="0px" viewBox="0 0 16 16" style="enable-background:new 0 0 16 16;" xml:space="preserve"><g id="target-mappings"><polygon style="fill:#555555;" points="2.26,14.327 2.26,13.74 2.26,13.461 2.26,8.86 2.26,8.581 2.26,8.527 2.26,8.275 2.26,2.751 2.26,2.511 2.26,2.459 2.26,2.26 2.26,2.193 2.26,0.825 0.825,0.825 0.825,2.511 0.825,2.751 0.825,8.275 0.825,8.527 0.825,13.461 0.825,14.291 0.825,15.175 2.26,15.175 "/><polygon style="fill:#555555;" points="13.74,0.825 13.74,1.961 13.74,2.223 13.74,2.26 13.74,2.511 13.74,2.547 13.74,2.751 13.74,4.325 13.74,5.895 13.74,6.893 13.74,8.269 13.74,8.275 13.74,8.527 13.74,8.545 13.74,8.855 13.74,10.633 13.74,12.204 13.74,13.202 13.74,13.461 13.74,13.74 13.74,13.945 13.74,14.854 13.74,15.175 15.175,15.175 15.175,14.291 15.175,13.461 15.175,12.782 15.175,11.87 15.175,10.435 15.175,8.81 15.175,8.527 15.175,8.275 15.175,7.018 15.175,6.106 15.175,4.671 15.175,3.046 15.175,2.751 15.175,2.511 15.175,0.825 "/><g><polygon style="fill:#555555;" points="10.241,7.364 6.913,9.852 6.912,9.851 5.18,11.143 2.706,11.143 2.706,12.367 5.758,12.367 10.82,8.589 13.294,8.589 13.294,7.364 "/><polygon style="fill:#555555;" points="6.473,9.554 7.582,8.726 5.821,7.411 5.755,7.364 2.706,7.364 2.706,8.589 5.18,8.589 "/><polygon style="fill:#555555;" points="9.525,10.179 8.418,11.006 10.241,12.367 13.294,12.367 13.294,11.143 10.816,11.143 "/></g><rect x="2.706" y="4.543" style="fill:#555555;" width="10.588" height="1.224"/><rect x="2.706" y="12.964" style="fill:#555555;" width="10.588" height="1.224"/><rect x="2.706" y="1.832" style="fill:#555555;" width="10.588" height="1.224"/></g></svg> 
