<?xml version="1.0" encoding="iso-8859-1"?><svg version="1.1" xmlns="http://www.w3.org/2000/svg" xmlns:xlink="http://www.w3.org/1999/xlink" x="0px" y="0px" viewBox="0 0 11.565 14.348" style="enable-background:new 0 0 11.565 14.348;" xml:space="preserve"><g id="zoom-in"><rect x="2.915" y="4.732" style="fill:#0088B6;" width="4.722" height="1.087"/><rect x="4.732" y="2.914" style="fill:#0088B6;" width="1.087" height="4.722"/><path style="fill:#686969;" d="M10.53,14.254l0.03,0.017l0.009,0.003c0.098,0.048,0.206,0.073,0.313,0.073 c0.136,0,0.267-0.04,0.379-0.116c0.152-0.103,0.255-0.26,0.29-0.442c0.035-0.182-0.002-0.366-0.106-0.518L8.863,9.458l-0.13-0.184 l0.155-0.165c0.886-0.833,1.443-1.904,1.611-3.098c0.406-2.88-1.607-5.553-4.487-5.959C5.765,0.018,5.515,0,5.268,0 C2.66,0,0.417,1.951,0.052,4.538c-0.406,2.88,1.606,5.554,4.486,5.96c0.239,0.034,0.482,0.051,0.722,0.051 c0.724,0,1.436-0.151,2.116-0.448l0.208-0.091l0.118,0.194l2.599,3.843C10.357,14.13,10.434,14.2,10.53,14.254z M5.28,9.407 c-0.193,0-0.389-0.014-0.582-0.041C2.443,9.047,0.867,6.953,1.185,4.698C1.471,2.672,3.227,1.144,5.27,1.143 c0.193,0,0.389,0.014,0.582,0.041c2.256,0.318,3.833,2.412,3.514,4.667C9.081,7.878,7.324,9.407,5.28,9.407z"/></g></svg> 
