<?xml version="1.0" encoding="iso-8859-1"?><svg version="1.1" xmlns="http://www.w3.org/2000/svg" xmlns:xlink="http://www.w3.org/1999/xlink" x="0px" y="0px" viewBox="0 0 14.35 12.255" style="enable-background:new 0 0 14.35 12.255;" xml:space="preserve"><g id="zoom-reset"><g><path style="fill:#0088B6;" d="M4.247,4.043C4.169,4.199,4.033,4.365,3.842,4.536C3.647,4.71,3.416,4.86,3.156,4.982L3.084,5.017 v0.73l0.168-0.062c0.157-0.058,0.337-0.146,0.534-0.261c0.1-0.059,0.192-0.119,0.274-0.179v2.97h0.738V3.973H4.281L4.247,4.043z" /><path style="fill:#0088B6;" d="M7.821,4.53c-0.117-0.18-0.266-0.319-0.445-0.414c-0.178-0.095-0.387-0.144-0.62-0.144 c-0.317,0-0.586,0.088-0.799,0.261c-0.208,0.17-0.367,0.413-0.471,0.72C5.386,5.252,5.335,5.647,5.335,6.129 c0,0.782,0.137,1.335,0.42,1.694c0.243,0.305,0.58,0.459,1,0.459c0.32,0,0.589-0.089,0.802-0.263 c0.208-0.17,0.366-0.413,0.469-0.722c0.1-0.298,0.15-0.691,0.15-1.168c0-0.403-0.032-0.729-0.094-0.971 C8.021,4.914,7.933,4.703,7.821,4.53z M7.426,6.129c0,0.774-0.112,1.096-0.206,1.229C7.09,7.542,6.939,7.63,6.756,7.63 c-0.183,0-0.334-0.089-0.463-0.271c-0.094-0.133-0.207-0.455-0.207-1.23c0-0.623,0.078-1.051,0.229-1.27 c0.11-0.156,0.252-0.232,0.435-0.232c0.186,0,0.34,0.088,0.469,0.27C7.314,5.029,7.426,5.351,7.426,6.129z"/><path style="fill:#0088B6;" d="M11.172,5.158c-0.062-0.245-0.151-0.456-0.264-0.628c-0.115-0.18-0.266-0.319-0.443-0.414 c-0.179-0.095-0.387-0.144-0.62-0.144c-0.317,0-0.586,0.088-0.8,0.261c-0.208,0.17-0.366,0.413-0.47,0.72 C8.473,5.255,8.424,5.64,8.424,6.129c0,0.782,0.138,1.336,0.42,1.694c0.243,0.305,0.58,0.459,1.001,0.459 c0.319,0,0.589-0.089,0.801-0.263c0.207-0.169,0.365-0.412,0.47-0.722c0.1-0.298,0.15-0.691,0.15-1.168 C11.265,5.727,11.234,5.4,11.172,5.158z M10.513,6.129c0,0.774-0.112,1.096-0.207,1.229C10.178,7.542,10.027,7.63,9.844,7.63 c-0.184,0-0.335-0.089-0.464-0.271c-0.094-0.133-0.206-0.454-0.206-1.23c0-0.624,0.077-1.051,0.229-1.27 c0.109-0.156,0.252-0.232,0.435-0.232c0.187,0,0.34,0.088,0.469,0.27C10.401,5.029,10.513,5.351,10.513,6.129z"/></g><path style="fill:#686969;" d="M13.243,1c0.059,0,0.107,0.048,0.107,0.107v10.041c0,0.059-0.048,0.107-0.107,0.107H1.107 C1.048,11.255,1,11.207,1,11.148V1.107C1,1.048,1.048,1,1.107,1H13.243 M13.243,0H1.107C0.496,0,0,0.496,0,1.107v10.041 c0,0.611,0.496,1.107,1.107,1.107h12.136c0.611,0,1.107-0.495,1.107-1.107V1.107C14.35,0.496,13.854,0,13.243,0L13.243,0z"/></g></svg> 
